<?xml version="1.0" encoding="UTF-8"?>
<svg xmlns="http://www.w3.org/2000/svg" xmlns:xlink="http://www.w3.org/1999/xlink" width="200px" height="200px" viewBox="0 0 200 200" version="1.1">
<g id="surface1">
<path style=" stroke:none;fill-rule:nonzero;fill:rgb(0%,61.960784%,28.627451%);fill-opacity:1;" d="M 22.222656 27.777344 C 9.949219 27.777344 0 37.726562 0 50 L 0 135.128906 L 147.199219 27.777344 Z M 22.222656 27.777344 "/>
<path style=" stroke:none;fill-rule:nonzero;fill:rgb(80.784314%,6.666667%,14.901961%);fill-opacity:1;" d="M 177.777344 172.222656 C 190.050781 172.222656 200 162.273438 200 150 L 200 62.144531 L 48.707031 172.222656 Z M 177.777344 172.222656 "/>
<path style=" stroke:none;fill-rule:nonzero;fill:rgb(98.823529%,81.960784%,8.627451%);fill-opacity:1;" d="M 147.199219 27.777344 L 0 135.128906 L 0 145.539062 L 161.476562 27.777344 Z M 48.707031 172.222656 L 200 62.144531 L 200 51.734375 L 34.429688 172.222656 Z M 48.707031 172.222656 "/>
<path style=" stroke:none;fill-rule:nonzero;fill:rgb(7.843137%,7.843137%,7.843137%);fill-opacity:1;" d="M 177.777344 27.777344 L 161.476562 27.777344 L 0 145.539062 L 0 150 C 0 162.273438 9.949219 172.222656 22.222656 172.222656 L 34.429688 172.222656 L 200 51.734375 L 200 50 C 200 37.726562 190.050781 27.777344 177.777344 27.777344 Z M 177.777344 27.777344 "/>
<path style=" stroke:none;fill-rule:nonzero;fill:rgb(100%,100%,100%);fill-opacity:1;" d="M 150.84375 54.050781 L 139.320312 62.457031 L 127.773438 54.09375 L 132.207031 67.644531 L 120.683594 76.050781 L 134.945312 76.023438 L 139.371094 89.578125 L 143.753906 76.003906 L 158.015625 75.984375 L 146.460938 67.621094 Z M 73.25 110.640625 L 61.726562 119.042969 L 50.179688 110.683594 L 54.609375 124.234375 L 43.089844 132.640625 L 57.351562 132.609375 L 61.777344 146.167969 L 66.160156 132.59375 L 80.421875 132.570312 L 68.867188 124.210938 Z M 73.25 110.640625 "/>
</g>
</svg>
