<?xml version="1.0" encoding="UTF-8"?>
<svg xmlns="http://www.w3.org/2000/svg" xmlns:xlink="http://www.w3.org/1999/xlink" width="200px" height="200px" viewBox="0 0 200 200" version="1.1">
<g id="surface1">
<path style=" stroke:none;fill-rule:nonzero;fill:rgb(99.215686%,87.45098%,0%);fill-opacity:1;" d="M 105.554688 172.222656 L 50 172.222656 C 37.726562 172.222656 27.777344 162.273438 27.777344 150 L 27.777344 50 C 27.777344 37.726562 37.726562 27.777344 50 27.777344 L 105.554688 27.777344 Z M 105.554688 172.222656 "/>
<path style=" stroke:none;fill-rule:nonzero;fill:rgb(93.333333%,93.333333%,93.333333%);fill-opacity:1;" d="M 172.222656 150 C 172.222656 162.273438 162.273438 172.222656 150 172.222656 L 100 172.222656 L 100 27.777344 L 150 27.777344 C 162.273438 27.777344 172.222656 37.726562 172.222656 50 Z M 172.222656 150 "/>
<path style=" stroke:none;fill-rule:nonzero;fill:rgb(63.137255%,63.137255%,63.137255%);fill-opacity:1;" d="M 160.089844 79.078125 L 161.917969 75.695312 L 158.183594 77.390625 Z M 160.089844 79.078125 "/>
<path style=" stroke:none;fill-rule:nonzero;fill:rgb(63.137255%,63.137255%,63.137255%);fill-opacity:1;" d="M 160.253906 76.011719 C 160.253906 76.773438 160.867188 77.390625 161.628906 77.390625 C 162.390625 77.390625 163 76.773438 163 76.011719 C 163 75.253906 162.390625 74.640625 161.628906 74.640625 C 160.867188 74.640625 160.253906 75.253906 160.253906 76.011719 Z M 157.054688 76.816406 C 156.410156 77.457031 156.738281 78.828125 157.785156 79.867188 C 158.828125 80.917969 160.195312 81.238281 160.832031 80.59375 C 161.476562 79.957031 161.15625 78.589844 160.105469 77.542969 C 159.070312 76.5 157.699219 76.167969 157.054688 76.816406 Z M 157.054688 76.816406 "/>
<path style=" stroke:none;fill-rule:nonzero;fill:rgb(79.607843%,61.176471%,16.862745%);fill-opacity:1;" d="M 125.339844 108.679688 C 127.445312 110.671875 129.234375 108.09375 132.59375 105.117188 C 135.667969 102.394531 155.859375 83.617188 158.027344 81.707031 C 160.199219 79.792969 158.183594 76.90625 155.667969 79.25 C 153.148438 81.59375 128.996094 101.816406 127.183594 103.464844 C 125.367188 105.121094 123.003906 106.464844 125.339844 108.679688 Z M 125.339844 108.679688 "/>
<path style=" stroke:none;fill-rule:nonzero;fill:rgb(79.607843%,61.176471%,16.862745%);fill-opacity:1;" d="M 157.488281 80.878906 L 159.917969 83.589844 L 158.699219 84.632812 L 159.917969 85.671875 L 161.132812 84.632812 L 162.867188 86.542969 L 162.867188 88.449219 L 159.484375 91.320312 L 157.488281 90.015625 L 157.488281 88.449219 L 155.839844 88.449219 L 155.839844 89.933594 L 156.707031 90.015625 L 157.488281 90.882812 L 157.570312 92.882812 L 154.570312 95.3125 L 148.417969 89.472656 Z M 109.222656 114.785156 C 109.222656 119.351562 112.929688 123.054688 117.496094 123.054688 C 122.0625 123.054688 125.765625 119.351562 125.765625 114.785156 C 125.765625 110.214844 122.0625 106.511719 117.496094 106.511719 C 112.929688 106.511719 109.222656 110.214844 109.222656 114.785156 Z M 114.523438 114.789062 C 113.039062 114.765625 111.84375 113.566406 111.84375 112.089844 C 111.84375 110.589844 113.0625 109.378906 114.554688 109.378906 C 116.054688 109.378906 117.265625 110.59375 117.265625 112.089844 L 117.261719 112.128906 C 117.339844 112.121094 117.40625 112.078125 117.488281 112.078125 C 117.496094 110.589844 118.710938 109.378906 120.199219 109.378906 C 121.699219 109.378906 122.910156 110.59375 122.910156 112.089844 C 122.910156 113.570312 121.714844 114.765625 120.238281 114.789062 C 121.722656 114.816406 122.910156 116.015625 122.910156 117.496094 C 122.910156 118.988281 121.695312 120.207031 120.199219 120.207031 C 118.707031 120.207031 117.496094 118.988281 117.488281 117.5 C 117.40625 117.5 117.339844 117.457031 117.253906 117.449219 L 117.265625 117.496094 C 117.265625 118.988281 116.050781 120.207031 114.554688 120.207031 C 113.054688 120.207031 111.84375 118.988281 111.84375 117.496094 C 111.851562 116.015625 113.042969 114.816406 114.523438 114.789062 Z M 114.523438 114.789062 "/>
<path style=" stroke:none;fill-rule:nonzero;fill:rgb(63.137255%,63.137255%,63.137255%);fill-opacity:1;" d="M 122.898438 106.929688 C 122.253906 107.566406 122.582031 108.9375 123.628906 109.976562 C 124.671875 111.023438 126.039062 111.351562 126.679688 110.707031 C 127.320312 110.066406 127 108.699219 125.949219 107.65625 C 124.910156 106.609375 123.539062 106.285156 122.898438 106.929688 Z M 109.601562 107.972656 C 109.601562 108.753906 110.234375 109.390625 111.023438 109.390625 C 111.804688 109.390625 112.4375 108.753906 112.4375 107.972656 C 112.4375 107.183594 111.804688 106.550781 111.023438 106.550781 C 110.234375 106.550781 109.601562 107.183594 109.601562 107.972656 Z M 121.949219 121.644531 C 121.949219 122.429688 122.582031 123.0625 123.371094 123.0625 C 124.15625 123.0625 124.789062 122.429688 124.789062 121.644531 C 124.789062 120.855469 124.15625 120.222656 123.371094 120.222656 C 122.582031 120.222656 121.949219 120.855469 121.949219 121.644531 Z M 109.222656 121.183594 C 109.222656 121.964844 109.855469 122.601562 110.644531 122.601562 C 111.429688 122.601562 112.0625 121.964844 112.0625 121.183594 C 112.0625 120.394531 111.429688 119.761719 110.644531 119.761719 C 109.855469 119.765625 109.222656 120.398438 109.222656 121.183594 Z M 109.222656 121.183594 "/>
<path style=" stroke:none;fill-rule:nonzero;fill:rgb(70.588235%,70.588235%,70.980392%);fill-opacity:1;" d="M 148.722656 94.90625 C 149.496094 94.398438 150.082031 93.710938 150.476562 92.851562 C 152.140625 89.226562 150.078125 83.398438 148.816406 81.148438 C 147.277344 78.390625 148.222656 76.589844 148.960938 75.726562 C 148.753906 75.648438 148.503906 75.589844 148.234375 75.589844 C 147.628906 75.589844 147.039062 75.882812 146.5 76.464844 C 144.878906 78.195312 145.644531 80.5 147.90625 85.738281 C 149.605469 89.667969 150.265625 92.5 148.722656 94.90625 Z M 148.722656 94.90625 "/>
<path style=" stroke:none;fill-rule:nonzero;fill:rgb(70.588235%,70.588235%,70.980392%);fill-opacity:1;" d="M 145.617188 78.015625 C 146.410156 76.859375 147.632812 76.214844 149.132812 76.214844 C 150.351562 76.214844 151.605469 76.671875 152.660156 77.472656 L 154.214844 75.128906 C 153.527344 74.554688 151.867188 73.367188 149.988281 73.367188 C 149.496094 73.367188 149.015625 73.449219 148.554688 73.609375 C 146.429688 74.371094 145.710938 76.332031 145.617188 78.015625 Z M 145.617188 78.015625 "/>
<path style=" stroke:none;fill-rule:nonzero;fill:rgb(79.607843%,61.176471%,16.862745%);fill-opacity:1;" d="M 112.132812 79.078125 L 110.304688 75.695312 L 114.039062 77.390625 Z M 112.132812 79.078125 "/>
<path style=" stroke:none;fill-rule:nonzero;fill:rgb(79.607843%,61.176471%,16.862745%);fill-opacity:1;" d="M 111.964844 76.011719 C 111.964844 76.773438 111.355469 77.390625 110.59375 77.390625 C 109.832031 77.390625 109.222656 76.773438 109.222656 76.011719 C 109.222656 75.253906 109.832031 74.640625 110.59375 74.640625 C 111.355469 74.640625 111.964844 75.253906 111.964844 76.011719 Z M 115.160156 76.816406 C 115.804688 77.457031 115.476562 78.828125 114.433594 79.867188 C 113.390625 80.917969 112.023438 81.238281 111.382812 80.59375 C 110.738281 79.957031 111.0625 78.589844 112.109375 77.542969 C 113.148438 76.5 114.523438 76.167969 115.160156 76.816406 Z M 115.160156 76.816406 "/>
<path style=" stroke:none;fill-rule:nonzero;fill:rgb(63.137255%,63.137255%,63.137255%);fill-opacity:1;" d="M 146.882812 108.679688 C 144.777344 110.671875 142.988281 108.09375 139.628906 105.117188 C 136.554688 102.394531 116.359375 83.617188 114.195312 81.707031 C 112.023438 79.792969 114.039062 76.90625 116.554688 79.25 C 119.070312 81.59375 143.226562 101.816406 145.039062 103.464844 C 146.855469 105.121094 149.214844 106.464844 146.882812 108.679688 Z M 146.882812 108.679688 "/>
<path style=" stroke:none;fill-rule:nonzero;fill:rgb(63.137255%,63.137255%,63.137255%);fill-opacity:1;" d="M 114.734375 80.878906 L 112.304688 83.589844 L 113.523438 84.632812 L 112.304688 85.671875 L 111.089844 84.632812 L 109.355469 86.542969 L 109.355469 88.449219 L 112.738281 91.320312 L 114.734375 90.015625 L 114.734375 88.449219 L 116.382812 88.449219 L 116.382812 89.933594 L 115.515625 90.015625 L 114.734375 90.882812 L 114.648438 92.882812 L 117.648438 95.3125 L 123.804688 89.472656 Z M 154.726562 106.511719 C 150.160156 106.511719 146.457031 110.214844 146.457031 114.785156 C 146.457031 119.351562 150.160156 123.054688 154.726562 123.054688 C 159.292969 123.054688 163 119.351562 163 114.785156 C 163 110.214844 159.292969 106.511719 154.726562 106.511719 Z M 160.371094 117.496094 C 160.371094 118.988281 159.15625 120.207031 157.660156 120.207031 C 156.160156 120.207031 154.949219 118.988281 154.949219 117.496094 L 154.960938 117.449219 C 154.878906 117.457031 154.8125 117.5 154.726562 117.5 C 154.722656 118.988281 153.511719 120.207031 152.015625 120.207031 C 150.523438 120.207031 149.304688 118.988281 149.304688 117.496094 C 149.304688 116.011719 150.5 114.816406 151.976562 114.789062 C 150.496094 114.765625 149.304688 113.566406 149.304688 112.089844 C 149.304688 110.589844 150.523438 109.378906 152.015625 109.378906 C 153.511719 109.378906 154.722656 110.589844 154.726562 112.078125 C 154.8125 112.078125 154.878906 112.121094 154.957031 112.128906 L 154.949219 112.089844 C 154.949219 110.589844 156.167969 109.378906 157.660156 109.378906 C 159.160156 109.378906 160.371094 110.59375 160.371094 112.089844 C 160.371094 113.570312 159.179688 114.765625 157.699219 114.789062 C 159.179688 114.816406 160.371094 116.015625 160.371094 117.496094 Z M 160.371094 117.496094 "/>
<path style=" stroke:none;fill-rule:nonzero;fill:rgb(79.607843%,61.176471%,16.862745%);fill-opacity:1;" d="M 149.320312 106.929688 C 149.964844 107.566406 149.640625 108.9375 148.59375 109.976562 C 147.550781 111.023438 146.183594 111.351562 145.542969 110.707031 C 144.898438 110.066406 145.222656 108.699219 146.273438 107.65625 C 147.3125 106.609375 148.683594 106.285156 149.320312 106.929688 Z M 162.621094 107.972656 C 162.621094 108.753906 161.988281 109.390625 161.199219 109.390625 C 160.417969 109.390625 159.785156 108.753906 159.785156 107.972656 C 159.785156 107.183594 160.417969 106.550781 161.199219 106.550781 C 161.988281 106.550781 162.621094 107.183594 162.621094 107.972656 Z M 150.273438 121.644531 C 150.273438 122.429688 149.640625 123.0625 148.851562 123.0625 C 148.066406 123.0625 147.433594 122.429688 147.433594 121.644531 C 147.433594 120.855469 148.066406 120.222656 148.851562 120.222656 C 149.640625 120.222656 150.273438 120.855469 150.273438 121.644531 Z M 163 121.183594 C 163 121.964844 162.367188 122.601562 161.578125 122.601562 C 160.792969 122.601562 160.160156 121.964844 160.160156 121.183594 C 160.160156 120.394531 160.792969 119.761719 161.578125 119.761719 C 162.367188 119.765625 163 120.398438 163 121.183594 Z M 163 121.183594 "/>
<path style=" stroke:none;fill-rule:nonzero;fill:rgb(0%,0%,0%);fill-opacity:1;" d="M 143.988281 76.214844 C 143.988281 84.367188 140.4375 84.144531 136.054688 84.144531 C 131.679688 84.144531 128.128906 84.367188 128.128906 76.214844 C 128.128906 68.066406 131.679688 59.261719 136.054688 59.261719 C 140.4375 59.261719 143.988281 68.066406 143.988281 76.214844 Z M 143.988281 76.214844 "/>
<path style=" stroke:none;fill-rule:nonzero;fill:rgb(100%,100%,100%);fill-opacity:1;" d="M 135.707031 83.589844 C 133.351562 83.589844 131.707031 83.515625 130.578125 82.644531 C 129.289062 81.640625 128.683594 79.601562 128.683594 76.214844 C 128.683594 67.9375 132.332031 59.816406 136.054688 59.816406 C 139.777344 59.816406 143.433594 67.9375 143.433594 76.214844 C 143.433594 83.589844 140.472656 83.589844 136.722656 83.589844 Z M 135.707031 83.589844 "/>
<path style=" stroke:none;fill-rule:nonzero;fill:rgb(79.607843%,61.176471%,16.862745%);fill-opacity:1;" d="M 140.199219 78.011719 C 137.421875 77.199219 137.871094 74.539062 136.054688 74.539062 C 134.238281 74.539062 134.6875 77.199219 131.910156 78.011719 C 129.140625 78.820312 127.765625 77.550781 127.765625 77.550781 L 129.0625 82.871094 C 129.0625 82.871094 131.390625 80.90625 136.054688 80.90625 C 140.722656 80.90625 143.050781 82.871094 143.050781 82.871094 L 144.34375 77.550781 C 144.34375 77.542969 142.972656 78.816406 140.199219 78.011719 Z M 140.199219 78.011719 "/>
<path style=" stroke:none;fill-rule:nonzero;fill:rgb(79.607843%,61.176471%,16.862745%);fill-opacity:1;" d="M 140.65625 70.964844 C 137.570312 70.117188 138.070312 67.3125 136.054688 67.3125 C 134.039062 67.3125 134.535156 70.117188 131.457031 70.964844 C 128.378906 71.816406 126.859375 70.484375 126.859375 70.484375 L 128.292969 76.082031 C 128.292969 76.082031 130.882812 74.011719 136.054688 74.011719 C 141.234375 74.011719 143.816406 76.082031 143.816406 76.082031 L 145.25 70.484375 C 145.25 70.488281 143.734375 71.820312 140.65625 70.964844 Z M 140.65625 70.964844 "/>
<path style=" stroke:none;fill-rule:nonzero;fill:rgb(79.607843%,61.176471%,16.862745%);fill-opacity:1;" d="M 139.929688 63.582031 C 137.332031 62.867188 137.75 60.503906 136.054688 60.503906 C 134.355469 60.503906 134.777344 62.867188 132.183594 63.582031 C 129.59375 64.300781 128.316406 63.179688 128.316406 63.179688 L 129.527344 67.894531 C 129.527344 67.894531 131.707031 66.582031 136.0625 66.582031 C 140.417969 66.582031 142.59375 67.894531 142.59375 67.894531 L 143.804688 63.179688 C 143.800781 63.179688 142.515625 64.300781 139.929688 63.582031 Z M 135.066406 58.320312 C 135.066406 59.144531 135.511719 59.816406 136.054688 59.816406 C 136.601562 59.816406 137.042969 59.148438 137.042969 58.320312 C 137.042969 57.496094 136.601562 56.828125 136.054688 56.828125 C 135.515625 56.828125 135.066406 57.496094 135.066406 58.320312 Z M 135.066406 58.320312 "/>
<path style=" stroke:none;fill-rule:nonzero;fill:rgb(79.607843%,61.176471%,16.862745%);fill-opacity:1;" d="M 133.5625 56.699219 C 133.5625 57.265625 134.679688 57.726562 136.054688 57.726562 C 137.433594 57.726562 138.550781 57.265625 138.550781 56.699219 C 138.550781 56.128906 137.433594 55.667969 136.054688 55.667969 C 134.679688 55.671875 133.5625 56.132812 133.5625 56.699219 Z M 133.5625 56.699219 "/>
<path style=" stroke:none;fill-rule:nonzero;fill:rgb(79.607843%,61.176471%,16.862745%);fill-opacity:1;" d="M 135.066406 55.195312 C 135.066406 55.765625 135.511719 56.226562 136.054688 56.226562 C 136.601562 56.226562 137.042969 55.765625 137.042969 55.195312 C 137.042969 54.621094 136.601562 54.167969 136.054688 54.167969 C 135.515625 54.167969 135.066406 54.628906 135.066406 55.195312 Z M 135.066406 55.195312 "/>
<path style=" stroke:none;fill-rule:nonzero;fill:rgb(70.588235%,70.588235%,70.980392%);fill-opacity:1;" d="M 123.394531 94.90625 C 122.621094 94.398438 122.035156 93.710938 121.640625 92.851562 C 119.976562 89.226562 122.039062 83.398438 123.300781 81.148438 C 124.839844 78.390625 123.894531 76.589844 123.15625 75.726562 C 123.359375 75.648438 123.609375 75.589844 123.882812 75.589844 C 124.488281 75.589844 125.078125 75.882812 125.617188 76.464844 C 127.238281 78.195312 126.472656 80.5 124.210938 85.738281 C 122.511719 89.667969 121.851562 92.5 123.394531 94.90625 Z M 123.394531 94.90625 "/>
<path style=" stroke:none;fill-rule:nonzero;fill:rgb(70.588235%,70.588235%,70.980392%);fill-opacity:1;" d="M 126.5 78.015625 C 125.699219 76.859375 124.484375 76.214844 122.984375 76.214844 C 121.765625 76.214844 120.511719 76.671875 119.457031 77.472656 L 117.898438 75.128906 C 118.589844 74.554688 120.25 73.367188 122.128906 73.367188 C 122.621094 73.367188 123.101562 73.449219 123.5625 73.609375 C 125.683594 74.371094 126.398438 76.332031 126.5 78.015625 Z M 126.5 78.015625 "/>
<path style=" stroke:none;fill-rule:nonzero;fill:rgb(92.54902%,10.980392%,14.117647%);fill-opacity:1;" d="M 136.054688 94.445312 C 137.167969 95.300781 137.421875 98.609375 137.421875 102.515625 L 137.421875 132.984375 C 137.421875 132.984375 139.128906 133.417969 138.605469 137.933594 C 138.457031 139.222656 135.917969 138.976562 135.484375 137.933594 C 135.050781 136.890625 135.261719 133.539062 136.0625 133.070312 L 136.0625 102.777344 C 136.0625 98.265625 135.304688 96.515625 135.070312 95.660156 C 134.832031 94.804688 135.523438 94.027344 136.054688 94.445312 Z M 136.054688 94.445312 "/>
<path style=" stroke:none;fill-rule:nonzero;fill:rgb(92.54902%,10.980392%,14.117647%);fill-opacity:1;" d="M 146.527344 115.550781 C 145.4375 114.789062 143.910156 112.871094 142.601562 111.039062 C 140.867188 108.605469 140.429688 106.949219 138.707031 104.867188 C 136.984375 102.785156 132.472656 98.464844 131.40625 98.617188 C 130.984375 98.679688 130.539062 99.660156 130.945312 100.003906 C 131.351562 100.351562 132.621094 101.738281 135.484375 103.910156 C 138.351562 106.082031 138.785156 108.511719 141.171875 111.984375 C 143.378906 115.1875 145.285156 117.378906 147 117.671875 C 146.75 117 146.601562 116.289062 146.527344 115.550781 Z M 146.527344 115.550781 "/>
<path style=" stroke:none;fill-rule:nonzero;fill:rgb(92.54902%,10.980392%,14.117647%);fill-opacity:1;" d="M 140.890625 97.503906 C 139.871094 98.476562 136.726562 101.554688 135.015625 103.554688 C 133.304688 105.554688 131.140625 110.332031 129.226562 112.5 C 128 113.890625 126.671875 115.078125 125.660156 115.8125 C 125.566406 116.566406 125.40625 117.292969 125.121094 117.972656 C 126.5 117.511719 128.464844 116.246094 130.933594 112.679688 C 134.34375 107.726562 135.996094 104.082031 137.644531 102.695312 C 139.292969 101.304688 139.957031 100.894531 140.882812 99.929688 C 141.816406 98.957031 141.910156 96.527344 140.890625 97.503906 Z M 140.890625 97.503906 "/>
<path style=" stroke:none;fill-rule:nonzero;fill:rgb(92.54902%,10.980392%,14.117647%);fill-opacity:1;" d="M 134.023438 101.5625 L 134.023438 133.679688 C 132.183594 135.15625 132.707031 137.605469 133.050781 138.8125 C 133.394531 140.015625 136.398438 140.011719 136.867188 139.410156 C 137.332031 138.8125 137.460938 134.722656 135.746094 133.332031 L 135.746094 103.5625 C 135.746094 102.777344 134.023438 100.367188 134.023438 101.5625 Z M 134.023438 101.5625 "/>
<path style=" stroke:none;fill-rule:nonzero;fill:rgb(92.54902%,10.980392%,14.117647%);fill-opacity:1;" d="M 122.75 116.566406 C 121.101562 117.714844 119.683594 119.699219 123.371094 121.179688 C 127.0625 122.65625 131.945312 124.648438 136.054688 124.648438 C 140.167969 124.648438 147.851562 121.859375 149.648438 120.605469 C 151.449219 119.351562 152.226562 117.855469 149.359375 117.011719 C 147.855469 116.566406 147.628906 117.707031 148.410156 117.964844 C 149.195312 118.226562 150.105469 119.039062 148.128906 119.761719 C 146.15625 120.484375 141.640625 122.601562 135.738281 122.601562 C 129.839844 122.601562 124.285156 120.082031 123.371094 119.761719 C 122.460938 119.4375 122.210938 118.398438 122.855469 117.964844 C 123.5 117.535156 123.488281 116.054688 122.75 116.566406 Z M 122.75 116.566406 "/>
<path style=" stroke:none;fill-rule:nonzero;fill:rgb(79.607843%,61.176471%,16.862745%);fill-opacity:1;" d="M 138.089844 131.996094 C 138.089844 132.644531 137.5625 133.167969 136.910156 133.167969 C 136.265625 133.167969 135.738281 132.644531 135.738281 131.996094 C 135.738281 131.34375 136.265625 130.816406 136.910156 130.816406 C 137.566406 130.816406 138.089844 131.34375 138.089844 131.996094 Z M 138.089844 131.996094 "/>
<path style=" stroke:none;fill-rule:nonzero;fill:rgb(79.607843%,61.176471%,16.862745%);fill-opacity:1;" d="M 136.109375 132.773438 C 136.109375 133.421875 135.582031 133.945312 134.933594 133.945312 C 134.289062 133.945312 133.761719 133.421875 133.761719 132.773438 C 133.761719 132.121094 134.289062 131.59375 134.933594 131.59375 C 135.582031 131.601562 136.109375 132.121094 136.109375 132.773438 Z M 136.109375 132.773438 "/>
</g>
</svg>
