<?xml version="1.0" encoding="UTF-8"?>
<svg xmlns="http://www.w3.org/2000/svg" xmlns:xlink="http://www.w3.org/1999/xlink" width="200px" height="px" viewBox="0 0 200 200" version="1.1">
<g id="surface1">
<path style=" stroke:none;fill-rule:nonzero;fill:rgb(0%,40%,0%);fill-opacity:1;" d="M 200 150 C 200 162.273438 190.050781 172.222656 177.777344 172.222656 L 22.222656 172.222656 C 9.949219 172.222656 0 162.273438 0 150 L 0 50 C 0 37.726562 9.949219 27.777344 22.222656 27.777344 L 177.777344 27.777344 C 190.050781 27.777344 200 37.726562 200 50 Z M 200 150 "/>
<path style=" stroke:none;fill-rule:nonzero;fill:rgb(73.333333%,8.627451%,0%);fill-opacity:1;" d="M 0 72.222656 L 200 72.222656 L 200 127.777344 L 0 127.777344 Z M 0 72.222656 "/>
<path style=" stroke:none;fill-rule:nonzero;fill:rgb(7.843137%,7.843137%,7.843137%);fill-opacity:1;" d="M 177.777344 27.777344 L 22.222656 27.777344 C 9.949219 27.777344 0 37.726562 0 50 L 0 72.222656 L 200 72.222656 L 200 50 C 200 37.726562 190.050781 27.777344 177.777344 27.777344 Z M 177.777344 27.777344 "/>
<path style=" stroke:none;fill-rule:nonzero;fill:rgb(93.333333%,93.333333%,93.333333%);fill-opacity:1;" d="M 0 72.222656 L 200 72.222656 L 200 77.777344 L 0 77.777344 Z M 0 122.222656 L 200 122.222656 L 200 127.777344 L 0 127.777344 Z M 0 122.222656 "/>
<path style=" stroke:none;fill-rule:nonzero;fill:rgb(7.843137%,7.843137%,7.843137%);fill-opacity:1;" d="M 128.078125 52.246094 C 127.710938 52.027344 127.042969 52.738281 123.667969 56.488281 C 122.464844 57.820312 120.964844 59.484375 119.304688 61.265625 C 115.929688 64.894531 112.394531 69.382812 114.957031 72.015625 L 74.59375 139.855469 C 74.535156 139.957031 74.488281 140.117188 74.609375 140.339844 C 74.867188 140.800781 75.714844 141.3125 76.246094 141.320312 L 76.261719 141.320312 C 76.515625 141.320312 76.640625 141.207031 76.699219 141.105469 L 117.078125 73.246094 C 120.554688 74.066406 122.765625 68.890625 124.328125 64.265625 C 125.105469 61.949219 125.851562 59.84375 126.445312 58.15625 C 128.121094 53.398438 128.421875 52.449219 128.078125 52.246094 Z M 128.078125 52.246094 "/>
<path style=" stroke:none;fill-rule:nonzero;fill:rgb(100%,100%,100%);fill-opacity:1;" d="M 123.917969 56.710938 C 122.714844 58.042969 121.214844 59.707031 119.550781 61.496094 C 114.628906 66.785156 113.304688 69.984375 115.277344 71.871094 L 115.378906 71.960938 L 74.878906 140.027344 C 74.855469 140.070312 74.882812 140.144531 74.90625 140.179688 C 75.101562 140.527344 75.84375 140.976562 76.25 140.984375 L 76.261719 140.984375 C 76.316406 140.984375 76.390625 140.976562 76.417969 140.929688 L 116.855469 72.960938 L 116.921875 72.851562 L 117.042969 72.882812 C 119.589844 73.605469 121.746094 70.910156 124.011719 64.148438 C 124.789062 61.832031 125.535156 59.726562 126.128906 58.035156 C 127.0625 55.394531 127.871094 53.09375 127.871094 52.566406 C 127.417969 52.820312 125.789062 54.632812 123.917969 56.710938 Z M 123.917969 56.710938 "/>
<path style=" stroke:none;fill-rule:nonzero;fill:rgb(7.843137%,7.843137%,7.843137%);fill-opacity:1;" d="M 85.042969 72.015625 C 87.605469 69.382812 84.078125 64.894531 80.695312 61.265625 C 79.035156 59.476562 77.535156 57.820312 76.332031 56.488281 C 72.957031 52.746094 72.289062 52.027344 71.921875 52.246094 C 71.578125 52.457031 71.878906 53.398438 73.550781 58.148438 C 74.144531 59.839844 74.890625 61.945312 75.667969 64.261719 C 77.222656 68.890625 79.433594 74.0625 82.917969 73.238281 L 123.292969 141.101562 C 123.355469 141.199219 123.476562 141.316406 123.734375 141.316406 L 123.75 141.316406 C 124.277344 141.304688 125.128906 140.792969 125.382812 140.332031 C 125.5 140.109375 125.460938 139.949219 125.398438 139.851562 Z M 85.042969 72.015625 "/>
<path style=" stroke:none;fill-rule:nonzero;fill:rgb(100%,100%,100%);fill-opacity:1;" d="M 84.722656 71.871094 C 86.695312 69.984375 85.378906 66.785156 80.449219 61.496094 C 78.785156 59.707031 77.289062 58.042969 76.082031 56.710938 C 74.210938 54.632812 72.578125 52.820312 72.117188 52.570312 C 72.117188 53.101562 72.929688 55.398438 73.859375 58.039062 C 74.457031 59.734375 75.207031 61.839844 75.976562 64.15625 C 78.25 70.917969 80.398438 73.609375 82.945312 72.890625 L 83.066406 72.855469 L 83.132812 72.964844 L 123.570312 140.933594 C 123.601562 140.984375 123.679688 140.988281 123.726562 140.988281 L 123.738281 140.988281 C 124.144531 140.984375 124.890625 140.539062 125.082031 140.183594 C 125.105469 140.144531 125.132812 140.070312 125.109375 140.035156 L 84.609375 71.964844 Z M 84.722656 71.871094 "/>
<path style=" stroke:none;fill-rule:nonzero;fill:rgb(7.843137%,7.843137%,7.843137%);fill-opacity:1;" d="M 100.101562 58.101562 L 100 58.023438 L 99.898438 58.101562 C 86.054688 68.488281 79.320312 82.160156 79.320312 99.894531 C 79.320312 117.628906 86.050781 131.300781 99.898438 141.695312 L 100 141.765625 L 100.101562 141.695312 C 113.945312 131.304688 120.679688 117.632812 120.679688 99.894531 C 120.679688 82.15625 113.945312 68.476562 100.101562 58.101562 Z M 100.101562 58.101562 "/>
<path style=" stroke:none;fill-rule:nonzero;fill:rgb(73.333333%,8.627451%,0%);fill-opacity:1;" d="M 115.996094 78.105469 C 112.644531 70.535156 107.378906 63.996094 99.996094 58.4375 C 92.628906 63.988281 87.367188 70.515625 84.011719 78.066406 C 86.929688 84.628906 88.355469 91.777344 88.355469 99.9375 C 88.355469 108.089844 86.933594 115.222656 84.027344 121.761719 C 87.382812 129.292969 92.640625 135.8125 99.988281 141.355469 C 107.355469 135.804688 112.617188 129.277344 115.964844 121.722656 C 113.070312 115.179688 111.65625 108.050781 111.65625 99.9375 C 111.667969 91.816406 113.089844 84.679688 115.996094 78.105469 Z M 115.996094 78.105469 "/>
<path style=" stroke:none;fill-rule:nonzero;fill:rgb(100%,100%,100%);fill-opacity:1;" d="M 100 105.148438 C 101.699219 105.148438 103.082031 102.792969 103.082031 99.894531 C 103.082031 96.996094 101.699219 94.632812 100 94.632812 C 98.300781 94.632812 96.921875 96.988281 96.921875 99.894531 C 96.917969 102.792969 98.300781 105.148438 100 105.148438 Z M 98.714844 91.277344 C 95.929688 87.171875 94.570312 81.960938 94.570312 75.605469 C 94.570312 69.246094 95.929688 64.035156 98.714844 59.921875 Z M 101.285156 91.277344 C 104.066406 87.171875 105.417969 81.960938 105.417969 75.605469 C 105.417969 69.246094 104.066406 64.035156 101.285156 59.921875 Z M 98.714844 108.5 C 95.929688 112.601562 94.570312 117.816406 94.570312 124.171875 C 94.570312 130.539062 95.929688 135.738281 98.714844 139.851562 Z M 101.285156 108.5 C 104.066406 112.601562 105.417969 117.816406 105.417969 124.171875 C 105.417969 130.539062 104.066406 135.738281 101.285156 139.851562 Z M 101.285156 108.5 "/>
</g>
</svg>
