<?xml version="1.0" encoding="UTF-8"?>
<svg xmlns="http://www.w3.org/2000/svg" xmlns:xlink="http://www.w3.org/1999/xlink" width="200px" height="200px" viewBox="0 0 200 200" version="1.1">
<g id="surface1">
<path style=" stroke:none;fill-rule:nonzero;fill:rgb(90.980392%,6.666667%,17.647059%);fill-opacity:1;" d="M 200 150 C 200 162.273438 190.050781 172.222656 177.777344 172.222656 L 22.222656 172.222656 C 9.949219 172.222656 0 162.273438 0 150 L 0 50 C 0 37.726562 9.949219 27.777344 22.222656 27.777344 L 177.777344 27.777344 C 190.050781 27.777344 200 37.726562 200 50 Z M 200 150 "/>
<path style=" stroke:none;fill-rule:nonzero;fill:rgb(100%,80%,30.196078%);fill-opacity:1;" d="M 102.628906 66.589844 C 102.707031 60.785156 107.851562 56.789062 108.066406 49.054688 C 111.75 53.6875 105.660156 62.371094 107.820312 67.410156 C 108.8125 61.695312 114.503906 58.550781 115.9375 50.949219 C 118.855469 56.105469 111.476562 63.726562 112.820312 69.039062 C 114.6875 63.539062 120.8125 61.332031 123.410156 54.042969 C 125.484375 59.59375 117.011719 65.964844 117.511719 71.421875 C 120.210938 66.289062 126.605469 65.066406 130.316406 58.273438 C 131.5 64.078125 122.121094 69.042969 121.765625 74.515625 C 125.238281 69.867188 131.75 69.65625 136.472656 63.527344 C 136.734375 69.449219 126.695312 72.882812 125.488281 78.234375 C 129.644531 74.183594 136.101562 74.996094 141.722656 69.679688 C 141.0625 75.566406 130.609375 77.394531 128.570312 82.488281 C 133.316406 79.140625 139.570312 80.949219 145.957031 76.582031 C 144.382812 82.292969 133.773438 82.464844 130.972656 87.179688 C 136.171875 84.609375 142.0625 87.378906 149.0625 84.0625 C 146.609375 89.449219 136.09375 87.960938 132.589844 92.179688 C 138.132812 90.457031 143.527344 94.117188 150.949219 91.933594 C 147.671875 96.878906 137.539062 93.753906 133.417969 97.371094 C 139.15625 96.539062 143.910156 100.988281 151.578125 100 C 147.582031 104.371094 138.050781 99.707031 133.417969 102.628906 C 139.222656 102.707031 143.214844 107.855469 150.9375 108.0625 C 146.304688 111.761719 137.628906 105.648438 132.589844 107.820312 C 138.316406 108.8125 141.457031 114.503906 149.0625 115.9375 C 143.90625 118.855469 136.277344 111.476562 130.960938 112.820312 C 136.460938 114.6875 138.679688 120.8125 145.957031 123.410156 C 140.410156 125.496094 134.042969 117.011719 128.570312 117.511719 C 133.714844 120.210938 134.945312 126.605469 141.722656 130.316406 C 135.917969 131.5 130.957031 122.121094 125.476562 121.765625 C 130.132812 125.238281 130.339844 131.75 136.472656 136.472656 C 130.554688 136.734375 127.105469 126.695312 121.765625 125.488281 C 125.816406 129.644531 125 136.101562 130.316406 141.722656 C 124.421875 141.0625 122.601562 130.609375 117.511719 128.570312 C 120.855469 133.316406 119.039062 139.570312 123.410156 145.957031 C 117.695312 144.382812 117.527344 133.773438 112.820312 130.972656 C 115.394531 136.171875 112.617188 142.0625 115.9375 149.0625 C 110.542969 146.609375 112.035156 136.09375 107.820312 132.589844 C 109.539062 138.132812 105.890625 143.527344 108.066406 150.949219 C 103.121094 147.671875 106.246094 137.539062 102.628906 133.417969 C 103.460938 139.15625 99.011719 143.910156 100 151.578125 C 95.628906 147.582031 100.292969 138.050781 97.371094 133.417969 C 97.292969 139.222656 92.148438 143.214844 91.933594 150.9375 C 88.238281 146.316406 94.339844 137.628906 92.171875 132.589844 C 91.1875 138.316406 85.488281 141.457031 84.0625 149.0625 C 81.144531 143.90625 88.523438 136.277344 87.171875 130.972656 C 85.304688 136.460938 79.183594 138.679688 76.582031 145.957031 C 74.503906 140.410156 82.988281 134.042969 82.488281 128.570312 C 79.785156 133.714844 73.390625 134.945312 69.683594 141.722656 C 68.5 135.917969 77.878906 130.957031 78.234375 125.488281 C 74.761719 130.132812 68.253906 130.339844 63.535156 136.472656 C 63.265625 130.554688 73.3125 127.105469 74.515625 121.765625 C 70.359375 125.816406 63.898438 125 58.277344 130.316406 C 58.945312 124.421875 69.398438 122.601562 71.429688 117.511719 C 66.6875 120.855469 60.433594 119.039062 54.050781 123.410156 C 55.628906 117.695312 66.238281 117.527344 69.039062 112.820312 C 63.832031 115.394531 57.945312 112.628906 50.949219 115.9375 C 53.40625 110.542969 63.910156 112.035156 67.417969 107.820312 C 61.871094 109.539062 56.488281 105.890625 49.0625 108.0625 C 52.328125 103.128906 62.472656 106.238281 66.589844 102.628906 C 60.84375 103.460938 56.101562 99.003906 48.429688 100 C 52.429688 95.632812 61.957031 100.292969 66.589844 97.371094 C 60.789062 97.292969 56.792969 92.148438 49.0625 91.933594 C 53.695312 88.238281 62.378906 94.339844 67.417969 92.171875 C 61.695312 91.1875 58.554688 85.488281 50.957031 84.0625 C 56.109375 81.140625 63.734375 88.523438 69.042969 87.171875 C 63.542969 85.304688 61.339844 79.183594 54.050781 76.582031 C 59.601562 74.503906 65.972656 82.988281 71.429688 82.488281 C 66.289062 79.785156 65.070312 73.390625 58.277344 69.683594 C 64.082031 68.5 69.050781 77.878906 74.523438 78.234375 C 69.871094 74.761719 69.660156 68.253906 63.535156 63.535156 C 69.449219 63.273438 72.890625 73.3125 78.238281 74.515625 C 74.1875 70.359375 75 63.898438 69.683594 58.277344 C 75.566406 58.945312 77.398438 69.398438 82.496094 71.429688 C 79.140625 66.6875 80.957031 60.4375 76.589844 54.050781 C 82.300781 55.628906 82.472656 66.238281 87.183594 69.039062 C 84.617188 63.832031 87.382812 57.945312 84.066406 50.957031 C 89.457031 53.40625 87.964844 63.910156 92.183594 67.417969 C 90.460938 61.871094 94.121094 56.488281 91.9375 49.0625 C 96.882812 52.328125 93.761719 62.472656 97.378906 66.589844 C 96.539062 60.84375 100.996094 56.101562 100.003906 48.429688 C 104.371094 52.421875 99.707031 61.957031 102.628906 66.589844 Z M 102.628906 66.589844 "/>
<path style=" stroke:none;fill-rule:nonzero;fill:rgb(90.980392%,6.666667%,17.647059%);fill-opacity:1;" d="M 100.003906 127.253906 C 115.054688 127.253906 127.253906 115.050781 127.253906 100 C 127.253906 84.945312 115.0625 72.75 100.003906 72.75 C 84.957031 72.75 72.753906 84.949219 72.753906 100 C 72.753906 115.050781 84.957031 127.253906 100.003906 127.253906 Z M 100.003906 127.253906 "/>
<path style=" stroke:none;fill-rule:nonzero;fill:rgb(100%,80%,30.196078%);fill-opacity:1;" d="M 100 74.726562 C 106.957031 74.726562 113.207031 77.707031 117.554688 82.464844 C 110.726562 83.15625 104.9375 84.765625 100 87.214844 C 95.0625 84.765625 89.265625 83.15625 82.449219 82.464844 C 86.800781 77.707031 93.050781 74.726562 100 74.726562 Z M 98.207031 88.183594 C 97.65625 88.488281 97.121094 88.804688 96.59375 89.132812 C 92.167969 86.785156 86.859375 85.265625 80.554688 84.816406 C 80.84375 84.410156 81.144531 84.011719 81.460938 83.628906 C 88.011719 84.210938 93.539062 85.777344 98.207031 88.183594 Z M 101.8125 88.183594 C 102.359375 88.488281 102.894531 88.804688 103.417969 89.132812 C 107.851562 86.785156 113.148438 85.265625 119.457031 84.816406 C 119.171875 84.410156 118.867188 84.011719 118.554688 83.628906 C 112 84.210938 106.476562 85.777344 101.8125 88.183594 Z M 79.761719 86.039062 C 79.511719 86.445312 79.273438 86.859375 79.042969 87.289062 C 84.910156 87.421875 89.832031 88.777344 93.878906 91.011719 C 94.300781 90.6875 94.734375 90.382812 95.167969 90.082031 C 90.945312 87.777344 85.839844 86.339844 79.761719 86.039062 Z M 79.039062 109.695312 C 76.996094 106.179688 76.238281 102.851562 76.238281 98.496094 C 76.238281 94.9375 77.003906 91.582031 78.394531 88.566406 C 84.070312 88.527344 88.820312 89.765625 92.699219 91.921875 C 86.960938 96.628906 82.300781 102.140625 79.039062 109.695312 Z M 90.316406 120.183594 C 89.25 119.773438 88.089844 118.609375 87.101562 118.054688 C 87.660156 109.128906 91.839844 101.785156 97.660156 95.605469 C 98.09375 96.027344 98.511719 96.449219 98.910156 96.898438 C 93.5 103.226562 90.023438 111.4375 90.316406 120.183594 Z M 120.253906 86.039062 C 120.503906 86.445312 120.746094 86.859375 120.972656 87.289062 C 115.101562 87.421875 110.179688 88.777344 106.140625 91.011719 C 105.714844 90.6875 105.285156 90.382812 104.84375 90.082031 C 109.070312 87.777344 114.171875 86.339844 120.253906 86.039062 Z M 120.253906 86.039062 "/>
<path style=" stroke:none;fill-rule:nonzero;fill:rgb(100%,80%,30.196078%);fill-opacity:1;" d="M 120.972656 109.699219 C 123.011719 106.183594 123.773438 102.851562 123.773438 98.496094 C 123.773438 94.9375 123 91.582031 121.609375 88.566406 C 115.9375 88.527344 111.183594 89.765625 107.304688 91.921875 C 113.054688 96.628906 117.722656 102.144531 120.972656 109.699219 Z M 100.003906 98.933594 C 104.265625 105.789062 105.082031 113.289062 104.851562 121.761719 C 103 122.214844 102 122.261719 100.003906 122.261719 C 98.011719 122.261719 97.011719 122.214844 95.160156 121.761719 C 94.929688 113.722656 95.746094 106.050781 100.003906 98.933594 Z M 109.667969 120.183594 C 110.726562 119.773438 111.921875 118.957031 112.910156 118.40625 C 112.351562 109.476562 108.167969 101.785156 102.34375 95.609375 C 101.917969 96.035156 101.5 96.457031 101.101562 96.90625 C 106.523438 103.226562 109.960938 111.4375 109.667969 120.183594 Z M 96.246094 94.339844 C 95.738281 93.921875 95.167969 93.484375 94.617188 93.105469 C 88.589844 98.449219 84.109375 104.660156 81.601562 113.078125 C 82.527344 114.140625 82.511719 114.921875 83.609375 115.800781 C 85.167969 106.949219 90.207031 100.179688 96.246094 94.339844 Z M 103.773438 94.339844 C 104.277344 93.921875 104.851562 93.484375 105.398438 93.105469 C 111.429688 98.449219 115.890625 104.773438 118.40625 113.195312 C 117.472656 114.253906 117.339844 114.929688 116.226562 115.804688 C 114.679688 106.949219 109.8125 100.179688 103.773438 94.339844 Z M 100.003906 89.1875 C 100.304688 89.367188 101.332031 90.011719 101.59375 90.183594 C 101.1875 90.433594 100.261719 91.0625 100.003906 91.234375 C 99.753906 91.054688 98.820312 90.429688 98.417969 90.183594 C 98.679688 90.011719 99.707031 89.359375 100.003906 89.1875 Z M 97 91.171875 C 96.59375 91.476562 95.976562 91.949219 95.746094 92.148438 C 96.328125 92.535156 97.109375 93.128906 97.359375 93.320312 C 97.667969 93.0625 98.265625 92.527344 98.605469 92.285156 C 98.195312 91.976562 97.316406 91.34375 97 91.171875 Z M 103.011719 91.171875 C 103.417969 91.476562 104.035156 91.949219 104.265625 92.148438 C 103.683594 92.535156 102.898438 93.128906 102.648438 93.320312 C 102.351562 93.0625 101.746094 92.527344 101.40625 92.285156 C 101.820312 91.976562 102.699219 91.34375 103.011719 91.171875 Z M 100.003906 93.390625 C 100.265625 93.609375 101.039062 94.292969 101.246094 94.5 C 100.878906 94.820312 100.3125 95.359375 100.003906 95.699219 C 99.707031 95.359375 99.140625 94.820312 98.773438 94.5 C 98.972656 94.292969 99.75 93.617188 100.003906 93.390625 Z M 100.003906 93.390625 "/>
</g>
</svg>
