<?xml version="1.0" encoding="UTF-8"?>
<svg xmlns="http://www.w3.org/2000/svg" xmlns:xlink="http://www.w3.org/1999/xlink" width="200px" height="200px" viewBox="0 0 200 200" version="1.1">
<g id="surface1">
<path style=" stroke:none;fill-rule:nonzero;fill:rgb(81.176471%,7.843137%,16.862745%);fill-opacity:1;" d="M 177.777344 27.777344 L 100 27.777344 L 100 172.222656 L 177.777344 172.222656 C 190.050781 172.222656 200 162.273438 200 150 L 200 50 C 200 37.726562 190.050781 27.777344 177.777344 27.777344 Z M 177.777344 27.777344 "/>
<path style=" stroke:none;fill-rule:nonzero;fill:rgb(93.333333%,93.333333%,93.333333%);fill-opacity:1;" d="M 22.222656 27.777344 C 9.949219 27.777344 0 37.726562 0 50 L 0 150 C 0 162.273438 9.949219 172.222656 22.222656 172.222656 L 100 172.222656 L 100 27.777344 Z M 22.222656 27.777344 "/>
<path style=" stroke:none;fill-rule:nonzero;fill:rgb(81.176471%,7.843137%,16.862745%);fill-opacity:1;" d="M 9.1875 53.644531 L 57.472656 53.644531 L 57.472656 68.578125 L 9.1875 68.578125 Z M 9.1875 53.644531 "/>
<path style=" stroke:none;fill-rule:nonzero;fill:rgb(81.176471%,7.843137%,16.862745%);fill-opacity:1;" d="M 25.867188 36.964844 L 40.800781 36.964844 L 40.800781 85.25 L 25.867188 85.25 Z M 25.867188 36.964844 "/>
<path style=" stroke:none;fill-rule:nonzero;fill:rgb(81.176471%,7.843137%,16.862745%);fill-opacity:1;" d="M 31.285156 68.171875 C 31.285156 71 28.992188 73.289062 26.167969 73.289062 C 23.339844 73.289062 21.050781 71 21.050781 68.171875 C 21.050781 65.347656 23.339844 63.054688 26.167969 63.054688 C 28.992188 63.054688 31.285156 65.347656 31.285156 68.171875 Z M 31.285156 68.171875 "/>
<path style=" stroke:none;fill-rule:nonzero;fill:rgb(81.176471%,7.843137%,16.862745%);fill-opacity:1;" d="M 45.976562 68.171875 C 45.976562 71 43.6875 73.289062 40.859375 73.289062 C 38.035156 73.289062 35.746094 71 35.746094 68.171875 C 35.746094 65.347656 38.035156 63.054688 40.859375 63.054688 C 43.6875 63.054688 45.976562 65.347656 45.976562 68.171875 Z M 45.976562 68.171875 "/>
<path style=" stroke:none;fill-rule:nonzero;fill:rgb(81.176471%,7.843137%,16.862745%);fill-opacity:1;" d="M 31.285156 54.578125 C 31.285156 57.402344 28.992188 59.695312 26.167969 59.695312 C 23.339844 59.695312 21.050781 57.402344 21.050781 54.578125 C 21.050781 51.75 23.339844 49.460938 26.167969 49.460938 C 28.992188 49.460938 31.285156 51.75 31.285156 54.578125 Z M 31.285156 54.578125 "/>
<path style=" stroke:none;fill-rule:nonzero;fill:rgb(81.176471%,7.843137%,16.862745%);fill-opacity:1;" d="M 45.976562 54.578125 C 45.976562 57.402344 43.6875 59.695312 40.859375 59.695312 C 38.035156 59.695312 35.746094 57.402344 35.746094 54.578125 C 35.746094 51.75 38.035156 49.460938 40.859375 49.460938 C 43.6875 49.460938 45.976562 51.75 45.976562 54.578125 Z M 45.976562 54.578125 "/>
<path style=" stroke:none;fill-rule:nonzero;fill:rgb(60%,66.666667%,70.980392%);fill-opacity:1;" d="M 30.089844 68.171875 C 30.089844 70.34375 28.328125 72.105469 26.15625 72.105469 C 23.984375 72.105469 22.222656 70.34375 22.222656 68.171875 C 22.222656 66 23.984375 64.238281 26.15625 64.238281 C 28.328125 64.238281 30.089844 66 30.089844 68.171875 Z M 30.089844 68.171875 "/>
<path style=" stroke:none;fill-rule:nonzero;fill:rgb(60%,66.666667%,70.980392%);fill-opacity:1;" d="M 44.792969 68.171875 C 44.792969 70.34375 43.035156 72.105469 40.859375 72.105469 C 38.6875 72.105469 36.929688 70.34375 36.929688 68.171875 C 36.929688 66 38.6875 64.238281 40.859375 64.238281 C 43.035156 64.238281 44.792969 66 44.792969 68.171875 Z M 44.792969 68.171875 "/>
<path style=" stroke:none;fill-rule:nonzero;fill:rgb(60%,66.666667%,70.980392%);fill-opacity:1;" d="M 30.089844 54.578125 C 30.089844 56.75 28.328125 58.511719 26.15625 58.511719 C 23.984375 58.511719 22.222656 56.75 22.222656 54.578125 C 22.222656 52.40625 23.984375 50.644531 26.15625 50.644531 C 28.328125 50.644531 30.089844 52.40625 30.089844 54.578125 Z M 30.089844 54.578125 "/>
<path style=" stroke:none;fill-rule:nonzero;fill:rgb(60%,66.666667%,70.980392%);fill-opacity:1;" d="M 44.792969 54.578125 C 44.792969 56.75 43.035156 58.511719 40.859375 58.511719 C 38.6875 58.511719 36.929688 56.75 36.929688 54.578125 C 36.929688 52.40625 38.6875 50.644531 40.859375 50.644531 C 43.035156 50.644531 44.792969 52.40625 44.792969 54.578125 Z M 44.792969 54.578125 "/>
<path style=" stroke:none;fill-rule:nonzero;fill:rgb(80%,83.921569%,86.666667%);fill-opacity:1;" d="M 43.605469 61.289062 C 43.605469 66.863281 39.085938 71.382812 33.511719 71.382812 C 27.9375 71.382812 23.417969 66.863281 23.417969 61.289062 C 23.417969 55.714844 27.9375 51.195312 33.511719 51.195312 C 39.085938 51.195312 43.605469 55.714844 43.605469 61.289062 Z M 43.605469 61.289062 "/>
<path style=" stroke:none;fill-rule:nonzero;fill:rgb(80%,83.921569%,86.666667%);fill-opacity:1;" d="M 27.777344 38.890625 L 38.890625 38.890625 L 38.890625 83.332031 L 27.777344 83.332031 Z M 27.777344 38.890625 "/>
<path style=" stroke:none;fill-rule:nonzero;fill:rgb(80%,83.921569%,86.666667%);fill-opacity:1;" d="M 11.109375 55.554688 L 55.554688 55.554688 L 55.554688 66.667969 L 11.109375 66.667969 Z M 11.109375 55.554688 "/>
<path style=" stroke:none;fill-rule:nonzero;fill:rgb(69.803922%,75.294118%,78.823529%);fill-opacity:1;" d="M 40.199219 61.570312 C 40.199219 65.265625 37.207031 68.261719 33.511719 68.261719 C 29.816406 68.261719 26.820312 65.265625 26.820312 61.570312 C 26.820312 57.878906 29.816406 54.882812 33.511719 54.882812 C 37.207031 54.882812 40.199219 57.878906 40.199219 61.570312 Z M 40.199219 61.570312 "/>
<path style=" stroke:none;fill-rule:nonzero;fill:rgb(60%,66.666667%,70.980392%);fill-opacity:1;" d="M 36.929688 61.238281 C 37.011719 61.144531 37.105469 61.0625 37.195312 60.976562 L 37.246094 60.9375 C 37.476562 61.054688 37.707031 61.199219 37.929688 61.339844 C 38.371094 61.609375 39.785156 60.972656 39.144531 60.578125 C 38.59375 60.238281 38.042969 59.84375 37.367188 59.960938 C 36.859375 60.050781 36.429688 60.3125 36.042969 60.640625 C 36 60.292969 35.960938 59.957031 35.882812 59.617188 C 35.988281 59.503906 36.050781 59.382812 36.023438 59.234375 C 35.960938 58.910156 36.140625 58.554688 36.25 58.261719 C 36.304688 58.117188 36.226562 58.015625 36.109375 57.957031 C 36.160156 57.890625 36.199219 57.820312 36.246094 57.75 C 36.4375 57.816406 36.640625 57.878906 36.84375 57.921875 C 37.195312 57.996094 37.65625 57.851562 37.929688 57.632812 C 38.183594 57.433594 38.101562 57.226562 37.804688 57.171875 C 37.285156 57.066406 36.800781 56.800781 36.3125 56.589844 C 35.988281 56.449219 35.515625 56.59375 35.234375 56.75 C 35.050781 56.851562 34.765625 57.117188 35.0625 57.261719 C 35.027344 57.292969 34.988281 58.484375 34.972656 58.523438 C 34.726562 59.050781 34.316406 55.554688 34.035156 61.109375 L 33.933594 61.109375 C 33.839844 61.109375 33.148438 59.195312 33.1875 58.8125 C 33.601562 58.726562 33.332031 57.34375 33.332031 57.0625 L 33.332031 56.898438 C 33.332031 56.816406 33.960938 56.761719 33.917969 56.714844 C 34.082031 56.609375 34.566406 56.464844 34.417969 56.34375 C 34.183594 56.148438 33.859375 56.285156 33.605469 56.382812 C 33.527344 56.34375 33.527344 56.316406 33.449219 56.304688 C 33.394531 56.292969 33.378906 56.304688 33.320312 56.304688 C 33.621094 56.183594 33.878906 55.984375 33.800781 55.753906 C 33.753906 55.617188 33.722656 55.503906 33.800781 55.367188 C 34.171875 54.722656 32.632812 54.867188 32.371094 55.316406 C 32.210938 55.601562 32.179688 55.855469 32.277344 56.167969 C 32.34375 56.378906 32.617188 56.449219 32.90625 56.421875 C 32.75 56.503906 32.609375 56.628906 32.527344 56.785156 L 32.511719 56.832031 C 32.277344 56.832031 32.011719 56.90625 31.851562 56.972656 C 30.957031 57.355469 30.011719 57.632812 29.171875 58.132812 C 29.035156 58.214844 28.648438 58.484375 29 58.59375 C 29.210938 58.660156 29.484375 58.628906 29.726562 58.554688 C 29.738281 58.59375 29.738281 58.628906 29.761719 58.660156 C 29.976562 58.945312 30.292969 59.207031 30.617188 59.359375 C 30.957031 59.527344 31.40625 59.433594 31.707031 59.234375 C 31.90625 59.105469 32.121094 58.785156 31.871094 58.609375 C 31.964844 58.472656 32.109375 58.371094 32.25 58.273438 C 32.265625 58.628906 32.3125 58.976562 32.398438 59.292969 C 32.421875 59.382812 32.472656 59.449219 32.527344 59.503906 C 32.34375 59.539062 32.167969 59.609375 32.027344 59.695312 C 31.84375 59.804688 31.628906 60.054688 31.792969 60.226562 C 31.40625 60.300781 31.023438 60.398438 30.65625 60.570312 C 30.515625 60.632812 30.210938 60.8125 30.183594 61.003906 L 29.648438 61.070312 C 29.367188 61.117188 28.898438 61.25 28.800781 61.570312 C 28.667969 61.578125 28.511719 61.605469 28.398438 61.632812 C 28.070312 61.679688 27.457031 61.820312 27.429688 62.109375 C 27.382812 62.621094 27.640625 63.039062 27.859375 63.472656 C 27.65625 63.671875 27.511719 63.90625 27.449219 64.207031 C 27.316406 64.867188 28.871094 64.632812 28.988281 64.042969 C 29.003906 63.957031 29.015625 63.867188 29.09375 63.8125 C 29.289062 63.671875 29.484375 63.398438 29.3125 63.210938 C 29.378906 63.15625 29.421875 63.109375 29.398438 63.070312 C 29.207031 62.695312 29 62.328125 28.972656 61.90625 C 29.054688 61.9375 29.144531 61.957031 29.234375 61.960938 C 29.339844 62.527344 29.773438 63.027344 30.183594 63.40625 C 30.285156 63.496094 30.464844 63.503906 30.667969 63.476562 C 30.582031 63.542969 30.511719 63.617188 30.476562 63.710938 C 30.289062 64.183594 30.210938 64.671875 30.148438 65.171875 C 30.128906 65.378906 30.285156 65.578125 30.484375 65.628906 C 31.128906 65.777344 31.644531 66.082031 32.167969 66.484375 C 32.707031 66.894531 34.050781 66.140625 33.351562 65.601562 C 32.859375 65.226562 32.332031 64.917969 31.75 64.714844 C 31.789062 64.433594 31.839844 64.148438 31.945312 63.882812 C 31.984375 63.785156 31.996094 63.695312 31.984375 63.621094 C 32.109375 63.570312 32.234375 63.515625 32.34375 63.449219 C 33.332031 62.851562 34.542969 62.722656 35.605469 62.238281 C 35.5625 62.394531 35.65625 62.542969 35.878906 62.59375 C 36.332031 62.699219 37.160156 62.695312 37.3125 63.214844 C 37.460938 63.746094 37.285156 64.378906 37.621094 64.84375 C 37.933594 65.277344 39.417969 64.753906 39.042969 64.238281 C 38.917969 64.0625 38.9375 63.710938 38.929688 63.5 C 38.910156 63.171875 38.894531 62.828125 38.738281 62.527344 C 38.421875 61.929688 37.394531 61.882812 36.816406 61.746094 C 36.617188 61.699219 36.394531 61.4375 36.183594 61.503906 C 36.199219 61.464844 36.167969 61.109375 36.066406 61.109375 L 36.035156 61.109375 C 36.039062 61.109375 36.039062 61.378906 36.042969 61.371094 C 36.382812 61.351562 36.710938 61.5 36.929688 61.238281 Z M 36.929688 61.238281 "/>
</g>
</svg>
