<?xml version="1.0" encoding="UTF-8"?>
<svg xmlns="http://www.w3.org/2000/svg" xmlns:xlink="http://www.w3.org/1999/xlink" width="200px" height="200px" viewBox="0 0 200 200" version="1.1">
<g id="surface1">
<path style=" stroke:none;fill-rule:nonzero;fill:rgb(7.843137%,7.843137%,7.843137%);fill-opacity:1;" d="M 0 100 L 0 150 C 0 162.273438 9.949219 172.222656 22.222656 172.222656 L 177.777344 172.222656 C 190.050781 172.222656 200 162.273438 200 150 L 200 100 Z M 0 100 "/>
<path style=" stroke:none;fill-rule:nonzero;fill:rgb(80.784314%,10.588235%,14.901961%);fill-opacity:1;" d="M 200 100 L 200 50 C 200 37.726562 190.050781 27.777344 177.777344 27.777344 L 22.222656 27.777344 C 9.949219 27.777344 0 37.726562 0 50 L 0 100 Z M 200 100 "/>
<path style=" stroke:none;fill-rule:nonzero;fill:rgb(97.647059%,83.921569%,8.627451%);fill-opacity:1;" d="M 96.957031 75.8125 L 100.300781 82.59375 L 107.789062 83.683594 L 102.371094 88.964844 L 103.65625 96.429688 L 96.957031 92.90625 L 90.253906 96.429688 L 91.535156 88.964844 L 86.109375 83.683594 L 93.605469 82.59375 Z M 84.199219 95.488281 C 86.109375 98.609375 101.820312 115.023438 117.101562 124.566406 C 119.09375 125.867188 124.566406 130.035156 126.648438 131.511719 C 125.785156 132.640625 124.566406 134.289062 123.265625 135.679688 C 121.09375 133.945312 101.214844 121.699219 94.707031 118.40625 C 88.195312 115.105469 82.292969 109.378906 82.292969 103.910156 C 82.289062 98.4375 84.199219 95.488281 84.199219 95.488281 Z M 127.6875 132.207031 C 126.734375 133.59375 125.253906 135.503906 124.390625 136.542969 C 126.121094 136.804688 130.550781 138.976562 132.8125 143.660156 C 135.066406 148.351562 139.148438 145.917969 138.800781 143.398438 C 138.449219 140.882812 133.503906 135.417969 127.6875 132.207031 Z M 127.6875 132.207031 "/>
<path style=" stroke:none;fill-rule:nonzero;fill:rgb(16.078431%,18.431373%,20%);fill-opacity:1;" d="M 130.210938 136.066406 C 130.210938 136.617188 129.761719 137.066406 129.210938 137.066406 C 128.660156 137.066406 128.210938 136.617188 128.210938 136.066406 C 128.210938 135.515625 128.660156 135.066406 129.210938 135.066406 C 129.761719 135.066406 130.210938 135.515625 130.210938 136.066406 Z M 130.210938 136.066406 "/>
<path style=" stroke:none;fill-rule:nonzero;fill:rgb(16.078431%,18.431373%,20%);fill-opacity:1;" d="M 135.765625 141.621094 C 135.765625 142.175781 135.320312 142.621094 134.765625 142.621094 C 134.214844 142.621094 133.765625 142.175781 133.765625 141.621094 C 133.765625 141.070312 134.214844 140.621094 134.765625 140.621094 C 135.320312 140.621094 135.765625 141.070312 135.765625 141.621094 Z M 135.765625 141.621094 "/>
<path style=" stroke:none;fill-rule:nonzero;fill:rgb(16.078431%,18.431373%,20%);fill-opacity:1;" d="M 125.261719 133.5625 C 125.101562 133.5625 124.933594 133.511719 124.792969 133.417969 L 98.921875 115.792969 C 98.542969 115.535156 98.445312 115.015625 98.699219 114.640625 C 98.960938 114.253906 99.484375 114.15625 99.855469 114.417969 L 125.722656 132.039062 C 126.105469 132.300781 126.207031 132.816406 125.945312 133.195312 C 125.789062 133.433594 125.527344 133.5625 125.261719 133.5625 Z M 125.261719 133.5625 "/>
<path style=" stroke:none;fill-rule:nonzero;fill:rgb(97.647059%,83.921569%,8.627451%);fill-opacity:1;" d="M 137.921875 103.601562 L 137.964844 96.40625 L 131.9375 96.445312 C 131.710938 94.128906 131.238281 91.890625 130.582031 89.734375 L 135.984375 87.566406 L 133.550781 80.792969 L 127.738281 83.105469 C 126.75 81.316406 125.605469 79.632812 124.328125 78.054688 L 128.210938 73.621094 L 122.6875 69.003906 L 119.214844 72.949219 C 117.496094 71.5625 115.65625 70.328125 113.695312 69.277344 L 116.214844 63.90625 L 109.476562 61.367188 L 107.023438 66.5625 C 105.039062 65.988281 102.996094 65.582031 100.890625 65.371094 L 100.121094 72.855469 C 113.984375 74.285156 124.828125 85.855469 124.828125 100.089844 C 124.828125 108.472656 121.003906 115.878906 115.101562 120.929688 L 118.171875 123.050781 L 125.753906 128.695312 L 128.707031 125.484375 L 124.078125 122.050781 C 125.476562 120.367188 126.722656 118.566406 127.789062 116.640625 L 133.378906 118.90625 L 136.15625 112.265625 L 130.59375 110.011719 C 131.214844 107.960938 131.683594 105.839844 131.917969 103.644531 Z M 110.535156 132.042969 L 108.246094 127.605469 L 105.410156 126.253906 C 102.832031 127.054688 100.148438 127.605469 97.3125 127.605469 C 90.65625 127.605469 84.632812 125.148438 79.871094 121.214844 L 75.25 126.65625 C 76.960938 128.070312 78.839844 129.285156 80.800781 130.351562 L 78.320312 135.679688 L 84.957031 138.472656 L 87.457031 133.070312 C 89.378906 133.648438 91.351562 134.050781 93.394531 134.289062 L 93.355469 139.898438 L 100.550781 139.820312 L 100.589844 134.484375 C 102.832031 134.273438 105.015625 133.851562 107.117188 133.226562 L 109.027344 138.75 L 112.851562 137.621094 L 110.457031 132.070312 Z M 110.535156 132.042969 "/>
</g>
</svg>
