<?xml version="1.0" encoding="UTF-8"?>
<svg xmlns="http://www.w3.org/2000/svg" xmlns:xlink="http://www.w3.org/1999/xlink" width="200px" height="200px" viewBox="0 0 200 200" version="1.1">
<g id="surface1">
<path style=" stroke:none;fill-rule:nonzero;fill:rgb(0%,50.196078%,0%);fill-opacity:1;" d="M 44.445312 172.222656 L 177.777344 172.222656 C 190.050781 172.222656 200 162.273438 200 150 L 200 127.777344 L 44.445312 127.777344 Z M 44.445312 172.222656 "/>
<path style=" stroke:none;fill-rule:nonzero;fill:rgb(93.333333%,93.333333%,93.333333%);fill-opacity:1;" d="M 177.777344 27.777344 L 44.445312 27.777344 L 44.445312 72.222656 L 200 72.222656 L 200 50 C 200 37.726562 190.050781 27.777344 177.777344 27.777344 Z M 177.777344 27.777344 "/>
<path style=" stroke:none;fill-rule:nonzero;fill:rgb(85.882353%,8.627451%,10.588235%);fill-opacity:1;" d="M 200 72.222656 L 50 72.222656 L 50 27.777344 L 22.222656 27.777344 C 9.949219 27.777344 0 37.726562 0 50 L 0 150 C 0 162.273438 9.949219 172.222656 22.222656 172.222656 L 50 172.222656 L 50 127.777344 L 200 127.777344 Z M 200 72.222656 "/>
<path style=" stroke:none;fill-rule:nonzero;fill:rgb(93.333333%,93.333333%,93.333333%);fill-opacity:1;" d="M 20.140625 46.960938 C 21.878906 50.109375 21.878906 51.34375 21.371094 51.621094 C 20.871094 51.898438 20.050781 51.121094 18.316406 47.972656 C 16.578125 44.820312 14.582031 40.5 15.082031 40.222656 C 15.589844 39.9375 18.398438 43.816406 20.140625 46.960938 Z M 30.644531 45.023438 C 28.90625 48.171875 27.90625 50.949219 28.410156 51.226562 C 28.910156 51.503906 30.726562 49.179688 32.464844 46.035156 C 34.199219 42.882812 35.207031 40.105469 34.699219 39.828125 C 34.195312 39.550781 32.378906 41.878906 30.644531 45.023438 Z M 27.515625 50.089844 L 25.867188 42.1875 L 25.710938 42.15625 C 26.285156 41.882812 26.734375 41.457031 26.734375 40.839844 C 26.734375 39.949219 25.917969 39.234375 24.910156 39.234375 C 23.90625 39.234375 23.089844 39.957031 23.089844 40.84375 C 23.089844 41.445312 23.503906 41.917969 24.0625 42.195312 L 22.484375 50.171875 Z M 27.515625 50.089844 "/>
<path style=" stroke:none;fill-rule:nonzero;fill:rgb(93.333333%,93.333333%,93.333333%);fill-opacity:1;" d="M 37.238281 65.367188 C 35.734375 64.109375 29.746094 58.929688 26.898438 55.832031 C 27.15625 54.945312 27.304688 53.988281 27.246094 52.964844 L 27.339844 52.964844 L 27.339844 53.011719 L 32.289062 53.011719 L 32.289062 53.964844 L 38.367188 53.964844 L 38.367188 51.015625 L 32.289062 51.015625 L 32.289062 51.972656 L 27.34375 51.972656 L 27.34375 52.015625 L 27.171875 52.015625 L 27.171875 50.523438 L 22.65625 50.523438 L 22.65625 52.015625 L 20.832031 52.015625 L 20.832031 52.105469 L 17.273438 52.105469 L 17.273438 50.882812 L 11.542969 50.882812 L 11.542969 54.09375 L 17.273438 54.09375 L 17.273438 52.882812 L 20.832031 52.882812 L 20.832031 52.972656 L 22.367188 52.972656 L 22.167969 55.050781 C 22.167969 55.050781 16.394531 55.304688 14.84375 55.554688 C 11.023438 56.160156 12.238281 57.289062 15.367188 58.332031 C 16.804688 58.8125 18.238281 59 19.59375 59.070312 C 17.390625 61.429688 12.890625 64.921875 11.804688 65.539062 C 10.589844 66.234375 10.589844 67.101562 12.933594 66.582031 C 15.207031 66.078125 20.460938 61.4375 22.289062 59.09375 L 23.871094 59.027344 C 24.707031 58.996094 25.367188 58.472656 25.921875 57.785156 C 28.292969 60.589844 32.945312 64.75 34.8125 65.882812 C 36.804688 67.101562 37.738281 67.070312 38.445312 66.957031 C 39.148438 66.839844 38.800781 66.667969 37.238281 65.367188 Z M 37.238281 65.367188 "/>
</g>
</svg>
