<?xml version="1.0" encoding="UTF-8"?>
<svg xmlns="http://www.w3.org/2000/svg" xmlns:xlink="http://www.w3.org/1999/xlink" width="200px" height="200px" viewBox="0 0 200 200" version="1.1">
<g id="surface1">
<path style=" stroke:none;fill-rule:nonzero;fill:rgb(90.588235%,0%,7.45098%);fill-opacity:1;" d="M 177.777344 27.777344 L 22.222656 27.777344 C 9.949219 27.777344 0 37.726562 0 50 L 0 150 C 0 162.273438 9.949219 172.222656 22.222656 172.222656 L 177.777344 172.222656 C 190.050781 172.222656 200 162.273438 200 150 L 200 50 C 200 37.726562 190.050781 27.777344 177.777344 27.777344 Z M 177.777344 27.777344 "/>
<path style=" stroke:none;fill-rule:nonzero;fill:rgb(100%,100%,100%);fill-opacity:1;" d="M 136.109375 100 C 136.109375 119.945312 119.945312 136.109375 100 136.109375 C 80.054688 136.109375 63.890625 119.945312 63.890625 100 C 63.890625 80.054688 80.054688 63.890625 100 63.890625 C 119.945312 63.890625 136.109375 80.054688 136.109375 100 Z M 136.109375 100 "/>
<path style=" stroke:none;fill-rule:nonzero;fill:rgb(90.588235%,0%,7.45098%);fill-opacity:1;" d="M 85.554688 100 C 85.554688 88.035156 95.253906 78.332031 107.222656 78.332031 C 112.882812 78.332031 118.035156 80.503906 121.894531 84.0625 C 116.964844 77.304688 109 72.917969 100 72.917969 C 85.042969 72.917969 72.917969 85.042969 72.917969 100 C 72.917969 114.957031 85.042969 127.082031 100 127.082031 C 109 127.082031 116.972656 122.695312 121.894531 115.9375 C 118.035156 119.496094 112.882812 121.667969 107.222656 121.667969 C 95.253906 121.667969 85.554688 111.964844 85.554688 100 Z M 85.554688 100 "/>
<path style=" stroke:none;fill-rule:nonzero;fill:rgb(90.588235%,0%,7.45098%);fill-opacity:1;" d="M 109.140625 94.09375 L 102.199219 84.542969 L 102.199219 96.351562 L 90.972656 100 L 102.199219 103.648438 L 102.199219 115.457031 L 109.140625 105.90625 L 120.367188 109.550781 L 113.429688 100 L 120.367188 90.449219 Z M 109.140625 94.09375 "/>
</g>
</svg>
