<?xml version="1.0" encoding="UTF-8"?>
<svg xmlns="http://www.w3.org/2000/svg" xmlns:xlink="http://www.w3.org/1999/xlink" width="200px" height="200px" viewBox="0 0 200 200" version="1.1">
<g id="surface1">
<path style=" stroke:none;fill-rule:nonzero;fill:rgb(7.843137%,7.843137%,7.843137%);fill-opacity:1;" d="M 200 150 C 200 162.273438 190.050781 172.222656 177.777344 172.222656 L 22.222656 172.222656 C 9.949219 172.222656 0 162.273438 0 150 L 0 50 C 0 37.726562 9.949219 27.777344 22.222656 27.777344 L 177.777344 27.777344 C 190.050781 27.777344 200 37.726562 200 50 Z M 200 150 "/>
<path style=" stroke:none;fill-rule:nonzero;fill:rgb(80.784314%,6.666667%,14.901961%);fill-opacity:1;" d="M 192.320312 166.679688 C 196.988281 162.605469 200 156.679688 200 150 L 200 50 C 200 37.726562 190.050781 27.777344 177.777344 27.777344 L 22.222656 27.777344 C 16.632812 27.777344 11.582031 29.910156 7.679688 33.320312 Z M 192.320312 166.679688 "/>
<path style=" stroke:none;fill-rule:nonzero;fill:rgb(100%,100%,100%);fill-opacity:1;" d="M 42.894531 75.199219 L 45.023438 82.511719 L 52.378906 82.511719 L 46.570312 86.976562 L 48.699219 94.082031 L 42.894531 89.609375 L 37.089844 93.878906 L 39.214844 86.976562 L 33.410156 82.511719 L 40.570312 82.511719 Z M 20.59375 103.714844 L 22.722656 111.015625 L 30.078125 111.015625 L 24.273438 115.484375 L 26.398438 122.589844 L 20.59375 118.128906 L 14.789062 122.390625 L 16.917969 115.484375 L 11.109375 111.015625 L 18.273438 111.015625 Z M 42.894531 142.234375 L 45.023438 149.539062 L 52.378906 149.539062 L 46.570312 154.003906 L 48.699219 161.109375 L 42.894531 156.644531 L 37.089844 160.90625 L 39.214844 154.003906 L 33.410156 149.539062 L 40.570312 149.539062 Z M 52.851562 126.710938 L 53.917969 130.359375 L 57.59375 130.359375 L 54.6875 132.601562 L 55.753906 136.148438 L 52.851562 133.910156 L 49.949219 136.042969 L 51.011719 132.601562 L 48.109375 130.359375 L 51.6875 130.359375 Z M 65.089844 101.6875 L 67.214844 108.996094 L 74.570312 108.996094 L 68.765625 113.460938 L 70.894531 120.566406 L 65.089844 116.101562 L 59.285156 120.359375 L 61.410156 113.460938 L 55.605469 108.996094 L 62.765625 108.996094 Z M 65.089844 101.6875 "/>
<path style=" stroke:none;fill-rule:nonzero;fill:rgb(98.823529%,81.960784%,8.627451%);fill-opacity:1;" d="M 126.238281 70.746094 C 124.523438 72.960938 120.464844 68.515625 115.605469 68.417969 C 110.746094 68.3125 107.292969 73.070312 105.882812 74.695312 C 104.460938 76.316406 99.898438 84.820312 100 85.738281 C 100.109375 86.648438 102.84375 83.199219 103.851562 82.59375 C 103.945312 83.8125 102.734375 85.234375 103.039062 85.632812 C 103.34375 86.042969 106.589844 83.199219 107.707031 83.105469 C 108.011719 83.917969 107.101562 84.722656 107.398438 85.9375 C 107.800781 86.351562 109.621094 83.917969 110.839844 83.410156 C 111.042969 84.320312 109.722656 86.042969 110.4375 87.15625 C 110.9375 87.261719 113.988281 83.714844 114.996094 83.3125 C 116.003906 82.90625 114.484375 86.65625 114.996094 86.960938 C 115.90625 86.355469 118.738281 83.109375 119.648438 82.707031 C 120.5625 82.300781 119.550781 86.855469 119.957031 86.855469 C 121.070312 86.050781 123.90625 82.199219 124.210938 81.59375 C 124.515625 80.988281 123.90625 87.464844 127.054688 90.910156 C 130.199219 94.355469 134.957031 98.304688 135.464844 98.304688 C 136.070312 97.195312 135.261719 94.859375 135.773438 94.960938 C 137.195312 96.476562 139.820312 98.710938 140.429688 98.710938 C 141.035156 98.710938 140.027344 96.277344 140.839844 96.277344 C 142.457031 97.792969 147.109375 103.777344 156.234375 106.511719 C 155.628906 104.785156 154.300781 103.265625 154.207031 102.460938 C 154.8125 102.5625 156.9375 103.570312 157.339844 103.476562 C 157.75 103.371094 152.890625 97.394531 153.183594 96.589844 C 154.300781 96.484375 154.8125 97.195312 155.210938 96.6875 C 154.710938 95.878906 150.449219 91.117188 150.449219 90.003906 C 150.449219 88.890625 151.773438 90.207031 152.179688 90.003906 C 152.589844 89.800781 150.5625 85.550781 150.960938 85.039062 C 151.359375 84.539062 155.820312 87.773438 156.9375 87.773438 C 158.054688 87.773438 157.246094 83.820312 157.753906 83.621094 C 158.253906 83.421875 162.011719 85.75 162.8125 85.75 C 163.621094 85.75 163.527344 84.027344 163.832031 84.226562 C 164.140625 84.429688 172.949219 93.246094 169.910156 103.570312 C 166.871094 110.964844 160.792969 114.917969 151.878906 111.679688 C 152.390625 112.488281 157.148438 116.433594 162.316406 115.023438 C 167.484375 113.605469 173.765625 109.554688 173.0625 99.421875 C 172.34375 89.289062 169.003906 87.871094 168.503906 86.355469 C 167.984375 84.839844 169.3125 86.761719 170.417969 87.160156 C 171.542969 87.570312 170.222656 85.035156 169.917969 83.921875 C 169.609375 82.8125 173.261719 86.25 174.171875 86.554688 C 175.082031 86.859375 172.042969 78.25 171.132812 77.644531 C 170.222656 77.039062 172.042969 77.851562 172.648438 78.050781 C 173.253906 78.25 167.070312 68.628906 165.761719 68.628906 C 164.449219 68.628906 166.878906 68.121094 167.582031 68.121094 C 168.289062 68.121094 160.5 61.84375 159.171875 61.84375 C 157.859375 61.84375 162.015625 60.222656 162.417969 60.117188 C 163.121094 60.222656 153.398438 54.949219 144.6875 60.222656 C 144.1875 59.816406 148.789062 56.621094 148.945312 55.253906 C 149 54.90625 147.429688 54.144531 147.328125 53.738281 C 147.226562 53.332031 149.761719 52.117188 149.855469 51.207031 C 149.25 50.394531 148.140625 50.699219 147.535156 50.5 C 147.382812 49.738281 149.660156 47.859375 149.457031 47.050781 C 149.304688 46.59375 147.632812 46.445312 147.234375 46.746094 C 146.820312 47.050781 148.300781 44.617188 148.039062 43.910156 C 147.84375 43.605469 147.027344 43.8125 146.214844 44.011719 C 145.714844 43.910156 148.855469 39.554688 148.246094 38.945312 C 147.640625 38.339844 139.128906 43.398438 135.996094 49.070312 C 132.851562 54.746094 135.277344 59.304688 134.878906 61.226562 C 134.476562 63.148438 133.964844 65.078125 132.65625 65.078125 C 131.332031 65.078125 128.292969 63.050781 127.285156 62.039062 C 126.261719 61.023438 126.066406 60.316406 124.644531 59.910156 C 123.222656 59.503906 119.976562 60.722656 118.761719 60.820312 C 117.542969 60.929688 112.792969 59.910156 112.488281 60.214844 C 112.183594 60.523438 117.144531 62.34375 118.261719 62.957031 C 119.367188 63.5625 119.476562 64.367188 120.277344 64.878906 C 121.070312 65.378906 128.679688 67.605469 126.238281 70.746094 Z M 155.921875 85.027344 C 158.355469 87.460938 174.761719 98.398438 174.761719 111.773438 C 174.761719 125.144531 162.804688 124.738281 159.359375 124.332031 C 163.210938 127.578125 177.792969 126.972656 177.792969 111.773438 C 177.792969 98.398438 158.957031 85.027344 156.527344 83.8125 C 154.101562 82.59375 153.484375 82.59375 155.921875 85.027344 Z M 155.921875 85.027344 "/>
</g>
</svg>
