<?xml version="1.0" encoding="UTF-8"?>
<svg xmlns="http://www.w3.org/2000/svg" xmlns:xlink="http://www.w3.org/1999/xlink" width="200px" height="px" viewBox="0 0 200 200" version="1.1">
<g id="surface1">
<path style=" stroke:none;fill-rule:nonzero;fill:rgb(5.098039%,36.862745%,69.019608%);fill-opacity:1;" d="M 22.222656 172.222656 L 177.777344 172.222656 C 181.679688 172.222656 185.339844 171.210938 188.527344 169.445312 L 11.472656 169.445312 C 14.660156 171.210938 18.320312 172.222656 22.222656 172.222656 Z M 22.222656 172.222656 "/>
<path style=" stroke:none;fill-rule:nonzero;fill:rgb(93.333333%,93.333333%,93.333333%);fill-opacity:1;" d="M 47.222656 108.332031 L 0 108.332031 L 0 122.222656 L 200 122.222656 L 200 108.332031 Z M 0 150 C 0 150.945312 0.078125 151.867188 0.195312 152.777344 L 199.8125 152.777344 C 199.921875 151.867188 200 150.945312 200 150 L 200 138.890625 L 0 138.890625 Z M 77.777344 77.777344 L 200 77.777344 L 200 91.667969 L 77.777344 91.667969 Z M 77.777344 47.222656 L 77.777344 61.109375 L 200 61.109375 L 200 50 C 200 49.054688 199.921875 48.132812 199.804688 47.222656 Z M 77.777344 47.222656 "/>
<path style=" stroke:none;fill-rule:nonzero;fill:rgb(5.098039%,36.862745%,69.019608%);fill-opacity:1;" d="M 77.777344 61.109375 L 200 61.109375 L 200 77.777344 L 77.777344 77.777344 Z M 0 122.222656 L 200 122.222656 L 200 138.890625 L 0 138.890625 Z M 11.472656 169.445312 L 188.527344 169.445312 C 194.59375 166.082031 198.910156 159.960938 199.8125 152.777344 L 0.195312 152.777344 C 1.089844 159.960938 5.40625 166.082031 11.472656 169.445312 Z M 0 77.777344 L 30.554688 77.777344 L 30.554688 108.332031 L 0 108.332031 Z M 77.777344 91.667969 L 77.777344 77.777344 L 47.222656 77.777344 L 47.222656 108.332031 L 200 108.332031 L 200 91.667969 Z M 188.527344 30.554688 C 185.339844 28.789062 181.679688 27.777344 177.777344 27.777344 L 22.222656 27.777344 C 18.320312 27.777344 14.660156 28.789062 11.472656 30.554688 C 5.40625 33.917969 1.089844 40.039062 0.1875 47.222656 C 0.078125 48.132812 0 49.054688 0 50 L 0 61.109375 L 30.554688 61.109375 L 30.554688 30.554688 L 47.222656 30.554688 L 47.222656 61.109375 L 77.777344 61.109375 L 77.777344 47.222656 L 199.804688 47.222656 C 198.910156 40.039062 194.59375 33.917969 188.527344 30.554688 Z M 188.527344 30.554688 "/>
<path style=" stroke:none;fill-rule:nonzero;fill:rgb(93.333333%,93.333333%,93.333333%);fill-opacity:1;" d="M 47.222656 61.109375 L 47.222656 27.777344 L 30.554688 27.777344 L 30.554688 61.109375 L 0 61.109375 L 0 77.777344 L 30.554688 77.777344 L 30.554688 108.332031 L 47.222656 108.332031 L 47.222656 77.777344 L 77.777344 77.777344 L 77.777344 61.109375 Z M 47.222656 61.109375 "/>
</g>
</svg>
