<?xml version="1.0" encoding="UTF-8"?>
<svg xmlns="http://www.w3.org/2000/svg" xmlns:xlink="http://www.w3.org/1999/xlink" width="200px" height="200px" viewBox="0 0 200 200" version="1.1">
<g id="surface1">
<path style=" stroke:none;fill-rule:nonzero;fill:rgb(7.843137%,7.843137%,7.843137%);fill-opacity:1;" d="M 177.777344 27.777344 L 22.222656 27.777344 C 9.949219 27.777344 0 37.726562 0 50 L 0 66.667969 L 200 66.667969 L 200 50 C 200 37.726562 190.050781 27.777344 177.777344 27.777344 Z M 177.777344 27.777344 "/>
<path style=" stroke:none;fill-rule:nonzero;fill:rgb(2.745098%,53.72549%,18.823529%);fill-opacity:1;" d="M 0 150 C 0 162.273438 9.949219 172.222656 22.222656 172.222656 L 177.777344 172.222656 C 190.050781 172.222656 200 162.273438 200 150 L 200 133.332031 L 0 133.332031 Z M 0 150 "/>
<path style=" stroke:none;fill-rule:nonzero;fill:rgb(85.490196%,7.058824%,10.196078%);fill-opacity:1;" d="M 0 66.667969 L 200 66.667969 L 200 133.332031 L 0 133.332031 Z M 0 66.667969 "/>
<path style=" stroke:none;fill-rule:nonzero;fill:rgb(93.333333%,93.333333%,93.333333%);fill-opacity:1;" d="M 0 66.667969 L 200 66.667969 L 200 77.777344 L 0 77.777344 Z M 0 122.222656 L 200 122.222656 L 200 133.332031 L 0 133.332031 Z M 0 122.222656 "/>
<path style=" stroke:none;fill-rule:nonzero;fill:rgb(5.882353%,27.843137%,68.627451%);fill-opacity:1;" d="M 7.503906 33.355469 L 7.5 33.355469 C 2.898438 37.429688 0 43.378906 0 51.484375 L 0 151.484375 C 0 156.628906 2.898438 162.578125 7.503906 166.644531 L 97.222656 100 Z M 7.503906 33.355469 "/>
<path style=" stroke:none;fill-rule:nonzero;fill:rgb(98.823529%,86.666667%,3.529412%);fill-opacity:1;" d="M 45.828125 99.539062 L 55.699219 85.949219 L 39.726562 91.140625 L 29.859375 77.554688 L 29.859375 94.351562 L 13.890625 99.539062 L 29.859375 104.726562 L 29.859375 121.515625 L 39.726562 107.933594 L 55.699219 113.121094 Z M 45.828125 99.539062 "/>
</g>
</svg>
