<?xml version="1.0" encoding="UTF-8"?>
<svg xmlns="http://www.w3.org/2000/svg" xmlns:xlink="http://www.w3.org/1999/xlink" width="200px" height="200px" viewBox="0 0 200 200" version="1.1">
<g id="surface1">
<path style=" stroke:none;fill-rule:nonzero;fill:rgb(0%,58.431373%,26.27451%);fill-opacity:1;" d="M 5.929688 165.003906 C 9.988281 169.417969 15.753906 172.222656 22.222656 172.222656 L 177.777344 172.222656 C 190.050781 172.222656 200 162.273438 200 150 L 200 50 C 200 44.34375 197.816406 39.238281 194.339844 35.316406 Z M 5.929688 165.003906 "/>
<path style=" stroke:none;fill-rule:nonzero;fill:rgb(0%,20.784314%,50.196078%);fill-opacity:1;" d="M 194.070312 34.996094 C 190.011719 30.582031 184.246094 27.777344 177.777344 27.777344 L 22.222656 27.777344 C 9.949219 27.777344 0 37.726562 0 50 L 0 150 C 0 155.65625 2.183594 160.761719 5.660156 164.683594 Z M 194.070312 34.996094 "/>
<path style=" stroke:none;fill-rule:nonzero;fill:rgb(93.333333%,93.333333%,93.333333%);fill-opacity:1;" d="M 200 50 C 200 37.726562 190.050781 27.777344 177.777344 27.777344 L 174.089844 27.777344 L 0 149.679688 L 0 150 C 0 162.273438 9.949219 172.222656 22.222656 172.222656 L 25.910156 172.222656 L 200 50.328125 Z M 200 50 "/>
<path style=" stroke:none;fill-rule:nonzero;fill:rgb(82.352941%,5.882353%,20.392157%);fill-opacity:1;" d="M 183.246094 28.535156 L 0.972656 156.15625 C 3.1875 163.804688 9.339844 169.75 17.148438 171.582031 L 199.128906 44.160156 C 197.027344 36.484375 190.972656 30.5 183.246094 28.535156 Z M 183.246094 28.535156 "/>
<path style=" stroke:none;fill-rule:nonzero;fill:rgb(100%,80.784314%,0%);fill-opacity:1;" d="M 44.445312 44.445312 L 48.9375 55.449219 L 58.332031 48.167969 L 56.722656 59.945312 L 68.5 58.332031 L 61.214844 67.726562 L 72.222656 72.222656 L 61.214844 76.714844 L 68.5 86.109375 L 56.722656 84.5 L 58.332031 96.277344 L 48.9375 88.996094 L 44.445312 100 L 39.949219 88.996094 L 30.554688 96.277344 L 32.167969 84.5 L 20.390625 86.109375 L 27.671875 76.714844 L 16.667969 72.222656 L 27.671875 67.726562 L 20.390625 58.332031 L 32.167969 59.945312 L 30.554688 48.167969 L 39.949219 55.449219 Z M 44.445312 44.445312 "/>
<path style=" stroke:none;fill-rule:nonzero;fill:rgb(0%,20.784314%,50.196078%);fill-opacity:1;" d="M 62.082031 72.222656 C 62.082031 81.964844 54.1875 89.859375 44.445312 89.859375 C 34.703125 89.859375 26.804688 81.964844 26.804688 72.222656 C 26.804688 62.480469 34.703125 54.582031 44.445312 54.582031 C 54.1875 54.582031 62.082031 62.480469 62.082031 72.222656 Z M 62.082031 72.222656 "/>
<path style=" stroke:none;fill-rule:nonzero;fill:rgb(100%,80.784314%,0%);fill-opacity:1;" d="M 58.148438 72.222656 C 58.148438 79.792969 52.015625 85.929688 44.445312 85.929688 C 36.875 85.929688 30.738281 79.792969 30.738281 72.222656 C 30.738281 64.652344 36.875 58.515625 44.445312 58.515625 C 52.015625 58.515625 58.148438 64.652344 58.148438 72.222656 Z M 58.148438 72.222656 "/>
</g>
</svg>
