<?xml version="1.0" encoding="UTF-8"?>
<svg xmlns="http://www.w3.org/2000/svg" xmlns:xlink="http://www.w3.org/1999/xlink" width="200px" height="px" viewBox="0 0 200 200" version="1.1">
<g id="surface1">
<path style=" stroke:none;fill-rule:nonzero;fill:rgb(0%,60.784314%,22.745098%);fill-opacity:1;" d="M 177.777344 27.777344 L 22.222656 27.777344 C 9.949219 27.777344 0 37.726562 0 50 L 0 150 C 0 162.273438 9.949219 172.222656 22.222656 172.222656 L 177.777344 172.222656 C 190.050781 172.222656 200 162.273438 200 150 L 200 50 C 200 37.726562 190.050781 27.777344 177.777344 27.777344 Z M 177.777344 27.777344 "/>
<path style=" stroke:none;fill-rule:nonzero;fill:rgb(7.843137%,7.843137%,7.843137%);fill-opacity:1;" d="M 198.679688 157.5625 C 199.535156 155.199219 200 152.65625 200 150 L 200 50 C 200 47.351562 199.535156 44.804688 198.683594 42.449219 L 198.679688 42.4375 L 118.976562 100 Z M 81.023438 100 L 1.320312 42.4375 L 1.320312 42.445312 C 0.464844 44.804688 0 47.351562 0 50 L 0 150 C 0 152.65625 0.464844 155.199219 1.320312 157.5625 Z M 81.023438 100 "/>
<path style=" stroke:none;fill-rule:nonzero;fill:rgb(100%,82.352941%,0.784314%);fill-opacity:1;" d="M 180.75 27.972656 L 100 86.292969 L 19.25 27.972656 L 19.246094 27.972656 C 10.9375 29.082031 4.089844 34.785156 1.316406 42.433594 L 81.023438 100 L 1.320312 157.5625 L 1.328125 157.578125 C 4.101562 165.214844 10.945312 170.910156 19.234375 172.023438 L 19.253906 172.023438 L 100 113.707031 L 180.746094 172.023438 C 189.042969 170.910156 195.898438 165.222656 198.671875 157.570312 L 198.679688 157.554688 L 118.976562 100 L 198.679688 42.4375 C 195.910156 34.785156 189.054688 29.082031 180.75 27.972656 Z M 180.75 27.972656 "/>
</g>
</svg>
