<?xml version="1.0" encoding="UTF-8"?>
<svg xmlns="http://www.w3.org/2000/svg" xmlns:xlink="http://www.w3.org/1999/xlink" width="200px" height="200px" viewBox="0 0 200 200" version="1.1">
<g id="surface1">
<path style=" stroke:none;fill-rule:nonzero;fill:rgb(0%,14.117647%,49.019608%);fill-opacity:1;" d="M 177.777344 27.777344 L 22.222656 27.777344 C 21.082031 27.777344 19.960938 27.859375 18.867188 28.027344 L 18.84375 37.773438 L 3.679688 37.75 C 1.355469 41.261719 0 45.472656 0 50 L 0 150 C 0 162.273438 9.949219 172.222656 22.222656 172.222656 L 177.777344 172.222656 C 190.050781 172.222656 200 162.273438 200 150 L 200 50 C 200 37.726562 190.050781 27.777344 177.777344 27.777344 Z M 177.777344 27.777344 "/>
<path style=" stroke:none;fill-rule:nonzero;fill:rgb(93.333333%,92.941176%,92.941176%);fill-opacity:1;" d="M 162.1875 52.777344 L 155.171875 52.777344 L 154.09375 49.554688 L 152.777344 45.632812 L 151.460938 49.554688 L 150.382812 52.777344 L 143.367188 52.777344 L 146.339844 55.238281 L 148.960938 57.40625 L 147.855469 60.667969 L 146.371094 65.011719 L 150.015625 62.210938 L 152.777344 60.082031 L 155.539062 62.210938 L 159.183594 65.011719 L 157.699219 60.667969 L 156.59375 57.40625 L 159.214844 55.238281 Z M 162.1875 52.777344 "/>
<path style=" stroke:none;fill-rule:nonzero;fill:rgb(81.176471%,10.588235%,16.862745%);fill-opacity:1;" d="M 152.777344 50 L 151.382812 54.167969 L 147.222656 54.167969 L 150.582031 56.949219 L 149.167969 61.109375 L 152.777344 58.332031 L 156.390625 61.109375 L 154.972656 56.949219 L 158.332031 54.167969 L 154.171875 54.167969 Z M 152.777344 50 "/>
<path style=" stroke:none;fill-rule:nonzero;fill:rgb(93.333333%,92.941176%,92.941176%);fill-opacity:1;" d="M 162.1875 143.054688 L 155.171875 143.054688 L 154.09375 139.832031 L 152.777344 135.910156 L 151.460938 139.832031 L 150.382812 143.054688 L 143.367188 143.054688 L 146.339844 145.515625 L 148.960938 147.683594 L 147.855469 150.945312 L 146.371094 155.289062 L 150.015625 152.488281 L 152.777344 150.359375 L 155.539062 152.488281 L 159.183594 155.289062 L 157.699219 150.945312 L 156.59375 147.683594 L 159.214844 145.515625 Z M 162.1875 143.054688 "/>
<path style=" stroke:none;fill-rule:nonzero;fill:rgb(81.176471%,10.588235%,16.862745%);fill-opacity:1;" d="M 152.777344 140.277344 L 151.382812 144.445312 L 147.222656 144.445312 L 150.582031 147.226562 L 149.167969 151.390625 L 152.777344 148.609375 L 156.390625 151.390625 L 154.972656 147.226562 L 158.332031 144.445312 L 154.171875 144.445312 Z M 152.777344 140.277344 "/>
<path style=" stroke:none;fill-rule:nonzero;fill:rgb(93.333333%,92.941176%,92.941176%);fill-opacity:1;" d="M 184.410156 75 L 177.394531 75 L 176.316406 71.777344 L 175 67.855469 L 173.683594 71.777344 L 172.605469 75 L 165.589844 75 L 168.5625 77.460938 L 171.183594 79.628906 L 170.078125 82.890625 L 168.59375 87.234375 L 172.238281 84.433594 L 175 82.304688 L 177.761719 84.433594 L 181.40625 87.234375 L 179.921875 82.890625 L 178.816406 79.628906 L 181.4375 77.460938 Z M 184.410156 75 "/>
<path style=" stroke:none;fill-rule:nonzero;fill:rgb(81.176471%,10.588235%,16.862745%);fill-opacity:1;" d="M 175 72.222656 L 173.605469 76.390625 L 169.445312 76.390625 L 172.804688 79.171875 L 171.390625 83.332031 L 175 80.554688 L 178.609375 83.332031 L 177.195312 79.171875 L 180.554688 76.390625 L 176.394531 76.390625 Z M 175 72.222656 "/>
<path style=" stroke:none;fill-rule:nonzero;fill:rgb(93.333333%,92.941176%,92.941176%);fill-opacity:1;" d="M 139.964844 86.109375 L 132.949219 86.109375 L 131.871094 82.890625 L 130.554688 78.964844 L 129.238281 82.890625 L 128.160156 86.109375 L 121.144531 86.109375 L 124.117188 88.570312 L 126.738281 90.738281 L 125.632812 94 L 124.148438 98.34375 L 127.792969 95.542969 L 130.554688 93.417969 L 133.316406 95.542969 L 136.960938 98.34375 L 135.476562 94 L 134.371094 90.738281 L 136.996094 88.570312 Z M 139.964844 86.109375 "/>
<path style=" stroke:none;fill-rule:nonzero;fill:rgb(81.176471%,10.588235%,16.862745%);fill-opacity:1;" d="M 130.554688 83.332031 L 129.160156 87.5 L 125 87.5 L 128.359375 90.285156 L 126.945312 94.445312 L 130.554688 91.667969 L 134.167969 94.445312 L 132.75 90.285156 L 136.109375 87.5 L 131.949219 87.5 Z M 130.554688 83.332031 "/>
<path style=" stroke:none;fill-rule:nonzero;fill:rgb(0%,14.117647%,49.019608%);fill-opacity:1;" d="M 105.554688 100 L 105.554688 27.777344 L 22.222656 27.777344 C 20.445312 27.777344 18.867188 28.027344 18.867188 28.027344 L 18.84375 37.773438 L 3.679688 37.75 C 3.679688 37.75 3.445312 38.078125 2.972656 38.890625 C 1.082031 42.160156 0 45.957031 0 50 L 0 100 Z M 105.554688 100 "/>
<path style=" stroke:none;fill-rule:nonzero;fill:rgb(93.333333%,93.333333%,93.333333%);fill-opacity:1;" d="M 105.554688 27.777344 L 92.605469 27.777344 L 66.667969 45.9375 L 66.667969 27.777344 L 38.890625 27.777344 L 38.890625 42.050781 L 18.867188 28.027344 C 15.457031 28.550781 12.253906 29.832031 9.578125 31.722656 L 35.699219 50 L 26.054688 50 L 5.371094 35.503906 C 4.761719 36.222656 4.199219 36.960938 3.679688 37.75 L 21.183594 50 L 0 50 L 0 77.777344 L 21.582031 77.777344 L 0 93.144531 L 0 100 L 18.511719 100 L 38.890625 85.734375 L 38.890625 100 L 66.667969 100 L 66.667969 81.839844 L 92.601562 100 L 105.554688 100 L 105.554688 88.726562 L 89.917969 77.777344 L 105.554688 77.777344 L 105.554688 50 L 89.921875 50 L 105.554688 39.050781 Z M 105.554688 27.777344 "/>
<path style=" stroke:none;fill-rule:nonzero;fill:rgb(81.176471%,10.588235%,16.862745%);fill-opacity:1;" d="M 61.109375 27.777344 L 44.445312 27.777344 L 44.445312 55.554688 L 0 55.554688 L 0 72.222656 L 44.445312 72.222656 L 44.445312 100 L 61.109375 100 L 61.109375 72.222656 L 105.554688 72.222656 L 105.554688 55.554688 L 61.109375 55.554688 Z M 61.109375 27.777344 "/>
<path style=" stroke:none;fill-rule:nonzero;fill:rgb(81.176471%,10.588235%,16.862745%);fill-opacity:1;" d="M 105.554688 27.777344 L 97.4375 27.777344 L 66.667969 49.328125 L 66.667969 50 L 75.394531 50 L 105.554688 28.878906 Z M 9.578125 31.722656 C 8.015625 32.804688 6.609375 34.070312 5.371094 35.503906 L 26.054688 50 L 35.695312 50 Z M 35.761719 77.777344 L 4.078125 100 L 13.671875 100 L 38.890625 82.34375 L 38.890625 77.777344 Z M 105.554688 98.898438 L 105.554688 92.121094 L 85.070312 77.777344 L 75.390625 77.777344 Z M 105.554688 98.898438 "/>
</g>
</svg>
