<?xml version="1.0" encoding="UTF-8"?>
<svg xmlns="http://www.w3.org/2000/svg" xmlns:xlink="http://www.w3.org/1999/xlink" width="200px" height="200px" viewBox="0 0 200 200" version="1.1">
<g id="surface1">
<path style=" stroke:none;fill-rule:nonzero;fill:rgb(36.862745%,71.372549%,89.411765%);fill-opacity:1;" d="M 0 100 L 0 150 C 0 162.273438 9.949219 172.222656 22.222656 172.222656 L 177.777344 172.222656 C 190.050781 172.222656 200 162.273438 200 150 L 200 100 Z M 0 100 "/>
<path style=" stroke:none;fill-rule:nonzero;fill:rgb(93.333333%,93.333333%,93.333333%);fill-opacity:1;" d="M 177.777344 28.003906 L 22.222656 28.003906 C 9.949219 28.003906 0 37.957031 0 50.226562 L 0 100 L 200 100 L 200 50.226562 C 200 37.957031 190.050781 28.003906 177.777344 28.003906 Z M 177.777344 28.003906 "/>
<path style=" stroke:none;fill-rule:nonzero;fill:rgb(95.686275%,56.470588%,4.705882%);fill-opacity:1;" d="M 100 79.222656 C 86.484375 79.222656 85.246094 73.753906 100 73.753906 C 114.753906 73.75 113.515625 79.222656 100 79.222656 Z M 100 79.222656 "/>
<path style=" stroke:none;fill-rule:nonzero;fill:rgb(100%,67.45098%,20%);fill-opacity:1;" d="M 110.417969 77.660156 C 107.035156 77.660156 104.339844 79.746094 101.910156 81.042969 C 101.214844 80.179688 100 80.261719 100 80.261719 C 100 80.261719 98.785156 80.171875 98.089844 81.042969 C 95.65625 79.746094 92.964844 77.660156 89.582031 77.660156 C 86.199219 77.660156 78.210938 80.960938 78.210938 97.710938 C 78.210938 119.761719 100 126.789062 100 126.789062 C 100 126.789062 121.789062 119.753906 121.789062 97.710938 C 121.789062 80.957031 113.800781 77.660156 110.417969 77.660156 Z M 84.378906 70.277344 C 86.550781 70.710938 89.398438 74.707031 89.398438 76.484375 C 91.40625 74.273438 100 74.09375 100 74.09375 C 100 74.09375 108.59375 74.265625 110.601562 76.484375 C 110.601562 74.707031 113.457031 70.710938 115.621094 70.277344 C 115.1875 69.410156 113.972656 69.671875 113.972656 69.671875 C 113.972656 69.671875 116.660156 65.070312 115.621094 62.898438 C 114.578125 60.726562 110.5 60.816406 107.199219 60.464844 C 103.898438 60.121094 103.292969 58.644531 103.292969 58.644531 L 104.160156 57.601562 C 104.160156 57.601562 102.511719 57.253906 102.859375 56.121094 C 103.207031 54.996094 101.816406 55.078125 101.816406 55.078125 C 101.816406 55.078125 102.859375 54.035156 102.421875 53.082031 C 101.988281 52.128906 101.035156 51.867188 101.035156 51.867188 C 101.035156 51.867188 100.429688 50.476562 101.035156 50.042969 C 101.640625 49.609375 103.027344 51.261719 103.027344 49.609375 C 103.027344 47.960938 101.464844 49.351562 101.035156 48.746094 C 100.605469 48.144531 101.820312 46.582031 100 46.582031 C 98.179688 46.582031 99.394531 48.144531 98.957031 48.753906 C 98.523438 49.359375 96.960938 47.972656 96.960938 49.621094 C 96.960938 51.273438 98.351562 49.621094 98.957031 50.054688 C 99.5625 50.488281 98.957031 51.878906 98.957031 51.878906 C 98.957031 51.878906 98 52.140625 97.566406 53.09375 C 97.132812 54.050781 98.171875 55.089844 98.171875 55.089844 C 98.171875 55.089844 96.785156 55 97.128906 56.132812 C 97.472656 57.261719 95.828125 57.609375 95.828125 57.609375 L 96.695312 58.65625 C 96.695312 58.65625 96.089844 60.132812 92.789062 60.476562 C 89.488281 60.820312 85.410156 60.738281 84.367188 62.910156 C 83.320312 65.082031 86.015625 69.683594 86.015625 69.683594 C 86.015625 69.683594 84.8125 69.410156 84.378906 70.277344 Z M 107.289062 62.382812 C 110.238281 62.90625 115.015625 63.945312 109.371094 67.679688 C 109.460938 66.378906 108.765625 65.332031 108.765625 65.332031 C 108.765625 65.332031 107.378906 65.503906 106.25 66.550781 C 105.765625 64.828125 104.949219 64.292969 104.949219 64.292969 C 104.949219 64.292969 103.300781 64.8125 102.777344 66.109375 C 102.570312 65.550781 102.289062 65.078125 101.976562 64.683594 C 102.464844 63.832031 102.777344 62.679688 102.777344 61.398438 C 102.777344 61.128906 102.710938 60.890625 102.683594 60.628906 C 104.117188 61.503906 105.859375 62.128906 107.289062 62.382812 Z M 92.710938 62.382812 C 94.128906 62.132812 95.859375 61.515625 97.285156 60.648438 C 97.253906 60.90625 97.195312 61.132812 97.195312 61.398438 C 97.195312 62.6875 97.503906 63.855469 98.003906 64.710938 C 97.707031 65.101562 97.429688 65.566406 97.226562 66.117188 C 96.707031 64.816406 95.054688 64.292969 95.054688 64.292969 C 95.054688 64.292969 94.234375 64.832031 93.753906 66.550781 C 92.628906 65.503906 91.238281 65.332031 91.238281 65.332031 C 91.238281 65.332031 90.542969 66.378906 90.632812 67.679688 C 84.984375 63.945312 89.753906 62.898438 92.710938 62.382812 Z M 92.710938 62.382812 "/>
<path style=" stroke:none;fill-rule:nonzero;fill:rgb(62.745098%,81.176471%,92.156863%);fill-opacity:1;" d="M 116.039062 99.882812 C 116.039062 86.949219 112.304688 85.472656 112.304688 85.472656 C 112.304688 85.472656 110.503906 87.644531 107.933594 86.773438 C 105.359375 85.90625 101.714844 83.039062 101.714844 83.039062 C 101.714844 83.039062 101.078125 83.851562 99.90625 83.894531 C 98.734375 83.855469 98.089844 83.039062 98.089844 83.039062 C 98.089844 83.039062 94.445312 85.90625 91.878906 86.773438 C 89.3125 87.640625 87.5 85.472656 87.5 85.472656 C 87.5 85.472656 83.765625 86.949219 83.765625 99.882812 C 83.765625 112.117188 98.253906 123.640625 99.828125 124.851562 L 99.828125 124.964844 L 99.90625 124.90625 L 99.984375 124.964844 L 99.984375 124.851562 C 101.550781 123.640625 116.039062 112.117188 116.039062 99.882812 Z M 116.039062 99.882812 "/>
<path style=" stroke:none;fill-rule:nonzero;fill:rgb(80%,83.921569%,86.666667%);fill-opacity:1;" d="M 96.179688 112.207031 C 97.042969 109.6875 97.566406 108.039062 97.566406 106.5625 L 97.566406 100.222656 C 97.566406 100.222656 96.179688 99.527344 96.179688 98.746094 L 96.179688 96.398438 L 97.566406 95.878906 L 97.566406 97.4375 L 98.957031 96.917969 L 98.957031 95.527344 L 100 95.527344 L 100 97.003906 L 101.214844 97.265625 L 101.214844 95.964844 L 102.777344 96.398438 L 102.777344 98.570312 C 102.777344 98.570312 101.5625 99.871094 101.5625 100.222656 L 101.5625 106.5625 C 101.5625 107.167969 103.382812 112.207031 103.382812 112.207031 Z M 99.785156 94.328125 C 99.785156 94.328125 99.394531 92.679688 98.4375 91.289062 C 97.484375 89.898438 97.800781 87.300781 99.90625 87.292969 C 103.820312 87.289062 101.214844 90.8125 101.214844 90.8125 C 101.214844 90.8125 100.351562 89.035156 100 89.550781 C 99.65625 90.070312 100.910156 92.066406 100.34375 93.195312 C 99.777344 94.320312 99.785156 94.328125 99.785156 94.328125 Z M 91.015625 95.890625 C 91.015625 95.890625 90.628906 94.238281 89.671875 92.851562 C 88.714844 91.460938 89.035156 88.859375 91.140625 88.855469 C 95.054688 88.851562 92.449219 92.371094 92.449219 92.371094 C 92.449219 92.371094 91.582031 90.59375 91.234375 91.117188 C 90.890625 91.640625 92.144531 93.632812 91.578125 94.761719 Z M 108.410156 95.890625 C 108.410156 95.890625 108.023438 94.238281 107.066406 92.851562 C 106.109375 91.460938 106.429688 88.859375 108.535156 88.855469 C 112.449219 88.851562 109.84375 92.371094 109.84375 92.371094 C 109.84375 92.371094 108.976562 90.59375 108.628906 91.117188 C 108.285156 91.640625 109.539062 93.632812 108.972656 94.761719 Z M 88.066406 111.804688 C 88.535156 110.316406 88.800781 109.179688 88.800781 108.128906 L 88.800781 101.789062 C 88.800781 101.789062 87.410156 101.09375 87.410156 100.3125 L 87.410156 97.964844 L 88.800781 97.445312 L 88.800781 99.003906 L 90.1875 98.484375 L 90.1875 97.09375 L 91.234375 97.09375 L 91.234375 98.570312 L 92.449219 98.832031 L 92.449219 97.535156 L 94.011719 97.964844 L 94.011719 100.140625 C 94.011719 100.140625 92.792969 101.4375 92.792969 101.789062 L 92.792969 108.128906 C 92.792969 108.738281 94.617188 113.773438 94.617188 113.773438 C 94.617188 113.773438 87.878906 112.398438 88.066406 111.804688 Z M 104.804688 113.773438 C 105.671875 111.253906 106.195312 109.605469 106.195312 108.128906 L 106.195312 101.789062 C 106.195312 101.789062 104.804688 101.09375 104.804688 100.3125 L 104.804688 97.964844 L 106.195312 97.445312 L 106.195312 99.003906 L 107.582031 98.484375 L 107.582031 97.09375 L 108.628906 97.09375 L 108.628906 98.570312 L 109.84375 98.832031 L 109.84375 97.535156 L 111.40625 97.964844 L 111.40625 100.140625 C 111.40625 100.140625 110.1875 101.4375 110.1875 101.789062 L 110.1875 108.128906 C 110.1875 108.503906 110.917969 110.667969 111.457031 112.199219 C 111.761719 113.089844 104.804688 113.773438 104.804688 113.773438 Z M 104.804688 113.773438 "/>
<path style=" stroke:none;fill-rule:nonzero;fill:rgb(60%,66.666667%,70.980392%);fill-opacity:1;" d="M 91.015625 97.105469 L 90.195312 97.105469 L 90.195312 98.496094 L 88.804688 99.015625 L 88.804688 97.457031 L 87.417969 97.976562 L 87.417969 100.320312 C 87.417969 101.105469 88.804688 101.800781 88.804688 101.800781 L 88.804688 108.140625 C 88.804688 109.1875 88.539062 110.332031 88.070312 111.816406 C 87.984375 112.101562 89.449219 112.554688 91.023438 112.957031 L 91.023438 97.105469 Z M 99.726562 95.539062 L 98.898438 95.539062 L 98.898438 96.929688 L 97.511719 97.449219 L 97.511719 95.890625 L 96.121094 96.410156 L 96.121094 98.753906 C 96.121094 99.539062 97.511719 100.234375 97.511719 100.234375 L 97.511719 106.570312 C 97.511719 107.621094 97.246094 108.765625 96.777344 110.25 C 96.6875 110.535156 98.160156 110.988281 99.726562 111.390625 Z M 108.621094 97.359375 L 107.535156 97.101562 L 107.535156 98.488281 L 106.144531 99.011719 L 106.144531 97.449219 L 104.753906 97.972656 L 104.753906 100.316406 C 104.753906 101.101562 106.144531 101.792969 106.144531 101.792969 L 106.144531 108.132812 C 106.144531 109.183594 105.871094 110.328125 105.40625 111.8125 C 105.316406 112.09375 106.785156 112.550781 108.621094 113.210938 Z M 108.621094 97.359375 "/>
<path style=" stroke:none;fill-rule:nonzero;fill:rgb(54.509804%,69.803922%,45.098039%);fill-opacity:1;" d="M 105.464844 111.292969 C 105.464844 111.292969 103.644531 108.949219 100 108.949219 C 96.355469 108.949219 94.789062 111.382812 94.789062 111.382812 C 94.789062 111.382812 91.570312 110.117188 87.839844 111.898438 C 92.25 118.839844 98.800781 124.0625 99.820312 124.851562 L 99.820312 124.964844 L 99.898438 124.90625 L 99.976562 124.964844 L 99.976562 124.851562 C 101.003906 124.0625 107.59375 118.792969 112.003906 111.820312 C 108.027344 110.132812 105.464844 111.292969 105.464844 111.292969 Z M 105.464844 111.292969 "/>
<path style=" stroke:none;fill-rule:nonzero;fill:rgb(39.607843%,55.294118%,36.078431%);fill-opacity:1;" d="M 104.75 136.339844 C 102.292969 132.320312 100.089844 127.746094 94.101562 124.964844 C 88.109375 122.1875 87.15625 121.40625 85.421875 118.542969 C 83.6875 115.683594 80.300781 113.773438 80.300781 113.773438 C 80.300781 113.773438 80.390625 111.082031 79.253906 109.34375 C 78.128906 107.609375 78.210938 105.4375 78.210938 105.4375 C 78.210938 105.4375 76.820312 106.179688 77.167969 103.464844 C 77.511719 100.753906 75.777344 98.933594 75.777344 98.933594 C 75.777344 98.933594 77.949219 96.066406 76.121094 92.378906 C 78.207031 88.777344 77.25 84.695312 77.25 84.695312 C 77.25 84.695312 79.070312 81.3125 77.25 77.660156 C 71.433594 80.09375 71.089844 87.816406 71.089844 87.816406 L 67.789062 83.042969 C 67.789062 83.042969 65.011719 84.867188 65.707031 88.253906 C 66.398438 91.640625 66.226562 92.378906 66.226562 92.378906 L 63.105469 89.734375 C 63.105469 89.734375 60.851562 93.464844 63.972656 96.417969 C 67.09375 99.367188 67.617188 100.238281 67.617188 100.238281 C 67.617188 100.238281 66.054688 99.371094 66.054688 100.761719 C 66.054688 102.148438 66.398438 102.753906 66.398438 102.753906 L 62.3125 99.371094 C 62.3125 99.371094 61.105469 103.972656 63.964844 106.578125 C 66.832031 109.183594 68.566406 110.140625 68.566406 110.140625 C 68.566406 110.140625 63.101562 108.578125 63.183594 108.964844 C 63.273438 109.355469 64.3125 112.222656 67.089844 113.785156 C 69.867188 115.34375 71.949219 115.957031 71.949219 115.957031 L 66.304688 116.976562 C 66.304688 116.976562 67.695312 120.996094 70.996094 120.996094 C 74.292969 120.996094 77.417969 119.949219 77.417969 119.949219 C 77.417969 119.949219 75.070312 121.859375 74.378906 123.332031 C 73.683594 124.8125 71.6875 124.984375 71.6875 124.984375 C 71.6875 124.984375 73.511719 126.894531 76.898438 126.285156 C 80.285156 125.679688 80.722656 121.070312 84.890625 122.550781 C 89.054688 124.027344 96.523438 126.714844 98.949219 130.449219 C 101.378906 134.183594 102.25 135.050781 102.773438 136.351562 C 103.300781 137.640625 105.464844 137.511719 104.75 136.339844 Z M 104.75 136.339844 "/>
<path style=" stroke:none;fill-rule:nonzero;fill:rgb(39.607843%,55.294118%,36.078431%);fill-opacity:1;" d="M 94.59375 136.339844 C 97.042969 132.320312 99.253906 127.746094 105.246094 124.964844 C 111.234375 122.1875 112.1875 121.40625 113.921875 118.542969 C 115.65625 115.683594 119.042969 113.773438 119.042969 113.773438 C 119.042969 113.773438 118.957031 111.082031 120.089844 109.34375 C 121.222656 107.605469 121.132812 105.4375 121.132812 105.4375 C 121.132812 105.4375 122.523438 106.179688 122.179688 103.464844 C 121.832031 100.753906 123.566406 98.933594 123.566406 98.933594 C 123.566406 98.933594 121.394531 96.066406 123.222656 92.378906 C 121.140625 88.777344 122.09375 84.695312 122.09375 84.695312 C 122.09375 84.695312 120.273438 81.3125 122.09375 77.660156 C 127.910156 80.09375 128.253906 87.816406 128.253906 87.816406 L 131.554688 83.042969 C 131.554688 83.042969 134.332031 84.867188 133.640625 88.253906 C 132.945312 91.640625 133.117188 92.378906 133.117188 92.378906 L 136.238281 89.734375 C 136.238281 89.734375 138.496094 93.464844 135.371094 96.417969 C 132.25 99.367188 131.726562 100.238281 131.726562 100.238281 C 131.726562 100.238281 133.289062 99.371094 133.289062 100.761719 C 133.289062 102.148438 132.945312 102.753906 132.945312 102.753906 L 137.027344 99.371094 C 137.027344 99.371094 138.238281 103.972656 135.371094 106.578125 C 132.503906 109.183594 130.773438 110.140625 130.773438 110.140625 C 130.773438 110.140625 136.238281 108.578125 136.15625 108.964844 C 136.066406 109.355469 135.027344 112.222656 132.25 113.785156 C 129.472656 115.34375 127.390625 115.957031 127.390625 115.957031 L 133.035156 116.976562 C 133.035156 116.976562 131.644531 120.996094 128.34375 120.996094 C 125.042969 120.996094 121.921875 119.949219 121.921875 119.949219 C 121.921875 119.949219 124.265625 121.859375 124.960938 123.332031 C 125.65625 124.8125 127.648438 124.984375 127.648438 124.984375 C 127.648438 124.984375 125.828125 126.894531 122.4375 126.285156 C 119.050781 125.671875 118.617188 121.070312 114.449219 122.550781 C 110.285156 124.027344 102.816406 126.714844 100.390625 130.449219 C 97.960938 134.183594 97.089844 135.050781 96.566406 136.351562 C 96.042969 137.640625 93.878906 137.511719 94.59375 136.339844 Z M 94.59375 136.339844 "/>
<path style=" stroke:none;fill-rule:nonzero;fill:rgb(88.235294%,90.980392%,92.941176%);fill-opacity:1;" d="M 86.804688 128.578125 C 82.726562 129.050781 81.683594 131.738281 75.957031 129.222656 C 75.695312 130.523438 77.777344 132.523438 77.777344 132.523438 C 77.777344 132.523438 74.65625 132.609375 73.179688 132.089844 C 73.960938 135.300781 77.605469 136.515625 80.644531 136.253906 C 83.683594 135.996094 85.59375 133.738281 89.109375 134.523438 C 92.628906 135.304688 95.15625 136.382812 94.457031 130.09375 C 92.101562 127.570312 86.804688 128.578125 86.804688 128.578125 Z M 113.195312 128.578125 C 117.273438 129.050781 118.316406 131.738281 124.042969 129.222656 C 124.304688 130.523438 122.222656 132.523438 122.222656 132.523438 C 122.222656 132.523438 125.34375 132.609375 126.820312 132.089844 C 126.039062 135.300781 122.394531 136.515625 119.355469 136.253906 C 116.316406 135.996094 114.40625 133.738281 110.890625 134.523438 C 107.371094 135.304688 104.84375 136.382812 105.542969 130.09375 C 107.898438 127.570312 113.195312 128.578125 113.195312 128.578125 Z M 113.195312 128.578125 "/>
<path style=" stroke:none;fill-rule:nonzero;fill:rgb(96.078431%,97.254902%,98.039216%);fill-opacity:1;" d="M 113.457031 124.535156 C 111.109375 123.496094 105.988281 126.09375 100 126.09375 C 94.011719 126.09375 88.890625 123.488281 86.542969 124.535156 C 84.199219 125.578125 84.632812 125.921875 84.8125 126.789062 C 84.984375 127.65625 85.246094 130 85.417969 131.300781 C 85.589844 132.601562 86.976562 133.472656 88.628906 132.34375 C 90.277344 131.214844 92.359375 130.695312 95.226562 131.5625 C 98.09375 132.429688 99.859375 132.371094 99.859375 132.371094 C 99.859375 132.371094 101.910156 132.429688 104.777344 131.5625 C 107.644531 130.695312 109.726562 131.214844 111.378906 132.34375 C 113.027344 133.472656 114.417969 132.605469 114.589844 131.300781 C 114.761719 130 115.023438 127.65625 115.195312 126.789062 C 115.367188 125.921875 115.800781 125.578125 113.457031 124.535156 Z M 113.457031 124.535156 "/>
<path style=" stroke:none;fill-rule:nonzero;fill:rgb(60%,66.666667%,70.980392%);fill-opacity:1;" d="M 110.210938 126.789062 C 110.210938 127.320312 109.148438 129.457031 99.367188 129.457031 C 89.582031 129.457031 88.855469 127.316406 88.855469 126.789062 C 88.855469 126.253906 90.457031 127.964844 100.234375 127.964844 C 110.011719 127.964844 110.210938 126.261719 110.210938 126.789062 Z M 110.210938 126.789062 "/>
</g>
</svg>
