<?xml version="1.0" encoding="UTF-8"?>
<svg xmlns="http://www.w3.org/2000/svg" xmlns:xlink="http://www.w3.org/1999/xlink" width="200px" height="200px" viewBox="0 0 200 200" version="1.1">
<g id="surface1">
<path style=" stroke:none;fill-rule:nonzero;fill:rgb(81.568627%,10.980392%,22.745098%);fill-opacity:1;" d="M 200 150 C 200 162.273438 190.050781 172.222656 177.777344 172.222656 L 22.222656 172.222656 C 9.949219 172.222656 0 162.273438 0 150 L 0 50 C 0 37.726562 9.949219 27.777344 22.222656 27.777344 L 177.777344 27.777344 C 190.050781 27.777344 200 37.726562 200 50 Z M 200 150 "/>
<path style=" stroke:none;fill-rule:nonzero;fill:rgb(0%,12.54902%,65.882353%);fill-opacity:1;" d="M 22.222656 27.777344 C 9.949219 27.777344 0 37.726562 0 50 L 0 150 C 0 162.273438 9.949219 172.222656 22.222656 172.222656 L 66.667969 172.222656 L 66.667969 27.777344 Z M 22.222656 27.777344 "/>
<path style=" stroke:none;fill-rule:nonzero;fill:rgb(99.607843%,87.45098%,0%);fill-opacity:1;" d="M 66.667969 27.777344 L 133.332031 27.777344 L 133.332031 172.222656 L 66.667969 172.222656 Z M 66.667969 27.777344 "/>
<path style=" stroke:none;fill-rule:nonzero;fill:rgb(78.039216%,70.196078%,49.803922%);fill-opacity:1;" d="M 127.972656 109.117188 C 127.089844 106.496094 124.84375 106.996094 124.84375 107.867188 C 124.84375 107.867188 121.851562 105.699219 124.09375 101.734375 C 124.09375 101.734375 128.460938 102.25 125.964844 98.878906 C 125.964844 98.878906 129.710938 96.753906 129.832031 92.390625 C 129.957031 88.015625 124.964844 85.273438 122.84375 87.015625 C 122.84375 87.015625 122.714844 85.273438 121.84375 85.273438 C 120.972656 85.273438 120.472656 86.394531 120.472656 86.394531 C 120.472656 86.394531 120.601562 83.523438 122.464844 81.898438 C 124.339844 80.277344 128.207031 75.90625 120.089844 73.410156 C 111.976562 70.917969 111.605469 76.039062 112.851562 77.160156 C 112.851562 77.160156 110.855469 78.277344 108.605469 78.15625 C 106.359375 78.039062 107.976562 75.417969 108.476562 74.289062 C 108.976562 73.167969 108.605469 69.171875 105.851562 69.300781 C 103.105469 69.421875 102.976562 70.550781 101.984375 70.921875 C 101 71.289062 100 71.039062 100 71.039062 C 100 71.039062 99 71.289062 98 70.910156 C 97.003906 70.539062 96.878906 69.417969 94.132812 69.289062 C 91.382812 69.160156 91.011719 73.15625 91.511719 74.277344 C 92.011719 75.40625 93.632812 78.027344 91.382812 78.144531 C 89.140625 78.265625 87.140625 77.148438 87.140625 77.148438 C 88.390625 76.027344 88.011719 70.90625 79.898438 73.398438 C 71.789062 75.894531 75.65625 80.265625 77.527344 81.890625 C 79.398438 83.511719 79.527344 86.382812 79.527344 86.382812 C 79.527344 86.382812 79.027344 85.261719 78.148438 85.261719 C 77.277344 85.261719 77.15625 87.003906 77.15625 87.003906 C 75.035156 85.261719 70.039062 88.003906 70.160156 92.378906 C 70.289062 96.746094 74.035156 98.867188 74.035156 98.867188 C 71.535156 102.234375 75.90625 101.722656 75.90625 101.722656 C 78.148438 105.695312 75.15625 107.855469 75.15625 107.855469 C 75.15625 106.984375 72.910156 106.484375 72.023438 109.105469 C 71.140625 111.726562 73.777344 112.601562 73.777344 112.601562 C 70.285156 117.101562 72.527344 121.339844 75.898438 123.832031 C 79.273438 126.328125 85.761719 125.960938 89.003906 126.207031 C 92.25 126.457031 92.878906 128.078125 92.878906 128.078125 C 90.382812 130.457031 94.128906 132.328125 94.128906 132.328125 C 94.878906 134.820312 97.871094 132.078125 97.871094 132.078125 L 100 133.957031 L 102.121094 132.082031 C 102.121094 132.082031 105.121094 134.828125 105.867188 132.332031 C 105.867188 132.332031 109.617188 130.460938 107.117188 128.082031 C 107.117188 128.082031 107.746094 126.460938 110.988281 126.210938 C 114.234375 125.964844 120.726562 126.332031 124.09375 123.839844 C 127.460938 121.34375 129.710938 117.101562 126.214844 112.605469 C 126.214844 112.609375 128.855469 111.734375 127.972656 109.117188 Z M 127.972656 109.117188 "/>
<path style=" stroke:none;fill-rule:nonzero;fill:rgb(81.568627%,10.980392%,22.745098%);fill-opacity:1;" d="M 99 98.003906 L 99 81.527344 L 82.523438 81.527344 L 82.523438 98.003906 Z M 99 98.003906 "/>
<path style=" stroke:none;fill-rule:nonzero;fill:rgb(99.607843%,87.45098%,0%);fill-opacity:1;" d="M 88.515625 91.699219 L 83.617188 96.753906 L 84.382812 97.628906 L 88.515625 93.070312 Z M 96.566406 85.273438 C 96.566406 85.273438 98.738281 85.839844 98.738281 83.898438 C 98.738281 81.960938 97.4375 81.960938 97.003906 81.960938 C 96.566406 81.960938 94.570312 82.277344 94.503906 83.082031 C 94.445312 83.894531 95.289062 84.394531 94.832031 84.832031 C 94.382812 85.265625 93.15625 86.351562 93.15625 86.351562 L 93.882812 87.214844 C 93.882812 87.214844 94.929688 86.351562 95.753906 85.144531 C 96.179688 84.535156 95.855469 83.042969 96.253906 82.957031 C 97.4375 82.710938 97.878906 83.273438 97.816406 83.710938 C 97.753906 84.144531 97.003906 84.582031 97.003906 84.582031 Z M 96.566406 85.273438 "/>
<path style=" stroke:none;fill-rule:nonzero;fill:rgb(100%,100%,100%);fill-opacity:1;" d="M 92.511719 93.945312 C 92.511719 93.945312 92.820312 96.253906 93.945312 96.378906 C 95.066406 96.5 95.445312 92.789062 97.285156 92.789062 C 99.128906 92.789062 99.3125 96.003906 97.285156 96.503906 L 97.003906 95.570312 C 97.003906 95.570312 98.316406 94.261719 97.378906 94.066406 C 96.445312 93.882812 96.003906 95.066406 95.882812 95.570312 C 95.753906 96.070312 95.003906 97.378906 93.882812 97.378906 C 92.011719 97.378906 91.761719 95.660156 91.476562 94.339844 C 91.199219 93.011719 92.511719 93.945312 92.511719 93.945312 Z M 89.179688 93.945312 C 89.179688 93.945312 88.867188 96.253906 87.738281 96.378906 C 86.617188 96.5 86.238281 92.789062 84.398438 92.789062 C 82.554688 92.789062 82.367188 96.003906 84.398438 96.503906 L 84.679688 95.570312 C 84.679688 95.570312 83.367188 94.261719 84.304688 94.066406 C 85.238281 93.882812 85.679688 95.066406 85.800781 95.570312 C 85.929688 96.070312 86.671875 97.378906 87.792969 97.378906 C 89.667969 97.378906 89.917969 95.660156 90.199219 94.339844 C 90.488281 93.011719 89.179688 93.945312 89.179688 93.945312 Z M 89.179688 93.945312 "/>
<path style=" stroke:none;fill-rule:nonzero;fill:rgb(100%,100%,100%);fill-opacity:1;" d="M 91.078125 82.210938 L 95.882812 88.328125 L 93.476562 94.882812 C 93.476562 94.882812 92.511719 94.316406 91.070312 94.316406 C 89.632812 94.316406 88.511719 94.882812 88.511719 94.882812 L 85.957031 88.265625 Z M 91.078125 82.210938 "/>
<path style=" stroke:none;fill-rule:nonzero;fill:rgb(99.607843%,87.45098%,0%);fill-opacity:1;" d="M 91.476562 84.332031 L 94.832031 88.359375 L 93.132812 93.511719 L 91.511719 93.011719 Z M 90.371094 84.332031 L 87.015625 88.359375 L 88.714844 93.511719 L 90.339844 93.011719 Z M 82.523438 99.5 L 82.523438 109.738281 C 82.523438 116.484375 87.445312 117.410156 91.679688 116.484375 C 95.089844 115.726562 99 116.484375 99 116.484375 L 99 99.5 Z M 82.523438 99.5 "/>
<path style=" stroke:none;fill-rule:nonzero;fill:rgb(81.568627%,10.980392%,22.745098%);fill-opacity:1;" d="M 91.679688 116.484375 L 92.011719 116.417969 L 92.011719 99.5 L 89.511719 99.5 L 89.511719 116.765625 C 90.238281 116.738281 90.964844 116.632812 91.679688 116.484375 Z M 97.003906 116.226562 L 97.003906 99.5 L 94.503906 99.5 L 94.503906 116.15625 C 95.421875 116.128906 96.285156 116.167969 97.003906 116.226562 Z M 87.015625 116.550781 L 87.015625 99.5 L 84.523438 99.5 L 84.523438 115.285156 C 85.226562 115.921875 86.089844 116.332031 87.015625 116.550781 Z M 87.015625 116.550781 "/>
<path style=" stroke:none;fill-rule:nonzero;fill:rgb(99.607843%,87.45098%,0%);fill-opacity:1;" d="M 101 98.003906 L 101 81.527344 L 117.476562 81.527344 L 117.476562 98.003906 Z M 101 98.003906 "/>
<path style=" stroke:none;fill-rule:nonzero;fill:rgb(81.568627%,10.980392%,22.745098%);fill-opacity:1;" d="M 102.996094 81.527344 L 105.496094 81.527344 L 105.496094 98.003906 L 102.996094 98.003906 Z M 107.988281 81.527344 L 110.488281 81.527344 L 110.488281 98.003906 L 107.988281 98.003906 Z M 112.984375 81.527344 L 115.476562 81.527344 L 115.476562 98.003906 L 112.984375 98.003906 Z M 112.984375 81.527344 "/>
<path style=" stroke:none;fill-rule:nonzero;fill:rgb(99.607843%,87.45098%,0%);fill-opacity:1;" d="M 117.476562 99.5 L 117.476562 109.738281 C 117.476562 116.484375 112.554688 117.410156 108.320312 116.484375 C 104.910156 115.726562 101 116.484375 101 116.484375 L 101 99.5 Z M 117.476562 99.5 "/>
<path style=" stroke:none;fill-rule:nonzero;fill:rgb(81.568627%,10.980392%,22.745098%);fill-opacity:1;" d="M 103.496094 102.246094 L 105.054688 100.996094 L 106.988281 100.996094 L 106.988281 102 C 106.988281 102 109.738281 101.957031 111.984375 101.726562 C 114.226562 101.496094 114.917969 103.183594 114.226562 103.617188 C 113.542969 104.054688 114.351562 105.746094 114.226562 106.550781 C 114.105469 107.359375 112.605469 108.542969 112.976562 107.859375 C 113.351562 107.171875 112.976562 105.300781 112.976562 105.300781 C 112.976562 105.300781 112.542969 106.738281 112.167969 107.171875 C 111.789062 107.609375 110.476562 107.671875 110.976562 107.300781 C 111.476562 106.929688 111.976562 106.117188 111.539062 105.679688 C 111.105469 105.246094 109.144531 105.179688 109.0625 105.367188 C 108.984375 105.550781 108.609375 107.734375 108.359375 107.859375 C 108.105469 107.984375 107.792969 107.671875 107.984375 106.988281 C 108.171875 106.300781 107.984375 105.117188 107.984375 105.117188 C 107.984375 105.117188 106.679688 105.050781 106.734375 105.617188 C 106.800781 106.179688 107.359375 106.429688 107.238281 106.867188 C 107.109375 107.300781 106.300781 107.867188 106.238281 107.117188 C 106.171875 106.367188 104.929688 105.867188 105.488281 105.496094 C 106.050781 105.121094 106.617188 104.535156 106.617188 104.535156 C 106.617188 104.535156 105.910156 104.371094 105.417969 103.683594 C 104.917969 103 104.496094 103.0625 103.496094 103.0625 C 102.996094 103.0625 103.496094 102.246094 103.496094 102.246094 Z M 103.496094 109.738281 L 105.054688 108.488281 L 106.988281 108.488281 L 106.988281 109.488281 C 106.988281 109.488281 109.738281 109.449219 111.984375 109.214844 C 114.226562 108.988281 114.917969 110.671875 114.226562 111.109375 C 113.542969 111.550781 114.351562 113.234375 114.226562 114.042969 C 114.105469 114.855469 112.605469 116.035156 112.976562 115.355469 C 113.351562 114.667969 112.976562 112.792969 112.976562 112.792969 C 112.976562 112.792969 112.542969 114.226562 112.167969 114.667969 C 111.789062 115.105469 110.476562 115.167969 110.976562 114.789062 C 111.476562 114.417969 111.976562 113.601562 111.539062 113.167969 C 111.105469 112.734375 109.144531 112.667969 109.0625 112.851562 C 108.984375 113.039062 108.609375 115.222656 108.359375 115.351562 C 108.105469 115.464844 107.792969 115.160156 107.984375 114.472656 C 108.171875 113.789062 107.984375 112.601562 107.984375 112.601562 C 107.984375 112.601562 106.679688 112.539062 106.734375 113.101562 C 106.800781 113.660156 107.359375 113.910156 107.238281 114.351562 C 107.109375 114.789062 106.300781 115.355469 106.238281 114.601562 C 106.171875 113.855469 104.929688 113.351562 105.488281 112.976562 C 106.050781 112.605469 106.617188 112.015625 106.617188 112.015625 C 106.617188 112.015625 105.910156 111.855469 105.417969 111.171875 C 104.917969 110.484375 104.496094 110.550781 103.496094 110.550781 C 102.996094 110.550781 103.496094 109.738281 103.496094 109.738281 Z M 103.496094 109.738281 "/>
<path style=" stroke:none;fill-rule:nonzero;fill:rgb(68.627451%,56.862745%,40.392157%);fill-opacity:1;" d="M 81.273438 117.726562 C 81.273438 117.910156 90.449219 120.40625 91.476562 120.601562 C 92.511719 120.785156 92.132812 122.90625 90.761719 122.785156 C 89.390625 122.667969 82.582031 121.167969 81.710938 120.726562 C 80.839844 120.285156 81.273438 117.726562 81.273438 117.726562 Z M 93.882812 120.816406 C 93.882812 120.816406 96.632812 121.1875 99 121.289062 C 101.371094 121.382812 102.996094 121.179688 102.996094 121.179688 L 104.683594 123.464844 C 104.683594 123.464844 101.75 123.785156 99.75 123.785156 C 97.753906 123.785156 94.503906 123.464844 94.503906 123.464844 Z M 105.867188 120.816406 C 105.867188 120.816406 109.800781 120.101562 112.179688 119.535156 C 114.550781 118.972656 117.667969 117.851562 118.484375 117.726562 C 119.292969 117.601562 119.855469 119.066406 120.101562 119.265625 L 120.351562 119.472656 C 120.351562 119.472656 116.234375 121.40625 114.234375 121.964844 C 112.238281 122.535156 105.867188 123.40625 105.867188 123.40625 C 105.867188 123.40625 104.957031 120.984375 105.867188 120.816406 Z M 105.867188 120.816406 "/>
</g>
</svg>
