<?xml version="1.0" encoding="UTF-8"?>
<svg xmlns="http://www.w3.org/2000/svg" xmlns:xlink="http://www.w3.org/1999/xlink" width="200px" height="200px" viewBox="0 0 200 200" version="1.1">
<g id="surface1">
<path style=" stroke:none;fill-rule:nonzero;fill:rgb(93.333333%,93.333333%,93.333333%);fill-opacity:1;" d="M 200 150 C 200 162.273438 190.050781 172.222656 177.777344 172.222656 L 22.222656 172.222656 C 9.949219 172.222656 0 162.273438 0 150 L 0 50 C 0 37.726562 9.949219 27.777344 22.222656 27.777344 L 177.777344 27.777344 C 190.050781 27.777344 200 37.726562 200 50 Z M 200 150 "/>
<path style=" stroke:none;fill-rule:nonzero;fill:rgb(92.941176%,16.078431%,22.352941%);fill-opacity:1;" d="M 200 100 L 200 50 C 200 37.726562 190.050781 27.777344 177.777344 27.777344 L 22.222656 27.777344 C 9.949219 27.777344 0 37.726562 0 50 L 0 100 Z M 200 100 "/>
<path style=" stroke:none;fill-rule:nonzero;fill:rgb(100%,100%,100%);fill-opacity:1;" d="M 33.332031 63.890625 C 33.332031 49.527344 42.355469 37.511719 54.5 34.246094 C 52.160156 33.671875 49.734375 33.332031 47.222656 33.332031 C 30.34375 33.332031 16.667969 47.011719 16.667969 63.890625 C 16.667969 80.765625 30.34375 94.445312 47.222656 94.445312 C 49.734375 94.445312 52.160156 94.109375 54.5 93.535156 C 42.355469 90.265625 33.332031 78.25 33.332031 63.890625 Z M 33.332031 63.890625 "/>
<path style=" stroke:none;fill-rule:nonzero;fill:rgb(93.333333%,93.333333%,93.333333%);fill-opacity:1;" d="M 66.667969 38.890625 L 67.917969 42.726562 L 71.949219 42.726562 L 68.683594 45.101562 L 69.933594 48.9375 L 66.667969 46.566406 L 63.398438 48.9375 L 64.648438 45.101562 L 61.382812 42.726562 L 65.417969 42.726562 Z M 55.554688 77.777344 L 56.804688 81.617188 L 60.839844 81.617188 L 57.570312 83.988281 L 58.820312 87.828125 L 55.554688 85.457031 L 52.289062 87.828125 L 53.539062 83.988281 L 50.273438 81.617188 L 54.304688 81.617188 Z M 77.777344 77.777344 L 79.027344 81.617188 L 83.0625 81.617188 L 79.792969 83.988281 L 81.042969 87.828125 L 77.777344 85.457031 L 74.511719 87.828125 L 75.761719 83.988281 L 72.496094 81.617188 L 76.527344 81.617188 Z M 50 55.554688 L 51.25 59.394531 L 55.285156 59.394531 L 52.015625 61.765625 L 53.265625 65.605469 L 50 63.234375 L 46.734375 65.605469 L 47.984375 61.765625 L 44.714844 59.394531 L 48.75 59.394531 Z M 83.332031 55.554688 L 84.582031 59.394531 L 88.617188 59.394531 L 85.351562 61.765625 L 86.601562 65.605469 L 83.332031 63.234375 L 80.066406 65.605469 L 81.316406 61.765625 L 78.050781 59.394531 L 82.082031 59.394531 Z M 83.332031 55.554688 "/>
</g>
</svg>
