<?xml version="1.0" encoding="UTF-8"?>
<svg xmlns="http://www.w3.org/2000/svg" xmlns:xlink="http://www.w3.org/1999/xlink" width="200px" height="px" viewBox="0 0 200 200" version="1.1">
<g id="surface1">
<path style=" stroke:none;fill-rule:nonzero;fill:rgb(5.882353%,27.843137%,68.627451%);fill-opacity:1;" d="M 200 150 C 200 162.273438 190.050781 172.222656 177.777344 172.222656 L 22.222656 172.222656 C 9.949219 172.222656 0 162.273438 0 150 L 0 50 C 0 37.726562 9.949219 27.777344 22.222656 27.777344 L 177.777344 27.777344 C 190.050781 27.777344 200 37.726562 200 50 Z M 200 150 "/>
<path style=" stroke:none;fill-rule:nonzero;fill:rgb(93.333333%,93.333333%,93.333333%);fill-opacity:1;" d="M 0 72.222656 L 200 72.222656 L 200 127.777344 L 0 127.777344 Z M 0 72.222656 "/>
<path style=" stroke:none;fill-rule:nonzero;fill:rgb(12.156863%,37.647059%,10.196078%);fill-opacity:1;" d="M 97.011719 118.316406 C 98.378906 114.070312 93.628906 113.285156 93.628906 113.285156 C 93.628906 113.285156 93.972656 115.714844 91.109375 115.800781 C 92.066406 117.710938 91.199219 119.273438 89.984375 119.359375 C 91.976562 121.179688 96.144531 121.003906 97.011719 118.316406 Z M 89.957031 115.746094 C 92.582031 112.535156 88.726562 110.234375 88.726562 110.234375 C 88.726562 110.234375 88.199219 112.457031 85.6875 111.5625 C 85.871094 113.535156 84.582031 114.601562 83.5 114.261719 C 84.617188 116.527344 88.289062 117.789062 89.957031 115.746094 Z M 84.984375 111.328125 C 88.117188 109.648438 85.828125 106.566406 85.828125 106.566406 C 85.828125 106.566406 84.679688 108.144531 82.988281 106.621094 C 82.484375 108.238281 81.121094 108.65625 80.371094 108.039062 C 80.511719 110.195312 82.996094 112.390625 84.984375 111.328125 Z M 83.0625 105.722656 C 86.359375 105.050781 85.121094 101.632812 85.121094 101.632812 C 85.121094 101.632812 83.648438 102.753906 82.527344 100.917969 C 81.628906 102.246094 80.277344 102.253906 79.765625 101.496094 C 79.3125 103.484375 80.964844 106.148438 83.0625 105.722656 Z M 82.285156 100.917969 C 85.3125 100.894531 84.8125 97.660156 84.8125 97.660156 C 84.8125 97.660156 83.316406 98.398438 82.644531 96.578125 C 81.617188 97.59375 80.429688 97.367188 80.109375 96.605469 C 79.367188 98.285156 80.359375 100.929688 82.285156 100.917969 Z M 83 96.332031 C 85.359375 97.144531 85.734375 94.132812 85.734375 94.132812 C 85.734375 94.132812 84.394531 94.378906 84.304688 92.578125 C 83.265625 93.199219 82.394531 92.671875 82.328125 91.90625 C 81.34375 93.195312 81.496094 95.816406 83 96.332031 Z M 84.816406 92.539062 C 85.996094 93.226562 87.316406 90.9375 87.316406 90.9375 C 87.316406 90.9375 86.292969 90.570312 86.554688 88.890625 C 85.644531 89.300781 85.023438 89.050781 85.109375 88.332031 C 84.117188 89.371094 83.707031 91.894531 84.816406 92.539062 Z M 102.128906 118.316406 C 100.761719 114.070312 105.511719 113.285156 105.511719 113.285156 C 105.511719 113.285156 105.167969 115.714844 108.027344 115.800781 C 107.070312 117.710938 107.9375 119.273438 109.15625 119.359375 C 107.160156 121.179688 102.996094 121.003906 102.128906 118.316406 Z M 109.179688 115.746094 C 106.550781 112.535156 110.40625 110.234375 110.40625 110.234375 C 110.40625 110.234375 110.9375 112.457031 113.445312 111.5625 C 113.265625 113.535156 114.550781 114.601562 115.640625 114.261719 C 114.515625 116.527344 110.851562 117.789062 109.179688 115.746094 Z M 114.15625 111.328125 C 111.027344 109.648438 113.316406 106.566406 113.316406 106.566406 C 113.316406 106.566406 114.464844 108.144531 116.148438 106.621094 C 116.660156 108.238281 118.023438 108.65625 118.765625 108.039062 C 118.628906 110.195312 116.144531 112.390625 114.15625 111.328125 Z M 116.078125 105.722656 C 112.777344 105.050781 114.023438 101.632812 114.023438 101.632812 C 114.023438 101.632812 115.496094 102.753906 116.617188 100.917969 C 117.515625 102.246094 118.859375 102.253906 119.371094 101.496094 C 119.820312 103.484375 118.171875 106.148438 116.078125 105.722656 Z M 116.851562 100.917969 C 113.820312 100.894531 114.320312 97.660156 114.320312 97.660156 C 114.320312 97.660156 115.820312 98.398438 116.488281 96.578125 C 117.511719 97.59375 118.707031 97.367188 119.023438 96.605469 C 119.773438 98.285156 118.773438 100.929688 116.851562 100.917969 Z M 116.132812 96.332031 C 113.773438 97.144531 113.398438 94.132812 113.398438 94.132812 C 113.398438 94.132812 114.746094 94.378906 114.832031 92.578125 C 115.878906 93.199219 116.746094 92.671875 116.8125 91.90625 C 117.792969 93.195312 117.644531 95.816406 116.132812 96.332031 Z M 114.320312 92.539062 C 113.140625 93.226562 111.820312 90.9375 111.820312 90.9375 C 111.820312 90.9375 112.851562 90.570312 112.589844 88.890625 C 113.496094 89.300781 114.117188 89.050781 114.035156 88.332031 C 115.015625 89.371094 115.429688 91.894531 114.320312 92.539062 Z M 114.320312 92.539062 "/>
<path style=" stroke:none;fill-rule:nonzero;fill:rgb(2.352941%,12.54902%,62.352941%);fill-opacity:1;" d="M 101.699219 118.339844 C 101.699219 119.566406 100.703125 120.5625 99.476562 120.5625 C 98.25 120.5625 97.253906 119.566406 97.253906 118.339844 C 97.253906 117.113281 98.25 116.117188 99.476562 116.117188 C 100.703125 116.117188 101.699219 117.113281 101.699219 118.339844 Z M 101.699219 118.339844 "/>
<path style=" stroke:none;fill-rule:nonzero;fill:rgb(2.352941%,12.54902%,62.352941%);fill-opacity:1;" d="M 99.003906 98.746094 L 88.679688 87.671875 C 88.679688 87.671875 86.945312 100.433594 91.976562 103.816406 C 97.011719 107.207031 99.003906 98.746094 99.003906 98.746094 Z M 99.003906 98.746094 "/>
<path style=" stroke:none;fill-rule:nonzero;fill:rgb(100%,100%,100%);fill-opacity:1;" d="M 93.632812 92.996094 L 91.332031 90.527344 C 91.332031 90.527344 90.148438 100.433594 95.183594 103.820312 C 92.753906 98.871094 93.632812 92.996094 93.632812 92.996094 Z M 93.632812 92.996094 "/>
<path style=" stroke:none;fill-rule:nonzero;fill:rgb(2.352941%,12.54902%,62.352941%);fill-opacity:1;" d="M 99.003906 103.34375 L 84.84375 95.316406 C 84.84375 95.316406 84.148438 103.5625 86.632812 107.554688 C 89.109375 111.550781 98.214844 111.8125 99.476562 107.898438 C 100.746094 103.996094 99.003906 103.34375 99.003906 103.34375 Z M 99.003906 103.34375 "/>
<path style=" stroke:none;fill-rule:nonzero;fill:rgb(100%,100%,100%);fill-opacity:1;" d="M 89.964844 98.214844 L 87.316406 96.710938 C 87.316406 96.710938 85.738281 113.285156 98.300781 109.476562 C 89.976562 109.089844 89.964844 98.214844 89.964844 98.214844 Z M 89.964844 98.214844 "/>
<path style=" stroke:none;fill-rule:nonzero;fill:rgb(2.352941%,12.54902%,62.352941%);fill-opacity:1;" d="M 99.9375 98.746094 L 110.265625 87.671875 C 110.265625 87.671875 112 100.433594 106.964844 103.816406 C 101.9375 107.207031 99.9375 98.746094 99.9375 98.746094 Z M 99.9375 98.746094 "/>
<path style=" stroke:none;fill-rule:nonzero;fill:rgb(100%,100%,100%);fill-opacity:1;" d="M 105.3125 92.996094 L 107.609375 90.527344 C 107.609375 90.527344 108.792969 100.433594 103.761719 103.820312 C 106.1875 98.871094 105.3125 92.996094 105.3125 92.996094 Z M 105.3125 92.996094 "/>
<path style=" stroke:none;fill-rule:nonzero;fill:rgb(2.352941%,12.54902%,62.352941%);fill-opacity:1;" d="M 99.9375 103.34375 L 114.101562 95.316406 C 114.101562 95.316406 114.792969 103.5625 112.316406 107.554688 C 109.839844 111.550781 100.734375 111.8125 99.472656 107.898438 C 98.207031 103.996094 99.9375 103.34375 99.9375 103.34375 Z M 99.9375 103.34375 "/>
<path style=" stroke:none;fill-rule:nonzero;fill:rgb(100%,100%,100%);fill-opacity:1;" d="M 108.976562 98.214844 L 111.640625 96.710938 C 111.640625 96.710938 113.210938 113.285156 100.644531 109.476562 C 108.964844 109.089844 108.976562 98.214844 108.976562 98.214844 Z M 108.976562 98.214844 "/>
<path style=" stroke:none;fill-rule:nonzero;fill:rgb(100%,80%,0.392157%);fill-opacity:1;" d="M 99.003906 84.984375 L 85.261719 108.679688 L 112.753906 108.679688 Z M 99.003906 84.984375 "/>
<path style=" stroke:none;fill-rule:nonzero;fill:rgb(100%,100%,100%);fill-opacity:1;" d="M 87.1875 107.566406 L 99.003906 87.195312 L 110.820312 107.566406 Z M 87.1875 107.566406 "/>
<path style=" stroke:none;fill-rule:nonzero;fill:rgb(0.392157%,49.411765%,57.647059%);fill-opacity:1;" d="M 90.570312 101.734375 L 87.1875 107.566406 L 110.820312 107.566406 L 107.4375 101.734375 Z M 90.570312 101.734375 "/>
<path style=" stroke:none;fill-rule:nonzero;fill:rgb(100%,80%,0.392157%);fill-opacity:1;" d="M 89.460938 104.617188 C 89.460938 104.617188 93.285156 99.214844 94.753906 99.214844 C 96.234375 99.214844 96.929688 100.910156 96.929688 100.910156 C 96.929688 100.910156 97.503906 100 98.300781 100 C 99.09375 100 99.476562 100.917969 99.476562 100.917969 C 99.476562 100.917969 100.050781 100.023438 100.394531 100.1875 C 100.738281 100.351562 101.878906 101.738281 101.878906 101.738281 C 101.878906 101.738281 102.214844 101.140625 103 100.917969 C 103.785156 100.695312 104.300781 101.738281 104.300781 101.738281 C 104.300781 101.738281 105.066406 100.09375 105.246094 100.917969 C 105.429688 101.738281 108.261719 104.621094 108.261719 104.621094 L 89.460938 104.621094 Z M 89.460938 104.617188 "/>
<path style=" stroke:none;fill-rule:nonzero;fill:rgb(90.196078%,0%,0%);fill-opacity:1;" d="M 100.398438 95.753906 C 100.398438 96.335938 99.929688 96.804688 99.351562 96.804688 C 98.769531 96.804688 98.300781 96.335938 98.300781 95.753906 C 98.300781 95.175781 98.769531 94.707031 99.351562 94.707031 C 99.929688 94.707031 100.398438 95.175781 100.398438 95.753906 Z M 100.398438 95.753906 "/>
<path style=" stroke:none;fill-rule:nonzero;fill:rgb(100%,80%,0.392157%);fill-opacity:1;" d="M 77.789062 90.222656 C 76.371094 93.023438 75.496094 96.105469 75.238281 99.394531 L 78.003906 99.464844 C 78.25 96.578125 79.035156 93.871094 80.289062 91.410156 Z M 104.199219 79.898438 C 107.714844 80.640625 110.859375 82.285156 113.535156 84.488281 L 115.449219 82.484375 C 112.410156 79.945312 108.828125 78.042969 104.8125 77.199219 Z M 117.738281 88.949219 C 120.148438 92.464844 121.570312 96.714844 121.570312 101.304688 C 121.570312 102.140625 121.421875 102.933594 121.328125 103.746094 L 124.050781 104.246094 C 124.171875 103.265625 124.351562 102.3125 124.351562 101.304688 C 124.351562 96.148438 122.761719 91.378906 120.054688 87.421875 Z M 90.128906 120.882812 C 83.550781 117.660156 78.894531 111.265625 78.066406 103.671875 L 75.320312 103.984375 C 76.261719 112.570312 81.539062 119.789062 88.984375 123.417969 Z M 82.707031 87.6875 C 86.714844 82.695312 92.800781 79.429688 99.707031 79.429688 C 99.851562 79.429688 99.984375 79.464844 100.128906 79.472656 L 100.300781 76.710938 C 100.101562 76.707031 99.910156 76.648438 99.707031 76.648438 C 91.855469 76.648438 84.949219 80.382812 80.433594 86.101562 Z M 120.484375 107.804688 C 118.648438 113.667969 114.476562 118.449219 108.996094 121.039062 L 110.121094 123.570312 C 116.304688 120.667969 121.023438 115.289062 123.105469 108.6875 Z M 120.484375 107.804688 "/>
</g>
</svg>
