<?xml version="1.0" encoding="UTF-8"?>
<svg xmlns="http://www.w3.org/2000/svg" xmlns:xlink="http://www.w3.org/1999/xlink" width="200px" height="px" viewBox="0 0 200 200" version="1.1">
<g id="surface1">
<path style=" stroke:none;fill-rule:nonzero;fill:rgb(93.333333%,93.333333%,93.333333%);fill-opacity:1;" d="M 177.777344 27.777344 L 113.890625 27.777344 L 113.890625 86.109375 L 200 86.109375 L 200 50 C 200 37.726562 190.050781 27.777344 177.777344 27.777344 Z M 177.777344 27.777344 "/>
<path style=" stroke:none;fill-rule:nonzero;fill:rgb(90.980392%,6.666667%,17.647059%);fill-opacity:1;" d="M 113.890625 27.777344 L 86.109375 27.777344 L 86.109375 86.109375 L 0 86.109375 L 0 113.890625 L 86.109375 113.890625 L 86.109375 172.222656 L 113.890625 172.222656 L 113.890625 113.890625 L 200 113.890625 L 200 86.109375 L 113.890625 86.109375 Z M 113.890625 27.777344 "/>
<path style=" stroke:none;fill-rule:nonzero;fill:rgb(90.980392%,6.666667%,17.647059%);fill-opacity:1;" d="M 160.640625 53.25 C 160.8125 49.789062 161.214844 46.339844 161.867188 42.917969 C 158.601562 43.320312 155.292969 43.320312 152.035156 42.917969 C 152.683594 46.332031 153.089844 49.789062 153.261719 53.25 C 149.800781 53.078125 146.351562 52.671875 142.929688 52.023438 C 143.332031 55.289062 143.332031 58.59375 142.929688 61.855469 C 146.34375 61.207031 149.800781 60.800781 153.261719 60.628906 C 153.089844 64.089844 152.683594 67.539062 152.035156 70.960938 C 155.300781 70.554688 158.605469 70.554688 161.867188 70.960938 C 161.214844 67.542969 160.8125 64.089844 160.640625 60.628906 C 164.101562 60.800781 167.550781 61.207031 170.972656 61.855469 C 170.566406 58.589844 170.566406 55.285156 170.972656 52.023438 C 167.550781 52.679688 164.101562 53.082031 160.640625 53.25 Z M 160.640625 53.25 "/>
<path style=" stroke:none;fill-rule:nonzero;fill:rgb(93.333333%,93.333333%,93.333333%);fill-opacity:1;" d="M 86.109375 27.777344 L 22.222656 27.777344 C 9.949219 27.777344 0 37.726562 0 50 L 0 86.109375 L 86.109375 86.109375 Z M 86.109375 27.777344 "/>
<path style=" stroke:none;fill-rule:nonzero;fill:rgb(90.980392%,6.666667%,17.647059%);fill-opacity:1;" d="M 46.75 53.25 C 46.921875 49.789062 47.328125 46.339844 47.976562 42.917969 C 44.710938 43.320312 41.40625 43.320312 38.144531 42.917969 C 38.792969 46.332031 39.199219 49.789062 39.371094 53.25 C 35.910156 53.078125 32.460938 52.671875 29.039062 52.023438 C 29.445312 55.289062 29.445312 58.59375 29.039062 61.855469 C 32.457031 61.207031 35.910156 60.800781 39.371094 60.628906 C 39.199219 64.089844 38.792969 67.539062 38.144531 70.960938 C 41.410156 70.554688 44.714844 70.554688 47.976562 70.960938 C 47.328125 67.542969 46.921875 64.089844 46.75 60.628906 C 50.210938 60.800781 53.660156 61.207031 57.082031 61.855469 C 56.679688 58.589844 56.679688 55.285156 57.082031 52.023438 C 53.660156 52.679688 50.210938 53.082031 46.75 53.25 Z M 46.75 53.25 "/>
<path style=" stroke:none;fill-rule:nonzero;fill:rgb(93.333333%,93.333333%,93.333333%);fill-opacity:1;" d="M 200 150 L 200 113.890625 L 113.890625 113.890625 L 113.890625 172.222656 L 177.777344 172.222656 C 190.050781 172.222656 200 162.273438 200 150 Z M 200 150 "/>
<path style=" stroke:none;fill-rule:nonzero;fill:rgb(90.980392%,6.666667%,17.647059%);fill-opacity:1;" d="M 160.640625 146.75 C 160.8125 150.210938 161.214844 153.660156 161.867188 157.082031 C 158.601562 156.679688 155.292969 156.679688 152.035156 157.082031 C 152.683594 153.667969 153.089844 150.210938 153.261719 146.75 C 149.800781 146.921875 146.351562 147.328125 142.929688 147.976562 C 143.332031 144.710938 143.332031 141.40625 142.929688 138.144531 C 146.34375 138.792969 149.800781 139.199219 153.261719 139.371094 C 153.089844 135.910156 152.683594 132.460938 152.035156 129.039062 C 155.300781 129.445312 158.605469 129.445312 161.867188 129.039062 C 161.214844 132.457031 160.8125 135.910156 160.640625 139.371094 C 164.101562 139.199219 167.550781 138.792969 170.972656 138.144531 C 170.566406 141.410156 170.566406 144.714844 170.972656 147.976562 C 167.550781 147.320312 164.101562 146.917969 160.640625 146.75 Z M 160.640625 146.75 "/>
<path style=" stroke:none;fill-rule:nonzero;fill:rgb(93.333333%,93.333333%,93.333333%);fill-opacity:1;" d="M 86.109375 113.890625 L 0 113.890625 L 0 150 C 0 162.273438 9.949219 172.222656 22.222656 172.222656 L 86.109375 172.222656 Z M 86.109375 113.890625 "/>
<path style=" stroke:none;fill-rule:nonzero;fill:rgb(90.980392%,6.666667%,17.647059%);fill-opacity:1;" d="M 46.75 146.75 C 46.921875 150.210938 47.328125 153.660156 47.976562 157.082031 C 44.710938 156.679688 41.40625 156.679688 38.144531 157.082031 C 38.792969 153.667969 39.199219 150.210938 39.371094 146.75 C 35.910156 146.921875 32.460938 147.328125 29.039062 147.976562 C 29.445312 144.710938 29.445312 141.40625 29.039062 138.144531 C 32.457031 138.792969 35.910156 139.199219 39.371094 139.371094 C 39.199219 135.910156 38.792969 132.460938 38.144531 129.039062 C 41.410156 129.445312 44.714844 129.445312 47.976562 129.039062 C 47.328125 132.457031 46.921875 135.910156 46.75 139.371094 C 50.210938 139.199219 53.660156 138.792969 57.082031 138.144531 C 56.679688 141.410156 56.679688 144.714844 57.082031 147.976562 C 53.660156 147.320312 50.210938 146.917969 46.75 146.75 Z M 46.75 146.75 "/>
</g>
</svg>
