<?xml version="1.0" encoding="UTF-8"?>
<svg xmlns="http://www.w3.org/2000/svg" xmlns:xlink="http://www.w3.org/1999/xlink" width="200px" height="200px" viewBox="0 0 200 200" version="1.1">
<g id="surface1">
<path style=" stroke:none;fill-rule:nonzero;fill:rgb(4.705882%,25.098039%,46.27451%);fill-opacity:1;" d="M 0 72.222656 L 200 72.222656 L 200 127.777344 L 0 127.777344 Z M 0 72.222656 "/>
<path style=" stroke:none;fill-rule:nonzero;fill:rgb(93.333333%,93.333333%,93.333333%);fill-opacity:1;" d="M 0 150 C 0 162.273438 9.949219 172.222656 22.222656 172.222656 L 177.777344 172.222656 C 190.050781 172.222656 200 162.273438 200 150 L 200 127.777344 L 0 127.777344 Z M 0 150 "/>
<path style=" stroke:none;fill-rule:nonzero;fill:rgb(77.647059%,21.176471%,23.529412%);fill-opacity:1;" d="M 200 50 C 200 37.726562 190.050781 27.777344 177.777344 27.777344 L 22.222656 27.777344 C 9.949219 27.777344 0 37.726562 0 50 L 0 72.222656 L 200 72.222656 Z M 38.890625 72.222656 L 38.890625 125 C 38.890625 141.871094 52.566406 155.554688 69.445312 155.554688 C 86.320312 155.554688 100 141.871094 100 125 L 100 72.222656 Z M 38.890625 72.222656 "/>
<path style=" stroke:none;fill-rule:nonzero;fill:rgb(92.941176%,72.54902%,18.039216%);fill-opacity:1;" d="M 69.445312 39.234375 C 47.566406 39.234375 40.710938 48.523438 42.535156 51.996094 C 44.355469 55.464844 49.820312 64.40625 49.820312 64.40625 C 49.820312 64.40625 48.089844 65.101562 49.820312 68.570312 C 51.554688 72.042969 58.328125 69.699219 69.4375 69.699219 C 80.550781 69.699219 87.320312 72.042969 89.054688 68.570312 C 90.789062 65.101562 89.054688 64.40625 89.054688 64.40625 C 89.054688 64.40625 94.523438 55.464844 96.351562 51.996094 C 98.179688 48.523438 91.320312 39.234375 69.445312 39.234375 Z M 50.34375 55.726562 C 48.773438 56.214844 50.34375 61.023438 49.789062 58.945312 C 49.332031 57.226562 47.566406 56.511719 47.566406 57.464844 C 47.566406 58.421875 46.871094 57.464844 47.042969 55.734375 C 47.214844 53.996094 46.699219 52.957031 45.65625 51.476562 C 44.617188 50 44.617188 48.699219 45.921875 47.828125 C 47.222656 46.960938 50.089844 46.265625 50.089844 46.265625 C 50.089844 46.265625 51.214844 51.214844 51.820312 52.34375 C 52.429688 53.472656 53.554688 54.210938 53.554688 54.210938 C 53.554688 54.210938 53.035156 55.035156 53.554688 55.464844 C 54.078125 55.898438 54.683594 56.945312 54.683594 56.945312 C 54.683594 56.945312 52.777344 55.382812 52.433594 55.726562 C 52.089844 56.070312 52.867188 56.511719 52.777344 57.117188 C 52.6875 57.726562 51.734375 55.292969 50.34375 55.726562 Z M 68.054688 55.816406 C 67.621094 56.25 67.273438 55.464844 66.40625 54.859375 C 65.539062 54.253906 65.015625 54.605469 65.1875 55.300781 C 65.359375 55.996094 64.144531 55.90625 64.144531 56.949219 C 64.144531 57.996094 63.015625 57.554688 63.015625 57.554688 C 63.015625 57.554688 64.40625 53.910156 62.0625 53.996094 C 60.734375 54.042969 61.195312 56.773438 62.0625 57.726562 C 61.679688 57.144531 60.582031 57.121094 59.671875 56.429688 C 58.761719 55.734375 59.800781 54.601562 59.105469 54.859375 C 58.410156 55.121094 57.976562 56.25 57.285156 56.511719 C 56.589844 56.773438 56.9375 55.722656 57.285156 54.859375 C 57.628906 53.996094 56.882812 53.5625 56.882812 53.5625 C 56.882812 53.5625 56.9375 52.957031 57.460938 52.605469 C 57.984375 52.261719 58.15625 51.648438 57.460938 50.957031 C 56.765625 50.261719 54.253906 46.355469 55.035156 45.050781 C 55.816406 43.75 58.417969 42.273438 65.710938 42.445312 C 67.011719 48.433594 65.015625 51.382812 65.015625 51.382812 C 65.015625 51.382812 66.496094 52.339844 66.929688 52.859375 C 65.882812 53.300781 66.667969 53.734375 67.359375 54.339844 C 68.054688 54.949219 68.488281 55.382812 68.054688 55.816406 Z M 81.601562 54.859375 C 81.945312 55.726562 82.292969 56.773438 81.601562 56.511719 C 80.90625 56.25 80.472656 55.121094 79.777344 54.859375 C 79.082031 54.601562 80.121094 55.734375 79.210938 56.429688 C 78.300781 57.121094 77.210938 57.144531 76.820312 57.726562 C 77.6875 56.773438 78.148438 54.042969 76.820312 53.996094 C 74.476562 53.90625 75.867188 57.554688 75.867188 57.554688 C 75.867188 57.554688 74.738281 57.988281 74.738281 56.949219 C 74.738281 55.910156 73.523438 55.996094 73.695312 55.300781 C 73.867188 54.605469 73.351562 54.253906 72.476562 54.859375 C 71.609375 55.464844 71.261719 56.25 70.828125 55.816406 C 70.394531 55.382812 70.828125 54.949219 71.523438 54.339844 C 72.222656 53.734375 73.003906 53.300781 71.960938 52.867188 C 72.394531 52.34375 73.871094 51.390625 73.871094 51.390625 C 73.871094 51.390625 71.878906 48.4375 73.179688 42.449219 C 80.464844 42.277344 83.070312 43.75 83.855469 45.054688 C 84.640625 46.355469 82.121094 50.265625 81.421875 50.957031 C 80.722656 51.644531 80.898438 52.253906 81.421875 52.605469 C 81.945312 52.949219 82 53.5625 82 53.5625 C 82 53.5625 81.25 53.996094 81.601562 54.859375 Z M 93.226562 51.476562 C 92.183594 52.957031 91.667969 53.996094 91.839844 55.734375 C 92.011719 57.464844 91.316406 58.421875 91.316406 57.464844 C 91.316406 56.511719 89.550781 57.234375 89.09375 58.945312 C 88.539062 61.023438 90.109375 56.222656 88.539062 55.726562 C 87.148438 55.292969 85.328125 59.460938 85.761719 59.027344 C 86.195312 58.59375 86.804688 56.078125 86.457031 55.726562 C 86.109375 55.378906 84.199219 56.945312 84.199219 56.945312 C 84.199219 56.945312 84.804688 55.898438 85.328125 55.464844 C 85.851562 55.035156 85.328125 54.210938 85.328125 54.210938 C 85.328125 54.210938 86.457031 53.472656 87.0625 52.34375 C 87.667969 51.214844 88.792969 46.265625 88.792969 46.265625 C 88.792969 46.265625 91.660156 46.960938 92.960938 47.828125 C 94.261719 48.695312 94.273438 50 93.226562 51.476562 Z M 93.226562 51.476562 "/>
<path style=" stroke:none;fill-rule:nonzero;fill:rgb(100%,67.45098%,20%);fill-opacity:1;" d="M 70.050781 40.234375 C 70.050781 40.785156 69.601562 41.234375 69.050781 41.234375 C 68.5 41.234375 68.050781 40.785156 68.050781 40.234375 L 68.050781 31.464844 C 68.050781 30.917969 68.5 30.464844 69.050781 30.464844 C 69.601562 30.464844 70.050781 30.917969 70.050781 31.464844 Z M 70.050781 40.234375 "/>
<path style=" stroke:none;fill-rule:nonzero;fill:rgb(92.941176%,72.54902%,18.039216%);fill-opacity:1;" d="M 72.050781 33.8125 C 72.050781 34.316406 71.644531 34.722656 71.140625 34.722656 L 66.800781 34.722656 C 66.292969 34.722656 65.890625 34.316406 65.890625 33.8125 C 65.890625 33.304688 66.292969 32.898438 66.800781 32.898438 L 71.140625 32.898438 C 71.644531 32.898438 72.050781 33.304688 72.050781 33.8125 Z M 72.050781 33.8125 "/>
<path style=" stroke:none;fill-rule:nonzero;fill:rgb(4.705882%,25.098039%,46.27451%);fill-opacity:1;" d="M 72.3125 39.234375 C 72.3125 41.078125 70.816406 42.578125 68.964844 42.578125 C 67.121094 42.578125 65.621094 41.078125 65.621094 39.234375 C 65.621094 37.390625 67.117188 35.890625 68.964844 35.890625 C 70.8125 35.894531 72.3125 37.390625 72.3125 39.234375 Z M 53.355469 68.199219 C 53.355469 69.015625 52.417969 69.679688 51.253906 69.679688 C 50.09375 69.679688 49.15625 69.015625 49.15625 68.199219 C 49.15625 67.390625 50.09375 66.726562 51.253906 66.726562 C 52.417969 66.726562 53.355469 67.382812 53.355469 68.199219 Z M 53.355469 68.199219 "/>
<path style=" stroke:none;fill-rule:nonzero;fill:rgb(77.647059%,21.176471%,23.529412%);fill-opacity:1;" d="M 61.804688 67.695312 C 61.804688 68.511719 60.867188 69.171875 59.707031 69.171875 C 58.542969 69.171875 57.605469 68.511719 57.605469 67.695312 C 57.605469 66.882812 58.542969 66.222656 59.707031 66.222656 C 60.859375 66.222656 61.804688 66.882812 61.804688 67.695312 Z M 80.554688 67.695312 C 80.554688 68.511719 79.617188 69.171875 78.457031 69.171875 C 77.292969 69.171875 76.355469 68.511719 76.355469 67.695312 C 76.355469 66.882812 77.292969 66.222656 78.457031 66.222656 C 79.609375 66.222656 80.554688 66.882812 80.554688 67.695312 Z M 80.554688 67.695312 "/>
<path style=" stroke:none;fill-rule:nonzero;fill:rgb(4.705882%,25.098039%,46.27451%);fill-opacity:1;" d="M 89.234375 68.199219 C 89.234375 69.015625 88.292969 69.679688 87.132812 69.679688 C 85.972656 69.679688 85.035156 69.015625 85.035156 68.199219 C 85.035156 67.390625 85.972656 66.726562 87.132812 66.726562 C 88.292969 66.726562 89.234375 67.382812 89.234375 68.199219 Z M 71.15625 67.589844 C 71.15625 68.40625 70.214844 69.066406 69.054688 69.066406 C 67.894531 69.066406 66.957031 68.40625 66.957031 67.589844 C 66.957031 66.773438 67.894531 66.117188 69.054688 66.117188 C 70.214844 66.117188 71.15625 66.773438 71.15625 67.589844 Z M 71.15625 67.589844 "/>
<path style=" stroke:none;fill-rule:nonzero;fill:rgb(92.941176%,72.54902%,18.039216%);fill-opacity:1;" d="M 57.144531 125.34375 C 55.246094 129.65625 55.042969 131.777344 52.792969 131.628906 C 50.539062 131.476562 48.949219 131.09375 48.949219 132.003906 C 48.949219 132.910156 52.535156 132.535156 52.535156 132.535156 C 52.535156 132.535156 49.148438 133.976562 49.816406 135.640625 C 50.476562 137.304688 53.398438 133.523438 53.398438 133.523438 C 53.398438 133.523438 53.996094 133.671875 55.121094 132.761719 C 56.25 131.855469 59.234375 127.464844 59.234375 127.464844 Z M 81.65625 125.34375 C 83.554688 129.65625 83.753906 131.777344 86.003906 131.628906 C 88.261719 131.476562 89.851562 131.09375 89.851562 132.003906 C 89.851562 132.910156 86.273438 132.535156 86.273438 132.535156 C 86.273438 132.535156 89.65625 133.976562 88.988281 135.640625 C 88.328125 137.304688 85.40625 133.523438 85.40625 133.523438 C 85.40625 133.523438 84.8125 133.671875 83.683594 132.761719 C 82.554688 131.855469 79.570312 127.464844 79.570312 127.464844 Z M 81.65625 125.34375 "/>
<path style=" stroke:none;fill-rule:nonzero;fill:rgb(100%,100%,100%);fill-opacity:1;" d="M 95.078125 87.15625 C 94.101562 80.445312 87.785156 82.527344 85.101562 87.15625 C 82.417969 91.785156 80.101562 94.5625 77.617188 91.320312 C 75.132812 88.082031 73.496094 84.609375 77.082031 80.210938 L 80.671875 75.8125 C 80.160156 73.148438 78.011719 73.726562 74.933594 75 C 71.855469 76.273438 69.910156 75.695312 70.214844 77.082031 C 70.527344 78.472656 71.648438 78.589844 71.648438 78.589844 C 71.648438 78.589844 69.710938 80.476562 69.199219 86.996094 C 68.6875 80.476562 66.75 78.589844 66.75 78.589844 C 66.75 78.589844 67.878906 78.472656 68.183594 77.082031 C 68.488281 75.695312 66.542969 76.273438 63.464844 75 C 60.390625 73.726562 58.238281 73.148438 57.726562 75.8125 L 61.316406 80.210938 C 64.90625 84.609375 63.265625 88.082031 60.785156 91.320312 C 58.304688 94.5625 55.984375 92.132812 53.300781 87.5 C 50.617188 82.871094 44.292969 80.789062 43.320312 87.5 C 42.34375 94.210938 43.476562 105.898438 43.476562 105.898438 C 43.476562 105.898438 42.859375 112.265625 44.09375 117.707031 C 45.320312 123.144531 46.042969 128.003906 44.09375 132.171875 C 46.246094 131.59375 47.578125 128.816406 47.578125 128.816406 C 47.578125 128.816406 46.859375 132.171875 48.195312 131.828125 C 49.527344 131.484375 49.832031 128.933594 50.855469 128.003906 C 51.882812 127.082031 52.707031 125 52.707031 125 C 52.707031 125 54.859375 124.1875 52.707031 127.777344 C 54.449219 127.894531 55.578125 126.734375 55.578125 126.734375 L 56.1875 129.976562 L 57.214844 128.246094 L 57.726562 131.367188 L 59.570312 128.355469 L 60.785156 129.746094 C 60.785156 129.746094 61.011719 123.84375 62.648438 125 C 64.289062 126.15625 64.390625 129.976562 63.265625 132.289062 C 62.140625 134.601562 63.265625 135.535156 63.265625 135.535156 C 63.265625 135.535156 61.628906 137.964844 60.789062 139.355469 C 59.949219 140.746094 61.222656 142.359375 61.222656 142.359375 C 61.222656 142.359375 58.042969 147.105469 58.929688 148.960938 C 59.785156 150.738281 65.078125 151.871094 68.949219 151.957031 L 68.984375 151.972656 L 69.199219 151.964844 L 69.417969 151.972656 L 69.449219 151.957031 C 73.320312 151.871094 78.617188 150.738281 79.472656 148.960938 C 80.359375 147.109375 77.179688 142.359375 77.179688 142.359375 C 77.179688 142.359375 78.445312 140.746094 77.609375 139.355469 C 76.773438 137.964844 75.128906 135.535156 75.128906 135.535156 C 75.128906 135.535156 76.253906 134.601562 75.128906 132.289062 C 74.003906 129.976562 74.105469 126.15625 75.746094 125 C 77.382812 123.84375 77.605469 129.746094 77.605469 129.746094 L 78.816406 128.355469 L 80.660156 131.367188 L 81.171875 128.246094 L 82.199219 129.976562 L 82.8125 126.734375 C 82.8125 126.734375 83.9375 127.890625 85.683594 127.777344 C 83.527344 124.1875 85.683594 125 85.683594 125 C 85.683594 125 86.503906 127.082031 87.527344 128.011719 C 88.550781 128.9375 88.859375 131.484375 90.195312 131.832031 C 91.527344 132.179688 90.8125 128.820312 90.8125 128.820312 C 90.8125 128.820312 92.144531 131.601562 94.292969 132.179688 C 92.351562 128.011719 93.066406 123.144531 94.292969 117.710938 C 95.527344 112.273438 94.910156 105.90625 94.910156 105.90625 C 94.910156 105.90625 96.054688 93.867188 95.078125 87.15625 Z M 95.078125 87.15625 "/>
<path style=" stroke:none;fill-rule:nonzero;fill:rgb(92.941176%,72.54902%,18.039216%);fill-opacity:1;" d="M 66.0625 79.511719 C 63.617188 77.167969 57.515625 74.128906 55.496094 74.5625 C 53.472656 75 51.851562 76.390625 53.355469 78.5625 C 54.859375 80.734375 55.496094 80.644531 55.496094 80.644531 C 55.496094 80.644531 57.898438 78.472656 58.945312 79.6875 C 59.988281 80.90625 59.117188 81.339844 57.210938 81.511719 C 55.300781 81.683594 53.359375 80.382812 53.359375 80.382812 C 53.359375 80.382812 53.988281 82.640625 56.640625 82.898438 C 58.421875 84.632812 60.671875 83.332031 61.804688 83.332031 C 62.9375 83.332031 68.226562 81.601562 66.0625 79.511719 Z M 72.34375 79.511719 C 74.789062 77.167969 80.890625 74.128906 82.910156 74.5625 C 84.933594 74.996094 86.554688 76.382812 85.050781 78.554688 C 83.542969 80.726562 82.910156 80.640625 82.910156 80.640625 C 82.910156 80.640625 80.503906 78.464844 79.460938 79.683594 C 78.417969 80.898438 79.289062 81.332031 81.195312 81.503906 C 83.105469 81.679688 85.042969 80.378906 85.042969 80.378906 C 85.042969 80.378906 84.417969 82.632812 81.765625 82.894531 C 79.984375 84.632812 77.734375 83.332031 76.601562 83.332031 C 75.464844 83.332031 70.171875 81.601562 72.34375 79.511719 Z M 55.382812 139.996094 C 56.144531 138.238281 55.609375 137.988281 55 137.378906 C 54.382812 136.773438 54.078125 135.921875 54.078125 135.921875 C 54.078125 135.921875 53.773438 136.765625 53.15625 137.378906 C 52.539062 137.984375 52.003906 138.234375 52.765625 139.996094 C 50.917969 138.898438 50.609375 140.90625 51.460938 142.121094 C 51.699219 141.027344 53.15625 141.277344 53.15625 142.609375 C 53.15625 143.945312 51.949219 143.339844 52.09375 143.882812 C 52.246094 144.433594 53.34375 145.582031 54.070312 145.582031 C 54.800781 145.582031 55.90625 144.433594 56.050781 143.882812 C 56.199219 143.332031 54.996094 143.945312 54.996094 142.609375 C 54.996094 141.277344 56.445312 141.027344 56.6875 142.121094 C 57.542969 140.90625 57.238281 138.898438 55.382812 139.996094 Z M 85.59375 139.996094 C 86.355469 138.238281 85.820312 137.988281 85.207031 137.378906 C 84.589844 136.773438 84.285156 135.921875 84.285156 135.921875 C 84.285156 135.921875 83.976562 136.765625 83.359375 137.378906 C 82.746094 137.984375 82.210938 138.234375 82.972656 139.996094 C 81.121094 138.898438 80.816406 140.90625 81.667969 142.121094 C 81.90625 141.027344 83.359375 141.277344 83.359375 142.609375 C 83.359375 143.945312 82.15625 143.339844 82.304688 143.882812 C 82.449219 144.433594 83.554688 145.582031 84.285156 145.582031 C 85.011719 145.582031 86.117188 144.433594 86.261719 143.882812 C 86.410156 143.332031 85.207031 143.945312 85.207031 142.609375 C 85.207031 141.277344 86.65625 141.027344 86.898438 142.121094 C 87.75 140.90625 87.449219 138.898438 85.59375 139.996094 Z M 85.59375 139.996094 "/>
<path style=" stroke:none;fill-rule:nonzero;fill:rgb(77.647059%,21.176471%,23.529412%);fill-opacity:1;" d="M 56.910156 93.75 L 56.910156 115.1875 C 56.910156 122.039062 62.464844 127.601562 69.320312 127.601562 C 76.179688 127.601562 81.734375 122.039062 81.734375 115.1875 L 81.734375 93.75 Z M 56.910156 93.75 "/>
<path style=" stroke:none;fill-rule:nonzero;fill:rgb(93.333333%,93.333333%,93.333333%);fill-opacity:1;" d="M 81.734375 106.511719 L 72 106.511719 L 72 93.75 L 66.65625 93.75 L 66.65625 106.511719 L 56.917969 106.511719 L 56.917969 111.859375 L 66.65625 111.859375 L 66.65625 127.300781 C 67.515625 127.488281 68.40625 127.605469 69.328125 127.605469 C 70.25 127.605469 71.140625 127.488281 72.003906 127.300781 L 72.003906 111.859375 L 81.746094 111.859375 L 81.746094 106.511719 Z M 81.734375 106.511719 "/>
</g>
</svg>
