<?xml version="1.0" encoding="UTF-8"?>
<svg xmlns="http://www.w3.org/2000/svg" xmlns:xlink="http://www.w3.org/1999/xlink" width="200px" height="px" viewBox="0 0 200 200" version="1.1">
<g id="surface1">
<path style=" stroke:none;fill-rule:nonzero;fill:rgb(77.647059%,4.705882%,18.823529%);fill-opacity:1;" d="M 177.777344 27.777344 L 83.332031 27.777344 L 83.332031 88.890625 L 200 88.890625 L 200 50 C 200 37.726562 190.050781 27.777344 177.777344 27.777344 Z M 83.332031 172.222656 L 177.777344 172.222656 C 190.050781 172.222656 200 162.273438 200 147.222656 L 200 111.109375 L 83.332031 111.109375 Z M 0 111.109375 L 0 147.222656 C 0 162.273438 9.949219 172.222656 22.222656 172.222656 L 61.109375 172.222656 L 61.109375 111.109375 Z M 61.109375 27.777344 L 22.222656 27.777344 C 9.949219 27.777344 0 37.726562 0 50 L 0 88.890625 L 61.109375 88.890625 Z M 61.109375 27.777344 "/>
<path style=" stroke:none;fill-rule:nonzero;fill:rgb(93.333333%,93.333333%,93.333333%);fill-opacity:1;" d="M 83.332031 27.777344 L 61.109375 27.777344 L 61.109375 88.890625 L 0 88.890625 L 0 111.109375 L 61.109375 111.109375 L 61.109375 172.222656 L 83.332031 172.222656 L 83.332031 111.109375 L 200 111.109375 L 200 88.890625 L 83.332031 88.890625 Z M 83.332031 27.777344 "/>
</g>
</svg>
