<?xml version="1.0" encoding="UTF-8"?>
<svg xmlns="http://www.w3.org/2000/svg" xmlns:xlink="http://www.w3.org/1999/xlink" width="200px" height="px" viewBox="0 0 200 200" version="1.1">
<g id="surface1">
<path style=" stroke:none;fill-rule:nonzero;fill:rgb(80%,12.941176%,17.647059%);fill-opacity:1;" d="M 177.777344 27.777344 L 22.222656 27.777344 C 9.949219 27.777344 0 37.726562 0 50 L 0 77.777344 L 200 77.777344 L 200 50 C 200 37.726562 190.050781 27.777344 177.777344 27.777344 Z M 177.777344 27.777344 "/>
<path style=" stroke:none;fill-rule:nonzero;fill:rgb(98.431373%,81.960784%,8.627451%);fill-opacity:1;" d="M 85.683594 122.222656 L 114.488281 122.222656 L 100.089844 111.753906 Z M 105.609375 94.773438 L 123.472656 94.773438 L 109.023438 105.265625 L 114.527344 122.222656 L 200 122.222656 L 200 77.777344 L 100.089844 77.777344 Z M 91.15625 105.265625 L 76.707031 94.773438 L 94.566406 94.773438 L 100.089844 77.777344 L 0 77.777344 L 0 122.222656 L 85.644531 122.222656 Z M 91.15625 105.265625 "/>
<path style=" stroke:none;fill-rule:nonzero;fill:rgb(15.686275%,52.156863%,25.490196%);fill-opacity:1;" d="M 114.539062 122.253906 L 114.488281 122.222656 L 85.679688 122.222656 L 85.628906 122.253906 L 85.644531 122.222656 L 0 122.222656 L 0 150 C 0 162.273438 9.949219 172.222656 22.222656 172.222656 L 177.777344 172.222656 C 190.050781 172.222656 200 162.273438 200 150 L 200 122.222656 L 114.527344 122.222656 Z M 114.539062 122.253906 "/>
<path style=" stroke:none;fill-rule:nonzero;fill:rgb(0%,0%,0%);fill-opacity:1;" d="M 76.707031 94.773438 L 91.15625 105.265625 L 85.644531 122.222656 L 85.632812 122.253906 L 85.683594 122.222656 L 100.089844 111.753906 L 114.488281 122.222656 L 114.539062 122.253906 L 114.527344 122.222656 L 109.023438 105.265625 L 123.472656 94.773438 L 105.609375 94.773438 L 100.089844 77.777344 L 94.566406 94.773438 Z M 76.707031 94.773438 "/>
</g>
</svg>
