<?xml version="1.0" encoding="UTF-8"?>
<svg xmlns="http://www.w3.org/2000/svg" xmlns:xlink="http://www.w3.org/1999/xlink" width="200px" height="px" viewBox="0 0 200 200" version="1.1">
<g id="surface1">
<path style=" stroke:none;fill-rule:nonzero;fill:rgb(0%,41.960784%,24.705882%);fill-opacity:1;" d="M 200 150 C 200 162.273438 190.050781 172.222656 177.777344 172.222656 L 22.222656 172.222656 C 9.949219 172.222656 0 162.273438 0 150 L 0 50 C 0 37.726562 9.949219 27.777344 22.222656 27.777344 L 177.777344 27.777344 C 190.050781 27.777344 200 37.726562 200 50 Z M 200 150 "/>
<path style=" stroke:none;fill-rule:nonzero;fill:rgb(93.333333%,93.333333%,93.333333%);fill-opacity:1;" d="M 200 83.332031 L 116.667969 83.332031 L 116.667969 27.777344 L 83.332031 27.777344 L 83.332031 83.332031 L 0 83.332031 L 0 116.667969 L 83.332031 116.667969 L 83.332031 172.222656 L 116.667969 172.222656 L 116.667969 116.667969 L 200 116.667969 Z M 200 83.332031 "/>
<path style=" stroke:none;fill-rule:nonzero;fill:rgb(98.823529%,81.960784%,8.627451%);fill-opacity:1;" d="M 83.332031 27.777344 L 94.445312 27.777344 L 94.445312 172.222656 L 83.332031 172.222656 Z M 83.332031 27.777344 "/>
<path style=" stroke:none;fill-rule:nonzero;fill:rgb(98.823529%,81.960784%,8.627451%);fill-opacity:1;" d="M 0 83.332031 L 200 83.332031 L 200 94.445312 L 0 94.445312 Z M 0 83.332031 "/>
<path style=" stroke:none;fill-rule:nonzero;fill:rgb(7.843137%,7.843137%,7.843137%);fill-opacity:1;" d="M 94.445312 27.777344 L 105.554688 27.777344 L 105.554688 172.222656 L 94.445312 172.222656 Z M 94.445312 27.777344 "/>
<path style=" stroke:none;fill-rule:nonzero;fill:rgb(7.843137%,7.843137%,7.843137%);fill-opacity:1;" d="M 0 94.445312 L 200 94.445312 L 200 105.554688 L 0 105.554688 Z M 0 94.445312 "/>
<path style=" stroke:none;fill-rule:nonzero;fill:rgb(86.666667%,18.039216%,26.666667%);fill-opacity:1;" d="M 133.332031 100 C 133.332031 118.410156 118.410156 133.332031 100 133.332031 C 81.589844 133.332031 66.667969 118.410156 66.667969 100 C 66.667969 81.589844 81.589844 66.667969 100 66.667969 C 118.410156 66.667969 133.332031 81.589844 133.332031 100 Z M 133.332031 100 "/>
<path style=" stroke:none;fill-rule:nonzero;fill:rgb(0%,37.647059%,0%);fill-opacity:1;" d="M 100 70.222656 L 99.0625 73.132812 L 95.976562 73.132812 L 98.484375 74.9375 L 97.523438 77.851562 L 100 76.042969 L 102.472656 77.851562 L 101.523438 74.917969 L 104.015625 73.140625 L 100.949219 73.140625 Z M 82.890625 75.777344 L 83.839844 78.683594 L 81.351562 80.496094 L 84.433594 80.488281 L 85.367188 83.40625 L 86.304688 80.488281 L 89.371094 80.496094 L 86.882812 78.683594 L 87.855469 75.785156 L 85.371094 77.582031 Z M 72.3125 90.339844 L 74.789062 92.128906 L 73.839844 95.054688 L 76.332031 93.238281 L 78.804688 95.050781 L 77.851562 92.132812 L 80.332031 90.339844 L 77.25 90.332031 L 76.328125 87.417969 L 75.382812 90.339844 Z M 72.3125 108.332031 L 75.367188 108.320312 L 76.316406 111.25 L 77.265625 108.3125 L 80.332031 108.320312 L 77.851562 106.535156 L 78.804688 103.617188 L 76.304688 105.421875 L 73.851562 103.605469 L 74.800781 106.523438 Z M 82.890625 122.882812 L 85.355469 121.082031 L 87.84375 122.894531 L 86.890625 119.957031 L 89.378906 118.167969 L 86.3125 118.171875 L 85.367188 115.253906 L 84.410156 118.183594 L 81.355469 118.167969 L 83.839844 119.964844 Z M 100 128.4375 L 100.9375 125.535156 L 104.015625 125.535156 L 101.511719 123.722656 L 102.472656 120.8125 L 100 122.621094 L 97.527344 120.8125 L 98.472656 123.738281 L 95.984375 125.523438 L 99.050781 125.523438 Z M 117.109375 122.882812 L 116.15625 119.976562 L 118.644531 118.167969 L 115.5625 118.171875 L 114.628906 115.253906 L 113.6875 118.171875 L 110.621094 118.167969 L 113.109375 119.976562 L 112.140625 122.882812 L 114.628906 121.070312 Z M 127.683594 108.320312 L 125.207031 106.535156 L 126.15625 103.605469 L 123.660156 105.421875 L 121.195312 103.609375 L 122.144531 106.523438 L 119.667969 108.320312 L 122.746094 108.320312 L 123.667969 111.238281 L 124.617188 108.320312 Z M 127.679688 90.332031 L 124.628906 90.339844 L 123.679688 87.410156 L 122.726562 90.351562 L 119.660156 90.332031 L 122.144531 92.128906 L 121.195312 95.042969 L 123.6875 93.238281 L 126.144531 95.054688 L 125.195312 92.132812 Z M 117.105469 75.777344 L 114.640625 77.578125 L 112.148438 75.773438 L 113.101562 78.707031 L 110.617188 80.496094 L 113.683594 80.488281 L 114.628906 83.40625 L 115.582031 80.472656 L 118.632812 80.5 L 116.15625 78.699219 Z M 117.105469 75.777344 "/>
<path style=" stroke:none;fill-rule:nonzero;fill:rgb(0%,41.176471%,24.705882%);fill-opacity:1;" d="M 108.855469 115.65625 C 108.753906 114.894531 108.515625 112.035156 108.472656 109.753906 C 108.445312 108.222656 105.660156 106.167969 103.820312 106.183594 C 102.566406 103.617188 98.894531 100.515625 96.429688 102.984375 C 96.1875 104.699219 96.617188 108.039062 97.429688 109.316406 L 101.195312 110.171875 C 101.570312 109.933594 102 109.371094 102.144531 108.894531 C 102.25 108.859375 102.316406 108.761719 102.417969 108.714844 C 103.117188 111.421875 104.511719 115.644531 104.90625 116.65625 C 105.332031 117.75 105.957031 119.988281 107.339844 120.378906 C 107.957031 120.707031 108.816406 120.464844 108.433594 117.609375 C 108.855469 117.511719 108.945312 116.417969 108.855469 115.65625 Z M 108.855469 115.65625 "/>
<path style=" stroke:none;fill-rule:nonzero;fill:rgb(49.019608%,46.27451%,71.372549%);fill-opacity:1;" d="M 104.777344 87.554688 C 104.851562 88.121094 105.207031 88.699219 105.632812 89.054688 C 105.351562 89.265625 105.207031 89.554688 105.132812 89.765625 C 103.5625 91.121094 99.917969 100.550781 99.851562 102.621094 C 99.601562 103.726562 99.09375 105.484375 98.667969 106.234375 C 96.238281 104.054688 93.738281 99.984375 94.15625 98.148438 C 94.011719 98.128906 93.800781 98.105469 93.5625 98.035156 C 93.609375 97.867188 93.699219 97.035156 93.726562 96.535156 C 93.582031 96.535156 93.320312 96.535156 93.105469 96.460938 C 93.15625 96.148438 93.25 95.246094 93.25 94.839844 C 93.011719 94.765625 92.722656 94.527344 92.511719 94.289062 C 92.671875 93.859375 93.105469 93.027344 93.320312 92.527344 C 92.964844 92.484375 92.707031 92.121094 92.582031 91.910156 C 92.894531 91.722656 93.300781 91.171875 93.460938 90.839844 C 93.199219 90.621094 92.894531 90.316406 92.84375 90.171875 C 93.179688 89.859375 94.15625 88.792969 94.582031 88.199219 C 94.316406 88.199219 94.226562 88.179688 94.003906 88.128906 C 94.359375 87.988281 94.773438 87.460938 95.25 87.011719 C 96.066406 87.722656 97.628906 87.59375 98.378906 87.167969 C 99.734375 87.949219 101.199219 88.0625 103.09375 87.449219 C 103.460938 87.554688 104.421875 87.699219 104.777344 87.554688 Z M 104.777344 87.554688 "/>
<path style=" stroke:none;fill-rule:nonzero;fill:rgb(0%,41.176471%,24.705882%);fill-opacity:1;" d="M 110.210938 113.488281 C 110.496094 103.417969 108.777344 94.199219 106.140625 90.84375 C 103.496094 87.484375 98.644531 88.234375 97.285156 91.128906 C 96.707031 92.34375 96.628906 95.246094 97.207031 96.488281 C 98.210938 98.632812 102.066406 105.417969 104.710938 107.988281 C 107.351562 110.554688 109.207031 112.273438 110.210938 113.488281 Z M 110.210938 113.488281 "/>
<path style=" stroke:none;fill-rule:nonzero;fill:rgb(100%,83.137255%,12.54902%);fill-opacity:1;" d="M 106.234375 111.089844 C 105.472656 111.179688 104.566406 110.988281 103.851562 110.65625 C 103.132812 110.316406 102.515625 109.996094 101.753906 109.996094 C 100.988281 109.996094 96.851562 109.699219 96.183594 109.460938 C 95.515625 109.222656 93.65625 108.894531 92.894531 108.9375 C 92.132812 108.984375 90.9375 109.515625 90.460938 109.515625 C 89.984375 109.515625 89.75 109.894531 89.75 110.277344 C 89.75 110.65625 89.84375 111.371094 90.410156 111.753906 C 91.417969 111.710938 92.84375 111.617188 93.035156 111.421875 C 94.417969 111.800781 96.273438 112.195312 97.417969 112.234375 C 98.5625 112.277344 100.605469 112.371094 101.371094 112.332031 C 102.132812 112.277344 102.273438 112.039062 103.277344 112.378906 C 104.277344 112.710938 105.609375 113.429688 106.226562 113.617188 C 106.84375 113.8125 107.226562 113.195312 107.367188 112.523438 C 107.523438 111.851562 107.042969 111.035156 106.234375 111.089844 Z M 106.234375 111.089844 "/>
<path style=" stroke:none;fill-rule:nonzero;fill:rgb(100%,100%,100%);fill-opacity:1;" d="M 95.996094 83.34375 C 95.964844 83.34375 95.933594 83.378906 95.90625 83.378906 C 95.6875 82.417969 94.6875 81.738281 94.128906 81.765625 C 92.382812 82.226562 92.484375 85.449219 94.054688 86.554688 C 94.011719 85.976562 94.210938 85.511719 94.488281 85.105469 C 94.617188 85.496094 94.917969 85.859375 95.699219 85.957031 C 96.527344 85.660156 96.246094 83.839844 95.996094 83.34375 Z M 95.996094 83.34375 "/>
<path style=" stroke:none;fill-rule:nonzero;fill:rgb(49.019608%,46.27451%,71.372549%);fill-opacity:1;" d="M 95.253906 87.011719 C 96.070312 87.722656 97.632812 87.59375 98.382812 87.167969 C 99.738281 87.949219 101.207031 88.0625 103.101562 87.449219 C 103.457031 87.5625 104.417969 87.699219 104.777344 87.5625 C 104.996094 87.34375 105.207031 87.207031 105.421875 87.0625 C 104.996094 86.707031 104.566406 86.0625 104.351562 85.421875 C 104.351562 85.421875 104.710938 84.988281 104.851562 84.777344 C 104.5 84.421875 103.785156 83.851562 103.421875 83.632812 C 103.640625 83.421875 103.851562 82.777344 103.851562 82.777344 C 103.132812 82.566406 102.421875 82.066406 102.132812 81.777344 L 102.207031 81.351562 C 101.039062 81.277344 101.089844 79.851562 98.566406 79.421875 C 96.851562 79.132812 94.277344 79.851562 94.132812 81.777344 C 95.089844 82.707031 96.542969 83.945312 95.707031 85.964844 C 95.488281 86.253906 95.089844 86.632812 94.851562 86.753906 C 94.996094 86.910156 95.089844 86.933594 95.253906 87.011719 Z M 95.253906 87.011719 "/>
<path style=" stroke:none;fill-rule:nonzero;fill:rgb(100%,100%,100%);fill-opacity:1;" d="M 101.898438 112.328125 C 101.421875 112.273438 100.949219 111.75 100.949219 111.328125 C 100.949219 110.894531 100.996094 110.035156 101.804688 109.9375 C 101.539062 109.484375 101.160156 109.359375 100.792969 109.417969 C 100.449219 109 99.898438 108.910156 99.371094 109.027344 C 99.390625 109.003906 99.398438 108.957031 99.421875 108.9375 C 98.976562 108.578125 98.464844 108.65625 98.023438 108.878906 C 97.199219 108.394531 95.949219 109 95.753906 110.511719 C 95.566406 111.988281 96.328125 113.039062 97.421875 112.984375 L 97.421875 112.964844 C 97.917969 113.210938 98.621094 112.988281 98.804688 112.699219 L 98.800781 112.59375 C 99.253906 112.894531 99.710938 112.898438 100.117188 112.609375 C 100.261719 112.746094 100.398438 112.890625 100.617188 112.9375 C 101.238281 113.089844 101.710938 112.566406 101.898438 112.328125 Z M 101.898438 112.328125 "/>
<path style=" stroke:none;fill-rule:nonzero;fill:rgb(100%,83.137255%,12.54902%);fill-opacity:1;" d="M 97.566406 81.054688 C 96.285156 81.054688 96.316406 82.984375 97.566406 82.984375 C 98.816406 82.984375 98.851562 81.054688 97.566406 81.054688 Z M 97.566406 81.054688 "/>
<path style=" stroke:none;fill-rule:nonzero;fill:rgb(0%,0%,0%);fill-opacity:1;" d="M 97.566406 81.777344 C 97.246094 81.777344 97.253906 82.253906 97.566406 82.253906 C 97.878906 82.261719 97.890625 81.777344 97.566406 81.777344 Z M 97.566406 81.777344 "/>
</g>
</svg>
