<?xml version="1.0" encoding="UTF-8"?>
<svg xmlns="http://www.w3.org/2000/svg" xmlns:xlink="http://www.w3.org/1999/xlink" width="200px" height="px" viewBox="0 0 200 200" version="1.1">
<g id="surface1">
<path style=" stroke:none;fill-rule:nonzero;fill:rgb(28.627451%,59.215686%,81.568627%);fill-opacity:1;" d="M 177.777344 27.777344 L 133.332031 27.777344 L 133.332031 172.222656 L 177.777344 172.222656 C 190.050781 172.222656 200 162.273438 200 150 L 200 50 C 200 37.726562 190.050781 27.777344 177.777344 27.777344 Z M 22.222656 27.777344 C 9.949219 27.777344 0 37.726562 0 50 L 0 150 C 0 162.273438 9.949219 172.222656 22.222656 172.222656 L 66.667969 172.222656 L 66.667969 27.777344 Z M 22.222656 27.777344 "/>
<path style=" stroke:none;fill-rule:nonzero;fill:rgb(93.333333%,93.333333%,93.333333%);fill-opacity:1;" d="M 66.667969 27.777344 L 133.332031 27.777344 L 133.332031 172.222656 L 66.667969 172.222656 Z M 66.667969 27.777344 "/>
<path style=" stroke:none;fill-rule:nonzero;fill:rgb(26.27451%,49.411765%,14.117647%);fill-opacity:1;" d="M 125.878906 104.089844 C 126.503906 102.746094 126.417969 101.890625 125.6875 102.648438 C 125.050781 103.316406 124.117188 103.550781 122.957031 104.371094 L 123.050781 104.042969 C 124.066406 102.121094 126.265625 103.050781 127.566406 99.984375 C 127.792969 99.417969 128.957031 98.8125 127.371094 98.90625 C 126.238281 98.972656 124.8125 99.644531 123.777344 101.089844 C 124.566406 98.945312 126.464844 100.039062 127.246094 94.871094 C 127.382812 93.921875 127.496094 91.984375 126.867188 93.570312 C 126.609375 94.207031 126 94.839844 125.355469 95.59375 C 125.566406 94.527344 125.496094 93.601562 125.273438 92.894531 C 125.671875 92.277344 126.035156 91.644531 126.132812 90.910156 C 126.304688 89.648438 126.003906 88.535156 125.527344 89.859375 C 125.359375 90.339844 125.042969 90.648438 124.710938 90.972656 C 124.589844 90.527344 124.472656 90.371094 124.128906 90.972656 C 123.765625 91.59375 123.570312 92.390625 123.460938 93.273438 L 123.449219 93.328125 C 123.367188 92.859375 123.253906 92.398438 123.148438 91.945312 C 123.40625 90.210938 126.078125 90.261719 125.148438 84.660156 C 124.933594 83.304688 124.832031 82.910156 124.355469 84.59375 C 123.910156 86.15625 122.535156 86.285156 122.464844 89.40625 L 122.351562 89.042969 C 122.042969 86.050781 124.09375 83.542969 122.542969 80.976562 C 121.722656 79.609375 121.285156 79.488281 121.371094 80.601562 C 121.476562 81.894531 120.699219 83.265625 120.84375 85.148438 L 120.789062 85.027344 C 120.460938 82.710938 121.292969 82.011719 120.355469 80.503906 C 119.867188 79.738281 119.140625 78.726562 119.328125 79.996094 C 119.367188 80.25 119.390625 80.550781 119.417969 80.859375 C 119.117188 79.550781 117.984375 78.746094 116.550781 78.285156 C 115.195312 77.84375 115.605469 78.488281 116.105469 79.011719 C 116.816406 79.773438 116.632812 80.707031 117.515625 81.855469 C 116.5625 81.394531 115.734375 81.351562 115.183594 80.660156 C 114.101562 79.320312 114.660156 81.035156 114.921875 81.804688 C 115.449219 83.316406 116.332031 84.128906 117.355469 84.644531 C 117.253906 84.753906 117.300781 85.144531 117.589844 85.957031 C 117.945312 86.957031 118.382812 87.699219 118.855469 88.300781 C 118.5 88.078125 118.179688 87.832031 117.9375 87.476562 C 116.800781 85.792969 116.355469 85.605469 116.570312 87.609375 C 116.765625 89.351562 117.503906 90.277344 118.398438 90.890625 C 118.410156 91.238281 118.539062 91.726562 118.894531 92.238281 C 119.527344 93.15625 120.195312 93.539062 120.8125 93.773438 C 121.117188 94.484375 121.285156 95.144531 121.445312 95.828125 C 121.40625 95.800781 121.378906 95.75 121.332031 95.722656 C 119.628906 94.515625 120.054688 95.210938 120.195312 96.261719 C 120.832031 101.210938 123.179688 99.511719 122.699219 102.707031 C 122.632812 103 122.566406 103.285156 122.488281 103.566406 C 122.570312 101.726562 121.722656 100.6875 121.023438 99.878906 C 120.054688 98.761719 119.722656 99.082031 120.199219 101.148438 C 120.3125 101.632812 120.421875 102.234375 120.515625 102.867188 L 120.496094 102.800781 C 119.527344 100.851562 119.246094 101.410156 119.332031 102.894531 C 119.445312 104.320312 118.238281 104.890625 119.015625 107.628906 C 119.25 108.429688 119.367188 109.964844 118.589844 111.144531 L 118.457031 111.320312 C 120.167969 108.160156 118.101562 107.214844 118.289062 106.261719 C 118.515625 105.179688 118.234375 104.988281 117.628906 106.328125 C 116.933594 107.871094 117.078125 108.960938 117.289062 109.882812 C 117.160156 109.957031 117.066406 109.996094 116.898438 110.105469 C 116.351562 110.476562 115.90625 110.839844 115.535156 111.183594 C 115.582031 110.882812 115.667969 110.59375 115.695312 110.292969 C 115.832031 108.878906 115.445312 108.183594 114.839844 109.714844 C 114.078125 111.601562 112.710938 111.5625 111.84375 114.390625 C 111.160156 116.671875 110.65625 117.132812 109.59375 117.582031 L 109.4375 117.648438 C 111.042969 116.40625 111.929688 114.734375 112.167969 112.789062 C 112.417969 110.632812 111.882812 110.945312 111.15625 112.246094 C 110.460938 113.496094 109.140625 113.3125 108.300781 116.039062 C 108.039062 116.882812 107.421875 118.179688 105.800781 118.765625 C 107.996094 117.207031 108.957031 114.628906 108.699219 113.082031 C 108.582031 112.316406 108.222656 111.84375 107.878906 113.109375 C 107.464844 114.667969 106.328125 114.289062 105.40625 117.238281 C 104.933594 118.738281 104.523438 119.042969 102.554688 119.933594 L 102.84375 119.878906 C 101.695312 120.34375 100.695312 120.828125 99.859375 121.320312 C 99.078125 120.851562 98.105469 120.390625 96.988281 119.9375 L 97.148438 119.964844 C 95.207031 119.082031 94.792969 118.785156 94.328125 117.300781 C 93.429688 114.382812 92.289062 114.761719 91.882812 113.226562 C 91.550781 111.964844 91.195312 112.433594 91.070312 113.1875 C 90.816406 114.710938 91.765625 117.25 93.910156 118.792969 C 92.328125 118.207031 91.722656 116.9375 91.460938 116.109375 C 90.640625 113.417969 89.332031 113.601562 88.644531 112.367188 C 87.929688 111.078125 87.394531 110.773438 87.648438 112.898438 C 87.878906 114.816406 88.75 116.472656 90.332031 117.699219 L 90 117.5625 C 89.082031 117.128906 88.605469 116.601562 87.960938 114.484375 C 87.117188 111.683594 85.761719 111.726562 85.003906 109.871094 C 84.394531 108.359375 84.023438 109.039062 84.167969 110.4375 C 84.195312 110.738281 84.273438 111.027344 84.328125 111.320312 C 83.960938 110.976562 83.523438 110.621094 82.976562 110.253906 C 82.8125 110.144531 82.714844 110.105469 82.589844 110.035156 C 82.792969 109.121094 82.9375 108.039062 82.25 106.511719 C 81.648438 105.199219 81.371094 105.382812 81.589844 106.445312 C 81.785156 107.40625 79.726562 108.332031 81.457031 111.488281 L 81.328125 111.320312 C 80.515625 110.148438 80.644531 108.605469 80.867188 107.792969 C 81.640625 105.09375 80.457031 104.535156 80.554688 103.121094 C 80.65625 101.648438 80.367188 101.101562 79.417969 103.027344 L 79.390625 103.105469 C 79.484375 102.472656 79.59375 101.878906 79.707031 101.398438 C 80.179688 99.355469 79.832031 99.039062 78.894531 100.144531 C 78.199219 100.949219 77.355469 101.976562 77.4375 103.792969 C 77.359375 103.511719 77.292969 103.222656 77.226562 102.929688 C 76.761719 99.785156 79.070312 101.449219 79.710938 96.5625 C 79.84375 95.523438 80.273438 94.832031 78.578125 96.027344 C 78.535156 96.054688 78.503906 96.105469 78.464844 96.132812 C 78.628906 95.457031 78.792969 94.800781 79.105469 94.09375 C 79.714844 93.859375 80.371094 93.484375 81 92.578125 C 81.351562 92.066406 81.476562 91.589844 81.484375 91.238281 C 82.359375 90.632812 83.089844 89.710938 83.277344 87.996094 C 83.5 86.023438 83.0625 86.207031 81.9375 87.867188 C 81.699219 88.214844 81.382812 88.460938 81.035156 88.679688 C 81.496094 88.082031 81.933594 87.355469 82.285156 86.367188 C 82.5625 85.566406 82.605469 85.179688 82.503906 85.066406 C 83.523438 84.550781 84.398438 83.75 84.910156 82.253906 C 85.171875 81.488281 85.722656 79.804688 84.65625 81.121094 C 84.105469 81.804688 83.292969 81.851562 82.351562 82.304688 C 83.226562 81.171875 83.042969 80.246094 83.746094 79.488281 C 84.234375 78.964844 84.648438 78.332031 83.3125 78.765625 C 81.882812 79.222656 80.765625 80.023438 80.464844 81.316406 C 80.496094 81.011719 80.515625 80.710938 80.554688 80.460938 C 80.746094 79.207031 80.015625 80.210938 79.550781 80.960938 C 78.617188 82.449219 79.429688 83.144531 79.121094 85.421875 L 79.0625 85.5625 C 79.207031 83.695312 78.433594 82.339844 78.535156 81.054688 C 78.621094 79.960938 78.195312 80.082031 77.382812 81.433594 C 75.855469 83.960938 77.867188 86.433594 77.582031 89.382812 L 77.472656 89.734375 C 77.390625 86.671875 76.027344 86.550781 75.601562 85.003906 C 75.121094 83.339844 75.035156 83.734375 74.8125 85.070312 C 73.898438 90.605469 76.542969 90.554688 76.789062 92.273438 C 76.683594 92.726562 76.578125 93.183594 76.496094 93.644531 L 76.476562 93.566406 C 76.4375 93.265625 76.355469 93.015625 76.289062 92.75 L 76.265625 92.6875 C 76.144531 92.207031 76.035156 91.707031 75.816406 91.320312 C 75.476562 90.726562 75.367188 90.882812 75.246094 91.320312 C 74.917969 91.003906 74.605469 90.699219 74.4375 90.222656 C 73.972656 88.90625 73.667969 90.011719 73.839844 91.261719 C 73.9375 91.984375 74.292969 92.609375 74.6875 93.222656 C 74.472656 93.921875 74.398438 94.84375 74.609375 95.898438 C 73.972656 95.148438 73.371094 94.523438 73.121094 93.894531 C 72.496094 92.328125 72.605469 94.238281 72.746094 95.183594 C 73.511719 100.304688 75.394531 99.207031 76.171875 101.339844 C 75.148438 99.898438 73.746094 99.234375 72.617188 99.167969 C 71.050781 99.070312 72.195312 99.679688 72.429688 100.234375 C 73.710938 103.273438 75.878906 102.355469 76.882812 104.25 L 76.976562 104.578125 C 75.828125 103.761719 74.917969 103.527344 74.285156 102.867188 C 73.5625 102.117188 73.476562 102.964844 74.101562 104.292969 C 73.421875 104.371094 72.699219 104.429688 72.246094 104.277344 C 71.679688 104.089844 71.679688 104.9375 73.25 105.601562 C 73.964844 105.898438 75.101562 106.367188 76.1875 106.898438 C 76.996094 107.503906 77.800781 107.917969 78.496094 108.550781 C 76.332031 106.996094 74.707031 107.746094 73.496094 107.039062 C 71.988281 106.167969 72.804688 107.535156 73.222656 107.949219 C 77.464844 112.199219 78.132812 108.988281 80.484375 111.246094 C 80.117188 111.078125 79.722656 110.949219 79.277344 110.894531 C 77.394531 110.679688 76.722656 110.398438 77.707031 111.589844 C 78.878906 113.011719 79.839844 113.699219 80.683594 114.078125 C 80.128906 114.070312 79.589844 114.101562 79.09375 114.199219 C 77.882812 114.457031 78.300781 114.679688 79.117188 114.921875 C 80.117188 115.222656 80.75 115.921875 81.859375 116.378906 L 81.851562 116.378906 C 80.027344 116.945312 79.714844 117.15625 81.101562 117.839844 C 83.460938 119.023438 85.109375 119.054688 86.421875 118.839844 C 85.789062 119.039062 85.214844 119.316406 84.726562 119.679688 C 83.726562 120.417969 84 120.695312 84.855469 120.554688 C 86.472656 120.292969 87.476562 120.777344 88.8125 120.777344 C 88 121.371094 87.320312 122.042969 86.105469 122.40625 C 85.289062 122.648438 85.023438 123.105469 86.355469 123.226562 C 91.449219 123.660156 92.746094 120.472656 95.179688 120.503906 C 96.421875 120.890625 97.589844 121.34375 98.695312 122.082031 C 98.359375 122.339844 98.003906 122.601562 97.8125 122.839844 C 97.871094 123.410156 99.183594 123.128906 99.316406 123.445312 C 99.484375 123.265625 99.660156 123.140625 99.832031 122.984375 C 100.003906 123.140625 100.179688 123.265625 100.351562 123.445312 C 100.476562 123.128906 101.566406 123.226562 101.628906 122.660156 C 101.476562 122.472656 101.183594 122.277344 100.949219 122.082031 C 102.082031 121.320312 103.265625 120.859375 104.539062 120.464844 C 107 120.433594 108.3125 123.660156 113.460938 123.222656 C 114.804688 123.101562 114.542969 122.640625 113.722656 122.390625 C 112.488281 122.027344 111.800781 121.34375 110.976562 120.746094 C 112.328125 120.75 113.351562 120.261719 114.984375 120.523438 C 115.851562 120.65625 116.121094 120.378906 115.105469 119.628906 C 114.617188 119.261719 114.035156 118.984375 113.394531 118.777344 C 114.722656 118.996094 116.394531 118.964844 118.785156 117.765625 C 120.183594 117.078125 119.867188 116.859375 118.035156 116.289062 L 118.023438 116.289062 C 119.144531 115.828125 119.785156 115.121094 120.789062 114.816406 C 121.621094 114.566406 122.039062 114.34375 120.8125 114.089844 C 120.316406 113.984375 119.765625 113.957031 119.207031 113.960938 C 120.0625 113.578125 121.039062 112.878906 122.234375 111.4375 C 123.210938 110.234375 122.539062 110.523438 120.640625 110.738281 C 120.179688 110.792969 119.773438 110.921875 119.394531 111.101562 C 121.789062 108.792969 122.449219 112.066406 126.761719 107.753906 C 127.171875 107.351562 128 105.957031 126.476562 106.84375 C 125.25 107.5625 123.589844 106.785156 121.371094 108.417969 C 122.089844 107.746094 122.933594 107.328125 123.765625 106.695312 C 124.859375 106.15625 126 105.6875 126.726562 105.382812 C 128.320312 104.710938 128.320312 103.859375 127.738281 104.050781 C 127.289062 104.222656 126.566406 104.167969 125.878906 104.089844 Z M 87.320312 117.160156 L 87.90625 117.527344 C 87.277344 117.246094 86.550781 116.972656 85.765625 116.734375 C 86.207031 116.75 86.714844 116.851562 87.378906 117.222656 Z M 94.15625 118.960938 L 93.859375 118.871094 L 94.066406 118.90625 Z M 82.390625 110.957031 C 82.4375 111.035156 82.449219 111.078125 82.503906 111.167969 C 82.984375 111.910156 83.0625 112.679688 83.523438 113.582031 C 83.304688 113.390625 83.089844 113.195312 82.878906 112.988281 C 82.289062 112.277344 82.25 111.644531 82.390625 110.957031 Z M 81.472656 85.996094 C 80.851562 86.820312 79.820312 86.949219 78.867188 87.738281 C 79.417969 86.785156 80.132812 85.890625 81.035156 85.648438 C 81.382812 85.554688 81.722656 85.433594 82.054688 85.300781 C 81.894531 85.472656 81.707031 85.6875 81.472656 85.996094 Z M 80.527344 111.214844 L 80.617188 111.316406 L 80.550781 111.277344 Z M 86.839844 118.785156 C 87.792969 118.589844 88.589844 118.339844 89.367188 118.382812 L 89.695312 118.550781 C 88.660156 118.5 87.695312 118.5625 86.839844 118.785156 Z M 119.820312 84.050781 C 119.820312 84.050781 119.816406 84.050781 119.820312 84.050781 C 119.816406 84.050781 119.820312 84.050781 119.820312 84.050781 Z M 118.417969 85.578125 C 118.179688 85.265625 117.988281 85.042969 117.816406 84.871094 C 118.148438 85.011719 118.496094 85.128906 118.851562 85.226562 C 119.761719 85.472656 120.488281 86.378906 121.039062 87.339844 C 120.078125 86.542969 119.042969 86.410156 118.417969 85.578125 Z M 114.089844 116.65625 C 113.300781 116.894531 112.566406 117.167969 111.933594 117.449219 L 112.476562 117.105469 L 112.449219 117.140625 C 113.128906 116.773438 113.644531 116.671875 114.089844 116.65625 Z M 117.367188 111.027344 L 117.488281 110.8125 C 117.628906 111.503906 117.59375 112.144531 117 112.859375 C 116.785156 113.070312 116.5625 113.277344 116.332031 113.472656 C 116.804688 112.554688 116.882812 111.785156 117.367188 111.027344 Z M 105.679688 118.855469 L 105.910156 118.816406 L 105.570312 118.921875 C 105.605469 118.90625 105.644531 118.882812 105.679688 118.855469 Z M 110.109375 118.488281 L 110.457031 118.316406 C 111.265625 118.277344 112.089844 118.550781 113.101562 118.746094 C 112.210938 118.503906 111.195312 118.445312 110.109375 118.488281 Z M 119.277344 111.1875 L 119.359375 111.089844 L 119.34375 111.144531 C 119.316406 111.15625 119.300781 111.179688 119.277344 111.1875 Z M 119.277344 111.1875 "/>
<path style=" stroke:none;fill-rule:nonzero;fill:rgb(69.411765%,71.372549%,72.941176%);fill-opacity:1;" d="M 92.195312 102.34375 C 92.195312 102.34375 87.957031 106.15625 87.433594 106.671875 C 86.917969 107.1875 86.394531 109.445312 86.394531 109.445312 L 87.777344 110.304688 L 93.929688 103.988281 Z M 92.195312 102.34375 "/>
<path style=" stroke:none;fill-rule:nonzero;fill:rgb(42.352941%,18.823529%,11.764706%);fill-opacity:1;" d="M 86.3125 109.359375 L 87.609375 110.394531 C 87.609375 110.394531 86.484375 111.515625 86.3125 112.644531 C 86.140625 113.773438 83.105469 117.226562 82.5 118.09375 C 81.894531 118.964844 81.109375 118.785156 80.765625 118.09375 C 80.429688 117.40625 79.648438 116.882812 79.5625 116.367188 C 79.464844 115.851562 81.464844 114.027344 82.417969 112.996094 C 83.359375 111.949219 84.398438 111.523438 84.921875 110.921875 C 85.445312 110.304688 86.3125 109.359375 86.3125 109.359375 Z M 92.460938 103.292969 L 89.832031 106.234375 L 90.535156 106.933594 L 93.0625 104.070312 Z M 92.460938 103.292969 "/>
<path style=" stroke:none;fill-rule:nonzero;fill:rgb(69.411765%,71.372549%,72.941176%);fill-opacity:1;" d="M 80.332031 77.671875 L 88.734375 86.410156 L 90.8125 85.371094 L 90.160156 84.433594 L 88.734375 84.765625 Z M 80.332031 77.671875 "/>
<path style=" stroke:none;fill-rule:nonzero;fill:rgb(98.039216%,72.156863%,10.588235%);fill-opacity:1;" d="M 90.8125 114.023438 L 91.851562 115.761719 L 92.792969 114.890625 C 92.792969 114.890625 93.5625 116.277344 92.792969 116.535156 C 92.023438 116.800781 91.449219 116.535156 91.449219 116.535156 L 88.816406 118.683594 C 88.816406 118.683594 87.777344 118.054688 86.910156 118.683594 C 86.910156 118.683594 87.089844 117.410156 87.609375 117.410156 C 88.128906 117.410156 90.023438 114.898438 90.023438 114.898438 C 90.023438 114.898438 89.015625 114.617188 89.222656 114.027344 C 89.429688 113.429688 90.8125 114.023438 90.8125 114.023438 Z M 90.8125 114.023438 "/>
<path style=" stroke:none;fill-rule:nonzero;fill:rgb(69.411765%,71.372549%,72.941176%);fill-opacity:1;" d="M 90.8125 114.722656 C 90.8125 114.722656 106.214844 99.398438 112.628906 98.820312 C 112.628906 98.820312 107.777344 101.773438 104.75 104.195312 C 101.714844 106.621094 91.855469 115.765625 91.855469 115.765625 Z M 90.8125 114.722656 "/>
<path style=" stroke:none;fill-rule:nonzero;fill:rgb(69.411765%,71.372549%,72.941176%);fill-opacity:1;" d="M 108.292969 102.34375 C 108.292969 102.34375 112.539062 106.15625 113.042969 106.671875 C 113.566406 107.1875 114.089844 109.445312 114.089844 109.445312 L 112.710938 110.304688 L 106.5625 103.988281 Z M 108.292969 102.34375 "/>
<path style=" stroke:none;fill-rule:nonzero;fill:rgb(42.352941%,18.823529%,11.764706%);fill-opacity:1;" d="M 114.179688 109.359375 L 112.878906 110.394531 C 112.878906 110.394531 114.003906 111.515625 114.179688 112.644531 C 114.351562 113.773438 117.390625 117.226562 117.988281 118.09375 C 118.59375 118.964844 119.378906 118.785156 119.722656 118.09375 C 120.066406 117.40625 120.839844 116.882812 120.929688 116.367188 C 121.027344 115.851562 119.015625 114.027344 118.070312 112.996094 C 117.128906 111.949219 116.089844 111.523438 115.566406 110.921875 C 115.042969 110.304688 114.179688 109.359375 114.179688 109.359375 Z M 108.023438 103.292969 L 110.648438 106.234375 L 109.957031 106.933594 L 107.429688 104.070312 Z M 108.023438 103.292969 "/>
<path style=" stroke:none;fill-rule:nonzero;fill:rgb(69.411765%,71.372549%,72.941176%);fill-opacity:1;" d="M 104.359375 90.355469 L 103.382812 93.121094 L 111.746094 84.765625 L 110.460938 84.535156 Z M 104.359375 90.355469 "/>
<path style=" stroke:none;fill-rule:nonzero;fill:rgb(69.411765%,71.372549%,72.941176%);fill-opacity:1;" d="M 120.144531 77.671875 L 111.746094 86.410156 L 109.671875 85.371094 L 111.746094 84.765625 Z M 120.144531 77.671875 "/>
<path style=" stroke:none;fill-rule:nonzero;fill:rgb(98.039216%,72.156863%,10.588235%);fill-opacity:1;" d="M 109.671875 114.023438 L 108.644531 115.761719 L 107.699219 114.890625 C 107.699219 114.890625 106.929688 116.277344 107.699219 116.535156 C 108.460938 116.800781 109.042969 116.535156 109.042969 116.535156 L 111.671875 118.683594 C 111.671875 118.683594 112.714844 118.054688 113.570312 118.683594 C 113.570312 118.683594 113.398438 117.410156 112.878906 117.410156 C 112.355469 117.410156 110.464844 114.898438 110.464844 114.898438 C 110.464844 114.898438 111.464844 114.617188 111.261719 114.027344 C 111.0625 113.429688 109.671875 114.023438 109.671875 114.023438 Z M 109.671875 114.023438 "/>
<path style=" stroke:none;fill-rule:nonzero;fill:rgb(69.411765%,71.372549%,72.941176%);fill-opacity:1;" d="M 109.671875 114.722656 C 109.671875 114.722656 94.265625 99.398438 87.859375 98.820312 C 87.859375 98.820312 92.714844 101.773438 95.738281 104.195312 C 98.773438 106.621094 108.640625 115.765625 108.640625 115.765625 Z M 109.671875 114.722656 "/>
<path style=" stroke:none;fill-rule:nonzero;fill:rgb(97.647059%,94.117647%,66.666667%);fill-opacity:1;" d="M 90.929688 84.246094 C 93.445312 84.101562 100.707031 84.332031 103.394531 84.246094 C 106.070312 84.160156 105.464844 85.542969 105.640625 86.328125 C 105.8125 87.105469 104.179688 87.972656 104.179688 87.972656 C 104.179688 87.972656 105.898438 89.011719 108.15625 95.070312 C 110.398438 101.132812 109.878906 103.894531 106.855469 104.078125 C 103.832031 104.25 96.039062 104.773438 93.433594 104.773438 C 90.839844 104.773438 90.40625 103.820312 90.40625 102.433594 C 90.40625 101.050781 92.484375 98.964844 94.5625 100.148438 C 94.5625 100.148438 94.5625 99.226562 93.351562 95.765625 C 92.140625 92.304688 89.539062 88.582031 89.285156 86.9375 C 89.015625 85.285156 89.628906 84.320312 90.929688 84.246094 Z M 90.929688 84.246094 "/>
<path style=" stroke:none;fill-rule:nonzero;fill:rgb(26.27451%,49.411765%,14.117647%);fill-opacity:1;" d="M 98.542969 78.273438 C 97.503906 77.316406 98.949219 76.277344 100.003906 76.367188 C 101.050781 76.457031 101.570312 77.054688 100.449219 78.273438 C 100.449219 78.273438 103.484375 79.917969 105.898438 82.167969 C 108.320312 84.417969 113.300781 90.488281 113.777344 97.054688 C 114.382812 105.539062 109.710938 109.949219 107.972656 112.976562 C 106.246094 116.011719 102.355469 123.628906 102.355469 123.628906 C 102.355469 123.628906 102.265625 119.734375 107.378906 112.632812 C 107.378906 112.632812 103.398438 119.734375 97.25 121.035156 C 97.25 121.035156 104.945312 115.609375 107.105469 111.277344 C 109.265625 106.957031 112.421875 100.449219 111.910156 95.949219 C 111.390625 91.445312 110.578125 87.621094 104.605469 84.671875 C 104.605469 84.671875 100.820312 84.460938 99.15625 83.117188 C 96.464844 80.957031 98.542969 78.273438 98.542969 78.273438 Z M 98.542969 78.273438 "/>
<path style=" stroke:none;fill-rule:nonzero;fill:rgb(88.627451%,81.176471%,50.588235%);fill-opacity:1;" d="M 104.171875 87.972656 C 104.171875 88.234375 105.292969 89.640625 105.144531 89.640625 L 91.917969 89.640625 C 91.773438 89.640625 91.027344 88.722656 91.027344 88.460938 L 90.015625 87.277344 C 90.804688 87.582031 91.765625 87.277344 91.910156 87.277344 L 105.132812 87.277344 C 105.289062 87.277344 104.171875 87.707031 104.171875 87.972656 Z M 94.566406 103.292969 C 94.566406 103.554688 94.011719 104.410156 94.160156 104.410156 L 107.390625 104.410156 C 107.527344 104.410156 108.75 103.496094 108.75 103.234375 L 109.285156 102.054688 C 108.496094 102.359375 107.535156 102.054688 107.390625 102.054688 L 94.160156 102.054688 C 94.015625 102.054688 94.566406 103.027344 94.566406 103.292969 Z M 94.566406 103.292969 "/>
</g>
</svg>
