<?xml version="1.0" encoding="UTF-8"?>
<svg xmlns="http://www.w3.org/2000/svg" xmlns:xlink="http://www.w3.org/1999/xlink" width="200px" height="px" viewBox="0 0 200 200" version="1.1">
<g id="surface1">
<path style=" stroke:none;fill-rule:nonzero;fill:rgb(0%,58.431373%,26.27451%);fill-opacity:1;" d="M 22.222656 27.777344 C 9.949219 27.777344 0 37.726562 0 50 L 0 150 C 0 156.132812 2.488281 161.6875 6.511719 165.710938 L 144.445312 27.777344 Z M 22.222656 27.777344 "/>
<path style=" stroke:none;fill-rule:nonzero;fill:rgb(98.431373%,87.058824%,29.019608%);fill-opacity:1;" d="M 177.777344 27.777344 L 144.445312 27.777344 L 6.511719 165.710938 C 10.535156 169.734375 16.089844 172.222656 22.222656 172.222656 L 55.554688 172.222656 L 193.488281 34.289062 C 189.464844 30.265625 183.910156 27.777344 177.777344 27.777344 Z M 177.777344 27.777344 "/>
<path style=" stroke:none;fill-rule:nonzero;fill:rgb(86.27451%,14.117647%,12.156863%);fill-opacity:1;" d="M 55.554688 172.222656 L 177.777344 172.222656 C 190.050781 172.222656 200 162.273438 200 150 L 200 50 C 200 43.867188 197.511719 38.3125 193.488281 34.289062 Z M 55.554688 172.222656 "/>
</g>
</svg>
