<?xml version="1.0" encoding="UTF-8"?>
<svg xmlns="http://www.w3.org/2000/svg" xmlns:xlink="http://www.w3.org/1999/xlink" width="200px" height="px" viewBox="0 0 200 200" version="1.1">
<g id="surface1">
<path style=" stroke:none;fill-rule:nonzero;fill:rgb(0%,49.803922%,100%);fill-opacity:1;" d="M 22.222656 172.222656 L 177.777344 172.222656 C 190.050781 172.222656 200 162.273438 200 150 L 200 62.5 L 17.859375 171.785156 C 19.273438 172.0625 20.726562 172.222656 22.222656 172.222656 Z M 177.777344 27.777344 L 22.222656 27.777344 C 9.949219 27.777344 0 37.726562 0 50 L 0 137.5 L 182.140625 28.214844 C 180.726562 27.9375 179.273438 27.777344 177.777344 27.777344 Z M 53.5 89 L 36.5 76 L 19.5 89 L 26 68 L 9 55 L 30 55 L 36.5 34 L 43 55 L 64 55 L 47 68 Z M 53.5 89 "/>
<path style=" stroke:none;fill-rule:nonzero;fill:rgb(96.862745%,83.921569%,9.411765%);fill-opacity:1;" d="M 43 55 L 36.5 34 L 30 55 L 9 55 L 26 68 L 19.5 89 L 36.5 76 L 53.5 89 L 47 68 L 64 55 Z M 17.859375 171.785156 L 200 62.5 L 200 55 L 10.40625 168.753906 C 12.660156 170.179688 15.160156 171.246094 17.859375 171.785156 Z M 182.140625 28.214844 L 0 137.5 L 0 145 L 189.59375 31.246094 C 187.339844 29.820312 184.839844 28.753906 182.140625 28.214844 Z M 182.140625 28.214844 "/>
<path style=" stroke:none;fill-rule:nonzero;fill:rgb(80.784314%,6.27451%,12.941176%);fill-opacity:1;" d="M 189.59375 31.246094 L 0 145 L 0 150 C 0 157.917969 4.171875 164.820312 10.40625 168.753906 L 200 55 L 200 50 C 200 42.082031 195.828125 35.179688 189.59375 31.246094 Z M 189.59375 31.246094 "/>
</g>
</svg>
