<?xml version="1.0" encoding="UTF-8"?>
<svg xmlns="http://www.w3.org/2000/svg" xmlns:xlink="http://www.w3.org/1999/xlink" width="200px" height="200px" viewBox="0 0 200 200" version="1.1">
<g id="surface1">
<path style=" stroke:none;fill-rule:nonzero;fill:rgb(86.666667%,18.039216%,26.666667%);fill-opacity:1;" d="M 177.777344 27.777344 L 133.332031 27.777344 L 133.332031 172.222656 L 177.777344 172.222656 C 190.050781 172.222656 200 162.273438 200 150 L 200 50 C 200 37.726562 190.050781 27.777344 177.777344 27.777344 Z M 177.777344 27.777344 "/>
<path style=" stroke:none;fill-rule:nonzero;fill:rgb(14.901961%,37.254902%,70.980392%);fill-opacity:1;" d="M 22.222656 27.777344 C 9.949219 27.777344 0 37.726562 0 50 L 0 150 C 0 162.273438 9.949219 172.222656 22.222656 172.222656 L 66.667969 172.222656 L 66.667969 27.777344 Z M 22.222656 27.777344 "/>
<path style=" stroke:none;fill-rule:nonzero;fill:rgb(100%,80%,30.196078%);fill-opacity:1;" d="M 66.667969 27.777344 L 133.332031 27.777344 L 133.332031 172.222656 L 66.667969 172.222656 Z M 66.667969 27.777344 "/>
<path style=" stroke:none;fill-rule:nonzero;fill:rgb(86.666667%,18.039216%,26.666667%);fill-opacity:1;" d="M 88.890625 83.332031 L 111.109375 83.332031 L 111.109375 100 L 88.890625 100 Z M 88.890625 83.332031 "/>
<path style=" stroke:none;fill-rule:nonzero;fill:rgb(13.333333%,40%,60%);fill-opacity:1;" d="M 88.890625 100 L 88.890625 111.109375 L 100 116.667969 L 111.109375 111.109375 L 111.109375 100 Z M 88.890625 100 "/>
<path style=" stroke:none;fill-rule:nonzero;fill:rgb(62.745098%,44.705882%,29.019608%);fill-opacity:1;" d="M 88.890625 61.109375 L 88.890625 66.667969 L 94.445312 66.667969 L 94.445312 77.777344 L 105.554688 77.777344 L 105.554688 61.109375 Z M 105.554688 116.667969 L 100 120.140625 L 94.445312 116.667969 L 88.890625 133.332031 L 100 138.890625 L 111.109375 133.332031 Z M 83.332031 72.222656 L 77.777344 66.667969 L 72.222656 72.222656 L 72.222656 127.777344 L 83.332031 116.667969 L 83.332031 77.777344 L 88.890625 77.777344 Z M 122.222656 66.667969 L 116.667969 72.222656 L 111.109375 77.777344 L 116.667969 77.777344 L 116.667969 116.667969 L 127.777344 127.777344 L 127.777344 72.222656 Z M 122.222656 66.667969 "/>
<path style=" stroke:none;fill-rule:nonzero;fill:rgb(100%,80%,30.196078%);fill-opacity:1;" d="M 90.1875 97.746094 L 93.140625 97.746094 L 93.140625 100 L 90.1875 100 Z M 106.855469 97.746094 L 109.804688 97.746094 L 109.804688 100 L 106.855469 100 Z M 106.855469 97.746094 "/>
<path style=" stroke:none;fill-rule:nonzero;fill:rgb(46.666667%,69.803922%,33.333333%);fill-opacity:1;" d="M 86.871094 126.351562 C 86.285156 126.695312 85.410156 126.292969 84.929688 125.464844 L 72.527344 103.988281 C 72.050781 103.15625 72.140625 102.207031 72.734375 101.859375 L 73.488281 101.429688 C 74.078125 101.082031 74.949219 101.484375 75.429688 102.3125 L 87.828125 123.792969 C 88.3125 124.621094 88.214844 125.570312 87.628906 125.917969 Z M 86.871094 126.351562 "/>
<path style=" stroke:none;fill-rule:nonzero;fill:rgb(100%,80%,30.196078%);fill-opacity:1;" d="M 126.761719 102.183594 C 127.355469 102.523438 127.457031 103.460938 126.976562 104.277344 L 114.804688 125.378906 C 114.328125 126.195312 113.472656 126.578125 112.871094 126.238281 L 112.121094 125.804688 C 111.535156 125.460938 111.433594 124.527344 111.90625 123.707031 L 124.082031 102.605469 C 124.554688 101.792969 125.417969 101.398438 126.011719 101.75 Z M 126.761719 102.183594 "/>
<path style=" stroke:none;fill-rule:nonzero;fill:rgb(86.666667%,18.039216%,26.666667%);fill-opacity:1;" d="M 88.890625 116.667969 L 83.332031 122.222656 L 83.332031 127.777344 L 88.890625 122.222656 Z M 111.109375 116.667969 L 111.109375 122.222656 L 116.667969 127.777344 L 116.667969 122.222656 Z M 111.109375 116.667969 "/>
<path style=" stroke:none;fill-rule:nonzero;fill:rgb(100%,80%,30.196078%);fill-opacity:1;" d="M 100 94.445312 L 94.445312 88.890625 L 94.445312 105.320312 L 100 111.109375 L 105.554688 105.320312 L 105.554688 88.890625 Z M 100 94.445312 "/>
</g>
</svg>
