<?xml version="1.0" encoding="UTF-8"?>
<svg xmlns="http://www.w3.org/2000/svg" xmlns:xlink="http://www.w3.org/1999/xlink" width="200px" height="200px" viewBox="0 0 200 200" version="1.1">
<g id="surface1">
<path style=" stroke:none;fill-rule:nonzero;fill:rgb(0%,31.764706%,72.941176%);fill-opacity:1;" d="M 186.398438 29.511719 C 183.75 28.394531 180.832031 27.777344 177.777344 27.777344 L 22.222656 27.777344 C 9.949219 27.777344 0 37.726562 0 50 L 0 150 C 0 154.476562 1.328125 158.644531 3.605469 162.132812 Z M 186.398438 29.511719 "/>
<path style=" stroke:none;fill-rule:nonzero;fill:rgb(12.941176%,35.686275%,20%);fill-opacity:1;" d="M 13.601562 170.484375 L 13.632812 170.5 C 16.277344 171.609375 19.179688 172.222656 22.222656 172.222656 L 177.777344 172.222656 C 190.050781 172.222656 200 162.273438 200 150 L 200 50 C 200 45.523438 198.679688 41.355469 196.394531 37.867188 Z M 13.601562 170.484375 "/>
<path style=" stroke:none;fill-rule:nonzero;fill:rgb(98.823529%,81.960784%,8.627451%);fill-opacity:1;" d="M 3.617188 162.160156 C 6.027344 165.839844 9.5 168.761719 13.601562 170.488281 L 196.394531 37.867188 L 196.390625 37.855469 C 193.976562 34.171875 190.503906 31.246094 186.398438 29.515625 L 3.605469 162.132812 Z M 3.617188 162.160156 "/>
<path style=" stroke:none;fill-rule:nonzero;fill:rgb(100%,100%,100%);fill-opacity:1;" d="M 39.273438 66.785156 L 39.328125 66.820312 L 36.640625 75.101562 L 43.816406 69.882812 L 51 75.101562 L 48.3125 66.820312 L 48.359375 66.785156 L 48.3125 66.621094 L 55.300781 61.539062 L 46.59375 61.539062 L 43.816406 53 L 41.042969 61.539062 L 32.332031 61.539062 L 39.328125 66.621094 Z M 39.273438 66.785156 "/>
<path style=" stroke:none;fill-rule:nonzero;fill:rgb(100%,100%,100%);fill-opacity:1;" d="M 48.359375 66.785156 L 55.578125 61.539062 L 55.300781 61.539062 L 48.3125 66.621094 Z M 39.273438 66.785156 L 39.328125 66.621094 L 32.332031 61.539062 L 32.0625 61.539062 Z M 36.640625 75.101562 L 36.550781 75.367188 L 43.816406 70.082031 L 51.082031 75.367188 L 51 75.101562 L 43.816406 69.882812 Z M 14.867188 45.859375 L 14.921875 45.898438 L 12.226562 54.183594 L 19.410156 48.964844 L 26.59375 54.183594 L 23.898438 45.898438 L 23.957031 45.859375 L 23.898438 45.699219 L 30.894531 40.621094 L 22.1875 40.621094 L 19.410156 32.078125 L 16.632812 40.621094 L 7.929688 40.621094 L 14.921875 45.699219 Z M 14.867188 45.859375 "/>
<path style=" stroke:none;fill-rule:nonzero;fill:rgb(100%,100%,100%);fill-opacity:1;" d="M 12.226562 54.183594 L 12.144531 54.445312 L 19.410156 49.167969 L 26.679688 54.445312 L 26.59375 54.183594 L 19.410156 48.964844 Z M 14.867188 45.859375 L 14.921875 45.699219 L 7.929688 40.621094 L 7.65625 40.621094 Z M 23.957031 45.859375 L 31.171875 40.621094 L 30.894531 40.621094 L 23.898438 45.699219 Z M 63.683594 87.699219 L 63.734375 87.738281 L 61.042969 96.023438 L 68.226562 90.800781 L 75.40625 96.023438 L 72.714844 87.738281 L 72.773438 87.699219 L 72.714844 87.539062 L 79.707031 82.460938 L 71 82.460938 L 68.226562 73.917969 L 65.449219 82.460938 L 56.746094 82.460938 L 63.734375 87.539062 Z M 63.683594 87.699219 "/>
<path style=" stroke:none;fill-rule:nonzero;fill:rgb(100%,100%,100%);fill-opacity:1;" d="M 72.773438 87.699219 L 79.984375 82.460938 L 79.707031 82.460938 L 72.714844 87.539062 Z M 63.683594 87.699219 L 63.734375 87.539062 L 56.746094 82.460938 L 56.464844 82.460938 Z M 61.042969 96.023438 L 60.960938 96.285156 L 68.226562 91.003906 L 75.496094 96.285156 L 75.40625 96.023438 L 68.226562 90.800781 Z M 14.867188 87.699219 L 14.921875 87.738281 L 12.226562 96.023438 L 19.410156 90.800781 L 26.59375 96.023438 L 23.898438 87.738281 L 23.957031 87.699219 L 23.898438 87.539062 L 30.894531 82.460938 L 22.1875 82.460938 L 19.410156 73.917969 L 16.632812 82.460938 L 7.929688 82.460938 L 14.921875 87.539062 Z M 14.867188 87.699219 "/>
<path style=" stroke:none;fill-rule:nonzero;fill:rgb(100%,100%,100%);fill-opacity:1;" d="M 23.957031 87.699219 L 31.171875 82.460938 L 30.894531 82.460938 L 23.898438 87.539062 Z M 12.226562 96.023438 L 12.144531 96.285156 L 19.410156 91.003906 L 26.679688 96.285156 L 26.59375 96.023438 L 19.410156 90.800781 Z M 14.867188 87.699219 L 14.921875 87.539062 L 7.929688 82.460938 L 7.65625 82.460938 Z M 63.683594 45.859375 L 63.734375 45.898438 L 61.042969 54.183594 L 68.226562 48.964844 L 75.40625 54.183594 L 72.714844 45.898438 L 72.773438 45.859375 L 72.714844 45.699219 L 79.707031 40.621094 L 71 40.621094 L 68.226562 32.078125 L 65.449219 40.621094 L 56.746094 40.621094 L 63.734375 45.699219 Z M 63.683594 45.859375 "/>
<path style=" stroke:none;fill-rule:nonzero;fill:rgb(100%,100%,100%);fill-opacity:1;" d="M 63.683594 45.859375 L 63.734375 45.699219 L 56.746094 40.621094 L 56.464844 40.621094 Z M 72.773438 45.859375 L 79.984375 40.621094 L 79.707031 40.621094 L 72.714844 45.699219 Z M 61.042969 54.183594 L 60.960938 54.445312 L 68.226562 49.167969 L 75.496094 54.445312 L 75.40625 54.183594 L 68.226562 48.964844 Z M 61.042969 54.183594 "/>
</g>
</svg>
