<?xml version="1.0" encoding="UTF-8"?>
<svg xmlns="http://www.w3.org/2000/svg" xmlns:xlink="http://www.w3.org/1999/xlink" width="200px" height="200px" viewBox="0 0 200 200" version="1.1">
<g id="surface1">
<path style=" stroke:none;fill-rule:nonzero;fill:rgb(98.823529%,88.235294%,0%);fill-opacity:1;" d="M 200 150 C 200 162.273438 190.050781 172.222656 177.777344 172.222656 L 22.222656 172.222656 C 9.949219 172.222656 0 162.273438 0 150 L 0 50 C 0 37.726562 9.949219 27.777344 22.222656 27.777344 L 177.777344 27.777344 C 190.050781 27.777344 200 37.726562 200 50 Z M 200 150 "/>
<path style=" stroke:none;fill-rule:nonzero;fill:rgb(7.843137%,7.843137%,7.843137%);fill-opacity:1;" d="M 0 72.222656 L 200 72.222656 L 200 127.777344 L 0 127.777344 Z M 0 72.222656 "/>
<path style=" stroke:none;fill-rule:nonzero;fill:rgb(0%,44.313725%,40.784314%);fill-opacity:1;" d="M 177.777344 27.777344 L 22.222656 27.777344 C 9.949219 27.777344 0 37.726562 0 50 L 0 72.222656 L 200 72.222656 L 200 50 C 200 37.726562 190.050781 27.777344 177.777344 27.777344 Z M 177.777344 27.777344 "/>
<path style=" stroke:none;fill-rule:nonzero;fill:rgb(93.333333%,93.333333%,93.333333%);fill-opacity:1;" d="M 0 72.222656 L 200 72.222656 L 200 77.777344 L 0 77.777344 Z M 0 122.222656 L 200 122.222656 L 200 127.777344 L 0 127.777344 Z M 0 122.222656 "/>
<path style=" stroke:none;fill-rule:nonzero;fill:rgb(86.666667%,18.039216%,26.666667%);fill-opacity:1;" d="M 7.292969 166.359375 L 94.621094 100.355469 L 7.390625 33.5625 C 2.882812 37.628906 0 43.457031 0 50 L 0 150 C 0 156.503906 2.84375 162.300781 7.292969 166.359375 Z M 7.292969 166.359375 "/>
<path style=" stroke:none;fill-rule:nonzero;fill:rgb(98.823529%,88.235294%,0%);fill-opacity:1;" d="M 52.65625 128.121094 L 34.484375 114.816406 L 16.332031 128.121094 L 23.371094 106.726562 L 5.109375 93.582031 L 27.632812 93.667969 L 34.488281 72.234375 L 41.371094 93.679688 L 63.871094 93.578125 L 45.605469 106.75 Z M 52.65625 128.121094 "/>
<path style=" stroke:none;fill-rule:nonzero;fill:rgb(7.843137%,7.843137%,7.843137%);fill-opacity:1;" d="M 18.714844 115.011719 L 31.804688 115.011719 C 32.859375 116.195312 35.210938 116.679688 37.449219 115 C 41.550781 112.753906 49.488281 115.011719 49.488281 115.011719 L 51.050781 113.351562 L 47.238281 100.851562 L 45.871094 99.382812 C 45.871094 99.382812 42.9375 97.621094 37.371094 98.210938 C 31.804688 98.800781 29.851562 98.011719 29.851562 98.011719 C 29.851562 98.011719 24.964844 98.601562 23.601562 99.285156 C 23.449219 99.40625 22.035156 100.84375 22.035156 100.84375 Z M 18.714844 115.011719 "/>
<path style=" stroke:none;fill-rule:nonzero;fill:rgb(100%,100%,100%);fill-opacity:1;" d="M 18.714844 113.199219 L 31.804688 113.199219 C 32.859375 114.382812 35.210938 114.867188 37.449219 113.1875 C 41.550781 110.945312 49.488281 113.199219 49.488281 113.199219 L 51.050781 111.539062 L 47.238281 99.039062 L 45.871094 97.570312 C 45.871094 97.570312 42.9375 95.8125 37.371094 96.398438 C 31.804688 96.984375 29.851562 96.199219 29.851562 96.199219 C 29.851562 96.199219 24.964844 96.789062 23.601562 97.472656 C 23.449219 97.59375 22.035156 99.035156 22.035156 99.035156 Z M 18.714844 113.199219 "/>
<path style=" stroke:none;fill-rule:nonzero;fill:rgb(7.843137%,7.843137%,7.843137%);fill-opacity:1;" d="M 12.292969 94.511719 L 19.3125 84.226562 L 23.605469 84.917969 L 26.082031 82.359375 L 34.644531 92.851562 L 41.511719 87.972656 L 45.714844 84.460938 L 48.238281 86.011719 L 57.167969 80.253906 L 49.09375 87.820312 L 42.398438 92.578125 L 37.070312 94.976562 L 55.082031 116.210938 L 52.726562 117.882812 L 35.554688 97.050781 L 29.988281 101.523438 L 37.304688 103.859375 L 37.070312 107.367188 L 26.792969 104.535156 L 27.253906 111.804688 L 24.882812 112.832031 L 22.785156 108.640625 L 13.699219 119.289062 L 10.429688 113.679688 L 20.710938 105.027344 L 20.945312 101.988281 L 26.554688 96.851562 L 28.1875 96.617188 L 32.867188 94.746094 L 25.851562 87.265625 L 16.484375 100.332031 L 12.472656 95.5 "/>
</g>
</svg>
