<?xml version="1.0" encoding="UTF-8"?>
<svg xmlns="http://www.w3.org/2000/svg" xmlns:xlink="http://www.w3.org/1999/xlink" width="200px" height="200px" viewBox="0 0 200 200" version="1.1">
<g id="surface1">
<path style=" stroke:none;fill-rule:nonzero;fill:rgb(0%,41.568627%,30.588235%);fill-opacity:1;" d="M 0 150 C 0 162.273438 9.949219 172.222656 22.222656 172.222656 L 177.777344 172.222656 C 190.050781 172.222656 200 162.273438 200 150 L 200 143.332031 L 0 143.332031 Z M 86.253906 113.890625 L 86.109375 113.890625 L 200 114.445312 L 200 85.554688 L 86.253906 85.554688 Z M 177.777344 27.777344 L 86.253906 27.777344 L 86.253906 56.667969 L 200 56.667969 L 200 50 C 200 37.726562 190.050781 27.777344 177.777344 27.777344 Z M 177.777344 27.777344 "/>
<path style=" stroke:none;fill-rule:nonzero;fill:rgb(100%,80.784314%,0%);fill-opacity:1;" d="M 86.253906 85.183594 L 86.253906 85.554688 L 200 85.554688 L 200 56.667969 L 86.253906 56.667969 Z M 0.144531 113.890625 L 0 143.332031 L 200 143.332031 L 200 114.445312 L 86.109375 113.890625 Z M 0.144531 113.890625 "/>
<path style=" stroke:none;fill-rule:nonzero;fill:rgb(82.352941%,6.27451%,20.392157%);fill-opacity:1;" d="M 22.222656 27.777344 C 10.4375 27.777344 0.894531 36.976562 0.144531 48.570312 L 0.144531 113.890625 L 86.253906 113.890625 L 86.253906 27.777344 Z M 22.222656 27.777344 "/>
<path style=" stroke:none;fill-rule:nonzero;fill:rgb(100%,100%,100%);fill-opacity:1;" d="M 68.550781 63.40625 L 49.359375 63.40625 L 49.289062 63.183594 L 43.199219 44.445312 L 43.078125 44.820312 L 37.039062 63.40625 L 17.101562 63.40625 L 32.976562 74.945312 L 33.226562 75.128906 L 27.300781 93.378906 L 27.066406 94.09375 L 43.199219 82.371094 L 59.328125 94.09375 L 53.167969 75.128906 L 69.300781 63.40625 Z M 68.550781 63.40625 "/>
</g>
</svg>
