<?xml version="1.0" encoding="UTF-8"?>
<svg xmlns="http://www.w3.org/2000/svg" xmlns:xlink="http://www.w3.org/1999/xlink" width="200px" height="200px" viewBox="0 0 200 200" version="1.1">
<g id="surface1">
<path style=" stroke:none;fill-rule:nonzero;fill:rgb(0%,67.058824%,78.823529%);fill-opacity:1;" d="M 7.578125 166.59375 C 11.496094 170.054688 16.582031 172.222656 22.222656 172.222656 L 177.777344 172.222656 C 190.050781 172.222656 200 162.273438 200 150 L 200 125 L 63.566406 125 Z M 7.578125 166.59375 "/>
<path style=" stroke:none;fill-rule:nonzero;fill:rgb(98.039216%,87.843137%,25.882353%);fill-opacity:1;" d="M 97.222656 100 L 63.566406 125 L 200 125 L 200 75 L 63.566406 75 Z M 97.222656 100 "/>
<path style=" stroke:none;fill-rule:nonzero;fill:rgb(0%,67.058824%,78.823529%);fill-opacity:1;" d="M 177.777344 27.777344 L 22.222656 27.777344 C 16.582031 27.777344 11.496094 29.945312 7.578125 33.40625 L 63.566406 75 L 200 75 L 200 50 C 200 37.726562 190.050781 27.777344 177.777344 27.777344 Z M 177.777344 27.777344 "/>
<path style=" stroke:none;fill-rule:nonzero;fill:rgb(7.843137%,7.843137%,7.843137%);fill-opacity:1;" d="M 97.222656 100 L 63.566406 75 L 7.578125 33.40625 C 2.964844 37.476562 0 43.367188 0 50 L 0 150 C 0 156.632812 2.964844 162.523438 7.578125 166.59375 L 63.566406 125 Z M 97.222656 100 "/>
</g>
</svg>
