<?xml version="1.0" encoding="UTF-8"?>
<svg xmlns="http://www.w3.org/2000/svg" xmlns:xlink="http://www.w3.org/1999/xlink" width="200px" height="200px" viewBox="0 0 200 200" version="1.1">
<g id="surface1">
<path style=" stroke:none;fill-rule:nonzero;fill:rgb(0%,38.431373%,20%);fill-opacity:1;" d="M 22.222656 27.777344 C 9.949219 27.777344 0 37.726562 0 50 L 0 150 C 0 162.273438 9.949219 172.222656 22.222656 172.222656 L 100 172.222656 L 100 27.777344 Z M 22.222656 27.777344 "/>
<path style=" stroke:none;fill-rule:nonzero;fill:rgb(93.333333%,93.333333%,93.333333%);fill-opacity:1;" d="M 177.777344 27.777344 L 100 27.777344 L 100 172.222656 L 177.777344 172.222656 C 190.050781 172.222656 200 162.273438 200 150 L 200 50 C 200 37.726562 190.050781 27.777344 177.777344 27.777344 Z M 177.777344 27.777344 "/>
<path style=" stroke:none;fill-rule:nonzero;fill:rgb(82.352941%,5.882353%,20.392157%);fill-opacity:1;" d="M 111.109375 133.332031 C 92.695312 133.332031 77.777344 118.417969 77.777344 100 C 77.777344 81.589844 92.695312 66.667969 111.109375 66.667969 C 118.390625 66.667969 125.109375 69.027344 130.59375 72.988281 C 123.105469 64.523438 112.195312 59.148438 100 59.148438 C 77.4375 59.148438 59.148438 77.4375 59.148438 100 C 59.148438 122.566406 77.4375 140.855469 100 140.855469 C 112.195312 140.855469 123.109375 135.484375 130.59375 127.011719 C 125.117188 130.972656 118.398438 133.332031 111.109375 133.332031 Z M 111.109375 133.332031 "/>
<path style=" stroke:none;fill-rule:nonzero;fill:rgb(82.352941%,5.882353%,20.392157%);fill-opacity:1;" d="M 140.566406 101.277344 L 127.011719 104.398438 L 125.789062 118.25 L 118.632812 106.328125 L 105.078125 109.445312 L 114.210938 98.957031 L 107.0625 87.027344 L 119.855469 92.472656 L 128.988281 81.976562 L 127.765625 95.832031 Z M 140.566406 101.277344 "/>
</g>
</svg>
