<?xml version="1.0" encoding="UTF-8"?>
<svg xmlns="http://www.w3.org/2000/svg" xmlns:xlink="http://www.w3.org/1999/xlink" width="200px" height="px" viewBox="0 0 200 200" version="1.1">
<g id="surface1">
<path style=" stroke:none;fill-rule:nonzero;fill:rgb(7.843137%,7.843137%,7.843137%);fill-opacity:1;" d="M 177.777344 27.777344 L 22.222656 27.777344 C 9.949219 27.777344 0 37.726562 0 50 L 0 75 L 200 75 L 200 50 C 200 37.726562 190.050781 27.777344 177.777344 27.777344 Z M 177.777344 27.777344 "/>
<path style=" stroke:none;fill-rule:nonzero;fill:rgb(0%,47.843137%,23.921569%);fill-opacity:1;" d="M 0 150 C 0 162.273438 9.949219 172.222656 22.222656 172.222656 L 177.777344 172.222656 C 190.050781 172.222656 200 162.273438 200 150 L 200 125 L 0 125 Z M 0 150 "/>
<path style=" stroke:none;fill-rule:nonzero;fill:rgb(93.333333%,93.333333%,93.333333%);fill-opacity:1;" d="M 0 75 L 200 75 L 200 125 L 0 125 Z M 0 75 "/>
<path style=" stroke:none;fill-rule:nonzero;fill:rgb(80.784314%,6.666667%,14.901961%);fill-opacity:1;" d="M 7.503906 33.355469 L 7.5 33.355469 C 2.898438 37.429688 0 43.378906 0 50 L 0 150 C 0 156.628906 2.898438 162.578125 7.503906 166.648438 L 97.222656 100 Z M 7.503906 33.355469 "/>
<path style=" stroke:none;fill-rule:nonzero;fill:rgb(100%,100%,100%);fill-opacity:1;" d="M 36.816406 107.433594 L 42.683594 112.855469 L 42.101562 104.882812 L 50 103.679688 L 43.40625 99.167969 L 47.390625 92.238281 L 39.75 94.578125 L 36.816406 87.144531 L 33.882812 94.578125 L 26.246094 92.238281 L 30.222656 99.167969 L 23.632812 103.679688 L 31.527344 104.882812 L 30.949219 112.855469 Z M 36.816406 107.433594 "/>
</g>
</svg>
