<?xml version="1.0" encoding="UTF-8"?>
<svg xmlns="http://www.w3.org/2000/svg" xmlns:xlink="http://www.w3.org/1999/xlink" width="200px" height="200px" viewBox="0 0 200 200" version="1.1">
<g id="surface1">
<path style=" stroke:none;fill-rule:nonzero;fill:rgb(0%,21.960784%,57.647059%);fill-opacity:1;" d="M 177.777344 27.777344 L 22.222656 27.777344 C 9.949219 27.777344 0 37.726562 0 50 L 0 105.554688 L 200 105.554688 L 200 50 C 200 37.726562 190.050781 27.777344 177.777344 27.777344 Z M 177.777344 27.777344 "/>
<path style=" stroke:none;fill-rule:nonzero;fill:rgb(93.333333%,93.333333%,93.333333%);fill-opacity:1;" d="M 0 105.554688 L 200 105.554688 L 200 116.667969 L 0 116.667969 Z M 0 133.332031 L 200 133.332031 L 200 144.445312 L 0 144.445312 Z M 0 133.332031 "/>
<path style=" stroke:none;fill-rule:nonzero;fill:rgb(81.176471%,12.54902%,15.294118%);fill-opacity:1;" d="M 0 116.667969 L 0 133.332031 L 200 133.332031 L 200 116.667969 Z M 0 116.667969 "/>
<path style=" stroke:none;fill-rule:nonzero;fill:rgb(0%,21.960784%,57.647059%);fill-opacity:1;" d="M 22.222656 172.222656 L 177.777344 172.222656 C 190.050781 172.222656 200 162.273438 200 150 L 200 144.445312 L 0 144.445312 L 0 150 C 0 162.273438 9.949219 172.222656 22.222656 172.222656 Z M 22.222656 172.222656 "/>
<path style=" stroke:none;fill-rule:nonzero;fill:rgb(96.862745%,81.960784%,8.627451%);fill-opacity:1;" d="M 79.707031 88.351562 L 83.949219 85.265625 L 78.707031 85.265625 L 77.082031 80.277344 L 75.460938 85.265625 L 70.214844 85.265625 L 74.460938 88.351562 L 72.839844 93.34375 L 77.082031 90.261719 L 81.328125 93.34375 Z M 114.050781 113.304688 L 118.292969 110.222656 L 113.050781 110.222656 L 111.429688 105.226562 L 109.804688 110.222656 L 104.554688 110.222656 L 108.804688 113.304688 L 107.183594 118.292969 L 111.429688 115.210938 L 115.671875 118.292969 Z M 45.359375 113.304688 L 49.609375 110.222656 L 44.359375 110.222656 L 42.738281 105.226562 L 41.117188 110.222656 L 35.871094 110.222656 L 40.117188 113.304688 L 38.496094 118.292969 L 42.738281 115.210938 L 46.984375 118.292969 Z M 45.359375 135.621094 L 49.609375 132.539062 L 44.359375 132.539062 L 42.738281 127.550781 L 41.117188 132.539062 L 35.871094 132.539062 L 40.117188 135.621094 L 38.496094 140.609375 L 42.738281 137.527344 L 46.984375 140.609375 Z M 114.050781 135.621094 L 118.292969 132.539062 L 113.050781 132.539062 L 111.429688 127.550781 L 109.804688 132.539062 L 104.554688 132.539062 L 108.804688 135.621094 L 107.183594 140.609375 L 111.429688 137.527344 L 115.671875 140.609375 Z M 78.707031 157.488281 L 77.082031 152.5 L 75.460938 157.488281 L 70.214844 157.488281 L 74.460938 160.570312 L 72.839844 165.566406 L 77.082031 162.484375 L 81.328125 165.566406 L 79.707031 160.570312 L 83.949219 157.488281 Z M 100.933594 153.679688 L 105.179688 150.59375 L 99.929688 150.59375 L 98.3125 145.605469 L 96.6875 150.59375 L 91.4375 150.59375 L 95.683594 153.679688 L 94.0625 158.667969 L 98.3125 155.582031 L 102.554688 158.667969 Z M 100.933594 95.320312 L 105.179688 92.238281 L 99.929688 92.238281 L 98.3125 87.25 L 96.6875 92.238281 L 91.4375 92.238281 L 95.683594 95.320312 L 94.0625 100.3125 L 98.3125 97.226562 L 102.554688 100.3125 Z M 53.234375 153.679688 L 48.988281 150.59375 L 54.238281 150.59375 L 55.855469 145.605469 L 57.476562 150.59375 L 62.726562 150.59375 L 58.484375 153.679688 L 60.105469 158.667969 L 55.855469 155.582031 L 51.609375 158.667969 Z M 53.234375 95.320312 L 48.988281 92.238281 L 54.238281 92.238281 L 55.855469 87.25 L 57.476562 92.238281 L 62.726562 92.238281 L 58.484375 95.320312 L 60.105469 100.3125 L 55.855469 97.226562 L 51.609375 100.3125 Z M 53.234375 95.320312 "/>
</g>
</svg>
