<?xml version="1.0" encoding="UTF-8"?>
<svg xmlns="http://www.w3.org/2000/svg" xmlns:xlink="http://www.w3.org/1999/xlink" width="200px" height="200px" viewBox="0 0 200 200" version="1.1">
<g id="surface1">
<path style=" stroke:none;fill-rule:nonzero;fill:rgb(45.882353%,66.666667%,85.882353%);fill-opacity:1;" d="M 200 150 C 200 162.273438 190.050781 172.222656 177.777344 172.222656 L 22.222656 172.222656 C 9.949219 172.222656 0 162.273438 0 150 L 0 50 C 0 37.726562 9.949219 27.777344 22.222656 27.777344 L 177.777344 27.777344 C 190.050781 27.777344 200 37.726562 200 50 Z M 200 150 "/>
<path style=" stroke:none;fill-rule:nonzero;fill:rgb(93.333333%,93.333333%,93.333333%);fill-opacity:1;" d="M 0 72.222656 L 200 72.222656 L 200 127.777344 L 0 127.777344 Z M 0 72.222656 "/>
<path style=" stroke:none;fill-rule:nonzero;fill:rgb(98.823529%,74.901961%,28.627451%);fill-opacity:1;" d="M 100 72.222656 L 102.710938 86.378906 L 110.632812 74.339844 L 107.714844 88.449219 L 119.640625 80.355469 L 111.542969 92.285156 L 125.660156 89.371094 L 113.621094 97.289062 L 127.777344 100 L 113.621094 102.710938 L 125.660156 110.632812 L 111.542969 107.714844 L 119.640625 119.640625 L 107.714844 111.542969 L 110.632812 125.660156 L 102.710938 113.621094 L 100 127.777344 L 97.289062 113.621094 L 89.371094 125.660156 L 92.285156 111.542969 L 80.355469 119.640625 L 88.449219 107.714844 L 74.339844 110.632812 L 86.378906 102.710938 L 72.222656 100 L 86.378906 97.289062 L 74.339844 89.371094 L 88.449219 92.285156 L 80.355469 80.355469 L 92.285156 88.449219 L 89.371094 74.339844 L 97.289062 86.378906 Z M 100 72.222656 "/>
<path style=" stroke:none;fill-rule:nonzero;fill:rgb(51.764706%,20.784314%,6.666667%);fill-opacity:1;" d="M 100 79.609375 L 101.34375 86.640625 L 101.988281 90 L 103.871094 87.144531 L 107.804688 81.167969 L 106.355469 88.171875 L 105.660156 91.527344 L 108.496094 89.605469 L 114.417969 85.589844 L 110.398438 91.511719 L 108.476562 94.34375 L 111.828125 93.648438 L 118.839844 92.207031 L 112.859375 96.140625 L 110 98.011719 L 113.359375 98.65625 L 120.390625 100 L 113.359375 101.34375 L 110 101.988281 L 112.855469 103.871094 L 118.832031 107.804688 L 111.820312 106.355469 L 108.464844 105.660156 L 110.390625 108.496094 L 114.40625 114.410156 L 108.488281 110.394531 L 105.65625 108.472656 L 106.351562 111.828125 L 107.800781 118.839844 L 103.867188 112.859375 L 101.988281 110 L 101.34375 113.359375 L 100 120.390625 L 98.65625 113.359375 L 98.011719 110 L 96.128906 112.859375 L 92.195312 118.839844 L 93.640625 111.828125 L 94.332031 108.476562 L 91.5 110.398438 L 85.578125 114.417969 L 89.59375 108.496094 L 91.515625 105.660156 L 88.160156 106.355469 L 81.15625 107.804688 L 87.132812 103.871094 L 89.988281 101.988281 L 86.628906 101.34375 L 79.609375 100 L 86.640625 98.65625 L 90 98.011719 L 87.140625 96.128906 L 81.160156 92.195312 L 88.167969 93.640625 L 91.515625 94.332031 L 89.59375 91.5 L 85.570312 85.578125 L 91.496094 89.601562 L 94.328125 91.523438 L 93.632812 88.171875 L 92.1875 81.167969 L 96.121094 87.144531 L 98.003906 90.003906 L 98.648438 86.644531 Z M 100 72.222656 L 97.289062 86.378906 L 89.371094 74.339844 L 92.285156 88.457031 L 80.355469 80.359375 L 88.449219 92.289062 L 74.339844 89.378906 L 86.378906 97.292969 L 72.222656 100 L 86.378906 102.710938 L 74.339844 110.632812 L 88.449219 107.714844 L 80.355469 119.640625 L 92.285156 111.542969 L 89.371094 125.660156 L 97.289062 113.621094 L 100 127.777344 L 102.710938 113.621094 L 110.632812 125.660156 L 107.714844 111.542969 L 119.640625 119.640625 L 111.542969 107.714844 L 125.660156 110.632812 L 113.621094 102.710938 L 127.777344 100 L 113.621094 97.289062 L 125.660156 89.371094 L 111.542969 92.285156 L 119.640625 80.355469 L 107.714844 88.449219 L 110.632812 74.332031 L 102.710938 86.371094 Z M 110.632812 74.339844 L 110.660156 74.339844 Z M 119.640625 80.355469 L 119.667969 80.355469 Z M 125.660156 89.371094 L 125.6875 89.371094 Z M 125.660156 89.371094 "/>
<path style=" stroke:none;fill-rule:nonzero;fill:rgb(98.823529%,74.901961%,28.627451%);fill-opacity:1;" d="M 111.109375 100 C 111.109375 106.136719 106.136719 111.109375 100 111.109375 C 93.863281 111.109375 88.890625 106.136719 88.890625 100 C 88.890625 93.863281 93.863281 88.890625 100 88.890625 C 106.136719 88.890625 111.109375 93.863281 111.109375 100 Z M 111.109375 100 "/>
<path style=" stroke:none;fill-rule:nonzero;fill:rgb(51.764706%,20.784314%,6.666667%);fill-opacity:1;" d="M 100 111.804688 C 93.488281 111.804688 88.195312 106.511719 88.195312 100 C 88.195312 93.488281 93.488281 88.195312 100 88.195312 C 106.511719 88.195312 111.804688 93.488281 111.804688 100 C 111.804688 106.511719 106.511719 111.804688 100 111.804688 Z M 100 89.582031 C 94.253906 89.582031 89.582031 94.253906 89.582031 100 C 89.582031 105.746094 94.253906 110.417969 100 110.417969 C 105.746094 110.417969 110.417969 105.746094 110.417969 100 C 110.417969 94.253906 105.746094 89.582031 100 89.582031 Z M 100 89.582031 "/>
<path style=" stroke:none;fill-rule:nonzero;fill:rgb(75.686275%,39.607843%,25.098039%);fill-opacity:1;" d="M 98.894531 98.746094 C 98.894531 99.605469 97.445312 100.300781 95.65625 100.300781 C 93.859375 100.300781 92.410156 99.605469 92.410156 98.746094 C 92.410156 97.882812 93.859375 97.1875 95.65625 97.1875 C 97.445312 97.1875 98.894531 97.882812 98.894531 98.746094 Z M 107.523438 98.609375 C 107.523438 97.714844 106.042969 96.988281 104.222656 96.988281 C 102.398438 96.988281 100.921875 97.710938 100.921875 98.609375 C 100.921875 99.511719 102.398438 100.234375 104.222656 100.234375 C 106.050781 100.234375 107.523438 99.503906 107.523438 98.609375 Z M 107.523438 98.609375 "/>
<path style=" stroke:none;fill-rule:nonzero;fill:rgb(92.941176%,52.54902%,38.431373%);fill-opacity:1;" d="M 97.015625 104.855469 C 97.015625 104.15625 98.382812 103.582031 100.0625 103.582031 C 101.746094 103.582031 103.105469 104.148438 103.105469 104.855469 C 103.105469 105.554688 101.738281 106.128906 100.0625 106.128906 C 98.378906 106.128906 97.015625 105.554688 97.015625 104.855469 Z M 97.015625 104.855469 "/>
</g>
</svg>
