<?xml version="1.0" encoding="UTF-8"?>
<svg xmlns="http://www.w3.org/2000/svg" xmlns:xlink="http://www.w3.org/1999/xlink" width="200px" height="200px" viewBox="0 0 200 200" version="1.1">
<g id="surface1">
<path style=" stroke:none;fill-rule:nonzero;fill:rgb(0%,41.568627%,30.196078%);fill-opacity:1;" d="M 200 150 C 200 162.273438 190.050781 172.222656 177.777344 172.222656 L 22.222656 172.222656 C 9.949219 172.222656 0 162.273438 0 150 L 0 50 C 0 37.726562 9.949219 27.777344 22.222656 27.777344 L 177.777344 27.777344 C 190.050781 27.777344 200 37.726562 200 50 Z M 200 150 "/>
<path style=" stroke:none;fill-rule:nonzero;fill:rgb(95.686275%,16.470588%,25.490196%);fill-opacity:1;" d="M 127.777344 97.222656 C 127.777344 118.699219 110.367188 136.109375 88.890625 136.109375 C 67.410156 136.109375 50 118.699219 50 97.222656 C 50 75.746094 67.410156 58.332031 88.890625 58.332031 C 110.367188 58.332031 127.777344 75.746094 127.777344 97.222656 Z M 127.777344 97.222656 "/>
</g>
</svg>
