<?xml version="1.0" encoding="UTF-8"?>
<svg xmlns="http://www.w3.org/2000/svg" xmlns:xlink="http://www.w3.org/1999/xlink" width="200px" height="200px" viewBox="0 0 200 200" version="1.1">
<g id="surface1">
<path style=" stroke:none;fill-rule:nonzero;fill:rgb(93.333333%,93.333333%,93.333333%);fill-opacity:1;" d="M 200 150 C 200 162.273438 190.050781 172.222656 177.777344 172.222656 L 22.222656 172.222656 C 9.949219 172.222656 0 162.273438 0 150 L 0 50 C 0 37.726562 9.949219 27.777344 22.222656 27.777344 L 177.777344 27.777344 C 190.050781 27.777344 200 37.726562 200 50 Z M 200 150 "/>
<path style=" stroke:none;fill-rule:nonzero;fill:rgb(80.784314%,6.666667%,14.901961%);fill-opacity:1;" d="M 76.027344 72.601562 C 82.417969 66.890625 90.816406 63.390625 100.054688 63.390625 C 109.199219 63.390625 117.527344 66.816406 123.894531 72.421875 L 184.078125 28.789062 C 182.066406 28.195312 179.984375 27.777344 177.777344 27.777344 L 22.222656 27.777344 C 19.9375 27.777344 17.777344 28.222656 15.699219 28.859375 Z M 76.027344 72.601562 "/>
<path style=" stroke:none;fill-rule:nonzero;fill:rgb(11.764706%,70.980392%,22.745098%);fill-opacity:1;" d="M 133.542969 86.015625 C 135.226562 90.1875 136.171875 94.734375 136.171875 99.5 C 136.171875 104.65625 135.070312 109.550781 133.128906 113.988281 L 197.261719 160.484375 C 198.949219 157.351562 200 153.816406 200 150 L 200 50 C 200 46.277344 198.996094 42.820312 197.378906 39.738281 Z M 66.882812 113.761719 C 65 109.382812 63.949219 104.566406 63.949219 99.503906 C 63.949219 94.828125 64.867188 90.371094 66.488281 86.265625 L 2.535156 39.898438 C 0.964844 42.945312 0 46.34375 0 50 L 0 150 C 0 153.75 1.015625 157.226562 2.65625 160.328125 Z M 66.882812 113.761719 "/>
<path style=" stroke:none;fill-rule:nonzero;fill:rgb(80.784314%,6.666667%,14.901961%);fill-opacity:1;" d="M 123.09375 127.3125 C 116.84375 132.496094 108.816406 135.617188 100.0625 135.617188 C 91.210938 135.617188 83.109375 132.421875 76.832031 127.140625 L 16.003906 171.234375 C 17.988281 171.8125 20.050781 172.222656 22.222656 172.222656 L 177.777344 172.222656 C 179.871094 172.222656 181.855469 171.839844 183.773438 171.300781 Z M 123.09375 127.3125 "/>
<path style=" stroke:none;fill-rule:nonzero;fill:rgb(11.764706%,70.980392%,22.745098%);fill-opacity:1;" d="M 105.984375 84.8125 L 107.746094 81.765625 L 108.945312 79.683594 L 103.023438 79.683594 L 101.261719 76.640625 L 100.0625 74.554688 L 98.855469 76.640625 L 97.101562 79.683594 L 91.171875 79.683594 L 92.378906 81.765625 L 94.132812 84.8125 L 92.378906 87.859375 L 91.171875 89.945312 L 97.101562 89.945312 L 98.855469 92.988281 L 100.0625 95.070312 L 101.261719 92.988281 L 103.023438 89.945312 L 108.945312 89.945312 L 107.746094 87.859375 Z M 105.984375 84.8125 "/>
<path style=" stroke:none;fill-rule:nonzero;fill:rgb(80.784314%,6.666667%,14.901961%);fill-opacity:1;" d="M 106.539062 81.070312 L 102.222656 81.070312 L 100.0625 77.332031 L 97.898438 81.070312 L 93.578125 81.070312 L 95.738281 84.8125 L 93.578125 88.554688 L 97.898438 88.554688 L 100.0625 92.292969 L 102.222656 88.554688 L 106.539062 88.554688 L 104.378906 84.8125 Z M 106.539062 81.070312 "/>
<path style=" stroke:none;fill-rule:nonzero;fill:rgb(11.764706%,70.980392%,22.745098%);fill-opacity:1;" d="M 121.820312 110.027344 L 123.582031 106.976562 L 124.789062 104.894531 L 118.859375 104.894531 L 117.105469 101.851562 L 115.898438 99.765625 L 114.699219 101.851562 L 112.9375 104.894531 L 107.015625 104.894531 L 108.214844 106.976562 L 109.976562 110.027344 L 108.214844 113.070312 L 107.015625 115.15625 L 112.9375 115.15625 L 114.699219 118.199219 L 115.898438 120.289062 L 117.105469 118.199219 L 118.859375 115.15625 L 124.789062 115.15625 L 123.582031 113.070312 Z M 121.820312 110.027344 "/>
<path style=" stroke:none;fill-rule:nonzero;fill:rgb(80.784314%,6.666667%,14.901961%);fill-opacity:1;" d="M 115.898438 102.542969 L 113.738281 106.285156 L 109.421875 106.285156 L 111.578125 110.027344 L 109.421875 113.765625 L 113.738281 113.765625 L 115.898438 117.503906 L 118.0625 113.765625 L 122.382812 113.765625 L 120.222656 110.027344 L 122.382812 106.285156 L 118.0625 106.285156 Z M 115.898438 102.542969 "/>
<path style=" stroke:none;fill-rule:nonzero;fill:rgb(11.764706%,70.980392%,22.745098%);fill-opacity:1;" d="M 91.898438 113.070312 L 90.144531 110.027344 L 91.898438 106.976562 L 93.105469 104.894531 L 87.183594 104.894531 L 85.421875 101.851562 L 84.214844 99.765625 L 83.015625 101.851562 L 81.253906 104.894531 L 75.332031 104.894531 L 76.535156 106.976562 L 78.292969 110.027344 L 76.535156 113.070312 L 75.332031 115.15625 L 81.253906 115.15625 L 83.015625 118.199219 L 84.214844 120.289062 L 85.421875 118.199219 L 87.183594 115.15625 L 93.105469 115.15625 Z M 91.898438 113.070312 "/>
<path style=" stroke:none;fill-rule:nonzero;fill:rgb(80.784314%,6.666667%,14.901961%);fill-opacity:1;" d="M 90.699219 106.285156 L 86.378906 106.285156 L 84.214844 102.542969 L 82.0625 106.285156 L 77.738281 106.285156 L 79.898438 110.027344 L 77.738281 113.765625 L 82.0625 113.765625 L 84.214844 117.503906 L 86.378906 113.765625 L 90.699219 113.765625 L 88.539062 110.027344 Z M 90.699219 106.285156 "/>
</g>
</svg>
