<?xml version="1.0" encoding="UTF-8"?>
<svg xmlns="http://www.w3.org/2000/svg" xmlns:xlink="http://www.w3.org/1999/xlink" width="200px" height="200px" viewBox="0 0 200 200" version="1.1">
<g id="surface1">
<path style=" stroke:none;fill-rule:nonzero;fill:rgb(86.666667%,18.039216%,26.666667%);fill-opacity:1;" d="M 200 150 C 200 162.273438 190.050781 172.222656 177.777344 172.222656 L 22.222656 172.222656 C 9.949219 172.222656 0 162.273438 0 150 L 0 50 C 0 37.726562 9.949219 27.777344 22.222656 27.777344 L 177.777344 27.777344 C 190.050781 27.777344 200 37.726562 200 50 Z M 200 150 "/>
<path style=" stroke:none;fill-rule:nonzero;fill:rgb(93.333333%,93.333333%,93.333333%);fill-opacity:1;" d="M 3.082031 161.109375 L 196.921875 161.109375 C 198.828125 157.828125 200 154.066406 200 150 L 0 150 C 0 154.066406 1.171875 157.828125 3.082031 161.109375 Z M 0 127.777344 L 200 127.777344 L 200 138.890625 L 0 138.890625 Z M 0 105.554688 L 200 105.554688 L 200 116.667969 L 0 116.667969 Z M 0 83.332031 L 200 83.332031 L 200 94.445312 L 0 94.445312 Z M 0 61.109375 L 200 61.109375 L 200 72.222656 L 0 72.222656 Z M 3.082031 38.890625 C 1.171875 42.167969 0 45.933594 0 50 L 200 50 C 200 45.933594 198.828125 42.167969 196.917969 38.890625 Z M 3.082031 38.890625 "/>
<path style=" stroke:none;fill-rule:nonzero;fill:rgb(0.392157%,0%,40%);fill-opacity:1;" d="M 100 27.777344 L 22.222656 27.777344 C 9.949219 27.777344 0 37.726562 0 50 L 0 105.554688 L 100 105.554688 Z M 100 27.777344 "/>
<path style=" stroke:none;fill-rule:nonzero;fill:rgb(100%,80%,30.196078%);fill-opacity:1;" d="M 52.964844 95.738281 C 36.910156 95.738281 23.890625 82.722656 23.890625 66.667969 C 23.890625 50.609375 36.90625 37.59375 52.960938 37.59375 C 56.933594 37.59375 60.722656 38.40625 64.171875 39.84375 C 58.644531 35.765625 51.839844 33.332031 44.445312 33.332031 C 26.039062 33.332031 11.109375 48.261719 11.109375 66.667969 C 11.109375 85.078125 26.039062 100 44.445312 100 C 51.839844 100 58.644531 97.566406 64.171875 93.488281 C 60.722656 94.933594 56.9375 95.738281 52.964844 95.738281 Z M 52.964844 95.738281 "/>
<path style=" stroke:none;fill-rule:nonzero;fill:rgb(100%,80%,30.196078%);fill-opacity:1;" d="M 71.789062 49.050781 L 73.644531 58.050781 L 79.214844 50.746094 L 76.984375 59.65625 L 85.179688 55.496094 L 79.292969 62.554688 L 88.484375 62.359375 L 80.121094 66.171875 L 88.484375 69.984375 L 79.292969 69.789062 L 85.179688 76.851562 L 76.984375 72.6875 L 79.214844 81.605469 L 73.644531 74.292969 L 71.789062 83.300781 L 69.933594 74.292969 L 64.359375 81.605469 L 66.59375 72.6875 L 58.398438 76.851562 L 64.277344 69.789062 L 55.09375 69.984375 L 63.457031 66.171875 L 55.09375 62.359375 L 64.277344 62.554688 L 58.398438 55.496094 L 66.59375 59.65625 L 64.359375 50.746094 L 69.933594 58.050781 Z M 71.789062 49.050781 "/>
</g>
</svg>
