<?xml version="1.0" encoding="UTF-8"?>
<svg xmlns="http://www.w3.org/2000/svg" xmlns:xlink="http://www.w3.org/1999/xlink" width="200px" height="px" viewBox="0 0 200 200" version="1.1">
<g id="surface1">
<path style=" stroke:none;fill-rule:nonzero;fill:rgb(87.058824%,16.078431%,6.27451%);fill-opacity:1;" d="M 200 150 C 200 162.273438 190.050781 172.222656 177.777344 172.222656 L 22.222656 172.222656 C 9.949219 172.222656 0 162.273438 0 150 L 0 50 C 0 37.726562 9.949219 27.777344 22.222656 27.777344 L 177.777344 27.777344 C 190.050781 27.777344 200 37.726562 200 50 Z M 200 150 "/>
<path style=" stroke:none;fill-rule:nonzero;fill:rgb(100%,87.058824%,0.784314%);fill-opacity:1;" d="M 61.867188 49.871094 L 65.957031 51.851562 L 69.226562 48.707031 L 68.609375 53.207031 L 72.609375 55.351562 L 68.144531 56.148438 L 67.34375 60.617188 L 65.199219 56.617188 L 60.699219 57.234375 L 63.84375 53.960938 Z M 87.785156 66.210938 L 85.804688 70.292969 L 88.949219 73.570312 L 84.457031 72.949219 L 82.3125 76.957031 L 81.511719 72.484375 L 77.039062 71.683594 L 81.042969 69.539062 L 80.421875 65.042969 L 83.699219 68.1875 Z M 82.464844 87.207031 L 83.957031 91.496094 L 88.496094 91.589844 L 84.878906 94.328125 L 86.195312 98.679688 L 82.464844 96.082031 L 78.738281 98.679688 L 80.050781 94.328125 L 76.433594 91.589844 L 80.972656 91.496094 Z M 61.867188 105.429688 L 65.957031 107.40625 L 69.226562 104.261719 L 68.609375 108.761719 L 72.609375 110.90625 L 68.144531 111.707031 L 67.34375 116.171875 L 65.199219 112.171875 L 60.699219 112.789062 L 63.84375 109.515625 Z M 38.890625 60.839844 L 44.050781 75.679688 L 59.75 76 L 47.234375 85.488281 L 51.785156 100.523438 L 38.890625 91.550781 L 25.996094 100.523438 L 30.542969 85.488281 L 18.027344 76 L 33.726562 75.679688 Z M 38.890625 60.839844 "/>
</g>
</svg>
