<?xml version="1.0" encoding="UTF-8"?>
<svg xmlns="http://www.w3.org/2000/svg" xmlns:xlink="http://www.w3.org/1999/xlink" width="200px" height="px" viewBox="0 0 200 200" version="1.1">
<g id="surface1">
<path style=" stroke:none;fill-rule:nonzero;fill:rgb(0%,17.647059%,38.431373%);fill-opacity:1;" d="M 200 150 C 200 162.273438 190.050781 172.222656 177.777344 172.222656 L 22.222656 172.222656 C 9.949219 172.222656 0 162.273438 0 150 L 0 50 C 0 37.726562 9.949219 27.777344 22.222656 27.777344 L 177.777344 27.777344 C 190.050781 27.777344 200 37.726562 200 50 Z M 200 150 "/>
<path style=" stroke:none;fill-rule:nonzero;fill:rgb(86.666667%,18.039216%,26.666667%);fill-opacity:1;" d="M 177.777344 27.777344 L 111.109375 27.777344 L 111.109375 88.890625 L 200 88.890625 L 200 50 C 200 37.726562 190.050781 27.777344 177.777344 27.777344 Z M 177.777344 27.777344 "/>
<path style=" stroke:none;fill-rule:nonzero;fill:rgb(80.784314%,7.058824%,14.509804%);fill-opacity:1;" d="M 22.222656 172.222656 L 88.890625 172.222656 L 88.890625 111.109375 L 0 111.109375 L 0 150 C 0 162.273438 9.949219 172.222656 22.222656 172.222656 Z M 22.222656 172.222656 "/>
<path style=" stroke:none;fill-rule:nonzero;fill:rgb(93.333333%,93.333333%,93.333333%);fill-opacity:1;" d="M 200 83.332031 L 116.667969 83.332031 L 116.667969 27.777344 L 83.332031 27.777344 L 83.332031 83.332031 L 0 83.332031 L 0 116.667969 L 83.332031 116.667969 L 83.332031 172.222656 L 116.667969 172.222656 L 116.667969 116.667969 L 200 116.667969 Z M 200 83.332031 "/>
<path style=" stroke:none;fill-rule:nonzero;fill:rgb(0%,17.647059%,38.431373%);fill-opacity:1;" d="M 100.121094 88.582031 L 89.472656 88.582031 L 91.332031 90.378906 L 91.332031 99.570312 L 100.121094 99.570312 Z M 100.121094 110.449219 C 101.539062 108.90625 102.503906 108.964844 106.511719 108.964844 C 108.648438 108.964844 108.898438 107.511719 108.898438 104.683594 L 108.898438 99.570312 L 100.121094 99.570312 Z M 100.121094 110.449219 "/>
<path style=" stroke:none;fill-rule:nonzero;fill:rgb(80.784314%,7.058824%,14.509804%);fill-opacity:1;" d="M 100.121094 110.449219 C 98.707031 108.90625 97.738281 108.964844 93.726562 108.964844 C 91.582031 108.964844 91.332031 107.511719 91.332031 104.683594 L 91.332031 99.570312 L 100.121094 99.570312 Z M 100.121094 88.582031 L 110.761719 88.582031 L 108.898438 90.378906 L 108.898438 99.570312 L 100.121094 99.570312 Z M 100.121094 88.582031 "/>
<path style=" stroke:none;fill-rule:nonzero;fill:rgb(100%,100%,100%);fill-opacity:1;" d="M 101.640625 109.316406 L 101.640625 88.582031 L 98.601562 88.582031 L 98.601562 109.332031 C 99.117188 109.511719 99.667969 109.929688 100.121094 110.449219 C 100.511719 109.976562 101.15625 109.496094 101.640625 109.316406 Z M 101.640625 109.316406 "/>
<path style=" stroke:none;fill-rule:nonzero;fill:rgb(100%,100%,100%);fill-opacity:1;" d="M 91.332031 98.023438 L 108.894531 98.023438 L 108.894531 101.0625 L 91.332031 101.0625 Z M 91.332031 98.023438 "/>
<path style=" stroke:none;fill-rule:nonzero;fill:rgb(0%,17.647059%,38.431373%);fill-opacity:1;" d="M 100.121094 97.535156 L 105.890625 91.378906 L 105.890625 93.238281 L 106.957031 92.34375 L 106.957031 102.628906 C 106.957031 106.445312 100.945312 106.066406 100.117188 104.304688 C 99.289062 106.066406 93.273438 106.445312 93.273438 102.628906 L 93.273438 92.34375 L 94.34375 93.238281 L 94.34375 91.378906 Z M 100.121094 97.535156 "/>
<path style=" stroke:none;fill-rule:nonzero;fill:rgb(100%,100%,100%);fill-opacity:1;" d="M 100.121094 104.128906 C 97.355469 105.609375 95.5625 104.445312 95.5625 103.027344 L 95.5625 101.261719 C 94.488281 101.261719 93.277344 100.710938 93.277344 100.359375 L 93.277344 98.84375 C 93.277344 99.292969 95.078125 99.707031 95.5625 99.707031 L 95.5625 94.382812 L 96.5625 95.179688 L 96.5625 93.792969 L 98.082031 95.351562 L 98.082031 96.4375 L 97.078125 95.589844 L 97.078125 100.089844 C 98.117188 100.089844 98.929688 100.707031 100.121094 100.707031 C 101.3125 100.707031 102.121094 100.089844 103.160156 100.089844 L 103.160156 95.589844 L 102.160156 96.4375 L 102.160156 95.351562 L 103.679688 93.792969 L 103.679688 95.179688 L 104.683594 94.382812 L 104.683594 99.707031 C 105.167969 99.707031 106.960938 99.289062 106.960938 98.84375 L 106.960938 100.359375 C 106.960938 100.710938 105.75 101.261719 104.683594 101.261719 L 104.683594 103.027344 C 104.683594 104.445312 102.882812 105.617188 100.121094 104.128906 L 100.121094 102.578125 C 101.605469 103.4375 103.160156 103.648438 103.160156 102.714844 L 103.160156 101.609375 C 102.121094 101.609375 101.3125 102.234375 100.121094 102.234375 C 98.929688 102.234375 98.117188 101.609375 97.078125 101.609375 L 97.078125 102.714844 C 97.078125 103.648438 98.640625 103.4375 100.121094 102.578125 Z M 100.121094 104.128906 "/>
<path style=" stroke:none;fill-rule:nonzero;fill:rgb(80.784314%,7.058824%,14.509804%);fill-opacity:1;" d="M 102.160156 95.355469 L 102.160156 96.445312 L 103.160156 95.59375 L 103.160156 100.09375 C 102.121094 100.09375 101.3125 100.710938 100.121094 100.710938 C 98.929688 100.710938 98.117188 100.09375 97.078125 100.09375 L 97.078125 95.59375 L 98.082031 96.445312 L 98.082031 95.355469 L 100.121094 97.539062 Z M 102.160156 95.355469 "/>
<path style=" stroke:none;fill-rule:nonzero;fill:rgb(80.784314%,7.058824%,14.509804%);fill-opacity:1;" d="M 93.277344 100.367188 L 93.277344 102.628906 C 93.277344 106.445312 99.292969 106.066406 100.121094 104.304688 C 100.945312 106.066406 106.960938 106.445312 106.960938 102.628906 L 106.960938 100.367188 C 106.960938 100.707031 105.75 101.261719 104.683594 101.261719 L 104.683594 103.027344 C 104.683594 104.4375 102.882812 105.609375 100.121094 104.128906 C 97.355469 105.609375 95.5625 104.445312 95.5625 103.027344 L 95.5625 101.261719 C 94.488281 101.261719 93.277344 100.710938 93.277344 100.367188 Z M 93.277344 100.367188 "/>
<path style=" stroke:none;fill-rule:nonzero;fill:rgb(0%,17.647059%,38.431373%);fill-opacity:1;" d="M 102.433594 84.898438 C 102.539062 84.621094 102.644531 84.222656 102.746094 83.855469 C 101.957031 83.753906 101.003906 83.6875 100.121094 83.6875 C 99.234375 83.6875 98.285156 83.753906 97.496094 83.855469 C 97.59375 84.222656 97.699219 84.621094 97.804688 84.898438 C 97.871094 85.109375 97.460938 85.628906 95.976562 85.539062 C 94.707031 85.464844 92.851562 85.589844 91.234375 85.867188 C 91.503906 86.285156 91.605469 86.367188 91.578125 86.6875 C 91.539062 87.050781 90.6875 87.390625 89.207031 87.601562 C 87.722656 87.804688 87.148438 89.34375 86.640625 91.550781 C 86.054688 91.304688 85.132812 91.070312 84.554688 90.988281 C 84.890625 89.554688 86.039062 86.300781 87.476562 85.972656 C 87.128906 85.195312 87.210938 84.804688 88.550781 84.179688 C 90 83.5 92.457031 83.089844 95.160156 82.988281 C 94.988281 82.332031 95.160156 82.070312 96.011719 81.707031 C 96.738281 81.390625 97.894531 81.148438 100.128906 81.148438 C 102.351562 81.148438 103.511719 81.390625 104.234375 81.707031 C 105.089844 82.066406 105.253906 82.332031 105.089844 82.988281 C 107.789062 83.089844 110.25 83.5 111.695312 84.179688 C 113.035156 84.800781 113.117188 85.195312 112.765625 85.972656 C 114.199219 86.300781 115.355469 89.554688 115.683594 90.988281 C 115.121094 91.070312 114.183594 91.3125 113.609375 91.550781 C 113.101562 89.34375 112.523438 87.804688 111.035156 87.601562 C 109.550781 87.390625 108.695312 87.050781 108.660156 86.6875 C 108.621094 86.367188 108.734375 86.285156 109 85.867188 C 107.390625 85.589844 105.523438 85.464844 104.261719 85.539062 C 102.785156 85.628906 102.371094 85.105469 102.433594 84.898438 Z M 102.433594 84.898438 "/>
<path style=" stroke:none;fill-rule:nonzero;fill:rgb(60%,41.960784%,21.960784%);fill-opacity:1;" d="M 100.121094 98.054688 L 107.195312 92 L 107.351562 92.183594 L 100.121094 98.367188 Z M 100.121094 97.378906 L 106.09375 90.894531 L 106.265625 91.066406 L 100.121094 97.734375 Z M 100.121094 96.488281 L 104.867188 89.9375 L 105.054688 90.078125 L 100.121094 96.898438 Z M 100.121094 98.054688 L 93.050781 92 L 92.894531 92.183594 L 100.121094 98.367188 Z M 100.121094 98.054688 "/>
<path style=" stroke:none;fill-rule:nonzero;fill:rgb(60%,41.960784%,21.960784%);fill-opacity:1;" d="M 100.121094 97.378906 L 94.148438 90.894531 L 93.976562 91.066406 L 100.121094 97.734375 Z M 100.121094 96.488281 L 95.371094 89.9375 L 95.179688 90.078125 L 100.121094 96.898438 Z M 100.121094 96.488281 "/>
<path style=" stroke:none;fill-rule:nonzero;fill:rgb(100%,80.784314%,27.45098%);fill-opacity:1;" d="M 107.078125 91.910156 L 108.09375 91.378906 L 107.417969 92.304688 C 107.359375 92.355469 107.035156 91.957031 107.078125 91.910156 Z M 105.964844 90.828125 L 106.921875 90.179688 L 106.355469 91.179688 C 106.300781 91.226562 105.921875 90.871094 105.964844 90.828125 Z M 104.738281 89.871094 L 105.609375 89.109375 L 105.15625 90.171875 C 105.109375 90.238281 104.699219 89.929688 104.738281 89.871094 Z M 93.160156 91.910156 L 92.140625 91.378906 L 92.820312 92.304688 C 92.878906 92.355469 93.207031 91.957031 93.160156 91.910156 Z M 94.265625 90.828125 L 93.320312 90.179688 L 93.894531 91.179688 C 93.9375 91.226562 94.316406 90.871094 94.265625 90.828125 Z M 95.5 89.871094 L 94.632812 89.109375 L 95.078125 90.171875 C 95.128906 90.238281 95.539062 89.929688 95.5 89.871094 Z M 95.5 89.871094 "/>
<path style=" stroke:none;fill-rule:nonzero;fill:rgb(100%,100%,100%);fill-opacity:1;" d="M 98.40625 96.511719 C 98.683594 96.285156 99.464844 95.90625 99.929688 96.148438 C 100.285156 95.738281 101.128906 95.382812 101.589844 95.621094 L 102.566406 98.640625 C 102.292969 98.832031 101.746094 98.734375 101.398438 98.945312 C 101.304688 99 101.039062 99.148438 100.996094 99.261719 C 100.828125 99.1875 100.449219 99.226562 100.183594 99.316406 C 99.9375 99.390625 99.765625 99.644531 99.476562 99.683594 Z M 98.40625 96.511719 "/>
<path style=" stroke:none;fill-rule:nonzero;fill:rgb(0%,0%,0%);fill-opacity:1;" d="M 99.488281 99.710938 L 98.394531 96.515625 L 98.398438 96.5 C 98.699219 96.253906 99.476562 95.90625 99.9375 96.140625 C 100.261719 95.75 101.132812 95.367188 101.601562 95.609375 L 102.589844 98.640625 C 102.445312 98.753906 102.238281 98.785156 102.023438 98.8125 C 101.804688 98.832031 101.582031 98.867188 101.417969 98.964844 C 101.292969 99.039062 101.054688 99.171875 101.015625 99.277344 C 100.839844 99.210938 100.445312 99.265625 100.199219 99.339844 C 100.09375 99.371094 100.003906 99.4375 99.910156 99.503906 C 99.785156 99.59375 99.65625 99.683594 99.488281 99.710938 Z M 98.429688 96.515625 L 99.5 99.683594 C 99.640625 99.648438 99.761719 99.5625 99.882812 99.472656 C 99.984375 99.398438 100.070312 99.339844 100.183594 99.300781 C 100.433594 99.214844 100.816406 99.167969 101.003906 99.25 C 101.023438 99.144531 101.261719 99.011719 101.371094 98.945312 C 101.566406 98.828125 101.792969 98.800781 102.015625 98.773438 C 102.226562 98.75 102.429688 98.722656 102.554688 98.628906 L 101.566406 95.628906 C 101.148438 95.410156 100.3125 95.738281 99.9375 96.160156 C 99.488281 95.929688 98.726562 96.285156 98.429688 96.515625 Z M 98.429688 96.515625 "/>
<path style=" stroke:none;fill-rule:nonzero;fill:rgb(32.941176%,57.647059%,20.392157%);fill-opacity:1;" d="M 109.484375 112.667969 C 110.390625 112.660156 111.589844 112.90625 111.964844 113.042969 C 111.582031 112.734375 111.003906 112.445312 110.382812 112.214844 C 111.210938 112.351562 111.421875 112.488281 111.976562 112.628906 C 112.359375 112.738281 112.421875 112.777344 112.4375 113.332031 C 112.445312 113.707031 112.445312 114.1875 112.671875 113.410156 C 112.882812 112.710938 112.960938 112.609375 112.589844 112.378906 C 112.195312 112.105469 111.6875 111.851562 111.140625 111.628906 C 112.207031 111.90625 113.070312 112.25 113.589844 112.589844 C 113.328125 112.1875 112.910156 111.699219 112.277344 111.316406 C 112.898438 111.460938 113.734375 111.800781 114.316406 112.117188 C 114.039062 111.746094 113.550781 111.121094 112.960938 110.84375 C 113.90625 111.042969 114.910156 111.355469 115.457031 111.660156 C 114.929688 110.964844 114.328125 110.355469 113.539062 110.117188 C 114.589844 110.246094 115.582031 110.5625 116.035156 110.832031 C 115.421875 110.25 114.785156 109.632812 114.15625 109.421875 C 115.015625 109.539062 115.816406 109.761719 116.285156 109.972656 C 115.699219 109.390625 114.714844 108.894531 113.789062 108.75 C 114.4375 108.761719 115.273438 108.820312 115.976562 108.964844 C 115.390625 108.589844 114.378906 108.332031 113.933594 108.367188 C 115.003906 108.121094 116.210938 108.15625 117.527344 108.589844 C 116.972656 108.246094 116.003906 107.851562 115.066406 107.640625 C 115.589844 107.609375 116.351562 107.488281 116.839844 107.554688 C 116.3125 107.378906 115.011719 107.117188 114.429688 107.148438 C 115.484375 106.839844 116.535156 106.640625 117.167969 106.523438 C 116.0625 106.449219 114.816406 106.523438 113.710938 106.699219 C 114.933594 105.660156 115.820312 105.660156 116.617188 105.527344 C 117.40625 105.390625 118 105.214844 117.179688 105.132812 C 116.644531 105.082031 116.210938 105.039062 115.839844 105.035156 C 116.699219 104.773438 117.789062 104.222656 118.148438 104.027344 C 118.511719 103.839844 119.394531 103.199219 118.445312 103.628906 C 117.496094 104.0625 116.132812 104.128906 114.898438 104.265625 C 114.371094 104.328125 113.988281 104.429688 113.628906 104.621094 C 114.292969 104.238281 115.042969 103.832031 115.828125 103.457031 C 116.609375 103.078125 116.4375 102.949219 117.121094 103.726562 C 117.449219 104.109375 117.429688 103.726562 117 102.738281 C 116.65625 101.972656 116.359375 102.328125 115.609375 102.621094 C 115.332031 102.734375 114.976562 102.890625 114.566406 103.109375 C 115 102.59375 116.5 100.859375 116.746094 100.566406 C 117.011719 100.273438 117.40625 100.617188 117.917969 100.945312 C 118.40625 101.277344 118.238281 100.960938 117.773438 100.421875 C 117.300781 99.890625 117.078125 99.804688 116.765625 100.066406 C 116.460938 100.328125 114.960938 101.277344 114.121094 102.070312 C 115.65625 100.621094 117.433594 98.984375 117.839844 98.523438 C 116.960938 98.996094 116.171875 99.523438 115.464844 100.066406 C 115.710938 99.722656 116.15625 99.078125 116.390625 98.804688 C 116.035156 99.042969 115.542969 99.300781 115.265625 99.5625 C 115.679688 98.828125 116.109375 98.15625 116.171875 98.039062 C 116.265625 97.851562 116.367188 97.804688 116.511719 97.792969 L 117.289062 97.726562 C 117.734375 97.695312 117.5625 97.601562 117.367188 97.550781 C 116.132812 97.226562 116.183594 97.367188 115.90625 97.632812 C 115.707031 97.839844 115.433594 98.15625 115.148438 98.523438 C 115.460938 97.5625 116.394531 96.667969 116.542969 96.394531 C 115.578125 96.929688 115.066406 97.34375 114.722656 97.785156 C 115.160156 97.070312 116.542969 95.984375 116.960938 95.550781 C 116.535156 95.722656 115.632812 96.171875 115.394531 96.449219 C 115.621094 96.042969 115.839844 95.621094 116.039062 95.1875 C 115.285156 95.667969 114.738281 96.304688 114.304688 97.042969 C 114.351562 96.867188 114.421875 96.601562 114.496094 96.378906 C 114.738281 95.90625 115.40625 95.253906 115.75 94.871094 C 116.101562 94.496094 116.179688 94.390625 117.160156 95.011719 C 117.015625 94.582031 116.820312 94.285156 116.65625 94.042969 C 116.371094 93.617188 116.238281 93.800781 115.851562 94.121094 C 115.632812 94.292969 115.433594 94.539062 115.042969 94.878906 C 115.464844 93.789062 115.960938 92.621094 116.222656 91.867188 C 115.515625 92.554688 114.964844 93.5 114.523438 94.5625 C 114.554688 93.800781 114.972656 92.246094 114.898438 91.449219 C 114.566406 91.867188 114.210938 92.578125 114.042969 93.40625 C 114.023438 92.566406 114.011719 91.527344 113.804688 90.933594 C 113.867188 91.449219 113.332031 92.632812 113.195312 93.460938 C 112.859375 92.671875 112.496094 91.910156 112.285156 91.382812 C 112.300781 91.792969 112.417969 92.746094 112.59375 93.867188 C 112.316406 93.003906 111.3125 92.105469 111.277344 91.417969 C 111.25 92.417969 111.972656 94.109375 112.050781 94.59375 C 112.0625 94.75 112.121094 94.984375 112.179688 95.25 C 111.832031 94.695312 111.011719 93.695312 110.792969 93.039062 C 110.792969 93.449219 110.949219 94.171875 111.027344 94.621094 C 110.59375 94.222656 110.289062 94.457031 109.554688 95.839844 C 109.792969 95.765625 110.070312 95.460938 110.277344 95.320312 C 110.484375 95.183594 110.679688 95.035156 110.898438 95.390625 C 111.179688 95.84375 111.929688 96.890625 112.332031 98.222656 C 112.214844 97.839844 111.523438 96.9375 111.277344 96.542969 C 111.332031 96.734375 111.457031 97.355469 111.539062 97.714844 C 111.207031 96.8125 110.859375 96.167969 110.609375 95.800781 C 110.589844 96.25 110.921875 97.515625 110.972656 98.050781 C 110.777344 97.589844 110.5625 97.183594 110.390625 96.839844 C 110.515625 97.195312 110.707031 98.460938 110.683594 99.109375 C 110.398438 98.601562 110.109375 98.183594 109.894531 97.871094 C 110.070312 98.394531 110.222656 99.429688 110.25 100.023438 C 110.148438 99.820312 110.066406 99.671875 110 99.566406 C 109.65625 99.011719 109.429688 100.015625 109.222656 100.535156 C 109.011719 101.050781 109.121094 100.976562 109.359375 100.621094 C 109.722656 100.070312 109.679688 100.144531 109.890625 100.746094 C 110.023438 101.101562 110.394531 101.949219 110.699219 103.0625 C 110.398438 102.570312 109.984375 101.921875 109.761719 101.4375 C 109.535156 100.957031 109.515625 100.984375 109.761719 101.945312 C 109.917969 102.570312 110.3125 103.738281 110.148438 104.984375 C 109.929688 104.195312 109.640625 103.25 109.320312 102.398438 C 109.367188 102.9375 109.433594 103.960938 109.433594 104.394531 C 109.300781 104.144531 109.144531 103.9375 108.972656 103.785156 C 109.199219 104.511719 109.253906 105.773438 109.253906 106.5625 C 109.132812 106.0625 108.960938 105.589844 108.789062 105.289062 C 108.773438 105.859375 108.933594 107.207031 109.070312 107.820312 C 108.957031 107.34375 108.773438 106.878906 108.570312 106.503906 C 108.6875 107.148438 108.726562 108.210938 108.539062 108.898438 C 108.503906 108.542969 108.398438 108.222656 108.273438 107.851562 C 108.214844 108.171875 108.140625 109.109375 107.910156 109.515625 C 108.039062 108.921875 108.050781 108.367188 108 108.027344 C 107.828125 108.679688 107.601562 109.277344 107.339844 109.777344 C 107.421875 109.472656 107.539062 108.890625 107.570312 108.3125 C 107.496094 108.671875 107.25 108.964844 107.117188 109.277344 C 107.183594 108.765625 107.199219 108.339844 107.179688 108.140625 C 106.917969 109.003906 106.542969 109.628906 106.042969 110.3125 C 106.3125 109.609375 106.382812 108.867188 106.382812 108.417969 C 105.9375 109.199219 105.898438 109.535156 105.195312 110.464844 C 105.566406 109.6875 105.5 109.035156 105.421875 108.667969 C 105.367188 108.867188 105.121094 109.445312 104.765625 110.066406 C 104.695312 109.628906 104.792969 108.523438 104.933594 108.210938 C 104.628906 108.417969 104.210938 109.011719 104.210938 109.457031 C 104.101562 109.003906 103.921875 108.605469 103.65625 108.316406 C 103.894531 109.859375 103.804688 111.207031 102.878906 111.820312 C 100.8125 113.179688 99.0625 116.183594 96.535156 117.300781 C 96.710938 117.398438 97.121094 117.75 97.332031 117.996094 C 99.75 116.929688 101.378906 114.523438 103.25 113.179688 C 104.140625 112.699219 106.179688 113.773438 108.429688 113.1875 C 109.292969 112.964844 110.984375 113.464844 111.738281 113.777344 C 111.382812 113.292969 110.699219 112.90625 109.484375 112.667969 Z M 109.484375 112.667969 "/>
<path style=" stroke:none;fill-rule:nonzero;fill:rgb(32.941176%,57.647059%,20.392157%);fill-opacity:1;" d="M 92.082031 111.105469 C 92.5 111.035156 93.640625 111.042969 94.542969 111.195312 C 93.945312 110.964844 94.328125 109.539062 93.601562 109.003906 C 94.34375 109.351562 94.660156 109.226562 95.054688 109.292969 L 95.195312 109.332031 C 95.160156 109.148438 95.210938 108.734375 95.367188 108.511719 C 95.464844 108.890625 95.882812 108.972656 96.246094 109.25 C 96.300781 109.289062 96.359375 109.34375 96.429688 109.40625 C 96.445312 108.957031 97.09375 108.367188 97.167969 108.070312 C 97.304688 108.472656 97.671875 108.753906 97.804688 109.320312 C 98.148438 110.777344 97.011719 111.082031 97.429688 112.121094 C 99.496094 113.476562 101.332031 116.183594 103.855469 117.304688 C 103.679688 117.40625 103.265625 117.753906 103.0625 118 C 99.710938 116.515625 97.550781 112.222656 94.484375 112.011719 L 94.25 112.105469 C 93.488281 112.472656 92.777344 112.75 92.105469 112.605469 C 91.433594 112.476562 90.828125 112.683594 90.273438 112.9375 C 91.121094 111.621094 91.5625 111.246094 92.082031 111.105469 C 91.644531 111.277344 90.785156 111.410156 90.148438 111.144531 C 89.773438 112.0625 88.882812 112.320312 88.089844 112.421875 C 87.292969 112.535156 86.710938 112.851562 86.460938 113.289062 C 86.378906 112.890625 86.417969 112.1875 86.515625 111.988281 C 86.171875 111.945312 85.753906 111.933594 85.253906 112.015625 C 85.726562 111.832031 86.15625 110.496094 87.3125 110.332031 C 87.09375 110.1875 86.90625 110.015625 86.746094 109.789062 C 87.015625 109.945312 87.261719 109.773438 87.761719 109.640625 C 88.011719 109.566406 88.410156 109.515625 88.777344 109.527344 C 88.382812 109.253906 88.089844 108.753906 88.015625 108.394531 C 87.660156 109.472656 86.484375 109.761719 85.789062 109.8125 C 84.957031 109.867188 84.5625 110.140625 84.40625 110.367188 C 84.40625 109.855469 84.570312 109.4375 84.761719 109.160156 C 84.417969 109.195312 84.101562 109.207031 83.921875 109.277344 C 84.070312 108.476562 84.460938 108.003906 84.871094 107.746094 C 84.367188 107.628906 83.667969 106.738281 83.628906 106.105469 C 84.027344 106.566406 85.667969 106.089844 86.464844 106.984375 C 85.960938 106.550781 85.695312 106.003906 85.648438 105.390625 C 85.832031 105.632812 86.226562 105.640625 86.617188 105.859375 C 86.078125 103.90625 84.722656 104.34375 83.921875 103.722656 C 82.90625 102.921875 83.316406 101.539062 82.503906 100.882812 C 82.859375 100.882812 83.15625 100.90625 83.394531 100.964844 C 83.222656 100.542969 83.226562 99.710938 83.246094 99.210938 C 83.4375 99.832031 84.128906 99.75 84.5625 100.355469 C 84.632812 100.183594 84.671875 100.011719 84.644531 99.851562 C 84.957031 100.222656 85.246094 100.542969 85.429688 100.890625 C 85.371094 100.234375 85.640625 99.851562 85.839844 99.671875 C 85.820312 99.90625 85.890625 100.472656 86.148438 100.988281 C 86.410156 101.503906 86.511719 102.09375 86.316406 103.042969 C 86.140625 103.945312 86.503906 104.640625 86.964844 105.300781 C 87.015625 104.90625 86.960938 103.753906 86.839844 103.394531 C 86.714844 103.035156 86.660156 102.429688 86.785156 101.75 C 86.855469 102.027344 87.179688 102.429688 87.527344 102.765625 C 87.617188 102.855469 87.679688 102.972656 87.722656 103.109375 C 87.832031 102.867188 87.90625 102.679688 87.988281 102.472656 C 88.101562 102.160156 86.660156 101.640625 86.738281 100.015625 C 85.773438 99.476562 84.898438 98.761719 84.660156 97.464844 C 84.765625 97.570312 84.960938 97.65625 85.195312 97.746094 C 84.660156 96.949219 84.523438 95.945312 84.710938 95.445312 C 84.839844 95.859375 85.261719 95.964844 85.714844 96.289062 C 85.828125 95.429688 84.917969 94.804688 84.9375 93.976562 C 84.972656 92.667969 85.660156 92.648438 85.898438 91.832031 C 86.089844 92.132812 86.226562 92.410156 86.328125 92.707031 C 86.484375 92.15625 87.148438 91.746094 87.160156 91.328125 C 87.503906 91.828125 87.761719 92.390625 87.570312 92.957031 C 88.023438 92.820312 88.539062 92.917969 88.828125 93.121094 C 87.984375 93.277344 88.035156 94.292969 87.476562 94.554688 C 86.921875 94.816406 85.882812 95.542969 86.144531 96.644531 C 86.488281 97.023438 86.8125 97.628906 86.996094 98.667969 C 87.160156 98.828125 87.3125 99.027344 87.417969 99.261719 C 87.554688 99.027344 87.683594 98.75 87.785156 98.4375 C 87.734375 98.003906 87.160156 97.527344 87.003906 97.105469 C 86.792969 96.542969 87.292969 95.6875 87.09375 94.929688 C 87.367188 95.035156 87.832031 95.207031 88.160156 95.621094 C 88.417969 95.023438 88.910156 94.644531 88.921875 93.640625 C 89.128906 94.035156 89.300781 94.464844 89.410156 94.894531 C 89.714844 94.476562 90.265625 94 90.910156 93.8125 C 90.511719 94.5 90.648438 95.179688 90.632812 95.75 C 90.617188 96.316406 90.601562 97.273438 89.773438 97.90625 C 88.945312 98.550781 88.726562 98.722656 88.550781 100.339844 C 88.898438 99.578125 89.738281 98.988281 89.773438 98.582031 C 89.945312 99.304688 90.082031 99.859375 90.0625 100.355469 C 90.339844 100.027344 90.839844 99.84375 91.429688 99.816406 C 91.011719 100.292969 90.699219 102.179688 89.59375 102.398438 C 88.496094 102.628906 88.050781 103.746094 87.75 104.199219 C 87.371094 104.773438 87.277344 105.210938 87.65625 105.964844 C 87.640625 105.359375 87.765625 104.707031 87.957031 104.320312 C 88.320312 103.589844 89.109375 103.285156 89.160156 102.765625 C 89.265625 103.3125 89.320312 103.746094 89.300781 104.105469 C 89.855469 102.984375 91.027344 103.304688 91.355469 102.976562 C 91.128906 103.273438 90.894531 103.683594 90.785156 104.292969 C 90.683594 104.894531 90.214844 105.460938 89.5625 105.777344 C 89.050781 106.023438 88.605469 106.0625 88.339844 106.589844 C 88.273438 106.898438 88.539062 107.160156 88.539062 107.632812 C 88.566406 107.460938 88.617188 107.300781 88.695312 107.1875 C 89.011719 106.734375 89.214844 106.390625 89.214844 106.132812 C 89.910156 106.820312 90.0625 107.5 89.839844 108.222656 C 89.617188 108.957031 89.449219 109.542969 89.898438 110.121094 C 90.167969 110.351562 90.476562 110.515625 90.765625 110.605469 C 91.132812 110.238281 90.707031 109.792969 90.289062 109.359375 C 89.871094 108.933594 89.910156 107.917969 90.253906 107.5 C 90.601562 107.070312 90.898438 106.632812 90.878906 106.253906 C 91.132812 106.476562 91.410156 106.882812 91.496094 107.105469 C 91.628906 106.773438 91.820312 106.476562 92.082031 106.316406 C 92.140625 106.921875 92.535156 107.199219 92.535156 107.855469 C 92.710938 107.460938 93 107.117188 93.398438 106.988281 C 93.3125 107.320312 93.617188 107.828125 93.660156 108.144531 C 93.695312 108.394531 93.660156 108.679688 93.539062 108.988281 C 93.417969 109.316406 93.199219 109.648438 92.695312 109.90625 C 92.535156 109.984375 92.285156 110.0625 92.035156 110.179688 C 92.621094 110.101562 93.695312 110.292969 93.9375 110.734375 C 93.5 110.566406 92.550781 110.917969 92.082031 111.105469 Z M 92.082031 111.105469 "/>
<path style=" stroke:none;fill-rule:nonzero;fill:rgb(80.784314%,7.058824%,14.509804%);fill-opacity:1;" d="M 100.667969 114.929688 C 100.554688 114.828125 100.394531 114.785156 100.121094 114.785156 C 99.855469 114.785156 99.695312 114.832031 99.582031 114.929688 C 98.496094 114.554688 97.789062 114.714844 97.789062 115.054688 L 97.789062 116.101562 C 97.789062 116.277344 98.1875 116.5 99.660156 116.144531 C 99.773438 116.210938 99.890625 116.265625 100.121094 116.265625 C 100.359375 116.265625 100.496094 116.210938 100.605469 116.132812 L 100.605469 116.140625 C 102.082031 116.5 102.484375 116.273438 102.484375 116.09375 L 102.484375 115.050781 C 102.484375 114.707031 101.773438 114.539062 100.667969 114.929688 Z M 100.667969 114.929688 "/>
<path style=" stroke:none;fill-rule:nonzero;fill:rgb(80.784314%,7.058824%,14.509804%);fill-opacity:1;" d="M 102.371094 114.882812 C 102.828125 114.9375 103.351562 115.015625 103.695312 115.1875 C 103.644531 115.417969 103.535156 116.25 103.535156 116.4375 C 103.273438 116.265625 102.722656 116.082031 102.378906 116.050781 L 102.378906 114.882812 Z M 97.898438 114.882812 C 97.445312 114.9375 96.929688 115.015625 96.578125 115.1875 C 96.632812 115.417969 96.746094 116.25 96.746094 116.4375 C 97 116.265625 97.554688 116.082031 97.894531 116.050781 L 97.894531 114.882812 Z M 97.898438 114.882812 "/>
<path style=" stroke:none;fill-rule:nonzero;fill:rgb(80.784314%,7.058824%,14.509804%);fill-opacity:1;" d="M 100.121094 113.804688 C 103.273438 113.804688 105.804688 113.996094 107.820312 114.429688 C 107.578125 114.617188 107.359375 114.867188 107.199219 114.988281 C 107.015625 115.144531 107.082031 115.578125 107.5 115.949219 C 107.917969 116.304688 108.929688 116.621094 109.933594 116.183594 L 110.511719 115.929688 C 110.226562 116.167969 109.996094 116.484375 110.121094 116.777344 C 110.714844 118.105469 113.003906 116.359375 114.371094 118.035156 C 114.738281 117.566406 115.65625 116.59375 116.035156 116.234375 C 115.253906 115.289062 114.171875 115.445312 113.277344 115.515625 C 113.605469 114.976562 113.640625 114.566406 112.921875 114.054688 C 112.632812 113.84375 111.628906 113.878906 110.707031 114.292969 C 110.871094 113.859375 110.84375 113.148438 109.417969 112.523438 C 107.238281 111.542969 103.542969 111.34375 100.128906 111.34375 C 96.707031 111.34375 93.003906 111.542969 90.828125 112.523438 C 89.398438 113.148438 89.367188 113.859375 89.542969 114.292969 C 88.609375 113.878906 87.617188 113.84375 87.316406 114.054688 C 86.605469 114.566406 86.644531 114.976562 86.972656 115.515625 C 86.070312 115.445312 84.988281 115.289062 84.210938 116.234375 C 84.589844 116.601562 85.511719 117.566406 85.867188 118.035156 C 87.234375 116.355469 89.527344 118.105469 90.117188 116.777344 C 90.25 116.476562 90.015625 116.167969 89.738281 115.929688 L 90.3125 116.183594 C 91.316406 116.621094 92.332031 116.304688 92.746094 115.949219 C 93.160156 115.578125 93.226562 115.144531 93.042969 114.988281 C 92.878906 114.867188 92.671875 114.617188 92.417969 114.429688 C 94.433594 114 96.964844 113.804688 100.121094 113.804688 Z M 100.121094 113.804688 "/>
</g>
</svg>
