<?xml version="1.0" encoding="UTF-8"?>
<svg xmlns="http://www.w3.org/2000/svg" xmlns:xlink="http://www.w3.org/1999/xlink" width="200px" height="200px" viewBox="0 0 200 200" version="1.1">
<g id="surface1">
<path style=" stroke:none;fill-rule:nonzero;fill:rgb(80.784314%,14.509804%,25.098039%);fill-opacity:1;" d="M 177.777344 27.777344 L 22.222656 27.777344 C 9.949219 27.777344 0 37.726562 0 50 L 0 150 C 0 162.273438 9.949219 172.222656 22.222656 172.222656 L 177.777344 172.222656 C 190.050781 172.222656 200 162.273438 200 150 L 200 50 C 200 37.726562 190.050781 27.777344 177.777344 27.777344 Z M 177.777344 27.777344 "/>
<path style=" stroke:none;fill-rule:nonzero;fill:rgb(5.882353%,39.215686%,20%);fill-opacity:1;" d="M 0 50 L 0 150 L 200 150 L 200 50 Z M 0 50 "/>
<path style=" stroke:none;fill-rule:nonzero;fill:rgb(100%,77.254902%,7.843137%);fill-opacity:1;" d="M 82.976562 70.355469 L 93.5 77.996094 L 89.488281 90.332031 L 89.476562 90.359375 L 89.515625 90.332031 L 100 82.714844 L 110.484375 90.332031 L 110.515625 90.359375 L 110.511719 90.332031 L 106.5 77.996094 L 117.023438 70.355469 L 104.015625 70.355469 L 100 57.984375 L 95.984375 70.355469 Z M 82.976562 70.355469 "/>
<path style=" stroke:none;fill-rule:nonzero;fill:rgb(100%,77.254902%,7.843137%);fill-opacity:1;" d="M 145 75.785156 C 144.894531 100.550781 124.789062 120.601562 100 120.601562 C 75.210938 120.601562 55.105469 100.550781 55 75.785156 C 53.964844 79.640625 53.367188 83.671875 53.367188 87.855469 C 53.367188 113.609375 74.246094 134.496094 100.003906 134.496094 C 125.765625 134.496094 146.644531 113.617188 146.644531 87.855469 C 146.640625 83.671875 146.035156 79.640625 145 75.785156 Z M 145 75.785156 "/>
</g>
</svg>
