<?xml version="1.0" encoding="UTF-8"?>
<svg xmlns="http://www.w3.org/2000/svg" xmlns:xlink="http://www.w3.org/1999/xlink" width="200px" height="px" viewBox="0 0 200 200" version="1.1">
<g id="surface1">
<path style=" stroke:none;fill-rule:nonzero;fill:rgb(92.941176%,10.980392%,13.72549%);fill-opacity:1;" d="M 200 150 C 200 162.273438 190.050781 172.222656 177.777344 172.222656 L 22.222656 172.222656 C 9.949219 172.222656 0 162.273438 0 150 L 0 50 C 0 37.726562 9.949219 27.777344 22.222656 27.777344 L 177.777344 27.777344 C 190.050781 27.777344 200 37.726562 200 50 Z M 200 150 "/>
<path style=" stroke:none;fill-rule:nonzero;fill:rgb(1.176471%,30.588235%,63.529412%);fill-opacity:1;" d="M 0 94.445312 L 200 94.445312 L 200 133.332031 L 0 133.332031 Z M 0 94.445312 "/>
<path style=" stroke:none;fill-rule:nonzero;fill:rgb(100%,86.666667%,0%);fill-opacity:1;" d="M 200 94.445312 L 200 50 C 200 37.726562 190.050781 27.777344 177.777344 27.777344 L 22.222656 27.777344 C 9.949219 27.777344 0 37.726562 0 50 L 0 94.445312 Z M 200 94.445312 "/>
<path style=" stroke:none;fill-rule:nonzero;fill:rgb(100%,86.666667%,0%);fill-opacity:1;" d="M 127.777344 105.554688 C 127.777344 111.6875 122.800781 116.667969 116.667969 116.667969 L 83.332031 116.667969 C 77.199219 116.667969 72.222656 111.6875 72.222656 105.554688 L 72.222656 88.890625 C 72.222656 82.753906 77.199219 77.777344 83.332031 77.777344 L 116.667969 77.777344 C 122.800781 77.777344 127.777344 82.753906 127.777344 88.890625 Z M 127.777344 105.554688 "/>
<path style=" stroke:none;fill-rule:nonzero;fill:rgb(1.176471%,30.588235%,63.529412%);fill-opacity:1;" d="M 122.222656 100 C 122.222656 106.132812 117.246094 116.667969 111.109375 116.667969 L 88.890625 116.667969 C 82.753906 116.667969 77.777344 106.132812 77.777344 100 L 77.777344 94.445312 C 77.777344 88.3125 82.753906 83.332031 88.890625 83.332031 L 111.109375 83.332031 C 117.246094 83.332031 122.222656 88.3125 122.222656 94.445312 Z M 122.222656 100 "/>
<path style=" stroke:none;fill-rule:nonzero;fill:rgb(92.941176%,10.980392%,13.72549%);fill-opacity:1;" d="M 116.667969 100 C 116.667969 106.132812 111.6875 116.667969 105.554688 116.667969 L 94.445312 116.667969 C 88.3125 116.667969 83.332031 106.132812 83.332031 100 L 83.332031 94.445312 C 83.332031 88.3125 88.3125 83.332031 94.445312 83.332031 L 105.554688 83.332031 C 111.6875 83.332031 116.667969 88.3125 116.667969 94.445312 Z M 116.667969 100 "/>
<path style=" stroke:none;fill-rule:nonzero;fill:rgb(42.745098%,74.509804%,27.45098%);fill-opacity:1;" d="M 110.960938 78.527344 C 110.222656 81.238281 105.621094 83.332031 100 83.332031 C 94.378906 83.332031 89.777344 81.238281 89.039062 78.527344 C 82.34375 79.484375 83.332031 81.265625 83.332031 83.332031 C 83.332031 86.398438 87.726562 88.890625 100 88.890625 C 112.273438 88.890625 116.667969 86.398438 116.667969 83.332031 C 116.667969 81.265625 117.65625 79.484375 110.960938 78.527344 Z M 110.960938 78.527344 "/>
<path style=" stroke:none;fill-rule:nonzero;fill:rgb(65.098039%,82.745098%,53.333333%);fill-opacity:1;" d="M 105.554688 105.554688 C 105.554688 108.628906 103.066406 111.109375 100 111.109375 C 96.933594 111.109375 94.445312 108.628906 94.445312 105.554688 L 94.445312 88.890625 C 94.445312 85.820312 96.933594 83.332031 100 83.332031 C 103.066406 83.332031 105.554688 85.820312 105.554688 88.890625 Z M 105.554688 105.554688 "/>
<path style=" stroke:none;fill-rule:nonzero;fill:rgb(40%,12.941176%,7.45098%);fill-opacity:1;" d="M 119.445312 66.667969 C 121.890625 66.667969 124.210938 66.957031 126.367188 67.429688 C 122.90625 61.449219 111.109375 55.554688 100 66.667969 C 88.890625 55.554688 77.09375 61.449219 73.632812 67.429688 C 75.789062 66.957031 78.109375 66.667969 80.554688 66.667969 C 91.292969 66.667969 100 71.644531 100 77.777344 C 100 71.644531 108.699219 66.667969 119.445312 66.667969 Z M 119.445312 66.667969 "/>
<path style=" stroke:none;fill-rule:nonzero;fill:rgb(55.686275%,82.352941%,90.588235%);fill-opacity:1;" d="M 111.109375 97.222656 C 111.109375 86.484375 106.136719 77.777344 100 77.777344 C 93.863281 77.777344 88.890625 86.484375 88.890625 97.222656 C 88.890625 107.960938 93.863281 116.667969 100 116.667969 C 106.136719 116.667969 111.109375 107.960938 111.109375 97.222656 Z M 111.109375 97.222656 "/>
<path style=" stroke:none;fill-rule:nonzero;fill:rgb(42.745098%,74.509804%,27.45098%);fill-opacity:1;" d="M 97.222656 94.445312 C 94.246094 94.445312 91.460938 95.167969 88.9375 96.359375 C 88.933594 96.648438 88.890625 96.929688 88.890625 97.222656 C 88.890625 107.960938 93.867188 116.667969 100 116.667969 C 105.570312 116.667969 110.140625 109.472656 110.945312 100.117188 C 107.429688 96.617188 102.578125 94.445312 97.222656 94.445312 Z M 97.222656 94.445312 "/>
<path style=" stroke:none;fill-rule:nonzero;fill:rgb(100%,80%,30.196078%);fill-opacity:1;" d="M 116.667969 122.222656 C 116.667969 119.152344 109.203125 116.667969 100 116.667969 C 90.796875 116.667969 83.332031 119.152344 83.332031 122.222656 C 83.332031 125.289062 90.796875 127.777344 100 127.777344 C 109.203125 127.777344 116.667969 125.289062 116.667969 122.222656 Z M 116.667969 122.222656 "/>
<path style=" stroke:none;fill-rule:nonzero;fill:rgb(1.176471%,30.588235%,63.529412%);fill-opacity:1;" d="M 111.109375 127.777344 C 111.109375 132.378906 106.132812 133.332031 100 133.332031 C 93.867188 133.332031 88.890625 132.378906 88.890625 127.777344 C 88.890625 123.179688 93.867188 116.667969 100 116.667969 C 106.132812 116.667969 111.109375 123.179688 111.109375 127.777344 Z M 111.109375 127.777344 "/>
<path style=" stroke:none;fill-rule:nonzero;fill:rgb(92.941176%,10.980392%,13.72549%);fill-opacity:1;" d="M 94.445312 127.777344 C 94.445312 123.179688 96.933594 116.667969 100 116.667969 C 103.066406 116.667969 105.554688 123.179688 105.554688 127.777344 C 105.554688 132.378906 103.066406 133.332031 100 133.332031 C 96.933594 133.332031 94.445312 132.378906 94.445312 127.777344 Z M 94.445312 127.777344 "/>
<path style=" stroke:none;fill-rule:nonzero;fill:rgb(80%,83.921569%,86.666667%);fill-opacity:1;" d="M 94.445312 61.109375 C 94.445312 58.042969 96.933594 61.109375 100 61.109375 C 103.066406 61.109375 105.554688 58.042969 105.554688 61.109375 C 105.554688 64.179688 103.066406 66.667969 100 66.667969 C 96.933594 66.667969 94.445312 64.179688 94.445312 61.109375 Z M 94.445312 61.109375 "/>
<path style=" stroke:none;fill-rule:nonzero;fill:rgb(100%,100%,100%);fill-opacity:1;" d="M 105.554688 97.222656 C 105.554688 95.6875 103.066406 94.445312 100 94.445312 C 96.933594 94.445312 94.445312 95.6875 94.445312 97.222656 C 94.445312 98.757812 96.933594 100 100 100 C 103.066406 100 105.554688 98.757812 105.554688 97.222656 Z M 105.554688 97.222656 "/>
<path style=" stroke:none;fill-rule:nonzero;fill:rgb(75.686275%,41.176471%,30.980392%);fill-opacity:1;" d="M 77.777344 86.109375 C 77.777344 84.578125 75.289062 83.332031 72.222656 83.332031 C 69.152344 83.332031 66.667969 84.578125 66.667969 86.109375 C 66.667969 87.644531 69.152344 88.890625 72.222656 88.890625 C 75.289062 88.890625 77.777344 87.644531 77.777344 86.109375 Z M 77.777344 86.109375 "/>
<path style=" stroke:none;fill-rule:nonzero;fill:rgb(75.686275%,41.176471%,30.980392%);fill-opacity:1;" d="M 83.332031 75 C 83.332031 73.464844 80.847656 72.222656 77.777344 72.222656 C 74.710938 72.222656 72.222656 73.464844 72.222656 75 C 72.222656 76.535156 74.710938 77.777344 77.777344 77.777344 C 80.847656 77.777344 83.332031 76.535156 83.332031 75 Z M 83.332031 75 "/>
<path style=" stroke:none;fill-rule:nonzero;fill:rgb(75.686275%,41.176471%,30.980392%);fill-opacity:1;" d="M 133.332031 86.109375 C 133.332031 84.578125 130.847656 83.332031 127.777344 83.332031 C 124.710938 83.332031 122.222656 84.578125 122.222656 86.109375 C 122.222656 87.644531 124.710938 88.890625 127.777344 88.890625 C 130.847656 88.890625 133.332031 87.644531 133.332031 86.109375 Z M 133.332031 86.109375 "/>
<path style=" stroke:none;fill-rule:nonzero;fill:rgb(75.686275%,41.176471%,30.980392%);fill-opacity:1;" d="M 127.777344 75 C 127.777344 73.464844 125.289062 72.222656 122.222656 72.222656 C 119.152344 72.222656 116.667969 73.464844 116.667969 75 C 116.667969 76.535156 119.152344 77.777344 122.222656 77.777344 C 125.289062 77.777344 127.777344 76.535156 127.777344 75 Z M 127.777344 75 "/>
</g>
</svg>
