<?xml version="1.0" encoding="UTF-8"?>
<svg xmlns="http://www.w3.org/2000/svg" xmlns:xlink="http://www.w3.org/1999/xlink" width="200px" height="200px" viewBox="0 0 200 200" version="1.1">
<g id="surface1">
<path style=" stroke:none;fill-rule:nonzero;fill:rgb(0%,40.784314%,27.843137%);fill-opacity:1;" d="M 22.222656 27.777344 C 9.949219 27.777344 0 37.726562 0 50 L 0 150 C 0 162.273438 9.949219 172.222656 22.222656 172.222656 L 61.109375 172.222656 L 61.109375 27.777344 Z M 22.222656 27.777344 "/>
<path style=" stroke:none;fill-rule:nonzero;fill:rgb(80.784314%,6.666667%,14.901961%);fill-opacity:1;" d="M 177.777344 27.777344 L 138.890625 27.777344 L 138.890625 172.222656 L 177.777344 172.222656 C 190.050781 172.222656 200 162.273438 200 150 L 200 50 C 200 37.726562 190.050781 27.777344 177.777344 27.777344 Z M 177.777344 27.777344 "/>
<path style=" stroke:none;fill-rule:nonzero;fill:rgb(93.333333%,93.333333%,93.333333%);fill-opacity:1;" d="M 61.109375 27.777344 L 138.890625 27.777344 L 138.890625 172.222656 L 61.109375 172.222656 Z M 61.109375 27.777344 "/>
<path style=" stroke:none;fill-rule:nonzero;fill:rgb(65.098039%,82.745098%,53.333333%);fill-opacity:1;" d="M 127.777344 100 C 127.777344 115.34375 115.34375 127.777344 100 127.777344 C 84.660156 127.777344 72.222656 115.34375 72.222656 100 L 66.667969 100 C 66.667969 118.40625 81.589844 133.332031 100 133.332031 C 118.410156 133.332031 133.332031 118.40625 133.332031 100 Z M 127.777344 100 "/>
<path style=" stroke:none;fill-rule:nonzero;fill:rgb(36.078431%,56.862745%,23.137255%);fill-opacity:1;" d="M 75.238281 112.605469 C 74.726562 111.605469 73.695312 111.050781 72.640625 111.101562 C 72.253906 111.109375 71.859375 111.210938 71.5 111.394531 C 70.128906 112.089844 69.589844 113.765625 70.285156 115.132812 C 70.785156 116.117188 71.332031 117.078125 71.929688 118 L 71.929688 118.003906 L 71.949219 118.039062 L 71.949219 118.042969 L 71.996094 118.105469 L 71.996094 118.109375 L 72.011719 118.144531 L 72.015625 118.15625 L 72.039062 118.183594 L 72.039062 118.1875 L 72.054688 118.214844 L 72.054688 118.226562 L 72.070312 118.253906 L 72.078125 118.265625 L 72.09375 118.292969 L 72.117188 118.328125 L 72.140625 118.359375 L 72.144531 118.378906 L 72.160156 118.40625 L 72.167969 118.410156 L 72.179688 118.429688 L 72.195312 118.460938 L 72.199219 118.472656 L 72.214844 118.5 L 72.222656 118.511719 L 72.261719 118.566406 L 72.261719 118.570312 L 72.289062 118.609375 L 72.289062 118.617188 C 72.578125 119.042969 72.871094 119.457031 73.183594 119.871094 C 73.75 120.640625 74.640625 121.015625 75.523438 120.984375 C 76.054688 120.960938 76.59375 120.785156 77.054688 120.433594 C 78.289062 119.523438 78.542969 117.777344 77.628906 116.550781 C 76.75 115.292969 75.933594 113.972656 75.238281 112.605469 Z M 72.476562 103.816406 C 72.359375 102.949219 72.277344 102.066406 72.238281 101.167969 C 72.210938 100.5 72.210938 99.84375 72.222656 99.1875 C 72.265625 97.660156 71.0625 96.378906 69.527344 96.332031 L 69.328125 96.339844 C 67.882812 96.398438 66.710938 97.566406 66.671875 99.035156 C 66.660156 99.609375 66.65625 100.183594 66.667969 100.761719 L 66.667969 101.261719 L 66.671875 101.289062 L 66.671875 101.445312 L 66.679688 101.460938 L 66.671875 101.472656 L 66.671875 101.488281 L 66.679688 101.5 L 66.679688 101.660156 L 66.683594 101.679688 L 66.683594 101.738281 L 66.6875 101.84375 L 66.695312 101.894531 L 66.695312 101.957031 C 66.746094 102.84375 66.832031 103.726562 66.949219 104.605469 C 67.148438 106.035156 68.398438 107.050781 69.8125 106.996094 C 69.898438 106.988281 69.988281 106.984375 70.070312 106.964844 C 71.632812 106.746094 72.6875 105.339844 72.476562 103.816406 Z M 101.890625 127.707031 L 101.855469 127.710938 L 101.167969 127.753906 C 99.851562 127.804688 98.515625 127.773438 97.222656 127.640625 C 97.089844 127.621094 96.960938 127.621094 96.828125 127.628906 C 95.464844 127.683594 94.320312 128.738281 94.183594 130.128906 C 94.035156 131.648438 95.144531 133.011719 96.667969 133.167969 L 97.359375 133.226562 L 97.382812 133.234375 L 97.394531 133.226562 L 97.410156 133.234375 L 97.421875 133.234375 L 97.457031 133.238281 L 97.488281 133.238281 L 97.503906 133.246094 L 97.511719 133.246094 L 97.542969 133.238281 L 97.5625 133.246094 L 97.589844 133.246094 L 97.621094 133.25 L 97.648438 133.253906 L 97.722656 133.253906 L 97.753906 133.261719 L 97.828125 133.261719 C 98.671875 133.316406 99.523438 133.34375 100.378906 133.328125 L 100.59375 133.328125 L 100.632812 133.320312 L 100.667969 133.328125 L 100.75 133.328125 L 100.777344 133.320312 L 100.882812 133.320312 L 100.917969 133.316406 L 100.921875 133.316406 L 100.949219 133.320312 L 100.957031 133.316406 L 100.988281 133.320312 L 100.996094 133.320312 L 101.023438 133.316406 L 101.066406 133.316406 L 101.101562 133.3125 L 101.132812 133.3125 L 101.140625 133.316406 L 101.171875 133.3125 L 101.210938 133.3125 L 101.238281 133.304688 L 101.351562 133.304688 L 101.378906 133.300781 L 101.398438 133.300781 L 101.421875 133.292969 L 101.445312 133.300781 L 101.472656 133.300781 L 101.496094 133.292969 L 101.523438 133.292969 C 101.753906 133.289062 101.996094 133.265625 102.226562 133.253906 C 103.722656 133.132812 104.84375 131.839844 104.746094 130.332031 C 104.707031 128.820312 103.398438 127.648438 101.890625 127.707031 Z M 88.339844 125.214844 C 86.945312 124.570312 85.589844 123.800781 84.316406 122.933594 C 83.804688 122.578125 83.210938 122.429688 82.632812 122.449219 C 81.789062 122.484375 80.964844 122.894531 80.449219 123.65625 C 79.589844 124.917969 79.90625 126.648438 81.171875 127.511719 L 81.179688 127.515625 L 81.210938 127.535156 L 81.246094 127.566406 L 81.277344 127.589844 L 81.3125 127.617188 C 82.789062 128.621094 84.355469 129.503906 85.988281 130.261719 C 86.398438 130.457031 86.839844 130.535156 87.265625 130.515625 C 88.277344 130.472656 89.222656 129.890625 89.671875 128.910156 C 90.332031 127.515625 89.726562 125.859375 88.339844 125.214844 Z M 116.285156 123.003906 C 115.8125 123.027344 115.332031 123.171875 114.90625 123.449219 C 113.609375 124.273438 112.234375 125 110.828125 125.601562 C 109.410156 126.1875 108.746094 127.816406 109.34375 129.238281 C 109.8125 130.332031 110.894531 130.972656 112.011719 130.933594 C 112.339844 130.921875 112.65625 130.84375 112.972656 130.722656 L 113.714844 130.390625 L 113.726562 130.390625 L 113.773438 130.359375 L 113.792969 130.351562 L 113.816406 130.351562 L 113.839844 130.339844 L 113.851562 130.328125 L 113.882812 130.320312 L 113.894531 130.3125 L 113.910156 130.300781 L 113.9375 130.289062 L 113.957031 130.285156 L 113.984375 130.273438 L 113.996094 130.265625 L 114.023438 130.253906 L 114.035156 130.25 C 114.050781 130.238281 114.050781 130.234375 114.0625 130.234375 L 114.070312 130.226562 L 114.105469 130.210938 L 114.117188 130.210938 L 114.148438 130.195312 L 114.183594 130.179688 L 114.195312 130.171875 L 114.222656 130.15625 L 114.234375 130.148438 L 114.273438 130.128906 L 114.3125 130.121094 L 114.351562 130.101562 L 114.359375 130.09375 L 114.382812 130.078125 L 114.394531 130.078125 L 114.429688 130.054688 L 114.472656 130.042969 L 114.503906 130.023438 L 114.511719 130.023438 L 114.550781 130 L 114.554688 129.996094 L 114.632812 129.960938 L 114.671875 129.945312 L 114.75 129.898438 L 114.792969 129.882812 L 114.828125 129.867188 L 114.832031 129.867188 L 114.910156 129.820312 L 114.910156 129.816406 L 114.945312 129.804688 L 114.949219 129.804688 L 115.070312 129.738281 L 115.109375 129.726562 L 115.1875 129.683594 L 115.226562 129.660156 L 115.234375 129.660156 C 115.238281 129.65625 115.25 129.648438 115.273438 129.648438 C 115.285156 129.632812 115.292969 129.628906 115.304688 129.621094 L 115.351562 129.601562 L 115.382812 129.582031 L 115.382812 129.578125 L 115.460938 129.542969 L 115.464844 129.542969 L 115.503906 129.523438 L 115.511719 129.515625 L 115.539062 129.5 L 115.542969 129.5 L 115.582031 129.476562 L 115.617188 129.460938 L 115.628906 129.460938 L 115.660156 129.4375 L 115.660156 129.433594 L 115.699219 129.417969 L 115.707031 129.410156 L 115.738281 129.394531 L 115.738281 129.390625 L 115.773438 129.378906 L 115.785156 129.371094 L 115.804688 129.355469 L 115.820312 129.351562 L 115.851562 129.332031 L 115.890625 129.3125 L 115.898438 129.304688 L 115.933594 129.292969 C 115.929688 129.289062 115.933594 129.289062 115.9375 129.289062 L 115.972656 129.273438 L 115.984375 129.265625 L 116.003906 129.25 L 116.015625 129.246094 L 116.050781 129.226562 L 116.0625 129.222656 C 116.0625 129.210938 116.070312 129.210938 116.082031 129.207031 L 116.101562 129.199219 L 116.121094 129.1875 L 116.140625 129.179688 L 116.179688 129.15625 L 116.195312 129.144531 L 116.210938 129.128906 L 116.238281 129.121094 L 116.261719 129.117188 L 116.273438 129.105469 L 116.292969 129.09375 L 116.328125 129.070312 L 116.351562 129.0625 L 116.371094 129.042969 L 116.390625 129.035156 C 116.398438 129.039062 116.40625 129.035156 116.417969 129.027344 L 116.429688 129.015625 L 116.449219 129.003906 L 116.464844 128.996094 L 116.503906 128.972656 L 116.539062 128.949219 C 116.550781 128.945312 116.570312 128.945312 116.582031 128.933594 C 116.570312 128.929688 116.570312 128.929688 116.582031 128.929688 L 116.605469 128.917969 L 116.644531 128.890625 L 116.65625 128.882812 L 116.695312 128.867188 L 116.695312 128.859375 L 116.761719 128.828125 L 116.804688 128.800781 C 116.839844 128.777344 116.871094 128.753906 116.917969 128.738281 L 116.921875 128.738281 C 117.273438 128.527344 117.632812 128.3125 117.976562 128.089844 C 119.265625 127.253906 119.648438 125.550781 118.820312 124.253906 C 118.183594 123.429688 117.238281 122.964844 116.285156 123.003906 Z M 130.566406 97.351562 L 130.433594 97.355469 C 128.957031 97.417969 127.777344 98.628906 127.773438 100.121094 C 127.773438 101.660156 127.632812 103.214844 127.371094 104.726562 C 127.109375 106.234375 128.132812 107.679688 129.640625 107.933594 C 129.839844 107.964844 130.035156 107.984375 130.226562 107.976562 C 131.503906 107.921875 132.628906 106.984375 132.855469 105.660156 L 132.855469 105.632812 L 132.859375 105.621094 L 132.867188 105.609375 L 132.859375 105.601562 L 132.867188 105.589844 L 132.867188 105.578125 L 132.871094 105.566406 L 132.871094 105.550781 L 132.878906 105.539062 L 132.878906 105.488281 C 132.890625 105.484375 132.890625 105.472656 132.890625 105.464844 L 132.890625 105.433594 C 133.003906 104.714844 133.105469 103.996094 133.179688 103.261719 L 133.171875 103.253906 L 133.179688 103.238281 L 133.179688 103.234375 L 133.183594 103.210938 L 133.183594 103.148438 L 133.195312 103.132812 L 133.195312 103.128906 L 133.1875 103.109375 L 133.1875 103.101562 L 133.195312 103.082031 L 133.195312 103.0625 L 133.207031 103.054688 L 133.195312 103.039062 L 133.195312 103.015625 C 133.207031 103.011719 133.207031 103.003906 133.207031 103 L 133.207031 102.894531 L 133.214844 102.878906 L 133.214844 102.871094 C 133.289062 101.964844 133.332031 101.050781 133.332031 100.121094 C 133.332031 98.605469 132.101562 97.355469 130.566406 97.351562 Z M 128.105469 112.328125 C 127.640625 112.070312 127.132812 111.960938 126.644531 111.984375 C 125.707031 112.023438 124.816406 112.539062 124.328125 113.417969 C 123.582031 114.761719 122.722656 116.0625 121.753906 117.261719 C 120.800781 118.464844 121.003906 120.210938 122.199219 121.160156 C 122.753906 121.601562 123.40625 121.789062 124.050781 121.761719 C 124.828125 121.726562 125.582031 121.371094 126.105469 120.714844 C 126.75 119.90625 127.367188 119.054688 127.9375 118.1875 C 127.949219 118.148438 127.976562 118.109375 128 118.078125 L 128.003906 118.070312 L 128.027344 118.039062 L 128.027344 118.035156 L 128.050781 117.996094 C 128.0625 117.984375 128.070312 117.972656 128.070312 117.960938 L 128.078125 117.964844 L 128.101562 117.933594 L 128.101562 117.929688 C 128.109375 117.917969 128.117188 117.898438 128.117188 117.890625 L 128.128906 117.882812 L 128.148438 117.851562 L 128.148438 117.84375 C 128.160156 117.839844 128.160156 117.828125 128.167969 117.816406 L 128.171875 117.8125 L 128.195312 117.777344 L 128.199219 117.765625 L 128.210938 117.738281 L 128.226562 117.726562 L 128.238281 117.699219 L 128.25 117.699219 L 128.261719 117.667969 L 128.265625 117.65625 L 128.289062 117.632812 L 128.292969 117.621094 C 128.300781 117.609375 128.300781 117.601562 128.3125 117.59375 L 128.316406 117.578125 L 128.339844 117.5625 C 128.339844 117.554688 128.339844 117.550781 128.351562 117.542969 L 128.351562 117.523438 L 128.367188 117.511719 L 128.382812 117.484375 L 128.390625 117.472656 L 128.40625 117.4375 L 128.417969 117.429688 L 128.4375 117.390625 C 128.4375 117.382812 128.4375 117.378906 128.449219 117.371094 C 128.449219 117.367188 128.449219 117.359375 128.460938 117.355469 L 128.476562 117.328125 L 128.484375 117.3125 L 128.496094 117.292969 L 128.503906 117.277344 C 128.515625 117.273438 128.515625 117.265625 128.515625 117.261719 C 128.527344 117.253906 128.527344 117.25 128.527344 117.238281 L 128.539062 117.222656 L 128.554688 117.199219 L 128.570312 117.179688 L 128.570312 117.160156 L 128.582031 117.144531 L 128.601562 117.121094 L 128.617188 117.105469 L 128.617188 117.089844 L 128.640625 117.0625 L 128.640625 117.042969 C 128.648438 117.039062 128.65625 117.035156 128.65625 117.023438 L 128.667969 117.011719 L 128.679688 116.996094 L 128.695312 116.964844 L 128.707031 116.949219 L 128.707031 116.9375 L 128.726562 116.910156 C 128.726562 116.90625 128.726562 116.898438 128.738281 116.894531 L 128.746094 116.878906 L 128.761719 116.855469 L 128.773438 116.832031 L 128.785156 116.816406 C 128.789062 116.8125 128.785156 116.800781 128.792969 116.792969 C 128.792969 116.789062 128.792969 116.785156 128.804688 116.785156 L 128.816406 116.753906 L 128.828125 116.746094 L 128.839844 116.710938 L 128.851562 116.707031 L 128.859375 116.683594 L 128.871094 116.671875 L 128.882812 116.644531 L 128.894531 116.632812 L 128.90625 116.601562 C 128.917969 116.59375 128.90625 116.589844 128.90625 116.589844 L 128.929688 116.5625 L 128.933594 116.550781 L 128.957031 116.523438 L 128.957031 116.515625 L 128.972656 116.484375 L 128.984375 116.472656 L 128.996094 116.4375 L 128.996094 116.433594 L 129.023438 116.40625 L 129.039062 116.371094 L 129.039062 116.367188 L 129.0625 116.328125 L 129.070312 116.320312 L 129.210938 116.0625 C 129.929688 114.761719 129.449219 113.070312 128.105469 112.328125 Z M 128.105469 112.328125 "/>
<path style=" stroke:none;fill-rule:nonzero;fill:rgb(33.333333%,67.45098%,93.333333%);fill-opacity:1;" d="M 116.667969 116.667969 C 116.667969 113.597656 109.203125 111.109375 100 111.109375 C 90.796875 111.109375 83.332031 113.597656 83.332031 116.667969 C 83.332031 119.734375 90.796875 122.222656 100 122.222656 C 109.203125 122.222656 116.667969 119.734375 116.667969 116.667969 Z M 116.667969 116.667969 "/>
<path style=" stroke:none;fill-rule:nonzero;fill:rgb(100%,80%,30.196078%);fill-opacity:1;" d="M 111.109375 116.667969 C 111.109375 113.597656 107.378906 111.109375 102.777344 111.109375 C 98.175781 111.109375 94.445312 113.597656 94.445312 116.667969 C 94.445312 119.734375 98.175781 122.222656 102.777344 122.222656 C 107.378906 122.222656 111.109375 119.734375 111.109375 116.667969 Z M 111.109375 116.667969 "/>
<path style=" stroke:none;fill-rule:nonzero;fill:rgb(36.078431%,56.862745%,23.137255%);fill-opacity:1;" d="M 106.207031 118.1875 C 105.753906 118.1875 105.300781 118.078125 104.878906 117.851562 C 103.527344 117.117188 103.027344 115.429688 103.761719 114.082031 C 104.648438 112.449219 105.582031 110.964844 106.550781 109.667969 C 105.777344 109.699219 104.976562 109.714844 104.160156 109.714844 C 102.628906 109.714844 101.226562 108.464844 101.226562 106.933594 C 101.226562 105.398438 102.3125 104.15625 103.851562 104.15625 L 104.304688 104.160156 C 105.949219 104.160156 107.640625 104.0625 109.148438 103.921875 C 110.027344 103.828125 110.867188 104.183594 111.429688 104.789062 C 111.503906 104.726562 111.582031 104.667969 111.667969 104.617188 C 112.222656 104.25 112.738281 103.957031 113.222656 103.722656 C 113.550781 103.464844 113.949219 103.285156 114.394531 103.199219 L 114.59375 103.160156 C 115.640625 102.820312 116.371094 102.777344 116.667969 102.777344 C 117.550781 102.777344 118.378906 103.195312 118.898438 103.90625 C 119.421875 104.617188 119.578125 105.527344 119.316406 106.371094 C 118.859375 107.851562 117.84375 108.183594 116.0625 108.539062 C 115.726562 108.667969 115.273438 108.890625 114.738281 109.25 C 113.695312 109.933594 112.339844 109.828125 111.410156 109.0625 C 112.171875 110.042969 112.207031 111.457031 111.398438 112.472656 C 110.457031 113.679688 109.527344 115.109375 108.644531 116.738281 C 108.144531 117.667969 107.1875 118.1875 106.207031 118.1875 Z M 98.316406 109.359375 C 98.199219 109.359375 98.070312 109.355469 97.949219 109.339844 C 95.871094 109.0625 93.898438 108.648438 92.082031 108.109375 C 90.609375 107.671875 89.773438 106.128906 90.210938 104.65625 L 90.246094 104.542969 L 90.179688 104.671875 C 89.429688 106.011719 87.734375 106.496094 86.394531 105.738281 C 84.503906 104.683594 82.8125 103.410156 81.355469 101.957031 C 80.273438 100.871094 80.273438 99.109375 81.355469 98.027344 C 82.4375 96.945312 84.199219 96.945312 85.285156 98.027344 C 86.378906 99.121094 87.660156 100.082031 89.105469 100.890625 C 90.292969 101.554688 90.804688 102.964844 90.378906 104.207031 C 90.960938 103.023438 92.34375 102.394531 93.65625 102.785156 C 95.1875 103.238281 96.871094 103.589844 98.65625 103.828125 C 100.179688 104.027344 101.25 105.421875 101.050781 106.945312 C 100.890625 108.34375 99.6875 109.359375 98.316406 109.359375 Z M 84.695312 96.367188 C 82.328125 96.367188 79.265625 95.449219 77.410156 93.261719 C 74.566406 89.90625 72.894531 85.601562 73.148438 82.300781 C 73.214844 81.417969 72.355469 80.707031 71.511719 80.484375 C 71.027344 80.355469 70.179688 80.277344 69.777344 81.140625 C 69.449219 81.839844 68.628906 82.132812 67.933594 81.816406 C 67.238281 81.496094 66.933594 80.667969 67.253906 79.972656 C 68.121094 78.089844 70.066406 77.25 72.210938 77.792969 C 74.199219 78.3125 76.105469 80.101562 75.917969 82.515625 C 75.714844 85.082031 77.171875 88.679688 79.527344 91.460938 C 80.765625 92.929688 82.921875 93.523438 84.390625 93.578125 C 85.582031 93.640625 86.1875 93.367188 86.316406 93.25 C 86.003906 92.511719 81.890625 90.34375 80.132812 89.421875 C 78.640625 88.640625 78.195312 87.5625 78.082031 86.800781 C 77.710938 84.273438 80.304688 81.710938 82.816406 79.246094 C 83.699219 78.371094 84.539062 77.550781 84.996094 76.945312 C 85.511719 76.261719 85.429688 75.804688 85.328125 75.523438 C 84.945312 74.484375 83.285156 73.457031 81.285156 73.011719 C 79.433594 72.601562 78.183594 71.707031 77.570312 70.351562 C 76.765625 68.566406 77.195312 66.234375 78.871094 63.210938 C 79.246094 62.535156 80.09375 62.300781 80.761719 62.671875 C 81.433594 63.042969 81.671875 63.890625 81.300781 64.5625 C 79.714844 67.40625 79.871094 68.695312 80.105469 69.210938 C 80.339844 69.722656 80.933594 70.082031 81.882812 70.292969 C 84.234375 70.816406 87.0625 72.210938 87.929688 74.554688 C 88.421875 75.894531 88.171875 77.339844 87.214844 78.609375 C 86.640625 79.382812 85.726562 80.277344 84.765625 81.226562 C 83.332031 82.640625 80.660156 85.265625 80.832031 86.398438 C 80.867188 86.632812 81.171875 86.839844 81.429688 86.964844 C 85.601562 89.15625 88.371094 90.738281 88.9375 92.679688 C 89.140625 93.359375 89.054688 94.050781 88.707031 94.671875 C 88.167969 95.609375 87.042969 96.1875 85.457031 96.332031 C 85.214844 96.355469 84.957031 96.367188 84.695312 96.367188 Z M 84.695312 96.367188 "/>
<path style=" stroke:none;fill-rule:nonzero;fill:rgb(100%,80%,30.196078%);fill-opacity:1;" d="M 111.109375 100 C 111.109375 96.933594 109.867188 94.445312 108.332031 94.445312 C 106.800781 94.445312 105.554688 96.933594 105.554688 100 C 105.554688 103.066406 106.800781 105.554688 108.332031 105.554688 C 109.867188 105.554688 111.109375 103.066406 111.109375 100 Z M 111.109375 100 "/>
<path style=" stroke:none;fill-rule:nonzero;fill:rgb(100%,80%,30.196078%);fill-opacity:1;" d="M 96.066406 95.488281 C 96.066406 97.089844 94.148438 98.382812 91.785156 98.382812 C 89.421875 98.382812 87.5 97.089844 87.5 95.488281 C 87.5 93.890625 89.417969 92.59375 91.785156 92.59375 C 94.144531 92.59375 96.066406 93.890625 96.066406 95.488281 Z M 89.472656 69.785156 C 89.75 70.960938 88.210938 72.339844 86.035156 72.855469 C 83.855469 73.371094 81.867188 72.832031 81.582031 71.65625 C 81.304688 70.472656 82.84375 69.09375 85.015625 68.578125 C 87.199219 68.066406 89.195312 68.601562 89.472656 69.785156 Z M 89.472656 69.785156 "/>
<path style=" stroke:none;fill-rule:nonzero;fill:rgb(75.686275%,41.176471%,30.980392%);fill-opacity:1;" d="M 125.183594 99.75 C 125.683594 100.140625 126.535156 95.699219 126.40625 94.316406 C 126.40625 94.222656 126.246094 91.285156 126.867188 89.183594 C 127.25 88.472656 127.273438 83.167969 126.683594 81.773438 C 127.148438 81.734375 127.710938 81.582031 127.777344 81.015625 C 125.621094 81.8125 125.117188 76.476562 123.042969 73.410156 C 121.035156 70.339844 118.539062 68.550781 115.933594 66.683594 C 116.128906 66.160156 116.4375 65.671875 116.832031 65.183594 C 113.640625 66.785156 108.660156 60.988281 101.304688 61.421875 C 99.65625 61.582031 98.871094 61.683594 98.449219 62.695312 C 97.078125 62.804688 95.683594 63.117188 95.683594 64.921875 C 95.683594 65.355469 96.078125 66.144531 96.957031 66.148438 C 98.15625 66.5 99.132812 66.226562 99.949219 67.90625 L 100.167969 69.640625 C 100.167969 69.640625 99.09375 68.265625 98.503906 68.050781 L 98.867188 67.3125 C 98.3125 66.988281 97.328125 67.25 97.328125 67.25 C 97.328125 67.25 95.1875 66.25 93.472656 66.515625 L 93.140625 65.128906 C 92.839844 65.984375 92.167969 65.9375 92.070312 66.746094 C 91.882812 66.167969 91.632812 65.449219 91.457031 64.871094 C 90.851562 65.695312 91.027344 66.582031 90.8125 67.4375 C 90.578125 67.640625 90.101562 67.644531 89.976562 67.09375 C 89.917969 66.417969 89.832031 66.355469 89.832031 65.550781 C 89.398438 66.3125 88.878906 66.683594 88.707031 67.988281 L 88.246094 66.542969 C 88.261719 68.25 86.792969 69.265625 85.40625 70.472656 C 85.011719 71.195312 85.464844 71.199219 85.5 71.570312 L 86.234375 71.9375 L 87.550781 71.84375 C 87.765625 72.117188 87.589844 72.140625 88.160156 72.3125 C 89.695312 72.738281 91.605469 70.898438 93.105469 73.792969 C 92.417969 74.371094 91.722656 75.722656 91.945312 75.976562 C 92.222656 75.976562 91.390625 76.367188 92.511719 76.011719 C 91.34375 77.144531 90.554688 78.640625 90.554688 78.726562 C 90.421875 79.050781 91.023438 78.683594 90.898438 79.265625 L 91.179688 79.234375 C 88.515625 82.109375 91.089844 85.207031 90.804688 86.867188 C 91.25 87.582031 91.304688 86.851562 91.859375 86.777344 C 92.328125 88.820312 93.671875 90.0625 94.496094 91.679688 L 92.761719 91.695312 C 92.800781 92.460938 93.496094 93.1875 94.042969 93.859375 L 92.882812 94.226562 C 92.054688 94.648438 91.511719 95.101562 90.929688 95.75 C 90.542969 96.683594 92.777344 96.90625 93.855469 97.070312 L 93.816406 98.199219 C 95.5 98.359375 97.445312 97.859375 97.445312 97.765625 L 97.867188 97.4375 L 98.816406 97.960938 C 99.132812 97.960938 99.628906 96.695312 99.398438 95.722656 C 100.011719 96.449219 100.589844 97.621094 101.199219 98.355469 L 101.773438 98.277344 C 102.292969 99.105469 103.011719 99.929688 103.535156 100.753906 L 104.117188 100.976562 C 104.457031 100.859375 104.746094 100.820312 104.929688 100.15625 L 105.195312 100.621094 L 106.117188 99.988281 L 106.761719 99.859375 L 107.246094 100.648438 C 107.527344 100.542969 107.804688 99.929688 107.820312 99.273438 C 108.109375 99.84375 108.1875 99.800781 108.398438 99.949219 L 108.828125 99.050781 L 111.132812 101.207031 L 112.878906 101.304688 C 113.5 101.726562 115.207031 101.996094 115.496094 101.3125 C 116.894531 101.910156 118.542969 101.234375 118.460938 100.566406 C 119.75 101.078125 121.734375 100.734375 121.734375 100.648438 C 121.972656 100.621094 122.582031 100.023438 122.003906 99.570312 C 117.746094 96.605469 111.429688 91.695312 108.988281 90.511719 C 108.988281 89.632812 108.328125 86.472656 107.617188 85.605469 L 108.195312 84.640625 C 109.855469 86.1875 110.457031 86.039062 111.339844 86.285156 C 112.285156 87.035156 112.609375 88.171875 113.554688 89.210938 L 114.398438 89.367188 C 113.816406 87.882812 113.089844 86.445312 111.320312 84.515625 C 112.234375 84.972656 113.746094 86.1875 114.753906 87.070312 C 115.421875 88.1875 115.617188 89.078125 116.226562 90.476562 C 116.671875 90.761719 117.128906 91.800781 117.066406 90.9375 C 116.960938 89.320312 115.820312 86.761719 115.820312 86.578125 C 117.632812 88.011719 117.609375 90.246094 118.160156 91.605469 C 118.621094 92.292969 118.855469 93.214844 119.054688 93 L 118.523438 88.800781 L 118.210938 87.261719 C 119.550781 88.035156 120.027344 90.976562 120.65625 94.511719 C 120.65625 95.070312 120.882812 95.6875 120.851562 96.050781 C 121.140625 96.40625 121.464844 97.390625 121.460938 96.804688 C 121.460938 96.804688 121.460938 91.0625 121.066406 89.746094 C 120.964844 89.039062 121.234375 87.894531 121.234375 87.894531 C 121.722656 90.277344 122.246094 92.859375 122.738281 95.238281 L 122.738281 96.988281 L 123.472656 97.726562 C 123.609375 96.285156 123.777344 94.851562 123.921875 93.417969 L 123.371094 88.277344 L 123.371094 86.8125 C 123.359375 86.292969 123.84375 86.390625 124.148438 86.976562 C 124.222656 88.238281 124.222656 89.222656 124.273438 90.476562 C 124.488281 91.910156 124.640625 92.960938 124.746094 94.789062 C 124.804688 96.265625 124.871094 99.8125 125.183594 99.75 Z M 125.183594 99.75 "/>
</g>
</svg>
