<?xml version="1.0" encoding="UTF-8"?>
<svg xmlns="http://www.w3.org/2000/svg" xmlns:xlink="http://www.w3.org/1999/xlink" width="200px" height="200px" viewBox="0 0 200 200" version="1.1">
<g id="surface1">
<path style=" stroke:none;fill-rule:nonzero;fill:rgb(12.54902%,37.647059%,23.921569%);fill-opacity:1;" d="M 200 150 C 200 162.273438 190.050781 172.222656 177.777344 172.222656 L 22.222656 172.222656 C 9.949219 172.222656 0 162.273438 0 150 L 0 50 C 0 37.726562 9.949219 27.777344 22.222656 27.777344 L 177.777344 27.777344 C 190.050781 27.777344 200 37.726562 200 50 Z M 200 150 "/>
<path style=" stroke:none;fill-rule:nonzero;fill:rgb(98.039216%,82.352941%,0.392157%);fill-opacity:1;" d="M 0 105.554688 L 200 105.554688 L 200 144.445312 L 0 144.445312 Z M 0 105.554688 "/>
<path style=" stroke:none;fill-rule:nonzero;fill:rgb(0%,63.137255%,87.058824%);fill-opacity:1;" d="M 177.777344 27.777344 L 22.222656 27.777344 C 9.949219 27.777344 0 37.726562 0 50 L 0 116.667969 L 200 116.667969 L 200 50 C 200 37.726562 190.050781 27.777344 177.777344 27.777344 Z M 177.777344 27.777344 "/>
<path style=" stroke:none;fill-rule:nonzero;fill:rgb(98.039216%,82.352941%,0.392157%);fill-opacity:1;" d="M 144.445312 27.777344 L 147.34375 50.1875 L 155.945312 29.289062 L 152.949219 51.6875 L 166.667969 33.734375 L 157.972656 54.59375 L 175.867188 40.792969 L 162.070312 58.695312 L 182.9375 50 L 164.972656 63.714844 L 187.378906 60.714844 L 166.476562 69.316406 L 188.890625 72.222656 L 166.476562 75.128906 L 187.378906 83.722656 L 164.972656 80.726562 L 182.9375 94.445312 L 162.070312 85.75 L 175.867188 103.648438 L 157.972656 89.851562 L 166.667969 110.714844 L 152.949219 92.75 L 155.945312 115.15625 L 147.34375 94.253906 L 144.445312 116.667969 L 141.542969 94.253906 L 132.9375 115.15625 L 135.9375 92.75 L 122.222656 110.714844 L 130.917969 89.851562 L 113.023438 103.648438 L 126.8125 85.75 L 105.949219 94.445312 L 123.910156 80.726562 L 101.511719 83.722656 L 122.40625 75.128906 L 100 72.222656 L 122.40625 69.316406 L 101.511719 60.714844 L 123.910156 63.714844 L 105.949219 50 L 126.8125 58.695312 L 113.023438 40.792969 L 130.917969 54.59375 L 122.222656 33.734375 L 135.9375 51.6875 L 132.9375 29.289062 L 141.542969 50.1875 Z M 144.445312 27.777344 "/>
<path style=" stroke:none;fill-rule:nonzero;fill:rgb(0%,63.137255%,87.058824%);fill-opacity:1;" d="M 166.667969 72.222656 C 166.667969 84.496094 156.71875 94.445312 144.445312 94.445312 C 132.171875 94.445312 122.222656 84.496094 122.222656 72.222656 C 122.222656 59.949219 132.171875 50 144.445312 50 C 156.71875 50 166.667969 59.949219 166.667969 72.222656 Z M 166.667969 72.222656 "/>
<path style=" stroke:none;fill-rule:nonzero;fill:rgb(98.039216%,82.352941%,0.392157%);fill-opacity:1;" d="M 161.109375 72.222656 C 161.109375 81.425781 153.648438 88.890625 144.445312 88.890625 C 135.238281 88.890625 127.777344 81.425781 127.777344 72.222656 C 127.777344 63.015625 135.238281 55.554688 144.445312 55.554688 C 153.648438 55.554688 161.109375 63.015625 161.109375 72.222656 Z M 161.109375 72.222656 "/>
</g>
</svg>
