<?xml version="1.0" encoding="UTF-8"?>
<svg xmlns="http://www.w3.org/2000/svg" xmlns:xlink="http://www.w3.org/1999/xlink" width="200px" height="px" viewBox="0 0 200 200" version="1.1">
<g id="surface1">
<path style=" stroke:none;fill-rule:nonzero;fill:rgb(93.333333%,93.333333%,93.333333%);fill-opacity:1;" d="M 0 77.777344 L 200 77.777344 L 200 122.222656 L 0 122.222656 Z M 0 77.777344 "/>
<path style=" stroke:none;fill-rule:nonzero;fill:rgb(0.392157%,33.72549%,63.921569%);fill-opacity:1;" d="M 177.777344 27.777344 L 22.222656 27.777344 C 9.949219 27.777344 0 37.726562 0 50 L 0 77.777344 L 200 77.777344 L 200 50 C 200 37.726562 190.050781 27.777344 177.777344 27.777344 Z M 0 150 C 0 162.273438 9.949219 172.222656 22.222656 172.222656 L 177.777344 172.222656 C 190.050781 172.222656 200 162.273438 200 150 L 200 122.222656 L 0 122.222656 Z M 0 150 "/>
<path style=" stroke:none;fill-rule:nonzero;fill:rgb(14.901961%,34.117647%,65.490196%);fill-opacity:1;" d="M 101.472656 98.667969 L 100.089844 94.410156 L 98.707031 98.667969 L 94.226562 98.667969 L 97.851562 101.292969 L 96.464844 105.554688 L 100.089844 102.921875 L 103.710938 105.554688 L 102.328125 101.292969 L 105.949219 98.667969 Z M 131.09375 112.445312 L 129.710938 116.699219 L 133.332031 114.070312 L 136.957031 116.699219 L 135.570312 112.445312 L 139.195312 109.816406 L 134.714844 109.816406 L 133.332031 105.554688 L 131.949219 109.816406 L 127.472656 109.816406 Z M 134.714844 87.554688 L 133.332031 83.300781 L 131.949219 87.554688 L 127.472656 87.554688 L 131.09375 90.183594 L 129.710938 94.445312 L 133.332031 91.8125 L 136.957031 94.445312 L 135.570312 90.183594 L 139.195312 87.554688 Z M 64.121094 112.445312 L 62.738281 116.699219 L 66.359375 114.070312 L 69.984375 116.699219 L 68.601562 112.445312 L 72.222656 109.816406 L 67.746094 109.816406 L 66.359375 105.554688 L 64.976562 109.816406 L 60.5 109.816406 Z M 67.746094 87.554688 L 66.359375 83.300781 L 64.976562 87.554688 L 60.5 87.554688 L 64.121094 90.183594 L 62.738281 94.445312 L 66.359375 91.8125 L 69.984375 94.445312 L 68.601562 90.183594 L 72.222656 87.554688 Z M 67.746094 87.554688 "/>
</g>
</svg>
