<?xml version="1.0" encoding="UTF-8"?>
<svg xmlns="http://www.w3.org/2000/svg" xmlns:xlink="http://www.w3.org/1999/xlink" width="200px" height="200px" viewBox="0 0 200 200" version="1.1">
<g id="surface1">
<path style=" stroke:none;fill-rule:nonzero;fill:rgb(93.333333%,93.333333%,93.333333%);fill-opacity:1;" d="M 100 100 L 100 27.777344 L 22.222656 27.777344 C 9.949219 27.777344 0 37.726562 0 50 L 0 100 Z M 100 100 L 100 172.222656 L 177.777344 172.222656 C 190.050781 172.222656 200 162.273438 200 150 L 200 100 Z M 100 100 "/>
<path style=" stroke:none;fill-rule:nonzero;fill:rgb(0%,32.156863%,57.647059%);fill-opacity:1;" d="M 100 100 L 100 172.222656 L 22.222656 172.222656 C 9.949219 172.222656 0 162.273438 0 150 L 0 100 Z M 100 100 "/>
<path style=" stroke:none;fill-rule:nonzero;fill:rgb(82.352941%,6.27451%,20.392157%);fill-opacity:1;" d="M 100 100 L 100 27.777344 L 177.777344 27.777344 C 190.050781 27.777344 200 37.726562 200 50 L 200 100 Z M 100 100 "/>
<path style=" stroke:none;fill-rule:nonzero;fill:rgb(0%,32.156863%,57.647059%);fill-opacity:1;" d="M 53.746094 58.738281 L 50 47.222656 L 46.253906 58.738281 L 34.148438 58.738281 L 43.945312 65.855469 L 40.207031 77.371094 L 50 70.253906 L 59.792969 77.371094 L 56.054688 65.855469 L 65.851562 58.738281 Z M 53.746094 58.738281 "/>
<path style=" stroke:none;fill-rule:nonzero;fill:rgb(82.352941%,6.27451%,20.392157%);fill-opacity:1;" d="M 143.945312 138.078125 L 140.207031 149.59375 L 150 142.476562 L 159.792969 149.59375 L 156.054688 138.078125 L 165.851562 130.960938 L 153.746094 130.960938 L 150 119.445312 L 146.253906 130.960938 L 134.148438 130.960938 Z M 143.945312 138.078125 "/>
</g>
</svg>
