<?xml version="1.0" encoding="UTF-8"?>
<svg xmlns="http://www.w3.org/2000/svg" xmlns:xlink="http://www.w3.org/1999/xlink" width="200px" height="200px" viewBox="0 0 200 200" version="1.1">
<g id="surface1">
<path style=" stroke:none;fill-rule:nonzero;fill:rgb(80.784314%,6.666667%,14.901961%);fill-opacity:1;" d="M 177.777344 27.777344 L 105.554688 27.777344 L 105.554688 100 L 0 100 L 0 150 C 0 162.273438 9.949219 172.222656 22.222656 172.222656 L 177.777344 172.222656 C 190.050781 172.222656 200 162.273438 200 150 L 200 50 C 200 37.726562 190.050781 27.777344 177.777344 27.777344 Z M 177.777344 27.777344 "/>
<path style=" stroke:none;fill-rule:nonzero;fill:rgb(0%,16.862745%,49.803922%);fill-opacity:1;" d="M 105.554688 27.777344 L 22.222656 27.777344 C 9.949219 27.777344 0 37.726562 0 50 L 0 100 L 105.554688 100 Z M 50.421875 36.617188 L 52.316406 30.789062 L 54.210938 36.617188 L 60.339844 36.617188 L 55.378906 40.222656 L 57.273438 46.050781 L 52.316406 42.449219 L 47.355469 46.050781 L 49.25 40.222656 L 44.289062 36.617188 Z M 35.207031 64.105469 L 30.246094 60.5 L 25.285156 64.105469 L 27.179688 58.277344 L 22.222656 54.671875 L 28.351562 54.671875 L 30.246094 48.84375 L 32.140625 54.671875 L 38.265625 54.671875 L 33.3125 58.277344 Z M 58.515625 96.988281 L 52.316406 92.484375 L 46.117188 96.988281 L 48.484375 89.699219 L 42.285156 85.195312 L 49.945312 85.195312 L 52.3125 77.90625 L 54.679688 85.195312 L 62.339844 85.195312 L 56.140625 89.699219 Z M 66.449219 73.921875 L 63.351562 71.667969 L 60.25 73.917969 L 61.433594 70.273438 L 58.332031 68.023438 L 62.167969 68.023438 L 63.351562 64.378906 L 64.535156 68.023438 L 68.367188 68.023438 L 65.265625 70.273438 Z M 79.535156 60.144531 L 74.882812 56.765625 L 70.234375 60.144531 L 72.011719 54.679688 L 67.359375 51.300781 L 73.105469 51.300781 L 74.882812 45.832031 L 76.660156 51.300781 L 82.40625 51.300781 L 77.753906 54.679688 Z M 79.535156 60.144531 "/>
<path style=" stroke:none;fill-rule:nonzero;fill:rgb(100%,100%,100%);fill-opacity:1;" d="M 47.355469 46.050781 L 52.316406 42.449219 L 57.273438 46.050781 L 55.378906 40.222656 L 60.339844 36.617188 L 54.210938 36.617188 L 52.316406 30.789062 L 50.421875 36.617188 L 44.289062 36.617188 L 49.25 40.222656 Z M 32.140625 54.671875 L 30.246094 48.84375 L 28.351562 54.671875 L 22.222656 54.671875 L 27.183594 58.277344 L 25.289062 64.105469 L 30.246094 60.503906 L 35.207031 64.105469 L 33.3125 58.277344 L 38.273438 54.671875 Z M 76.660156 51.300781 L 74.882812 45.832031 L 73.105469 51.300781 L 67.359375 51.300781 L 72.011719 54.679688 L 70.234375 60.144531 L 74.882812 56.765625 L 79.535156 60.144531 L 77.753906 54.679688 L 82.40625 51.300781 Z M 64.535156 68.023438 L 63.351562 64.378906 L 62.167969 68.023438 L 58.332031 68.023438 L 61.433594 70.277344 L 60.25 73.921875 L 63.351562 71.667969 L 66.449219 73.921875 L 65.265625 70.277344 L 68.367188 68.023438 Z M 54.683594 85.199219 L 52.316406 77.910156 L 49.945312 85.199219 L 42.285156 85.199219 L 48.484375 89.699219 L 46.117188 96.988281 L 52.316406 92.488281 L 58.515625 96.988281 L 56.144531 89.699219 L 62.34375 85.199219 Z M 54.683594 85.199219 "/>
</g>
</svg>
