<?xml version="1.0" encoding="UTF-8"?>
<svg xmlns="http://www.w3.org/2000/svg" xmlns:xlink="http://www.w3.org/1999/xlink" width="200px" height="200px" viewBox="0 0 200 200" version="1.1">
<g id="surface1">
<path style=" stroke:none;fill-rule:nonzero;fill:rgb(0%,52.156863%,24.705882%);fill-opacity:1;" d="M 22.222656 27.777344 C 9.949219 27.777344 0 37.726562 0 50 L 0 150 C 0 162.273438 9.949219 172.222656 22.222656 172.222656 L 66.667969 172.222656 L 66.667969 27.777344 Z M 22.222656 27.777344 "/>
<path style=" stroke:none;fill-rule:nonzero;fill:rgb(99.215686%,93.72549%,25.882353%);fill-opacity:1;" d="M 66.667969 27.777344 L 133.332031 27.777344 L 133.332031 172.222656 L 66.667969 172.222656 Z M 66.667969 27.777344 "/>
<path style=" stroke:none;fill-rule:nonzero;fill:rgb(89.019608%,10.588235%,13.72549%);fill-opacity:1;" d="M 177.777344 27.777344 L 133.332031 27.777344 L 133.332031 172.222656 L 177.777344 172.222656 C 190.050781 172.222656 200 162.273438 200 150 L 200 50 C 200 37.726562 190.050781 27.777344 177.777344 27.777344 Z M 177.777344 27.777344 "/>
<path style=" stroke:none;fill-rule:nonzero;fill:rgb(0%,52.156863%,24.705882%);fill-opacity:1;" d="M 104.828125 92.632812 L 100 77.777344 L 95.171875 92.632812 L 79.554688 92.632812 L 92.1875 101.8125 L 87.367188 116.667969 L 100 107.488281 L 112.632812 116.667969 L 107.8125 101.8125 L 120.445312 92.632812 Z M 104.828125 92.632812 "/>
</g>
</svg>
