<?xml version="1.0" encoding="UTF-8"?>
<svg xmlns="http://www.w3.org/2000/svg" xmlns:xlink="http://www.w3.org/1999/xlink" width="200px" height="px" viewBox="0 0 200 200" version="1.1">
<g id="surface1">
<path style=" stroke:none;fill-rule:nonzero;fill:rgb(98.823529%,86.666667%,3.921569%);fill-opacity:1;" d="M 0 72.222656 L 200 72.222656 L 200 127.777344 L 0 127.777344 Z M 0 72.222656 "/>
<path style=" stroke:none;fill-rule:nonzero;fill:rgb(3.137255%,53.72549%,18.823529%);fill-opacity:1;" d="M 177.777344 27.777344 L 22.222656 27.777344 C 9.949219 27.777344 0 37.726562 0 50 L 0 72.222656 L 200 72.222656 L 200 50 C 200 37.726562 190.050781 27.777344 177.777344 27.777344 Z M 177.777344 27.777344 "/>
<path style=" stroke:none;fill-rule:nonzero;fill:rgb(85.490196%,7.058824%,9.803922%);fill-opacity:1;" d="M 22.222656 172.222656 L 177.777344 172.222656 C 190.050781 172.222656 200 162.273438 200 150 L 200 127.777344 L 0 127.777344 L 0 150 C 0 162.273438 9.949219 172.222656 22.222656 172.222656 Z M 22.222656 172.222656 "/>
<path style=" stroke:none;fill-rule:nonzero;fill:rgb(5.882353%,27.843137%,68.627451%);fill-opacity:1;" d="M 150 100 C 150 127.613281 127.613281 150 100 150 C 72.386719 150 50 127.613281 50 100 C 50 72.386719 72.386719 50 100 50 C 127.613281 50 150 72.386719 150 100 Z M 150 100 "/>
<path style=" stroke:none;fill-rule:nonzero;fill:rgb(98.823529%,86.666667%,3.921569%);fill-opacity:1;" d="M 73.609375 135.9375 L 83.160156 105.210938 L 67.988281 94.183594 L 74.410156 94.183594 L 95.398438 110.253906 L 92.101562 112.25 L 86.976562 107.640625 L 78.820312 132.117188 Z M 73.609375 135.9375 "/>
<path style=" stroke:none;fill-rule:nonzero;fill:rgb(98.823529%,86.666667%,3.921569%);fill-opacity:1;" d="M 125.605469 135.9375 L 99.328125 117.355469 L 84.199219 128.300781 L 86.183594 122.1875 L 108.207031 106.5 L 109.082031 110.253906 L 102.816406 114.472656 L 123.589844 129.800781 Z M 125.605469 135.9375 "/>
<path style=" stroke:none;fill-rule:nonzero;fill:rgb(98.823529%,86.666667%,3.921569%);fill-opacity:1;" d="M 141.011719 86.890625 L 115.90625 105.621094 L 121.527344 123.523438 L 116.332031 119.761719 L 108.207031 94.023438 L 112.054688 94.34375 L 114.25 101.410156 L 134.804688 86.707031 Z M 141.011719 86.890625 "/>
<path style=" stroke:none;fill-rule:nonzero;fill:rgb(98.823529%,86.666667%,3.921569%);fill-opacity:1;" d="M 99.289062 55.945312 L 109.621094 86.429688 L 128.199219 86.707031 L 123.015625 90.484375 L 97.746094 90.273438 L 99.25 86.707031 L 104.6875 86.371094 L 97.316406 62.09375 Z M 56.683594 86.371094 L 89.496094 86.371094 L 95.398438 68.292969 L 97.390625 74.394531 L 88.957031 100 L 86.035156 97.464844 L 88.679688 89.84375 L 62.105469 90.003906 Z M 98.496094 123.957031 L 100.8125 123.957031 L 100.8125 144.214844 L 98.496094 144.214844 Z M 142.089844 112.359375 L 141.378906 114.5625 L 122.222656 108.144531 L 122.933594 105.945312 Z M 142.089844 112.359375 "/>
<path style=" stroke:none;fill-rule:nonzero;fill:rgb(98.823529%,86.666667%,3.921569%);fill-opacity:1;" d="M 124.851562 63.628906 L 126.722656 64.988281 L 114.628906 81.773438 L 112.753906 80.417969 Z M 72.855469 64.988281 L 74.726562 63.628906 L 86.804688 80.410156 L 84.9375 81.773438 Z M 58.207031 114.5625 L 57.488281 112.359375 L 76.679688 105.945312 L 77.394531 108.148438 Z M 58.207031 114.5625 "/>
</g>
</svg>
