<?xml version="1.0" encoding="UTF-8"?>
<svg xmlns="http://www.w3.org/2000/svg" xmlns:xlink="http://www.w3.org/1999/xlink" width="200px" height="px" viewBox="0 0 200 200" version="1.1">
<g id="surface1">
<path style=" stroke:none;fill-rule:nonzero;fill:rgb(41.568627%,69.803922%,90.588235%);fill-opacity:1;" d="M 177.777344 27.777344 L 22.222656 27.777344 C 16.578125 27.777344 11.445312 29.898438 7.523438 33.367188 L 97.222656 100 L 200 100 L 200 50 C 200 37.726562 190.050781 27.777344 177.777344 27.777344 Z M 177.777344 27.777344 "/>
<path style=" stroke:none;fill-rule:nonzero;fill:rgb(7.058824%,67.843137%,16.862745%);fill-opacity:1;" d="M 177.777344 172.222656 L 22.222656 172.222656 C 16.578125 172.222656 11.445312 170.101562 7.523438 166.632812 L 97.222656 100 L 200 100 L 200 150 C 200 162.273438 190.050781 172.222656 177.777344 172.222656 Z M 177.777344 172.222656 "/>
<path style=" stroke:none;fill-rule:nonzero;fill:rgb(93.333333%,93.333333%,93.333333%);fill-opacity:1;" d="M 7.683594 166.515625 L 97.222656 100 L 7.523438 33.367188 C 2.917969 37.4375 0 43.371094 0 50 L 0 147.222656 C 0 155.445312 2.984375 162.128906 7.683594 166.515625 Z M 7.683594 166.515625 "/>
<path style=" stroke:none;fill-rule:nonzero;fill:rgb(84.313725%,7.843137%,10.196078%);fill-opacity:1;" d="M 36.109375 80.554688 L 40.699219 94.683594 L 55.554688 94.683594 L 43.539062 103.417969 L 48.128906 117.542969 L 36.109375 108.8125 L 24.09375 117.542969 L 28.683594 103.417969 L 16.667969 94.683594 L 31.523438 94.683594 Z M 36.109375 80.554688 "/>
</g>
</svg>
