<?xml version="1.0" encoding="UTF-8"?>
<svg xmlns="http://www.w3.org/2000/svg" xmlns:xlink="http://www.w3.org/1999/xlink" width="200px" height="200px" viewBox="0 0 200 200" version="1.1">
<g id="surface1">
<path style=" stroke:none;fill-rule:nonzero;fill:rgb(93.333333%,93.333333%,93.333333%);fill-opacity:1;" d="M 56.410156 66.667969 L 10.183594 31.316406 C 9.207031 31.949219 8.273438 32.660156 7.40625 33.433594 L 7.40625 33.4375 C 2.859375 37.511719 0 43.421875 0 50 L 0 150 C 0 156.578125 2.859375 162.488281 7.40625 166.5625 C 8.273438 167.339844 9.207031 168.042969 10.1875 168.683594 L 100 100 Z M 56.410156 66.667969 "/>
<path style=" stroke:none;fill-rule:nonzero;fill:rgb(87.058824%,12.54902%,5.882353%);fill-opacity:1;" d="M 37.121094 64.429688 L 47.027344 84.5 L 69.1875 87.722656 L 53.148438 103.351562 L 56.9375 125.417969 L 37.121094 114.996094 L 17.304688 125.417969 L 21.089844 103.351562 L 5.054688 87.722656 L 27.210938 84.5 Z M 37.121094 64.429688 "/>
<path style=" stroke:none;fill-rule:nonzero;fill:rgb(100%,82.352941%,0%);fill-opacity:1;" d="M 41.667969 85.878906 C 36.570312 81.710938 34.488281 78.699219 30.789062 72.917969 C 27.089844 67.132812 22.222656 67.820312 20.140625 72.917969 C 16.898438 73.609375 15.972656 77.082031 15.972656 77.082031 C 21.292969 75.460938 24.765625 78.933594 25.234375 86.34375 C 25.699219 93.753906 23.84375 95.832031 20.605469 102.316406 C 17.367188 108.800781 21.066406 110.417969 21.066406 110.417969 L 23.199219 121.671875 L 56.300781 121.671875 L 60.882812 101.851562 L 63.660156 101.851562 C 63.65625 101.851562 46.761719 90.042969 41.667969 85.878906 Z M 41.667969 85.878906 "/>
<path style=" stroke:none;fill-rule:nonzero;fill:rgb(100%,67.45098%,20%);fill-opacity:1;" d="M 32.289062 91.839844 L 30.378906 93.148438 C 30.378906 93.148438 33.851562 100.753906 38.882812 101.851562 C 43.917969 102.945312 60.199219 104.753906 60.199219 104.753906 L 60.871094 101.851562 C 60.871094 101.851562 44.035156 99.820312 39.804688 99.128906 C 35.578125 98.433594 32.289062 91.839844 32.289062 91.839844 Z M 28.121094 110.59375 C 28.121094 110.59375 35.238281 110.003906 38.890625 110.59375 C 42.292969 111.144531 56.628906 111.9375 58.523438 112.042969 L 59.148438 109.320312 C 57.210938 109.011719 42.066406 106.59375 37.84375 106.34375 C 33.332031 106.078125 28.820312 108.265625 28.121094 110.59375 Z M 31.773438 115.972656 L 32.640625 121.671875 L 56.292969 121.671875 L 57.304688 117.3125 C 45.789062 115.035156 31.773438 115.972656 31.773438 115.972656 Z M 31.773438 115.972656 "/>
<path style=" stroke:none;fill-rule:nonzero;fill:rgb(94.509804%,35.294118%,16.078431%);fill-opacity:1;" d="M 56.515625 121.949219 L 22.964844 121.949219 L 22.921875 121.726562 L 20.816406 110.601562 C 20.496094 110.421875 19.699219 109.867188 19.273438 108.683594 C 18.667969 107.015625 19.035156 104.832031 20.351562 102.1875 C 20.839844 101.210938 21.300781 100.332031 21.722656 99.515625 C 24.054688 95.039062 25.339844 92.570312 24.957031 86.355469 C 24.695312 82.210938 23.488281 79.285156 21.472656 77.882812 C 20.011719 76.871094 18.1875 76.695312 16.054688 77.34375 L 15.578125 77.488281 L 15.707031 77.003906 C 15.746094 76.859375 16.683594 73.460938 19.9375 72.671875 C 20.972656 70.238281 22.683594 68.746094 24.644531 68.566406 C 26.90625 68.371094 29.167969 69.851562 31.023438 72.761719 C 34.59375 78.339844 36.695312 81.449219 41.84375 85.660156 C 46.871094 89.773438 63.648438 101.503906 63.820312 101.621094 L 64.542969 102.128906 L 61.105469 102.128906 Z M 23.429688 121.398438 L 56.070312 121.398438 L 60.65625 101.578125 L 62.777344 101.578125 C 59.496094 99.273438 45.933594 89.734375 41.488281 86.09375 C 36.277344 81.828125 34.15625 78.695312 30.554688 73.066406 C 28.816406 70.339844 26.699219 68.933594 24.695312 69.128906 C 22.90625 69.289062 21.339844 70.710938 20.394531 73.023438 L 20.339844 73.15625 L 20.195312 73.183594 C 17.871094 73.683594 16.792969 75.726562 16.410156 76.667969 C 18.5 76.144531 20.304688 76.398438 21.789062 77.429688 C 23.957031 78.929688 25.246094 82.003906 25.511719 86.320312 C 25.910156 92.695312 24.601562 95.210938 22.222656 99.777344 C 21.800781 100.589844 21.34375 101.464844 20.855469 102.4375 C 19.628906 104.894531 19.261719 106.976562 19.792969 108.476562 C 20.246094 109.726562 21.144531 110.144531 21.183594 110.160156 L 21.316406 110.222656 L 21.34375 110.359375 Z M 23.429688 121.398438 "/>
<path style=" stroke:none;fill-rule:nonzero;fill:rgb(19.215686%,57.254902%,3.529412%);fill-opacity:1;" d="M 199.292969 44.445312 C 196.828125 34.859375 188.132812 27.777344 177.777344 27.777344 L 22.222656 27.777344 C 17.789062 27.777344 13.65625 29.078125 10.1875 31.3125 L 10.183594 31.316406 L 27.351562 44.445312 Z M 199.292969 155.554688 C 196.828125 165.140625 188.128906 172.222656 177.777344 172.222656 L 22.222656 172.222656 C 17.789062 172.222656 13.65625 170.921875 10.1875 168.6875 L 10.183594 168.683594 L 27.351562 155.554688 Z M 199.292969 155.554688 "/>
<path style=" stroke:none;fill-rule:nonzero;fill:rgb(100%,82.352941%,0%);fill-opacity:1;" d="M 27.351562 44.445312 L 100 100 L 27.351562 155.554688 L 199.292969 155.554688 C 199.753906 153.773438 200 151.929688 200 150 L 200 50 C 200 48.09375 199.746094 46.210938 199.292969 44.445312 C 199.292969 44.433594 27.351562 44.445312 27.351562 44.445312 Z M 27.351562 44.445312 "/>
<path style=" stroke:none;fill-rule:nonzero;fill:rgb(87.058824%,12.54902%,5.882353%);fill-opacity:1;" d="M 56.410156 66.667969 L 85.472656 88.890625 L 200 88.890625 L 200 66.667969 Z M 56.410156 133.332031 L 200 133.332031 L 200 111.109375 L 85.472656 111.109375 Z M 56.410156 133.332031 "/>
<path style=" stroke:none;fill-rule:nonzero;fill:rgb(7.843137%,7.843137%,7.843137%);fill-opacity:1;" d="M 85.472656 88.890625 L 10.183594 31.316406 C 9.207031 31.949219 8.273438 32.660156 7.40625 33.433594 L 7.40625 33.4375 L 94.445312 100 L 7.40625 166.5625 C 8.273438 167.339844 9.207031 168.042969 10.1875 168.683594 L 85.472656 111.109375 L 200 111.109375 L 200 88.890625 Z M 85.472656 88.890625 "/>
</g>
</svg>
