<?xml version="1.0" encoding="UTF-8"?>
<svg xmlns="http://www.w3.org/2000/svg" xmlns:xlink="http://www.w3.org/1999/xlink" width="200px" height="200px" viewBox="0 0 200 200" version="1.1">
<g id="surface1">
<path style=" stroke:none;fill-rule:nonzero;fill:rgb(76.862745%,15.294118%,18.431373%);fill-opacity:1;" d="M 200 150 C 200 162.273438 190.050781 172.222656 177.777344 172.222656 L 22.222656 172.222656 C 9.949219 172.222656 0 162.273438 0 150 L 0 50 C 0 37.726562 9.949219 27.777344 22.222656 27.777344 L 177.777344 27.777344 C 190.050781 27.777344 200 37.726562 200 50 Z M 200 150 "/>
<path style=" stroke:none;fill-rule:nonzero;fill:rgb(0%,31.764706%,59.215686%);fill-opacity:1;" d="M 66.667969 27.777344 L 133.332031 27.777344 L 133.332031 172.222656 L 66.667969 172.222656 Z M 66.667969 27.777344 "/>
<path style=" stroke:none;fill-rule:nonzero;fill:rgb(97.647059%,81.176471%,0.392157%);fill-opacity:1;" d="M 7.144531 91.273438 L 15.871094 91.273438 L 15.871094 161.109375 L 7.144531 161.109375 Z M 20.449219 104.367188 L 46.222656 104.367188 L 46.222656 108.734375 L 20.449219 108.734375 Z M 50.792969 91.273438 L 59.523438 91.273438 L 59.523438 161.109375 L 50.792969 161.109375 Z M 20.449219 143.644531 L 46.222656 143.644531 L 46.222656 148.011719 L 20.449219 148.011719 Z M 20.933594 91.273438 L 45.734375 91.273438 L 33.332031 99.9375 Z M 20.449219 153.484375 L 46.214844 153.484375 L 33.332031 162.496094 Z M 42.0625 65.078125 C 42.0625 69.90625 38.148438 73.804688 33.332031 73.804688 C 28.515625 73.804688 24.605469 69.898438 24.605469 65.078125 C 24.605469 60.25 28.515625 56.351562 33.332031 56.351562 C 38.148438 56.351562 42.0625 60.253906 42.0625 65.078125 Z M 37.699219 48.710938 C 37.699219 52.929688 35.746094 54.167969 33.332031 54.167969 C 30.921875 54.167969 28.964844 52.929688 28.964844 48.710938 C 28.964844 44.488281 31.964844 38.890625 33.332031 38.890625 C 34.699219 38.890625 37.699219 44.488281 37.699219 48.710938 Z M 37.699219 48.710938 "/>
<path style=" stroke:none;fill-rule:nonzero;fill:rgb(97.647059%,81.176471%,0.392157%);fill-opacity:1;" d="M 33.332031 80.023438 C 26.09375 80.023438 19.789062 76.726562 16.199219 71.816406 C 17.707031 79.9375 24.789062 86.078125 33.332031 86.078125 C 41.878906 86.078125 48.960938 79.9375 50.464844 71.820312 C 46.878906 76.726562 40.570312 80.023438 33.332031 80.023438 Z M 47.605469 126.1875 C 47.605469 120.105469 43.789062 114.957031 38.445312 112.910156 C 40.105469 114.339844 41.667969 115.394531 41.667969 118.8125 C 41.667969 124.214844 38.457031 127.121094 33.332031 127.121094 L 33.332031 127.171875 C 29.765625 127.304688 26.898438 130.210938 26.898438 133.800781 C 26.898438 137.382812 29.765625 140.285156 33.332031 140.417969 L 33.332031 140.460938 C 33.390625 140.460938 33.433594 140.445312 33.488281 140.445312 C 33.515625 140.445312 33.539062 140.460938 33.566406 140.460938 C 33.648438 140.460938 33.714844 140.417969 33.800781 140.417969 C 41.460938 140.167969 47.605469 133.921875 47.605469 126.1875 Z M 31.273438 133.800781 C 31.273438 132.527344 32.289062 131.503906 33.566406 131.503906 C 34.839844 131.503906 35.859375 132.527344 35.859375 133.800781 C 35.859375 135.066406 34.84375 136.101562 33.566406 136.101562 C 32.289062 136.101562 31.273438 135.066406 31.273438 133.800781 Z M 31.273438 133.800781 "/>
<path style=" stroke:none;fill-rule:nonzero;fill:rgb(97.647059%,81.176471%,0.392157%);fill-opacity:1;" d="M 33.332031 111.957031 L 33.332031 111.921875 L 33.214844 111.933594 L 33.160156 111.921875 C 33.101562 111.921875 33.050781 111.957031 32.988281 111.957031 C 25.273438 112.144531 19.0625 118.410156 19.0625 126.1875 C 19.0625 132.277344 22.878906 137.429688 28.222656 139.472656 C 26.5625 138.042969 25.128906 136.984375 25.128906 133.921875 C 25.128906 128.476562 28.039062 125.464844 33.070312 125.464844 L 33.082031 125.367188 C 33.109375 125.367188 33.132812 125.382812 33.160156 125.382812 C 36.871094 125.382812 39.890625 122.351562 39.890625 118.648438 C 39.890625 114.988281 36.960938 112.050781 33.332031 111.957031 Z M 33.160156 120.957031 C 31.878906 120.957031 30.84375 119.910156 30.84375 118.640625 C 30.84375 117.367188 31.871094 116.3125 33.160156 116.3125 C 34.449219 116.3125 35.476562 117.359375 35.476562 118.640625 C 35.472656 119.910156 34.445312 120.957031 33.160156 120.957031 Z M 33.160156 120.957031 "/>
</g>
</svg>
