<?xml version="1.0" encoding="UTF-8"?>
<svg xmlns="http://www.w3.org/2000/svg" xmlns:xlink="http://www.w3.org/1999/xlink" width="200px" height="200px" viewBox="0 0 200 200" version="1.1">
<g id="surface1">
<path style=" stroke:none;fill-rule:nonzero;fill:rgb(93.333333%,93.333333%,93.333333%);fill-opacity:1;" d="M 0 72.222656 L 200 72.222656 L 200 127.777344 L 0 127.777344 Z M 0 72.222656 "/>
<path style=" stroke:none;fill-rule:nonzero;fill:rgb(80.784314%,6.666667%,14.901961%);fill-opacity:1;" d="M 177.777344 27.777344 L 22.222656 27.777344 C 9.949219 27.777344 0 37.726562 0 50 L 0 72.222656 L 200 72.222656 L 200 50 C 200 37.726562 190.050781 27.777344 177.777344 27.777344 Z M 177.777344 27.777344 "/>
<path style=" stroke:none;fill-rule:nonzero;fill:rgb(7.843137%,7.843137%,7.843137%);fill-opacity:1;" d="M 177.777344 172.222656 L 22.222656 172.222656 C 9.949219 172.222656 0 162.273438 0 150 L 0 127.777344 L 200 127.777344 L 200 150 C 200 162.273438 190.050781 172.222656 177.777344 172.222656 Z M 177.777344 172.222656 "/>
<path style=" stroke:none;fill-rule:nonzero;fill:rgb(0%,47.843137%,23.921569%);fill-opacity:1;" d="M 50.984375 101.84375 L 47.464844 112.660156 L 56.667969 105.976562 L 65.867188 112.660156 L 62.351562 101.84375 L 71.550781 95.167969 L 60.179688 95.167969 L 56.667969 84.351562 L 53.15625 95.167969 L 41.785156 95.167969 Z M 137.648438 101.84375 L 134.132812 112.660156 L 143.332031 105.976562 L 152.535156 112.660156 L 149.015625 101.84375 L 158.214844 95.167969 L 146.84375 95.167969 L 143.332031 84.351562 L 139.820312 95.167969 L 128.449219 95.167969 Z M 137.648438 101.84375 "/>
</g>
</svg>
