<?xml version="1.0" encoding="UTF-8"?>
<svg xmlns="http://www.w3.org/2000/svg" xmlns:xlink="http://www.w3.org/1999/xlink" width="200px" height="200px" viewBox="0 0 200 200" version="1.1">
<g id="surface1">
<path style=" stroke:none;fill-rule:nonzero;fill:rgb(0%,14.117647%,49.019608%);fill-opacity:1;" d="M 0 50.328125 L 0 72.222656 L 31.265625 72.222656 Z M 25.910156 172.222656 L 72.222656 172.222656 L 72.222656 139.792969 Z M 127.777344 139.800781 L 127.777344 172.222656 L 174.082031 172.222656 Z M 0 127.777344 L 0 149.671875 L 31.277344 127.777344 Z M 174.09375 27.777344 L 127.777344 27.777344 L 127.777344 60.207031 Z M 200 149.679688 L 200 127.777344 L 168.714844 127.777344 Z M 200 72.222656 L 200 50.328125 L 168.726562 72.222656 Z M 72.222656 27.777344 L 25.910156 27.777344 L 72.222656 60.207031 Z M 72.222656 27.777344 "/>
<path style=" stroke:none;fill-rule:nonzero;fill:rgb(81.176471%,10.588235%,16.862745%);fill-opacity:1;" d="M 139.667969 127.777344 L 193.621094 165.5625 C 196.238281 162.898438 198.109375 159.550781 199.121094 155.84375 L 159.039062 127.777344 Z M 72.222656 127.777344 L 60.328125 127.777344 L 6.378906 165.554688 C 9.273438 168.5 12.984375 170.605469 17.144531 171.582031 L 72.222656 133.015625 Z M 127.777344 72.222656 L 139.671875 72.222656 L 193.621094 34.445312 C 190.726562 31.5 187.023438 29.394531 182.859375 28.417969 L 127.777344 66.984375 Z M 60.328125 72.222656 L 6.378906 34.445312 C 3.761719 37.109375 1.890625 40.457031 0.871094 44.160156 L 40.957031 72.222656 Z M 60.328125 72.222656 "/>
<path style=" stroke:none;fill-rule:nonzero;fill:rgb(93.333333%,93.333333%,93.333333%);fill-opacity:1;" d="M 200 116.667969 L 116.667969 116.667969 L 116.667969 172.222656 L 127.777344 172.222656 L 127.777344 139.800781 L 174.082031 172.222656 L 177.777344 172.222656 C 183.984375 172.222656 189.589844 169.660156 193.621094 165.5625 L 139.667969 127.777344 L 159.039062 127.777344 L 199.121094 155.84375 C 199.640625 153.972656 200 152.035156 200 150 L 200 149.679688 L 168.714844 127.777344 L 200 127.777344 Z M 0 116.667969 L 0 127.777344 L 31.277344 127.777344 L 0 149.671875 L 0 150 C 0 156.0625 2.4375 161.542969 6.378906 165.554688 L 60.328125 127.777344 L 72.222656 127.777344 L 72.222656 133.015625 L 17.144531 171.578125 C 18.777344 171.964844 20.464844 172.222656 22.222656 172.222656 L 25.910156 172.222656 L 72.222656 139.792969 L 72.222656 172.222656 L 83.332031 172.222656 L 83.332031 116.667969 Z M 200 50 C 200 43.9375 197.5625 38.457031 193.621094 34.445312 L 139.671875 72.222656 L 127.777344 72.222656 L 127.777344 66.984375 L 182.859375 28.417969 C 181.222656 28.035156 179.535156 27.777344 177.777344 27.777344 L 174.09375 27.777344 L 127.777344 60.207031 L 127.777344 27.777344 L 116.667969 27.777344 L 116.667969 83.332031 L 200 83.332031 L 200 72.222656 L 168.726562 72.222656 L 200 50.328125 Z M 72.222656 27.777344 L 72.222656 60.207031 L 25.910156 27.777344 L 22.222656 27.777344 C 16.011719 27.777344 10.410156 30.339844 6.378906 34.445312 L 60.328125 72.222656 L 40.957031 72.222656 L 0.871094 44.160156 C 0.359375 46.035156 0 47.964844 0 50 L 0 50.328125 L 31.265625 72.222656 L 0 72.222656 L 0 83.332031 L 83.332031 83.332031 L 83.332031 27.777344 Z M 72.222656 27.777344 "/>
<path style=" stroke:none;fill-rule:nonzero;fill:rgb(81.176471%,10.588235%,16.862745%);fill-opacity:1;" d="M 116.667969 83.332031 L 116.667969 27.777344 L 83.332031 27.777344 L 83.332031 83.332031 L 0 83.332031 L 0 116.667969 L 83.332031 116.667969 L 83.332031 172.222656 L 116.667969 172.222656 L 116.667969 116.667969 L 200 116.667969 L 200 83.332031 Z M 116.667969 83.332031 "/>
</g>
</svg>
