<?xml version="1.0" encoding="UTF-8"?>
<svg xmlns="http://www.w3.org/2000/svg" xmlns:xlink="http://www.w3.org/1999/xlink" width="200px" height="200px" viewBox="0 0 200 200" version="1.1">
<g id="surface1">
<path style=" stroke:none;fill-rule:nonzero;fill:rgb(21.568627%,49.411765%,24.705882%);fill-opacity:1;" d="M 0 150 C 0 162.273438 9.949219 172.222656 22.222656 172.222656 L 177.777344 172.222656 C 190.050781 172.222656 200 162.273438 200 150 L 200 144.445312 L 0 144.445312 Z M 0 150 "/>
<path style=" stroke:none;fill-rule:nonzero;fill:rgb(93.333333%,93.333333%,93.333333%);fill-opacity:1;" d="M 0 127.777344 L 200 127.777344 L 200 144.445312 L 0 144.445312 Z M 0 127.777344 "/>
<path style=" stroke:none;fill-rule:nonzero;fill:rgb(21.568627%,49.411765%,24.705882%);fill-opacity:1;" d="M 177.777344 27.777344 L 22.222656 27.777344 C 9.949219 27.777344 0 37.726562 0 50 L 0 55.554688 L 200 55.554688 L 200 50 C 200 37.726562 190.050781 27.777344 177.777344 27.777344 Z M 177.777344 27.777344 "/>
<path style=" stroke:none;fill-rule:nonzero;fill:rgb(93.333333%,93.333333%,93.333333%);fill-opacity:1;" d="M 0 55.554688 L 200 55.554688 L 200 72.222656 L 0 72.222656 Z M 0 55.554688 "/>
<path style=" stroke:none;fill-rule:nonzero;fill:rgb(70.588235%,3.921569%,17.647059%);fill-opacity:1;" d="M 0 127.777344 L 200 127.777344 L 200 72.222656 L 0 72.222656 Z M 93.515625 93.832031 L 100 73.871094 L 106.484375 93.832031 L 127.472656 93.832031 L 110.488281 106.171875 L 116.972656 126.132812 L 100 113.792969 L 83.023438 126.132812 L 89.503906 106.171875 L 72.523438 93.832031 Z M 93.515625 93.832031 "/>
<path style=" stroke:none;fill-rule:nonzero;fill:rgb(92.54902%,78.431373%,11.372549%);fill-opacity:1;" d="M 83.023438 126.128906 L 100 113.792969 L 116.976562 126.128906 L 110.496094 106.167969 L 127.472656 93.832031 L 106.484375 93.832031 L 100 73.871094 L 93.515625 93.832031 L 72.527344 93.832031 L 89.503906 106.167969 Z M 83.023438 126.128906 "/>
</g>
</svg>
