<?xml version="1.0" encoding="UTF-8"?>
<svg xmlns="http://www.w3.org/2000/svg" xmlns:xlink="http://www.w3.org/1999/xlink" width="200px" height="px" viewBox="0 0 200 200" version="1.1">
<g id="surface1">
<path style=" stroke:none;fill-rule:nonzero;fill:rgb(82.352941%,10.980392%,20%);fill-opacity:1;" d="M 200 150 C 200 162.273438 190.050781 172.222656 177.777344 172.222656 L 22.222656 172.222656 C 9.949219 172.222656 0 162.273438 0 150 L 0 50 C 0 37.726562 9.949219 27.777344 22.222656 27.777344 L 177.777344 27.777344 C 190.050781 27.777344 200 37.726562 200 50 Z M 200 150 "/>
<path style=" stroke:none;fill-rule:nonzero;fill:rgb(0%,12.54902%,62.352941%);fill-opacity:1;" d="M 177.777344 27.777344 L 22.222656 27.777344 C 9.949219 27.777344 0 37.726562 0 50 L 0 100 L 200 100 L 200 50 C 200 37.726562 190.050781 27.777344 177.777344 27.777344 Z M 177.777344 27.777344 "/>
<path style=" stroke:none;fill-rule:nonzero;fill:rgb(100%,100%,100%);fill-opacity:1;" d="M 66.667969 72.449219 L 132.8125 72.449219 L 132.8125 127.777344 L 66.667969 127.777344 Z M 66.667969 72.449219 "/>
<path style=" stroke:none;fill-rule:nonzero;fill:rgb(0%,41.568627%,8.627451%);fill-opacity:1;" d="M 132.8125 120.121094 C 124.484375 115.894531 113.207031 113.25 100.027344 113.25 C 86.859375 113.25 74.996094 115.894531 66.667969 120.121094 L 66.667969 127.777344 L 132.8125 127.777344 Z M 132.8125 120.121094 "/>
<path style=" stroke:none;fill-rule:nonzero;fill:rgb(0%,12.54902%,62.352941%);fill-opacity:1;" d="M 86.238281 92.890625 L 92.710938 100.171875 L 91.898438 104.738281 L 90.5 103.945312 L 89.238281 108.710938 L 88.910156 108.710938 L 88.316406 111.226562 L 77.320312 110.300781 L 77.589844 102.457031 L 80.238281 103.214844 L 80.5625 95.894531 L 84.410156 98.511719 L 84.605469 94.078125 Z M 86.238281 92.890625 "/>
<path style=" stroke:none;fill-rule:nonzero;fill:rgb(82.352941%,10.980392%,20%);fill-opacity:1;" d="M 100.027344 107.121094 L 100.027344 118.246094 L 91.695312 115.792969 L 89.570312 112.683594 L 88.117188 111.621094 L 88.910156 108.8125 L 90.167969 103.945312 L 92.089844 103.945312 L 92.5625 99.839844 Z M 76.066406 102.089844 C 77.0625 100.898438 78.917969 101.695312 78.976562 102.089844 C 79.042969 102.488281 78.25 102.417969 77.523438 103.082031 C 76.792969 103.746094 76.996094 105.792969 75.734375 105.535156 C 74.476562 105.265625 76.066406 102.089844 76.066406 102.089844 Z M 80.5625 95.894531 C 81.84375 95.027344 83.410156 96.304688 83.359375 96.707031 C 83.3125 97.105469 82.566406 96.820312 81.6875 97.253906 C 80.804688 97.6875 80.429688 99.714844 79.289062 99.109375 C 78.15625 98.503906 80.5625 95.894531 80.5625 95.894531 Z M 85.859375 92.105469 C 87.246094 91.410156 88.632812 92.882812 88.535156 93.273438 C 88.433594 93.660156 87.460938 92.972656 86.535156 93.289062 C 85.601562 93.605469 85.234375 95.878906 84.183594 95.128906 C 83.132812 94.382812 85.859375 92.105469 85.859375 92.105469 Z M 85.859375 92.105469 "/>
<path style=" stroke:none;fill-rule:nonzero;fill:rgb(94.509804%,70.980392%,9.019608%);fill-opacity:1;" d="M 83.027344 89.015625 L 87.320312 91.632812 L 86.851562 92.890625 L 98.445312 105.726562 L 98.445312 106.722656 L 86.394531 93.214844 L 84.820312 92.957031 Z M 76.859375 92.890625 C 76.859375 92.890625 81.167969 94.542969 81.167969 94.746094 C 81.167969 94.945312 81.957031 96.265625 81.957031 96.265625 L 97.644531 108.976562 L 97.183594 109.578125 L 81.621094 96.867188 L 79.371094 95.871094 Z M 72.292969 99.410156 C 72.292969 99.410156 77.261719 100.105469 77.328125 100.304688 C 77.394531 100.503906 77.726562 101.632812 77.726562 101.632812 L 95.929688 111.5625 L 95.132812 112.027344 L 77.394531 102.222656 L 75.34375 102.089844 Z M 72.292969 99.410156 "/>
<path style=" stroke:none;fill-rule:nonzero;fill:rgb(94.509804%,70.980392%,9.019608%);fill-opacity:1;" d="M 76.601562 108.84375 L 95.304688 111.128906 L 93.535156 113.261719 L 90.761719 113.539062 L 92.832031 116.320312 L 91.832031 117.449219 L 89.050781 114.40625 C 89.050781 114.40625 88.1875 118.839844 84.417969 118.839844 C 80.644531 118.839844 79.445312 115.066406 79.445312 113.804688 C 79.445312 112.542969 79.777344 111.890625 79.777344 111.890625 L 76.199219 111.890625 Z M 76.601562 108.84375 "/>
<path style=" stroke:none;fill-rule:nonzero;fill:rgb(0%,12.54902%,62.352941%);fill-opacity:1;" d="M 113.582031 92.488281 L 106.820312 100.503906 L 107.101562 105.132812 L 108.839844 103.945312 L 110.09375 108.710938 L 110.429688 108.710938 L 111.023438 111.226562 L 122.011719 110.300781 L 121.746094 102.457031 L 119.101562 103.214844 L 118.773438 95.894531 L 114.929688 98.511719 L 114.722656 94.078125 Z M 113.582031 92.488281 "/>
<path style=" stroke:none;fill-rule:nonzero;fill:rgb(82.352941%,10.980392%,20%);fill-opacity:1;" d="M 100.027344 107.121094 L 100.027344 118.246094 L 108.003906 115.792969 L 109.945312 112.683594 L 111.3125 111.621094 L 110.472656 108.8125 L 109.167969 103.945312 L 107.6875 105.042969 L 107.179688 100.503906 Z M 123.265625 102.089844 C 122.265625 100.898438 120.410156 101.695312 120.351562 102.089844 C 120.285156 102.488281 121.082031 102.417969 121.8125 103.082031 C 122.539062 103.746094 122.34375 105.792969 123.601562 105.535156 C 124.855469 105.265625 123.265625 102.089844 123.265625 102.089844 Z M 118.773438 95.894531 C 117.488281 95.027344 115.929688 96.304688 115.972656 96.707031 C 116.023438 97.105469 116.765625 96.820312 117.648438 97.253906 C 118.535156 97.6875 118.90625 99.714844 120.050781 99.109375 C 121.179688 98.503906 118.773438 95.894531 118.773438 95.894531 Z M 113.476562 92.105469 C 112.089844 91.410156 110.710938 92.882812 110.804688 93.273438 C 110.90625 93.660156 111.871094 92.972656 112.800781 93.289062 C 113.734375 93.605469 114.105469 95.878906 115.15625 95.128906 C 116.207031 94.382812 113.476562 92.105469 113.476562 92.105469 Z M 113.476562 92.105469 "/>
<path style=" stroke:none;fill-rule:nonzero;fill:rgb(94.509804%,70.980392%,9.019608%);fill-opacity:1;" d="M 116.304688 89.015625 L 112.015625 91.632812 L 112.84375 92.890625 L 101.621094 105.726562 L 101.621094 106.722656 L 113.304688 93.214844 L 114.699219 92.957031 Z M 122.472656 92.890625 C 122.472656 92.890625 118.171875 94.542969 118.171875 94.746094 C 118.171875 94.945312 117.378906 96.265625 117.378906 96.265625 L 101.6875 108.976562 L 102.15625 109.578125 L 117.710938 96.867188 L 119.957031 95.871094 Z M 127.039062 99.410156 C 127.039062 99.410156 122.070312 100.105469 122.011719 100.304688 C 121.9375 100.503906 121.617188 101.632812 121.617188 101.632812 L 103.410156 111.5625 L 104.207031 112.027344 L 121.945312 102.226562 L 124 102.09375 Z M 127.039062 99.410156 "/>
<path style=" stroke:none;fill-rule:nonzero;fill:rgb(94.509804%,70.980392%,9.019608%);fill-opacity:1;" d="M 122.738281 108.84375 L 104.039062 111.128906 L 105.8125 113.261719 L 108.578125 113.539062 L 106.503906 116.320312 L 107.511719 117.449219 L 110.292969 114.40625 C 110.292969 114.40625 111.15625 118.839844 114.929688 118.839844 C 118.707031 118.839844 119.894531 115.066406 119.894531 113.8125 C 119.894531 112.550781 119.566406 111.894531 119.566406 111.894531 L 123.140625 111.894531 Z M 122.738281 108.84375 "/>
<path style=" stroke:none;fill-rule:nonzero;fill:rgb(100%,100%,100%);fill-opacity:1;" d="M 127 123.011719 C 127 123.011719 123.722656 123.128906 120.285156 122.382812 C 116.84375 121.632812 116.25 120.289062 114.753906 120.589844 C 113.261719 120.890625 109.792969 122.171875 106.957031 122.539062 C 104.109375 122.894531 100.027344 123.015625 100.027344 123.015625 C 100.027344 123.015625 96.273438 122.898438 93.429688 122.539062 C 90.582031 122.171875 87.445312 120.890625 85.945312 120.589844 C 84.449219 120.289062 83.851562 121.640625 80.40625 122.382812 C 76.964844 123.132812 73.671875 123.011719 73.671875 123.011719 L 74.570312 124.601562 L 73.671875 125.378906 C 81.457031 125.523438 85.050781 123.011719 85.050781 123.011719 C 88.9375 125.589844 100.027344 125.660156 100.027344 125.660156 C 100.027344 125.660156 111.449219 125.589844 115.339844 123.011719 C 115.339844 123.011719 119.09375 125.523438 126.871094 125.378906 L 126.050781 124.601562 Z M 127 123.011719 "/>
<path style=" stroke:none;fill-rule:nonzero;fill:rgb(94.509804%,70.980392%,9.019608%);fill-opacity:1;" d="M 101.621094 99.410156 C 101.621094 107.6875 100.898438 114.40625 100 114.40625 C 99.105469 114.40625 98.378906 107.6875 98.378906 99.410156 C 98.378906 91.128906 99.105469 84.417969 100 84.417969 C 100.898438 84.417969 101.621094 91.128906 101.621094 99.410156 Z M 101.621094 99.410156 "/>
<path style=" stroke:none;fill-rule:nonzero;fill:rgb(82.352941%,10.980392%,20%);fill-opacity:1;" d="M 96.855469 113.476562 L 103.210938 113.476562 L 103.210938 119.839844 L 96.855469 119.839844 Z M 96.855469 113.476562 "/>
<path style=" stroke:none;fill-rule:nonzero;fill:rgb(100%,100%,100%);fill-opacity:1;" d="M 103.605469 113.078125 C 103.605469 113.8125 102.082031 114.398438 100.195312 114.398438 C 98.3125 114.398438 96.785156 113.804688 96.785156 113.078125 C 96.785156 112.351562 98.3125 111.753906 100.195312 111.753906 C 102.082031 111.753906 103.605469 112.351562 103.605469 113.078125 Z M 103.605469 113.078125 "/>
<path style=" stroke:none;fill-rule:nonzero;fill:rgb(82.352941%,10.980392%,20%);fill-opacity:1;" d="M 103.605469 119.433594 C 103.605469 120.167969 102.082031 120.753906 100.195312 120.753906 C 98.3125 120.753906 96.785156 120.167969 96.785156 119.433594 C 96.785156 118.699219 98.3125 118.109375 100.195312 118.109375 C 102.082031 118.109375 103.605469 118.699219 103.605469 119.433594 Z M 103.605469 119.433594 "/>
<path style=" stroke:none;fill-rule:nonzero;fill:rgb(0%,41.568627%,8.627451%);fill-opacity:1;" d="M 113.964844 81.632812 C 112.695312 80.109375 109.421875 80.179688 107.199219 80.109375 C 104.984375 80.042969 103.859375 80.839844 104.855469 79.785156 C 105.851562 78.726562 107.382812 78.996094 109 78.921875 C 110.621094 78.855469 110.90625 78.660156 109.910156 78.132812 C 108.917969 77.605469 107.171875 76.949219 104.855469 77.542969 C 102.582031 78.128906 101.148438 79.542969 99.9375 79.789062 C 98.726562 79.550781 97.210938 78.128906 94.9375 77.542969 C 92.621094 76.949219 90.828125 77.601562 89.839844 78.132812 C 88.84375 78.660156 89.109375 78.855469 90.734375 78.921875 C 92.355469 78.988281 93.871094 78.722656 94.867188 79.785156 C 95.859375 80.84375 94.734375 80.042969 92.515625 80.109375 C 90.300781 80.179688 87.023438 80.109375 85.75 81.632812 C 84.476562 83.15625 86.855469 82.160156 88.117188 81.960938 C 89.371094 81.761719 91.226562 81.699219 91.226562 81.699219 C 91.226562 81.699219 88.117188 82.621094 87.253906 83.816406 C 86.394531 85.003906 87.515625 86.066406 89.109375 85.140625 C 90.699219 84.210938 93.148438 82.957031 94.472656 82.820312 C 94.472656 82.820312 91.027344 84.253906 89.503906 85.496094 C 87.984375 86.734375 89.578125 86.601562 90.734375 86.601562 C 91.890625 86.601562 93.078125 86.140625 94.070312 85.40625 C 95.066406 84.679688 93.417969 86.859375 93.144531 88.253906 C 92.882812 89.644531 94.933594 89.316406 95.300781 88.253906 C 95.660156 87.195312 96.851562 85.078125 96.851562 85.078125 C 96.851562 85.078125 96.328125 88.121094 96.394531 90.179688 C 96.460938 92.234375 97.140625 92.359375 97.667969 91.433594 C 98.195312 90.503906 100.027344 91.984375 100.027344 91.984375 C 100.027344 91.984375 101.695312 90.503906 102.222656 91.433594 C 102.753906 92.359375 103.253906 92.226562 103.320312 90.179688 C 103.390625 88.128906 102.859375 85.078125 102.859375 85.078125 C 102.859375 85.078125 104.050781 87.195312 104.417969 88.253906 C 104.777344 89.316406 106.832031 89.644531 106.566406 88.253906 C 106.304688 86.867188 104.648438 84.679688 105.644531 85.40625 C 106.640625 86.132812 107.828125 86.601562 108.984375 86.601562 C 110.144531 86.601562 111.734375 86.734375 110.214844 85.496094 C 108.695312 84.253906 105.25 82.820312 105.25 82.820312 C 106.578125 82.957031 109.023438 84.210938 110.609375 85.140625 C 112.199219 86.066406 113.320312 85.003906 112.460938 83.816406 C 111.601562 82.621094 108.488281 81.699219 108.488281 81.699219 C 108.488281 81.699219 110.34375 81.765625 111.605469 81.960938 C 112.859375 82.167969 115.238281 83.15625 113.964844 81.632812 Z M 113.964844 81.632812 "/>
</g>
</svg>
