<?xml version="1.0" encoding="UTF-8"?>
<svg xmlns="http://www.w3.org/2000/svg" xmlns:xlink="http://www.w3.org/1999/xlink" width="200px" height="200px" viewBox="0 0 200 200" version="1.1">
<g id="surface1">
<path style=" stroke:none;fill-rule:nonzero;fill:rgb(10.196078%,54.117647%,0%);fill-opacity:1;" d="M 177.777344 27.777344 L 22.222656 27.777344 C 9.949219 27.777344 0 37.726562 0 50 L 0 150 C 0 162.273438 9.949219 172.222656 22.222656 172.222656 L 177.777344 172.222656 C 190.050781 172.222656 200 162.273438 200 150 L 200 50 C 200 37.726562 190.050781 27.777344 177.777344 27.777344 Z M 177.777344 27.777344 "/>
<path style=" stroke:none;fill-rule:nonzero;fill:rgb(93.72549%,49.019608%,0%);fill-opacity:1;" d="M 172.222656 172.222656 L 177.777344 172.222656 C 190.050781 172.222656 200 162.273438 200 150 L 200 83.332031 L 172.222656 83.332031 Z M 172.222656 172.222656 "/>
<path style=" stroke:none;fill-rule:nonzero;fill:rgb(7.843137%,7.843137%,7.843137%);fill-opacity:1;" d="M 144.445312 83.332031 L 172.222656 83.332031 L 172.222656 172.222656 L 144.445312 172.222656 Z M 144.445312 83.332031 "/>
<path style=" stroke:none;fill-rule:nonzero;fill:rgb(87.058824%,12.54902%,5.882353%);fill-opacity:1;" d="M 116.667969 83.332031 L 144.445312 83.332031 L 144.445312 172.222656 L 116.667969 172.222656 Z M 116.667969 83.332031 "/>
<path style=" stroke:none;fill-rule:nonzero;fill:rgb(93.72549%,49.019608%,0%);fill-opacity:1;" d="M 194.90625 45.867188 C 194.300781 45.75 190.929688 47.671875 190.929688 47.671875 C 190.929688 47.671875 194.0625 44.0625 193.339844 44.0625 C 192.617188 44.0625 188.527344 45.984375 188.527344 45.984375 C 188.527344 45.984375 191.054688 42.855469 190.210938 43.214844 C 189.367188 43.578125 184.789062 45.621094 181.300781 47.082031 C 181.789062 46.253906 181.660156 45.015625 181.300781 45.015625 C 180.945312 45.015625 178.890625 46.339844 175.761719 47.066406 C 172.628906 47.789062 167.9375 50.4375 165.890625 50.078125 C 163.84375 49.714844 159.75 50.078125 159.75 50.078125 C 159.75 50.078125 158.550781 48.273438 159.511719 47.789062 C 160.464844 47.304688 161.199219 48.511719 161.199219 48.511719 C 161.199219 48.511719 162.890625 47.789062 162.890625 46.765625 C 162.890625 45.746094 159.996094 45.621094 159.996094 45.621094 C 159.996094 45.621094 158.785156 44.0625 156.867188 44.0625 C 151.8125 44.0625 151.445312 49.476562 151.445312 49.476562 C 151.445312 49.476562 149.394531 48.753906 147.472656 48.273438 C 145.542969 47.789062 142.171875 48.035156 138.804688 45.984375 C 135.4375 43.933594 133.265625 43.214844 137.355469 47.550781 C 131.332031 45.5 128.210938 41.410156 127.359375 43.183594 C 126.515625 44.960938 129.648438 47.066406 129.648438 47.066406 C 129.648438 47.066406 127.960938 46.589844 126.523438 45.261719 C 125.078125 43.933594 123.027344 43.09375 124.960938 45.984375 C 122.433594 45.261719 124.238281 47.910156 124.238281 47.910156 C 124.238281 47.910156 122.1875 48.511719 124.238281 49.957031 C 126.285156 51.398438 130.015625 52.003906 130.015625 52.003906 C 130.015625 52.003906 128.328125 53.207031 129.410156 53.6875 C 130.496094 54.171875 132.304688 53.8125 132.304688 53.8125 C 132.304688 53.8125 130.859375 55.011719 132.304688 55.496094 C 133.75 55.976562 135.554688 55.496094 135.554688 55.496094 C 135.554688 55.496094 134.957031 56.699219 136.394531 57.238281 C 137.84375 57.785156 140.132812 56.578125 140.132812 56.578125 C 140.132812 56.578125 139.050781 57.300781 140.132812 57.898438 C 141.214844 58.5 142.898438 57.238281 142.898438 57.238281 C 142.898438 57.238281 141.9375 58.859375 142.898438 59.105469 C 143.859375 59.34375 145.429688 58.144531 145.429688 58.144531 C 145.429688 58.144531 144.464844 59.707031 145.429688 59.828125 C 146.390625 59.949219 148.554688 58.746094 148.554688 58.746094 C 148.554688 58.746094 147.234375 60.429688 148.554688 60.429688 C 149.882812 60.429688 151.449219 59.589844 151.449219 59.589844 C 151.449219 59.589844 151.089844 60.910156 152.171875 61.394531 C 153.253906 61.878906 154.816406 60.550781 154.816406 60.550781 C 154.816406 60.550781 155.183594 63.082031 154.9375 64.523438 C 154.699219 65.964844 156.5 64.882812 156.5 64.882812 C 156.5 64.882812 156.253906 67.050781 154.8125 66.933594 C 153.367188 66.8125 151.917969 68.738281 152.40625 69.222656 C 152.890625 69.707031 154.8125 68.859375 154.8125 68.859375 C 154.8125 68.859375 154.695312 71.511719 155.410156 71.289062 C 156.132812 71.066406 157.339844 69.582031 157.339844 69.582031 C 157.339844 69.582031 158.0625 71.511719 158.550781 71.273438 C 159.035156 71.027344 159.273438 69.949219 159.273438 69.34375 C 159.273438 68.738281 160.589844 68.5 160.589844 68.5 C 160.589844 68.5 160.949219 70.90625 161.433594 70.4375 C 161.921875 69.964844 162.035156 68.378906 162.753906 67.898438 C 163.476562 67.421875 163.238281 70.667969 163.960938 70.429688 C 164.6875 70.1875 164.320312 68.015625 164.082031 67.292969 C 163.84375 66.570312 165.535156 67.894531 165.410156 67.292969 C 165.292969 66.6875 163.960938 65.488281 163.960938 65.488281 C 163.960938 65.488281 165.644531 66.09375 165.167969 65.488281 C 164.6875 64.882812 164.445312 63.320312 165.167969 63.660156 C 165.890625 64 166.496094 62.601562 166.496094 62.601562 C 166.496094 62.601562 168.417969 64.042969 169.617188 63.5625 C 170.816406 63.082031 168.054688 61.394531 168.054688 61.394531 C 168.054688 61.394531 172.273438 62.839844 173.199219 62.601562 C 174.132812 62.355469 171.785156 60.792969 171.785156 60.792969 C 171.785156 60.792969 174.433594 61.394531 174.917969 60.792969 C 175.394531 60.1875 173.195312 59.710938 173.195312 59.710938 C 173.195312 59.710938 176.109375 60.195312 176.476562 59.710938 C 176.839844 59.226562 175.640625 58.628906 175.640625 58.628906 C 175.640625 58.628906 180.449219 58.511719 181.417969 56.820312 C 186.234375 56.945312 191.527344 53.09375 192.011719 52.25 C 192.488281 51.40625 191.171875 51.40625 191.171875 51.40625 C 191.171875 51.40625 194.066406 49.117188 193.699219 48.753906 C 193.339844 48.394531 191.773438 49.234375 191.773438 49.234375 C 191.773438 49.234375 195.503906 45.984375 194.90625 45.867188 Z M 159.148438 66.570312 C 157.59375 66.570312 158.660156 65.734375 158.417969 64.890625 C 158.171875 64.042969 159.261719 64.773438 159.140625 64.042969 C 159.011719 63.320312 159.140625 59.832031 159.140625 59.832031 C 160.34375 61.039062 160.945312 62.605469 160.828125 63.804688 C 160.710938 65.011719 161.429688 65.128906 161.667969 65.734375 C 161.910156 66.339844 160.710938 66.570312 159.148438 66.570312 Z M 159.148438 66.570312 "/>
</g>
</svg>
