<?xml version="1.0" encoding="UTF-8"?>
<svg xmlns="http://www.w3.org/2000/svg" xmlns:xlink="http://www.w3.org/1999/xlink" width="200px" height="px" viewBox="0 0 200 200" version="1.1">
<g id="surface1">
<path style=" stroke:none;fill-rule:nonzero;fill:rgb(0%,21.960784%,59.215686%);fill-opacity:1;" d="M 55.554688 27.777344 L 22.222656 27.777344 C 9.949219 27.777344 0 37.726562 0 50 L 0 83.332031 L 55.554688 83.332031 Z M 177.777344 27.777344 L 88.890625 27.777344 L 88.890625 83.332031 L 200 83.332031 L 200 50 C 200 37.726562 190.050781 27.777344 177.777344 27.777344 Z M 55.554688 172.222656 L 22.222656 172.222656 C 9.949219 172.222656 0 162.273438 0 150 L 0 116.667969 L 55.554688 116.667969 Z M 177.777344 172.222656 L 88.890625 172.222656 L 88.890625 116.667969 L 200 116.667969 L 200 150 C 200 162.273438 190.050781 172.222656 177.777344 172.222656 Z M 177.777344 172.222656 "/>
<path style=" stroke:none;fill-rule:nonzero;fill:rgb(84.313725%,15.686275%,15.686275%);fill-opacity:1;" d="M 80.554688 27.777344 L 64.199219 27.777344 L 64.0625 91.667969 L 0 91.667969 L 0 108.332031 L 64.027344 108.332031 L 63.890625 172.222656 L 80.554688 172.222656 L 80.554688 108.332031 L 200 108.332031 L 200 91.667969 L 80.554688 91.667969 Z M 80.554688 27.777344 "/>
<path style=" stroke:none;fill-rule:nonzero;fill:rgb(93.333333%,93.333333%,93.333333%);fill-opacity:1;" d="M 80.554688 172.222656 L 88.890625 172.222656 L 88.890625 116.667969 L 200 116.667969 L 200 108.332031 L 80.554688 108.332031 Z M 88.890625 27.777344 L 80.554688 27.777344 L 80.554688 91.667969 L 200 91.667969 L 200 83.332031 L 88.890625 83.332031 Z M 63.890625 27.777344 L 55.554688 27.777344 L 55.554688 83.332031 L 0 83.332031 L 0 91.667969 L 63.890625 91.667969 Z M 0 108.332031 L 0 116.667969 L 55.554688 116.667969 L 55.554688 172.222656 L 63.890625 172.222656 L 63.890625 108.332031 Z M 0 108.332031 "/>
</g>
</svg>
