<?xml version="1.0" encoding="UTF-8"?>
<svg xmlns="http://www.w3.org/2000/svg" xmlns:xlink="http://www.w3.org/1999/xlink" width="200px" height="200px" viewBox="0 0 200 200" version="1.1">
<g id="surface1">
<path style=" stroke:none;fill-rule:nonzero;fill:rgb(93.333333%,12.54902%,14.117647%);fill-opacity:1;" d="M 200 150 L 200 127.777344 L 0 127.777344 L 0 150 C 0 162.273438 9.949219 172.222656 22.222656 172.222656 L 177.777344 172.222656 C 190.050781 172.222656 200 162.273438 200 150 Z M 200 150 "/>
<path style=" stroke:none;fill-rule:nonzero;fill:rgb(93.333333%,93.333333%,93.333333%);fill-opacity:1;" d="M 200 127.777344 L 0 127.777344 L 0 50 C 0 37.726562 9.949219 27.777344 22.222656 27.777344 L 177.777344 27.777344 C 190.050781 27.777344 200 37.726562 200 50 Z M 200 127.777344 "/>
<path style=" stroke:none;fill-rule:nonzero;fill:rgb(3.921569%,30.588235%,63.529412%);fill-opacity:1;" d="M 0 72.222656 L 200 72.222656 L 200 127.777344 L 0 127.777344 Z M 0 72.222656 "/>
<path style=" stroke:none;fill-rule:nonzero;fill:rgb(100%,100%,100%);fill-opacity:1;" d="M 65.761719 139.390625 C 59.488281 135.800781 45.550781 126.734375 40.457031 114.457031 C 35.316406 102.082031 36.460938 84.328125 37.785156 63.765625 L 38.117188 58.566406 L 104.578125 58.566406 L 104.917969 63.765625 C 106.238281 84.320312 107.382812 102.070312 102.246094 114.449219 C 97.144531 126.734375 83.210938 135.804688 76.933594 139.390625 L 71.355469 142.566406 Z M 65.761719 139.390625 "/>
<path style=" stroke:none;fill-rule:nonzero;fill:rgb(93.333333%,12.54902%,14.117647%);fill-opacity:1;" d="M 99.367188 64.121094 L 43.320312 64.121094 C 42 84.714844 40.976562 101.234375 45.582031 112.320312 C 51.253906 125.988281 70.671875 135.765625 71.3125 136.078125 L 71.3125 136.109375 L 71.339844 136.09375 L 71.367188 136.109375 L 71.367188 136.078125 C 72.003906 135.761719 91.421875 125.988281 97.101562 112.320312 C 101.710938 101.234375 100.695312 84.710938 99.367188 64.121094 Z M 99.367188 64.121094 "/>
<path style=" stroke:none;fill-rule:nonzero;fill:rgb(100%,100%,100%);fill-opacity:1;" d="M 88.140625 89.496094 C 88.140625 89.496094 80.355469 90.234375 73.515625 90.410156 C 73.464844 88.917969 73.4375 87.601562 73.4375 86.628906 C 73.4375 85.582031 73.476562 84.4375 73.535156 83.265625 C 78.9375 83.601562 82.671875 84.632812 82.671875 84.632812 C 84.042969 84.632812 85.15625 83.523438 85.15625 82.148438 L 85.15625 78.785156 C 85.15625 77.410156 84.042969 76.300781 82.671875 76.300781 C 82.671875 76.300781 78.566406 77 73.960938 77.292969 C 74.355469 72.949219 74.828125 69.320312 74.828125 69.320312 C 74.828125 67.949219 73.714844 66.839844 72.34375 66.839844 L 68.984375 66.839844 C 67.609375 66.839844 66.5 67.949219 66.5 69.320312 C 66.5 69.320312 67.011719 73.023438 67.445312 77.339844 C 62.710938 77.078125 58.648438 76.300781 58.648438 76.300781 C 57.277344 76.300781 56.167969 77.410156 56.167969 78.785156 L 56.167969 82.148438 C 56.167969 83.523438 57.277344 84.632812 58.648438 84.632812 C 58.648438 84.632812 62.199219 83.488281 67.929688 83.214844 C 68.003906 84.496094 68.0625 85.734375 68.0625 86.804688 C 68.0625 87.699219 68.027344 88.960938 67.972656 90.410156 C 61.070312 90.226562 53.011719 89.5 53.011719 89.5 C 51.640625 89.5 50.527344 90.609375 50.527344 91.984375 L 50.527344 95.351562 C 50.527344 96.722656 51.640625 97.832031 53.011719 97.832031 C 53.011719 97.832031 60.339844 97.234375 67.648438 97.121094 C 67.1875 105.628906 66.5 115.578125 66.5 115.578125 C 66.5 116.949219 67.609375 118.0625 68.984375 118.0625 L 72.34375 118.0625 C 73.714844 118.0625 74.828125 116.949219 74.828125 115.578125 C 74.828125 115.578125 74.210938 105.726562 73.800781 97.148438 C 80.867188 97.316406 88.140625 97.832031 88.140625 97.832031 C 89.511719 97.832031 90.621094 96.722656 90.621094 95.351562 L 90.621094 91.984375 C 90.621094 90.609375 89.511719 89.496094 88.140625 89.496094 Z M 88.140625 89.496094 "/>
<path style=" stroke:none;fill-rule:nonzero;fill:rgb(3.921569%,30.588235%,63.529412%);fill-opacity:1;" d="M 94.882812 116.472656 C 92.0625 110.4375 84.300781 108.734375 80.617188 116.105469 C 78.183594 107.25 71.277344 107.25 71.277344 107.25 C 71.277344 107.25 64.367188 107.25 61.9375 116.105469 C 58.285156 108.792969 50.605469 110.417969 47.726562 116.332031 C 55.027344 127.855469 70.746094 135.800781 71.320312 136.082031 L 71.320312 136.109375 L 71.351562 136.09375 L 71.378906 136.109375 L 71.378906 136.078125 C 71.949219 135.792969 87.542969 127.917969 94.882812 116.472656 Z M 94.882812 116.472656 "/>
</g>
</svg>
