<?xml version="1.0" encoding="UTF-8"?>
<svg xmlns="http://www.w3.org/2000/svg" xmlns:xlink="http://www.w3.org/1999/xlink" width="200px" height="200px" viewBox="0 0 200 200" version="1.1">
<g id="surface1">
<path style=" stroke:none;fill-rule:nonzero;fill:rgb(87.843137%,0%,20.392157%);fill-opacity:1;" d="M 0 72.222656 L 200 72.222656 L 200 127.777344 L 0 127.777344 Z M 0 72.222656 "/>
<path style=" stroke:none;fill-rule:nonzero;fill:rgb(0%,59.607843%,76.470588%);fill-opacity:1;" d="M 177.777344 27.777344 L 22.222656 27.777344 C 9.949219 27.777344 0 37.726562 0 50 L 0 72.222656 L 200 72.222656 L 200 50 C 200 37.726562 190.050781 27.777344 177.777344 27.777344 Z M 177.777344 27.777344 "/>
<path style=" stroke:none;fill-rule:nonzero;fill:rgb(100%,100%,100%);fill-opacity:1;" d="M 99.132812 118.515625 C 88.90625 118.515625 80.617188 110.226562 80.617188 100 C 80.617188 89.773438 88.90625 81.484375 99.132812 81.484375 C 104.589844 81.484375 109.496094 83.84375 112.882812 87.601562 C 108.894531 81.671875 102.121094 77.777344 94.445312 77.777344 C 82.171875 77.777344 72.222656 87.726562 72.222656 100 C 72.222656 112.273438 82.171875 122.222656 94.445312 122.222656 C 102.121094 122.222656 108.894531 118.328125 112.890625 112.398438 C 109.5 116.15625 104.59375 118.515625 99.132812 118.515625 Z M 99.132812 118.515625 "/>
<path style=" stroke:none;fill-rule:nonzero;fill:rgb(100%,100%,100%);fill-opacity:1;" d="M 131.484375 99.988281 L 124.839844 97.632812 L 127.859375 91.265625 L 121.496094 94.292969 L 119.128906 87.65625 L 116.773438 94.300781 L 116.753906 94.289062 L 110.398438 91.277344 L 113.433594 97.644531 L 106.789062 100.011719 L 113.433594 102.367188 L 110.410156 108.734375 L 116.75 105.714844 L 116.777344 105.707031 L 119.144531 112.34375 L 121.5 105.699219 L 127.871094 108.722656 L 124.839844 102.355469 Z M 131.484375 99.988281 "/>
<path style=" stroke:none;fill-rule:nonzero;fill:rgb(0%,68.235294%,39.607843%);fill-opacity:1;" d="M 22.222656 172.222656 L 177.777344 172.222656 C 190.050781 172.222656 200 162.273438 200 150 L 200 127.777344 L 0 127.777344 L 0 150 C 0 162.273438 9.949219 172.222656 22.222656 172.222656 Z M 22.222656 172.222656 "/>
</g>
</svg>
