<?xml version="1.0" encoding="UTF-8"?>
<svg xmlns="http://www.w3.org/2000/svg" xmlns:xlink="http://www.w3.org/1999/xlink" width="200px" height="200px" viewBox="0 0 200 200" version="1.1">
<g id="surface1">
<path style=" stroke:none;fill-rule:nonzero;fill:rgb(80%,0%,0%);fill-opacity:1;" d="M 177.777344 27.777344 L 22.222656 27.777344 C 9.949219 27.777344 0 37.726562 0 50 L 0 75 L 200 75 L 200 50 C 200 37.726562 190.050781 27.777344 177.777344 27.777344 Z M 177.777344 27.777344 "/>
<path style=" stroke:none;fill-rule:nonzero;fill:rgb(0%,40%,0%);fill-opacity:1;" d="M 0 150 C 0 162.273438 9.949219 172.222656 22.222656 172.222656 L 177.777344 172.222656 C 190.050781 172.222656 200 162.273438 200 150 L 200 125 L 0 125 Z M 0 150 "/>
<path style=" stroke:none;fill-rule:nonzero;fill:rgb(93.333333%,93.333333%,93.333333%);fill-opacity:1;" d="M 0 75 L 200 75 L 200 125 L 0 125 Z M 0 75 "/>
<path style=" stroke:none;fill-rule:nonzero;fill:rgb(100%,67.45098%,20%);fill-opacity:1;" d="M 89.609375 119.195312 C 87.34375 119.839844 86.023438 117.683594 86.023438 117.683594 L 87.816406 116.878906 L 88.683594 114.101562 L 90.476562 116.683594 L 92.5 116.683594 C 92.503906 116.679688 92.042969 118.5 89.609375 119.195312 Z M 118.199219 121.621094 C 114.726562 120.578125 106.632812 119.1875 100.488281 119.1875 C 94.355469 119.1875 86.253906 120.578125 82.777344 121.621094 C 79.300781 122.667969 80.117188 126.015625 82.777344 124.972656 C 85.4375 123.929688 91.921875 122.890625 100.488281 122.890625 C 109.054688 122.890625 115.539062 123.933594 118.199219 124.972656 C 120.867188 126.015625 121.671875 122.667969 118.199219 121.621094 Z M 101.882812 115.371094 L 100.496094 113.054688 L 99.105469 115.371094 L 96.671875 116.417969 C 96.671875 116.417969 98.40625 118.378906 100.496094 118.378906 C 102.582031 118.378906 104.316406 116.417969 104.316406 116.417969 Z M 111.378906 119.195312 C 113.644531 119.839844 114.964844 117.683594 114.964844 117.683594 L 113.171875 116.878906 L 112.304688 114.101562 L 110.515625 116.683594 L 108.488281 116.683594 C 108.476562 116.679688 108.945312 118.5 111.378906 119.195312 Z M 111.378906 119.195312 "/>
<path style=" stroke:none;fill-rule:nonzero;fill:rgb(100%,67.45098%,20%);fill-opacity:1;" d="M 124.683594 112.222656 C 124.105469 110.738281 122.671875 114.710938 118.785156 114.101562 C 114.382812 113.40625 113.460938 109.003906 113.460938 109.003906 C 113.460938 109.003906 109.988281 112.484375 106.398438 110.859375 C 102.8125 109.238281 101.890625 106.929688 101.890625 104.378906 C 101.890625 101.828125 101.5625 99.957031 101.890625 98.9375 C 102.410156 97.316406 104.320312 96.15625 106.289062 98.011719 C 107.910156 95.699219 105.132812 90.839844 100.5 90.839844 C 95.871094 90.839844 93.09375 95.699219 94.710938 98.011719 C 96.679688 96.160156 98.589844 97.316406 99.109375 98.9375 C 99.4375 99.957031 99.109375 101.828125 99.109375 104.378906 C 99.109375 106.929688 98.183594 109.238281 94.601562 110.859375 C 91.015625 112.484375 87.539062 109.003906 87.539062 109.003906 C 87.539062 109.003906 86.609375 113.40625 82.214844 114.101562 C 78.328125 114.710938 76.894531 110.738281 76.316406 112.222656 C 75.738281 113.707031 78.859375 118.148438 83.261719 116.710938 C 87.660156 115.265625 88.238281 111.554688 88.238281 111.554688 C 88.238281 111.554688 90.5 115.714844 95.761719 114.101562 C 99.726562 112.878906 100.503906 109.121094 100.503906 109.121094 C 100.503906 109.121094 101.289062 112.878906 105.25 114.101562 C 110.515625 115.714844 112.773438 111.554688 112.773438 111.554688 C 112.773438 111.554688 113.351562 115.265625 117.75 116.710938 C 122.140625 118.148438 125.265625 113.699219 124.683594 112.222656 Z M 96.671875 95 C 97.820312 92.554688 100.496094 92.917969 100.496094 92.917969 C 100.496094 92.917969 103.160156 92.554688 104.316406 95 C 102.351562 95.226562 100.496094 96.734375 100.496094 96.734375 C 100.496094 96.734375 98.640625 95.234375 96.671875 95 Z M 74.105469 100.523438 L 75.199219 103.910156 L 78.761719 103.910156 L 75.882812 106.003906 L 76.984375 109.382812 L 74.105469 107.289062 L 71.226562 109.382812 L 72.320312 106.003906 L 69.445312 103.910156 L 73.003906 103.910156 Z M 77.578125 88.140625 L 78.671875 91.527344 L 82.234375 91.527344 L 79.355469 93.621094 L 80.457031 97 L 77.578125 94.90625 L 74.699219 97 L 75.792969 93.621094 L 72.917969 91.527344 L 76.476562 91.527344 Z M 86.890625 78.183594 L 87.988281 81.570312 L 91.550781 81.570312 L 88.671875 83.667969 L 89.765625 87.042969 L 86.890625 84.949219 L 84.011719 87.042969 L 85.109375 83.667969 L 82.234375 81.570312 L 85.792969 81.570312 Z M 100.496094 74.828125 L 101.589844 78.210938 L 105.148438 78.210938 L 102.273438 80.304688 L 103.371094 83.683594 L 100.496094 81.589844 L 97.617188 83.683594 L 98.710938 80.304688 L 95.832031 78.210938 L 99.394531 78.210938 Z M 125.894531 100.523438 L 124.800781 103.910156 L 121.238281 103.910156 L 124.117188 106.003906 L 123.015625 109.382812 L 125.894531 107.289062 L 128.773438 109.382812 L 127.671875 106.003906 L 130.554688 103.910156 L 126.996094 103.910156 Z M 122.421875 88.140625 L 121.328125 91.527344 L 117.765625 91.527344 L 120.644531 93.621094 L 119.542969 97 L 122.421875 94.90625 L 125.300781 97 L 124.199219 93.621094 L 127.082031 91.527344 L 123.523438 91.527344 Z M 113.109375 78.183594 L 112.011719 81.570312 L 108.449219 81.570312 L 111.332031 83.667969 L 110.234375 87.042969 L 113.109375 84.949219 L 115.988281 87.042969 L 114.890625 83.667969 L 117.765625 81.570312 L 114.207031 81.570312 Z M 113.109375 78.183594 "/>
</g>
</svg>
