<?xml version="1.0" encoding="UTF-8"?>
<svg xmlns="http://www.w3.org/2000/svg" xmlns:xlink="http://www.w3.org/1999/xlink" width="200px" height="200px" viewBox="0 0 200 200" version="1.1">
<g id="surface1">
<path style=" stroke:none;fill-rule:nonzero;fill:rgb(35.686275%,59.215686%,69.411765%);fill-opacity:1;" d="M 177.777344 27.777344 L 22.222656 27.777344 C 21.082031 27.777344 19.960938 27.859375 18.867188 28.027344 L 18.84375 37.773438 L 3.679688 37.75 C 1.355469 41.261719 0 45.472656 0 50 L 0 150 C 0 162.273438 9.949219 172.222656 22.222656 172.222656 L 177.777344 172.222656 C 190.050781 172.222656 200 162.273438 200 150 L 200 50 C 200 37.726562 190.050781 27.777344 177.777344 27.777344 Z M 177.777344 27.777344 "/>
<path style=" stroke:none;fill-rule:nonzero;fill:rgb(100%,80.784314%,0%);fill-opacity:1;" d="M 75.542969 154.289062 L 72.839844 145.960938 L 70.132812 154.289062 L 61.371094 154.289062 L 68.460938 159.4375 L 65.753906 167.773438 L 72.839844 162.621094 L 79.929688 167.773438 L 77.222656 159.4375 L 84.304688 154.289062 Z M 111.570312 147.8125 L 114.277344 139.484375 L 107.1875 144.628906 L 100.105469 139.484375 L 102.8125 147.8125 L 95.722656 152.960938 L 104.484375 152.960938 L 107.1875 161.292969 L 109.894531 152.960938 L 118.65625 152.960938 Z M 114.277344 110.117188 L 107.1875 115.261719 L 100.105469 110.117188 L 102.8125 118.445312 L 95.722656 123.59375 L 104.484375 123.59375 L 107.1875 131.929688 L 109.894531 123.59375 L 118.65625 123.59375 L 111.570312 118.445312 Z M 139.128906 140.390625 L 141.832031 132.0625 L 134.746094 137.207031 L 127.660156 132.0625 L 130.367188 140.390625 L 123.277344 145.539062 L 132.039062 145.539062 L 134.746094 153.867188 L 137.457031 145.539062 L 146.210938 145.539062 Z M 132.039062 81.644531 L 134.746094 89.972656 L 137.457031 81.644531 L 146.210938 81.644531 L 139.128906 76.496094 L 141.832031 68.160156 L 134.746094 73.3125 L 127.660156 68.160156 L 130.367188 76.496094 L 123.277344 81.644531 Z M 157.292969 117.949219 L 154.589844 109.621094 L 151.878906 117.949219 L 143.121094 117.949219 L 150.207031 123.101562 L 147.5 131.433594 L 154.589844 126.285156 L 161.671875 131.433594 L 158.964844 123.101562 L 166.054688 117.949219 Z M 157.535156 72.929688 L 160.238281 81.261719 L 162.949219 72.929688 L 171.707031 72.929688 L 164.621094 67.785156 L 167.328125 59.449219 L 160.238281 64.601562 L 153.15625 59.449219 L 155.859375 67.785156 L 148.773438 72.929688 Z M 182.90625 101.460938 L 180.199219 93.132812 L 177.496094 101.460938 L 168.734375 101.460938 L 175.820312 106.609375 L 173.109375 114.945312 L 180.199219 109.792969 L 187.289062 114.945312 L 184.578125 106.609375 L 191.667969 101.460938 Z M 175.820312 50.261719 L 173.109375 58.59375 L 180.199219 53.445312 L 187.289062 58.59375 L 184.578125 50.261719 L 191.667969 45.109375 L 182.90625 45.109375 L 180.199219 36.785156 L 177.496094 45.109375 L 168.734375 45.109375 Z M 175.820312 50.261719 "/>
<path style=" stroke:none;fill-rule:nonzero;fill:rgb(0%,14.117647%,49.019608%);fill-opacity:1;" d="M 105.554688 100 L 105.554688 27.777344 L 22.222656 27.777344 C 20.445312 27.777344 18.867188 28.027344 18.867188 28.027344 L 18.84375 37.773438 L 3.679688 37.75 C 3.679688 37.75 3.445312 38.078125 2.972656 38.890625 C 1.082031 42.160156 0 45.957031 0 50 L 0 100 Z M 105.554688 100 "/>
<path style=" stroke:none;fill-rule:nonzero;fill:rgb(93.333333%,93.333333%,93.333333%);fill-opacity:1;" d="M 105.554688 27.777344 L 92.605469 27.777344 L 66.667969 45.9375 L 66.667969 27.777344 L 38.890625 27.777344 L 38.890625 42.050781 L 18.867188 28.027344 C 15.457031 28.550781 12.253906 29.832031 9.578125 31.722656 L 35.699219 50 L 26.054688 50 L 5.371094 35.503906 C 4.761719 36.222656 4.199219 36.960938 3.679688 37.75 L 21.183594 50 L 0 50 L 0 77.777344 L 21.582031 77.777344 L 0 93.144531 L 0 100 L 18.511719 100 L 38.890625 85.734375 L 38.890625 100 L 66.667969 100 L 66.667969 81.839844 L 92.601562 100 L 105.554688 100 L 105.554688 88.726562 L 89.917969 77.777344 L 105.554688 77.777344 L 105.554688 50 L 89.921875 50 L 105.554688 39.050781 Z M 105.554688 27.777344 "/>
<path style=" stroke:none;fill-rule:nonzero;fill:rgb(81.176471%,10.588235%,16.862745%);fill-opacity:1;" d="M 61.109375 49.828125 L 61.109375 27.777344 L 44.445312 27.777344 L 44.445312 55.554688 L 0 55.554688 L 0 72.222656 L 44.445312 72.222656 L 44.445312 100 L 61.109375 100 L 61.109375 72.222656 L 105.554688 72.222656 L 105.554688 55.554688 L 61.109375 55.554688 Z M 61.109375 49.828125 "/>
<path style=" stroke:none;fill-rule:nonzero;fill:rgb(81.176471%,10.588235%,16.862745%);fill-opacity:1;" d="M 105.554688 27.777344 L 97.4375 27.777344 L 66.667969 49.328125 L 66.667969 50 L 75.394531 50 L 105.554688 28.878906 Z M 9.578125 31.722656 C 8.015625 32.804688 6.609375 34.070312 5.371094 35.503906 L 26.054688 50 L 35.695312 50 Z M 35.761719 77.777344 L 4.078125 100 L 13.671875 100 L 38.890625 82.34375 L 38.890625 77.777344 Z M 105.554688 98.898438 L 105.554688 92.121094 L 85.070312 77.777344 L 75.390625 77.777344 Z M 105.554688 98.898438 "/>
<path style=" stroke:none;fill-rule:nonzero;fill:rgb(0%,14.117647%,49.019608%);fill-opacity:1;" d="M 105.554688 100 L 105.554688 27.777344 L 22.222656 27.777344 C 20.445312 27.777344 18.867188 28.027344 18.867188 28.027344 L 18.84375 37.773438 L 3.679688 37.75 C 3.679688 37.75 3.445312 38.078125 2.972656 38.890625 C 1.082031 42.160156 0 45.957031 0 50 L 0 100 Z M 105.554688 100 "/>
<path style=" stroke:none;fill-rule:nonzero;fill:rgb(93.333333%,93.333333%,93.333333%);fill-opacity:1;" d="M 105.554688 27.777344 L 92.605469 27.777344 L 66.667969 45.9375 L 66.667969 27.777344 L 38.890625 27.777344 L 38.890625 42.050781 L 18.867188 28.027344 C 15.457031 28.550781 12.253906 29.832031 9.578125 31.722656 L 35.699219 50 L 26.054688 50 L 5.371094 35.503906 C 4.761719 36.222656 4.199219 36.960938 3.679688 37.75 L 21.183594 50 L 0 50 L 0 77.777344 L 21.582031 77.777344 L 0 93.144531 L 0 100 L 18.511719 100 L 38.890625 85.734375 L 38.890625 100 L 66.667969 100 L 66.667969 81.839844 L 92.601562 100 L 105.554688 100 L 105.554688 88.726562 L 89.917969 77.777344 L 105.554688 77.777344 L 105.554688 50 L 89.921875 50 L 105.554688 39.050781 Z M 105.554688 27.777344 "/>
<path style=" stroke:none;fill-rule:nonzero;fill:rgb(81.176471%,10.588235%,16.862745%);fill-opacity:1;" d="M 61.109375 27.777344 L 44.445312 27.777344 L 44.445312 55.554688 L 0 55.554688 L 0 72.222656 L 44.445312 72.222656 L 44.445312 100 L 61.109375 100 L 61.109375 72.222656 L 105.554688 72.222656 L 105.554688 55.554688 L 61.109375 55.554688 Z M 61.109375 27.777344 "/>
<path style=" stroke:none;fill-rule:nonzero;fill:rgb(81.176471%,10.588235%,16.862745%);fill-opacity:1;" d="M 105.554688 27.777344 L 97.4375 27.777344 L 66.667969 49.328125 L 66.667969 50 L 75.394531 50 L 105.554688 28.878906 Z M 9.578125 31.722656 C 8.015625 32.804688 6.609375 34.070312 5.371094 35.503906 L 26.054688 50 L 35.695312 50 Z M 35.761719 77.777344 L 4.078125 100 L 13.671875 100 L 38.890625 82.34375 L 38.890625 77.777344 Z M 105.554688 98.898438 L 105.554688 92.121094 L 85.070312 77.777344 L 75.390625 77.777344 Z M 105.554688 98.898438 "/>
</g>
</svg>
