<?xml version="1.0" encoding="UTF-8"?>
<svg xmlns="http://www.w3.org/2000/svg" xmlns:xlink="http://www.w3.org/1999/xlink" width="200px" height="px" viewBox="0 0 200 200" version="1.1">
<g id="surface1">
<path style=" stroke:none;fill-rule:nonzero;fill:rgb(85.490196%,0%,0.392157%);fill-opacity:1;" d="M 0 150 C 0 162.273438 9.949219 172.222656 22.222656 172.222656 L 177.777344 172.222656 C 190.050781 172.222656 200 162.273438 200 150 L 200 127.777344 L 0 127.777344 Z M 0 150 "/>
<path style=" stroke:none;fill-rule:nonzero;fill:rgb(93.333333%,93.333333%,93.333333%);fill-opacity:1;" d="M 0 72.222656 L 200 72.222656 L 200 127.777344 L 0 127.777344 Z M 0 72.222656 "/>
<path style=" stroke:none;fill-rule:nonzero;fill:rgb(13.72549%,62.352941%,25.098039%);fill-opacity:1;" d="M 200 72.222656 L 200 50 C 200 37.726562 190.050781 27.777344 177.777344 27.777344 L 22.222656 27.777344 C 9.949219 27.777344 0 37.726562 0 50 L 0 72.222656 Z M 200 72.222656 "/>
<path style=" stroke:none;fill-rule:nonzero;fill:rgb(91.372549%,40%,40.392157%);fill-opacity:1;" d="M 0 127.777344 L 200 127.777344 L 200 133.332031 L 0 133.332031 Z M 0 127.777344 "/>
<path style=" stroke:none;fill-rule:nonzero;fill:rgb(74.509804%,9.803922%,19.215686%);fill-opacity:1;" d="M 108.140625 83.160156 C 113.457031 85.882812 125.015625 99.566406 112.570312 115 C 120.300781 113.289062 130.140625 90.511719 108.140625 83.160156 Z M 91.820312 83.160156 C 69.828125 90.511719 79.660156 113.289062 87.390625 115 C 74.945312 99.566406 86.503906 85.882812 91.820312 83.160156 Z M 99.894531 82.367188 C 100.117188 83.460938 106.011719 84.789062 105.304688 79.183594 C 104.371094 81.449219 101.671875 81.382812 99.929688 80.332031 C 97.527344 81.671875 95.289062 81.34375 94.4375 79.070312 C 93.617188 83.261719 97.699219 84.488281 99.894531 82.367188 Z M 99.894531 82.367188 "/>
<path style=" stroke:none;fill-rule:nonzero;fill:rgb(74.509804%,9.803922%,19.215686%);fill-opacity:1;" d="M 114.101562 99.464844 C 114.015625 92.535156 110.339844 86.398438 106.714844 83.917969 C 109.105469 86.84375 116.449219 103.003906 102.355469 113.644531 L 102.617188 85.328125 L 99.976562 83.003906 L 97.339844 85.214844 L 97.785156 113.804688 L 97.683594 113.722656 C 83.445312 103.089844 90.832031 86.851562 93.226562 83.917969 C 89.605469 86.398438 85.921875 92.535156 85.84375 99.464844 C 85.773438 105.417969 88.496094 111.929688 96.035156 117.273438 C 92.933594 118.101562 89.578125 118.429688 86.710938 118.390625 C 89.289062 119.792969 94.15625 119.457031 97.859375 119.117188 L 97.867188 119.496094 L 100.078125 121.921875 L 102.300781 119.394531 L 102.300781 119.105469 C 106.035156 119.449219 111.003906 119.820312 113.628906 118.394531 C 110.671875 118.4375 107.1875 118.101562 104.003906 117.210938 C 111.472656 111.871094 114.171875 105.394531 114.101562 99.464844 Z M 114.101562 99.464844 "/>
<path style=" stroke:none;fill-rule:nonzero;fill:rgb(48.235294%,77.254902%,54.901961%);fill-opacity:1;" d="M 0 66.667969 L 200 66.667969 L 200 72.222656 L 0 72.222656 Z M 0 66.667969 "/>
</g>
</svg>
