<?xml version="1.0" encoding="UTF-8"?>
<svg xmlns="http://www.w3.org/2000/svg" xmlns:xlink="http://www.w3.org/1999/xlink" width="200px" height="200px" viewBox="0 0 200 200" version="1.1">
<g id="surface1">
<path style=" stroke:none;fill-rule:nonzero;fill:rgb(96.862745%,87.843137%,9.019608%);fill-opacity:1;" d="M 200 150 C 200 162.273438 190.050781 172.222656 177.777344 172.222656 L 22.222656 172.222656 C 9.949219 172.222656 0 162.273438 0 150 L 0 50 C 0 37.726562 9.949219 27.777344 22.222656 27.777344 L 177.777344 27.777344 C 190.050781 27.777344 200 37.726562 200 50 Z M 200 150 "/>
<path style=" stroke:none;fill-rule:nonzero;fill:rgb(7.843137%,7.843137%,7.843137%);fill-opacity:1;" d="M 200 150 L 0 105.554688 L 0 77.777344 L 200 122.222656 Z M 200 150 "/>
<path style=" stroke:none;fill-rule:nonzero;fill:rgb(93.333333%,93.333333%,93.333333%);fill-opacity:1;" d="M 200 122.222656 L 0 77.777344 L 0 50 L 200 94.445312 Z M 200 122.222656 "/>
<path style=" stroke:none;fill-rule:nonzero;fill:rgb(81.176471%,10.588235%,14.901961%);fill-opacity:1;" d="M 119.976562 82.972656 C 122.4375 86.792969 123.859375 91.34375 123.859375 96.226562 C 123.859375 109.785156 112.871094 120.777344 99.316406 120.777344 C 85.753906 120.777344 74.765625 109.785156 74.765625 96.226562 C 74.765625 91.34375 76.195312 86.792969 78.648438 82.972656 C 73.996094 88 71.144531 94.726562 71.144531 102.121094 C 71.144531 117.683594 83.753906 130.292969 99.316406 130.292969 C 114.878906 130.292969 127.488281 117.679688 127.488281 102.121094 C 127.488281 94.726562 124.640625 88 119.976562 82.972656 Z M 53.90625 86.144531 C 56.890625 86.800781 57.550781 87.9375 57.398438 90.355469 C 57.398438 90.355469 58.917969 90.648438 59.972656 92.160156 C 61.035156 93.671875 62.011719 95.179688 63.820312 95.785156 C 65.640625 96.390625 67.070312 97.589844 67.070312 101.214844 L 67.070312 114.660156 C 67.070312 114.660156 66.738281 116.023438 67.496094 117.828125 C 68.25 119.644531 67.820312 122.210938 62.234375 122.210938 C 56.644531 122.210938 56.609375 119.792969 57.359375 117.984375 C 58.117188 116.171875 58.988281 114.65625 58.988281 114.65625 L 58.988281 103.101562 C 58.988281 103.101562 57.898438 101.515625 56.390625 100.457031 C 54.878906 99.398438 51.6875 95.621094 51.238281 91.996094 C 50.785156 88.378906 49.9375 85.277344 53.90625 86.144531 Z M 144.222656 86.144531 C 141.238281 86.800781 140.578125 87.9375 140.726562 90.355469 C 140.726562 90.355469 139.207031 90.648438 138.148438 92.160156 C 137.09375 93.671875 136.660156 95.179688 134.851562 95.785156 C 133.039062 96.390625 132.15625 97.589844 132.15625 101.214844 L 132.15625 114.660156 C 132.15625 114.660156 131.9375 116.023438 131.179688 117.828125 C 130.421875 119.644531 130.582031 122.210938 136.167969 122.210938 C 141.753906 122.210938 142.207031 119.792969 141.449219 117.984375 C 140.695312 116.171875 140.234375 114.65625 140.234375 114.65625 L 140.234375 103.101562 C 140.234375 103.101562 140.773438 101.515625 142.277344 100.457031 C 143.792969 99.398438 146.699219 95.621094 147.15625 91.996094 C 147.617188 88.378906 148.183594 85.277344 144.222656 86.144531 Z M 144.222656 86.144531 "/>
<path style=" stroke:none;fill-rule:nonzero;fill:rgb(81.176471%,10.588235%,14.901961%);fill-opacity:1;" d="M 130.195312 137.433594 C 130.195312 137.433594 132 133.8125 130.039062 133.054688 C 128.070312 132.300781 124.148438 133.054688 124.148438 133.054688 C 124.148438 133.054688 127.421875 128.90625 124.292969 127.160156 C 121.179688 125.421875 119.035156 129.726562 116.300781 131.6875 C 113.570312 133.65625 110.820312 134.738281 107.488281 135.84375 C 104.167969 136.949219 99.832031 137.429688 99.832031 137.429688 C 99.832031 137.429688 94.972656 136.949219 91.648438 135.84375 C 88.320312 134.738281 85.050781 133.648438 82.316406 131.6875 C 79.582031 129.726562 77.445312 125.417969 74.320312 127.160156 C 71.199219 128.898438 74.476562 133.054688 74.476562 133.054688 C 74.476562 133.054688 70.550781 132.300781 68.589844 133.054688 C 66.621094 133.8125 68.445312 137.433594 68.445312 137.433594 C 64.066406 138.039062 65.59375 140.761719 65.59375 140.761719 C 65.59375 140.761719 66.683594 139.355469 71.214844 139.355469 C 75.75 139.355469 77.621094 143.785156 80.644531 143.785156 C 83.667969 143.785156 83.644531 140.910156 83.644531 140.910156 C 89.238281 145.59375 99.839844 145.59375 99.839844 145.59375 C 99.839844 145.59375 109.917969 145.59375 115.503906 140.910156 C 115.503906 140.910156 115.222656 143.785156 118.246094 143.785156 C 121.265625 143.785156 123.003906 139.355469 127.542969 139.355469 C 132.070312 139.355469 133.101562 140.761719 133.101562 140.761719 C 133.101562 140.761719 134.582031 138.042969 130.195312 137.433594 Z M 118.195312 78.707031 C 114.871094 77.800781 111.316406 73.570312 106.632812 73.570312 C 101.949219 73.570312 99.828125 77.199219 99.828125 77.199219 C 99.828125 77.199219 97.234375 73.570312 92.550781 73.570312 C 87.867188 73.570312 83.832031 77.800781 80.503906 78.707031 C 77.183594 79.617188 74.011719 78.707031 74.011719 78.707031 C 74.765625 82.179688 78.648438 82.972656 78.648438 82.972656 C 79.0625 85.128906 82.3125 85.199219 82.3125 85.199219 C 82.75 87.765625 87.460938 86 87.460938 86 C 87.460938 86 87.167969 88.527344 89.582031 88.222656 C 92 87.921875 96.09375 83.6875 96.09375 83.6875 C 96.09375 83.6875 94.917969 84.898438 95.070312 85.996094 C 95.222656 87.09375 97.101562 87.011719 97.101562 87.011719 C 95.4375 88.671875 98.4375 90.640625 98.4375 90.640625 L 99.828125 89.582031 L 100.746094 90.640625 C 100.746094 90.640625 103.503906 88.679688 101.839844 87.011719 C 101.839844 87.011719 103.59375 87.09375 103.75 85.996094 C 103.898438 84.894531 102.667969 83.6875 102.667969 83.6875 C 102.667969 83.6875 106.734375 87.921875 109.148438 88.222656 C 111.570312 88.523438 111.261719 86 111.261719 86 C 111.261719 86 115.964844 87.773438 116.410156 85.199219 C 116.410156 85.199219 119.65625 85.121094 120.0625 82.972656 C 120.0625 82.972656 123.945312 82.179688 124.699219 78.707031 C 124.695312 78.707031 121.523438 79.617188 118.195312 78.707031 Z M 94.5625 65.109375 C 94.5625 64.4375 96.6875 63.898438 99.320312 63.898438 C 101.949219 63.898438 104.082031 64.4375 104.082031 65.109375 C 104.082031 65.777344 101.949219 66.316406 99.320312 66.316406 C 96.6875 66.320312 94.5625 65.777344 94.5625 65.109375 Z M 94.5625 65.109375 "/>
<path style=" stroke:none;fill-rule:nonzero;fill:rgb(81.176471%,10.588235%,14.901961%);fill-opacity:1;" d="M 104.898438 67.527344 C 104.75 66.464844 104.109375 66.316406 104.109375 66.316406 C 104.109375 66.316406 101.617188 66.960938 99.316406 66.960938 C 97.011719 66.960938 94.554688 66.316406 94.554688 66.316406 C 94.554688 66.316406 93.949219 66.464844 93.800781 67.527344 C 93.648438 68.582031 92.59375 71.832031 92.59375 71.832031 L 94.5625 69.679688 L 96.222656 71.832031 L 97.882812 69.679688 L 99.316406 71.832031 L 100.789062 69.679688 L 102.472656 71.832031 L 104.140625 69.679688 L 106.109375 71.832031 C 106.109375 71.832031 105.054688 68.589844 104.898438 67.527344 Z M 99.828125 54.617188 L 99.828125 60.503906 L 103.878906 62.246094 L 102.316406 59.828125 L 105.496094 58.3125 Z M 98.105469 71.832031 L 100.601562 71.832031 L 100.601562 78.179688 L 98.105469 78.179688 Z M 102.640625 116.699219 C 102.640625 116.699219 104.273438 114.4375 103.933594 112.734375 C 103.59375 111.035156 102.011719 108.351562 101.5625 106.632812 C 101.105469 104.917969 102.660156 103.328125 102.660156 103.328125 L 101.457031 103.101562 C 101.457031 103.101562 103.078125 101.628906 102.660156 100.039062 C 102.246094 98.449219 101.457031 96.417969 101.226562 94.605469 C 101 92.789062 102.660156 90.640625 102.660156 90.640625 L 100.511719 91.882812 L 99.339844 90.640625 L 98.199219 91.882812 L 96.089844 90.640625 C 96.089844 90.640625 97.75 92.789062 97.523438 94.605469 C 97.292969 96.417969 96.5 98.457031 96.089844 100.039062 C 95.671875 101.628906 97.300781 103.101562 97.300781 103.101562 L 96.089844 103.328125 C 96.089844 103.328125 97.640625 104.917969 97.183594 106.632812 C 96.734375 108.351562 95.144531 111.035156 94.804688 112.734375 C 94.464844 114.4375 96.089844 116.699219 96.089844 116.699219 L 92.84375 116.023438 C 94.617188 119.644531 96.6875 120.09375 99.339844 120.09375 C 101.988281 120.09375 104.09375 119.644531 105.867188 116.023438 Z M 102.640625 116.699219 "/>
</g>
</svg>
