<?xml version="1.0" encoding="UTF-8"?>
<svg xmlns="http://www.w3.org/2000/svg" xmlns:xlink="http://www.w3.org/1999/xlink" width="200px" height="px" viewBox="0 0 200 200" version="1.1">
<g id="surface1">
<path style=" stroke:none;fill-rule:nonzero;fill:rgb(89.019608%,12.941176%,9.411765%);fill-opacity:1;" d="M 200 150 C 200 162.273438 190.050781 172.222656 177.777344 172.222656 L 22.222656 172.222656 C 9.949219 172.222656 0 162.273438 0 150 L 0 50 C 0 37.726562 9.949219 27.777344 22.222656 27.777344 L 177.777344 27.777344 C 190.050781 27.777344 200 37.726562 200 50 Z M 200 150 "/>
<path style=" stroke:none;fill-rule:nonzero;fill:rgb(93.333333%,93.333333%,93.333333%);fill-opacity:1;" d="M 0 72.222656 L 200 72.222656 L 200 127.777344 L 0 127.777344 Z M 0 72.222656 "/>
<path style=" stroke:none;fill-rule:nonzero;fill:rgb(24.313725%,60.392157%,0%);fill-opacity:1;" d="M 177.777344 27.777344 L 22.222656 27.777344 C 9.949219 27.777344 0 37.726562 0 50 L 0 72.222656 L 200 72.222656 L 200 50 C 200 37.726562 190.050781 27.777344 177.777344 27.777344 Z M 177.777344 27.777344 "/>
<path style=" stroke:none;fill-rule:nonzero;fill:rgb(0.392157%,45.098039%,80.784314%);fill-opacity:1;" d="M 40.738281 72.222656 L 10.609375 31.132812 C 4.265625 35.042969 0 42 0 50 L 0 150 C 0 158 4.265625 164.957031 10.609375 168.867188 L 40.738281 127.777344 L 61.109375 100 Z M 40.738281 72.222656 "/>
<path style=" stroke:none;fill-rule:nonzero;fill:rgb(0%,0%,0%);fill-opacity:1;" d="M 102.460938 83.332031 L 89.148438 83.332031 L 89.148438 109.722656 C 89.148438 115.105469 92.1875 115.972656 93.75 115.972656 L 98.871094 115.972656 C 102.082031 115.972656 102.460938 118.632812 102.460938 118.632812 C 102.460938 118.632812 102.839844 115.972656 106.050781 115.972656 L 111.171875 115.972656 C 112.734375 115.972656 115.773438 115.105469 115.773438 109.722656 L 115.773438 83.332031 Z M 102.460938 83.332031 "/>
<path style=" stroke:none;fill-rule:nonzero;fill:rgb(100%,100%,100%);fill-opacity:1;" d="M 102.460938 116.277344 C 101.722656 115.496094 100.578125 114.859375 98.871094 114.859375 L 93.75 114.859375 C 92.707031 114.859375 90.261719 114.359375 90.261719 109.722656 L 90.261719 84.445312 L 114.660156 84.445312 L 114.660156 109.722656 C 114.660156 114.359375 112.222656 114.859375 111.171875 114.859375 L 106.054688 114.859375 C 104.34375 114.859375 103.199219 115.496094 102.460938 116.277344 Z M 102.460938 116.277344 "/>
<path style=" stroke:none;fill-rule:nonzero;fill:rgb(0%,0%,0%);fill-opacity:1;" d="M 82.898438 103.90625 C 82.898438 103.90625 84.285156 106.339844 86.023438 107.984375 C 89.234375 111.023438 84.066406 113.449219 84.066406 113.449219 C 84.066406 113.449219 82.460938 112.40625 81.9375 111.195312 C 81.421875 109.984375 83.246094 106.339844 82.898438 103.90625 Z M 82.898438 103.90625 "/>
<path style=" stroke:none;fill-rule:nonzero;fill:rgb(100%,100%,100%);fill-opacity:1;" d="M 84.15625 112.140625 C 83.683594 111.753906 83.160156 111.226562 82.960938 110.761719 C 82.878906 110.449219 83.183594 109.246094 83.390625 108.4375 C 83.503906 108.003906 83.617188 107.550781 83.722656 107.089844 C 84.179688 107.667969 84.699219 108.273438 85.253906 108.800781 C 86.050781 109.550781 85.972656 110.023438 85.949219 110.179688 C 85.839844 110.90625 84.898438 111.679688 84.15625 112.140625 Z M 84.15625 112.140625 "/>
<path style=" stroke:none;fill-rule:nonzero;fill:rgb(0%,0%,0%);fill-opacity:1;" d="M 84.457031 109.609375 C 84.457031 109.609375 84.460938 113.921875 88.714844 115.617188 C 93.957031 117.707031 97.570312 116.839844 98.003906 117.011719 C 98.4375 117.183594 98.003906 121.4375 98.003906 121.4375 C 98.003906 121.4375 92.210938 122.394531 87.078125 119.960938 C 81.945312 117.527344 82.207031 115.617188 82.472656 115.09375 C 82.738281 114.570312 83.082031 114.199219 83.332031 112.84375 C 83.566406 111.582031 84.457031 109.609375 84.457031 109.609375 Z M 84.457031 109.609375 "/>
<path style=" stroke:none;fill-rule:nonzero;fill:rgb(100%,100%,100%);fill-opacity:1;" d="M 95.1875 120.511719 C 93.207031 120.511719 90.261719 120.246094 87.554688 118.960938 C 83.84375 117.207031 83.390625 115.851562 83.472656 115.582031 C 83.839844 114.945312 84.148438 114.40625 84.382812 113.285156 C 85.09375 114.554688 86.289062 115.851562 88.304688 116.65625 C 90.816406 117.660156 93.378906 118.160156 95.917969 118.160156 C 96.371094 118.160156 96.765625 118.148438 97.089844 118.132812 C 97.09375 118.714844 97.050781 119.589844 96.984375 120.445312 C 96.527344 120.484375 95.917969 120.511719 95.1875 120.511719 Z M 95.1875 120.511719 "/>
<path style=" stroke:none;fill-rule:nonzero;fill:rgb(0%,0%,0%);fill-opacity:1;" d="M 122.027344 103.90625 C 122.027344 103.90625 120.644531 106.339844 118.90625 107.984375 C 115.695312 111.023438 120.859375 113.449219 120.859375 113.449219 C 120.859375 113.449219 122.464844 112.40625 122.988281 111.195312 C 123.5 109.984375 121.679688 106.339844 122.027344 103.90625 Z M 122.027344 103.90625 "/>
<path style=" stroke:none;fill-rule:nonzero;fill:rgb(100%,100%,100%);fill-opacity:1;" d="M 120.765625 112.140625 C 121.238281 111.753906 121.761719 111.226562 121.960938 110.761719 C 122.042969 110.449219 121.738281 109.246094 121.535156 108.4375 C 121.417969 108.003906 121.304688 107.550781 121.199219 107.089844 C 120.746094 107.667969 120.222656 108.273438 119.667969 108.800781 C 118.871094 109.550781 118.949219 110.023438 118.972656 110.179688 C 119.082031 110.90625 120.023438 111.679688 120.765625 112.140625 Z M 120.765625 112.140625 "/>
<path style=" stroke:none;fill-rule:nonzero;fill:rgb(0%,0%,0%);fill-opacity:1;" d="M 120.472656 109.609375 C 120.472656 109.609375 120.464844 113.921875 116.210938 115.617188 C 110.972656 117.707031 107.355469 116.839844 106.921875 117.011719 C 106.488281 117.183594 106.921875 121.4375 106.921875 121.4375 C 106.921875 121.4375 112.714844 122.394531 117.851562 119.960938 C 122.984375 117.527344 122.722656 115.617188 122.457031 115.09375 C 122.183594 114.570312 121.84375 114.199219 121.59375 112.84375 C 121.359375 111.582031 120.472656 109.609375 120.472656 109.609375 Z M 120.472656 109.609375 "/>
<path style=" stroke:none;fill-rule:nonzero;fill:rgb(100%,100%,100%);fill-opacity:1;" d="M 109.738281 120.511719 C 111.726562 120.511719 114.667969 120.246094 117.371094 118.960938 C 121.082031 117.207031 121.539062 115.851562 121.457031 115.582031 C 121.089844 114.945312 120.777344 114.40625 120.542969 113.285156 C 119.832031 114.554688 118.640625 115.851562 116.621094 116.65625 C 114.109375 117.660156 111.550781 118.160156 109.011719 118.160156 C 108.554688 118.160156 108.160156 118.148438 107.839844 118.132812 C 107.832031 118.714844 107.878906 119.589844 107.949219 120.445312 C 108.398438 120.484375 109.011719 120.511719 109.738281 120.511719 Z M 109.738281 120.511719 "/>
<path style=" stroke:none;fill-rule:nonzero;fill:rgb(0%,0%,0%);fill-opacity:1;" d="M 109.527344 118.632812 C 109.527344 118.632812 109.460938 120.511719 102.464844 120.511719 C 95.464844 120.511719 95.40625 118.632812 95.40625 118.632812 C 95.40625 118.632812 95.144531 121.621094 95.40625 122.828125 C 95.667969 124.035156 97.488281 124.738281 102.464844 124.738281 C 107.445312 124.738281 109.273438 124.035156 109.527344 122.828125 C 109.789062 121.628906 109.527344 118.632812 109.527344 118.632812 Z M 109.527344 118.632812 "/>
<path style=" stroke:none;fill-rule:nonzero;fill:rgb(100%,100%,100%);fill-opacity:1;" d="M 102.460938 123.628906 C 96.867188 123.628906 96.503906 122.699219 96.484375 122.601562 C 96.398438 122.226562 96.382812 121.542969 96.394531 120.828125 C 97.609375 121.289062 99.503906 121.632812 102.460938 121.632812 C 105.410156 121.632812 107.3125 121.292969 108.527344 120.828125 C 108.539062 121.550781 108.523438 122.226562 108.4375 122.601562 C 108.421875 122.699219 108.054688 123.628906 102.460938 123.628906 Z M 102.460938 123.628906 "/>
<path style=" stroke:none;fill-rule:nonzero;fill:rgb(100%,84.313725%,0.392157%);fill-opacity:1;" d="M 99.1875 74.867188 L 100.128906 76.496094 L 102.011719 76.496094 L 101.066406 78.121094 L 102.011719 79.753906 L 100.128906 79.753906 L 99.1875 81.382812 L 98.25 79.753906 L 96.367188 79.753906 L 97.304688 78.121094 L 96.367188 76.496094 L 98.25 76.496094 Z M 91.75 75.726562 L 93.027344 77.105469 L 94.859375 76.683594 L 94.3125 78.484375 L 95.59375 79.859375 L 93.761719 80.285156 L 93.210938 82.082031 L 91.929688 80.707031 L 90.09375 81.128906 L 90.640625 79.328125 L 89.359375 77.949219 L 91.195312 77.527344 Z M 84.753906 78.121094 L 86.273438 79.238281 L 87.996094 78.472656 L 87.789062 80.351562 L 89.3125 81.457031 L 87.59375 82.214844 L 87.394531 84.089844 L 85.871094 82.976562 L 84.15625 83.738281 L 84.351562 81.871094 L 82.828125 80.761719 L 84.550781 80 Z M 106.210938 74.867188 L 105.273438 76.496094 L 103.390625 76.496094 L 104.332031 78.121094 L 103.390625 79.753906 L 105.273438 79.753906 L 106.210938 81.382812 L 107.15625 79.753906 L 109.039062 79.753906 L 108.101562 78.121094 L 109.039062 76.496094 L 107.15625 76.496094 Z M 113.65625 75.726562 L 112.378906 77.105469 L 110.539062 76.683594 L 111.09375 78.484375 L 109.8125 79.859375 L 111.644531 80.285156 L 112.1875 82.082031 L 113.476562 80.707031 L 115.3125 81.128906 L 114.761719 79.328125 L 116.042969 77.949219 L 114.210938 77.527344 Z M 120.648438 78.121094 L 119.128906 79.238281 L 117.410156 78.472656 L 117.617188 80.351562 L 116.089844 81.457031 L 117.8125 82.214844 L 118.011719 84.089844 L 119.535156 82.976562 L 121.25 83.738281 L 121.054688 81.871094 L 122.570312 80.761719 L 120.855469 80 Z M 120.648438 78.121094 "/>
<path style=" stroke:none;fill-rule:nonzero;fill:rgb(63.921569%,40%,16.078431%);fill-opacity:1;" d="M 102.460938 114.582031 C 99.128906 114.582031 98.609375 113.367188 99.738281 110.761719 C 100.867188 108.15625 101.472656 104.628906 101.472656 100.355469 C 101.472656 96.089844 99.957031 95.132812 98.195312 93.484375 C 96.4375 91.832031 99.09375 92.4375 100.328125 93.484375 C 101.5625 94.527344 102.011719 95.476562 102.011719 95.476562 L 102.011719 91.484375 L 103.390625 91.917969 L 103.390625 94.957031 C 103.390625 94.957031 105.390625 93.222656 106.734375 93.042969 C 108.070312 92.871094 108.855469 93.910156 107.117188 94.433594 C 105.382812 94.957031 103.390625 95.851562 103.390625 100.351562 C 103.390625 104.851562 104.078125 109.539062 104.945312 111.1875 C 105.816406 112.84375 105.792969 114.582031 102.460938 114.582031 Z M 102.460938 114.582031 "/>
<path style=" stroke:none;fill-rule:nonzero;fill:rgb(0%,60.392157%,23.137255%);fill-opacity:1;" d="M 98.609375 97.484375 C 96.84375 98.410156 95.59375 96.355469 95.59375 96.355469 C 95.59375 96.355469 93.988281 97.484375 92.476562 96.699219 C 90.972656 95.917969 91.207031 95.222656 92.476562 94.527344 C 93.75 93.832031 95.285156 93.660156 95.285156 93.660156 C 95.285156 93.660156 95.679688 91.75 96.359375 90.449219 C 97.042969 89.148438 98.195312 88.628906 98.195312 88.628906 C 98.195312 88.628906 99.59375 85.589844 102.011719 85.417969 C 104.429688 85.246094 104.429688 87.761719 104.429688 87.761719 C 104.429688 87.761719 105.929688 87.761719 106.214844 88.628906 C 107.550781 87.238281 109.894531 87.410156 110.417969 88.023438 C 110.9375 88.628906 110.417969 89.933594 110.417969 89.933594 C 110.417969 89.933594 112.476562 89.328125 112.921875 90.023438 C 113.367188 90.714844 112.921875 91.609375 112.921875 91.609375 C 112.921875 91.609375 114.582031 91.933594 113.800781 93.753906 C 113.015625 95.578125 110.589844 95.054688 110.589844 95.054688 C 110.589844 95.054688 109.601562 96.101562 108.535156 96.011719 C 107.464844 95.921875 107.117188 94.445312 107.117188 94.445312 C 107.117188 94.445312 105.460938 94.878906 104.429688 93.398438 C 103.390625 94.960938 101.476562 94.09375 101.214844 93.488281 C 100.957031 95.488281 100.433594 96.527344 98.609375 97.484375 Z M 98.609375 97.484375 "/>
</g>
</svg>
