<?xml version="1.0" encoding="UTF-8"?>
<svg xmlns="http://www.w3.org/2000/svg" xmlns:xlink="http://www.w3.org/1999/xlink" width="200px" height="200px" viewBox="0 0 200 200" version="1.1">
<g id="surface1">
<path style=" stroke:none;fill-rule:nonzero;fill:rgb(83.921569%,15.686275%,15.686275%);fill-opacity:1;" d="M 177.777344 27.777344 L 134.261719 27.777344 L 6.273438 165.472656 L 6.277344 165.476562 C 7.121094 166.351562 8.039062 167.148438 9.015625 167.871094 L 9.023438 167.878906 L 200 75.929688 L 200 50 C 200 37.726562 190.050781 27.777344 177.777344 27.777344 Z M 177.777344 27.777344 "/>
<path style=" stroke:none;fill-rule:nonzero;fill:rgb(98.823529%,84.705882%,33.72549%);fill-opacity:1;" d="M 4.238281 163.054688 C 4.859375 163.910156 5.542969 164.714844 6.277344 165.472656 L 134.261719 27.777344 L 66.667969 27.777344 L 4.238281 163.054688 C 4.234375 163.050781 4.234375 163.050781 4.238281 163.054688 Z M 4.238281 163.054688 "/>
<path style=" stroke:none;fill-rule:nonzero;fill:rgb(0%,24.705882%,52.941176%);fill-opacity:1;" d="M 66.667969 27.777344 L 22.222656 27.777344 C 9.949219 27.777344 0 37.726562 0 50 L 0 150 C 0 154.878906 1.570312 159.382812 4.234375 163.050781 Z M 66.667969 27.777344 "/>
<path style=" stroke:none;fill-rule:nonzero;fill:rgb(93.333333%,93.333333%,93.333333%);fill-opacity:1;" d="M 11.460938 169.449219 L 11.484375 169.460938 L 200 124.070312 L 200 75.921875 L 9.023438 167.878906 C 9.800781 168.449219 10.617188 168.976562 11.460938 169.449219 Z M 11.460938 169.449219 "/>
<path style=" stroke:none;fill-rule:nonzero;fill:rgb(0%,47.843137%,23.921569%);fill-opacity:1;" d="M 22.222656 172.222656 L 177.777344 172.222656 C 190.050781 172.222656 200 162.273438 200 150 L 200 124.070312 L 11.484375 169.457031 C 14.667969 171.214844 18.328125 172.222656 22.222656 172.222656 Z M 22.222656 172.222656 "/>
</g>
</svg>
