<?xml version="1.0" encoding="UTF-8"?>
<svg xmlns="http://www.w3.org/2000/svg" xmlns:xlink="http://www.w3.org/1999/xlink" width="200px" height="200px" viewBox="0 0 200 200" version="1.1">
<g id="surface1">
<path style=" stroke:none;fill-rule:nonzero;fill:rgb(0%,27.45098%,0%);fill-opacity:1;" d="M 177.777344 27.777344 L 50 27.777344 L 50 172.222656 L 177.777344 172.222656 C 190.050781 172.222656 200 162.273438 200 150 L 200 50 C 200 37.726562 190.050781 27.777344 177.777344 27.777344 Z M 125 141.511719 C 101.988281 141.511719 83.332031 122.855469 83.332031 99.84375 C 83.332031 79.179688 98.394531 62.070312 118.128906 58.789062 C 105.792969 64.535156 97.222656 77.003906 97.222656 91.511719 C 97.222656 111.457031 113.390625 127.621094 133.332031 127.621094 C 147.839844 127.621094 160.3125 119.050781 166.054688 106.714844 C 162.773438 126.457031 145.667969 141.511719 125 141.511719 Z M 153.390625 83.601562 L 146.648438 94.832031 L 145.496094 81.785156 L 132.726562 78.851562 L 144.785156 73.714844 L 143.632812 60.667969 L 152.234375 70.550781 L 164.289062 65.417969 L 157.554688 76.65625 L 166.15625 86.539062 Z M 153.390625 83.601562 "/>
<path style=" stroke:none;fill-rule:nonzero;fill:rgb(93.333333%,93.333333%,93.333333%);fill-opacity:1;" d="M 22.222656 27.777344 C 9.949219 27.777344 0 37.726562 0 50 L 0 150 C 0 162.273438 9.949219 172.222656 22.222656 172.222656 L 50 172.222656 L 50 27.777344 Z M 22.222656 27.777344 "/>
<path style=" stroke:none;fill-rule:nonzero;fill:rgb(100%,100%,100%);fill-opacity:1;" d="M 164.289062 65.417969 L 152.234375 70.550781 L 143.632812 60.667969 L 144.785156 73.714844 L 132.726562 78.851562 L 145.496094 81.785156 L 146.648438 94.832031 L 153.390625 83.601562 L 166.15625 86.539062 L 157.554688 76.65625 Z M 164.289062 65.417969 "/>
<path style=" stroke:none;fill-rule:nonzero;fill:rgb(100%,100%,100%);fill-opacity:1;" d="M 133.332031 127.621094 C 113.390625 127.621094 97.222656 111.457031 97.222656 91.511719 C 97.222656 77.003906 105.792969 64.535156 118.128906 58.789062 C 98.394531 62.078125 83.332031 79.183594 83.332031 99.84375 C 83.332031 122.855469 101.988281 141.511719 125 141.511719 C 145.667969 141.511719 162.773438 126.449219 166.054688 106.714844 C 160.3125 119.054688 147.839844 127.621094 133.332031 127.621094 Z M 133.332031 127.621094 "/>
</g>
</svg>
