<?xml version="1.0" encoding="UTF-8"?>
<svg xmlns="http://www.w3.org/2000/svg" xmlns:xlink="http://www.w3.org/1999/xlink" width="200px" height="200px" viewBox="0 0 200 200" version="1.1">
<g id="surface1">
<path style=" stroke:none;fill-rule:nonzero;fill:rgb(92.941176%,10.980392%,13.72549%);fill-opacity:1;" d="M 200 150 L 200 127.777344 L 0 127.777344 L 0 150 C 0 162.273438 9.949219 172.222656 22.222656 172.222656 L 177.777344 172.222656 C 190.050781 172.222656 200 162.273438 200 150 Z M 200 150 "/>
<path style=" stroke:none;fill-rule:nonzero;fill:rgb(93.333333%,93.333333%,93.333333%);fill-opacity:1;" d="M 200 127.777344 L 0 127.777344 L 0 50 C 0 37.726562 9.949219 27.777344 22.222656 27.777344 L 177.777344 27.777344 C 190.050781 27.777344 200 37.726562 200 50 Z M 200 127.777344 "/>
<path style=" stroke:none;fill-rule:nonzero;fill:rgb(0%,36.470588%,64.313725%);fill-opacity:1;" d="M 0 72.222656 L 200 72.222656 L 200 127.777344 L 0 127.777344 Z M 0 72.222656 "/>
<path style=" stroke:none;fill-rule:nonzero;fill:rgb(92.941176%,10.980392%,13.72549%);fill-opacity:1;" d="M 61.804688 43.984375 C 49.304688 43.984375 40.511719 48.609375 40.511719 48.609375 C 40.511719 48.609375 41.320312 59.722656 42.359375 76.851562 C 43.398438 93.976562 61.804688 100 61.804688 100 C 61.804688 100 80.207031 93.984375 81.25 76.851562 C 82.292969 59.714844 83.101562 48.609375 83.101562 48.609375 C 83.101562 48.609375 74.304688 43.984375 61.804688 43.984375 Z M 61.804688 43.984375 "/>
<path style=" stroke:none;fill-rule:nonzero;fill:rgb(0%,29.019608%,46.666667%);fill-opacity:1;" d="M 81.066406 47.699219 C 77.800781 46.355469 70.792969 43.976562 61.804688 43.976562 C 52.816406 43.976562 45.8125 46.355469 42.542969 47.699219 C 42.605469 48.867188 43.304688 61.605469 44.207031 76.390625 C 45.148438 91.894531 61.800781 97.339844 61.800781 97.339844 C 61.800781 97.339844 78.457031 91.894531 79.394531 76.390625 C 80.304688 61.609375 81.003906 48.867188 81.066406 47.699219 Z M 81.066406 47.699219 "/>
<path style=" stroke:none;fill-rule:nonzero;fill:rgb(100%,100%,100%);fill-opacity:1;" d="M 67.246094 88.445312 C 65.277344 88.445312 64.351562 89.617188 61.457031 89.617188 C 58.5625 89.617188 58.101562 88.445312 56.132812 88.445312 C 54.644531 88.445312 53.722656 89.109375 52.582031 89.4375 C 57.09375 92.828125 61.804688 94.214844 61.804688 94.214844 C 65.753906 93.5625 68.859375 91.628906 71.210938 89.445312 C 69.714844 89.117188 68.738281 88.445312 67.246094 88.445312 Z M 56.367188 80.761719 C 58.214844 80.761719 59.839844 82.207031 61.804688 82.207031 C 63.773438 82.207031 65.160156 80.761719 67.246094 80.761719 C 69.027344 80.761719 71.371094 83.089844 74.800781 81.753906 C 76.34375 79.148438 77.082031 77.082031 77.082031 77.082031 L 70.140625 67.128906 L 66.667969 71.34375 L 61.804688 62.039062 L 57.179688 71.34375 L 53.820312 66.90625 C 53.820312 66.90625 50.8125 70.476562 45.832031 77.1875 C 46.429688 78.777344 47.226562 80.15625 48.09375 81.445312 C 52.035156 83.390625 54.6875 80.761719 56.367188 80.761719 Z M 72.800781 84.957031 C 70.253906 84.957031 69.210938 83.511719 67.246094 83.511719 C 65.277344 83.511719 64.351562 84.957031 61.457031 84.957031 C 58.5625 84.957031 58.101562 83.511719 56.132812 83.511719 C 54.167969 83.511719 53.1875 84.957031 51.390625 84.957031 C 50.738281 84.957031 50.011719 84.753906 49.316406 84.484375 C 50.023438 85.417969 50.714844 86.378906 51.484375 87.171875 C 53.628906 86.976562 55.222656 85.65625 56.367188 85.65625 C 58.214844 85.65625 59.839844 87.199219 61.804688 87.199219 C 63.773438 87.199219 65.160156 85.65625 67.246094 85.65625 C 68.527344 85.65625 70.109375 86.960938 72.171875 87.160156 C 72.777344 86.371094 73.3125 85.589844 73.800781 84.8125 C 73.476562 84.859375 73.171875 84.957031 72.800781 84.957031 Z M 72.800781 84.957031 "/>
<path style=" stroke:none;fill-rule:nonzero;fill:rgb(100%,86.666667%,0%);fill-opacity:1;" d="M 57.320312 48.929688 L 58.527344 50.222656 L 56.8125 49.820312 L 56.289062 51.511719 L 55.777344 49.820312 L 54.050781 50.222656 L 55.261719 48.929688 L 54.050781 47.632812 L 55.777344 48.035156 L 56.289062 46.34375 L 56.8125 48.035156 L 58.527344 47.632812 Z M 68.957031 48.929688 L 70.160156 50.222656 L 68.4375 49.820312 L 67.921875 51.511719 L 67.40625 49.820312 L 65.683594 50.222656 L 66.890625 48.929688 L 65.683594 47.632812 L 67.40625 48.035156 L 67.921875 46.34375 L 68.4375 48.035156 L 70.160156 47.632812 Z M 62.933594 56.683594 L 64.132812 57.976562 L 62.417969 57.578125 L 61.898438 59.261719 L 61.382812 57.578125 L 59.660156 57.976562 L 60.867188 56.683594 L 59.660156 55.390625 L 61.382812 55.789062 L 61.898438 54.101562 L 62.417969 55.789062 L 64.132812 55.390625 Z M 62.933594 56.683594 "/>
</g>
</svg>
