<?xml version="1.0" encoding="UTF-8"?>
<svg xmlns="http://www.w3.org/2000/svg" xmlns:xlink="http://www.w3.org/1999/xlink" width="200px" height="200px" viewBox="0 0 200 200" version="1.1">
<g id="surface1">
<path style=" stroke:none;fill-rule:nonzero;fill:rgb(100%,30.588235%,6.666667%);fill-opacity:1;" d="M 6.628906 165.8125 C 10.640625 169.765625 16.140625 172.222656 22.222656 172.222656 L 177.777344 172.222656 C 190.050781 172.222656 200 162.273438 200 150 L 200 50 C 200 45.023438 198.304688 40.476562 195.539062 36.773438 Z M 6.628906 165.8125 "/>
<path style=" stroke:none;fill-rule:nonzero;fill:rgb(100%,83.529412%,12.941176%);fill-opacity:1;" d="M 177.777344 27.777344 L 22.222656 27.777344 C 9.949219 27.777344 0 37.726562 0 50 L 0 150 C 0 156.1875 2.542969 161.785156 6.628906 165.8125 L 195.539062 36.773438 C 191.488281 31.34375 185.070312 27.777344 177.777344 27.777344 Z M 177.777344 27.777344 "/>
<path style=" stroke:none;fill-rule:nonzero;fill:rgb(100%,100%,100%);fill-opacity:1;" d="M 177.359375 58.214844 C 175.355469 58.351562 174.285156 59.820312 173.078125 59.820312 L 170.933594 59.820312 C 170.933594 59.820312 172.667969 57.410156 173.609375 56.746094 C 174.542969 56.070312 178.023438 55.804688 178.828125 55.140625 C 179.628906 54.464844 179.761719 53.535156 179.761719 53.535156 C 178.023438 54.738281 174.003906 54.066406 172.273438 54.464844 C 170.539062 54.867188 169.054688 56.746094 169.054688 56.746094 C 169.054688 56.746094 171.0625 52.726562 171.601562 50.984375 C 172.132812 49.246094 172.132812 46.300781 174.277344 44.695312 C 176.417969 43.089844 175.082031 41.078125 175.082031 41.078125 C 175.082031 41.078125 174.542969 42.417969 173.078125 43.621094 C 171.605469 44.828125 170.132812 44.695312 170.265625 46.972656 C 170.40625 49.246094 170.535156 49.246094 169.464844 50.316406 C 168.398438 51.390625 168.398438 51.117188 166.65625 54.066406 C 164.917969 57.011719 164.109375 53.933594 160.359375 55.273438 C 156.609375 56.609375 154.871094 52.859375 151.933594 53.265625 C 148.988281 53.667969 142.027344 52.320312 139.222656 51.390625 C 136.40625 50.449219 137.882812 49.246094 131.050781 46.039062 C 124.226562 42.820312 119.9375 45.90625 122.617188 45.765625 C 123.9375 45.699219 125.976562 46.222656 127.699219 46.765625 C 125.554688 46.609375 123.820312 47.503906 123.820312 47.503906 C 123.820312 47.503906 127.570312 48.570312 130.648438 51.25 C 133.726562 53.929688 130.648438 53.660156 126.632812 51.25 C 122.617188 48.839844 118.339844 48.304688 114.722656 48.707031 C 111.109375 49.105469 112.050781 50.3125 114.054688 50.179688 C 116.0625 50.042969 120.617188 51.382812 124.234375 52.722656 C 127.839844 54.0625 123.960938 54.332031 123.960938 54.332031 C 116.0625 49.644531 112.582031 53.394531 114.722656 52.589844 C 116.871094 51.785156 119.273438 53.660156 123.023438 55.671875 C 126.773438 57.683594 117.671875 56.476562 117.671875 56.476562 C 117.671875 56.476562 113.523438 54.738281 109.5 54.332031 C 105.484375 53.933594 102.410156 57.8125 103.746094 59.683594 C 105.082031 61.554688 107.621094 60.484375 107.621094 60.484375 C 104.746094 59.648438 105.617188 57.539062 107.496094 57.003906 C 109.367188 56.472656 116.601562 58.34375 118.605469 59.148438 C 120.609375 59.949219 121.417969 63.035156 115.933594 60.484375 C 110.445312 57.9375 112.449219 60.890625 112.449219 60.890625 C 107.09375 60.484375 114.859375 63.964844 111.511719 63.035156 C 108.167969 62.09375 104.285156 63.433594 101.070312 63.433594 C 97.859375 63.433594 96.65625 66.917969 96.65625 66.917969 C 96.65625 66.917969 98.527344 65.84375 100.871094 65.039062 C 103.214844 64.238281 109.773438 65.84375 109.773438 65.84375 C 107.101562 68.523438 107.226562 73.472656 107.226562 73.472656 C 104.421875 74.140625 101.746094 79.226562 101.746094 79.226562 C 102.8125 77.488281 106.5625 76.949219 106.5625 76.949219 C 106.5625 76.949219 107.226562 78.421875 105.496094 80.566406 C 103.753906 82.707031 104.289062 85.382812 104.289062 85.382812 C 104.289062 85.382812 105.089844 83.246094 106.167969 82.171875 C 107.226562 81.101562 109.910156 81.234375 109.910156 81.234375 C 108.707031 84.042969 113.261719 85.785156 113.261719 85.785156 C 111.921875 88.1875 114.472656 90.871094 114.0625 90.738281 C 113.667969 90.605469 109.371094 92.070312 109.371094 92.070312 C 109.371094 92.070312 115.273438 92.207031 112.183594 93.011719 C 109.105469 93.8125 103.488281 90.601562 103.488281 90.601562 L 96.933594 87.65625 C 96.933594 87.65625 99.746094 90.332031 96.535156 89.933594 C 93.316406 89.535156 90.105469 91.140625 87.292969 89.265625 C 84.484375 87.390625 79.792969 86.316406 80.734375 88.0625 C 81.667969 89.804688 83.011719 91.539062 83.011719 91.539062 C 77.929688 90.464844 80.464844 95.015625 76.722656 94.621094 C 72.972656 94.214844 76.050781 97.832031 72.4375 96.761719 C 68.820312 95.6875 65.34375 99.707031 65.34375 99.707031 C 66.550781 99.035156 70.429688 100.105469 70.429688 100.105469 C 68.957031 100.640625 69.628906 103.445312 69.628906 103.445312 C 66.144531 104.371094 67.082031 109.609375 67.082031 109.609375 C 64.140625 109.609375 63.605469 111.609375 62.398438 112.949219 C 61.199219 114.289062 58.382812 114.289062 58.382812 114.289062 C 60.351562 115.816406 64.222656 114.773438 65.605469 114.332031 C 64.339844 115.15625 64.539062 118.839844 64.539062 118.839844 C 62.128906 119.238281 64.273438 122.855469 63.738281 122.449219 C 63.199219 122.050781 61.867188 122.988281 60.527344 124.054688 C 59.1875 125.128906 57.449219 125.394531 57.449219 125.394531 C 58.382812 126.601562 60.527344 126.734375 60.527344 126.734375 C 60.527344 126.734375 58.917969 129.8125 56.910156 130.484375 C 54.90625 131.144531 49.285156 132.484375 47.8125 132.621094 C 46.339844 132.753906 43.128906 132.621094 40.183594 131.816406 C 37.238281 131.015625 34.160156 131.816406 31.75 131.542969 C 29.339844 131.277344 27.867188 133.6875 27.867188 133.6875 C 27.867188 133.6875 29.871094 133.023438 31.609375 133.421875 C 33.351562 133.820312 33.890625 135.429688 35.761719 134.628906 C 37.632812 133.820312 41.515625 135.699219 41.515625 135.699219 C 41.515625 135.699219 40.179688 136.5 38.304688 137.171875 C 36.433594 137.839844 33.890625 138.640625 31.746094 139.042969 C 29.605469 139.445312 27.0625 142.527344 28.800781 141.050781 C 30.539062 139.578125 31.605469 140.785156 34.015625 140.378906 C 36.433594 139.976562 38.707031 139.84375 38.707031 139.84375 C 38.707031 139.84375 37.101562 139.84375 35.894531 141.316406 C 34.6875 142.792969 31.34375 144.132812 29.464844 144.132812 C 27.59375 144.132812 24.515625 145.070312 22.773438 147.34375 C 21.035156 149.621094 18.890625 150.023438 18.890625 150.023438 C 18.890625 150.023438 20.226562 151.496094 22.238281 150.023438 C 24.246094 148.542969 24.648438 147.878906 27.59375 147.34375 C 30.539062 146.804688 33.617188 145.738281 33.617188 145.738281 C 32.011719 147.078125 31.070312 148.683594 28.398438 149.082031 C 25.722656 149.488281 21.570312 152.695312 19.964844 154.304688 C 18.359375 155.910156 15.550781 157.121094 15.550781 157.121094 C 18.222656 158.726562 19.566406 156.722656 22.378906 155.117188 C 25.1875 153.511719 26.660156 154.578125 30.011719 153.640625 C 33.355469 152.699219 32.957031 149.894531 34.023438 149.761719 C 35.09375 149.632812 37.90625 149.761719 38.710938 148.421875 C 39.515625 147.089844 38.976562 146.015625 40.988281 146.015625 C 42.996094 146.015625 43.792969 145.078125 43.792969 145.078125 C 42.988281 146.8125 40.988281 148.289062 40.988281 148.289062 C 43.398438 148.957031 45.273438 146.683594 47.683594 145.207031 C 50.09375 143.734375 51.699219 143.734375 51.699219 143.734375 C 51.699219 143.734375 50.226562 146.277344 48.621094 146.542969 C 47.011719 146.8125 45.140625 149.628906 45.140625 149.628906 C 46.210938 147.351562 51.292969 147.75 53.171875 146.144531 C 55.042969 144.539062 57.589844 141.855469 59.195312 140.921875 C 60.800781 139.984375 62.40625 137.984375 65.214844 135.4375 C 68.027344 132.894531 72.976562 133.433594 72.976562 133.027344 C 72.976562 132.628906 72.84375 136.773438 72.84375 136.773438 L 68.160156 137.179688 L 71.105469 139.316406 C 69.234375 138.511719 66.554688 142.261719 66.554688 142.261719 L 71.1875 141.722656 L 72.179688 144.40625 C 73.648438 141.316406 74.722656 141.988281 74.722656 141.988281 C 76.328125 143.859375 76.460938 148.144531 76.460938 148.144531 C 76.460938 148.144531 74.320312 147.605469 71.910156 150.417969 C 69.5 153.234375 73.917969 158.582031 73.917969 158.582031 C 73.917969 158.582031 73.109375 159.789062 73.917969 162.066406 C 74.714844 164.339844 78.867188 166.75 83.015625 165.410156 C 87.167969 164.070312 86.765625 158.457031 86.765625 158.457031 C 86.765625 158.457031 88.238281 156.976562 87.964844 154.035156 C 87.699219 151.089844 86.359375 149.488281 86.359375 149.488281 C 86.359375 149.488281 88.90625 148.550781 90.511719 150.289062 C 92.117188 152.023438 92.515625 156.039062 92.515625 156.039062 C 92.515625 156.039062 94.121094 148.542969 91.714844 146.679688 C 89.3125 144.8125 83.417969 144.9375 83.417969 144.9375 C 83.285156 141.855469 80.605469 140.117188 79.933594 138.109375 C 79.261719 136.105469 80.332031 131.148438 80.332031 131.148438 L 83.679688 131.421875 C 83.679688 131.421875 83.410156 132.628906 85.816406 134.367188 C 88.226562 136.101562 92.105469 134.898438 92.105469 134.898438 C 92.105469 134.898438 96.523438 135.300781 98.667969 131.421875 C 100.804688 127.542969 96.792969 124.460938 96.792969 124.460938 C 96.128906 118.304688 87.023438 121.789062 87.023438 121.789062 C 87.960938 117.640625 91.976562 117.640625 91.976562 117.640625 C 91.976562 117.640625 87.292969 115.222656 84.617188 116.160156 C 81.9375 117.101562 82.871094 123.792969 80.734375 123.527344 C 78.59375 123.261719 78.320312 116.695312 80.0625 111.605469 C 81.800781 106.523438 90.632812 106.253906 99.066406 109.605469 C 107.496094 112.945312 119.410156 113.617188 119.410156 113.617188 C 119.015625 115.222656 116.871094 117.640625 116.871094 117.640625 L 113.121094 116.160156 L 115.394531 118.976562 C 114.589844 120.984375 112.449219 122.457031 112.449219 122.457031 C 114.722656 124.0625 117.265625 120.851562 117.265625 120.851562 L 118.207031 124.734375 L 120.484375 121.523438 C 120.484375 121.523438 125.160156 124.867188 129.042969 126.332031 C 132.921875 127.8125 140.429688 129.148438 140.429688 129.148438 C 140.429688 129.148438 137.882812 130.355469 140.554688 134.632812 C 143.234375 138.917969 149.390625 140.117188 149.390625 140.117188 C 149.390625 140.117188 154.078125 142.261719 158.351562 138.511719 C 162.640625 134.761719 159.15625 127.9375 159.15625 127.9375 C 159.15625 120.050781 150.726562 122.523438 150.726562 122.523438 C 152.460938 119.109375 156.550781 116.828125 156.550781 116.828125 C 149.921875 112.949219 147.117188 120.582031 142.160156 122.1875 C 137.207031 123.792969 128.503906 119.105469 128.109375 119.105469 C 127.707031 119.105469 128.371094 118.300781 128.503906 116.5625 C 128.640625 114.828125 132.65625 111.476562 134.660156 107.328125 C 136.671875 103.179688 136.140625 96.351562 136.140625 96.351562 C 138.8125 93.679688 142.433594 95.679688 142.433594 95.679688 C 142.300781 98.488281 140.554688 99.695312 140.554688 99.695312 C 142.5625 99.828125 143.5 97.949219 143.5 97.949219 C 142.5625 100.894531 145.644531 104.378906 145.644531 104.378906 L 146.578125 99.820312 L 149.390625 103.039062 L 147.65625 97.148438 C 153.003906 97.148438 158.628906 93.265625 158.628906 93.265625 C 158.628906 93.265625 161.304688 97.148438 166.660156 97.148438 C 172.011719 97.148438 177.367188 91.394531 177.367188 88.851562 C 177.367188 86.304688 172.550781 82.695312 172.550781 82.695312 C 172.550781 82.695312 174.421875 78.410156 167.332031 78.410156 C 160.246094 78.410156 158.101562 87.050781 158.101562 87.050781 C 158.101562 87.050781 155.148438 85.777344 151.132812 86.839844 C 147.121094 87.910156 140.566406 84.566406 136.550781 82.5625 C 132.527344 80.554688 126.910156 75.0625 126.910156 75.0625 C 126.910156 73.1875 127.957031 70.238281 127.957031 70.238281 C 127.957031 70.238281 133.734375 70.644531 132 71.3125 C 130.253906 71.984375 125.710938 73.320312 129.328125 73.589844 C 132.933594 73.855469 136.417969 72.382812 135.34375 73.589844 C 134.277344 74.792969 130.261719 77.605469 131.867188 77.605469 C 133.472656 77.605469 135.617188 75.59375 136.6875 75.328125 C 137.753906 75.0625 139.628906 75.726562 142.3125 75.726562 C 143.023438 75.726562 143.773438 75.316406 144.488281 74.734375 C 147.246094 76.039062 151.320312 79.921875 153.285156 81.882812 C 155.695312 84.289062 157.160156 81.078125 158.238281 79.609375 C 158.855469 78.761719 157.160156 77.167969 155.332031 75.726562 C 155.640625 75.351562 155.949219 74.976562 156.226562 74.65625 C 156.371094 74.488281 156.609375 74.371094 156.828125 74.246094 L 159.898438 75.355469 C 159.917969 77.679688 159.84375 80.816406 159.84375 80.816406 C 161.320312 79.765625 161.390625 77.65625 161.417969 75.878906 C 163.523438 76.605469 165.367188 77.160156 166.542969 77.199219 C 170.421875 77.332031 172.960938 75.996094 176.578125 75.59375 C 180.1875 75.195312 180.457031 78.542969 180.457031 78.542969 C 180.457031 78.542969 181.933594 77.472656 179.789062 75.328125 C 177.648438 73.183594 174.832031 73.320312 174.832031 73.320312 C 174.832031 70.238281 171.117188 70.378906 171.117188 70.378906 C 174.226562 72.117188 171.089844 73.988281 171.089844 73.988281 C 171.488281 72.25 167.605469 71.1875 167.605469 71.1875 C 167.605469 71.1875 170.148438 72.382812 168.550781 73.851562 C 167.550781 74.765625 166.171875 74.761719 164.457031 74.5 C 164.65625 73.578125 165.011719 72.171875 165.59375 70.90625 C 166.539062 68.898438 164.929688 66.894531 164.929688 66.894531 L 166.667969 63.679688 C 166.667969 63.679688 172.421875 62.738281 174.023438 61.9375 C 175.632812 61.132812 177.234375 60.460938 181.25 60.601562 C 185.273438 60.734375 186.210938 58.460938 186.210938 58.460938 C 184.457031 59.550781 179.367188 58.082031 177.359375 58.214844 Z M 150.726562 66.917969 C 152.066406 65.984375 152.871094 66.785156 152.871094 66.785156 L 153.929688 69.195312 L 155.277344 66.25 L 157.148438 67.722656 L 156.089844 69.59375 L 160.105469 69.0625 L 159.707031 70.398438 C 159.707031 70.398438 158.277344 71.683594 156.878906 72.8125 C 154.105469 71.949219 150.882812 70.734375 148.578125 69.488281 C 149.015625 68.746094 149.828125 67.542969 150.726562 66.917969 Z M 155.273438 74.003906 C 154.859375 74.277344 154.578125 74.640625 154.378906 75.027344 C 153.359375 74.265625 152.40625 73.59375 151.933594 73.207031 C 151.484375 72.839844 150.882812 72.5 150.226562 72.171875 C 151.929688 72.605469 153.722656 73.179688 155.535156 73.816406 Z M 159.105469 73.457031 C 159.511719 73.382812 159.820312 73.339844 159.820312 73.339844 L 159.839844 73.632812 C 159.601562 73.578125 159.371094 73.527344 159.105469 73.457031 Z M 161.578125 74.003906 C 161.945312 72.488281 163.179688 71.601562 163.179688 71.601562 C 163.121094 72.660156 163.300781 73.589844 163.503906 74.378906 Z M 161.578125 74.003906 "/>
</g>
</svg>
