<?xml version="1.0" encoding="UTF-8"?>
<svg xmlns="http://www.w3.org/2000/svg" xmlns:xlink="http://www.w3.org/1999/xlink" width="200px" height="200px" viewBox="0 0 200 200" version="1.1">
<g id="surface1">
<path style=" stroke:none;fill-rule:nonzero;fill:rgb(85.098039%,0%,0.392157%);fill-opacity:1;" d="M 200 150 L 200 144.445312 L 0 144.445312 L 0 150 C 0 162.273438 9.949219 172.222656 22.222656 172.222656 L 177.777344 172.222656 C 190.050781 172.222656 200 162.273438 200 150 Z M 200 150 "/>
<path style=" stroke:none;fill-rule:nonzero;fill:rgb(98.823529%,86.27451%,0.784314%);fill-opacity:1;" d="M 0 122.222656 L 200 122.222656 L 200 144.445312 L 0 144.445312 Z M 0 122.222656 "/>
<path style=" stroke:none;fill-rule:nonzero;fill:rgb(7.843137%,7.843137%,7.843137%);fill-opacity:1;" d="M 0 100 L 200 100 L 200 122.222656 L 0 122.222656 Z M 0 100 "/>
<path style=" stroke:none;fill-rule:nonzero;fill:rgb(85.098039%,0%,0.392157%);fill-opacity:1;" d="M 0 77.777344 L 200 77.777344 L 200 100 L 0 100 Z M 0 77.777344 "/>
<path style=" stroke:none;fill-rule:nonzero;fill:rgb(98.823529%,86.27451%,0.784314%);fill-opacity:1;" d="M 0 55.554688 L 200 55.554688 L 200 77.777344 L 0 77.777344 Z M 0 55.554688 "/>
<path style=" stroke:none;fill-rule:nonzero;fill:rgb(7.843137%,7.843137%,7.843137%);fill-opacity:1;" d="M 0 50 L 0 55.554688 L 200 55.554688 L 200 50 C 200 37.726562 190.050781 27.777344 177.777344 27.777344 L 22.222656 27.777344 C 9.949219 27.777344 0 37.726562 0 50 Z M 0 50 "/>
<path style=" stroke:none;fill-rule:nonzero;fill:rgb(100%,100%,100%);fill-opacity:1;" d="M 122.222656 100 C 122.222656 112.273438 112.273438 122.222656 100 122.222656 C 87.726562 122.222656 77.777344 112.273438 77.777344 100 C 77.777344 87.726562 87.726562 77.777344 100 77.777344 C 112.273438 77.777344 122.222656 87.726562 122.222656 100 Z M 122.222656 100 "/>
<path style=" stroke:none;fill-rule:nonzero;fill:rgb(85.098039%,0%,0%);fill-opacity:1;" d="M 96.355469 83.503906 L 94.871094 79.601562 C 94.871094 79.601562 98.089844 78.472656 101.214844 79.601562 C 103.601562 80.460938 103.820312 83.503906 103.820312 83.503906 L 100.09375 84.632812 Z M 96.355469 83.503906 "/>
<path style=" stroke:none;fill-rule:nonzero;fill:rgb(98.823529%,86.27451%,0.784314%);fill-opacity:1;" d="M 97.746094 82.898438 L 97.746094 79.101562 C 97.746094 79.101562 98.359375 78.859375 100.09375 79.101562 C 101.828125 79.339844 102.609375 80.554688 102.609375 80.554688 L 100.179688 83.511719 Z M 97.746094 82.898438 "/>
<path style=" stroke:none;fill-rule:nonzero;fill:rgb(7.843137%,7.843137%,7.843137%);fill-opacity:1;" d="M 98.582031 93.867188 C 98.121094 93.054688 98.582031 88.3125 99.910156 87.964844 C 101.238281 87.621094 103.789062 83.457031 99.910156 82.066406 C 96.035156 80.679688 95.222656 84.726562 95.222656 84.726562 C 95.222656 84.726562 91.390625 85.855469 91.867188 86.8125 C 92.328125 87.738281 95.570312 86.464844 96.265625 87.273438 C 96.960938 88.078125 95.921875 89.238281 93.144531 92.484375 C 90.367188 95.726562 92.214844 100.121094 93.488281 101.253906 C 94.761719 102.390625 96.265625 103.25 97.421875 104.289062 C 98.578125 105.328125 99.910156 105.910156 99.910156 105.910156 L 99.910156 109.265625 C 99.910156 109.265625 96.035156 109.609375 94.183594 109.382812 C 92.332031 109.15625 91.0625 110.429688 90.59375 111.929688 C 90.128906 113.429688 91.289062 114.246094 91.289062 113.089844 C 91.289062 111.933594 91.75 112.621094 91.855469 113.550781 C 91.960938 114.476562 92.789062 114.128906 92.789062 112.972656 C 92.789062 111.816406 93.25 112.277344 93.367188 112.855469 C 93.484375 113.433594 94.292969 112.621094 94.410156 111.929688 C 94.527344 111.234375 95.566406 110.882812 96.496094 110.65625 C 97.421875 110.429688 99.90625 110.882812 99.90625 110.882812 L 99.90625 117.015625 C 99.90625 117.015625 94.753906 117.359375 94.292969 118.0625 C 93.832031 118.761719 97.417969 118.640625 97.417969 118.640625 C 97.417969 118.640625 96.371094 120.605469 96.839844 120.722656 C 97.304688 120.839844 100.542969 118.753906 101.816406 118.523438 C 103.089844 118.289062 105.054688 119.101562 105.289062 118.523438 C 105.523438 117.945312 102.167969 117.132812 101.816406 116.554688 C 101.464844 115.976562 100.773438 110.65625 100.773438 110.65625 C 100.773438 110.65625 102.277344 110.535156 104.132812 110.648438 C 105.984375 110.765625 105.523438 109.144531 104.367188 107.527344 C 103.210938 105.910156 104.25 105.445312 106.214844 105.792969 C 108.183594 106.144531 109.6875 105.792969 109.6875 102.667969 C 109.6875 99.539062 99.042969 94.679688 98.582031 93.867188 Z M 102.632812 108.910156 L 101.359375 108.910156 L 101.820312 106.59375 C 101.820312 106.601562 103.445312 108.910156 102.632812 108.910156 Z M 102.632812 108.910156 "/>
<path style=" stroke:none;fill-rule:nonzero;fill:rgb(85.098039%,0%,0%);fill-opacity:1;" d="M 97.078125 87.84375 C 97.238281 86.460938 94.996094 86.570312 94.878906 87.84375 C 94.761719 89.117188 96.851562 89.816406 97.078125 87.84375 Z M 97.078125 87.84375 "/>
<path style=" stroke:none;fill-rule:nonzero;fill:rgb(61.176471%,65.098039%,61.176471%);fill-opacity:1;" d="M 98.609375 94.707031 C 99.25 94.476562 106.421875 97.746094 108.332031 98.609375 C 110.246094 99.476562 110.015625 102.777344 109.695312 104.773438 C 109.371094 106.765625 108.246094 107.378906 108.246094 107.378906 C 108.246094 107.378906 106.996094 104.15625 103.035156 102.605469 C 97.714844 100.523438 96.179688 95.570312 98.609375 94.707031 Z M 98.609375 94.707031 "/>
<path style=" stroke:none;fill-rule:nonzero;fill:rgb(85.098039%,0%,0%);fill-opacity:1;" d="M 106.683594 98.523438 C 109.023438 99.132812 113.972656 100.253906 114.410156 105.292969 C 114.84375 110.328125 109.695312 113.285156 109.695312 113.285156 L 110.554688 111.722656 L 109.027344 112.246094 L 109.695312 111.109375 L 107.289062 111.632812 C 107.289062 111.632812 111.316406 108.421875 109.910156 105.554688 C 110.015625 107.945312 108.417969 108.59375 108.417969 108.59375 C 108.417969 108.59375 109.792969 105.285156 103.816406 101.648438 L 105.378906 101.25 L 103.820312 100 L 107.121094 101.25 L 105.554688 99.304688 L 108.679688 100.523438 Z M 106.683594 98.523438 "/>
<path style=" stroke:none;fill-rule:nonzero;fill:rgb(61.176471%,65.098039%,61.176471%);fill-opacity:1;" d="M 97.746094 85.199219 C 97.746094 85.511719 97.496094 85.765625 97.179688 85.765625 C 96.867188 85.765625 96.609375 85.515625 96.609375 85.199219 C 96.609375 84.890625 96.859375 84.632812 97.179688 84.632812 C 97.488281 84.632812 97.746094 84.890625 97.746094 85.199219 Z M 97.746094 85.199219 "/>
</g>
</svg>
