<?xml version="1.0" encoding="UTF-8"?>
<svg xmlns="http://www.w3.org/2000/svg" xmlns:xlink="http://www.w3.org/1999/xlink" width="200px" height="px" viewBox="0 0 200 200" version="1.1">
<g id="surface1">
<path style=" stroke:none;fill-rule:nonzero;fill:rgb(40.784314%,74.901961%,89.803922%);fill-opacity:1;" d="M 177.777344 27.777344 L 22.222656 27.777344 C 21.082031 27.777344 19.960938 27.859375 18.867188 28.027344 L 18.84375 37.773438 L 3.679688 37.75 C 1.355469 41.261719 0 45.472656 0 50 L 0 150 C 0 162.273438 9.949219 172.222656 22.222656 172.222656 L 177.777344 172.222656 C 190.050781 172.222656 200 162.273438 200 150 L 200 50 C 200 37.726562 190.050781 27.777344 177.777344 27.777344 Z M 177.777344 27.777344 "/>
<path style=" stroke:none;fill-rule:nonzero;fill:rgb(0%,0%,0%);fill-opacity:1;" d="M 153.589844 64.582031 L 126.503906 64.582031 L 126.503906 110.417969 C 126.503906 125.921875 153.589844 134.605469 153.589844 134.605469 C 153.589844 134.605469 180.671875 125.921875 180.671875 110.417969 L 180.671875 64.582031 Z M 153.589844 64.582031 "/>
<path style=" stroke:none;fill-rule:nonzero;fill:rgb(100%,100%,100%);fill-opacity:1;" d="M 153.589844 133.4375 C 150.503906 132.378906 127.617188 124.027344 127.617188 110.417969 L 127.617188 65.695312 L 179.5625 65.695312 L 179.5625 110.417969 C 179.5625 124.023438 156.671875 132.371094 153.589844 133.4375 Z M 153.589844 133.4375 "/>
<path style=" stroke:none;fill-rule:nonzero;fill:rgb(82.352941%,6.27451%,20.392157%);fill-opacity:1;" d="M 179.5625 82.753906 L 179.5625 65.695312 L 127.617188 65.695312 L 127.617188 82.753906 L 149.882812 82.753906 L 149.882812 101.621094 L 127.617188 101.621094 L 127.617188 108.910156 L 149.882812 108.910156 L 149.882812 132.011719 C 151.644531 132.746094 152.996094 133.226562 153.589844 133.433594 C 154.167969 133.234375 155.464844 132.765625 157.179688 132.0625 L 157.179688 108.910156 L 179.5625 108.910156 L 179.5625 101.621094 L 157.179688 101.621094 L 157.179688 82.753906 Z M 179.5625 82.753906 "/>
<path style=" stroke:none;fill-rule:nonzero;fill:rgb(100%,100%,100%);fill-opacity:1;" d="M 134.355469 76.066406 C 134.355469 77.59375 132.929688 78.832031 131.179688 78.832031 C 129.421875 78.832031 128 77.59375 128 76.066406 C 128 74.539062 129.421875 73.300781 131.179688 73.300781 C 132.929688 73.300781 134.355469 74.539062 134.355469 76.066406 Z M 134.355469 76.066406 "/>
<path style=" stroke:none;fill-rule:nonzero;fill:rgb(100%,81.960784%,0.392157%);fill-opacity:1;" d="M 131.773438 73.871094 C 129.960938 74.1875 129.082031 73.089844 129.429688 72.050781 C 129.773438 71.011719 131.511719 70.054688 133.160156 69.878906 C 134.8125 69.707031 136.371094 71.355469 137.671875 71.4375 C 138.972656 71.527344 139.667969 70.804688 139.929688 69.859375 C 140.1875 68.917969 142.011719 66.765625 140.882812 66.226562 C 142.359375 66.226562 142.359375 67.789062 142.359375 67.789062 C 142.359375 67.789062 144.011719 66.140625 145.226562 66.226562 C 145.921875 67.445312 145.226562 69.179688 145.226562 69.179688 C 145.226562 69.179688 146.960938 68.484375 148.179688 69.265625 C 145.832031 69.609375 145.488281 71 145.488281 71 C 145.488281 71 145.921875 72.128906 145.316406 72.734375 C 144.710938 73.339844 150.089844 74.464844 153.042969 73.601562 C 155.996094 72.734375 161.640625 70.734375 165.285156 70.734375 C 168.929688 70.734375 169.710938 72.121094 170.578125 70.90625 C 171.445312 69.6875 169.535156 68.390625 166.410156 68.648438 C 163.289062 68.910156 157.988281 72.527344 155.90625 70.109375 C 155.382812 70.109375 155.121094 70.734375 155.121094 70.734375 C 155.121094 70.734375 153.820312 70.300781 152.515625 69.605469 C 151.214844 68.910156 151.472656 71.253906 152.171875 71.601562 C 150 71.511719 150.070312 70.109375 150.070312 70.109375 C 150.070312 70.109375 147.394531 68.144531 149.132812 66.667969 C 149.261719 69.359375 151.648438 68.578125 152.957031 68.054688 C 154.253906 67.535156 155.90625 67.964844 156.6875 68.660156 C 157.472656 69.355469 159.726562 69.960938 162.589844 68.316406 C 165.457031 66.667969 173.179688 66.0625 173.265625 69.535156 C 173.355469 73.003906 169.445312 73.265625 169.445312 73.265625 C 169.445312 73.265625 169.878906 75.351562 172.3125 74.917969 C 174.746094 74.484375 176.304688 73.789062 177 75.699219 C 177.695312 77.609375 179.253906 77.695312 178.738281 79.261719 C 178.214844 80.820312 176.484375 81.550781 174.140625 81.144531 C 171.792969 80.738281 171.535156 79.785156 173.445312 79.433594 C 175.355469 79.089844 175.699219 77.609375 175.003906 77.261719 C 174.3125 76.910156 173.011719 78.304688 171.273438 77.605469 C 169.535156 76.90625 167.277344 75.523438 167.277344 75.523438 C 167.277344 75.523438 167.367188 76.476562 165.800781 77 C 164.238281 77.523438 165.539062 78.128906 165.972656 79.082031 C 166.40625 80.039062 164.410156 80.816406 162.328125 81.25 C 160.246094 81.683594 158.683594 82.816406 156.683594 80.382812 C 154.6875 77.949219 157.207031 77.261719 158.246094 78.039062 C 159.285156 78.816406 160.328125 80.210938 161.195312 79.515625 C 162.0625 78.820312 160.589844 78.390625 160.410156 77.082031 C 160.238281 75.785156 160.5 74.222656 160.5 74.222656 C 160.5 74.222656 157.722656 78.554688 151.820312 79.421875 C 145.921875 80.289062 144.878906 80.289062 144.878906 80.289062 L 143.144531 79.070312 L 141.0625 80.460938 L 140.972656 78.898438 C 140.972656 78.898438 137.671875 81.488281 135.9375 81.890625 C 134.207031 82.289062 129.460938 81.160156 129.355469 79.855469 C 129.25 78.554688 129.773438 77.945312 131.332031 77.421875 C 132.894531 76.898438 133.15625 77.765625 133.9375 78.464844 C 134.722656 79.167969 135.589844 80.117188 136.714844 79.160156 C 137.84375 78.207031 138.449219 77.859375 138.449219 77.859375 L 138.792969 76.210938 L 137.144531 76.121094 L 137.75 74.214844 C 137.75 74.214844 136.535156 74.472656 135.667969 73.6875 C 134.800781 72.90625 134.710938 72.128906 133.933594 72.390625 C 133.160156 72.65625 133.765625 73.523438 131.773438 73.871094 Z M 131.773438 73.871094 "/>
<path style=" stroke:none;fill-rule:nonzero;fill:rgb(58.823529%,29.411765%,21.176471%);fill-opacity:1;" d="M 135.9375 99.042969 C 134.460938 99.648438 132.207031 94.789062 133.503906 93.398438 C 134.8125 92.011719 137.410156 98.4375 135.9375 99.042969 Z M 138.800781 98.4375 C 137.417969 98.5625 137.933594 91.839844 138.800781 91.839844 C 139.671875 91.839844 140.710938 98.265625 138.800781 98.4375 Z M 141.234375 99.5 C 139.503906 99.183594 142.101562 95.140625 142.792969 95.140625 C 143.488281 95.140625 143.226562 99.867188 141.234375 99.5 Z M 168.660156 100.605469 C 165.277344 100.699219 167.183594 100.011719 167.535156 99.09375 C 167.878906 98.171875 167.671875 91.316406 167.671875 91.316406 L 169.617188 91.316406 C 169.617188 91.316406 169.011719 97.222656 169.617188 98.4375 C 170.226562 99.65625 171.789062 100.523438 168.660156 100.605469 Z M 175.34375 112.589844 C 176.148438 111.6875 174.128906 110.246094 172.738281 110.246094 C 171.351562 110.246094 169.777344 111.027344 168.609375 114.320312 C 167.445312 117.621094 169.917969 116.667969 170.550781 114.84375 C 171.183594 113.023438 171.699219 111.976562 172.65625 111.894531 C 173.609375 111.804688 173.957031 114.148438 175.34375 112.589844 Z M 162.066406 124.132812 C 160.285156 124 158.765625 128.644531 158.765625 128.644531 C 158.765625 128.644531 166.753906 124.476562 162.066406 124.132812 Z M 162.066406 124.132812 "/>
<path style=" stroke:none;fill-rule:nonzero;fill:rgb(0%,65.098039%,31.764706%);fill-opacity:1;" d="M 134.355469 95.140625 C 134.789062 96.527344 130.382812 94.917969 130.300781 97.328125 C 128.476562 97.050781 131.082031 93.488281 132.734375 94.011719 C 132.390625 92.101562 129.921875 91.320312 129.679688 94.445312 C 126.917969 92.011719 130.433594 89.671875 132.015625 90.710938 C 131.171875 87.761719 129.554688 87.8125 129.355469 89.582031 C 127.265625 87.851562 129.371094 85.070312 131.183594 86.371094 C 132.996094 87.671875 133.128906 89.0625 133.128906 89.0625 C 133.128906 89.0625 134.390625 84.566406 137.601562 86.035156 C 133.707031 87.679688 132.945312 90.621094 134.355469 95.140625 Z M 134.355469 95.140625 "/>
<path style=" stroke:none;fill-rule:nonzero;fill:rgb(0%,65.098039%,31.764706%);fill-opacity:1;" d="M 138.910156 93.207031 C 137.761719 92.101562 137.066406 90.882812 137.066406 90.882812 C 137.066406 90.882812 138.292969 94.183594 136.378906 95.570312 C 136.460938 92.535156 134.378906 91.496094 135.503906 90.277344 C 136.632812 89.0625 138.542969 90.277344 138.542969 90.277344 C 138.542969 90.277344 138.996094 89.570312 137.039062 87.84375 C 135.082031 86.121094 133.683594 86.195312 133.59375 84.722656 C 135.554688 85.890625 138.554688 85.894531 138.910156 89.148438 C 139.320312 85.246094 141.082031 85.15625 141.894531 85.070312 C 142.707031 84.988281 144.617188 85.417969 145.3125 84.726562 C 145.3125 86.117188 143.75 85.683594 142.707031 86.117188 C 144.09375 87.070312 144.183594 90.15625 144.183594 90.15625 C 144.183594 90.15625 142.1875 86.640625 141.316406 86.898438 C 140.449219 87.160156 139.871094 89.765625 139.871094 89.765625 C 139.871094 89.765625 143.042969 89.671875 141.890625 93.933594 C 141.398438 91.589844 140.878906 91.328125 140.273438 91.328125 C 139.667969 91.328125 138.910156 93.207031 138.910156 93.207031 Z M 138.910156 93.207031 "/>
<path style=" stroke:none;fill-rule:nonzero;fill:rgb(0%,65.098039%,31.764706%);fill-opacity:1;" d="M 141.894531 96.148438 C 142.011719 94.527344 142.792969 91.75 143.660156 91.535156 C 143.949219 89.753906 144.878906 87.238281 146.785156 86.804688 C 148.695312 86.371094 149.128906 88.367188 148.695312 89.496094 C 147.566406 87.84375 146.003906 87.410156 145.65625 91.316406 C 147.304688 90.882812 148.261719 92.183594 147.828125 93.921875 C 146.265625 92.101562 145.140625 91.882812 144.445312 93.207031 C 146.265625 93.921875 146.300781 95.484375 145.371094 96.789062 C 144.964844 94.535156 143.761719 94.707031 143.121094 96.789062 C 142.476562 98.867188 141.894531 96.148438 141.894531 96.148438 Z M 168.304688 93.207031 C 166.320312 93.207031 163.714844 95.253906 163.542969 98.4375 C 161.460938 95.3125 164.011719 91.839844 166.683594 90.621094 C 161.976562 90.710938 160.246094 92.792969 159.640625 94.527344 C 159.035156 89.929688 164.878906 88.105469 166.683594 88.882812 C 165.539062 86.890625 161.027344 87.054688 158.765625 88.707031 C 158.765625 84.890625 165.515625 83.972656 168.304688 87.421875 C 167.964844 84.628906 169.101562 83.933594 169.101562 83.933594 L 169.101562 87.667969 C 169.101562 87.667969 175.382812 81.765625 178.839844 88.882812 C 173.265625 86.015625 170.554688 88.972656 170.554688 88.972656 C 170.554688 88.972656 176.328125 87.582031 175.535156 94.265625 C 173.699219 90.1875 169.878906 90.621094 169.878906 90.621094 C 169.878906 90.621094 174.304688 92.621094 172.566406 97.566406 C 170.832031 92.792969 168.304688 93.207031 168.304688 93.207031 Z M 168.304688 93.207031 "/>
<path style=" stroke:none;fill-rule:nonzero;fill:rgb(100%,94.901961%,0.784314%);fill-opacity:1;" d="M 164.0625 114.933594 C 163.800781 112.328125 167.101562 110.855469 167.101562 110.855469 C 167.101562 110.855469 172.65625 114.238281 173.4375 114.933594 C 174.222656 115.628906 172.960938 118.535156 170.550781 119.292969 C 168.144531 120.050781 164.0625 114.933594 164.0625 114.933594 Z M 164.0625 114.933594 "/>
<path style=" stroke:none;fill-rule:nonzero;fill:rgb(0%,65.098039%,31.764706%);fill-opacity:1;" d="M 162.535156 124.195312 C 161.226562 123.371094 160.394531 118.75 162.535156 118.3125 C 161.722656 115.535156 163.457031 114.144531 164.0625 113.972656 C 164.667969 113.800781 166.917969 114.816406 168.609375 116.433594 C 170.3125 118.050781 171.785156 118.4375 171.917969 119.070312 C 172.050781 119.699219 170.855469 121.609375 168.804688 121.785156 C 169.445312 123.699219 164.5625 125.476562 162.535156 124.195312 Z M 162.535156 124.195312 "/>
<path style=" stroke:none;fill-rule:nonzero;fill:rgb(0%,0%,0%);fill-opacity:1;" d="M 133.59375 113.371094 C 133.59375 113.371094 134.894531 112.84375 135.679688 112.066406 C 136.460938 111.289062 137.5 111.285156 138.367188 112.714844 C 139.234375 114.148438 139.871094 115.972656 139.871094 115.972656 C 139.871094 115.972656 139.578125 113.367188 142.273438 111.976562 C 144.964844 110.589844 145.371094 110.246094 145.371094 110.246094 L 144.445312 113.957031 C 144.445312 113.957031 147.65625 111.984375 148.179688 110.851562 C 148.871094 115.277344 145.570312 118.445312 143.488281 119.292969 C 144.617188 121.183594 144.09375 122.746094 144.09375 122.746094 L 147.917969 125.867188 L 143.75 127.167969 L 141.894531 123.171875 C 141.894531 123.171875 137.078125 123.34375 136.378906 119.699219 C 135.679688 116.054688 137.339844 114.101562 136.378906 113.949219 C 135.417969 113.800781 133.59375 113.371094 133.59375 113.371094 Z M 133.59375 113.371094 "/>
<path style=" stroke:none;fill-rule:nonzero;fill:rgb(100%,100%,100%);fill-opacity:1;" d="M 142.246094 122.605469 L 141.871094 122.621094 C 141.0625 122.621094 137.476562 122.464844 136.929688 119.601562 C 136.5625 117.695312 136.871094 116.285156 137.082031 115.351562 C 137.238281 114.632812 137.34375 114.160156 137.078125 113.773438 L 136.945312 113.570312 L 136.464844 113.40625 C 136.117188 113.351562 135.644531 113.253906 135.1875 113.15625 C 135.5 112.960938 135.8125 112.722656 136.070312 112.457031 C 136.238281 112.292969 136.496094 112.09375 136.785156 112.09375 C 137.144531 112.09375 137.542969 112.417969 137.894531 113 C 138.722656 114.367188 139.351562 116.140625 139.355469 116.148438 L 140.433594 115.90625 C 140.421875 115.8125 140.234375 113.65625 142.535156 112.464844 C 143.40625 112.015625 144.039062 111.671875 144.503906 111.417969 L 143.578125 115.140625 L 144.738281 114.421875 C 145.128906 114.179688 146.65625 113.222656 147.710938 112.25 C 147.59375 115.800781 144.75 118.171875 143.277344 118.773438 L 142.683594 119.015625 L 143.015625 119.578125 C 143.988281 121.199219 143.589844 122.511719 143.578125 122.566406 L 143.460938 122.929688 L 146.773438 125.640625 L 144.054688 126.488281 Z M 142.246094 122.605469 "/>
<path style=" stroke:none;fill-rule:nonzero;fill:rgb(0%,65.098039%,31.764706%);fill-opacity:1;" d="M 134.75 112.773438 C 134.117188 111.289062 134.117188 111.289062 133.117188 110.851562 C 133.070312 111.804688 133.117188 112.410156 133.117188 112.410156 C 133.117188 112.410156 132.554688 110.589844 131.683594 110.851562 C 131.160156 112.933594 133.027344 113.371094 133.027344 113.371094 C 133.027344 113.371094 132.207031 113.640625 132.289062 115.105469 C 133.765625 115.707031 133.589844 114.40625 133.589844 114.40625 C 133.589844 114.40625 133.285156 115.738281 134.351562 116.503906 C 135.066406 115.367188 134.75 112.773438 134.75 112.773438 Z M 134.75 112.773438 "/>
<path style=" stroke:none;fill-rule:nonzero;fill:rgb(0%,14.117647%,49.019608%);fill-opacity:1;" d="M 105.554688 100 L 105.554688 27.777344 L 22.222656 27.777344 C 20.445312 27.777344 18.867188 28.027344 18.867188 28.027344 L 18.84375 37.773438 L 3.679688 37.75 C 3.679688 37.75 3.445312 38.078125 2.972656 38.890625 C 1.082031 42.160156 0 45.957031 0 50 L 0 100 Z M 105.554688 100 "/>
<path style=" stroke:none;fill-rule:nonzero;fill:rgb(93.333333%,93.333333%,93.333333%);fill-opacity:1;" d="M 105.554688 27.777344 L 92.605469 27.777344 L 66.667969 45.9375 L 66.667969 27.777344 L 38.890625 27.777344 L 38.890625 42.050781 L 18.867188 28.027344 C 15.457031 28.550781 12.253906 29.832031 9.578125 31.722656 L 35.699219 50 L 26.054688 50 L 5.371094 35.503906 C 4.761719 36.222656 4.199219 36.960938 3.679688 37.75 L 21.183594 50 L 0 50 L 0 77.777344 L 21.582031 77.777344 L 0 93.144531 L 0 100 L 18.511719 100 L 38.890625 85.734375 L 38.890625 100 L 66.667969 100 L 66.667969 81.839844 L 92.601562 100 L 105.554688 100 L 105.554688 88.726562 L 89.917969 77.777344 L 105.554688 77.777344 L 105.554688 50 L 89.921875 50 L 105.554688 39.050781 Z M 105.554688 27.777344 "/>
<path style=" stroke:none;fill-rule:nonzero;fill:rgb(81.176471%,10.588235%,16.862745%);fill-opacity:1;" d="M 61.109375 27.777344 L 44.445312 27.777344 L 44.445312 55.554688 L 0 55.554688 L 0 72.222656 L 44.445312 72.222656 L 44.445312 100 L 61.109375 100 L 61.109375 72.222656 L 105.554688 72.222656 L 105.554688 55.554688 L 61.109375 55.554688 Z M 61.109375 27.777344 "/>
<path style=" stroke:none;fill-rule:nonzero;fill:rgb(81.176471%,10.588235%,16.862745%);fill-opacity:1;" d="M 105.554688 27.777344 L 97.4375 27.777344 L 66.667969 49.328125 L 66.667969 50 L 75.394531 50 L 105.554688 28.878906 Z M 9.578125 31.722656 C 8.015625 32.804688 6.609375 34.070312 5.371094 35.503906 L 26.054688 50 L 35.695312 50 Z M 35.761719 77.777344 L 4.078125 100 L 13.671875 100 L 38.890625 82.34375 L 38.890625 77.777344 Z M 105.554688 98.898438 L 105.554688 92.121094 L 85.070312 77.777344 L 75.390625 77.777344 Z M 105.554688 98.898438 "/>
</g>
</svg>
