<?xml version="1.0" encoding="UTF-8"?>
<svg xmlns="http://www.w3.org/2000/svg" xmlns:xlink="http://www.w3.org/1999/xlink" width="200px" height="px" viewBox="0 0 200 200" version="1.1">
<g id="surface1">
<path style=" stroke:none;fill-rule:nonzero;fill:rgb(0%,47.843137%,23.921569%);fill-opacity:1;" d="M 177.777344 27.777344 L 22.222656 27.777344 C 9.949219 27.777344 0 37.726562 0 50 L 0 75 L 200 75 L 200 50 C 200 37.726562 190.050781 27.777344 177.777344 27.777344 Z M 177.777344 27.777344 "/>
<path style=" stroke:none;fill-rule:nonzero;fill:rgb(80.784314%,6.666667%,14.901961%);fill-opacity:1;" d="M 0 150 C 0 162.273438 9.949219 172.222656 22.222656 172.222656 L 177.777344 172.222656 C 190.050781 172.222656 200 162.273438 200 150 L 200 125 L 0 125 Z M 0 150 "/>
<path style=" stroke:none;fill-rule:nonzero;fill:rgb(93.333333%,93.333333%,93.333333%);fill-opacity:1;" d="M 0 75 L 200 75 L 200 125 L 0 125 Z M 0 75 "/>
<path style=" stroke:none;fill-rule:nonzero;fill:rgb(7.843137%,7.843137%,7.843137%);fill-opacity:1;" d="M 6.695312 34.101562 C 2.566406 38.140625 0 43.773438 0 50 L 0 150 C 0 156.234375 2.566406 161.859375 6.695312 165.898438 L 50 125 L 50 75 Z M 6.695312 34.101562 "/>
</g>
</svg>
