<?xml version="1.0" encoding="UTF-8"?>
<svg xmlns="http://www.w3.org/2000/svg" xmlns:xlink="http://www.w3.org/1999/xlink" width="200px" height="px" viewBox="0 0 200 200" version="1.1">
<g id="surface1">
<path style=" stroke:none;fill-rule:nonzero;fill:rgb(0%,68.627451%,79.215686%);fill-opacity:1;" d="M 200 150 C 200 162.273438 190.050781 172.222656 177.777344 172.222656 L 22.222656 172.222656 C 9.949219 172.222656 0 162.273438 0 150 L 0 50 C 0 37.726562 9.949219 27.777344 22.222656 27.777344 L 177.777344 27.777344 C 190.050781 27.777344 200 37.726562 200 50 Z M 200 150 "/>
<path style=" stroke:none;fill-rule:nonzero;fill:rgb(100%,80%,30.196078%);fill-opacity:1;" d="M 121.667969 91.738281 C 121.667969 100.53125 114.539062 107.65625 105.75 107.65625 C 96.960938 107.65625 89.832031 100.53125 89.832031 91.738281 C 89.832031 82.949219 96.960938 75.820312 105.75 75.820312 C 114.539062 75.820312 121.667969 82.949219 121.667969 91.738281 Z M 121.667969 91.738281 "/>
<path style=" stroke:none;fill-rule:nonzero;fill:rgb(100%,80%,30.196078%);fill-opacity:1;" d="M 105.761719 74.621094 C 106.707031 74.609375 107.050781 74.015625 107.050781 73.3125 C 107.050781 72.367188 105.761719 65 105.761719 65 C 105.761719 65 104.449219 72.367188 104.449219 73.3125 C 104.449219 74.015625 104.804688 74.621094 105.761719 74.621094 Z M 105.761719 108.945312 C 104.804688 108.949219 104.449219 109.542969 104.449219 110.25 C 104.449219 111.199219 105.761719 118.464844 105.761719 118.464844 C 105.761719 118.464844 107.050781 111.195312 107.050781 110.25 C 107.054688 109.550781 106.707031 108.945312 105.761719 108.945312 Z M 101.3125 108.273438 C 100.394531 108.039062 99.910156 108.523438 99.726562 109.207031 C 99.484375 110.117188 98.820312 117.570312 98.820312 117.570312 C 98.820312 117.570312 101.996094 110.789062 102.238281 109.878906 C 102.429688 109.195312 102.234375 108.515625 101.3125 108.273438 Z M 110.199219 75.117188 C 111.121094 75.359375 111.621094 74.871094 111.804688 74.195312 C 112.050781 73.277344 112.660156 65.917969 112.660156 65.917969 C 112.660156 65.917969 109.539062 72.601562 109.289062 73.523438 C 109.105469 74.199219 109.285156 74.871094 110.199219 75.117188 Z M 97.183594 106.550781 C 96.355469 106.089844 95.761719 106.429688 95.410156 107.042969 C 94.9375 107.859375 92.371094 114.890625 92.371094 114.890625 C 92.371094 114.890625 97.1875 109.160156 97.660156 108.34375 C 98.015625 107.726562 98.011719 107.027344 97.183594 106.550781 Z M 114.34375 76.820312 C 115.171875 77.300781 115.785156 76.957031 116.132812 76.34375 C 116.609375 75.523438 119.105469 68.578125 119.105469 68.578125 C 119.105469 68.578125 114.351562 74.226562 113.871094 75.042969 C 113.527344 75.65625 113.527344 76.351562 114.34375 76.820312 Z M 93.640625 103.832031 C 92.960938 103.171875 92.300781 103.34375 91.800781 103.84375 C 91.132812 104.515625 86.832031 110.640625 86.832031 110.640625 C 86.832031 110.640625 92.972656 106.351562 93.640625 105.6875 C 94.140625 105.1875 94.316406 104.5 93.640625 103.832031 Z M 117.910156 79.554688 C 118.589844 80.226562 119.261719 80.054688 119.761719 79.554688 C 120.433594 78.890625 124.644531 72.816406 124.644531 72.816406 C 124.644531 72.816406 118.59375 77.050781 117.929688 77.722656 C 117.429688 78.222656 117.246094 78.890625 117.910156 79.554688 Z M 90.929688 100.285156 C 90.445312 99.472656 89.761719 99.472656 89.144531 99.820312 C 88.320312 100.292969 82.589844 105.09375 82.589844 105.09375 C 82.589844 105.09375 89.628906 102.550781 90.445312 102.078125 C 91.0625 101.722656 91.40625 101.109375 90.929688 100.285156 Z M 120.648438 83.121094 C 121.132812 83.949219 121.832031 83.957031 122.4375 83.605469 C 123.261719 83.128906 128.898438 78.359375 128.898438 78.359375 C 128.898438 78.359375 121.960938 80.878906 121.140625 81.351562 C 120.527344 81.707031 120.183594 82.300781 120.648438 83.121094 Z M 89.222656 96.15625 C 88.964844 95.246094 88.300781 95.066406 87.617188 95.246094 C 86.707031 95.488281 79.921875 98.644531 79.921875 98.644531 C 79.921875 98.644531 87.378906 98.003906 88.289062 97.761719 C 88.972656 97.570312 89.464844 97.078125 89.222656 96.15625 Z M 122.367188 87.265625 C 122.621094 88.1875 123.289062 88.378906 123.972656 88.195312 C 124.890625 87.949219 131.570312 84.804688 131.570312 84.804688 C 131.570312 84.804688 124.214844 85.4375 123.292969 85.683594 C 122.617188 85.859375 122.121094 86.355469 122.367188 87.265625 Z M 88.640625 91.726562 C 88.628906 90.785156 88.035156 90.4375 87.328125 90.4375 C 86.382812 90.4375 79.015625 91.726562 79.015625 91.726562 C 79.015625 91.726562 86.382812 93.039062 87.328125 93.039062 C 88.035156 93.039062 88.640625 92.683594 88.640625 91.726562 Z M 122.960938 91.726562 C 122.964844 92.683594 123.5625 93.039062 124.265625 93.039062 C 125.214844 93.039062 132.484375 91.726562 132.484375 91.726562 C 132.484375 91.726562 125.210938 90.4375 124.265625 90.4375 C 123.5625 90.433594 122.960938 90.785156 122.960938 91.726562 Z M 89.222656 87.300781 C 89.457031 86.382812 88.972656 85.898438 88.289062 85.714844 C 87.378906 85.472656 79.921875 84.8125 79.921875 84.8125 C 79.921875 84.8125 86.707031 87.984375 87.617188 88.226562 C 88.300781 88.410156 88.976562 88.222656 89.222656 87.300781 Z M 122.371094 96.183594 C 122.128906 97.105469 122.617188 97.605469 123.292969 97.789062 C 124.210938 98.035156 131.570312 98.644531 131.570312 98.644531 C 131.570312 98.644531 124.890625 95.515625 123.964844 95.273438 C 123.289062 95.09375 122.617188 95.265625 122.371094 96.183594 Z M 90.933594 83.171875 C 91.394531 82.351562 91.054688 81.75 90.4375 81.398438 C 89.621094 80.929688 82.59375 78.359375 82.59375 78.359375 C 82.59375 78.359375 88.320312 83.179688 89.140625 83.648438 C 89.753906 84.003906 90.457031 83.996094 90.933594 83.171875 Z M 120.660156 100.332031 C 120.183594 101.160156 120.527344 101.773438 121.140625 102.121094 C 121.957031 102.601562 128.90625 105.09375 128.90625 105.09375 C 128.90625 105.09375 123.253906 100.34375 122.4375 99.867188 C 121.828125 99.515625 121.132812 99.515625 120.660156 100.332031 Z M 93.648438 79.628906 C 94.3125 78.949219 94.140625 78.289062 93.640625 77.789062 C 92.964844 77.121094 86.84375 72.820312 86.84375 72.820312 C 86.84375 72.820312 91.132812 78.960938 91.792969 79.628906 C 92.292969 80.128906 92.976562 80.304688 93.648438 79.628906 Z M 117.929688 103.898438 C 117.253906 104.578125 117.429688 105.253906 117.929688 105.75 C 118.59375 106.421875 124.667969 110.632812 124.667969 110.632812 C 124.667969 110.632812 120.433594 104.582031 119.761719 103.910156 C 119.261719 103.410156 118.59375 103.226562 117.929688 103.898438 Z M 97.207031 76.910156 C 98.011719 76.429688 98.015625 75.746094 97.667969 75.128906 C 97.195312 74.3125 92.394531 68.570312 92.394531 68.570312 C 92.394531 68.570312 94.9375 75.609375 95.410156 76.429688 C 95.761719 77.042969 96.378906 77.390625 97.207031 76.910156 Z M 114.367188 106.640625 C 113.542969 107.117188 113.535156 107.8125 113.882812 108.421875 C 114.359375 109.246094 119.128906 114.882812 119.128906 114.882812 C 119.128906 114.882812 116.609375 107.9375 116.140625 107.117188 C 115.785156 106.511719 115.183594 106.160156 114.367188 106.640625 Z M 101.328125 75.207031 C 102.238281 74.949219 102.417969 74.285156 102.238281 73.601562 C 101.996094 72.6875 98.839844 65.90625 98.839844 65.90625 C 98.839844 65.90625 99.476562 73.359375 99.722656 74.273438 C 99.90625 74.957031 100.40625 75.449219 101.328125 75.207031 Z M 110.214844 108.355469 C 109.292969 108.609375 109.105469 109.277344 109.289062 109.960938 C 109.535156 110.878906 112.679688 117.5625 112.679688 117.5625 C 112.679688 117.5625 112.042969 110.199219 111.800781 109.289062 C 111.621094 108.605469 111.128906 108.109375 110.214844 108.355469 Z M 110.214844 108.355469 "/>
<path style=" stroke:none;fill-rule:nonzero;fill:rgb(100%,80%,30.196078%);fill-opacity:1;" d="M 121.367188 131.359375 L 121.160156 131.449219 L 120.933594 131.484375 L 120.761719 131.515625 L 120.445312 131.449219 L 120.304688 131.394531 L 120.179688 131.332031 L 120.027344 131.238281 L 119.777344 131.0625 L 119.550781 130.878906 L 119.421875 130.789062 L 119.261719 130.722656 L 119.148438 130.695312 L 118.988281 130.695312 L 118.359375 132 L 118.234375 132.183594 L 118.109375 132.332031 L 117.984375 132.429688 L 117.871094 132.523438 L 117.710938 132.582031 L 117.5625 132.582031 L 117.421875 132.523438 L 117.226562 132.429688 L 117.171875 132.332031 L 117.105469 132.238281 L 117.039062 132.117188 L 116.972656 131.972656 L 116.882812 131.511719 L 116.699219 131.660156 L 116.527344 131.878906 L 116.183594 132.398438 L 115.976562 132.671875 L 115.761719 132.882812 L 115.644531 133.011719 L 115.496094 133.105469 L 115.34375 133.171875 L 115.160156 133.226562 L 115.070312 133.226562 L 114.910156 133.261719 L 114.761719 133.226562 L 114.644531 133.171875 L 114.289062 132.746094 L 113.890625 132.316406 L 113.617188 132.746094 L 113.300781 133.105469 L 113.148438 133.253906 L 113.011719 133.40625 L 112.859375 133.527344 L 112.578125 133.683594 L 112.429688 133.714844 L 112.277344 133.714844 L 112.148438 133.683594 L 112.027344 133.617188 L 111.9375 133.523438 L 111.820312 133.378906 C 111.746094 133.148438 111.660156 132.929688 111.570312 132.707031 L 111.539062 132.550781 L 111.484375 132.433594 L 111.417969 132.371094 L 111.351562 132.371094 L 110.527344 133.714844 L 110.410156 133.832031 L 110.195312 133.929688 L 109.714844 134.042969 L 109.433594 134.042969 L 109.214844 133.984375 L 109.148438 133.949219 L 109.0625 133.855469 L 109.039062 133.800781 L 109.039062 133.679688 L 109.148438 132.332031 L 109.0625 132.367188 L 108.820312 132.484375 C 108.605469 132.710938 108.390625 132.945312 108.183594 133.183594 L 107.910156 133.523438 L 107.570312 133.804688 L 107.253906 134.042969 L 107.078125 134.144531 L 106.710938 134.199219 L 106.5625 134.167969 L 106.496094 134.144531 L 106.433594 134.078125 L 106.398438 133.984375 L 106.398438 133.890625 L 106.433594 133.5 L 106.527344 132.882812 L 106.464844 132.523438 L 106.339844 132.3125 L 106.15625 132.582031 L 105.855469 132.976562 C 105.605469 133.25 105.351562 133.515625 105.089844 133.777344 C 104.945312 133.871094 104.800781 133.976562 104.660156 134.082031 L 104.328125 134.199219 L 104.261719 134.167969 L 104.167969 134.167969 L 104.101562 134.109375 L 104.078125 134.078125 L 104.011719 133.984375 L 103.988281 133.890625 L 103.988281 133.773438 L 103.957031 133.617188 L 103.988281 132.460938 C 103.433594 132.839844 102.871094 133.207031 102.304688 133.554688 L 102.09375 133.648438 L 101.855469 133.773438 C 101.628906 133.828125 101.40625 133.882812 101.183594 133.949219 L 100.960938 133.949219 L 100.753906 133.921875 L 100.566406 133.855469 L 100.660156 133.609375 L 100.84375 133.183594 L 100.960938 133.003906 L 101.09375 132.820312 L 101.210938 132.640625 L 101.523438 132.332031 L 101.859375 132.09375 L 102.25 131.84375 L 102.648438 131.660156 L 103.109375 131.511719 L 103.566406 131.394531 L 104.605469 131.210938 L 105.121094 131.144531 C 106.65625 131.054688 108.195312 131.042969 109.726562 131.054688 L 111.410156 130.960938 L 111.933594 130.898438 L 112.898438 130.714844 L 113.367188 130.589844 L 113.800781 130.410156 L 114.199219 130.226562 C 114.410156 130.0625 114.628906 129.894531 114.851562 129.738281 L 115.144531 129.394531 L 114.828125 128.789062 L 115.078125 128.753906 L 115.316406 128.699219 L 115.566406 128.578125 L 115.773438 128.421875 L 115.859375 128.367188 L 115.960938 128.273438 L 116.027344 128.148438 L 116.09375 128.0625 L 116.117188 127.9375 L 116.117188 127.726562 L 116.050781 127.605469 L 116.570312 127.511719 L 117.128906 127.449219 L 117.710938 127.417969 L 118.316406 127.417969 C 119.167969 127.449219 120.011719 127.5 120.855469 127.566406 C 122.132812 127.722656 123.417969 127.84375 124.699219 127.964844 L 125.851562 128.027344 L 125.851562 128.449219 L 125.828125 128.640625 L 125.761719 128.816406 L 125.707031 129 L 125.640625 129.148438 L 125.550781 129.273438 C 125.445312 129.394531 125.328125 129.515625 125.210938 129.632812 L 124.9375 129.8125 L 124.644531 129.933594 L 124.351562 130 L 124.011719 130.0625 L 123.359375 130 L 123.023438 129.90625 L 122.726562 129.75 L 122.410156 129.601562 L 122.171875 129.382812 L 121.933594 129.144531 L 121.933594 129.667969 C 121.890625 130.003906 121.832031 130.339844 121.785156 130.679688 L 121.667969 130.996094 L 121.601562 131.121094 L 121.511719 131.210938 L 121.445312 131.304688 L 121.367188 131.359375 M 96.820312 128.488281 L 97.515625 128.792969 C 97.65625 128.679688 97.800781 128.566406 97.945312 128.460938 L 98.214844 128.316406 L 98.460938 128.160156 L 99.378906 127.792969 L 100.167969 127.429688 L 100.566406 127.277344 L 101.246094 126.917969 L 101.515625 126.726562 C 102.207031 126.277344 102.898438 125.832031 103.59375 125.394531 L 104.199219 124.964844 L 104.660156 124.601562 C 105.117188 124.1875 105.5625 123.773438 106.003906 123.351562 L 106.1875 123.226562 L 106.398438 123.105469 C 106.65625 122.976562 106.90625 122.855469 107.167969 122.738281 L 107.683594 122.5625 C 108.714844 122.277344 109.765625 122.054688 110.820312 121.890625 C 111.898438 121.761719 112.976562 121.617188 114.054688 121.496094 L 115.488281 121.25 C 115.84375 121.148438 116.199219 121.0625 116.5625 120.976562 L 116.929688 120.515625 L 117.515625 119.878906 L 117.917969 119.484375 L 118.359375 119.109375 L 118.882812 118.714844 L 119.488281 118.316406 L 120.410156 117.773438 C 121.070312 117.4375 121.726562 117.105469 122.382812 116.761719 C 123.550781 116.214844 124.699219 115.640625 125.84375 115.050781 L 126.390625 114.683594 L 126.539062 114.222656 L 126.753906 113.773438 L 127.027344 113.3125 L 127.734375 112.367188 C 128.054688 112.023438 128.367188 111.679688 128.679688 111.320312 C 129.054688 110.957031 129.445312 110.601562 129.839844 110.253906 L 130.429688 109.773438 L 130.722656 109.554688 L 131.039062 109.34375 C 131.261719 109.214844 131.484375 109.09375 131.710938 108.976562 L 132.050781 108.820312 L 132.378906 108.707031 L 133.09375 108.515625 L 133.449219 108.496094 L 133.789062 108.460938 L 134.144531 108.496094 L 134.484375 108.550781 L 134.460938 108.917969 L 134.371094 109.277344 L 134.101562 110.042969 L 133.871094 110.4375 L 133.601562 110.839844 L 133.265625 111.261719 L 132.867188 111.6875 L 133.183594 111.65625 L 133.457031 111.59375 L 133.671875 111.527344 L 133.878906 111.4375 L 134.277344 111.316406 L 134.851562 111.253906 L 134.882812 111.472656 L 134.882812 111.683594 L 134.851562 111.894531 L 134.792969 112.078125 L 134.707031 112.261719 L 134.578125 112.445312 L 134.460938 112.589844 L 134.3125 112.746094 C 133.890625 113.148438 133.464844 113.542969 133.027344 113.933594 L 133.390625 113.964844 C 133.65625 114.050781 133.921875 114.132812 134.195312 114.207031 L 134.488281 114.273438 L 134.132812 114.550781 C 133.851562 114.738281 133.566406 114.921875 133.277344 115.101562 L 132.300781 115.648438 L 131.8125 115.957031 L 131.320312 116.292969 L 130.867188 116.660156 L 131.070312 116.6875 L 131.355469 116.8125 L 131.476562 116.84375 L 131.59375 116.90625 L 131.695312 116.933594 L 131.785156 116.90625 L 131.179688 117.246094 C 130.800781 117.421875 130.421875 117.605469 130.050781 117.792969 L 129.582031 118.070312 L 129.496094 118.167969 L 129.4375 118.261719 L 129.371094 118.351562 L 129.394531 118.472656 L 129.460938 118.566406 L 129.578125 118.65625 L 129.6875 118.753906 L 129.644531 118.871094 L 129.578125 118.972656 L 129.460938 119.0625 L 129.351562 119.15625 L 129.054688 119.300781 L 128.699219 119.457031 L 128.003906 119.699219 L 127.570312 119.917969 L 128.179688 120.523438 L 127.960938 120.734375 L 127.753906 120.890625 L 127.570312 120.984375 L 127.355469 121.070312 L 126.933594 121.132812 L 126.332031 121.132812 L 126.398438 121.410156 L 126.488281 121.683594 L 126.617188 122.300781 C 126.238281 122.59375 125.851562 122.878906 125.457031 123.148438 L 124.75 123.605469 L 123.964844 124.0625 L 123.5 124.277344 L 123.042969 124.488281 C 122.527344 124.6875 122.011719 124.871094 121.484375 125.039062 L 120.300781 125.289062 L 119.648438 125.382812 C 120.355469 125.40625 121.0625 125.417969 121.765625 125.410156 L 123.5 125.226562 L 124.261719 125.078125 L 124.933594 124.894531 C 125.378906 124.746094 125.8125 124.578125 126.246094 124.40625 L 127.089844 124.015625 L 127.921875 123.554688 L 128.707031 123.0625 L 129.539062 122.578125 L 129.039062 122.332031 L 128.5625 122.183594 L 128.332031 122.078125 C 128.160156 121.996094 127.988281 121.910156 127.8125 121.839844 L 127.527344 121.683594 L 127.765625 121.503906 L 128.0625 121.382812 L 128.378906 121.265625 C 128.746094 121.179688 129.117188 121.09375 129.484375 121.015625 C 129.960938 120.964844 130.4375 120.90625 130.917969 120.839844 L 131.523438 120.777344 L 131.988281 120.660156 L 132.109375 120.59375 L 132.199219 120.5 L 132.179688 120.464844 L 132.109375 120.40625 L 132.023438 120.371094 L 131.90625 120.316406 L 131.566406 120.25 L 131.132812 120.1875 L 130.710938 120.15625 L 130.289062 120.09375 L 129.910156 120 L 129.683594 119.90625 L 132.667969 119.238281 L 133.1875 119.082031 C 133.417969 119 133.640625 118.90625 133.859375 118.8125 L 134.15625 118.621094 L 134.285156 118.503906 L 134.25 118.476562 L 134.195312 118.410156 L 133.910156 118.351562 L 133.523438 118.316406 L 133.054688 118.316406 C 132.738281 118.292969 132.429688 118.273438 132.109375 118.261719 L 131.722656 118.195312 L 131.472656 118.132812 L 131.90625 117.957031 C 132.550781 117.753906 133.207031 117.570312 133.859375 117.398438 C 134.234375 117.273438 134.609375 117.144531 134.988281 117.035156 L 135.566406 116.789062 L 135.839844 116.640625 L 136.089844 116.488281 L 136.179688 116.394531 L 136.273438 116.273438 L 136.359375 116.183594 L 136.394531 116.089844 L 136.359375 115.996094 L 136.273438 115.929688 L 136.179688 115.90625 L 135.332031 115.90625 L 134.933594 115.929688 L 134.390625 115.929688 L 134.226562 115.90625 L 134.121094 115.839844 L 133.988281 115.777344 C 135.101562 115.042969 136.222656 114.316406 137.351562 113.605469 L 138.226562 112.996094 C 138.464844 112.800781 138.695312 112.59375 138.921875 112.390625 L 139.195312 112.082031 L 139.445312 111.777344 L 139.628906 111.445312 L 139.777344 111.109375 L 139.867188 110.738281 L 139.867188 110.34375 L 139.660156 110.34375 L 139.445312 110.378906 L 138.964844 110.554688 C 138.542969 110.820312 138.109375 111.078125 137.679688 111.320312 L 137.4375 111.476562 L 137.15625 111.59375 L 136.882812 111.6875 L 136.632812 111.75 L 136.394531 111.785156 L 136.109375 111.785156 L 135.871094 111.6875 L 136.609375 111.140625 C 137.207031 110.632812 137.792969 110.121094 138.378906 109.609375 C 139.023438 108.996094 139.648438 108.367188 140.265625 107.714844 L 141.144531 106.738281 C 141.40625 106.394531 141.671875 106.0625 141.945312 105.726562 C 142.160156 105.417969 142.378906 105.101562 142.582031 104.785156 L 142.648438 104.667969 L 142.671875 104.570312 L 142.648438 104.445312 L 142.617188 104.355469 L 142.582031 104.253906 L 142.496094 104.195312 L 142.398438 104.101562 L 142.3125 104.066406 L 142.195312 104.011719 L 142.0625 103.976562 L 141.820312 103.976562 L 141.707031 104.011719 L 141.542969 104.035156 L 141.457031 104.132812 L 141.328125 104.226562 C 140.707031 104.851562 140.089844 105.484375 139.484375 106.121094 L 138.746094 106.820312 C 138.261719 107.246094 137.773438 107.660156 137.277344 108.078125 C 137.042969 108.234375 136.8125 108.390625 136.570312 108.535156 L 135.898438 108.871094 L 136.105469 108.6875 C 136.328125 108.476562 136.542969 108.265625 136.753906 108.050781 C 137.539062 107.148438 138.289062 106.214844 139.011719 105.273438 L 140.421875 103.289062 L 140.800781 102.621094 L 141.179688 102.011719 L 141.484375 101.457031 L 141.722656 100.933594 L 141.871094 100.511719 L 141.90625 100.359375 L 141.90625 100.117188 L 141.871094 100.023438 L 141.761719 99.839844 L 141.695312 99.777344 L 141.59375 99.75 L 141.421875 99.648438 L 141.195312 99.589844 L 140.777344 99.589844 L 140.660156 99.621094 L 140.570312 99.648438 L 140.445312 99.714844 L 140.355469 99.804688 L 140.105469 100.023438 C 139.832031 100.351562 139.566406 100.6875 139.3125 101.035156 C 138.699219 101.988281 138.054688 102.921875 137.390625 103.839844 L 136.617188 104.753906 L 136.226562 105.15625 L 135.804688 105.523438 L 136.351562 104.503906 L 137.207031 102.710938 L 137.761719 101.398438 L 138 100.726562 L 138.421875 99.351562 C 138.527344 98.90625 138.621094 98.460938 138.707031 98.011719 C 138.746094 97.59375 138.777344 97.179688 138.804688 96.753906 L 138.761719 96.449219 L 138.738281 96.179688 L 138.707031 95.894531 L 138.617188 95.539062 L 138.550781 95.4375 L 138.398438 95.289062 L 138.195312 95.199219 L 137.964844 95.132812 L 137.761719 95.132812 L 137.566406 95.167969 L 137.511719 95.199219 L 137.421875 95.222656 L 137.390625 95.289062 C 136.839844 97.023438 136.421875 98.789062 135.945312 100.539062 C 135.765625 101.027344 135.589844 101.515625 135.398438 102.003906 L 134.945312 102.890625 L 134.660156 103.285156 L 134.84375 102.40625 C 134.933594 101.894531 135.011719 101.390625 135.082031 100.878906 L 135.210938 99.621094 L 135.246094 99.101562 C 135.226562 98.832031 135.207031 98.570312 135.179688 98.304688 L 135.121094 98 L 135.035156 97.753906 L 134.90625 97.570312 L 134.839844 97.511719 L 134.65625 97.449219 L 134.566406 97.417969 L 134.464844 97.417969 L 134.378906 97.449219 L 134.128906 97.511719 L 133.890625 97.632812 C 133.699219 98.578125 133.472656 99.515625 133.214844 100.445312 C 132.855469 101.617188 132.421875 102.765625 131.9375 103.890625 C 131.609375 104.578125 131.261719 105.261719 130.894531 105.933594 L 130.222656 107.09375 L 129.496094 108.1875 C 129.003906 108.871094 128.5 109.542969 127.976562 110.199219 C 127.464844 110.777344 126.945312 111.34375 126.417969 111.910156 C 125.867188 112.449219 125.304688 112.984375 124.734375 113.503906 C 124.144531 113.996094 123.550781 114.464844 122.945312 114.933594 C 122.207031 115.464844 121.449219 115.976562 120.679688 116.460938 L 119.332031 117.25 L 117.195312 118.234375 L 114.996094 119.023438 L 113.171875 119.578125 L 111.285156 120 L 110.339844 120.15625 L 108.40625 120.398438 L 107.429688 120.460938 L 107.332031 120.496094 L 107.238281 120.523438 L 107.054688 120.621094 L 106.851562 120.765625 C 106.609375 120.972656 106.378906 121.1875 106.144531 121.40625 L 105.65625 121.898438 L 103.882812 123.878906 L 103.210938 124.550781 L 102.421875 125.15625 L 102.109375 125.367188 L 101.804688 125.554688 L 101.140625 125.859375 C 100.105469 126.285156 99.054688 126.667969 98.015625 127.082031 L 97.746094 127.234375 L 97.5 127.359375 L 97.320312 127.476562 L 96.984375 127.816406 L 96.890625 127.964844 L 96.820312 128.117188 L 96.800781 128.332031 L 96.800781 128.488281 "/>
<path style=" stroke:none;fill-rule:nonzero;fill:rgb(100%,80%,30.196078%);fill-opacity:1;" d="M 108.003906 129.859375 L 108.515625 129.929688 L 108.765625 130.023438 L 108.820312 130.050781 L 108.820312 130.082031 L 108.765625 130.082031 L 108.699219 130.109375 L 108.210938 130.207031 L 107.820312 130.207031 L 106.542969 130.109375 L 103.304688 130.050781 C 102.449219 130.0625 101.59375 130.082031 100.738281 130.109375 C 99.984375 130.167969 99.234375 130.226562 98.476562 130.292969 L 97.894531 130.390625 L 97.378906 130.503906 C 97.253906 130.550781 97.140625 130.59375 97.015625 130.628906 L 96.859375 130.695312 L 96.738281 130.789062 L 96.792969 130.476562 L 96.929688 130.167969 L 96.5 130.289062 L 96.132812 130.472656 L 95.988281 130.566406 L 95.859375 130.6875 L 95.765625 130.832031 L 95.746094 130.988281 L 95.65625 130.777344 L 95.589844 130.589844 C 95.570312 130.457031 95.550781 130.320312 95.523438 130.195312 C 95.554688 130.035156 95.589844 129.871094 95.609375 129.710938 L 95.710938 129.554688 L 95.765625 129.433594 L 95.894531 129.289062 L 96.140625 129.042969 L 96.472656 128.828125 L 96.851562 128.617188 C 97.042969 128.734375 97.261719 128.820312 97.484375 128.890625 C 97.679688 128.917969 97.90625 128.882812 98.132812 128.828125 C 98.472656 129.128906 99.351562 129.066406 99.472656 128.523438 C 99.523438 128.34375 99.515625 128.117188 99.472656 127.910156 L 99.839844 127.882812 L 100.265625 127.816406 L 101.210938 127.570312 L 101.707031 127.476562 L 102.160156 127.359375 L 102.589844 127.300781 L 102.949219 127.265625 L 102.800781 127.394531 L 102.003906 128 L 101.707031 128.210938 L 102.09375 128.3125 L 102.433594 128.371094 L 101.710938 129.195312 L 101.523438 129.4375 L 101.761719 129.535156 L 102.003906 129.601562 L 102.285156 129.660156 L 102.832031 129.660156 L 103.378906 129.539062 L 103.59375 129.410156 L 103.84375 129.539062 L 104.089844 129.632812 C 104.246094 129.679688 104.40625 129.722656 104.566406 129.753906 C 104.945312 129.792969 105.320312 129.839844 105.707031 129.871094 L 108.003906 129.871094 M 105.222656 120.582031 L 104.949219 121.132812 L 104.640625 121.839844 C 104.476562 122.128906 104.328125 122.421875 104.1875 122.714844 L 104.035156 122.871094 L 103.671875 122.566406 L 103.273438 122.289062 L 102.84375 122.070312 L 102.394531 121.894531 L 101.410156 121.644531 L 100.929688 121.554688 C 100.398438 121.496094 99.871094 121.445312 99.339844 121.40625 C 98.632812 121.394531 97.933594 121.359375 97.234375 121.304688 L 96.253906 121.1875 L 95.707031 121.09375 L 95.1875 120.976562 L 94.644531 120.789062 L 94.183594 120.550781 L 93.84375 120.328125 L 93.144531 119.8125 C 92.121094 118.851562 91.109375 117.878906 90.0625 116.9375 L 89.457031 116.515625 L 89.179688 116.394531 L 88.890625 116.304688 L 88.371094 116.1875 C 88.070312 116.082031 87.765625 115.976562 87.460938 115.882812 C 87.179688 115.746094 86.890625 115.617188 86.601562 115.488281 C 86.09375 115.179688 85.609375 114.839844 85.140625 114.476562 L 84.832031 114.195312 L 84.226562 113.589844 L 83.644531 112.949219 C 82.683594 111.777344 81.777344 110.566406 80.839844 109.378906 C 80.390625 108.898438 79.933594 108.433594 79.464844 107.972656 L 79.070312 107.609375 L 78.671875 107.277344 L 77.792969 106.640625 L 77.707031 106.667969 L 77.605469 106.761719 L 77.511719 106.882812 C 77.457031 107.023438 77.410156 107.167969 77.367188 107.3125 L 77.332031 107.433594 L 77.109375 107.332031 L 76.929688 107.238281 L 76.707031 107.144531 L 76.523438 107.082031 L 76.128906 107.082031 L 75.910156 107.144531 L 75.699219 107.238281 C 75.867188 107.449219 76.027344 107.660156 76.183594 107.878906 L 76.457031 108.304688 L 76.949219 109.25 L 77.128906 109.710938 L 77.195312 109.957031 L 77.261719 110.140625 L 77.289062 110.351562 L 77.289062 110.527344 L 75.644531 110.527344 L 75.882812 110.894531 C 76.066406 111.144531 76.261719 111.390625 76.457031 111.628906 L 77.464844 112.640625 L 77.804688 112.910156 L 78.117188 113.128906 C 77.851562 113.15625 77.589844 113.179688 77.320312 113.195312 L 76.523438 113.285156 L 76.792969 113.535156 C 77.035156 113.699219 77.265625 113.871094 77.5 114.050781 L 77.894531 114.320312 L 78.292969 114.566406 L 78.6875 114.785156 L 79.054688 114.90625 L 79.394531 114.996094 L 79.667969 115.054688 L 79.753906 115.089844 L 79.820312 115.15625 L 79.84375 115.183594 L 79.84375 115.300781 L 79.753906 115.550781 L 79.734375 115.726562 L 79.695312 115.851562 L 79.695312 115.9375 L 79.734375 116.09375 L 79.753906 116.214844 L 79.820312 116.273438 L 79.910156 116.339844 L 80.027344 116.398438 L 80.183594 116.433594 L 80.496094 116.554688 L 80.644531 116.609375 L 80.765625 116.707031 L 80.792969 116.738281 L 80.792969 116.800781 L 80.765625 116.832031 L 80.523438 117.011719 L 80.398438 117.132812 L 80.277344 117.285156 L 80.277344 117.410156 L 80.25 117.535156 L 80.3125 117.859375 L 81.378906 118.226562 L 81.621094 118.285156 L 81.867188 118.382812 L 82.050781 118.476562 L 82.207031 118.570312 L 81.195312 119.367188 L 81.464844 119.609375 L 81.804688 119.792969 L 82.234375 120.003906 C 82.539062 120.117188 82.84375 120.214844 83.15625 120.316406 L 83.609375 120.40625 L 84.011719 120.5 L 84.371094 120.5 L 84.035156 120.746094 L 83.605469 121.015625 L 83.148438 121.265625 L 82.8125 121.511719 L 83.117188 121.722656 C 84.042969 122.199219 84.996094 122.644531 85.960938 123.039062 C 87.648438 123.726562 89.378906 124.328125 91.117188 124.867188 C 91.503906 124.960938 91.890625 125.0625 92.273438 125.171875 L 92.761719 125.265625 L 91.777344 125.171875 C 91.167969 125.09375 90.5625 125 89.949219 124.894531 L 89.09375 124.710938 L 87.410156 124.226562 L 86.621094 123.949219 C 84.511719 123.128906 82.449219 122.183594 80.332031 121.382812 L 80.488281 121.292969 L 80.917969 121.140625 L 81.1875 121.078125 C 81.5625 120.964844 81.921875 120.84375 82.289062 120.710938 C 81.5625 120.601562 80.839844 120.472656 80.117188 120.320312 C 79.746094 120.199219 79.367188 120.089844 78.988281 119.984375 L 78.773438 119.890625 L 78.589844 119.792969 L 78.4375 119.695312 L 78.339844 119.605469 L 78.339844 119.578125 L 78.371094 119.542969 L 78.464844 119.511719 L 78.554688 119.449219 L 78.800781 119.355469 L 79.867188 119.042969 L 80.484375 118.832031 C 79.601562 118.667969 78.710938 118.515625 77.820312 118.378906 L 77.394531 118.277344 L 77.054688 118.160156 L 76.933594 118.09375 L 76.816406 118 L 76.714844 117.945312 L 76.65625 117.84375 L 76.75 117.785156 L 77.023438 117.722656 C 77.304688 117.679688 77.59375 117.628906 77.878906 117.570312 L 78.367188 117.511719 C 78.644531 117.433594 78.917969 117.351562 79.1875 117.261719 L 79.316406 117.171875 L 79.4375 117.070312 L 78.957031 116.890625 L 78.644531 116.832031 L 78.339844 116.765625 L 76.9375 116.582031 L 76.570312 116.496094 L 76.234375 116.429688 L 75.5625 116.1875 L 75.25 116.035156 L 75 115.855469 L 74.753906 115.640625 L 74.570312 115.367188 L 74.640625 115.332031 L 74.753906 115.300781 L 74.910156 115.300781 L 75.15625 115.332031 L 76.316406 115.394531 L 76.996094 115.460938 L 77.84375 115.460938 L 78.082031 115.429688 L 78.273438 115.367188 L 78.394531 115.300781 C 77.820312 115.066406 77.25 114.820312 76.683594 114.566406 C 76.3125 114.378906 75.933594 114.195312 75.550781 114.015625 L 74.394531 113.410156 L 73.84375 113.070312 C 73.503906 112.832031 73.171875 112.589844 72.839844 112.339844 L 72.410156 111.972656 L 72.222656 111.761719 L 72.035156 111.578125 L 71.917969 111.394531 L 71.789062 111.179688 L 71.667969 111 L 71.601562 110.789062 L 71.550781 110.394531 L 71.753906 110.394531 L 72 110.421875 L 72.246094 110.523438 L 72.488281 110.609375 L 72.972656 110.917969 L 73.523438 111.222656 L 73.765625 111.378906 L 74.039062 111.523438 L 74.3125 111.644531 L 74.554688 111.738281 L 74.828125 111.804688 L 75.070312 111.832031 L 75.351562 111.832031 L 75.589844 111.738281 L 74.867188 111.183594 C 74.265625 110.6875 73.679688 110.179688 73.09375 109.667969 C 72.128906 108.746094 71.199219 107.789062 70.3125 106.789062 L 69.921875 106.273438 L 69.523438 105.785156 C 69.304688 105.472656 69.089844 105.15625 68.878906 104.832031 L 68.820312 104.710938 L 68.820312 104.5 L 68.851562 104.40625 L 68.878906 104.316406 L 68.972656 104.253906 L 69.0625 104.160156 L 69.160156 104.09375 L 69.277344 104.0625 L 69.398438 104.039062 L 69.644531 104.039062 L 69.792969 104.0625 L 69.929688 104.09375 L 70.042969 104.1875 C 70.707031 104.84375 71.355469 105.503906 71.996094 106.179688 C 72.699219 106.855469 73.433594 107.511719 74.195312 108.132812 L 74.894531 108.582031 L 75.253906 108.773438 L 75.59375 108.890625 L 75.355469 108.738281 L 74.714844 108.101562 C 73.933594 107.199219 73.1875 106.265625 72.457031 105.320312 C 72.132812 104.878906 71.816406 104.433594 71.503906 103.976562 C 71.226562 103.535156 70.945312 103.101562 70.648438 102.667969 C 70.417969 102.285156 70.195312 101.898438 69.976562 101.503906 C 69.855469 101.1875 69.722656 100.871094 69.589844 100.5625 L 69.550781 100.410156 L 69.550781 100.160156 L 69.589844 100.070312 L 69.707031 99.890625 L 69.773438 99.820312 L 69.867188 99.765625 L 70.261719 99.640625 L 70.6875 99.640625 L 70.8125 99.667969 L 70.898438 99.699219 L 71.023438 99.765625 L 71.359375 100.070312 L 72.15625 101.082031 C 72.777344 102.039062 73.433594 102.972656 74.109375 103.890625 L 74.832031 104.804688 L 75.234375 105.199219 L 75.660156 105.566406 C 75.179688 104.644531 74.707031 103.710938 74.261719 102.765625 C 74.070312 102.332031 73.890625 101.894531 73.710938 101.457031 L 73.464844 100.785156 C 73.339844 100.320312 73.195312 99.859375 73.039062 99.40625 L 72.890625 98.734375 L 72.777344 98.050781 L 72.710938 97.410156 L 72.683594 96.804688 L 72.710938 96.5 L 72.75 96.222656 L 72.777344 95.945312 L 72.839844 95.671875 L 72.898438 95.570312 L 72.933594 95.484375 L 73.023438 95.382812 L 73.082031 95.328125 L 73.292969 95.234375 L 73.511719 95.179688 L 73.722656 95.179688 L 73.90625 95.210938 L 73.996094 95.234375 L 74.0625 95.265625 L 74.09375 95.332031 L 74.128906 95.421875 C 74.648438 97.128906 75.078125 98.859375 75.527344 100.589844 C 75.707031 101.070312 75.890625 101.550781 76.082031 102.023438 L 76.292969 102.476562 L 76.539062 102.90625 L 76.8125 103.332031 L 76.632812 102.445312 C 76.5625 101.933594 76.484375 101.429688 76.390625 100.929688 C 76.328125 100.339844 76.277344 99.746094 76.238281 99.15625 L 76.300781 98.359375 L 76.359375 98.050781 L 76.457031 97.8125 L 76.578125 97.628906 L 76.640625 97.5625 L 76.726562 97.5 L 76.816406 97.472656 L 77.09375 97.472656 L 77.34375 97.5625 L 77.582031 97.683594 L 78.011719 99.605469 C 78.167969 100.1875 78.339844 100.773438 78.527344 101.34375 C 78.839844 102.214844 79.179688 103.082031 79.539062 103.9375 L 79.964844 104.820312 L 80.578125 105.988281 L 81.246094 107.144531 L 81.984375 108.246094 L 82.773438 109.339844 L 83.511719 110.253906 C 84.023438 110.832031 84.539062 111.40625 85.066406 111.964844 C 85.617188 112.503906 86.179688 113.035156 86.75 113.550781 L 87.632812 114.289062 C 88.445312 114.921875 89.277344 115.523438 90.140625 116.089844 C 90.8125 116.488281 91.496094 116.878906 92.183594 117.25 L 94.285156 118.261719 C 95.351562 118.683594 96.429688 119.070312 97.515625 119.417969 C 98.582031 119.699219 99.667969 119.945312 100.753906 120.148438 C 102.214844 120.382812 103.714844 120.523438 105.222656 120.582031 "/>
<path style=" stroke:none;fill-rule:nonzero;fill:rgb(100%,80%,30.196078%);fill-opacity:1;" d="M 19.207031 158.457031 C 19.207031 158.457031 17.890625 159.550781 17.445312 159 C 16.726562 158.109375 19.648438 153.671875 19.648438 152.105469 C 19.648438 149.542969 17.933594 148.832031 15.820312 148.472656 C 14.398438 148.226562 12.09375 148.578125 12.09375 148.578125 C 12.527344 149.160156 12.8125 149.34375 13.542969 149.378906 C 12.726562 149.8125 11.898438 150.726562 11.898438 152.160156 C 11.898438 154.359375 12.8125 155.273438 12.8125 157.765625 C 12.8125 159.148438 11.679688 160.90625 11.679688 160.90625 C 13.679688 160.707031 14.679688 158.855469 14.109375 157.367188 C 14.433594 157.320312 14.714844 157.390625 14.964844 157.628906 C 15.109375 157.222656 14.882812 156.738281 14.570312 156.332031 C 14.820312 156.207031 15.003906 156.285156 15.398438 156.359375 C 15.359375 155.9375 15.105469 155.496094 14.488281 155.070312 C 16.289062 155.535156 17.394531 154.285156 17.394531 152.972656 C 17.394531 151.972656 16.699219 151.261719 16.015625 151.261719 C 15.792969 151.261719 15.472656 151.355469 15.289062 151.488281 C 15.160156 151.222656 15.226562 150.855469 15.355469 150.582031 C 14.859375 150.710938 14.542969 151.003906 14.773438 151.628906 C 14.390625 151.65625 14.082031 151.789062 13.878906 152.039062 C 14.089844 152.300781 14.40625 152.457031 14.773438 152.4375 C 14.496094 153.015625 14.804688 153.34375 15.253906 153.601562 C 15.253906 153.601562 14.964844 152.4375 15.707031 152.4375 C 16.039062 152.4375 16.339844 152.554688 16.339844 153.039062 C 16.339844 153.457031 15.964844 154.042969 15.109375 154.011719 C 14.25 153.972656 13.554688 153.417969 13.554688 152.054688 C 13.554688 150.785156 14.570312 150.15625 15.910156 150.117188 C 17.121094 150.078125 18.035156 150.734375 18.035156 151.984375 C 18.035156 153.640625 15.632812 157.429688 15.632812 158.90625 C 15.632812 160.015625 16.628906 160.632812 17.605469 160.632812 C 18.871094 160.632812 19.9375 159.378906 19.9375 159.378906 Z M 18.929688 128.445312 C 18.929688 125.679688 21.417969 124.25 23.371094 124.25 C 26.003906 124.25 27.410156 125.828125 27.410156 127.882812 C 27.410156 129.0625 27.195312 129.792969 26.65625 130.910156 L 20.617188 143.449219 C 20.40625 143.890625 20.332031 144.390625 20.332031 145.117188 C 20.332031 146.238281 21.429688 147.160156 22.570312 147.1875 C 23.609375 147.214844 24.75 146.214844 24.75 145.078125 C 24.75 143.695312 24.039062 143.082031 23.300781 143.082031 C 22.394531 143.082031 22.035156 143.449219 22.035156 144.089844 C 22.035156 144.539062 22.25 144.726562 22.554688 144.726562 C 23.332031 144.726562 23.117188 143.683594 23.117188 143.683594 C 23.5 143.773438 23.8125 144.160156 23.640625 144.660156 C 23.921875 144.722656 24.183594 144.867188 24.390625 145.101562 C 24.183594 145.304688 23.9375 145.460938 23.640625 145.511719 C 23.820312 146.109375 23.578125 146.40625 23.054688 146.535156 C 23.160156 146.292969 23.160156 146.089844 23.128906 145.890625 C 22.300781 146.121094 21.035156 145.753906 21.035156 144.320312 C 21.035156 142.898438 22.015625 141.707031 23.867188 142 C 23.421875 141.800781 23.207031 141.371094 23.160156 140.882812 C 23.496094 141.023438 23.867188 141.039062 23.867188 141.039062 C 23.648438 140.660156 23.351562 140.332031 23.359375 139.578125 C 23.707031 139.738281 24.023438 140.023438 24.460938 139.839844 C 23.773438 138.488281 24.617188 136.632812 26.773438 136.183594 C 25.984375 137.101562 25.601562 138.101562 25.601562 139.09375 C 25.601562 142.316406 26.5 142.851562 26.5 145.082031 C 26.5 146.015625 26.015625 147.035156 25.066406 147.714844 L 25.066406 147.679688 C 25.6875 147.84375 26.09375 148.160156 26.328125 148.578125 C 24.890625 148.984375 22.792969 148.976562 21.679688 148.539062 C 20.382812 148.394531 19.484375 147.398438 19.214844 146.898438 C 18.949219 146.390625 18.433594 144.578125 19.214844 142.933594 C 20.070312 141.148438 24.105469 132.601562 25.359375 129.90625 C 25.628906 129.339844 25.789062 128.726562 25.789062 128.070312 C 25.789062 126.433594 24.285156 125.855469 23.429688 125.855469 C 22.398438 125.855469 21.355469 126.644531 21.355469 127.609375 C 21.355469 128.234375 21.695312 128.601562 22.171875 128.601562 C 23.332031 128.601562 23.261719 127.617188 23.027344 126.996094 C 23.746094 127.328125 24.167969 127.894531 24.050781 128.503906 C 24.460938 128.5625 24.851562 128.753906 25.207031 129.15625 C 24.921875 129.523438 24.578125 129.789062 24.050781 129.792969 C 24.285156 130.738281 23.648438 131.140625 23.027344 131.355469 C 23.222656 130.667969 23.351562 129.859375 22.171875 129.859375 C 21.3125 129.859375 20.632812 129.710938 20.238281 129.148438 C 20.210938 129.898438 20.140625 132.84375 20.140625 132.84375 C 20.09375 133.957031 21.621094 133.921875 22.59375 133.59375 C 22.222656 134.871094 21.472656 135.566406 19.722656 135.390625 C 20.148438 135.566406 20.601562 135.964844 20.601562 136.726562 C 20.601562 137.773438 19.753906 138.921875 19.207031 139.265625 Z M 18.929688 128.445312 "/>
<path style=" stroke:none;fill-rule:nonzero;fill:rgb(100%,80%,30.196078%);fill-opacity:1;" d="M 19.476562 128.445312 C 19.476562 125.679688 16.988281 124.25 15.035156 124.25 C 12.398438 124.25 10.996094 125.828125 10.996094 127.882812 C 10.996094 129.0625 11.210938 129.792969 11.75 130.910156 L 17.789062 143.449219 C 18 143.890625 18.066406 144.390625 18.066406 145.117188 C 18.066406 146.238281 16.972656 147.160156 15.832031 147.1875 C 14.789062 147.214844 13.65625 146.214844 13.65625 145.078125 C 13.65625 143.695312 14.367188 143.082031 15.105469 143.082031 C 16.011719 143.082031 16.371094 143.449219 16.371094 144.089844 C 16.371094 144.539062 16.15625 144.726562 15.851562 144.726562 C 15.070312 144.726562 15.289062 143.683594 15.289062 143.683594 C 14.90625 143.773438 14.589844 144.160156 14.765625 144.660156 C 14.484375 144.722656 14.222656 144.867188 14.015625 145.101562 C 14.222656 145.304688 14.464844 145.460938 14.765625 145.511719 C 14.589844 146.109375 14.832031 146.40625 15.355469 146.527344 C 15.25 146.289062 15.25 146.082031 15.285156 145.882812 C 16.109375 146.117188 17.378906 145.75 17.378906 144.316406 C 17.378906 142.894531 16.394531 141.699219 14.550781 141.996094 C 14.988281 141.792969 15.210938 141.367188 15.25 140.878906 C 14.917969 141.015625 14.550781 141.035156 14.550781 141.035156 C 14.761719 140.65625 15.0625 140.328125 15.050781 139.570312 C 14.707031 139.734375 14.394531 140.015625 13.949219 139.832031 C 14.640625 138.484375 13.792969 136.628906 11.640625 136.179688 C 12.429688 137.09375 12.8125 138.09375 12.8125 139.089844 C 12.8125 142.3125 11.917969 142.84375 11.917969 145.078125 C 11.917969 146.011719 12.398438 147.027344 13.351562 147.710938 L 13.351562 147.671875 C 12.722656 147.839844 12.316406 148.15625 12.089844 148.570312 C 13.527344 148.976562 15.617188 148.972656 16.738281 148.535156 C 18.035156 148.390625 18.933594 147.394531 19.199219 146.894531 C 19.464844 146.382812 19.984375 144.570312 19.199219 142.929688 C 18.34375 141.144531 14.3125 132.59375 13.054688 129.898438 C 12.789062 129.332031 12.628906 128.722656 12.628906 128.066406 C 12.628906 126.429688 14.132812 125.851562 14.988281 125.851562 C 16.015625 125.851562 17.0625 126.640625 17.0625 127.605469 C 17.0625 128.226562 16.722656 128.59375 16.246094 128.59375 C 15.082031 128.59375 15.15625 127.609375 15.382812 126.988281 C 14.667969 127.320312 14.246094 127.890625 14.359375 128.5 C 13.957031 128.554688 13.566406 128.75 13.207031 129.148438 C 13.488281 129.515625 13.832031 129.785156 14.359375 129.789062 C 14.128906 130.734375 14.761719 131.132812 15.382812 131.351562 C 15.1875 130.660156 15.0625 129.855469 16.246094 129.855469 C 17.105469 129.855469 17.785156 129.707031 18.179688 129.144531 L 18.277344 132.839844 C 18.320312 133.949219 16.789062 133.917969 15.816406 133.589844 C 16.183594 134.859375 16.9375 135.554688 18.683594 135.378906 C 18.253906 135.554688 17.804688 135.957031 17.804688 136.714844 C 17.804688 137.761719 18.644531 138.910156 19.199219 139.253906 Z M 19.207031 158.457031 C 19.207031 158.457031 20.523438 159.550781 20.964844 159 C 21.683594 158.109375 18.761719 153.671875 18.761719 152.105469 C 18.761719 149.542969 20.476562 148.832031 22.589844 148.472656 C 24.011719 148.226562 26.320312 148.578125 26.320312 148.578125 C 25.882812 149.160156 25.605469 149.34375 24.871094 149.378906 C 25.683594 149.8125 26.515625 150.726562 26.515625 152.160156 C 26.515625 154.359375 25.605469 155.273438 25.605469 157.765625 C 25.605469 159.148438 26.738281 160.90625 26.738281 160.90625 C 24.738281 160.707031 23.738281 158.855469 24.304688 157.367188 C 23.988281 157.320312 23.707031 157.390625 23.449219 157.628906 C 23.304688 157.222656 23.539062 156.738281 23.84375 156.332031 C 23.59375 156.207031 23.410156 156.285156 23.015625 156.359375 C 23.054688 155.9375 23.304688 155.496094 23.929688 155.070312 C 22.128906 155.535156 21.023438 154.285156 21.023438 152.972656 C 21.023438 151.972656 21.714844 151.261719 22.398438 151.261719 C 22.621094 151.261719 22.945312 151.355469 23.128906 151.488281 C 23.253906 151.222656 23.1875 150.855469 23.054688 150.582031 C 23.554688 150.710938 23.867188 151.003906 23.644531 151.628906 C 24.027344 151.65625 24.328125 151.789062 24.539062 152.039062 C 24.328125 152.300781 24.011719 152.457031 23.644531 152.4375 C 23.921875 153.015625 23.609375 153.34375 23.160156 153.601562 C 23.160156 153.601562 23.449219 152.4375 22.710938 152.4375 C 22.378906 152.4375 22.078125 152.554688 22.078125 153.039062 C 22.078125 153.457031 22.449219 154.042969 23.304688 154.011719 C 24.160156 153.972656 24.855469 153.417969 24.855469 152.054688 C 24.855469 150.785156 23.839844 150.15625 22.5 150.117188 C 21.289062 150.078125 20.378906 150.734375 20.378906 151.984375 C 20.378906 153.640625 22.777344 157.429688 22.777344 158.90625 C 22.777344 160.015625 21.785156 160.632812 20.804688 160.632812 C 19.539062 160.632812 18.472656 159.378906 18.472656 159.378906 Z M 18.929688 79.871094 C 18.929688 77.09375 21.417969 75.671875 23.371094 75.671875 C 26.003906 75.671875 27.410156 77.25 27.410156 79.3125 C 27.410156 80.484375 27.195312 81.214844 26.65625 82.332031 L 20.617188 94.878906 C 20.40625 95.316406 20.332031 95.8125 20.332031 96.539062 C 20.332031 97.667969 21.429688 98.582031 22.570312 98.617188 C 23.609375 98.640625 24.75 97.640625 24.75 96.503906 C 24.75 95.128906 24.039062 94.511719 23.300781 94.511719 C 22.394531 94.511719 22.035156 94.882812 22.035156 95.523438 C 22.035156 95.960938 22.25 96.15625 22.554688 96.15625 C 23.332031 96.15625 23.117188 95.109375 23.117188 95.109375 C 23.5 95.195312 23.8125 95.589844 23.640625 96.078125 C 23.921875 96.140625 24.183594 96.289062 24.390625 96.523438 C 24.183594 96.726562 23.9375 96.882812 23.640625 96.9375 C 23.820312 97.539062 23.578125 97.828125 23.054688 97.957031 C 23.160156 97.722656 23.160156 97.511719 23.128906 97.3125 C 22.300781 97.542969 21.035156 97.179688 21.035156 95.746094 C 21.035156 94.328125 22.015625 93.132812 23.867188 93.429688 C 23.421875 93.214844 23.207031 92.789062 23.160156 92.3125 C 23.496094 92.445312 23.867188 92.457031 23.867188 92.457031 C 23.648438 92.078125 23.351562 91.75 23.359375 91 C 23.707031 91.15625 24.023438 91.445312 24.460938 91.261719 C 23.773438 89.90625 24.617188 88.042969 26.773438 87.605469 C 25.984375 88.527344 25.601562 89.527344 25.601562 90.515625 C 25.601562 93.734375 26.5 94.273438 26.5 96.511719 C 26.5 97.445312 26.015625 98.457031 25.066406 99.144531 L 25.066406 99.105469 C 25.679688 99.273438 26.078125 99.578125 26.316406 100 C 24.878906 100.410156 22.785156 100.398438 21.667969 99.960938 C 20.371094 99.8125 19.472656 98.820312 19.207031 98.320312 C 18.9375 97.816406 18.421875 96 19.207031 94.367188 C 20.0625 92.578125 24.09375 84.027344 25.351562 81.332031 C 25.609375 80.761719 25.777344 80.15625 25.777344 79.5 C 25.777344 77.855469 24.273438 77.277344 23.417969 77.277344 C 22.390625 77.277344 21.34375 78.0625 21.34375 79.027344 C 21.34375 79.648438 21.683594 80.023438 22.160156 80.023438 C 23.320312 80.023438 23.25 79.035156 23.015625 78.417969 C 23.734375 78.738281 24.15625 79.316406 24.039062 79.929688 C 24.449219 79.984375 24.839844 80.171875 25.195312 80.582031 C 24.910156 80.9375 24.566406 81.207031 24.039062 81.214844 C 24.273438 82.167969 23.640625 82.566406 23.015625 82.785156 C 23.210938 82.09375 23.339844 81.292969 22.160156 81.292969 C 21.300781 81.292969 20.621094 81.144531 20.226562 80.589844 C 20.199219 81.332031 20.128906 84.285156 20.128906 84.285156 C 20.082031 85.390625 21.609375 85.359375 22.582031 85.027344 C 22.222656 86.304688 21.472656 86.996094 19.722656 86.816406 C 20.148438 86.996094 20.601562 87.394531 20.601562 88.160156 C 20.601562 89.199219 19.753906 90.355469 19.207031 90.695312 Z M 18.929688 79.871094 "/>
<path style=" stroke:none;fill-rule:nonzero;fill:rgb(100%,80%,30.196078%);fill-opacity:1;" d="M 19.476562 79.871094 C 19.476562 77.09375 16.988281 75.671875 15.035156 75.671875 C 12.398438 75.671875 10.996094 77.25 10.996094 79.3125 C 10.996094 80.484375 11.210938 81.214844 11.75 82.332031 L 17.789062 94.878906 C 18 95.316406 18.066406 95.8125 18.066406 96.539062 C 18.066406 97.667969 16.972656 98.582031 15.832031 98.617188 C 14.789062 98.640625 13.65625 97.640625 13.65625 96.503906 C 13.65625 95.128906 14.367188 94.511719 15.105469 94.511719 C 16.011719 94.511719 16.371094 94.882812 16.371094 95.523438 C 16.371094 95.960938 16.15625 96.15625 15.851562 96.15625 C 15.070312 96.15625 15.289062 95.109375 15.289062 95.109375 C 14.90625 95.195312 14.589844 95.589844 14.765625 96.078125 C 14.484375 96.140625 14.222656 96.289062 14.015625 96.523438 C 14.222656 96.726562 14.464844 96.882812 14.765625 96.9375 C 14.589844 97.539062 14.828125 97.828125 15.351562 97.957031 C 15.246094 97.722656 15.246094 97.511719 15.277344 97.3125 C 16.105469 97.542969 17.371094 97.179688 17.371094 95.746094 C 17.371094 94.328125 16.390625 93.132812 14.542969 93.429688 C 14.984375 93.214844 15.207031 92.789062 15.246094 92.3125 C 14.910156 92.445312 14.542969 92.457031 14.542969 92.457031 C 14.753906 92.078125 15.054688 91.75 15.042969 91 C 14.699219 91.15625 14.390625 91.445312 13.945312 91.261719 C 14.632812 89.90625 13.789062 88.042969 11.632812 87.605469 C 12.421875 88.527344 12.804688 89.527344 12.804688 90.515625 C 12.804688 93.734375 11.910156 94.273438 11.910156 96.511719 C 11.910156 97.445312 12.394531 98.457031 13.34375 99.144531 L 13.34375 99.105469 C 12.726562 99.273438 12.320312 99.578125 12.09375 100 C 13.535156 100.410156 15.621094 100.398438 16.746094 99.960938 C 18.039062 99.8125 18.9375 98.820312 19.207031 98.320312 C 19.472656 97.816406 19.988281 96 19.207031 94.367188 C 18.351562 92.578125 14.316406 84.027344 13.0625 81.332031 C 12.792969 80.761719 12.632812 80.160156 12.632812 79.503906 C 12.632812 77.859375 14.140625 77.285156 14.996094 77.285156 C 16.023438 77.285156 17.066406 78.066406 17.066406 79.035156 C 17.066406 79.65625 16.726562 80.027344 16.25 80.027344 C 15.089844 80.027344 15.160156 79.039062 15.390625 78.421875 C 14.671875 78.746094 14.25 79.320312 14.367188 79.933594 C 13.960938 79.988281 13.570312 80.179688 13.210938 80.589844 C 13.496094 80.945312 13.839844 81.210938 14.367188 81.222656 C 14.132812 82.171875 14.765625 82.570312 15.390625 82.789062 C 15.195312 82.101562 15.066406 81.300781 16.25 81.300781 C 17.109375 81.300781 17.789062 81.148438 18.183594 80.59375 L 18.277344 84.277344 C 18.320312 85.382812 16.789062 85.355469 15.816406 85.023438 C 16.183594 86.300781 16.9375 86.988281 18.683594 86.816406 C 18.253906 86.996094 17.804688 87.394531 17.804688 88.160156 C 17.804688 89.199219 18.644531 90.355469 19.199219 90.695312 Z M 19.476562 79.871094 "/>
<path style=" stroke:none;fill-rule:nonzero;fill:rgb(100%,80%,30.196078%);fill-opacity:1;" d="M 19.476562 71.550781 C 19.476562 74.320312 16.988281 75.75 15.035156 75.75 C 12.398438 75.75 10.996094 74.171875 10.996094 72.105469 C 10.996094 70.9375 11.210938 70.207031 11.75 69.082031 L 17.789062 56.539062 C 18 56.101562 18.066406 55.605469 18.066406 54.878906 C 18.066406 53.753906 16.972656 52.832031 15.832031 52.804688 C 14.789062 52.785156 13.65625 53.777344 13.65625 54.917969 C 13.65625 56.300781 14.367188 56.910156 15.105469 56.910156 C 16.011719 56.910156 16.371094 56.539062 16.371094 55.898438 C 16.371094 55.457031 16.15625 55.265625 15.851562 55.265625 C 15.070312 55.265625 15.289062 56.3125 15.289062 56.3125 C 14.90625 56.226562 14.589844 55.832031 14.765625 55.339844 C 14.488281 55.289062 14.226562 55.140625 14.015625 54.898438 C 14.222656 54.699219 14.464844 54.542969 14.765625 54.488281 C 14.589844 53.890625 14.832031 53.601562 15.355469 53.472656 C 15.25 53.707031 15.25 53.917969 15.285156 54.117188 C 16.109375 53.882812 17.378906 54.261719 17.378906 55.683594 C 17.378906 57.101562 16.394531 58.292969 14.550781 58 C 14.988281 58.210938 15.210938 58.640625 15.25 59.117188 C 14.917969 58.988281 14.550781 58.972656 14.550781 58.972656 C 14.761719 59.351562 15.0625 59.679688 15.050781 60.429688 C 14.707031 60.273438 14.394531 59.984375 13.949219 60.167969 C 14.640625 61.523438 13.792969 63.382812 11.640625 63.828125 C 12.429688 62.898438 12.8125 61.90625 12.8125 60.910156 C 12.8125 57.699219 11.917969 57.15625 11.917969 54.921875 C 11.917969 53.988281 12.398438 52.976562 13.351562 52.289062 L 13.351562 52.328125 C 12.726562 52.15625 12.320312 51.84375 12.09375 51.421875 C 13.535156 51.015625 15.621094 51.023438 16.746094 51.464844 C 18.039062 51.617188 18.9375 52.605469 19.207031 53.109375 C 19.472656 53.609375 19.988281 55.429688 19.207031 57.066406 C 18.351562 58.855469 14.316406 67.40625 13.0625 70.09375 C 12.792969 70.660156 12.632812 71.265625 12.632812 71.921875 C 12.632812 73.570312 14.140625 74.144531 14.996094 74.144531 C 16.023438 74.144531 17.066406 73.359375 17.066406 72.390625 C 17.066406 71.773438 16.726562 71.394531 16.25 71.394531 C 15.089844 71.394531 15.160156 72.378906 15.390625 73 C 14.671875 72.679688 14.25 72.101562 14.367188 71.488281 C 13.960938 71.433594 13.570312 71.238281 13.210938 70.832031 C 13.496094 70.476562 13.839844 70.207031 14.367188 70.199219 C 14.132812 69.253906 14.765625 68.851562 15.390625 68.628906 C 15.195312 69.320312 15.066406 70.128906 16.25 70.128906 C 17.109375 70.128906 17.789062 70.273438 18.183594 70.832031 L 18.285156 67.132812 C 18.328125 66.027344 16.792969 66.0625 15.820312 66.390625 C 16.1875 65.109375 16.945312 64.421875 18.6875 64.59375 C 18.261719 64.417969 17.8125 64.015625 17.8125 63.25 C 17.8125 62.210938 18.648438 61.054688 19.207031 60.714844 Z M 19.476562 120.128906 C 19.476562 122.898438 16.988281 124.320312 15.035156 124.320312 C 12.398438 124.320312 10.996094 122.75 10.996094 120.6875 C 10.996094 119.515625 11.210938 118.777344 11.75 117.667969 L 17.789062 105.121094 C 18 104.683594 18.066406 104.1875 18.066406 103.460938 C 18.066406 102.332031 16.972656 101.417969 15.832031 101.390625 C 14.789062 101.359375 13.65625 102.359375 13.65625 103.496094 C 13.65625 104.871094 14.367188 105.488281 15.105469 105.488281 C 16.011719 105.488281 16.371094 105.117188 16.371094 104.476562 C 16.371094 104.039062 16.15625 103.851562 15.851562 103.851562 C 15.070312 103.851562 15.289062 104.894531 15.289062 104.894531 C 14.90625 104.804688 14.589844 104.417969 14.765625 103.921875 C 14.484375 103.867188 14.222656 103.714844 14.015625 103.476562 C 14.222656 103.277344 14.464844 103.117188 14.765625 103.066406 C 14.589844 102.460938 14.828125 102.171875 15.351562 102.042969 C 15.246094 102.277344 15.246094 102.488281 15.277344 102.6875 C 16.105469 102.457031 17.371094 102.828125 17.371094 104.253906 C 17.371094 105.671875 16.390625 106.859375 14.542969 106.570312 C 14.984375 106.789062 15.207031 107.210938 15.246094 107.695312 C 14.910156 107.566406 14.542969 107.542969 14.542969 107.542969 C 14.753906 107.921875 15.054688 108.253906 15.042969 109 C 14.699219 108.84375 14.390625 108.554688 13.945312 108.738281 C 14.632812 110.089844 13.789062 111.960938 11.632812 112.394531 C 12.421875 111.476562 12.804688 110.472656 12.804688 109.484375 C 12.804688 106.277344 11.910156 105.726562 11.910156 103.496094 C 11.910156 102.554688 12.394531 101.542969 13.34375 100.859375 L 13.34375 100.894531 C 12.726562 100.734375 12.320312 100.429688 12.09375 100 C 13.535156 99.59375 15.621094 99.601562 16.746094 100.042969 C 18.039062 100.195312 18.9375 101.183594 19.207031 101.683594 C 19.472656 102.1875 19.988281 104 19.207031 105.640625 C 18.351562 107.429688 14.316406 115.976562 13.0625 118.671875 C 12.792969 119.238281 12.632812 119.839844 12.632812 120.5 C 12.632812 122.144531 14.140625 122.714844 14.996094 122.714844 C 16.023438 122.714844 17.066406 121.933594 17.066406 120.960938 C 17.066406 120.355469 16.726562 119.976562 16.25 119.976562 C 15.089844 119.976562 15.160156 120.960938 15.390625 121.578125 C 14.671875 121.253906 14.25 120.671875 14.367188 120.066406 C 13.960938 120.011719 13.570312 119.828125 13.210938 119.417969 C 13.496094 119.066406 13.839844 118.800781 14.367188 118.777344 C 14.132812 117.832031 14.765625 117.4375 15.390625 117.214844 C 15.195312 117.910156 15.066406 118.710938 16.25 118.710938 C 17.109375 118.710938 17.789062 118.855469 18.183594 119.421875 L 18.285156 115.722656 C 18.328125 114.621094 16.792969 114.648438 15.820312 114.976562 C 16.1875 113.707031 16.945312 113.015625 18.6875 113.1875 C 18.261719 113.011719 17.8125 112.609375 17.8125 111.84375 C 17.8125 110.804688 18.648438 109.65625 19.207031 109.3125 Z M 19.476562 120.128906 "/>
<path style=" stroke:none;fill-rule:nonzero;fill:rgb(100%,80%,30.196078%);fill-opacity:1;" d="M 18.929688 120.128906 C 18.929688 122.898438 21.417969 124.320312 23.371094 124.320312 C 26.003906 124.320312 27.410156 122.75 27.410156 120.6875 C 27.410156 119.515625 27.195312 118.777344 26.65625 117.667969 L 20.617188 105.121094 C 20.40625 104.683594 20.332031 104.1875 20.332031 103.460938 C 20.332031 102.332031 21.429688 101.417969 22.570312 101.390625 C 23.609375 101.359375 24.75 102.359375 24.75 103.496094 C 24.75 104.871094 24.039062 105.488281 23.300781 105.488281 C 22.394531 105.488281 22.035156 105.117188 22.035156 104.476562 C 22.035156 104.039062 22.25 103.851562 22.554688 103.851562 C 23.332031 103.851562 23.117188 104.894531 23.117188 104.894531 C 23.5 104.804688 23.8125 104.417969 23.640625 103.921875 C 23.921875 103.867188 24.183594 103.714844 24.390625 103.476562 C 24.183594 103.277344 23.9375 103.117188 23.640625 103.066406 C 23.820312 102.460938 23.578125 102.171875 23.054688 102.042969 C 23.160156 102.277344 23.160156 102.488281 23.128906 102.6875 C 22.300781 102.457031 21.035156 102.828125 21.035156 104.253906 C 21.035156 105.671875 22.015625 106.859375 23.867188 106.570312 C 23.421875 106.789062 23.207031 107.210938 23.160156 107.695312 C 23.496094 107.566406 23.867188 107.542969 23.867188 107.542969 C 23.648438 107.921875 23.351562 108.253906 23.359375 109 C 23.707031 108.84375 24.023438 108.554688 24.460938 108.738281 C 23.773438 110.089844 24.617188 111.960938 26.773438 112.394531 C 25.984375 111.476562 25.601562 110.472656 25.601562 109.484375 C 25.601562 106.277344 26.5 105.726562 26.5 103.496094 C 26.5 102.554688 26.015625 101.542969 25.066406 100.859375 L 25.066406 100.894531 C 25.6875 100.726562 26.09375 100.421875 26.328125 99.996094 C 24.890625 99.589844 22.792969 99.59375 21.679688 100.039062 C 20.382812 100.1875 19.484375 101.179688 19.214844 101.679688 C 18.949219 102.183594 18.433594 103.996094 19.214844 105.632812 C 20.070312 107.421875 24.105469 115.972656 25.359375 118.667969 C 25.628906 119.234375 25.789062 119.832031 25.789062 120.496094 C 25.789062 122.140625 24.285156 122.710938 23.429688 122.710938 C 22.398438 122.710938 21.355469 121.929688 21.355469 120.957031 C 21.355469 120.351562 21.695312 119.972656 22.171875 119.972656 C 23.332031 119.972656 23.261719 120.957031 23.027344 121.570312 C 23.746094 121.25 24.167969 120.667969 24.050781 120.0625 C 24.460938 120.003906 24.851562 119.820312 25.207031 119.410156 C 24.921875 119.0625 24.578125 118.792969 24.050781 118.773438 C 24.285156 117.828125 23.648438 117.433594 23.027344 117.210938 C 23.222656 117.90625 23.351562 118.707031 22.171875 118.707031 C 21.3125 118.707031 20.632812 118.851562 20.238281 119.417969 C 20.210938 118.671875 20.140625 115.714844 20.140625 115.714844 C 20.09375 114.617188 21.621094 114.644531 22.59375 114.972656 C 22.222656 113.699219 21.472656 113.011719 19.722656 113.183594 C 20.148438 113.003906 20.601562 112.605469 20.601562 111.839844 C 20.601562 110.800781 19.753906 109.648438 19.207031 109.304688 Z M 19.207031 41.550781 C 19.207031 41.550781 20.523438 40.445312 20.964844 40.996094 C 21.683594 41.890625 18.761719 46.328125 18.761719 47.894531 C 18.761719 50.460938 20.476562 51.15625 22.589844 51.523438 C 24.011719 51.773438 26.320312 51.421875 26.320312 51.421875 C 25.878906 50.839844 25.601562 50.667969 24.867188 50.621094 C 25.679688 50.199219 26.511719 49.285156 26.511719 47.851562 C 26.511719 45.640625 25.601562 44.726562 25.601562 42.238281 C 25.601562 40.855469 26.734375 39.09375 26.734375 39.09375 C 24.734375 39.300781 23.734375 41.148438 24.300781 42.632812 C 23.984375 42.683594 23.699219 42.605469 23.449219 42.371094 C 23.304688 42.785156 23.539062 43.261719 23.84375 43.671875 C 23.59375 43.804688 23.410156 43.722656 23.015625 43.640625 C 23.054688 44.066406 23.304688 44.511719 23.929688 44.933594 C 22.121094 44.464844 21.015625 45.722656 21.015625 47.039062 C 21.015625 48.035156 21.710938 48.738281 22.394531 48.738281 C 22.617188 48.738281 22.9375 48.648438 23.121094 48.511719 C 23.25 48.785156 23.183594 49.148438 23.050781 49.421875 C 23.550781 49.292969 23.859375 48.996094 23.640625 48.378906 C 24.023438 48.339844 24.320312 48.210938 24.535156 47.964844 C 24.316406 47.699219 24 47.550781 23.632812 47.5625 C 23.910156 46.984375 23.601562 46.660156 23.148438 46.40625 C 23.148438 46.40625 23.4375 47.5625 22.699219 47.5625 C 22.367188 47.5625 22.066406 47.449219 22.066406 46.964844 C 22.066406 46.542969 22.4375 45.957031 23.292969 45.996094 C 24.148438 46.027344 24.84375 46.582031 24.84375 47.957031 C 24.84375 49.214844 23.828125 49.839844 22.488281 49.882812 C 21.285156 49.917969 20.371094 49.261719 20.371094 48.015625 C 20.371094 46.355469 22.773438 42.578125 22.773438 41.09375 C 22.773438 39.984375 21.777344 39.359375 20.800781 39.359375 C 19.535156 39.359375 18.464844 40.617188 18.464844 40.617188 Z M 19.207031 41.550781 "/>
<path style=" stroke:none;fill-rule:nonzero;fill:rgb(100%,80%,30.196078%);fill-opacity:1;" d="M 19.207031 41.550781 C 19.207031 41.550781 17.890625 40.445312 17.445312 40.996094 C 16.722656 41.894531 19.648438 46.332031 19.648438 47.898438 C 19.648438 50.464844 17.933594 51.160156 15.820312 51.527344 C 14.398438 51.773438 12.09375 51.421875 12.09375 51.421875 C 12.527344 50.839844 12.8125 50.667969 13.542969 50.621094 C 12.726562 50.199219 11.894531 49.285156 11.894531 47.851562 C 11.894531 45.640625 12.804688 44.726562 12.804688 42.238281 C 12.804688 40.855469 11.671875 39.09375 11.671875 39.09375 C 13.671875 39.300781 14.671875 41.148438 14.105469 42.632812 C 14.429688 42.679688 14.710938 42.605469 14.960938 42.371094 C 15.105469 42.785156 14.878906 43.261719 14.566406 43.671875 C 14.8125 43.804688 14.996094 43.722656 15.394531 43.640625 C 15.355469 44.066406 15.101562 44.511719 14.484375 44.933594 C 16.285156 44.464844 17.390625 45.722656 17.390625 47.039062 C 17.390625 48.035156 16.695312 48.738281 16.011719 48.738281 C 15.789062 48.738281 15.464844 48.648438 15.285156 48.511719 C 15.160156 48.789062 15.226562 49.148438 15.355469 49.421875 C 14.859375 49.292969 14.550781 48.996094 14.773438 48.382812 C 14.390625 48.34375 14.082031 48.214844 13.878906 47.972656 C 14.089844 47.707031 14.40625 47.550781 14.773438 47.5625 C 14.496094 46.984375 14.804688 46.660156 15.253906 46.40625 C 15.253906 46.40625 14.964844 47.5625 15.707031 47.5625 C 16.039062 47.5625 16.339844 47.449219 16.339844 46.964844 C 16.339844 46.542969 15.964844 45.957031 15.109375 45.996094 C 14.25 46.027344 13.554688 46.582031 13.554688 47.949219 C 13.554688 49.210938 14.570312 49.832031 15.910156 49.878906 C 17.121094 49.910156 18.035156 49.261719 18.035156 48.011719 C 18.035156 46.351562 15.632812 42.570312 15.632812 41.089844 C 15.632812 39.976562 16.628906 39.355469 17.605469 39.355469 C 18.871094 39.355469 19.9375 40.609375 19.9375 40.609375 Z M 18.929688 71.550781 C 18.929688 74.320312 21.417969 75.75 23.371094 75.75 C 26.003906 75.75 27.410156 74.171875 27.410156 72.105469 C 27.410156 70.9375 27.195312 70.207031 26.65625 69.082031 L 20.617188 56.539062 C 20.410156 56.109375 20.339844 55.609375 20.339844 54.882812 C 20.339844 53.761719 21.433594 52.839844 22.578125 52.8125 C 23.617188 52.789062 24.753906 53.785156 24.753906 54.921875 C 24.753906 56.304688 24.042969 56.917969 23.304688 56.917969 C 22.398438 56.917969 22.039062 56.542969 22.039062 55.90625 C 22.039062 55.460938 22.253906 55.273438 22.5625 55.273438 C 23.339844 55.273438 23.121094 56.316406 23.121094 56.316406 C 23.503906 56.234375 23.816406 55.839844 23.644531 55.34375 C 23.917969 55.289062 24.183594 55.140625 24.390625 54.898438 C 24.183594 54.699219 23.9375 54.542969 23.632812 54.488281 C 23.816406 53.890625 23.570312 53.601562 23.050781 53.472656 C 23.15625 53.707031 23.15625 53.917969 23.121094 54.117188 C 22.292969 53.882812 21.027344 54.253906 21.027344 55.683594 C 21.027344 57.101562 22.011719 58.292969 23.859375 58 C 23.417969 58.210938 23.199219 58.640625 23.15625 59.117188 C 23.488281 58.988281 23.859375 58.972656 23.859375 58.972656 C 23.644531 59.351562 23.34375 59.679688 23.355469 60.429688 C 23.699219 60.273438 24.015625 59.984375 24.457031 60.167969 C 23.765625 61.523438 24.609375 63.382812 26.765625 63.828125 C 25.976562 62.898438 25.59375 61.90625 25.59375 60.910156 C 25.59375 57.699219 26.496094 57.15625 26.496094 54.921875 C 26.496094 53.988281 26.011719 52.976562 25.0625 52.289062 L 25.0625 52.328125 C 25.683594 52.15625 26.089844 51.84375 26.320312 51.421875 C 24.878906 51.023438 22.785156 51.027344 21.660156 51.472656 C 20.371094 51.617188 19.464844 52.605469 19.207031 53.109375 C 18.9375 53.609375 18.421875 55.429688 19.207031 57.066406 C 20.0625 58.855469 24.09375 67.40625 25.351562 70.09375 C 25.609375 70.667969 25.777344 71.273438 25.777344 71.921875 C 25.777344 73.570312 24.273438 74.144531 23.417969 74.144531 C 22.390625 74.144531 21.34375 73.359375 21.34375 72.390625 C 21.34375 71.773438 21.683594 71.394531 22.160156 71.394531 C 23.320312 71.394531 23.25 72.378906 23.015625 73 C 23.734375 72.679688 24.15625 72.101562 24.039062 71.488281 C 24.449219 71.433594 24.839844 71.238281 25.195312 70.832031 C 24.910156 70.476562 24.566406 70.207031 24.039062 70.199219 C 24.273438 69.253906 23.640625 68.851562 23.015625 68.628906 C 23.210938 69.320312 23.339844 70.128906 22.160156 70.128906 C 21.300781 70.128906 20.621094 70.273438 20.226562 70.832031 C 20.199219 70.089844 20.128906 67.132812 20.128906 67.132812 C 20.082031 66.027344 21.609375 66.0625 22.582031 66.390625 C 22.222656 65.121094 21.472656 64.433594 19.722656 64.605469 C 20.148438 64.429688 20.601562 64.027344 20.601562 63.261719 C 20.601562 62.222656 19.753906 61.066406 19.207031 60.726562 Z M 18.929688 71.550781 "/>
</g>
</svg>
