<?xml version="1.0" encoding="UTF-8"?>
<svg xmlns="http://www.w3.org/2000/svg" xmlns:xlink="http://www.w3.org/1999/xlink" width="200px" height="200px" viewBox="0 0 200 200" version="1.1">
<g id="surface1">
<path style=" stroke:none;fill-rule:nonzero;fill:rgb(100%,80%,30.196078%);fill-opacity:1;" d="M 200 150 C 200 162.273438 190.050781 172.222656 177.777344 172.222656 L 22.222656 172.222656 C 9.949219 172.222656 0 162.273438 0 150 L 0 50 C 0 37.726562 9.949219 27.777344 22.222656 27.777344 L 177.777344 27.777344 C 190.050781 27.777344 200 37.726562 200 50 Z M 200 150 "/>
<path style=" stroke:none;fill-rule:nonzero;fill:rgb(86.666667%,18.039216%,26.666667%);fill-opacity:1;" d="M 194.445312 150 C 194.445312 159.207031 186.984375 166.667969 177.777344 166.667969 L 22.222656 166.667969 C 13.015625 166.667969 5.554688 159.207031 5.554688 150 L 5.554688 50 C 5.554688 40.792969 13.015625 33.332031 22.222656 33.332031 L 177.777344 33.332031 C 186.984375 33.332031 194.445312 40.792969 194.445312 50 Z M 194.445312 150 "/>
<path style=" stroke:none;fill-rule:nonzero;fill:rgb(100%,80%,30.196078%);fill-opacity:1;" d="M 127.140625 96.671875 C 130.496094 83.285156 119.617188 71.4375 119.617188 71.4375 L 116.765625 85.332031 L 110.90625 93.054688 L 113.339844 97.382812 L 110.910156 98.726562 L 105.148438 90.746094 L 107.285156 85.917969 L 114.707031 82.089844 L 106.488281 79.371094 L 101.511719 85.167969 L 100 91.570312 L 98.101562 85.167969 L 92.722656 79.371094 L 85.011719 81.128906 L 91.472656 85.4375 L 94.054688 90.746094 L 88.761719 98.984375 L 85.867188 97.378906 L 88.300781 93.050781 L 82.445312 85.328125 L 79.59375 71.433594 C 79.59375 71.433594 68.722656 83.277344 72.070312 96.667969 C 75.429688 110.054688 89.855469 111.929688 89.855469 111.929688 L 80.679688 118.132812 L 75.304688 118.566406 L 74.390625 124.464844 L 79.253906 126.726562 L 83.535156 122.039062 L 94.1875 118.132812 L 88.109375 126.988281 L 100 133.332031 L 111.496094 126.996094 L 105.554688 118.617188 L 105.554688 118.273438 L 115.777344 122.054688 L 120.003906 126.746094 L 124.851562 124.484375 L 123.917969 118.582031 L 118.535156 118.148438 L 109.355469 111.945312 C 109.355469 111.933594 123.785156 110.054688 127.140625 96.671875 Z M 127.140625 96.671875 "/>
<path style=" stroke:none;fill-rule:nonzero;fill:rgb(36.078431%,56.862745%,23.137255%);fill-opacity:1;" d="M 100 108.332031 L 100 115.539062 C 100 115.539062 98.996094 114.035156 95.832031 113.105469 C 91.667969 111.890625 90.972656 108.332031 90.972656 108.332031 Z M 100.011719 108.332031 L 100.011719 115.539062 C 100.011719 115.539062 101.015625 114.035156 104.179688 113.105469 C 108.34375 111.890625 109.039062 108.332031 109.039062 108.332031 Z M 100.011719 108.332031 "/>
<path style=" stroke:none;fill-rule:nonzero;fill:rgb(13.333333%,40%,60%);fill-opacity:1;" d="M 92.964844 93.316406 C 92.964844 93.316406 97.042969 94.964844 100 93.488281 L 100 107.640625 L 90.972656 107.640625 C 90.972656 107.640625 90.628906 104.601562 91.839844 100.605469 C 92.601562 98.109375 91.144531 96.09375 91.144531 96.09375 Z M 107.042969 93.316406 C 107.042969 93.316406 102.964844 94.964844 100.011719 93.488281 L 100.011719 107.640625 L 109.039062 107.640625 C 109.039062 107.640625 109.382812 104.601562 108.171875 100.605469 C 107.410156 98.109375 108.867188 96.09375 108.867188 96.09375 Z M 128.210938 117.621094 C 128.210938 120.066406 126.234375 122.050781 123.785156 122.050781 C 121.332031 122.050781 119.355469 120.070312 119.355469 117.621094 C 119.355469 115.171875 121.332031 113.195312 123.785156 113.195312 C 126.234375 113.195312 128.210938 115.171875 128.210938 117.621094 Z M 128.210938 117.621094 "/>
<path style=" stroke:none;fill-rule:nonzero;fill:rgb(100%,80%,30.196078%);fill-opacity:1;" d="M 105.726562 77.90625 C 105.726562 79.128906 103.300781 80.117188 100.300781 80.117188 C 97.300781 80.117188 94.871094 79.128906 94.871094 77.90625 C 94.871094 76.683594 97.300781 75.695312 100.300781 75.695312 C 103.300781 75.695312 105.726562 76.683594 105.726562 77.90625 Z M 105.726562 77.90625 "/>
<path style=" stroke:none;fill-rule:nonzero;fill:rgb(100%,80%,30.196078%);fill-opacity:1;" d="M 100.171875 68.054688 C 95.472656 68.054688 91.667969 70.25 91.667969 72.960938 C 91.667969 75.671875 95.472656 77.867188 100.171875 77.867188 C 104.871094 77.867188 108.679688 75.671875 108.679688 72.960938 C 108.679688 70.25 104.871094 68.054688 100.171875 68.054688 Z M 94.183594 75.015625 C 93.140625 74.5625 93.140625 73.351562 93.316406 72.476562 C 93.488281 71.609375 94.964844 70.746094 94.964844 70.746094 C 94.964844 70.746094 93.960938 72.851562 94.8125 73.75 C 95.660156 74.65625 95.226562 75.472656 94.183594 75.015625 Z M 97.773438 74.945312 C 97.394531 74.828125 97.351562 74.410156 97.109375 73.707031 C 96.871094 73 96.609375 72.484375 96.785156 71.609375 C 96.957031 70.746094 99.121094 70.015625 99.121094 70.015625 C 99.121094 70.015625 98.515625 71.785156 98.6875 72.648438 C 98.859375 73.515625 99.554688 74.4375 99.554688 74.4375 C 99.554688 74.4375 98.148438 75.0625 97.773438 74.945312 Z M 103.144531 73.707031 C 102.90625 74.410156 102.859375 74.828125 102.484375 74.945312 C 102.105469 75.0625 100.695312 74.449219 100.695312 74.449219 C 100.695312 74.449219 101.390625 73.527344 101.5625 72.660156 C 101.734375 71.792969 101.128906 70.027344 101.128906 70.027344 C 101.128906 70.027344 103.292969 70.75 103.464844 71.621094 C 103.644531 72.484375 103.382812 73.003906 103.144531 73.707031 Z M 106.078125 75.015625 C 105.035156 75.472656 104.601562 74.648438 105.449219 73.75 C 106.300781 72.851562 105.292969 70.746094 105.292969 70.746094 C 105.292969 70.746094 106.773438 71.609375 106.945312 72.476562 C 107.117188 73.351562 107.117188 74.566406 106.078125 75.015625 Z M 128.195312 118.101562 C 128.042969 118.707031 127.421875 119.066406 126.820312 118.917969 L 120.6875 117.320312 C 120.089844 117.167969 119.726562 116.539062 119.878906 115.945312 C 120.035156 115.339844 120.648438 114.976562 121.25 115.132812 L 127.382812 116.726562 C 127.988281 116.882812 128.359375 117.488281 128.195312 118.101562 Z M 128.195312 118.101562 "/>
<path style=" stroke:none;fill-rule:nonzero;fill:rgb(100%,80%,30.196078%);fill-opacity:1;" d="M 124.972656 117.394531 C 124.839844 117.929688 124.300781 118.25 123.753906 118.109375 C 123.214844 117.972656 122.90625 117.433594 123.042969 116.890625 L 124.417969 110.605469 C 124.550781 110.078125 125.089844 109.753906 125.632812 109.894531 C 126.171875 110.035156 126.484375 110.578125 126.34375 111.109375 Z M 82.417969 132.640625 C 82.082031 132.765625 81.496094 132.070312 81.109375 131.09375 L 70.304688 103.644531 C 69.917969 102.660156 69.871094 101.753906 70.207031 101.621094 L 70.753906 101.40625 C 71.09375 101.277344 72.5 101.644531 72.890625 102.621094 L 83.695312 130.070312 C 84.082031 131.054688 83.300781 132.285156 82.964844 132.421875 Z M 95.464844 101.378906 L 104.527344 101.378906 L 104.527344 107.640625 L 95.464844 107.640625 Z M 95.464844 101.378906 "/>
</g>
</svg>
