<?xml version="1.0" encoding="UTF-8"?>
<svg xmlns="http://www.w3.org/2000/svg" xmlns:xlink="http://www.w3.org/1999/xlink" width="200px" height="200px" viewBox="0 0 200 200" version="1.1">
<g id="surface1">
<path style=" stroke:none;fill-rule:nonzero;fill:rgb(2.352941%,50.980392%,25.490196%);fill-opacity:1;" d="M 177.777344 27.777344 L 50 27.777344 L 50 77.777344 L 200 77.777344 L 200 50 C 200 37.726562 190.050781 27.777344 177.777344 27.777344 Z M 177.777344 27.777344 "/>
<path style=" stroke:none;fill-rule:nonzero;fill:rgb(93.333333%,93.333333%,93.333333%);fill-opacity:1;" d="M 50 77.777344 L 200 77.777344 L 200 122.222656 L 50 122.222656 Z M 50 77.777344 "/>
<path style=" stroke:none;fill-rule:nonzero;fill:rgb(7.843137%,7.843137%,7.843137%);fill-opacity:1;" d="M 50 172.222656 L 177.777344 172.222656 C 190.050781 172.222656 200 162.273438 200 150 L 200 122.222656 L 50 122.222656 Z M 50 172.222656 "/>
<path style=" stroke:none;fill-rule:nonzero;fill:rgb(92.54902%,12.54902%,15.686275%);fill-opacity:1;" d="M 22.222656 27.777344 C 9.949219 27.777344 0 37.726562 0 50 L 0 150 C 0 162.273438 9.949219 172.222656 22.222656 172.222656 L 50 172.222656 L 50 27.777344 Z M 22.222656 27.777344 "/>
</g>
</svg>
