<?xml version="1.0" encoding="UTF-8"?>
<svg xmlns="http://www.w3.org/2000/svg" xmlns:xlink="http://www.w3.org/1999/xlink" width="200px" height="px" viewBox="0 0 200 200" version="1.1">
<g id="surface1">
<path style=" stroke:none;fill-rule:nonzero;fill:rgb(93.333333%,93.333333%,93.333333%);fill-opacity:1;" d="M 0 71.667969 L 200 71.667969 L 200 128.332031 L 0 128.332031 Z M 0 71.667969 "/>
<path style=" stroke:none;fill-rule:nonzero;fill:rgb(9.019608%,9.019608%,58.823529%);fill-opacity:1;" d="M 200 150 C 200 162.273438 190.050781 172.222656 177.777344 172.222656 L 22.222656 172.222656 C 9.949219 172.222656 0 162.273438 0 150 L 0 127.777344 L 200 127.777344 Z M 200 150 "/>
<path style=" stroke:none;fill-rule:nonzero;fill:rgb(83.529412%,16.862745%,11.764706%);fill-opacity:1;" d="M 177.777344 27.777344 L 22.222656 27.777344 C 9.949219 27.777344 0 37.726562 0 50 L 0 72.222656 L 200 72.222656 L 200 50 C 200 37.726562 190.050781 27.777344 177.777344 27.777344 Z M 177.777344 27.777344 "/>
<path style=" stroke:none;fill-rule:nonzero;fill:rgb(83.529412%,16.862745%,11.764706%);fill-opacity:1;" d="M 63.382812 41.3125 L 63.382812 105.390625 C 63.382812 125.609375 79.777344 142.003906 100 142.003906 C 120.222656 142.003906 136.617188 125.609375 136.617188 105.390625 L 136.617188 41.3125 Z M 63.382812 41.3125 "/>
<path style=" stroke:none;fill-rule:nonzero;fill:rgb(100%,100%,100%);fill-opacity:1;" d="M 79.167969 100 L 93.054688 100 L 93.054688 113.890625 L 79.167969 113.890625 Z M 93.054688 113.890625 L 106.945312 113.890625 L 106.945312 127.777344 L 93.054688 127.777344 Z M 93.054688 86.109375 L 106.945312 86.109375 L 106.945312 100 L 93.054688 100 Z M 106.945312 100 L 120.832031 100 L 120.832031 113.890625 L 106.945312 113.890625 Z M 106.945312 72.222656 L 120.832031 72.222656 L 120.832031 86.109375 L 106.945312 86.109375 Z M 120.832031 86.109375 L 133.839844 86.109375 L 133.839844 100 L 120.832031 100 Z M 79.167969 72.222656 L 93.054688 72.222656 L 93.054688 86.109375 L 79.167969 86.109375 Z M 120.832031 127.777344 L 125.304688 127.777344 C 128.785156 123.851562 131.355469 119.117188 132.714844 113.890625 L 120.832031 113.890625 Z M 106.945312 127.777344 L 106.945312 138.503906 C 112.105469 137.421875 116.820312 135.144531 120.832031 132 L 120.832031 127.777344 Z M 79.167969 127.777344 L 79.167969 113.890625 L 67.285156 113.890625 C 68.644531 119.117188 71.210938 123.851562 74.695312 127.777344 Z M 66.160156 86.109375 L 79.167969 86.109375 L 79.167969 100 L 66.160156 100 Z M 79.167969 127.777344 L 79.167969 132 C 83.179688 135.144531 87.894531 137.421875 93.054688 138.503906 L 93.054688 127.777344 Z M 79.167969 127.777344 "/>
<path style=" stroke:none;fill-rule:nonzero;fill:rgb(9.019608%,9.019608%,58.823529%);fill-opacity:1;" d="M 137.539062 45.226562 L 126.4375 49.621094 L 119.0625 40.277344 L 108.898438 46.535156 L 100 38.605469 L 91.09375 46.539062 L 80.949219 40.273438 L 73.554688 49.628906 L 62.472656 45.222656 L 56.238281 56.777344 L 63.632812 72.679688 L 64.609375 72.222656 C 68.945312 70.207031 73.515625 68.542969 78.183594 67.289062 L 78.40625 67.226562 C 83.148438 65.964844 87.859375 65.128906 92.421875 64.722656 L 92.777344 64.6875 C 96.695312 64.355469 103.3125 64.355469 107.226562 64.6875 L 107.550781 64.714844 C 112.128906 65.128906 116.871094 65.972656 121.640625 67.234375 L 121.820312 67.285156 C 126.464844 68.535156 131.035156 70.195312 135.382812 72.222656 L 136.355469 72.679688 L 143.75 56.785156 Z M 137.539062 45.226562 "/>
<path style=" stroke:none;fill-rule:nonzero;fill:rgb(0.392157%,57.647059%,86.666667%);fill-opacity:1;" d="M 92.433594 48.226562 L 93.660156 62.464844 C 95.496094 62.320312 97.710938 62.183594 100 62.183594 C 102.289062 62.183594 104.503906 62.320312 106.339844 62.464844 L 107.566406 48.226562 L 100 41.488281 Z M 136.550781 47.933594 L 127.117188 51.671875 L 123.40625 65.5 C 127.464844 66.644531 131.460938 68.101562 135.316406 69.828125 L 141.351562 56.851562 Z M 63.457031 47.921875 L 58.644531 56.84375 L 64.683594 69.820312 C 68.515625 68.101562 72.511719 66.644531 76.59375 65.496094 L 72.871094 51.660156 Z M 63.457031 47.921875 "/>
</g>
</svg>
