<?xml version="1.0" encoding="UTF-8"?>
<svg xmlns="http://www.w3.org/2000/svg" xmlns:xlink="http://www.w3.org/1999/xlink" width="200px" height="200px" viewBox="0 0 200 200" version="1.1">
<g id="surface1">
<path style=" stroke:none;fill-rule:nonzero;fill:rgb(87.058824%,21.960784%,18.823529%);fill-opacity:1;" d="M 177.777344 27.777344 L 36.109375 27.777344 L 105.554688 75 L 200 75 L 200 50 C 200 37.726562 190.050781 27.777344 177.777344 27.777344 Z M 177.777344 27.777344 "/>
<path style=" stroke:none;fill-rule:nonzero;fill:rgb(0%,13.72549%,58.431373%);fill-opacity:1;" d="M 36.109375 172.222656 L 177.777344 172.222656 C 190.050781 172.222656 200 162.273438 200 150 L 200 125 L 105.554688 125 Z M 36.109375 172.222656 "/>
<path style=" stroke:none;fill-rule:nonzero;fill:rgb(7.843137%,7.843137%,7.843137%);fill-opacity:1;" d="M 0 61.109375 L 0 138.890625 L 58.332031 100 Z M 0 61.109375 "/>
<path style=" stroke:none;fill-rule:nonzero;fill:rgb(100%,71.372549%,6.666667%);fill-opacity:1;" d="M 0 50 L 0 61.109375 L 58.332031 100 L 0 138.890625 L 0 150 L 75 100 Z M 0 50 "/>
<path style=" stroke:none;fill-rule:nonzero;fill:rgb(0%,47.843137%,30.196078%);fill-opacity:1;" d="M 19.671875 27.933594 C 8.601562 29.207031 0 38.59375 0 50 L 75 100 L 0 150 C 0 161.40625 8.601562 170.792969 19.671875 172.066406 L 102.777344 113.890625 L 200 113.890625 L 200 86.109375 L 102.777344 86.109375 Z M 19.671875 27.933594 "/>
<path style=" stroke:none;fill-rule:nonzero;fill:rgb(93.333333%,93.333333%,93.333333%);fill-opacity:1;" d="M 36.109375 27.777344 L 22.222656 27.777344 C 21.355469 27.777344 20.511719 27.839844 19.671875 27.933594 L 102.777344 86.109375 L 200 86.109375 L 200 75 L 105.554688 75 Z M 19.671875 172.066406 C 20.511719 172.160156 21.355469 172.222656 22.222656 172.222656 L 36.109375 172.222656 L 105.554688 125 L 200 125 L 200 113.890625 L 102.777344 113.890625 Z M 19.671875 172.066406 "/>
</g>
</svg>
