<?xml version="1.0" encoding="UTF-8"?>
<svg xmlns="http://www.w3.org/2000/svg" xmlns:xlink="http://www.w3.org/1999/xlink" width="200px" height="200px" viewBox="0 0 200 200" version="1.1">
<g id="surface1">
<path style=" stroke:none;fill-rule:nonzero;fill:rgb(80.784314%,6.666667%,14.901961%);fill-opacity:1;" d="M 200 150 C 200 162.273438 190.050781 172.222656 177.777344 172.222656 L 22.222656 172.222656 C 9.949219 172.222656 0 162.273438 0 150 L 0 50 C 0 37.726562 9.949219 27.777344 22.222656 27.777344 L 177.777344 27.777344 C 190.050781 27.777344 200 37.726562 200 50 Z M 200 150 "/>
<path style=" stroke:none;fill-rule:nonzero;fill:rgb(0%,21.960784%,65.882353%);fill-opacity:1;" d="M 177.777344 27.777344 L 22.222656 27.777344 C 9.949219 27.777344 0 37.726562 0 50 L 0 100 L 200 100 L 200 50 C 200 37.726562 190.050781 27.777344 177.777344 27.777344 Z M 177.777344 27.777344 "/>
<path style=" stroke:none;fill-rule:nonzero;fill:rgb(93.333333%,93.333333%,93.333333%);fill-opacity:1;" d="M 7.292969 166.359375 L 105.726562 100.355469 L 7.390625 33.5625 C 2.882812 37.628906 0 43.457031 0 50 L 0 150 C 0 156.503906 2.84375 162.300781 7.292969 166.359375 Z M 7.292969 166.359375 "/>
<path style=" stroke:none;fill-rule:nonzero;fill:rgb(98.823529%,81.960784%,8.627451%);fill-opacity:1;" d="M 89.277344 91.777344 L 89.515625 98.183594 L 95.710938 99.816406 L 89.695312 102.015625 L 90.054688 108.417969 L 86.101562 103.371094 L 80.128906 105.6875 L 83.699219 100.371094 L 79.644531 95.410156 L 85.8125 97.167969 Z M 8.90625 44.34375 L 13.714844 48.582031 L 19.160156 45.210938 L 16.617188 51.09375 L 21.503906 55.234375 L 15.128906 54.632812 L 12.699219 60.554688 L 11.304688 54.304688 L 4.910156 53.828125 L 10.429688 50.570312 Z M 11.300781 139.972656 L 14.488281 145.527344 L 20.734375 144.101562 L 16.433594 148.84375 L 19.734375 154.339844 L 13.890625 151.714844 L 9.683594 156.554688 L 10.367188 150.179688 L 4.472656 147.679688 L 10.738281 146.355469 Z M 55.554688 100 C 55.554688 109.207031 48.09375 116.667969 38.890625 116.667969 C 29.683594 116.667969 22.222656 109.199219 22.222656 100 C 22.222656 90.792969 29.683594 83.332031 38.890625 83.332031 C 48.09375 83.332031 55.554688 90.792969 55.554688 100 Z M 55.554688 100 "/>
<path style=" stroke:none;fill-rule:nonzero;fill:rgb(98.823529%,81.960784%,8.627451%);fill-opacity:1;" d="M 42.195312 69.984375 L 41.320312 84.695312 L 39.964844 84.496094 L 40.4375 67.417969 L 38.890625 66.40625 L 37.339844 67.417969 L 37.8125 84.496094 L 36.457031 84.695312 L 35.582031 69.984375 L 33.621094 71.195312 L 35.449219 86.179688 L 42.328125 86.179688 L 44.15625 71.195312 Z M 35.582031 130.015625 L 36.457031 115.304688 L 37.8125 115.503906 L 37.332031 132.582031 L 38.890625 133.59375 L 40.4375 132.582031 L 39.964844 115.503906 L 41.320312 115.304688 L 42.195312 130.015625 L 44.15625 128.804688 L 42.328125 113.816406 L 35.449219 113.816406 L 33.621094 128.804688 Z M 15.320312 118.882812 L 26.351562 109.109375 L 27.160156 110.199219 L 14.753906 121.9375 L 15.132812 123.753906 L 16.949219 124.140625 L 28.6875 111.722656 L 29.785156 112.539062 L 20 123.566406 L 22.246094 124.089844 L 31.550781 112.207031 L 26.683594 107.339844 L 14.800781 116.644531 Z M 62.457031 81.109375 L 51.429688 90.894531 L 50.617188 89.800781 L 63.023438 78.0625 L 62.644531 76.246094 L 60.828125 75.859375 L 49.089844 88.273438 L 47.996094 87.460938 L 57.777344 76.433594 L 55.535156 75.910156 L 46.226562 87.792969 L 51.09375 92.660156 L 62.976562 83.355469 Z M 8.871094 96.695312 L 23.589844 97.566406 L 23.382812 98.921875 L 6.304688 98.445312 L 5.292969 100 L 6.304688 101.550781 L 23.382812 101.078125 L 23.589844 102.433594 L 8.871094 103.304688 L 10.082031 105.265625 L 25.066406 103.4375 L 25.066406 96.554688 L 10.082031 94.734375 Z M 68.90625 103.304688 L 54.1875 102.433594 L 54.394531 101.078125 L 71.472656 101.550781 L 72.484375 100 L 71.472656 98.445312 L 54.394531 98.921875 L 54.1875 97.566406 L 68.90625 96.695312 L 67.695312 94.734375 L 52.707031 96.554688 L 52.707031 103.4375 L 67.695312 105.265625 Z M 20 76.433594 L 29.785156 87.460938 L 28.6875 88.273438 L 16.949219 75.859375 L 15.132812 76.246094 L 14.753906 78.0625 L 27.160156 89.800781 L 26.351562 90.894531 L 15.320312 81.109375 L 14.800781 83.355469 L 26.683594 92.660156 L 31.550781 87.792969 L 22.246094 75.910156 Z M 57.777344 123.566406 L 47.996094 112.539062 L 49.089844 111.722656 L 60.828125 124.140625 L 62.644531 123.753906 L 63.023438 121.9375 L 50.617188 110.199219 L 51.429688 109.109375 L 62.457031 118.882812 L 62.976562 116.644531 L 51.09375 107.339844 L 46.226562 112.207031 L 55.535156 124.089844 Z M 57.777344 123.566406 "/>
</g>
</svg>
