<?xml version="1.0" encoding="UTF-8"?>
<svg xmlns="http://www.w3.org/2000/svg" xmlns:xlink="http://www.w3.org/1999/xlink" width="200px" height="px" viewBox="0 0 200 200" version="1.1">
<g id="surface1">
<path style=" stroke:none;fill-rule:nonzero;fill:rgb(22.745098%,45.882353%,76.862745%);fill-opacity:1;" d="M 0 100 L 0 150 C 0 162.273438 9.949219 172.222656 22.222656 172.222656 L 177.777344 172.222656 C 190.050781 172.222656 200 162.273438 200 150 L 200 100 Z M 0 100 "/>
<path style=" stroke:none;fill-rule:nonzero;fill:rgb(100%,77.647059%,11.764706%);fill-opacity:1;" d="M 200 100 L 200 50 C 200 37.726562 190.050781 27.777344 177.777344 27.777344 L 22.222656 27.777344 C 9.949219 27.777344 0 37.726562 0 50 L 0 100 Z M 200 100 "/>
<path style=" stroke:none;fill-rule:nonzero;fill:rgb(80.784314%,6.666667%,14.901961%);fill-opacity:1;" d="M 0 100 L 200 100 L 200 136.109375 L 0 136.109375 Z M 0 100 "/>
<path style=" stroke:none;fill-rule:nonzero;fill:rgb(93.333333%,93.333333%,93.333333%);fill-opacity:1;" d="M 0 63.890625 L 200 63.890625 L 200 100 L 0 100 Z M 0 63.890625 "/>
<path style=" stroke:none;fill-rule:nonzero;fill:rgb(23.921569%,55.686275%,20%);fill-opacity:1;" d="M 7.503906 33.355469 L 7.5 33.355469 C 2.898438 37.429688 0 43.378906 0 50 L 0 150 C 0 156.628906 2.898438 162.578125 7.503906 166.648438 L 97.222656 100 Z M 7.503906 33.355469 "/>
<path style=" stroke:none;fill-rule:nonzero;fill:rgb(100%,100%,100%);fill-opacity:1;" d="M 21.8125 100 C 21.8125 85.40625 32.015625 73.210938 45.671875 70.109375 C 43.476562 69.609375 41.199219 69.320312 38.855469 69.320312 C 21.910156 69.320312 8.179688 83.054688 8.179688 100 C 8.179688 116.945312 21.910156 130.679688 38.855469 130.679688 C 41.199219 130.679688 43.476562 130.390625 45.671875 129.890625 C 32.015625 126.789062 21.8125 114.59375 21.8125 100 Z M 21.8125 100 "/>
<path style=" stroke:none;fill-rule:nonzero;fill:rgb(100%,100%,100%);fill-opacity:1;" d="M 42.332031 82.640625 L 45.671875 80.210938 L 49.011719 82.640625 L 47.734375 78.714844 L 51.070312 76.289062 L 46.945312 76.289062 L 45.671875 72.359375 L 44.394531 76.289062 L 40.265625 76.289062 L 43.605469 78.714844 Z M 42.332031 97.277344 L 45.671875 94.851562 L 49.011719 97.277344 L 47.734375 93.351562 L 51.070312 90.929688 L 46.945312 90.929688 L 45.671875 87 L 44.394531 90.929688 L 40.265625 90.929688 L 43.605469 93.351562 Z M 42.332031 111.917969 L 45.671875 109.488281 L 49.011719 111.917969 L 47.734375 107.988281 L 51.070312 105.5625 L 46.945312 105.5625 L 45.671875 101.640625 L 44.394531 105.5625 L 40.265625 105.5625 L 43.605469 107.988281 Z M 45.671875 124.128906 L 49.011719 126.550781 L 47.734375 122.628906 L 51.070312 120.199219 L 46.945312 120.199219 L 45.671875 116.277344 L 44.394531 120.199219 L 40.265625 120.199219 L 43.605469 122.628906 L 42.332031 126.550781 Z M 45.671875 124.128906 "/>
</g>
</svg>
