<?xml version="1.0" encoding="UTF-8"?>
<svg xmlns="http://www.w3.org/2000/svg" xmlns:xlink="http://www.w3.org/1999/xlink" width="200px" height="200px" viewBox="0 0 200 200" version="1.1">
<g id="surface1">
<path style=" stroke:none;fill-rule:nonzero;fill:rgb(0%,41.568627%,65.490196%);fill-opacity:1;" d="M 86.109375 172.222656 L 177.777344 172.222656 C 190.050781 172.222656 200 162.273438 200 147.222656 L 200 113.890625 L 86.109375 113.890625 Z M 177.777344 27.777344 L 86.109375 27.777344 L 86.109375 86.109375 L 200 86.109375 L 200 50 C 200 37.726562 190.050781 27.777344 177.777344 27.777344 Z M 58.332031 27.777344 L 22.222656 27.777344 C 9.957031 27.777344 0.0117188 37.714844 0 49.984375 L 0 86.109375 L 58.332031 86.109375 Z M 0 113.890625 L 0 147.246094 C 0.0117188 162.285156 9.957031 172.222656 22.222656 172.222656 L 58.332031 172.222656 L 58.332031 113.890625 Z M 0 113.890625 "/>
<path style=" stroke:none;fill-rule:nonzero;fill:rgb(99.607843%,80%,0%);fill-opacity:1;" d="M 86.109375 27.777344 L 58.332031 27.777344 L 58.332031 86.109375 L 0 86.109375 L 0 113.890625 L 58.332031 113.890625 L 58.332031 172.222656 L 86.109375 172.222656 L 86.109375 113.890625 L 200 113.890625 L 200 86.109375 L 86.109375 86.109375 Z M 86.109375 27.777344 "/>
</g>
</svg>
