<?xml version="1.0" encoding="UTF-8"?>
<svg xmlns="http://www.w3.org/2000/svg" xmlns:xlink="http://www.w3.org/1999/xlink" width="200px" height="200px" viewBox="0 0 200 200" version="1.1">
<g id="surface1">
<path style=" stroke:none;fill-rule:nonzero;fill:rgb(82.745098%,17.647059%,15.294118%);fill-opacity:1;" d="M 172.222656 150 C 172.222656 162.273438 162.273438 172.222656 150 172.222656 L 50 172.222656 C 37.726562 172.222656 27.777344 162.273438 27.777344 150 L 27.777344 50 C 27.777344 37.726562 37.726562 27.777344 50 27.777344 L 150 27.777344 C 162.273438 27.777344 172.222656 37.726562 172.222656 50 Z M 172.222656 150 "/>
<path style=" stroke:none;fill-rule:nonzero;fill:rgb(100%,100%,100%);fill-opacity:1;" d="M 138.890625 89.238281 L 111.109375 89.238281 L 111.109375 61.460938 L 88.890625 61.460938 L 88.890625 89.238281 L 61.109375 89.238281 L 61.109375 111.109375 L 88.890625 111.109375 L 88.890625 139.238281 L 111.109375 139.238281 L 111.109375 111.109375 L 138.890625 111.109375 Z M 138.890625 89.238281 "/>
</g>
</svg>
