<?xml version="1.0" encoding="UTF-8"?>
<svg xmlns="http://www.w3.org/2000/svg" xmlns:xlink="http://www.w3.org/1999/xlink" width="200px" height="200px" viewBox="0 0 200 200" version="1.1">
<g id="surface1">
<path style=" stroke:none;fill-rule:nonzero;fill:rgb(7.058824%,67.843137%,16.862745%);fill-opacity:1;" d="M 177.777344 27.777344 L 22.222656 27.777344 C 9.949219 27.777344 0 37.726562 0 50 L 0 150 C 0 162.273438 9.949219 172.222656 22.222656 172.222656 L 177.777344 172.222656 C 190.050781 172.222656 200 162.273438 200 150 L 200 50 C 200 37.726562 190.050781 27.777344 177.777344 27.777344 Z M 177.777344 27.777344 "/>
<path style=" stroke:none;fill-rule:nonzero;fill:rgb(100%,80.784314%,0%);fill-opacity:1;" d="M 45.40625 75 L 200 75 L 200 125 L 45.40625 125 Z M 45.40625 75 "/>
<path style=" stroke:none;fill-rule:nonzero;fill:rgb(82.352941%,6.27451%,20.392157%);fill-opacity:1;" d="M 6.382812 34.417969 C 2.433594 38.429688 0 43.929688 0 50 L 0 150 C 0 156.070312 2.433594 161.570312 6.378906 165.582031 L 69.445312 100 Z M 6.382812 34.417969 "/>
<path style=" stroke:none;fill-rule:nonzero;fill:rgb(0%,0%,0%);fill-opacity:1;" d="M 100.023438 113.109375 L 109.050781 106.550781 L 118.070312 113.109375 L 114.628906 102.5 L 123.648438 95.9375 L 112.496094 95.9375 L 109.050781 85.332031 L 105.601562 95.9375 L 94.445312 95.9375 L 103.472656 102.5 Z M 152.800781 113.109375 L 161.828125 106.550781 L 170.851562 113.109375 L 167.40625 102.5 L 176.429688 95.9375 L 165.273438 95.9375 L 161.828125 85.332031 L 158.378906 95.9375 L 147.222656 95.9375 L 156.25 102.5 Z M 152.800781 113.109375 "/>
</g>
</svg>
