<?xml version="1.0" encoding="UTF-8"?>
<svg xmlns="http://www.w3.org/2000/svg" xmlns:xlink="http://www.w3.org/1999/xlink" width="200px" height="200px" viewBox="0 0 200 200" version="1.1">
<g id="surface1">
<path style=" stroke:none;fill-rule:nonzero;fill:rgb(0%,42.352941%,20.784314%);fill-opacity:1;" d="M 177.777344 27.777344 L 22.222656 27.777344 C 9.949219 27.777344 0 37.726562 0 50 L 0 150 C 0 162.273438 9.949219 172.222656 22.222656 172.222656 L 177.777344 172.222656 C 190.050781 172.222656 200 162.273438 200 150 L 200 50 C 200 37.726562 190.050781 27.777344 177.777344 27.777344 Z M 177.777344 27.777344 "/>
<path style=" stroke:none;fill-rule:nonzero;fill:rgb(100%,100%,100%);fill-opacity:1;" d="M 49.550781 78.054688 C 53.0625 78.390625 51.121094 72.117188 52.394531 70.976562 C 52.632812 70.417969 53.078125 70.410156 53.109375 71.121094 L 53.109375 76.445312 C 53.078125 78.179688 54.214844 78.683594 55.101562 79.042969 C 56.023438 78.972656 56.632812 79.003906 56.996094 79.898438 L 57.429688 89.109375 C 57.429688 89.109375 59.5625 89.722656 59.660156 83.929688 C 59.765625 80.527344 58.984375 77.683594 59.445312 77.023438 C 59.460938 76.371094 60.289062 76.332031 60.867188 76.648438 C 61.785156 77.292969 62.195312 78.09375 63.617188 77.777344 C 65.789062 77.183594 67.089844 76.128906 67.121094 74.460938 C 66.996094 72.878906 66.816406 71.292969 66.132812 69.710938 C 66.226562 69.421875 65.714844 68.679688 65.8125 68.390625 C 66.199219 69 66.792969 68.949219 66.929688 68.390625 C 66.5625 67.171875 65.988281 66.003906 65.054688 65.5 C 64.289062 64.820312 63.167969 64.960938 62.753906 66.371094 C 62.566406 67.996094 63.34375 69.929688 64.523438 71.5 C 64.773438 72.117188 65.128906 73.140625 64.972656 74.0625 C 64.34375 74.417969 63.710938 74.273438 63.1875 73.714844 C 63.1875 73.714844 61.460938 72.421875 61.460938 72.132812 C 61.921875 69.199219 61.566406 68.867188 61.3125 68.054688 C 61.132812 66.933594 60.601562 66.570312 60.167969 65.804688 C 59.734375 65.351562 59.148438 65.351562 58.871094 65.804688 C 58.105469 67.128906 58.460938 69.972656 59.015625 71.246094 C 59.410156 72.410156 60.023438 73.148438 59.734375 73.148438 C 59.496094 73.8125 59.003906 73.65625 58.648438 72.894531 C 58.140625 71.316406 58.039062 68.964844 58.039062 67.90625 C 57.882812 66.59375 57.714844 63.789062 56.855469 63.078125 C 56.328125 62.359375 55.542969 62.707031 55.273438 63.367188 C 55.214844 64.667969 55.207031 65.972656 55.355469 67.179688 C 55.945312 69.285156 56.132812 71.140625 56.421875 73.300781 C 56.5 76.195312 54.75 74.554688 54.828125 73.121094 C 55.234375 71.261719 55.128906 68.328125 54.765625 67.582031 C 54.484375 66.84375 54.144531 66.65625 53.457031 66.777344 C 52.910156 66.734375 51.5 68.277344 51.101562 70.832031 C 51.101562 70.832031 50.761719 72.148438 50.617188 73.320312 C 50.421875 74.644531 49.554688 75.578125 48.945312 73.140625 C 48.417969 71.367188 48.09375 66.996094 47.210938 68.015625 C 46.957031 71.433594 46.648438 77.445312 49.550781 78.054688 Z M 49.550781 78.054688 "/>
<path style=" stroke:none;fill-rule:nonzero;fill:rgb(100%,100%,100%);fill-opacity:1;" d="M 54.832031 80.550781 C 51.945312 80.605469 47.714844 84.34375 47.601562 86.417969 C 50.644531 84.949219 53.640625 83.539062 56.738281 82.027344 C 56.238281 81.277344 56.710938 80.605469 54.832031 80.550781 Z M 54.832031 80.550781 "/>
<path style=" stroke:none;fill-rule:nonzero;fill:rgb(100%,100%,100%);fill-opacity:1;" d="M 70.761719 91.753906 C 72.101562 87.292969 70.542969 84.003906 71.273438 84.023438 C 72.8125 85.683594 74.964844 84.246094 75.4375 83.667969 C 75.644531 83.378906 76.148438 83.1875 76.503906 83.566406 C 77.710938 84.433594 79.832031 84.023438 80.273438 82.5 C 80.527344 81.011719 80.734375 79.464844 80.785156 77.871094 C 79.800781 78.179688 79.066406 78.382812 79 78.789062 L 78.792969 80.109375 C 78.710938 80.539062 77.859375 80.554688 77.828125 80.011719 C 77.457031 78.316406 75.910156 78.09375 74.976562 80.722656 C 74.351562 81.234375 73.214844 81.332031 73.09375 80.570312 C 73.246094 78.8125 72.535156 78.570312 71.109375 79.398438 C 70.65625 75.90625 70.195312 72.566406 69.738281 69.070312 C 70.332031 69.054688 70.878906 69.496094 71.417969 68.816406 C 70.820312 66.964844 69.566406 63.1875 68.871094 62.917969 C 68.535156 62.503906 68.246094 62.761719 67.804688 62.867188 C 67.0625 63.105469 66.367188 63.75 66.582031 65 C 67.464844 70.359375 68.042969 74.445312 68.921875 79.804688 C 69.054688 80.433594 68.535156 81.261719 67.855469 81.179688 C 66.707031 80.398438 66.417969 78.820312 64.449219 78.890625 C 63.023438 78.90625 61.394531 80.449219 61.195312 81.945312 C 60.957031 83.128906 60.871094 84.417969 61.195312 85.457031 C 62.195312 86.65625 63.398438 86.539062 64.449219 86.265625 C 65.3125 85.910156 66.027344 85.042969 66.328125 85.25 C 66.535156 85.5 66.378906 88.351562 62.261719 90.539062 C 59.765625 91.65625 57.785156 91.910156 56.714844 89.878906 C 56.054688 88.605469 56.765625 83.773438 55.140625 84.894531 C 50.320312 97.3125 66.417969 99.035156 68.214844 85.40625 C 68.390625 84.84375 69.066406 84.285156 69.183594 85.199219 C 68.8125 97.542969 56.734375 98.394531 54.683594 94.511719 C 54.171875 93.59375 54.023438 91.5625 53.972656 90.339844 C 53.667969 87.910156 52.394531 88.84375 52.195312 91.25 C 51.988281 92.589844 52.042969 92.964844 52.042969 94.25 C 52.683594 104 68.238281 99.8125 70.761719 91.753906 Z M 64.761719 83.320312 C 64.660156 83.511719 64.222656 83.433594 63.898438 83.433594 C 63.535156 83.417969 63.359375 83.355469 63.140625 83.0625 C 63.039062 82.726562 63.351562 82.410156 63.488281 82.160156 C 63.660156 81.867188 64.589844 81.5625 64.917969 82.382812 C 65.0625 82.753906 64.933594 83.140625 64.761719 83.320312 Z M 64.761719 83.320312 "/>
<path style=" stroke:none;fill-rule:nonzero;fill:rgb(100%,100%,100%);fill-opacity:1;" d="M 75.566406 72.273438 C 76.535156 71.917969 81.117188 66.679688 81.117188 66.679688 C 80.878906 66.472656 80.667969 66.320312 80.429688 66.117188 C 80.171875 65.894531 80.199219 65.671875 80.429688 65.457031 C 81.5625 64.792969 81.199219 63.34375 80.605469 62.683594 C 79.621094 62.238281 78.765625 62.382812 78.140625 62.707031 C 77.34375 63.464844 77.15625 64.6875 77.785156 65.457031 C 78.394531 65.746094 79.003906 66.359375 78.601562 66.699219 C 76.726562 68.699219 71.59375 72.148438 72.1875 72.273438 C 72.316406 72.4375 75.464844 72.433594 75.566406 72.273438 Z M 78.960938 64.042969 C 79.253906 63.972656 79.632812 64.234375 79.8125 64.621094 C 79.988281 65.011719 79.894531 65.382812 79.605469 65.457031 L 79.59375 65.457031 C 79.304688 65.527344 78.929688 65.265625 78.75 64.878906 C 78.578125 64.484375 78.671875 64.117188 78.960938 64.042969 Z M 49.234375 95.878906 C 48.476562 97.417969 48.160156 96.359375 48.09375 95.5 C 47.976562 93.867188 48.132812 92.359375 48.3125 91.171875 C 48.5 89.949219 48.3125 90.320312 47.921875 90.816406 C 46.207031 93.550781 46.054688 97.640625 47.003906 98.855469 C 47.503906 99.433594 48.332031 99.6875 48.949219 99.5 C 50.027344 99.035156 50.5 96.84375 50.246094 96.050781 C 49.878906 95.488281 49.59375 95.398438 49.234375 95.878906 Z M 105.792969 66.945312 C 107.773438 69.601562 109.648438 72.304688 111.488281 75.0625 C 111.851562 77.449219 112.109375 79.785156 112.265625 82.101562 C 112.570312 86.566406 112.660156 91.398438 112.382812 96.105469 C 113.214844 96.140625 114.566406 94.75 115.035156 92.722656 C 115.339844 89.917969 114.921875 84.921875 114.894531 83.265625 C 114.867188 82.382812 114.8125 81.300781 114.746094 80.15625 C 116.933594 83.734375 119.066406 87.476562 121.148438 91.640625 C 121.910156 91.285156 121.746094 87.027344 121.300781 86.429688 C 119.632812 82.855469 117.339844 79.320312 116.605469 77.964844 C 116.332031 77.464844 115.40625 76.042969 114.300781 74.417969 C 114.128906 72.550781 113.957031 71.039062 113.832031 70.539062 C 113.488281 68.160156 114.816406 70.800781 114.632812 69.417969 C 114.207031 67.039062 112.882812 65.433594 111.339844 63.253906 C 110.839844 62.550781 110.855469 62.40625 110.082031 63.429688 C 109.761719 64.15625 109.699219 64.785156 109.714844 65.378906 C 109.515625 65.082031 109.292969 64.777344 108.945312 64.351562 C 107.605469 63.199219 107.527344 63.132812 106.417969 62.195312 C 105.855469 61.792969 104.488281 61.070312 104.246094 62.273438 C 104.121094 63.332031 104.1875 63.90625 104.367188 64.792969 C 104.511719 65.390625 105.371094 66.378906 105.792969 66.945312 Z M 109.90625 66.8125 C 110.011719 67.273438 110.121094 67.734375 110.195312 68.207031 L 110.277344 68.65625 C 109.949219 68.210938 109.679688 67.84375 109.550781 67.699219 C 108.640625 66.621094 109.394531 66.855469 109.90625 66.8125 Z M 109.90625 66.8125 "/>
<path style=" stroke:none;fill-rule:nonzero;fill:rgb(100%,100%,100%);fill-opacity:1;" d="M 121.773438 92.738281 C 119.839844 94.753906 117.050781 97.238281 114.015625 98.390625 C 113.6875 98.753906 114.828125 100.328125 116.292969 100.328125 C 118.753906 100.039062 120.921875 98.65625 122.929688 95.015625 C 123.464844 94.171875 124.410156 92.355469 124.433594 90.945312 C 124.617188 82.6875 124.023438 76.261719 122.785156 70.292969 C 122.699219 69.714844 122.75 69.035156 122.851562 68.855469 C 123.003906 68.667969 123.550781 68.855469 123.839844 68.390625 C 124.253906 67.957031 122.722656 64.398438 121.84375 63.035156 C 121.535156 62.421875 121.429688 62.011719 120.910156 63.105469 C 120.367188 63.996094 120.003906 65.542969 120.050781 66.988281 C 121.222656 75.117188 121.582031 82.234375 122.351562 90.359375 C 122.410156 91.144531 122.292969 92.289062 121.773438 92.738281 Z M 154.160156 72.128906 C 154.078125 71.550781 153.820312 70.207031 153.921875 70.035156 C 154.078125 69.621094 154.882812 70.078125 155.171875 69.605469 C 155.59375 69.179688 153.09375 65.964844 152.222656 64.601562 C 151.90625 63.988281 151.800781 63.578125 151.285156 64.671875 C 150.738281 65.5625 150.550781 67.15625 150.765625 68.554688 C 152.070312 77.382812 153.042969 84.015625 153.246094 91.84375 C 153.128906 92.589844 153.105469 92.988281 152.753906 93.921875 C 151.984375 94.910156 151.132812 96.144531 150.328125 96.746094 C 149.527344 97.339844 147.820312 97.910156 147.261719 98.351562 C 145.5 99.378906 145.496094 100.550781 146.929688 100.589844 C 149.382812 100.300781 152.292969 100.101562 154.300781 97.066406 C 154.839844 96.222656 155.476562 93.929688 155.503906 92.515625 C 155.6875 84.261719 155.398438 78.09375 154.160156 72.128906 Z M 135.542969 79 C 135.566406 77.867188 135.671875 76.367188 135.734375 75.429688 C 135.761719 75.078125 135.84375 74.683594 136.179688 74.59375 C 136.515625 74.503906 137.117188 74.9375 137.121094 74.570312 C 137.054688 73.855469 136.910156 72.789062 136.503906 72.285156 C 135.949219 71.460938 134.476562 71.660156 134.214844 72.949219 C 134.222656 73.429688 134.4375 73.683594 134.398438 74.117188 C 134.332031 74.359375 134.078125 74.527344 133.472656 74.238281 C 133.570312 74.148438 133.078125 73.464844 133.078125 73.464844 C 132.605469 73.179688 131.972656 73.484375 131.566406 73.746094 C 131.339844 74.15625 131.179688 74.859375 131.433594 75.578125 C 132.101562 76.839844 134.429688 78.976562 135.542969 79 Z M 135.542969 79 "/>
<path style=" stroke:none;fill-rule:nonzero;fill:rgb(100%,100%,100%);fill-opacity:1;" d="M 134.761719 69.339844 C 136.390625 71.332031 138.050781 73.355469 139.722656 75.410156 C 140.082031 80 140.179688 83.753906 140.535156 88.34375 C 140.484375 90.289062 139.882812 91.984375 139.3125 92.226562 C 139.3125 92.226562 138.449219 92.726562 137.871094 92.179688 C 137.449219 92.003906 135.765625 89.371094 135.765625 89.371094 C 134.90625 88.582031 134.339844 88.804688 133.726562 89.371094 C 132.039062 91 131.277344 94.054688 130.132812 96.15625 C 129.832031 96.628906 129 97.027344 128.070312 96.121094 C 125.722656 92.90625 127.101562 88.332031 126.8125 89.511719 C 124.714844 91.871094 125.640625 95.777344 126.109375 96.621094 C 126.800781 98 127.359375 98.890625 128.707031 99.570312 C 129.929688 100.472656 130.882812 99.90625 131.40625 99.277344 C 132.640625 97.996094 132.65625 94.746094 133.234375 94.089844 C 133.632812 92.90625 134.660156 93.105469 135.15625 93.632812 C 135.640625 94.320312 136.207031 94.765625 136.90625 95.148438 C 138.054688 96.167969 139.429688 96.351562 140.777344 95.421875 C 141.699219 94.90625 142.304688 94.234375 142.84375 92.90625 C 143.445312 91.304688 143.117188 83.949219 142.996094 79.539062 C 143.855469 80.648438 144.695312 81.8125 145.542969 82.972656 C 145.917969 86.65625 146.128906 90.320312 146.003906 94.066406 C 145.917969 94.816406 148.617188 91.84375 148.59375 90.433594 C 148.582031 89.292969 148.59375 88.261719 148.59375 87.289062 C 149.894531 89.246094 151.160156 91.261719 152.351562 93.394531 C 153.09375 93.003906 152.851562 88.8125 152.378906 88.234375 C 151.003906 85.933594 149.179688 83.539062 147.917969 81.828125 C 147.832031 81.609375 147.789062 81.367188 147.6875 81.160156 C 147.183594 79.988281 147.5 79.042969 147.261719 77.800781 C 147.027344 76.550781 147.089844 74.683594 146.726562 73.199219 C 146.628906 72.621094 146.328125 70.765625 146.417969 70.59375 C 146.5625 70.179688 147.117188 70.605469 147.390625 70.128906 C 147.792969 69.683594 145.984375 64.988281 145.0625 63.644531 C 144.726562 63.042969 144.128906 63.25 143.382812 64.226562 C 142.699219 64.871094 142.957031 66.339844 143.214844 67.734375 C 143.867188 71.109375 144.410156 74.351562 144.878906 77.554688 C 143.984375 76.359375 142.898438 74.949219 141.851562 73.59375 L 141.804688 73.351562 C 141.804688 73.289062 141.65625 70.4375 141.523438 69.761719 C 141.5 69.488281 141.433594 69.40625 141.722656 69.4375 C 142.027344 69.695312 142.066406 69.710938 142.261719 69.800781 C 142.570312 69.855469 142.84375 69.328125 142.660156 68.84375 L 139.789062 63.554688 C 139.5625 63.328125 139.261719 63.082031 138.898438 63.617188 C 138.550781 63.921875 138.179688 64.476562 138.1875 65.1875 C 138.277344 66.4375 138.496094 67.714844 138.578125 68.972656 L 138.699219 69.648438 C 138.570312 69.5 138.417969 69.3125 138.351562 69.246094 C 135.910156 66.679688 139.472656 68.828125 137.882812 66.84375 C 136.539062 65.367188 136.148438 64.90625 134.996094 64.015625 C 134.417969 63.644531 134.066406 62.933594 133.878906 64.144531 C 133.804688 65.207031 133.726562 66.445312 133.792969 67.339844 C 133.792969 67.851562 134.3125 68.785156 134.761719 69.339844 Z M 85.3125 75.332031 C 86.710938 75.910156 87.605469 73.246094 88.183594 70.320312 C 88.570312 69.5 88.871094 69.410156 89.070312 69.832031 C 89.023438 73.722656 89.351562 74.582031 90.351562 75.765625 C 92.578125 77.488281 94.421875 75.984375 94.570312 75.839844 L 96.304688 74.105469 C 96.6875 73.699219 97.207031 73.671875 97.75 74.035156 C 98.285156 74.511719 98.210938 75.34375 99.34375 75.921875 C 100.300781 76.304688 102.34375 76.011719 102.816406 75.1875 C 103.457031 74.101562 103.609375 73.722656 103.898438 73.3125 C 104.355469 72.707031 105.132812 72.976562 105.132812 73.167969 C 105.0625 73.503906 104.605469 73.84375 104.917969 74.449219 C 105.460938 74.855469 105.582031 74.59375 105.90625 74.503906 C 107.039062 73.960938 107.882812 71.503906 107.882812 71.503906 C 107.933594 70.589844 107.421875 70.667969 107.089844 70.855469 C 106.65625 71.117188 106.628906 71.207031 106.195312 71.472656 C 105.640625 71.554688 104.566406 71.921875 104.039062 71.101562 C 103.496094 70.109375 103.484375 68.734375 103.070312 67.738281 C 103.070312 67.667969 102.351562 66.167969 103.023438 66.070312 C 103.359375 66.132812 104.078125 66.320312 104.195312 65.722656 C 104.542969 65.132812 103.433594 63.457031 102.679688 62.605469 C 102.015625 61.882812 101.101562 61.792969 100.214844 62.535156 C 99.59375 63.105469 99.683594 63.738281 99.5625 64.34375 C 99.40625 65.035156 99.4375 65.890625 100.144531 66.804688 C 100.761719 68.023438 101.890625 69.59375 101.515625 71.792969 C 101.515625 71.792969 100.859375 72.839844 99.710938 72.707031 C 99.234375 72.601562 98.457031 72.394531 98.042969 69.339844 C 97.734375 67.023438 98.121094 63.785156 97.140625 62.265625 C 96.785156 61.351562 96.527344 60.464844 95.660156 62.035156 C 95.429688 62.648438 94.429688 63.582031 95.15625 65.511719 C 95.75 66.726562 95.988281 68.710938 95.722656 70.921875 C 95.3125 71.550781 95.222656 71.761719 94.683594 72.390625 C 93.929688 73.199219 93.109375 72.996094 92.484375 72.6875 C 91.894531 72.292969 91.4375 72.089844 91.171875 70.832031 C 91.222656 68.832031 91.332031 65.554688 90.964844 64.859375 C 90.429688 63.785156 89.539062 64.171875 89.15625 64.5 C 87.328125 66.171875 86.429688 68.988281 85.878906 71.226562 C 85.371094 72.859375 84.832031 72.394531 84.457031 71.734375 C 83.535156 70.867188 83.472656 64.105469 82.355469 65.222656 C 80.5625 70.300781 83.367188 75.878906 85.3125 75.332031 Z M 85.3125 75.332031 "/>
<path style=" stroke:none;fill-rule:nonzero;fill:rgb(100%,100%,100%);fill-opacity:1;" d="M 111.871094 86.246094 L 111.339844 85.9375 L 100.890625 85.890625 C 100.351562 85.683594 100.511719 85.503906 100.890625 85.359375 C 103.382812 85.023438 107.820312 84.300781 108.117188 80.039062 C 108.066406 77.820312 107.160156 76.367188 104.4375 75.964844 C 102.445312 76.121094 101.015625 78.0625 101.246094 80.1875 C 101.148438 80.765625 101.433594 81.890625 100.851562 82.015625 C 97.011719 82.367188 92.828125 84.765625 92.6875 86.488281 C 92.457031 86.648438 91.933594 86.183594 92 85.449219 C 91.855469 82.476562 90.878906 79.117188 89.359375 76.527344 C 88.148438 75.316406 88.527344 75.714844 87.714844 76.289062 C 87.195312 76.890625 87.101562 77.300781 87.128906 78.496094 C 87.128906 78.539062 88.105469 81.265625 88.933594 83.179688 C 89.484375 85.140625 90 87.378906 89.628906 89.496094 C 88.339844 92.292969 85.746094 94.804688 83.246094 96.167969 C 81.957031 96.582031 80.851562 96.433594 80.578125 96.144531 C 79.785156 95.609375 79.820312 94.628906 79.882812 94.609375 C 81.988281 93.140625 84.398438 91.957031 86.289062 87.996094 C 86.84375 86.484375 87.011719 85.566406 86.460938 83.226562 C 86.246094 82.351562 85.964844 81.640625 85.367188 81.015625 C 85.707031 80.792969 86.679688 81.535156 86.828125 81.09375 C 86.605469 79.972656 85.84375 78.472656 84.988281 77.707031 C 84.238281 77.023438 83.421875 76.945312 82.734375 77.570312 C 81.957031 78.003906 81.789062 79.550781 82.160156 80.90625 C 82.570312 81.929688 83.6875 82.101562 84.488281 84.148438 C 84.488281 84.195312 84.777344 85.683594 84.367188 86.265625 C 84.039062 87.289062 79.789062 90.628906 79.554688 90.777344 C 79.4375 90.921875 79.488281 90.707031 79.472656 90.148438 C 79.445312 89.472656 79.746094 87.871094 79.660156 87.859375 C 78.277344 88.753906 77.816406 91.496094 77.566406 92.304688 C 74.066406 94.722656 70.105469 96.523438 67.816406 98.976562 C 66.621094 100.839844 76.027344 96.839844 77.121094 96.355469 C 77.367188 96.535156 77.339844 97.371094 77.996094 98.121094 C 78.972656 99.445312 81.039062 100.261719 83.066406 99.753906 C 86.457031 98.527344 88.417969 96.214844 90.40625 93.65625 C 90.6875 93.238281 91.132812 92.921875 91.542969 93.238281 C 92.910156 96.300781 96.859375 98.464844 101.957031 98.695312 C 103.140625 97.253906 102.566406 96.5625 102.089844 96.261719 C 102.089844 96.214844 99.570312 95.261719 99.1875 94.304688 C 98.957031 93.4375 99.523438 92.679688 100.65625 92.101562 C 103.929688 91.707031 107.144531 91.265625 110.261719 90.265625 C 110.292969 89.222656 110.898438 87.65625 111.316406 86.976562 C 111.714844 86.289062 111.933594 86.496094 111.871094 86.246094 Z M 103.277344 79.734375 C 103.433594 79.472656 103.949219 79.484375 104.433594 79.765625 C 104.917969 80.042969 105.1875 80.488281 105.027344 80.75 C 104.871094 81.015625 104.351562 81 103.867188 80.714844 C 103.382812 80.4375 103.121094 80 103.277344 79.734375 Z M 99.070312 90.289062 C 97.949219 90.671875 96.871094 90.972656 96.871094 92.59375 C 97.289062 94.851562 96.300781 94.078125 95.714844 93.765625 C 95.027344 93.273438 93.089844 92.078125 92.8125 89.5 C 92.765625 88.882812 93.25 88.367188 94.023438 88.367188 C 95.183594 88.683594 96.898438 88.707031 98.390625 88.859375 C 99.605469 88.9375 100.210938 89.894531 99.070312 90.289062 Z M 60.367188 65.261719 C 61.566406 65.839844 63.832031 65.59375 63.734375 63.648438 C 63.734375 63.476562 63.6875 62.898438 63.671875 62.746094 C 63.429688 62.171875 62.761719 62.3125 62.605469 62.90625 C 62.554688 63.101562 62.6875 63.410156 62.515625 63.511719 C 62.417969 63.609375 62.035156 63.550781 62.050781 63.015625 C 62.050781 62.84375 61.921875 62.660156 61.851562 62.554688 C 61.773438 62.503906 61.726562 62.488281 61.589844 62.488281 C 61.421875 62.496094 61.421875 62.539062 61.332031 62.683594 C 61.292969 62.820312 61.238281 62.964844 61.238281 63.128906 C 61.214844 63.316406 61.144531 63.382812 61.003906 63.417969 C 60.851562 63.417969 60.882812 63.433594 60.761719 63.351562 C 60.683594 63.265625 60.589844 63.234375 60.589844 63.09375 C 60.589844 62.949219 60.554688 62.714844 60.511719 62.617188 C 60.445312 62.527344 60.339844 62.488281 60.214844 62.457031 C 59.5625 62.457031 59.515625 63.207031 59.554688 63.496094 C 59.496094 63.542969 59.472656 64.890625 60.367188 65.261719 Z M 60.367188 65.261719 "/>
<path style=" stroke:none;fill-rule:nonzero;fill:rgb(100%,100%,100%);fill-opacity:1;" d="M 97.289062 77.929688 C 97.289062 77.753906 97.160156 77.578125 97.089844 77.464844 C 97.011719 77.417969 96.964844 77.398438 96.828125 77.398438 C 96.660156 77.40625 96.667969 77.449219 96.570312 77.59375 C 96.535156 77.738281 96.476562 77.878906 96.476562 78.039062 C 96.460938 78.234375 96.382812 78.300781 96.246094 78.328125 C 96.089844 78.328125 96.121094 78.34375 95.996094 78.265625 C 95.917969 78.183594 95.820312 78.148438 95.820312 78.011719 C 95.820312 77.867188 95.789062 77.628906 95.746094 77.535156 C 95.679688 77.445312 95.570312 77.40625 95.449219 77.378906 C 94.792969 77.378906 94.75 78.128906 94.785156 78.410156 C 94.734375 78.464844 94.707031 79.804688 95.601562 80.183594 C 96.804688 80.753906 99.667969 80.421875 98.964844 78.570312 C 98.964844 78.398438 98.921875 77.820312 98.90625 77.660156 C 98.660156 77.089844 97.988281 77.234375 97.839844 77.820312 C 97.792969 78.015625 97.929688 78.328125 97.75 78.429688 C 97.660156 78.527344 97.273438 78.464844 97.289062 77.929688 Z M 116.160156 74 C 117.359375 74.578125 119.621094 74.332031 119.523438 72.394531 C 119.523438 72.222656 119.476562 71.644531 119.460938 71.484375 C 119.214844 70.910156 118.550781 71.054688 118.398438 71.644531 C 118.351562 71.839844 118.484375 72.148438 118.304688 72.25 C 118.207031 72.351562 117.820312 72.292969 117.839844 71.753906 C 117.839844 71.582031 117.710938 71.398438 117.640625 71.292969 C 117.5625 71.246094 117.515625 71.226562 117.371094 71.226562 C 117.207031 71.238281 117.210938 71.277344 117.117188 71.421875 C 117.078125 71.566406 117.023438 71.707031 117.023438 71.867188 C 117 72.0625 116.929688 72.128906 116.789062 72.15625 C 116.632812 72.15625 116.667969 72.171875 116.539062 72.09375 C 116.460938 72.011719 116.371094 71.976562 116.371094 71.839844 C 116.371094 71.695312 116.339844 71.457031 116.292969 71.355469 C 116.222656 71.265625 116.121094 71.226562 115.996094 71.199219 C 115.339844 71.199219 115.292969 71.949219 115.332031 72.234375 C 115.292969 72.289062 115.265625 73.628906 116.160156 74 Z M 116.972656 66.488281 C 117.398438 67.6875 116.644531 68.832031 117.09375 69 C 117.5 69.1875 118.078125 67.761719 118.289062 66.445312 C 118.539062 65.378906 117.777344 63.195312 116.699219 62.746094 C 116.042969 62.589844 115.109375 62.976562 115.410156 63.855469 C 115.261719 64.277344 116.734375 65.710938 116.972656 66.488281 Z M 128.054688 94.621094 C 128.894531 94.628906 129.859375 92.707031 130.273438 90.800781 C 130.5 88.179688 130.117188 86.582031 130.050781 85.039062 C 129.976562 83.5 128.3125 71.75 127.964844 70.582031 C 127.5625 68.378906 129.59375 70.289062 129.371094 69.003906 C 128.667969 67.390625 126.917969 65.039062 126.359375 63.632812 C 126.027344 63.035156 126.171875 62.5 125.429688 63.476562 C 124.746094 65.726562 124.503906 67.5625 124.765625 68.960938 C 126.535156 78.183594 128.34375 85.851562 128.054688 94.621094 Z M 148.921875 70.511719 C 149.117188 71.109375 148.628906 73.050781 149.035156 73.226562 C 149.40625 73.429688 149.929688 71.890625 150.121094 70.460938 C 150.226562 69.679688 149.65625 66.945312 148.671875 66.457031 C 148.070312 66.289062 147.222656 66.707031 147.5 67.660156 C 147.359375 68.121094 148.707031 69.667969 148.921875 70.511719 Z M 76.039062 90.820312 C 76.398438 90.972656 76.894531 89.839844 77.082031 88.789062 C 77.1875 88.210938 76.632812 86.207031 75.695312 85.84375 C 75.117188 85.722656 74.328125 85.878906 74.570312 86.734375 C 74.542969 87.195312 75.851562 87.75 75.929688 88.820312 C 76.117188 89.265625 75.648438 90.695312 76.039062 90.820312 Z M 50.726562 65.183594 C 50.910156 65.644531 50.542969 67.117188 50.929688 67.253906 C 51.277344 67.410156 51.773438 66.234375 51.957031 65.148438 C 52.0625 64.550781 51.976562 62.515625 50.589844 62.101562 C 50.015625 61.972656 49.222656 62.289062 49.484375 63.015625 C 49.351562 63.359375 50.523438 64.539062 50.726562 65.183594 Z M 77.960938 71.699219 C 76.898438 72.277344 76.484375 73.988281 77.148438 74.984375 C 77.765625 75.867188 78.746094 75.539062 78.878906 75.539062 C 79.921875 75.667969 80.539062 73.582031 80.539062 73.582031 C 80.539062 73.582031 80.570312 73 79.332031 74.105469 C 78.8125 74.207031 78.746094 74.011719 78.617188 73.710938 C 78.503906 73.171875 78.527344 72.628906 78.777344 72.089844 C 78.957031 71.570312 78.554688 71.34375 77.960938 71.699219 Z M 85.972656 65.292969 C 86.367188 65.003906 86.5 64.816406 86.628906 64.328125 C 86.789062 63.515625 85.765625 64.710938 85.640625 63.804688 C 85.410156 62.964844 86.066406 62.621094 86.6875 61.8125 C 86.710938 61.25 86.699219 60.855469 85.9375 61.3125 C 85.40625 61.671875 84.339844 62.773438 84.304688 64.039062 C 84.273438 64.753906 84.140625 64.75 84.609375 65.207031 C 84.949219 65.699219 85.289062 65.648438 85.972656 65.292969 Z M 93.1875 65.726562 C 93.878906 63.859375 93.878906 63.070312 93.929688 62.277344 C 93.714844 61.070312 92.898438 61.109375 92.359375 62.449219 C 92.128906 62.957031 91.855469 65.617188 91.898438 65.617188 C 91.714844 66.410156 92.726562 66.75 93.1875 65.726562 Z M 138.578125 78.964844 C 138.578125 78.964844 133.003906 82.929688 132.871094 83.066406 C 132.316406 83.554688 132.59375 85.289062 132.871094 85.089844 C 133.265625 85.246094 138.871094 81.4375 138.761719 80.996094 C 139.023438 81.003906 139.148438 78.765625 138.578125 78.964844 Z M 137.894531 89.710938 C 138.265625 89.910156 139.25 88.695312 139.210938 87.179688 C 139.320312 86.394531 138.929688 83.523438 137.949219 83.035156 C 137.351562 82.867188 136.550781 83.378906 136.828125 84.328125 C 136.6875 84.785156 137.515625 86.378906 137.734375 87.222656 C 137.929688 87.828125 137.488281 89.535156 137.894531 89.710938 Z M 106.339844 98.023438 C 106.339844 98.070312 106.8125 98.476562 107.367188 98.15625 C 108.535156 97.707031 109.265625 97.273438 110.898438 96.910156 C 111.328125 96.90625 111.300781 95.753906 110.621094 95.714844 C 109.738281 95.761719 108.917969 95.804688 108.035156 96.503906 C 107.488281 96.628906 107.398438 96.300781 107.277344 96 C 107.144531 95.261719 107.582031 94.75 107.488281 94.199219 C 107.523438 94.234375 106.984375 93.738281 106.433594 94.015625 C 106.40625 94.015625 105.207031 94.828125 104.820312 95.394531 C 104.582031 95.578125 104.609375 95.734375 104.683594 96.039062 C 104.867188 96.460938 105.195312 96.332031 105.5625 96.132812 C 106.050781 96.066406 106.285156 96.390625 106.246094 96.972656 C 106.011719 97.710938 106.339844 97.984375 106.339844 98.023438 Z M 142.734375 98.945312 C 142.550781 99.261719 142.429688 99.738281 142.996094 99.890625 C 144.039062 100.183594 146.445312 98.617188 146.445312 98.589844 C 146.832031 98.292969 146.707031 97.746094 146.671875 97.746094 C 146.445312 97.484375 145.933594 97.632812 145.589844 97.59375 C 145.429688 97.59375 144.882812 97.511719 145.144531 97.035156 C 145.355469 96.738281 145.433594 96.554688 145.578125 96.195312 C 145.738281 95.832031 145.601562 95.59375 145.011719 95.398438 C 144.417969 95.289062 144.179688 95.34375 143.515625 95.398438 C 143.160156 95.476562 143.039062 95.632812 142.972656 96.066406 C 143 96.722656 143.394531 96.6875 143.804688 96.949219 C 144.042969 97.253906 144.199219 97.535156 143.789062 98.027344 C 143.398438 98.390625 143.128906 98.589844 142.734375 98.945312 Z M 141.667969 127.777344 L 133.332031 127.777344 L 133.332031 125 C 133.332031 123.464844 132.089844 122.222656 130.554688 122.222656 C 129.023438 122.222656 127.777344 123.464844 127.777344 125 L 127.777344 127.777344 L 61.109375 127.777344 C 61.109375 127.777344 61.109375 133.332031 77.777344 133.332031 L 127.777344 133.332031 L 127.777344 136.109375 C 127.777344 137.644531 129.023438 138.890625 130.554688 138.890625 C 132.089844 138.890625 133.332031 137.644531 133.332031 136.109375 L 133.332031 133.332031 L 138.890625 133.332031 L 138.890625 136.109375 C 138.890625 137.644531 140.132812 138.890625 141.667969 138.890625 C 143.199219 138.890625 144.445312 137.644531 144.445312 136.109375 L 144.445312 130.554688 C 144.445312 129.023438 143.199219 127.777344 141.667969 127.777344 Z M 141.667969 127.777344 "/>
</g>
</svg>
