<?xml version="1.0" encoding="UTF-8"?>
<svg xmlns="http://www.w3.org/2000/svg" xmlns:xlink="http://www.w3.org/1999/xlink" width="200px" height="200px" viewBox="0 0 200 200" version="1.1">
<g id="surface1">
<path style=" stroke:none;fill-rule:nonzero;fill:rgb(14.901961%,37.254902%,70.980392%);fill-opacity:1;" d="M 200 150 C 200 162.273438 190.050781 172.222656 177.777344 172.222656 L 22.222656 172.222656 C 9.949219 172.222656 0 162.273438 0 150 L 0 50 C 0 37.726562 9.949219 27.777344 22.222656 27.777344 L 177.777344 27.777344 C 190.050781 27.777344 200 37.726562 200 50 Z M 200 150 "/>
<path style=" stroke:none;fill-rule:nonzero;fill:rgb(93.333333%,93.333333%,93.333333%);fill-opacity:1;" d="M 0 72.222656 L 200 72.222656 L 200 127.777344 L 0 127.777344 Z M 0 72.222656 "/>
<path style=" stroke:none;fill-rule:nonzero;fill:rgb(66.27451%,74.901961%,29.803922%);fill-opacity:1;" d="M 125.316406 100 C 125.316406 113.984375 113.984375 125.316406 100 125.316406 C 86.015625 125.316406 74.683594 113.984375 74.683594 100 C 74.683594 86.015625 86.023438 74.683594 100 74.683594 C 113.976562 74.683594 125.316406 86.015625 125.316406 100 Z M 125.316406 100 "/>
<path style=" stroke:none;fill-rule:nonzero;fill:rgb(93.333333%,93.333333%,93.333333%);fill-opacity:1;" d="M 122.222656 100 C 122.222656 112.273438 112.273438 122.222656 100 122.222656 C 87.726562 122.222656 77.777344 112.273438 77.777344 100 C 77.777344 87.726562 87.726562 77.777344 100 77.777344 C 112.273438 77.777344 122.222656 87.726562 122.222656 100 Z M 122.222656 100 "/>
<path style=" stroke:none;fill-rule:nonzero;fill:rgb(14.901961%,37.254902%,70.980392%);fill-opacity:1;" d="M 81.988281 111.972656 L 99.921875 80.910156 L 117.855469 111.972656 Z M 81.988281 111.972656 "/>
<path style=" stroke:none;fill-rule:nonzero;fill:rgb(33.333333%,67.45098%,93.333333%);fill-opacity:1;" d="M 83.976562 110.765625 L 99.921875 83.160156 L 115.859375 110.765625 Z M 83.976562 110.765625 "/>
<path style=" stroke:none;fill-rule:nonzero;fill:rgb(73.333333%,86.666667%,96.078431%);fill-opacity:1;" d="M 83.976562 110.765625 L 87.828125 104.105469 L 111.839844 103.804688 L 115.859375 110.765625 Z M 83.976562 110.765625 "/>
<path style=" stroke:none;fill-rule:nonzero;fill:rgb(36.078431%,56.862745%,23.137255%);fill-opacity:1;" d="M 87.066406 106.421875 L 93.054688 101.5625 L 95.660156 104.511719 L 97.917969 102.078125 L 99.828125 103.988281 L 101.648438 101.996094 L 103.820312 103.988281 L 105.816406 101.90625 L 107.640625 103.988281 L 109.371094 102.078125 L 112.238281 105.640625 L 112.761719 106.683594 C 112.761719 106.683594 109.722656 107.289062 105.554688 106.945312 C 101.390625 106.601562 98.957031 107.550781 95.660156 107.988281 C 92.359375 108.421875 86.460938 107.554688 86.460938 107.554688 Z M 87.066406 106.421875 "/>
<path style=" stroke:none;fill-rule:nonzero;fill:rgb(88.627451%,94.117647%,62.352941%);fill-opacity:1;" d="M 92.964844 102.605469 L 96.960938 106.945312 L 94.964844 107.117188 L 92.710938 103.820312 Z M 97.746094 102.949219 L 100.957031 105.816406 L 99.476562 106.078125 L 97.917969 103.90625 Z M 101.820312 102.777344 L 104.601562 105.382812 L 103.90625 105.816406 L 101.648438 103.382812 Z M 105.464844 102.777344 L 104.339844 103.820312 L 104.859375 104.429688 Z M 108.9375 102.867188 L 107.640625 104.511719 L 108.070312 105.292969 L 109.027344 103.472656 Z M 108.9375 102.867188 "/>
<path style=" stroke:none;fill-rule:nonzero;fill:rgb(73.333333%,86.666667%,96.078431%);fill-opacity:1;" d="M 100.171875 91.277344 L 100.542969 96.4375 L 103.496094 92.199219 L 101.277344 96.8125 L 105.890625 94.59375 L 101.648438 97.550781 L 106.816406 97.917969 L 101.648438 98.285156 L 105.890625 101.238281 L 101.277344 99.023438 L 103.496094 103.632812 L 100.542969 99.394531 L 100.171875 104.554688 L 99.804688 99.394531 L 96.855469 103.632812 L 99.066406 99.023438 L 94.457031 101.238281 L 98.699219 98.285156 L 93.535156 97.917969 L 98.699219 97.550781 L 94.457031 94.59375 L 99.066406 96.8125 L 96.855469 92.199219 L 99.804688 96.4375 Z M 100.171875 91.277344 "/>
<path style=" stroke:none;fill-rule:nonzero;fill:rgb(86.666667%,18.039216%,26.666667%);fill-opacity:1;" d="M 100 95.570312 L 98.957031 96.617188 C 98.957031 96.617188 99.214844 98.179688 99.128906 98.4375 C 99.042969 98.699219 100 100 100 100 L 101.300781 98.4375 L 100.957031 96.355469 Z M 100 95.570312 "/>
<path style=" stroke:none;fill-rule:nonzero;fill:rgb(13.333333%,40%,60%);fill-opacity:1;" d="M 100.523438 93.75 C 104.777344 93.75 107.207031 95.832031 107.207031 95.832031 L 105.644531 93.054688 C 105.644531 93.054688 103.128906 91.144531 100.179688 91.144531 C 97.226562 91.144531 93.929688 93.488281 93.929688 93.488281 L 92.449219 96.4375 C 92.449219 96.4375 96.265625 93.75 100.523438 93.75 Z M 100.523438 93.75 "/>
<path style=" stroke:none;fill-rule:nonzero;fill:rgb(100%,80%,30.196078%);fill-opacity:1;" d="M 100.523438 93.75 C 104.777344 93.75 107.207031 95.832031 107.207031 95.832031 L 106.078125 93.839844 C 106.078125 93.839844 103.039062 92.015625 100.089844 92.015625 C 97.140625 92.015625 93.488281 94.359375 93.488281 94.359375 L 92.445312 96.445312 C 92.449219 96.4375 96.265625 93.75 100.523438 93.75 Z M 100.523438 93.75 "/>
<path style=" stroke:none;fill-rule:nonzero;fill:rgb(86.666667%,18.039216%,26.666667%);fill-opacity:1;" d="M 100.523438 93.75 C 104.777344 93.75 107.207031 95.832031 107.207031 95.832031 L 106.421875 94.535156 C 106.421875 94.535156 104.078125 92.882812 100.082031 93.054688 C 97.132812 93.054688 93.050781 95.226562 93.050781 95.226562 L 92.445312 96.445312 C 92.449219 96.4375 96.265625 93.75 100.523438 93.75 Z M 100.523438 93.75 "/>
<path style=" stroke:none;fill-rule:nonzero;fill:rgb(93.333333%,93.333333%,93.333333%);fill-opacity:1;" d="M 97.707031 120.816406 L 103.238281 120.816406 L 103.238281 126.121094 L 97.707031 126.121094 Z M 96.820312 79.679688 L 92.84375 79.679688 L 90.855469 74.816406 L 94.832031 74.371094 Z M 105.890625 81.890625 L 103.238281 81.003906 L 104.566406 74.589844 L 109.648438 75.035156 Z M 82.003906 109.09375 L 74.265625 110.859375 L 74.042969 105.554688 L 81.785156 104.449219 Z M 84 114.621094 L 77.582031 117.277344 L 76.035156 113.078125 L 82.003906 111.082031 Z M 126.683594 109.761719 L 119.605469 107.765625 L 119.605469 104.011719 L 127.566406 102.898438 Z M 123.144531 117.054688 L 116.511719 113.960938 L 118.714844 109.976562 L 126.023438 112.1875 Z M 123.144531 117.054688 "/>
</g>
</svg>
