<?xml version="1.0" encoding="UTF-8"?>
<svg xmlns="http://www.w3.org/2000/svg" xmlns:xlink="http://www.w3.org/1999/xlink" width="200px" height="px" viewBox="0 0 200 200" version="1.1">
<g id="surface1">
<path style=" stroke:none;fill-rule:nonzero;fill:rgb(84.313725%,7.843137%,10.196078%);fill-opacity:1;" d="M 7.683594 166.515625 C 11.578125 170.15625 16.65625 172.222656 22.222656 172.222656 L 177.777344 172.222656 C 190.050781 172.222656 200 162.273438 200 147.222656 L 200 100 L 97.222656 100 Z M 7.683594 166.515625 "/>
<path style=" stroke:none;fill-rule:nonzero;fill:rgb(93.333333%,93.333333%,93.333333%);fill-opacity:1;" d="M 177.777344 27.777344 L 22.222656 27.777344 C 16.578125 27.777344 11.445312 29.898438 7.523438 33.367188 L 97.222656 100 L 200 100 L 200 50 C 200 37.726562 190.050781 27.777344 177.777344 27.777344 Z M 177.777344 27.777344 "/>
<path style=" stroke:none;fill-rule:nonzero;fill:rgb(6.666667%,27.058824%,49.411765%);fill-opacity:1;" d="M 7.683594 166.515625 L 97.222656 100 L 7.523438 33.367188 C 2.917969 37.4375 0 43.371094 0 50 L 0 147.222656 C 0 155.445312 2.984375 162.128906 7.683594 166.515625 Z M 7.683594 166.515625 "/>
</g>
</svg>
