<?xml version="1.0" encoding="UTF-8"?>
<svg xmlns="http://www.w3.org/2000/svg" xmlns:xlink="http://www.w3.org/1999/xlink" width="200px" height="200px" viewBox="0 0 200 200" version="1.1">
<g id="surface1">
<path style=" stroke:none;fill-rule:nonzero;fill:rgb(0%,40%,0%);fill-opacity:1;" d="M 200 150 C 200 162.273438 190.050781 172.222656 177.777344 172.222656 L 22.222656 172.222656 C 9.949219 172.222656 0 162.273438 0 150 L 0 50 C 0 37.726562 9.949219 27.777344 22.222656 27.777344 L 177.777344 27.777344 C 190.050781 27.777344 200 37.726562 200 50 Z M 200 150 "/>
<path style=" stroke:none;fill-rule:nonzero;fill:rgb(83.529412%,16.862745%,11.764706%);fill-opacity:1;" d="M 177.777344 27.777344 L 83.332031 27.777344 L 83.332031 172.222656 L 177.777344 172.222656 C 190.050781 172.222656 200 162.273438 200 150 L 200 50 C 200 37.726562 190.050781 27.777344 177.777344 27.777344 Z M 177.777344 27.777344 "/>
<path style=" stroke:none;fill-rule:nonzero;fill:rgb(100%,80%,30.196078%);fill-opacity:1;" d="M 83.332031 55.554688 C 58.789062 55.554688 38.890625 75.457031 38.890625 100 C 38.890625 124.542969 58.789062 144.445312 83.332031 144.445312 C 107.878906 144.445312 127.777344 124.542969 127.777344 100 C 127.777344 75.457031 107.878906 55.554688 83.332031 55.554688 Z M 105.523438 88.542969 L 117.128906 80.804688 C 119.855469 85.601562 121.589844 91.023438 122.0625 96.8125 Z M 88.890625 133.332031 L 103.289062 133.332031 C 98.960938 135.929688 94.09375 137.699219 88.890625 138.445312 Z M 44.605469 96.8125 C 45.066406 91.132812 46.734375 85.800781 49.371094 81.078125 L 58.273438 89.976562 Z M 44.605469 103.183594 L 65.421875 113.59375 L 67.90625 108.621094 L 50.65625 100 L 62.410156 94.121094 L 70.253906 101.964844 L 74.183594 98.039062 L 67.648438 91.503906 L 67.90625 91.378906 L 65.421875 86.40625 L 63.511719 87.359375 L 58.09375 81.945312 L 66.210938 83.300781 L 67.121094 77.820312 L 53.15625 75.496094 C 59.179688 68.089844 67.878906 62.976562 77.777344 61.5625 L 77.777344 127.777344 L 60.5625 127.777344 L 73.761719 118.976562 L 70.679688 114.355469 L 54.011719 125.464844 L 54.089844 125.582031 C 48.761719 119.488281 45.300781 111.738281 44.605469 103.183594 Z M 77.777344 138.445312 C 72.570312 137.695312 67.707031 135.929688 63.378906 133.332031 L 77.777344 133.332031 Z M 112.707031 125.445312 L 96.410156 109.148438 L 92.484375 113.078125 L 95.101562 115.695312 L 92.90625 118.984375 L 106.105469 127.777344 L 88.890625 127.777344 L 88.890625 61.554688 C 96.226562 62.605469 102.910156 65.671875 108.328125 70.226562 L 93.566406 75.148438 L 95.320312 80.417969 L 111.988281 74.859375 L 111.417969 73.148438 C 112.34375 74.117188 113.210938 75.132812 114.035156 76.195312 L 98.457031 86.578125 L 100 88.890625 L 98.753906 91.371094 L 116.011719 100 L 98.761719 108.628906 L 101.246094 113.601562 L 122.0625 103.1875 C 121.371094 111.671875 117.964844 119.371094 112.707031 125.445312 Z M 112.707031 125.445312 "/>
<path style=" stroke:none;fill-rule:nonzero;fill:rgb(83.529412%,16.862745%,11.764706%);fill-opacity:1;" d="M 61.109375 72.222656 L 61.109375 111.109375 C 61.109375 123.382812 71.0625 133.332031 83.332031 133.332031 C 95.605469 133.332031 105.554688 123.382812 105.554688 111.109375 L 105.554688 72.222656 Z M 61.109375 72.222656 "/>
<path style=" stroke:none;fill-rule:nonzero;fill:rgb(100%,100%,100%);fill-opacity:1;" d="M 66.667969 77.777344 L 66.667969 111.109375 C 66.667969 120.3125 74.128906 127.777344 83.332031 127.777344 C 92.539062 127.777344 100 120.3125 100 111.109375 L 100 77.777344 Z M 66.667969 77.777344 "/>
<path style=" stroke:none;fill-rule:nonzero;fill:rgb(50.980392%,60.392157%,80.392157%);fill-opacity:1;" d="M 72.222656 94.445312 L 94.445312 94.445312 L 94.445312 105.554688 L 72.222656 105.554688 Z M 72.222656 94.445312 "/>
<path style=" stroke:none;fill-rule:nonzero;fill:rgb(50.980392%,60.392157%,80.392157%);fill-opacity:1;" d="M 77.777344 88.890625 L 88.890625 88.890625 L 88.890625 111.109375 L 77.777344 111.109375 Z M 77.777344 88.890625 "/>
<path style=" stroke:none;fill-rule:nonzero;fill:rgb(0%,20%,60%);fill-opacity:1;" d="M 66.667969 94.445312 L 72.222656 94.445312 L 72.222656 105.554688 L 66.667969 105.554688 Z M 77.777344 94.445312 L 88.890625 94.445312 L 88.890625 105.554688 L 77.777344 105.554688 Z M 94.445312 94.445312 L 100 94.445312 L 100 105.554688 L 94.445312 105.554688 Z M 77.777344 111.109375 L 88.890625 111.109375 L 88.890625 122.222656 L 77.777344 122.222656 Z M 77.777344 77.777344 L 88.890625 77.777344 L 88.890625 88.890625 L 77.777344 88.890625 Z M 77.777344 77.777344 "/>
</g>
</svg>
