<?xml version="1.0" encoding="UTF-8"?>
<svg xmlns="http://www.w3.org/2000/svg" xmlns:xlink="http://www.w3.org/1999/xlink" width="200px" height="px" viewBox="0 0 200 200" version="1.1">
<g id="surface1">
<path style=" stroke:none;fill-rule:nonzero;fill:rgb(93.333333%,93.333333%,93.333333%);fill-opacity:1;" d="M 200 150 C 200 162.273438 190.050781 172.222656 177.777344 172.222656 L 22.222656 172.222656 C 9.949219 172.222656 0 162.273438 0 150 L 0 50 C 0 37.726562 9.949219 27.777344 22.222656 27.777344 L 177.777344 27.777344 C 190.050781 27.777344 200 37.726562 200 50 Z M 200 150 "/>
<path style=" stroke:none;fill-rule:nonzero;fill:rgb(92.941176%,10.588235%,18.431373%);fill-opacity:1;" d="M 138.890625 100 C 138.890625 121.476562 121.476562 138.890625 100 138.890625 C 78.523438 138.890625 61.109375 121.476562 61.109375 100 C 61.109375 78.523438 78.523438 61.109375 100 61.109375 C 121.476562 61.109375 138.890625 78.523438 138.890625 100 Z M 138.890625 100 "/>
</g>
</svg>
