<?xml version="1.0" encoding="UTF-8"?>
<svg xmlns="http://www.w3.org/2000/svg" xmlns:xlink="http://www.w3.org/1999/xlink" width="200px" height="px" viewBox="0 0 200 200" version="1.1">
<g id="surface1">
<path style=" stroke:none;fill-rule:nonzero;fill:rgb(0%,61.960784%,28.627451%);fill-opacity:1;" d="M 177.777344 27.777344 L 22.222656 27.777344 C 9.949219 27.777344 0 37.726562 0 50 L 0 150 C 0 162.273438 9.949219 172.222656 22.222656 172.222656 L 177.777344 172.222656 C 190.050781 172.222656 200 162.273438 200 150 L 200 50 C 200 37.726562 190.050781 27.777344 177.777344 27.777344 Z M 177.777344 27.777344 "/>
<path style=" stroke:none;fill-rule:nonzero;fill:rgb(100%,100%,100%);fill-opacity:1;" d="M 10.042969 31.410156 C 9.1875 31.972656 8.367188 32.59375 7.601562 33.265625 L 7.601562 166.734375 C 8.371094 167.40625 9.1875 168.027344 10.050781 168.59375 L 200 100 L 10.042969 31.410156 C 10.050781 31.40625 10.042969 31.40625 10.042969 31.410156 Z M 10.042969 31.410156 "/>
<path style=" stroke:none;fill-rule:nonzero;fill:rgb(98.823529%,81.960784%,8.627451%);fill-opacity:1;" d="M 17.601562 159.511719 L 180.554688 100 L 17.601562 40.488281 Z M 17.601562 159.511719 "/>
<path style=" stroke:none;fill-rule:nonzero;fill:rgb(7.843137%,7.843137%,7.843137%);fill-opacity:1;" d="M 100 100 L 17.601562 40.488281 L 7.601562 33.265625 C 5.878906 34.773438 4.394531 36.539062 3.207031 38.5 L 3.304688 161.421875 C 4.496094 163.390625 5.878906 165.222656 7.601562 166.726562 L 17.601562 159.503906 Z M 100 100 "/>
<path style=" stroke:none;fill-rule:nonzero;fill:rgb(80.784314%,6.666667%,14.901961%);fill-opacity:1;" d="M 3.207031 38.5 L 3.199219 38.511719 C 1.167969 41.867188 0 45.792969 0 50 L 0 150 C 0 154.207031 1.273438 158.070312 3.300781 161.429688 L 88.890625 100 Z M 3.207031 38.5 "/>
</g>
</svg>
