<?xml version="1.0" encoding="UTF-8"?>
<svg xmlns="http://www.w3.org/2000/svg" xmlns:xlink="http://www.w3.org/1999/xlink" width="200px" height="200px" viewBox="0 0 200 200" version="1.1">
<g id="surface1">
<path style=" stroke:none;fill-rule:nonzero;fill:rgb(100%,100%,100%);fill-opacity:1;" d="M 61.539062 116.667969 L 100 172.222656 L 138.460938 116.667969 Z M 61.539062 116.667969 "/>
<path style=" stroke:none;fill-rule:nonzero;fill:rgb(7.843137%,7.843137%,7.843137%);fill-opacity:1;" d="M 57.105469 83.332031 L 56.523438 83.210938 L 78.679688 78.617188 L 59.832031 65.1875 L 81.929688 70.128906 L 69.261719 49.90625 L 87.929688 63.628906 L 83.367188 39.695312 L 95.765625 60.109375 L 100 36.109375 L 104.238281 60.117188 L 116.640625 39.699219 L 112.078125 63.632812 L 130.746094 49.910156 L 118.078125 70.132812 L 140.171875 65.195312 L 121.328125 78.621094 L 143.484375 83.214844 L 142.894531 83.332031 L 161.539062 83.332031 L 194.628906 35.539062 C 190.550781 30.792969 184.523438 27.777344 177.777344 27.777344 L 22.222656 27.777344 C 15.476562 27.777344 9.449219 30.792969 5.371094 35.539062 L 38.460938 83.332031 Z M 57.105469 83.332031 "/>
<path style=" stroke:none;fill-rule:nonzero;fill:rgb(98.823529%,81.960784%,8.627451%);fill-opacity:1;" d="M 143.476562 83.210938 L 121.320312 78.617188 L 140.167969 65.1875 L 118.078125 70.128906 L 130.746094 49.90625 L 112.078125 63.628906 L 116.640625 39.695312 L 104.238281 60.117188 L 100 36.109375 L 95.761719 60.117188 L 83.359375 39.695312 L 87.921875 63.628906 L 69.253906 49.90625 L 81.921875 70.128906 L 59.832031 65.1875 L 78.679688 78.617188 L 56.523438 83.210938 L 57.105469 83.332031 L 142.894531 83.332031 Z M 143.476562 83.210938 "/>
<path style=" stroke:none;fill-rule:nonzero;fill:rgb(0%,44.705882%,77.647059%);fill-opacity:1;" d="M 57.105469 83.332031 L 38.460938 83.332031 L 61.539062 116.667969 L 138.460938 116.667969 L 161.539062 83.332031 Z M 57.105469 83.332031 "/>
<path style=" stroke:none;fill-rule:nonzero;fill:rgb(80.784314%,6.666667%,14.901961%);fill-opacity:1;" d="M 161.539062 83.332031 L 138.460938 116.667969 L 100 172.222656 L 177.777344 172.222656 C 190.050781 172.222656 200 162.273438 200 150 L 200 50 C 200 44.472656 197.964844 39.429688 194.628906 35.539062 Z M 38.460938 83.332031 L 5.371094 35.539062 C 2.035156 39.429688 0 44.472656 0 50 L 0 150 C 0 162.273438 9.949219 172.222656 22.222656 172.222656 L 100 172.222656 L 61.539062 116.667969 Z M 38.460938 83.332031 "/>
</g>
</svg>
