<?xml version="1.0" encoding="UTF-8"?>
<svg xmlns="http://www.w3.org/2000/svg" xmlns:xlink="http://www.w3.org/1999/xlink" width="200px" height="200px" viewBox="0 0 200 200" version="1.1">
<g id="surface1">
<path style=" stroke:none;fill-rule:nonzero;fill:rgb(1.176471%,18.039216%,63.137255%);fill-opacity:1;" d="M 200 150 C 200 162.273438 190.050781 172.222656 177.777344 172.222656 L 22.222656 172.222656 C 9.949219 172.222656 0 162.273438 0 150 L 0 50 C 0 37.726562 9.949219 27.777344 22.222656 27.777344 L 177.777344 27.777344 C 190.050781 27.777344 200 37.726562 200 50 Z M 200 150 "/>
<path style=" stroke:none;fill-rule:nonzero;fill:rgb(87.843137%,11.764706%,14.117647%);fill-opacity:1;" d="M 0 58.734375 L 200 58.734375 L 200 141.261719 L 0 141.261719 Z M 0 58.734375 "/>
<path style=" stroke:none;fill-rule:nonzero;fill:rgb(100%,100%,100%);fill-opacity:1;" d="M 150.117188 127.207031 L 150.117188 122.195312 L 147.105469 122.195312 L 147.105469 117.1875 L 144.351562 117.1875 L 144.351562 113.933594 L 143.09375 113.933594 L 143.09375 111.429688 L 140.660156 111.429688 L 139.339844 109.535156 L 139.339844 100.648438 L 140.84375 99.144531 L 140.84375 90.878906 L 139.589844 92.003906 L 139.589844 89.371094 L 138.582031 89.371094 L 138.582031 90.628906 L 136.589844 90.628906 L 136.589844 86.609375 L 134.207031 88.746094 L 134.960938 86.050781 L 133.578125 79.851562 L 132.820312 79.851562 C 132.820312 79.851562 132.207031 77.214844 130.949219 77.214844 C 130.949219 77.214844 131.449219 75.59375 130.445312 75.59375 C 129.4375 75.59375 129.6875 76.84375 129.6875 76.84375 C 129.6875 76.84375 127.9375 77.601562 127.9375 79.472656 L 126.9375 79.351562 L 125.433594 86.609375 L 126.496094 88.746094 L 124.050781 86.609375 L 124.050781 92.128906 L 110.777344 92.128906 L 110.777344 87.117188 L 110.023438 87.867188 L 110.023438 89.621094 L 108.273438 89.621094 L 108.273438 87.867188 L 109.527344 86.738281 L 109.527344 84.359375 L 108.515625 85.421875 L 107.011719 83.355469 L 107.011719 81.601562 L 106.140625 82.472656 L 105.882812 80.972656 L 107.140625 78.972656 L 106.949219 77.34375 L 105.515625 79.09375 L 105.515625 77.59375 L 106.144531 76.214844 L 103.261719 68.945312 L 102.570312 66.933594 L 101.511719 66.8125 L 101.511719 65.804688 C 101.511719 65.804688 100.753906 64.054688 99.753906 64.054688 C 98.753906 64.054688 98.003906 65.804688 98.003906 65.804688 L 98.003906 66.8125 L 96.945312 66.933594 L 96.25 68.945312 L 93.371094 76.214844 L 94 77.59375 L 94 79.09375 L 92.5625 77.34375 L 92.367188 78.972656 L 93.621094 80.972656 L 93.378906 82.472656 L 92.5 81.601562 L 92.5 83.355469 L 91 85.421875 L 89.996094 84.359375 L 89.996094 86.738281 L 91.25 87.867188 L 91.25 89.621094 L 89.5 89.621094 L 89.5 87.867188 L 88.746094 87.117188 L 88.746094 92.128906 L 75.445312 92.128906 L 75.445312 86.609375 L 73 88.746094 L 74.0625 86.609375 L 72.554688 79.351562 L 71.550781 79.472656 C 71.550781 77.601562 69.800781 76.84375 69.800781 76.84375 C 69.800781 76.84375 70.050781 75.59375 69.042969 75.59375 C 68.042969 75.59375 68.542969 77.214844 68.542969 77.214844 C 67.289062 77.214844 66.667969 79.851562 66.667969 79.851562 L 65.917969 79.851562 L 64.539062 86.050781 L 65.289062 88.746094 L 62.910156 86.609375 L 62.910156 90.621094 L 60.90625 90.621094 L 60.90625 89.367188 L 59.898438 89.367188 L 59.898438 92 L 58.648438 90.871094 L 58.648438 99.140625 L 60.148438 100.644531 L 60.148438 109.527344 L 58.820312 111.421875 L 56.890625 111.421875 L 56.890625 113.929688 L 55.144531 113.929688 L 55.144531 117.183594 L 52.632812 117.183594 L 52.632812 122.1875 L 49.882812 122.1875 L 49.882812 127.199219 L 47.121094 127.199219 L 46.871094 132.707031 L 152.621094 132.707031 L 152.871094 127.199219 L 150.117188 127.199219 Z M 150.117188 127.207031 "/>
<path style=" stroke:none;fill-rule:nonzero;fill:rgb(85.882353%,49.803922%,52.54902%);fill-opacity:1;" d="M 64.421875 99.273438 L 64.421875 108.910156 L 59.90625 108.910156 L 58.828125 111.011719 L 64.421875 111.011719 L 64.421875 132.714844 L 66.320312 132.714844 L 66.320312 99.273438 Z M 140.707031 111.011719 L 139.714844 108.910156 L 135.628906 108.910156 L 135.628906 99.273438 L 133.75 99.273438 L 133.75 132.714844 L 135.628906 132.714844 L 135.628906 111.011719 Z M 95.027344 99.273438 L 95.027344 108.910156 L 74.515625 108.910156 L 74.515625 99.214844 L 72.683594 99.214844 L 72.683594 132.660156 L 74.515625 132.660156 L 74.515625 111.011719 L 95.027344 111.011719 L 95.027344 132.714844 L 96.988281 132.714844 L 96.988281 99.273438 Z M 125.0625 99.273438 L 125.0625 108.910156 L 105.066406 108.910156 L 105.066406 99.273438 L 103.128906 99.273438 L 103.128906 132.714844 L 105.066406 132.714844 L 105.066406 111.011719 L 125.0625 111.011719 L 125.0625 132.714844 L 127.433594 132.714844 L 127.433594 99.273438 Z M 125.0625 99.273438 "/>
</g>
</svg>
