<?xml version="1.0" encoding="UTF-8"?>
<svg xmlns="http://www.w3.org/2000/svg" xmlns:xlink="http://www.w3.org/1999/xlink" width="200px" height="px" viewBox="0 0 200 200" version="1.1">
<g id="surface1">
<path style=" stroke:none;fill-rule:nonzero;fill:rgb(93.333333%,93.333333%,93.333333%);fill-opacity:1;" d="M 200 150 C 200 162.273438 190.050781 172.222656 177.777344 172.222656 L 22.222656 172.222656 C 9.949219 172.222656 0 162.273438 0 150 L 0 50 C 0 37.726562 9.949219 27.777344 22.222656 27.777344 L 177.777344 27.777344 C 190.050781 27.777344 200 37.726562 200 50 Z M 200 150 "/>
<path style=" stroke:none;fill-rule:nonzero;fill:rgb(80.784314%,6.666667%,14.901961%);fill-opacity:1;" d="M 177.777344 27.777344 L 22.222656 27.777344 C 9.949219 27.777344 0 37.726562 0 50 L 0 100 L 199.589844 100 L 200 50 C 200 37.726562 190.050781 27.777344 177.777344 27.777344 Z M 177.777344 27.777344 "/>
<path style=" stroke:none;fill-rule:nonzero;fill:rgb(100%,67.45098%,20%);fill-opacity:1;" d="M 115.988281 98.539062 C 117.527344 96.445312 119.671875 96.457031 122.234375 97.789062 C 121.878906 94.394531 117.828125 92.25 116 91.960938 C 116.746094 89.460938 119.140625 88.210938 121.988281 88.582031 C 120.511719 85.511719 115.621094 85.410156 113.792969 85.785156 C 113.65625 83.167969 115.496094 81.160156 118.285156 80.515625 C 115.871094 78.144531 111.246094 79.753906 109.644531 80.726562 C 108.644531 78.320312 109.683594 75.800781 112.101562 74.222656 C 109.035156 72.828125 105.214844 75.949219 104.050781 77.421875 C 102.289062 75.511719 102.429688 72.777344 104.167969 70.460938 C 100.8125 70.210938 98.285156 74.488281 97.683594 76.273438 C 95.382812 75.09375 94.589844 72.488281 95.429688 69.707031 C 92.207031 70.644531 91.265625 75.535156 91.3125 77.417969 C 88.761719 77.109375 87.128906 74.933594 86.976562 72.023438 C 84.265625 74.027344 85.027344 78.945312 85.707031 80.699219 C 83.199219 81.304688 80.933594 79.816406 79.816406 77.140625 C 77.945312 79.964844 80.316406 84.320312 81.542969 85.734375 C 79.390625 87.167969 76.765625 86.566406 74.8125 84.429688 C 74 87.738281 77.699219 91.011719 79.332031 91.910156 C 77.792969 94.003906 76.867188 95.542969 74.3125 94.226562 C 74.660156 97.621094 77.503906 98.199219 79.339844 98.484375 Z M 115.988281 98.539062 "/>
<path style=" stroke:none;fill-rule:nonzero;fill:rgb(100%,94.509804%,0%);fill-opacity:1;" d="M 110.679688 95.234375 L 123.265625 90.660156 L 109.910156 90.726562 L 120.1875 82.042969 L 107.648438 86.753906 L 114.390625 75.023438 L 104.1875 83.804688 L 106.570312 70.4375 L 99.945312 82.234375 L 97.683594 68.851562 L 95.421875 82.234375 L 88.800781 70.4375 L 91.183594 83.804688 L 80.988281 75.023438 L 87.722656 86.753906 L 75.183594 82.042969 L 85.464844 90.726562 L 72.09375 90.660156 L 84.695312 95.234375 Z M 110.679688 95.234375 "/>
<path style=" stroke:none;fill-rule:nonzero;fill:rgb(100%,94.509804%,0%);fill-opacity:1;" d="M 97.683594 108.449219 C 104.859375 108.449219 110.679688 102.539062 110.679688 95.246094 C 110.679688 87.949219 104.859375 82.039062 97.683594 82.039062 C 90.503906 82.039062 84.6875 87.945312 84.6875 95.246094 C 84.6875 102.535156 90.503906 108.449219 97.683594 108.449219 Z M 97.683594 108.449219 "/>
<path style=" stroke:none;fill-rule:nonzero;fill:rgb(94.509804%,35.294118%,16.078431%);fill-opacity:1;" d="M 97.683594 108.617188 C 90.421875 108.617188 84.523438 102.617188 84.523438 95.246094 C 84.523438 87.871094 90.421875 81.878906 97.683594 81.878906 C 104.9375 81.878906 110.84375 87.871094 110.84375 95.246094 C 110.84375 102.617188 104.9375 108.617188 97.683594 108.617188 Z M 97.683594 82.207031 C 90.609375 82.207031 84.851562 88.054688 84.851562 95.246094 C 84.851562 102.433594 90.605469 108.285156 97.683594 108.285156 C 104.753906 108.285156 110.511719 102.433594 110.511719 95.246094 C 110.511719 88.054688 104.753906 82.207031 97.683594 82.207031 Z M 97.683594 82.207031 "/>
<path style=" stroke:none;fill-rule:nonzero;fill:rgb(100%,67.45098%,20%);fill-opacity:1;" d="M 96.878906 52.800781 C 95.832031 51.394531 94.539062 49.898438 92.976562 49.195312 C 91.417969 48.496094 88.628906 48.054688 85.617188 48.84375 C 82.246094 49.722656 78.222656 51.082031 75.054688 50.160156 C 74.449219 49.988281 74.015625 50.605469 75.226562 51.304688 C 76.4375 52.011719 79.515625 52.1875 82.582031 51.789062 C 84.75 51.511719 87.609375 51.609375 88.734375 52.050781 C 90.078125 52.578125 92.5 54.382812 93.539062 56.226562 Z M 103.714844 60.457031 C 104.65625 60.082031 106.789062 59.90625 107.648438 60.050781 C 108.785156 60.238281 110.351562 59.679688 110.867188 59.445312 C 111.800781 59.027344 110.804688 58.316406 107.183594 58.523438 C 104.800781 58.648438 103.878906 59.699219 103.714844 60.457031 Z M 103.714844 60.457031 "/>
<path style=" stroke:none;fill-rule:nonzero;fill:rgb(98.823529%,81.960784%,8.627451%);fill-opacity:1;" d="M 117.1875 47.171875 C 109.695312 46.820312 107.789062 48.359375 104.15625 48.667969 C 100.832031 48.945312 98.746094 49.957031 97.054688 51.921875 C 95.539062 53.683594 94.035156 55.285156 93.199219 55.839844 C 93.101562 55.90625 93.039062 55.976562 92.957031 56.050781 C 91.722656 55.960938 90.484375 55.464844 89.777344 54.785156 C 88.605469 53.644531 87.035156 53.511719 85.882812 54.671875 C 85.667969 54.894531 85.40625 55.25 84.6875 55.25 C 83.457031 55.25 81.488281 55.273438 81.460938 57.339844 C 82.109375 56.523438 82.566406 56.390625 84.667969 56.390625 C 84.988281 56.390625 85.382812 56.542969 85.707031 57.09375 C 86.183594 57.90625 87.238281 58.542969 88.304688 58.566406 C 89.359375 58.589844 89.8125 59.304688 90.511719 60.0625 C 92.550781 62.261719 97.09375 63.710938 101.339844 62.082031 C 103.535156 61.246094 105.589844 58.382812 109.3125 58.476562 C 112.859375 58.566406 114.714844 57.421875 111.648438 56.628906 C 108.570312 55.839844 106.226562 56.144531 104.15625 56.542969 C 103.421875 56.683594 102.683594 56.578125 101.910156 56.398438 C 102.210938 56.320312 102.433594 56.148438 102.503906 55.859375 C 103.042969 56.0625 103.867188 55.734375 104.042969 55.15625 C 104.578125 55.378906 105.378906 55.066406 105.582031 54.542969 C 106.292969 54.804688 107.027344 54.609375 107.351562 53.972656 C 107.820312 54.253906 108.644531 53.949219 108.777344 53.289062 C 109.253906 53.601562 109.996094 53.554688 110.167969 52.851562 C 110.773438 53.265625 111.503906 52.9375 111.464844 52.234375 C 111.746094 52.367188 112.320312 52.234375 112.371094 51.792969 C 113.496094 51.839844 114.921875 51.792969 114.921875 50.960938 C 115.878906 51.003906 117.214844 50.570312 117.1875 49.539062 C 117.855469 49.496094 118.707031 48.972656 118.90625 48.238281 C 119.09375 47.621094 118.398438 47.226562 117.1875 47.171875 Z M 117.1875 47.171875 "/>
<path style=" stroke:none;fill-rule:nonzero;fill:rgb(93.333333%,93.333333%,93.333333%);fill-opacity:1;" d="M 83.332031 100 L 111.109375 100 L 111.109375 111.109375 L 83.332031 111.109375 Z M 83.332031 100 "/>
<path style=" stroke:none;fill-rule:nonzero;fill:rgb(0%,14.117647%,49.019608%);fill-opacity:1;" d="M 199.589844 154.070312 C 197.457031 155.246094 195.042969 155.8125 190.910156 155.8125 C 180.816406 155.8125 180.816406 150.34375 170.710938 150.34375 C 160.609375 150.34375 160.609375 155.898438 150.195312 155.898438 C 140.40625 155.898438 140.40625 150.34375 130.148438 150.34375 C 120.210938 150.34375 120.210938 155.898438 110.109375 155.898438 C 100.011719 155.898438 100.011719 150.34375 89.90625 150.34375 C 79.804688 150.34375 79.804688 155.898438 69.707031 155.898438 C 59.605469 155.898438 59.605469 150.34375 49.503906 150.34375 C 39.40625 150.34375 39.40625 155.898438 29.304688 155.898438 C 19.207031 155.898438 19.207031 150.34375 9.101562 150.34375 C 4.867188 150.34375 2.429688 151.332031 0.261719 152.472656 C 1.496094 163.5625 10.792969 172.222656 22.222656 172.222656 L 177.777344 172.222656 C 188.65625 172.222656 197.671875 164.398438 199.589844 154.070312 Z M 200 141.015625 L 200 130.214844 C 197.765625 131.484375 195.300781 132.292969 190.90625 132.292969 C 180.8125 132.292969 180.8125 126.699219 170.707031 126.699219 C 160.605469 126.699219 160.605469 132.253906 150.1875 132.253906 C 140.398438 132.253906 140.398438 126.699219 130.144531 126.699219 C 120.207031 126.699219 120.207031 132.253906 110.105469 132.253906 C 100.003906 132.253906 100.003906 126.699219 89.898438 126.699219 C 79.800781 126.699219 79.800781 132.253906 69.699219 132.253906 C 59.601562 132.253906 59.601562 126.699219 49.5 126.699219 C 39.398438 126.699219 39.398438 132.253906 29.300781 132.253906 C 19.199219 132.253906 19.199219 126.699219 9.09375 126.699219 C 4.699219 126.699219 2.238281 127.753906 0.00390625 128.945312 L 0.00390625 140.054688 C 2.238281 138.867188 4.707031 137.8125 9.09375 137.8125 C 19.195312 137.8125 19.195312 143.367188 29.300781 143.367188 C 39.398438 143.367188 39.398438 137.8125 49.5 137.8125 C 59.601562 137.8125 59.601562 143.367188 69.699219 143.367188 C 79.800781 143.367188 79.800781 137.8125 89.898438 137.8125 C 100 137.8125 100 143.367188 110.105469 143.367188 C 120.207031 143.367188 120.207031 137.8125 130.265625 137.8125 C 140.40625 137.8125 140.40625 143.367188 150.488281 143.367188 C 160.609375 143.367188 160.609375 137.8125 170.707031 137.8125 C 183.917969 137.8125 183.609375 143.316406 190.917969 143.316406 C 195.300781 143.316406 197.765625 142.167969 200 141.015625 Z M 200 117.367188 L 200 106.566406 C 197.765625 107.832031 195.300781 108.59375 190.90625 108.59375 C 180.8125 108.59375 180.8125 103.042969 170.707031 103.042969 C 160.605469 103.042969 160.605469 108.601562 150.1875 108.601562 C 140.398438 108.601562 140.398438 103.042969 130.144531 103.042969 C 120.207031 103.042969 120.207031 108.601562 110.105469 108.601562 C 100.003906 108.601562 100.003906 103.042969 89.898438 103.042969 C 79.800781 103.042969 79.800781 108.601562 69.699219 108.601562 C 59.601562 108.601562 59.601562 103.042969 49.5 103.042969 C 39.398438 103.042969 39.398438 108.601562 29.300781 108.601562 C 19.199219 108.601562 19.199219 103.042969 9.09375 103.042969 C 4.699219 103.042969 2.238281 104.105469 0.00390625 105.289062 L 0.00390625 116.398438 C 2.238281 115.210938 4.707031 114.15625 9.09375 114.15625 C 19.195312 114.15625 19.195312 119.710938 29.300781 119.710938 C 39.398438 119.710938 39.398438 114.15625 49.5 114.15625 C 59.601562 114.15625 59.601562 119.710938 69.699219 119.710938 C 79.800781 119.710938 79.800781 114.15625 89.898438 114.15625 C 100 114.15625 100 119.710938 110.105469 119.710938 C 120.207031 119.710938 120.207031 114.15625 130.265625 114.15625 C 140.40625 114.15625 140.40625 119.710938 150.488281 119.710938 C 160.609375 119.710938 160.609375 114.15625 170.707031 114.15625 C 180.816406 114.15625 180.816406 119.539062 190.917969 119.539062 C 195.300781 119.542969 197.765625 118.515625 200 117.367188 Z M 200 117.367188 "/>
<path style=" stroke:none;fill-rule:nonzero;fill:rgb(93.333333%,93.333333%,93.333333%);fill-opacity:1;" d="M 200 106.25 L 200 95.253906 C 197.765625 96.523438 195.300781 97.644531 190.90625 97.644531 C 180.8125 97.644531 180.8125 91.738281 170.707031 91.738281 C 160.605469 91.738281 160.605469 97.292969 150.1875 97.292969 C 140.398438 97.292969 140.398438 91.738281 130.144531 91.738281 C 120.207031 91.738281 120.207031 97.292969 110.105469 97.292969 C 100.003906 97.292969 100.003906 91.738281 89.898438 91.738281 C 79.800781 91.738281 79.800781 97.292969 69.699219 97.292969 C 59.601562 97.292969 59.601562 91.738281 49.5 91.738281 C 39.398438 91.738281 39.398438 97.292969 29.300781 97.292969 C 19.199219 97.292969 19.199219 91.738281 9.09375 91.738281 C 4.699219 91.738281 2.238281 92.792969 0.00390625 93.984375 L 0.00390625 105.09375 C 2.238281 103.910156 4.707031 102.851562 9.09375 102.851562 C 19.195312 102.851562 19.195312 108.40625 29.300781 108.40625 C 39.398438 108.40625 39.398438 102.851562 49.5 102.851562 C 59.601562 102.851562 59.601562 108.40625 69.699219 108.40625 C 79.800781 108.40625 79.800781 102.851562 89.898438 102.851562 C 100 102.851562 100 108.40625 110.105469 108.40625 C 120.207031 108.40625 120.207031 102.851562 130.265625 102.851562 C 140.40625 102.851562 140.40625 108.40625 150.488281 108.40625 C 160.609375 108.40625 160.609375 102.851562 170.707031 102.851562 C 180.816406 102.851562 180.816406 108.332031 190.917969 108.332031 C 195.300781 108.332031 197.765625 107.398438 200 106.25 Z M 200 106.25 "/>
</g>
</svg>
