<?xml version="1.0" encoding="UTF-8"?>
<svg xmlns="http://www.w3.org/2000/svg" xmlns:xlink="http://www.w3.org/1999/xlink" width="200px" height="200px" viewBox="0 0 200 200" version="1.1">
<g id="surface1">
<path style=" stroke:none;fill-rule:nonzero;fill:rgb(89.019608%,3.529412%,9.019608%);fill-opacity:1;" d="M 200 150 C 200 162.273438 190.050781 172.222656 177.777344 172.222656 L 22.222656 172.222656 C 9.949219 172.222656 0 162.273438 0 150 L 0 50 C 0 37.726562 9.949219 27.777344 22.222656 27.777344 L 177.777344 27.777344 C 190.050781 27.777344 200 37.726562 200 50 Z M 200 150 "/>
<path style=" stroke:none;fill-rule:nonzero;fill:rgb(93.333333%,93.333333%,93.333333%);fill-opacity:1;" d="M 88.890625 133.332031 C 70.476562 133.332031 55.554688 118.417969 55.554688 100 C 55.554688 81.589844 70.476562 66.667969 88.890625 66.667969 C 96.167969 66.667969 102.890625 69.027344 108.371094 72.988281 C 100.882812 64.523438 89.972656 59.148438 77.777344 59.148438 C 55.214844 59.148438 36.929688 77.4375 36.929688 100 C 36.929688 122.566406 55.214844 140.855469 77.777344 140.855469 C 89.972656 140.855469 100.890625 135.484375 108.371094 127.011719 C 102.894531 130.972656 96.179688 133.332031 88.890625 133.332031 Z M 110.628906 101.277344 L 124.183594 104.398438 L 125.40625 118.25 L 132.5625 106.328125 L 146.117188 109.445312 L 136.984375 98.957031 L 144.132812 87.027344 L 131.339844 92.472656 L 122.207031 81.976562 L 123.429688 95.832031 Z M 110.628906 101.277344 "/>
</g>
</svg>
