<?xml version="1.0" encoding="UTF-8"?>
<svg xmlns="http://www.w3.org/2000/svg" xmlns:xlink="http://www.w3.org/1999/xlink" width="200px" height="200px" viewBox="0 0 200 200" version="1.1">
<g id="surface1">
<path style=" stroke:none;fill-rule:nonzero;fill:rgb(69.803922%,13.72549%,20.392157%);fill-opacity:1;" d="M 196.917969 38.890625 C 193.066406 32.273438 185.984375 27.777344 177.777344 27.777344 L 100 27.777344 L 100 38.890625 Z M 0 138.890625 L 200 138.890625 L 200 150 L 0 150 Z M 100 94.445312 L 200 94.445312 L 200 105.554688 L 100 105.554688 Z M 100 72.222656 L 200 72.222656 L 200 83.332031 L 100 83.332031 Z M 0 116.667969 L 200 116.667969 L 200 127.777344 L 0 127.777344 Z M 22.222656 172.222656 L 177.777344 172.222656 C 185.984375 172.222656 193.066406 167.726562 196.917969 161.109375 L 3.082031 161.109375 C 6.933594 167.726562 14.015625 172.222656 22.222656 172.222656 Z M 100 50 L 200 50 L 200 61.109375 L 100 61.109375 Z M 100 50 "/>
<path style=" stroke:none;fill-rule:nonzero;fill:rgb(93.333333%,93.333333%,93.333333%);fill-opacity:1;" d="M 0.378906 153.773438 C 0.472656 154.289062 0.578125 154.804688 0.707031 155.3125 C 0.851562 155.871094 1.027344 156.410156 1.214844 156.957031 C 1.710938 158.394531 2.3125 159.785156 3.066406 161.082031 L 3.082031 161.109375 L 196.917969 161.109375 L 196.929688 161.089844 C 197.679688 159.792969 198.277344 158.40625 198.773438 156.972656 C 198.960938 156.421875 199.144531 155.871094 199.289062 155.300781 C 199.417969 154.800781 199.523438 154.289062 199.617188 153.773438 C 199.84375 152.550781 200 151.292969 200 150 L 0 150 C 0 151.292969 0.15625 152.542969 0.378906 153.773438 Z M 0 127.777344 L 200 127.777344 L 200 138.890625 L 0 138.890625 Z M 0 105.554688 L 0 116.667969 L 200 116.667969 L 200 105.554688 Z M 100 83.332031 L 200 83.332031 L 200 94.445312 L 100 94.445312 Z M 100 61.109375 L 200 61.109375 L 200 72.222656 L 100 72.222656 Z M 0 50 C 0 48.707031 0.167969 47.460938 0.378906 46.226562 C 0.15625 47.457031 0 48.707031 0 50 Z M 3.082031 38.890625 L 3.066406 38.917969 Z M 0.710938 44.6875 C 0.851562 44.121094 1.042969 43.582031 1.222656 43.039062 C 1.035156 43.582031 0.855469 44.128906 0.710938 44.6875 Z M 100 50 L 200 50 C 200 48.707031 199.84375 47.449219 199.617188 46.222656 C 199.523438 45.710938 199.421875 45.199219 199.289062 44.699219 C 199.140625 44.128906 198.960938 43.570312 198.765625 43.023438 C 198.273438 41.589844 197.671875 40.207031 196.921875 38.910156 C 196.929688 38.90625 196.921875 38.894531 196.917969 38.890625 L 100 38.890625 Z M 100 50 "/>
<path style=" stroke:none;fill-rule:nonzero;fill:rgb(23.529412%,23.137255%,43.137255%);fill-opacity:1;" d="M 100 27.777344 L 22.222656 27.777344 C 9.949219 27.777344 0 37.726562 0 50 L 0 105.554688 L 100 105.554688 Z M 100 27.777344 "/>
<path style=" stroke:none;fill-rule:nonzero;fill:rgb(100%,100%,100%);fill-opacity:1;" d="M 11.117188 42.921875 L 14.550781 45.417969 L 13.238281 49.445312 L 16.667969 46.957031 L 20.101562 49.445312 L 18.789062 45.417969 L 22.222656 42.921875 L 17.976562 42.921875 L 16.667969 38.890625 L 15.359375 42.921875 Z M 22.226562 54.035156 L 25.660156 56.527344 L 24.351562 60.554688 L 27.777344 58.066406 L 31.210938 60.554688 L 29.898438 56.527344 L 33.332031 54.035156 L 29.089844 54.035156 L 27.777344 50 L 26.472656 54.035156 Z M 44.449219 54.035156 L 47.882812 56.527344 L 46.570312 60.554688 L 50 58.066406 L 53.433594 60.554688 L 52.121094 56.527344 L 55.554688 54.035156 L 51.3125 54.035156 L 50 50 L 48.695312 54.035156 Z M 66.671875 54.035156 L 70.105469 56.527344 L 68.792969 60.554688 L 72.222656 58.066406 L 75.65625 60.554688 L 74.34375 56.527344 L 77.777344 54.035156 L 73.535156 54.035156 L 72.222656 50 L 70.917969 54.035156 Z M 22.226562 76.253906 L 25.660156 78.75 L 24.351562 82.777344 L 27.777344 80.289062 L 31.210938 82.777344 L 29.898438 78.75 L 33.332031 76.253906 L 29.089844 76.253906 L 27.777344 72.222656 L 26.472656 76.253906 Z M 44.449219 76.253906 L 47.882812 78.75 L 46.570312 82.777344 L 50 80.289062 L 53.433594 82.777344 L 52.121094 78.75 L 55.554688 76.253906 L 51.3125 76.253906 L 50 72.222656 L 48.695312 76.253906 Z M 66.671875 76.253906 L 70.105469 78.75 L 68.792969 82.777344 L 72.222656 80.289062 L 75.65625 82.777344 L 74.34375 78.75 L 77.777344 76.253906 L 73.535156 76.253906 L 72.222656 72.222656 L 70.917969 76.253906 Z M 33.339844 42.921875 L 36.773438 45.417969 L 35.460938 49.445312 L 38.890625 46.957031 L 42.320312 49.445312 L 41.011719 45.417969 L 44.445312 42.921875 L 40.199219 42.921875 L 38.890625 38.890625 L 37.582031 42.921875 Z M 55.5625 42.921875 L 58.996094 45.417969 L 57.683594 49.445312 L 61.109375 46.957031 L 64.542969 49.445312 L 63.234375 45.417969 L 66.667969 42.921875 L 62.421875 42.921875 L 61.109375 38.890625 L 59.804688 42.921875 Z M 77.785156 42.921875 L 81.214844 45.417969 L 79.90625 49.445312 L 83.332031 46.957031 L 86.765625 49.445312 L 85.457031 45.417969 L 88.890625 42.921875 L 84.644531 42.921875 L 83.332031 38.890625 L 82.027344 42.921875 Z M 11.117188 65.144531 L 14.550781 67.640625 L 13.238281 71.667969 L 16.667969 69.179688 L 20.101562 71.667969 L 18.789062 67.640625 L 22.222656 65.144531 L 17.976562 65.144531 L 16.667969 61.109375 L 15.359375 65.144531 Z M 35.460938 71.667969 L 38.890625 69.179688 L 42.320312 71.667969 L 41.011719 67.640625 L 44.445312 65.144531 L 40.199219 65.144531 L 38.890625 61.109375 L 37.582031 65.144531 L 33.339844 65.144531 L 36.773438 67.640625 Z M 55.5625 65.144531 L 58.996094 67.640625 L 57.683594 71.667969 L 61.109375 69.179688 L 64.542969 71.667969 L 63.234375 67.640625 L 66.667969 65.144531 L 62.421875 65.144531 L 61.109375 61.109375 L 59.804688 65.144531 Z M 77.785156 65.144531 L 81.214844 67.640625 L 79.90625 71.667969 L 83.332031 69.179688 L 86.765625 71.667969 L 85.457031 67.640625 L 88.890625 65.144531 L 84.644531 65.144531 L 83.332031 61.109375 L 82.027344 65.144531 Z M 11.117188 87.367188 L 14.550781 89.859375 L 13.238281 93.890625 L 16.667969 91.398438 L 20.101562 93.890625 L 18.789062 89.859375 L 22.222656 87.367188 L 17.976562 87.367188 L 16.667969 83.332031 L 15.359375 87.367188 Z M 35.460938 93.890625 L 38.890625 91.398438 L 42.320312 93.890625 L 41.011719 89.859375 L 44.445312 87.367188 L 40.199219 87.367188 L 38.890625 83.332031 L 37.582031 87.367188 L 33.339844 87.367188 L 36.773438 89.859375 Z M 55.5625 87.367188 L 58.996094 89.859375 L 57.683594 93.890625 L 61.109375 91.398438 L 64.542969 93.890625 L 63.234375 89.859375 L 66.667969 87.367188 L 62.421875 87.367188 L 61.109375 83.332031 L 59.804688 87.367188 Z M 77.785156 87.367188 L 81.214844 89.859375 L 79.90625 93.890625 L 83.332031 91.398438 L 86.765625 93.890625 L 85.457031 89.859375 L 88.890625 87.367188 L 84.644531 87.367188 L 83.332031 83.332031 L 82.027344 87.367188 Z M 77.785156 87.367188 "/>
</g>
</svg>
