<?xml version="1.0" encoding="UTF-8"?>
<svg xmlns="http://www.w3.org/2000/svg" xmlns:xlink="http://www.w3.org/1999/xlink" width="200px" height="px" viewBox="0 0 200 200" version="1.1">
<g id="surface1">
<path style=" stroke:none;fill-rule:nonzero;fill:rgb(7.843137%,7.843137%,7.843137%);fill-opacity:1;" d="M 200 150 C 200 162.273438 190.050781 172.222656 177.777344 172.222656 L 22.222656 172.222656 C 9.949219 172.222656 0 162.273438 0 150 L 0 50 C 0 37.726562 9.949219 27.777344 22.222656 27.777344 L 177.777344 27.777344 C 190.050781 27.777344 200 37.726562 200 50 Z M 200 150 "/>
<path style=" stroke:none;fill-rule:nonzero;fill:rgb(93.333333%,93.333333%,93.333333%);fill-opacity:1;" d="M 0 72.222656 L 200 72.222656 L 200 127.777344 L 0 127.777344 Z M 0 72.222656 "/>
<path style=" stroke:none;fill-rule:nonzero;fill:rgb(80.784314%,7.058824%,14.509804%);fill-opacity:1;" d="M 177.777344 27.777344 L 22.222656 27.777344 C 9.949219 27.777344 0 37.726562 0 50 L 0 72.222656 L 200 72.222656 L 200 50 C 200 37.726562 190.050781 27.777344 177.777344 27.777344 Z M 177.777344 27.777344 "/>
<path style=" stroke:none;fill-rule:nonzero;fill:rgb(74.901961%,57.647059%,0%);fill-opacity:1;" d="M 81.945312 119.789062 C 81.945312 119.789062 82.035156 121.179688 83.246094 121.871094 C 83.246094 121.871094 82.898438 122.917969 84.199219 123.523438 C 85.5 124.128906 90.1875 125.082031 98.351562 125.082031 C 106.511719 125.082031 111.109375 124.214844 112.328125 123.605469 C 113.542969 123 113.628906 121.609375 113.628906 121.609375 C 113.628906 121.609375 114.929688 120.917969 114.84375 120.050781 C 114.753906 119.183594 113.023438 118.226562 113.023438 118.226562 C 113.023438 118.226562 112.589844 117.101562 111.371094 116.667969 C 110.15625 116.234375 106.25 118.578125 98.785156 118.226562 C 91.316406 117.882812 87.066406 116.75 85.679688 116.839844 C 84.289062 116.929688 83.683594 118.316406 83.683594 118.316406 C 83.683594 118.316406 82.117188 119.011719 81.945312 119.789062 Z M 81.945312 119.789062 "/>
<path style=" stroke:none;fill-rule:nonzero;fill:rgb(93.333333%,93.333333%,93.333333%);fill-opacity:1;" d="M 82.898438 119.707031 C 82.828125 120.222656 83.945312 121.355469 83.945312 121.355469 C 83.945312 121.355469 83.945312 122.65625 85.070312 123.003906 C 86.199219 123.355469 90.800781 124.222656 98.265625 124.132812 C 105.734375 124.042969 111.027344 123.609375 111.632812 123.089844 C 112.238281 122.566406 112.761719 121.4375 112.761719 121.4375 C 112.761719 121.4375 113.976562 120.570312 113.890625 119.878906 C 113.800781 119.183594 112.066406 118.75 112.066406 118.75 C 112.066406 118.75 111.578125 117.707031 111 117.273438 C 110.421875 116.839844 106.6875 119.003906 98.699219 119.003906 C 90.882812 119.003906 86.371094 117.09375 85.59375 117.183594 C 84.8125 117.273438 84.292969 118.746094 84.292969 118.746094 C 84.292969 118.746094 82.988281 119.101562 82.898438 119.707031 Z M 82.898438 119.707031 "/>
<path style=" stroke:none;fill-rule:nonzero;fill:rgb(74.901961%,57.647059%,0%);fill-opacity:1;" d="M 115.882812 86.023438 C 115.882812 86.023438 115.710938 81.945312 111.976562 82.460938 C 108.246094 82.984375 107.984375 84.804688 103.988281 85.238281 L 103.167969 85.316406 C 102.566406 83.734375 102.078125 81.445312 102.078125 79.683594 C 102.078125 77.078125 102.859375 75.949219 100.167969 74.648438 C 97.476562 73.351562 96.957031 74.5625 96.957031 74.5625 C 96.957031 74.5625 94.871094 73.515625 93.917969 74.300781 C 92.960938 75.082031 93.484375 77.078125 93.917969 76.472656 C 94.351562 75.867188 96.089844 77.601562 96.089844 77.601562 C 96.679688 80.484375 95.003906 83.605469 93.859375 85.34375 C 93.464844 85.304688 93.148438 85.289062 92.707031 85.238281 C 88.710938 84.804688 88.449219 82.984375 84.714844 82.460938 C 80.984375 81.9375 80.8125 86.023438 80.8125 86.023438 L 79.332031 117.535156 L 82.371094 115.1875 L 82.390625 114.816406 L 88.710938 109.199219 L 89.765625 108.144531 L 87.148438 115.792969 C 87.148438 115.792969 83.15625 115.535156 84.285156 118.746094 C 84.285156 118.746094 84.890625 116.921875 85.933594 117.265625 C 86.976562 117.609375 90.011719 118.394531 90.011719 118.394531 L 91.054688 120.042969 L 92.355469 118.828125 L 96.433594 118.65625 C 96.433594 118.65625 97.734375 119 97.648438 120.132812 C 97.921875 119.503906 97.957031 118.988281 97.855469 118.5625 L 99.082031 118.476562 C 98.960938 118.921875 98.984375 119.464844 99.273438 120.140625 C 99.183594 119.011719 100.488281 118.660156 100.488281 118.660156 L 104.566406 118.832031 L 105.871094 120.050781 L 106.917969 118.398438 C 106.917969 118.398438 109.949219 117.617188 110.988281 117.273438 C 112.027344 116.929688 112.640625 118.75 112.640625 118.75 C 113.765625 115.539062 109.773438 115.800781 109.773438 115.800781 L 107.277344 108.503906 L 107.976562 109.207031 L 114.300781 114.820312 L 114.316406 115.195312 L 117.355469 117.539062 Z M 98.621094 105.121094 C 92.359375 101.253906 91.84375 91.496094 91.84375 91.496094 C 91.84375 91.496094 95.714844 91.292969 98.527344 89.320312 C 101.0625 91.570312 105.382812 91.316406 105.382812 91.316406 C 105.382812 91.316406 105.089844 101.117188 98.621094 105.121094 Z M 112.933594 84.8125 L 107.640625 89.84375 L 106.75 90.199219 C 105.839844 90.234375 101.40625 90.246094 98.609375 87.761719 C 95.140625 90.195312 90.367188 90.367188 90.367188 90.367188 L 89.628906 90.070312 L 83.765625 84.8125 L 82.226562 85.445312 C 82.292969 84.816406 82.640625 83.40625 84.550781 83.683594 C 87.683594 84.132812 88.976562 85.855469 92.277344 86.199219 L 93.210938 86.292969 L 92.882812 86.714844 C 93.394531 86.714844 94.148438 86.566406 94.707031 86.445312 L 95.332031 86.503906 L 95.050781 87.496094 C 95.496094 87.359375 96.140625 86.976562 96.667969 86.640625 L 98.109375 86.777344 L 98.4375 87.234375 L 99.539062 86.683594 L 100.277344 86.609375 C 100.917969 86.984375 101.828125 87.316406 101.828125 87.316406 L 102 86.449219 C 102.785156 86.972656 104.082031 86.972656 104.082031 86.972656 C 103.933594 86.851562 103.785156 86.539062 103.628906 86.273438 L 104.429688 86.1875 C 107.726562 85.84375 109.015625 84.121094 112.15625 83.671875 C 114.066406 83.398438 114.410156 84.804688 114.476562 85.433594 Z M 112.933594 84.8125 "/>
<path style=" stroke:none;fill-rule:nonzero;fill:rgb(93.333333%,93.333333%,93.333333%);fill-opacity:1;" d="M 96.527344 104.949219 L 93.398438 116.839844 L 88.195312 115.800781 L 93.578125 100.523438 Z M 100.410156 104.949219 L 103.535156 116.839844 L 108.746094 115.800781 L 103.359375 100.523438 Z M 100.410156 104.949219 "/>
<path style=" stroke:none;fill-rule:nonzero;fill:rgb(74.901961%,57.647059%,0%);fill-opacity:1;" d="M 93.144531 92.449219 C 93.144531 92.449219 93.578125 97.484375 95.832031 101.390625 L 95.832031 91.320312 C 95.832031 91.320312 94.355469 92.1875 93.144531 92.449219 Z M 103.996094 92.621094 C 103.996094 92.621094 103.5625 97.65625 101.304688 101.5625 L 101.304688 91.496094 C 101.300781 91.496094 102.777344 92.359375 103.996094 92.621094 Z M 103.996094 92.621094 "/>
<path style=" stroke:none;fill-rule:nonzero;fill:rgb(93.333333%,93.333333%,93.333333%);fill-opacity:1;" d="M 94.183594 75.433594 C 94.183594 75.433594 94.789062 74.828125 96.527344 76.039062 C 97.65625 76.828125 98.65625 77.429688 98.65625 77.429688 C 98.65625 77.429688 99.367188 76.679688 100.410156 76.851562 C 101.457031 77.023438 100.871094 78.472656 101.042969 81.503906 C 101.214844 84.542969 102.433594 85.84375 102.433594 85.84375 L 100.957031 84.976562 L 101.042969 85.933594 L 99.394531 85.148438 L 98.609375 86.277344 L 97.828125 85.0625 L 96.5625 85.832031 L 96.179688 84.800781 L 94.699219 85.582031 C 94.699219 85.582031 96.871094 82.894531 97.042969 79.9375 C 97.09375 79.054688 96.871094 77.070312 96.871094 77.070312 C 96.871094 77.070312 95.488281 75.34375 94.183594 75.433594 Z M 94.183594 75.433594 "/>
<path style=" stroke:none;fill-rule:nonzero;fill:rgb(74.901961%,57.647059%,0%);fill-opacity:1;" d="M 86.371094 120.3125 C 85.378906 120.90625 85.765625 121.265625 86.371094 121.527344 C 86.976562 121.789062 90.621094 122.226562 98.003906 122.394531 C 105.554688 122.566406 110.246094 121.699219 110.851562 121.351562 C 111.457031 121.003906 111.542969 120.394531 110.503906 120.222656 C 109.460938 120.050781 104.253906 120.917969 97.917969 120.917969 C 90.105469 120.921875 86.804688 120.050781 86.371094 120.3125 Z M 86.371094 120.3125 "/>
</g>
</svg>
