<?xml version="1.0" encoding="UTF-8"?>
<svg xmlns="http://www.w3.org/2000/svg" xmlns:xlink="http://www.w3.org/1999/xlink" width="200px" height="200px" viewBox="0 0 200 200" version="1.1">
<g id="surface1">
<path style=" stroke:none;fill-rule:nonzero;fill:rgb(0%,58.431373%,26.27451%);fill-opacity:1;" d="M 200 150 C 200 162.273438 190.050781 172.222656 177.777344 172.222656 L 22.222656 172.222656 C 9.949219 172.222656 0 162.273438 0 150 L 0 50 C 0 37.726562 9.949219 27.777344 22.222656 27.777344 L 177.777344 27.777344 C 190.050781 27.777344 200 37.726562 200 50 Z M 200 150 "/>
<path style=" stroke:none;fill-rule:nonzero;fill:rgb(93.333333%,93.333333%,93.333333%);fill-opacity:1;" d="M 0 72.222656 L 200 72.222656 L 200 127.777344 L 0 127.777344 Z M 0 72.222656 "/>
<path style=" stroke:none;fill-rule:nonzero;fill:rgb(0%,12.54902%,62.352941%);fill-opacity:1;" d="M 177.777344 27.777344 L 22.222656 27.777344 C 9.949219 27.777344 0 37.726562 0 50 L 0 72.222656 L 200 72.222656 L 200 50 C 200 37.726562 190.050781 27.777344 177.777344 27.777344 Z M 177.777344 27.777344 "/>
<path style=" stroke:none;fill-rule:evenodd;fill:rgb(16.078431%,18.431373%,20%);fill-opacity:1;" d="M 117.773438 110.328125 C 117.6875 110.066406 115.40625 111.109375 115.40625 111.109375 L 105.148438 97.988281 C 106.40625 95.738281 107.871094 92.027344 107.871094 87.410156 C 107.871094 80.515625 104.214844 78.707031 101.890625 78.222656 L 101.890625 77.917969 C 101.890625 76.960938 101.117188 76.1875 100.160156 76.1875 L 99.832031 76.1875 C 98.878906 76.1875 98.105469 76.960938 98.105469 77.917969 L 98.105469 78.226562 C 95.777344 78.710938 92.128906 80.523438 92.128906 87.417969 C 92.128906 92.128906 93.65625 95.90625 94.929688 98.140625 L 85.15625 111.109375 C 85.15625 111.109375 83.160156 110.066406 83.070312 110.328125 C 82.984375 110.589844 78.90625 117.101562 78.90625 117.101562 C 78.90625 117.101562 87.582031 122.765625 100 122.765625 C 111.109375 122.765625 121.515625 117.101562 121.515625 117.101562 C 121.515625 117.101562 117.859375 110.589844 117.773438 110.328125 Z M 106.078125 87.671875 C 106.078125 90.75 104.851562 94.101562 103.722656 96.167969 L 101.765625 93.667969 C 101.789062 93.554688 101.890625 93.484375 101.890625 93.367188 L 101.890625 89.320312 L 104.601562 89.320312 L 101.890625 86.609375 L 101.890625 80.382812 C 104.632812 81.351562 106.078125 84.378906 106.078125 87.671875 Z M 93.921875 87.671875 C 93.921875 84.371094 95.367188 81.351562 98.105469 80.382812 L 98.105469 86.609375 L 95.394531 89.320312 L 98.105469 89.320312 L 98.105469 93.367188 C 98.105469 93.503906 98.222656 93.59375 98.25 93.722656 L 96.332031 96.265625 C 95.199219 94.210938 93.921875 90.8125 93.921875 87.671875 Z M 93.921875 87.671875 "/>
<path style=" stroke:none;fill-rule:evenodd;fill:rgb(32.54902%,39.215686%,42.745098%);fill-opacity:1;" d="M 115.539062 113.023438 C 115.539062 113.023438 107.640625 115.945312 100 115.945312 C 92.359375 115.945312 84.460938 113.023438 84.460938 113.023438 L 82.550781 116.628906 C 82.550781 116.628906 90.621094 120.234375 100 120.234375 C 109.378906 120.234375 117.449219 116.628906 117.449219 116.628906 Z M 115.539062 113.023438 "/>
</g>
</svg>
