<?xml version="1.0" encoding="UTF-8"?>
<svg xmlns="http://www.w3.org/2000/svg" xmlns:xlink="http://www.w3.org/1999/xlink" width="200px" height="200px" viewBox="0 0 200 200" version="1.1">
<g id="surface1">
<path style=" stroke:none;fill-rule:nonzero;fill:rgb(80.784314%,6.666667%,14.901961%);fill-opacity:1;" d="M 6.378906 34.421875 C 2.433594 38.433594 0 43.933594 0 50 L 0 150 C 0 162.273438 9.949219 172.222656 22.222656 172.222656 L 138.832031 172.222656 L 6.382812 34.417969 Z M 177.777344 27.777344 L 61.167969 27.777344 L 193.617188 165.582031 C 197.566406 161.570312 200 156.070312 200 150 L 200 50 C 200 37.726562 190.050781 27.777344 177.777344 27.777344 Z M 177.777344 27.777344 "/>
<path style=" stroke:none;fill-rule:nonzero;fill:rgb(93.333333%,93.333333%,93.333333%);fill-opacity:1;" d="M 12.390625 30.066406 C 10.144531 31.179688 8.117188 32.648438 6.382812 34.417969 L 138.832031 172.222656 L 149.027344 172.222656 Z M 61.167969 27.777344 L 50.972656 27.777344 L 187.605469 169.933594 C 189.851562 168.820312 191.882812 167.351562 193.617188 165.582031 Z M 61.167969 27.777344 "/>
<path style=" stroke:none;fill-rule:nonzero;fill:rgb(7.843137%,7.843137%,7.843137%);fill-opacity:1;" d="M 22.222656 27.777344 C 18.695312 27.777344 15.355469 28.601562 12.394531 30.066406 L 149.027344 172.222656 L 177.777344 172.222656 C 181.304688 172.222656 184.640625 171.398438 187.601562 169.9375 L 187.609375 169.933594 L 50.972656 27.777344 Z M 22.222656 27.777344 "/>
</g>
</svg>
