<?xml version="1.0" encoding="UTF-8"?>
<svg xmlns="http://www.w3.org/2000/svg" xmlns:xlink="http://www.w3.org/1999/xlink" width="200px" height="200px" viewBox="0 0 200 200" version="1.1">
<g id="surface1">
<path style=" stroke:none;fill-rule:nonzero;fill:rgb(0%,60.784314%,22.745098%);fill-opacity:1;" d="M 200 150 C 200 162.273438 190.050781 172.222656 177.777344 172.222656 L 22.222656 172.222656 C 9.949219 172.222656 0 162.273438 0 150 L 0 50 C 0 37.726562 9.949219 27.777344 22.222656 27.777344 L 177.777344 27.777344 C 190.050781 27.777344 200 37.726562 200 50 Z M 200 150 "/>
<path style=" stroke:none;fill-rule:nonzero;fill:rgb(99.607843%,87.45098%,0.392157%);fill-opacity:1;" d="M 181.820312 100 L 100 161.800781 L 18.179688 100 L 100 38.195312 Z M 181.820312 100 "/>
<path style=" stroke:none;fill-rule:nonzero;fill:rgb(0%,15.294118%,46.27451%);fill-opacity:1;" d="M 135.746094 99.578125 C 135.746094 119.390625 119.679688 135.457031 99.867188 135.457031 C 80.050781 135.457031 63.988281 119.390625 63.988281 99.578125 C 63.988281 79.761719 80.050781 63.699219 99.867188 63.699219 C 119.679688 63.699219 135.746094 79.761719 135.746094 99.578125 Z M 135.746094 99.578125 "/>
<path style=" stroke:none;fill-rule:nonzero;fill:rgb(79.607843%,91.372549%,83.137255%);fill-opacity:1;" d="M 68.207031 82.707031 C 66.359375 86.15625 65.105469 89.945312 64.472656 93.945312 C 86.667969 92.332031 116.789062 104.449219 129.714844 119.472656 C 131.949219 116.117188 133.605469 112.359375 134.621094 108.339844 C 118.667969 92.738281 90.640625 82.617188 68.207031 82.707031 Z M 68.207031 82.707031 "/>
<path style=" stroke:none;fill-rule:nonzero;fill:rgb(53.333333%,78.823529%,97.647059%);fill-opacity:1;" d="M 66.667969 101.292969 L 72.222656 101.292969 L 72.222656 106.851562 L 66.667969 106.851562 Z M 72.222656 112.40625 L 77.777344 112.40625 L 77.777344 117.960938 L 72.222656 117.960938 Z M 72.222656 112.40625 "/>
<path style=" stroke:none;fill-rule:nonzero;fill:rgb(33.333333%,67.45098%,93.333333%);fill-opacity:1;" d="M 83.332031 101.292969 L 88.890625 101.292969 L 88.890625 106.851562 L 83.332031 106.851562 Z M 94.445312 106.851562 L 100 106.851562 L 100 112.40625 L 94.445312 112.40625 Z M 116.667969 117.960938 L 122.222656 117.960938 L 122.222656 123.515625 L 116.667969 123.515625 Z M 100 123.515625 L 105.554688 123.515625 L 105.554688 129.070312 L 100 129.070312 Z M 116.667969 90.183594 L 122.222656 90.183594 L 122.222656 95.738281 L 116.667969 95.738281 Z M 116.667969 90.183594 "/>
<path style=" stroke:none;fill-rule:nonzero;fill:rgb(23.137255%,53.333333%,76.470588%);fill-opacity:1;" d="M 105.554688 112.40625 L 111.109375 112.40625 L 111.109375 117.960938 L 105.554688 117.960938 Z M 105.554688 112.40625 "/>
</g>
</svg>
