<?xml version="1.0" encoding="UTF-8"?>
<svg xmlns="http://www.w3.org/2000/svg" xmlns:xlink="http://www.w3.org/1999/xlink" width="200px" height="200px" viewBox="0 0 200 200" version="1.1">
<g id="surface1">
<path style=" stroke:none;fill-rule:nonzero;fill:rgb(81.176471%,7.843137%,16.862745%);fill-opacity:1;" d="M 0 150 C 0 162.273438 9.949219 172.222656 22.222656 172.222656 L 177.777344 172.222656 C 190.050781 172.222656 200 162.273438 200 150 L 200 127.777344 L 0 127.777344 Z M 0 150 "/>
<path style=" stroke:none;fill-rule:nonzero;fill:rgb(0%,14.117647%,49.019608%);fill-opacity:1;" d="M 0 127.777344 L 200 127.777344 L 200 72.222656 L 0 72.222656 Z M 140.644531 108.054688 L 142.140625 112.167969 L 146.511719 112.015625 L 143.066406 114.710938 L 144.5625 118.820312 L 140.933594 116.378906 L 137.488281 119.070312 L 138.695312 114.867188 L 135.066406 112.421875 L 139.4375 112.273438 Z M 133.890625 98.804688 L 137.945312 97.167969 L 135.628906 100.871094 L 138.4375 104.222656 L 134.195312 103.167969 L 131.878906 106.871094 L 131.570312 102.511719 L 127.328125 101.457031 L 131.382812 99.816406 L 131.078125 95.457031 Z M 117.777344 86.890625 L 121.566406 89.078125 L 124.816406 86.148438 L 123.90625 90.429688 L 127.695312 92.617188 L 123.34375 93.070312 L 122.433594 97.351562 L 120.65625 93.355469 L 116.304688 93.8125 L 119.554688 90.882812 Z M 106.65625 84.148438 L 108.710938 80.289062 L 109.320312 84.617188 L 113.628906 85.378906 L 109.699219 87.292969 L 110.3125 91.621094 L 107.273438 88.476562 L 103.332031 90.394531 L 105.390625 86.535156 L 102.351562 83.390625 Z M 90.683594 84.617188 L 91.292969 80.289062 L 93.351562 84.148438 L 97.65625 83.390625 L 94.617188 86.535156 L 96.671875 90.394531 L 92.746094 88.476562 L 89.707031 91.621094 L 90.316406 87.292969 L 86.390625 85.378906 Z M 75.1875 86.148438 L 78.4375 89.078125 L 82.222656 86.890625 L 80.445312 90.882812 L 83.695312 93.8125 L 79.34375 93.355469 L 77.566406 97.351562 L 76.65625 93.070312 L 72.304688 92.617188 L 76.09375 90.429688 Z M 62.054688 97.167969 L 66.109375 98.804688 L 68.921875 95.457031 L 68.617188 99.816406 L 72.671875 101.457031 L 68.429688 102.511719 L 68.121094 106.871094 L 65.804688 103.167969 L 61.5625 104.222656 L 64.371094 100.871094 Z M 57.855469 112.160156 L 59.351562 108.050781 L 60.554688 112.253906 L 64.929688 112.40625 L 61.300781 114.851562 L 62.503906 119.054688 L 59.0625 116.359375 L 55.433594 118.804688 L 56.929688 114.695312 L 53.484375 112 Z M 57.855469 112.160156 "/>
<path style=" stroke:none;fill-rule:nonzero;fill:rgb(100%,80%,0%);fill-opacity:1;" d="M 177.777344 27.777344 L 22.222656 27.777344 C 9.949219 27.777344 0 37.726562 0 50 L 0 72.222656 L 200 72.222656 L 200 50 C 200 37.726562 190.050781 27.777344 177.777344 27.777344 Z M 177.777344 27.777344 "/>
<path style=" stroke:none;fill-rule:nonzero;fill:rgb(100%,100%,100%);fill-opacity:1;" d="M 103.332031 90.394531 L 107.261719 88.476562 L 110.300781 91.621094 L 109.6875 87.292969 L 113.621094 85.378906 L 109.316406 84.617188 L 108.707031 80.289062 L 106.65625 84.148438 L 102.34375 83.390625 L 105.382812 86.535156 Z M 120.65625 93.351562 L 122.433594 97.34375 L 123.339844 93.070312 L 127.6875 92.609375 L 123.90625 90.429688 L 124.8125 86.148438 L 121.5625 89.070312 L 117.777344 86.890625 L 119.554688 90.882812 L 116.304688 93.8125 Z M 127.328125 101.457031 L 131.570312 102.511719 L 131.878906 106.871094 L 134.195312 103.167969 L 138.433594 104.222656 L 135.621094 100.871094 L 137.945312 97.167969 L 133.890625 98.804688 L 131.078125 95.457031 L 131.382812 99.816406 Z M 138.695312 114.855469 L 137.488281 119.054688 L 140.9375 116.367188 L 144.5625 118.8125 L 143.066406 114.699219 L 146.511719 112.011719 L 142.144531 112.160156 L 140.644531 108.054688 L 139.4375 112.253906 L 135.070312 112.410156 Z M 89.699219 91.621094 L 92.738281 88.476562 L 96.667969 90.394531 L 94.617188 86.535156 L 97.65625 83.390625 L 93.34375 84.148438 L 91.292969 80.289062 L 90.683594 84.617188 L 86.378906 85.378906 L 90.3125 87.292969 Z M 76.660156 93.070312 L 77.566406 97.34375 L 79.34375 93.351562 L 83.695312 93.8125 L 80.445312 90.882812 L 82.222656 86.890625 L 78.4375 89.070312 L 75.1875 86.148438 L 76.09375 90.429688 L 72.3125 92.609375 Z M 65.804688 103.167969 L 68.121094 106.871094 L 68.429688 102.511719 L 72.671875 101.457031 L 68.617188 99.816406 L 68.921875 95.457031 L 66.109375 98.804688 L 62.054688 97.167969 L 64.378906 100.871094 L 61.566406 104.222656 Z M 55.4375 118.8125 L 59.0625 116.367188 L 62.511719 119.054688 L 61.304688 114.855469 L 64.929688 112.410156 L 60.5625 112.253906 L 59.355469 108.054688 L 57.855469 112.160156 L 53.488281 112.011719 L 56.933594 114.699219 Z M 55.4375 118.8125 "/>
</g>
</svg>
