<?xml version="1.0" encoding="UTF-8"?>
<svg xmlns="http://www.w3.org/2000/svg" xmlns:xlink="http://www.w3.org/1999/xlink" width="200px" height="200px" viewBox="0 0 200 200" version="1.1">
<g id="surface1">
<path style=" stroke:none;fill-rule:nonzero;fill:rgb(89.411765%,11.764706%,12.54902%);fill-opacity:1;" d="M 177.777344 27.777344 L 22.222656 27.777344 C 9.949219 27.777344 0 37.726562 0 50 L 0 150 C 0 162.273438 9.949219 172.222656 22.222656 172.222656 L 177.777344 172.222656 C 190.050781 172.222656 200 162.273438 200 150 L 200 50 C 200 37.726562 190.050781 27.777344 177.777344 27.777344 Z M 177.777344 27.777344 "/>
<path style=" stroke:none;fill-rule:evenodd;fill:rgb(0%,0%,0%);fill-opacity:1;" d="M 140.75 117.789062 C 140.292969 117.722656 139.964844 117.503906 139.644531 117.207031 C 138.75 116.367188 137.792969 116.304688 136.746094 116.945312 C 136.390625 117.160156 136.066406 117.417969 135.777344 117.734375 C 135.601562 117.929688 135.40625 118.003906 135.144531 118.011719 L 130.828125 118.128906 C 130.714844 118.132812 130.578125 118.199219 130.5 118.039062 C 131.144531 117.417969 131.816406 116.804688 132.457031 116.179688 C 132.777344 115.855469 133.078125 115.765625 133.542969 115.878906 C 134.960938 116.222656 136.023438 115.773438 136.589844 114.632812 C 136.917969 113.984375 137.433594 113.628906 138.09375 113.449219 C 138.390625 113.371094 138.6875 113.34375 139.042969 113.273438 C 138.1875 112.457031 137.273438 112.460938 136.3125 112.84375 C 136.023438 112.960938 135.785156 113.011719 135.476562 112.898438 C 134.140625 112.390625 133.523438 112.679688 133.003906 114.003906 C 132.90625 114.253906 132.8125 114.503906 132.554688 114.667969 C 131.222656 115.539062 129.894531 116.421875 128.566406 117.320312 C 128.339844 117.484375 128.121094 117.515625 127.84375 117.433594 C 126.039062 116.945312 124.222656 116.488281 122.410156 116.011719 C 121.261719 115.710938 120.117188 115.40625 118.828125 115.050781 C 119.535156 114.351562 120.167969 113.746094 120.789062 113.121094 C 121.292969 112.617188 121.148438 112.066406 120.460938 111.867188 C 119.894531 111.707031 119.320312 111.589844 118.746094 111.445312 C 114.234375 110.355469 111.378906 107.511719 110 103.121094 C 109.84375 102.632812 109.75 102.148438 109.894531 101.640625 C 110 101.300781 110.1875 101.039062 110.554688 100.976562 C 110.898438 100.921875 111.167969 101.117188 111.332031 101.390625 C 111.503906 101.667969 111.640625 101.972656 111.761719 102.273438 C 112.566406 104.199219 113.628906 105.917969 115.359375 107.15625 C 115.800781 107.472656 116.261719 107.582031 116.777344 107.535156 C 117.210938 107.496094 117.699219 107.445312 117.859375 106.964844 C 118.015625 106.496094 117.648438 106.179688 117.300781 105.945312 C 115.789062 104.894531 115.015625 103.390625 114.609375 101.644531 C 114.417969 100.839844 114.800781 100.039062 115.511719 99.84375 C 116.160156 99.667969 116.832031 100.132812 117.082031 100.945312 C 117.390625 101.9375 117.65625 102.945312 118.015625 103.917969 C 118.871094 106.238281 120.449219 107.929688 122.714844 108.957031 C 123.550781 109.339844 124.566406 109.082031 125.140625 108.429688 C 125.578125 107.933594 125.578125 107.371094 125.132812 106.882812 C 124.859375 106.582031 124.511719 106.394531 124.140625 106.238281 C 122.898438 105.707031 121.753906 105.015625 120.929688 103.917969 C 120.015625 102.695312 119.734375 101.316406 119.976562 99.839844 C 120.101562 99.070312 120.542969 98.898438 121.222656 99.25 C 121.539062 99.40625 121.789062 99.648438 122.027344 99.910156 C 124.75 102.90625 127.457031 105.917969 130.355469 108.726562 C 131.851562 110.1875 133.710938 110.804688 135.792969 110.394531 C 137.078125 110.144531 138.253906 109.628906 138.957031 108.421875 C 139.253906 107.90625 139.429688 107.34375 139.050781 106.800781 C 138.671875 106.261719 138.089844 106.214844 137.5 106.277344 C 134.683594 106.609375 132.171875 105.855469 129.976562 104.09375 C 127.90625 102.429688 126.359375 100.328125 124.984375 98.082031 C 124.644531 97.550781 124.445312 96.945312 124.449219 96.304688 C 124.464844 95.761719 124.710938 95.628906 125.195312 95.882812 C 125.539062 96.0625 125.792969 96.332031 126.035156 96.640625 C 127.570312 98.554688 129.394531 100.132812 131.578125 101.285156 C 133.300781 102.195312 135.101562 102.761719 137.070312 102.515625 C 138.523438 102.339844 139.195312 101.859375 139.464844 100.0625 C 139.648438 98.839844 139.039062 98.34375 137.871094 98.699219 C 135.410156 99.449219 133.078125 99.09375 130.855469 97.851562 C 128.714844 96.644531 127.042969 94.90625 125.5625 92.996094 C 125.132812 92.4375 124.972656 91.738281 125.054688 91.023438 C 125.117188 90.5625 125.398438 90.359375 125.867188 90.417969 C 126.285156 90.460938 126.605469 90.683594 126.917969 90.9375 C 128.640625 92.328125 130.460938 93.554688 132.488281 94.445312 C 133.898438 95.066406 135.339844 95.570312 136.917969 95.320312 C 138.390625 95.09375 139.484375 93.8125 139.378906 92.433594 C 139.328125 91.632812 138.851562 91.121094 138.0625 91.023438 C 137.601562 90.972656 137.160156 91.050781 136.710938 91.101562 C 134.417969 91.355469 132.253906 91.015625 130.292969 89.722656 C 128.828125 88.75 127.484375 87.628906 126.160156 86.476562 C 126.042969 86.378906 125.9375 86.253906 125.859375 86.121094 C 125.5625 85.667969 125.503906 85.0625 125.773438 84.867188 C 126.179688 84.5625 126.535156 84.851562 126.855469 85.054688 C 128.648438 86.183594 130.570312 86.984375 132.640625 87.449219 C 134.226562 87.8125 135.816406 88.023438 137.429688 87.609375 C 138.527344 87.332031 139.207031 86.632812 139.410156 85.511719 C 139.640625 84.277344 138.8125 83.429688 137.570312 83.617188 C 137.179688 83.683594 136.792969 83.792969 136.445312 83.988281 C 134.996094 84.804688 133.472656 84.9375 131.867188 84.527344 C 130.289062 84.121094 128.871094 83.367188 127.5 82.511719 C 126.804688 82.082031 126.078125 81.699219 125.503906 81.105469 C 125.042969 80.617188 124.996094 80.015625 125.320312 79.59375 C 125.640625 79.195312 126.09375 79.148438 126.738281 79.476562 C 127.527344 79.878906 128.316406 80.265625 129.15625 80.566406 C 131.140625 81.285156 133.15625 81.710938 135.277344 81.359375 C 137.503906 80.996094 139.144531 79.40625 139.515625 77.273438 C 139.578125 76.972656 139.578125 76.6875 139.496094 76.394531 C 139.3125 75.726562 138.820312 75.433594 138.148438 75.589844 C 137.621094 75.710938 137.214844 76.023438 136.8125 76.355469 C 134.773438 78.054688 132.460938 78.542969 129.894531 77.851562 C 128.707031 77.535156 127.648438 76.972656 126.605469 76.328125 C 126.078125 76.003906 125.632812 75.667969 125.445312 75.066406 C 125.246094 74.417969 125.515625 74.042969 126.199219 74.050781 C 126.457031 74.050781 126.710938 74.082031 126.972656 74.132812 C 129.671875 74.671875 132.378906 74.84375 135.054688 74.054688 C 137.195312 73.429688 138.828125 72.246094 139.429688 69.960938 C 139.632812 69.195312 139.382812 68.320312 138.820312 67.945312 C 138.304688 67.589844 137.65625 67.679688 136.957031 68.214844 C 136.628906 68.472656 136.328125 68.765625 136.011719 69.035156 C 133.34375 71.261719 130.167969 71.367188 126.933594 71.210938 C 126.09375 71.171875 125.535156 70.367188 125.617188 69.617188 C 125.695312 68.9375 126.234375 68.582031 127.132812 68.523438 C 131.160156 68.246094 134.648438 66.679688 137.648438 64.035156 C 138.695312 63.109375 139.398438 61.921875 139.707031 60.542969 C 139.957031 59.457031 139.65625 58.472656 138.871094 57.679688 C 138.210938 57.011719 137.445312 57.078125 136.867188 57.8125 C 136.683594 58.042969 136.542969 58.304688 136.378906 58.550781 C 133.910156 62.277344 130.472656 64.5625 126.078125 65.4375 C 125.605469 65.535156 125.371094 65.417969 125.109375 65.035156 C 124.648438 64.339844 124.226562 64.1875 123.632812 64.417969 C 120.320312 65.707031 117.105469 67.226562 113.984375 68.917969 C 113.644531 69.101562 113.523438 69.355469 113.535156 69.714844 C 113.550781 70.265625 113.707031 70.777344 113.878906 71.285156 C 114.238281 72.394531 114.15625 73.476562 113.753906 74.542969 C 113.234375 75.957031 112.023438 76.710938 110.457031 76.640625 C 109.195312 76.582031 108.070312 75.605469 107.714844 74.222656 C 107.355469 72.789062 107.464844 71.371094 108.167969 70.070312 C 109.367188 67.851562 111.121094 66.1875 113.464844 65.214844 C 115.234375 64.476562 117.121094 64.15625 118.976562 63.726562 C 119.984375 63.503906 120.996094 63.355469 121.855469 62.722656 C 122.132812 62.515625 122.378906 62.289062 122.429688 61.855469 C 121.644531 62.089844 120.933594 62.339844 120.207031 62.523438 C 119.210938 62.773438 118.398438 62.382812 117.660156 61.722656 C 117.921875 61.65625 118.171875 61.644531 118.421875 61.65625 C 119.945312 61.734375 121.464844 61.765625 122.976562 61.449219 C 124.234375 61.1875 125.410156 60.859375 126.167969 59.714844 C 126.328125 59.460938 126.445312 59.199219 126.4375 58.894531 C 126.433594 58.199219 125.964844 57.921875 125.359375 58.277344 C 124.933594 58.527344 124.621094 58.910156 124.316406 59.289062 C 123.726562 60.003906 122.964844 60.417969 122.089844 60.632812 C 121.09375 60.890625 120.082031 60.996094 119.050781 60.929688 C 118.777344 60.910156 118.515625 60.871094 118.214844 60.734375 C 118.828125 60.09375 119.4375 59.5625 120.207031 59.238281 C 121.078125 58.878906 121.609375 58.996094 122.273438 59.671875 C 122.34375 59.746094 122.390625 59.898438 122.542969 59.84375 C 122.773438 58.570312 122.167969 57.714844 120.894531 57.496094 C 120.160156 57.371094 119.4375 57.445312 118.710938 57.523438 C 118.582031 57.535156 118.398438 57.667969 118.332031 57.421875 C 118.121094 56.75 117.523438 56.542969 116.957031 56.355469 C 115.285156 55.804688 113.621094 55.949219 112.015625 56.601562 C 110.59375 57.171875 109.140625 57.59375 107.628906 57.859375 C 106.734375 58.023438 105.832031 58.121094 104.882812 58.261719 C 105.707031 59.054688 106.671875 59.578125 107.59375 60.285156 C 105.9375 60.984375 104.601562 61.976562 103.554688 63.34375 L 103.589844 63.523438 L 106.109375 63.523438 L 106.101562 63.667969 C 105.316406 63.949219 104.527344 64.207031 103.761719 64.515625 C 102.972656 64.839844 102.273438 65.300781 101.667969 65.988281 C 102.101562 66.09375 102.484375 66.179688 102.867188 66.277344 C 103.171875 66.355469 103.234375 66.527344 102.988281 66.746094 C 101.890625 67.707031 100.972656 68.851562 99.972656 69.90625 C 99.714844 70.171875 99.589844 70.054688 99.394531 69.855469 C 98.410156 68.832031 97.523438 67.710938 96.445312 66.773438 C 96.132812 66.5 96.265625 66.332031 96.601562 66.25 C 96.960938 66.15625 97.320312 66.078125 97.738281 65.984375 C 96.527344 64.609375 94.867188 64.214844 93.285156 63.667969 L 93.320312 63.488281 L 95.960938 63.488281 C 94.804688 61.964844 93.457031 60.984375 91.816406 60.277344 C 92.738281 59.566406 93.722656 59.054688 94.535156 58.222656 C 91.984375 57.988281 89.582031 57.488281 87.277344 56.554688 C 85.609375 55.878906 83.90625 55.804688 82.195312 56.433594 C 81.753906 56.601562 81.300781 56.789062 81.128906 57.273438 C 81.035156 57.535156 80.921875 57.550781 80.671875 57.515625 C 79.816406 57.398438 78.949219 57.316406 78.09375 57.589844 C 77.0625 57.917969 76.589844 58.820312 76.890625 59.894531 C 77.265625 59.523438 77.601562 59.105469 78.160156 59.042969 C 79.054688 58.9375 80.710938 59.921875 81.09375 60.777344 C 80.398438 60.988281 79.683594 60.960938 78.972656 60.898438 C 77.320312 60.765625 75.789062 60.351562 74.75 58.90625 C 74.621094 58.722656 74.449219 58.566406 74.277344 58.433594 C 73.964844 58.195312 73.628906 57.9375 73.246094 58.214844 C 72.871094 58.488281 72.917969 58.921875 73.035156 59.316406 C 73.132812 59.640625 73.351562 59.894531 73.570312 60.140625 C 74.199219 60.816406 75.011719 61.128906 75.890625 61.332031 C 77.578125 61.726562 79.289062 61.765625 81.011719 61.65625 C 81.25 61.640625 81.515625 61.589844 81.789062 61.75 C 80.785156 62.605469 79.714844 62.792969 78.515625 62.355469 C 78.023438 62.171875 77.535156 61.960938 76.984375 61.867188 C 77.015625 62.289062 77.261719 62.503906 77.527344 62.707031 C 78.105469 63.144531 78.785156 63.355469 79.476562 63.515625 C 80.851562 63.832031 82.210938 64.15625 83.582031 64.449219 C 86.367188 65.054688 88.648438 66.449219 90.398438 68.714844 C 91.550781 70.207031 92.070312 71.851562 91.789062 73.726562 C 91.554688 75.304688 90.410156 76.570312 89.023438 76.609375 C 87.179688 76.660156 86.039062 75.917969 85.542969 74.261719 C 85.238281 73.265625 85.183594 72.253906 85.527344 71.246094 C 85.707031 70.722656 85.867188 70.1875 85.867188 69.621094 C 85.859375 69.316406 85.761719 69.089844 85.484375 68.9375 C 82.3125 67.210938 79.054688 65.679688 75.6875 64.359375 C 75.332031 64.222656 75.011719 64.289062 74.714844 64.527344 C 74.484375 64.714844 74.277344 64.933594 74.144531 65.1875 C 74.003906 65.449219 73.839844 65.496094 73.550781 65.445312 C 70.222656 64.894531 67.410156 63.359375 65.011719 61.011719 C 64.121094 60.148438 63.398438 59.160156 62.753906 58.101562 C 62.023438 56.890625 60.949219 56.871094 60.167969 58.054688 C 59.605469 58.910156 59.445312 59.84375 59.761719 60.839844 C 60.4375 62.957031 61.878906 64.4375 63.722656 65.5625 C 66.449219 67.214844 69.320312 68.460938 72.59375 68.503906 C 73.09375 68.511719 73.488281 68.789062 73.6875 69.261719 C 73.890625 69.734375 73.804688 70.183594 73.476562 70.578125 C 73.144531 70.984375 72.699219 71.214844 72.171875 71.222656 C 71.339844 71.226562 70.503906 71.234375 69.671875 71.199219 C 67.0625 71.089844 64.695312 70.34375 62.777344 68.460938 C 62.496094 68.183594 62.167969 67.945312 61.785156 67.800781 C 61.066406 67.539062 60.433594 67.792969 60.089844 68.476562 C 59.867188 68.921875 59.832031 69.390625 59.945312 69.851562 C 60.285156 71.199219 61.003906 72.285156 62.1875 73.050781 C 63.484375 73.890625 64.933594 74.277344 66.445312 74.445312 C 68.503906 74.679688 70.527344 74.488281 72.550781 74.070312 C 73.023438 73.976562 73.578125 73.804688 73.929688 74.339844 C 74.144531 74.667969 73.882812 75.417969 73.457031 75.84375 C 73.40625 75.894531 73.355469 75.945312 73.292969 75.976562 C 72.488281 76.445312 71.714844 76.988281 70.851562 77.34375 C 67.800781 78.605469 64.960938 78.390625 62.398438 76.160156 C 62.0625 75.859375 61.667969 75.640625 61.214844 75.539062 C 60.570312 75.394531 60.089844 75.683594 59.90625 76.320312 C 59.816406 76.628906 59.816406 76.933594 59.878906 77.25 C 60.316406 79.648438 62.34375 81.304688 64.964844 81.421875 C 66.855469 81.511719 68.65625 81.109375 70.410156 80.457031 C 71.253906 80.140625 72.054688 79.726562 72.859375 79.320312 C 73.25 79.128906 73.640625 79.128906 73.972656 79.445312 C 74.3125 79.773438 74.339844 80.171875 74.171875 80.59375 C 74.042969 80.921875 73.8125 81.195312 73.515625 81.390625 C 72.132812 82.34375 70.710938 83.246094 69.15625 83.910156 C 66.984375 84.851562 64.820312 85.101562 62.679688 83.8125 C 62.34375 83.609375 61.957031 83.5625 61.570312 83.535156 C 60.511719 83.460938 59.777344 84.285156 59.949219 85.382812 C 60.132812 86.527344 60.804688 87.253906 61.921875 87.554688 C 62.871094 87.8125 63.84375 87.828125 64.816406 87.722656 C 67.621094 87.410156 70.207031 86.460938 72.582031 84.960938 C 72.6875 84.894531 72.789062 84.828125 72.898438 84.785156 C 73.132812 84.695312 73.367188 84.609375 73.589844 84.792969 C 73.804688 84.972656 73.792969 85.226562 73.75 85.472656 C 73.683594 85.898438 73.445312 86.234375 73.121094 86.515625 C 72.140625 87.371094 71.128906 88.195312 70.101562 88.984375 C 68.066406 90.542969 65.800781 91.34375 63.210938 91.101562 C 62.746094 91.054688 62.277344 91 61.8125 90.964844 C 60.601562 90.859375 59.890625 91.566406 59.996094 92.777344 C 60.101562 93.996094 61.140625 95.050781 62.429688 95.273438 C 63.394531 95.445312 64.332031 95.277344 65.25 95 C 67.949219 94.171875 70.246094 92.621094 72.433594 90.898438 C 72.699219 90.6875 72.960938 90.496094 73.285156 90.40625 C 73.917969 90.222656 74.320312 90.488281 74.332031 91.15625 C 74.34375 91.828125 74.195312 92.484375 73.765625 93.011719 C 72.601562 94.503906 71.292969 95.878906 69.753906 97 C 67.894531 98.359375 65.851562 99.148438 63.503906 99.023438 C 62.714844 98.976562 61.964844 98.777344 61.210938 98.578125 C 60.566406 98.40625 60.082031 98.65625 59.921875 99.207031 C 59.5625 100.429688 60.476562 102.0625 61.710938 102.355469 C 63.304688 102.75 64.855469 102.464844 66.34375 101.882812 C 69.160156 100.792969 71.421875 98.933594 73.316406 96.609375 C 73.570312 96.292969 73.832031 95.996094 74.199219 95.816406 C 74.65625 95.578125 74.898438 95.722656 74.90625 96.234375 C 74.917969 96.933594 74.683594 97.570312 74.320312 98.148438 C 73.121094 100.066406 71.789062 101.882812 70.117188 103.421875 C 67.976562 105.394531 65.488281 106.4375 62.550781 106.300781 C 62.167969 106.285156 61.789062 106.207031 61.410156 106.226562 C 60.371094 106.273438 59.882812 107 60.214844 107.972656 C 60.382812 108.476562 60.667969 108.90625 61.101562 109.234375 C 63.820312 111.320312 67.050781 110.578125 68.949219 108.738281 C 71.871094 105.917969 74.582031 102.890625 77.316406 99.890625 C 77.5625 99.617188 77.820312 99.359375 78.148438 99.195312 C 78.8125 98.867188 79.238281 99.042969 79.371094 99.765625 C 79.570312 100.84375 79.449219 101.910156 78.988281 102.917969 C 78.234375 104.566406 76.820312 105.484375 75.234375 106.183594 C 74.898438 106.328125 74.570312 106.488281 74.304688 106.75 C 73.746094 107.292969 73.734375 107.949219 74.304688 108.472656 C 74.996094 109.09375 75.792969 109.316406 76.667969 108.910156 C 78.90625 107.859375 80.488281 106.183594 81.339844 103.855469 C 81.699219 102.859375 81.964844 101.839844 82.285156 100.828125 C 82.515625 100.09375 83.195312 99.640625 83.8125 99.800781 C 84.464844 99.957031 84.933594 100.707031 84.773438 101.429688 C 84.394531 103.148438 83.726562 104.707031 82.210938 105.761719 C 81.984375 105.90625 81.773438 106.09375 81.617188 106.328125 C 81.316406 106.765625 81.394531 107.144531 81.890625 107.339844 C 82.5625 107.605469 83.238281 107.617188 83.878906 107.183594 C 85.683594 105.949219 86.765625 104.1875 87.589844 102.210938 C 87.714844 101.910156 87.851562 101.605469 88.023438 101.332031 C 88.195312 101.054688 88.464844 100.878906 88.8125 100.945312 C 89.15625 101.011719 89.34375 101.261719 89.4375 101.570312 C 89.589844 102.078125 89.503906 102.570312 89.351562 103.0625 C 87.960938 107.496094 85.082031 110.34375 80.515625 111.421875 C 79.957031 111.550781 79.398438 111.683594 78.851562 111.832031 C 78.195312 112.027344 78.0625 112.578125 78.535156 113.0625 C 79.054688 113.601562 79.589844 114.117188 80.109375 114.65625 C 80.214844 114.753906 80.371094 114.820312 80.359375 115.027344 C 80.214844 115.082031 80.070312 115.128906 79.921875 115.160156 C 77.121094 115.898438 74.320312 116.628906 71.527344 117.378906 C 71.226562 117.457031 71.011719 117.429688 70.753906 117.25 C 69.621094 116.484375 68.488281 115.710938 67.332031 114.976562 C 66.804688 114.644531 66.421875 114.253906 66.199219 113.640625 C 65.871094 112.746094 65.289062 112.40625 64.398438 112.699219 C 63.707031 112.921875 63.128906 112.828125 62.464844 112.628906 C 61.679688 112.382812 60.945312 112.582031 60.304688 113.234375 C 60.433594 113.261719 60.496094 113.277344 60.5625 113.285156 C 61.566406 113.371094 62.378906 113.746094 62.84375 114.738281 C 63.179688 115.4375 63.800781 115.816406 64.582031 115.894531 C 65.050781 115.945312 65.515625 115.933594 65.972656 115.789062 C 66.265625 115.695312 66.484375 115.746094 66.710938 115.964844 C 67.394531 116.632812 68.105469 117.273438 68.800781 117.929688 C 68.820312 117.949219 68.816406 118.015625 68.8125 117.964844 C 67.4375 117.964844 66.066406 117.949219 64.699219 117.972656 C 64.128906 117.988281 63.710938 117.820312 63.277344 117.421875 C 62.003906 116.234375 60.671875 116.035156 59.378906 117.457031 C 59.214844 117.628906 59.027344 117.648438 58.820312 117.679688 C 58.078125 117.777344 57.550781 118.167969 57.261719 118.957031 C 58.304688 118.253906 59.171875 118.714844 60.039062 119.253906 C 60.09375 119.300781 60.160156 119.316406 60.226562 119.34375 C 61.328125 119.792969 62.390625 119.820312 63.367188 119.035156 C 63.484375 118.9375 63.609375 118.910156 63.75 118.917969 C 65.421875 119.027344 67.101562 119.121094 68.878906 119.246094 C 68.5 119.632812 68.082031 119.765625 67.75 120.011719 C 67.0625 120.523438 66.371094 120.714844 65.460938 120.535156 C 64.25 120.273438 63.09375 120.628906 62.457031 121.792969 C 61.8125 122.988281 61.367188 124.261719 61.417969 125.65625 C 61.421875 125.75 61.382812 125.859375 61.496094 125.949219 C 61.644531 125.65625 61.773438 125.355469 61.9375 125.078125 C 62.355469 124.371094 62.855469 123.8125 63.8125 124.148438 C 63.984375 124.214844 64.183594 124.199219 64.378906 124.199219 C 65.515625 124.1875 66.238281 123.671875 66.460938 122.621094 C 66.554688 122.144531 66.800781 121.894531 67.195312 121.710938 C 67.476562 121.578125 67.75 121.421875 68.035156 121.292969 C 68.921875 120.90625 69.855469 120.617188 70.65625 120.035156 C 70.828125 119.910156 70.976562 119.972656 71.144531 120.027344 L 74 120.996094 C 74.167969 121.042969 74.300781 121.109375 74.394531 121.289062 C 75.195312 122.792969 75.855469 123.117188 77.542969 122.894531 C 78.144531 122.816406 78.722656 122.859375 79.265625 123.15625 C 79.746094 123.410156 79.710938 123.921875 79.816406 124.394531 C 80.382812 123.628906 80.3125 122.738281 79.609375 122.070312 C 79.261719 121.726562 78.960938 121.378906 78.710938 120.957031 C 78.238281 120.144531 77.421875 119.84375 76.5625 120.183594 C 76.042969 120.394531 75.632812 120.3125 75.179688 120.09375 C 74.484375 119.761719 73.820312 119.34375 72.964844 119.070312 C 73.535156 118.894531 73.972656 118.746094 74.421875 118.628906 C 76.894531 117.957031 79.429688 117.523438 81.878906 116.738281 C 82.132812 116.660156 82.292969 116.753906 82.476562 116.917969 C 83.140625 117.5 83.792969 118.09375 84.472656 118.667969 C 85.066406 119.148438 85.515625 119.070312 85.933594 118.4375 C 86.171875 118.078125 86.40625 117.699219 86.640625 117.339844 C 87.578125 115.828125 88.355469 114.210938 89.359375 112.726562 C 90.332031 111.304688 91.410156 109.949219 92.851562 108.976562 C 94.167969 108.101562 95.390625 108.628906 95.710938 110.160156 C 95.988281 111.503906 95.679688 112.777344 95.132812 114.003906 C 93.800781 117.039062 91.632812 119.292969 88.785156 120.9375 C 87.789062 121.511719 86.777344 121.765625 85.644531 121.550781 C 84.917969 121.417969 84.195312 121.417969 83.5 121.726562 C 82.785156 122.050781 82.640625 122.578125 83.078125 123.234375 C 83.476562 123.820312 84.054688 124.132812 84.710938 124.359375 C 86.539062 124.972656 88.222656 124.921875 89.644531 123.417969 C 89.988281 123.050781 90.378906 122.734375 90.765625 122.40625 C 91.078125 122.148438 91.433594 122.121094 91.792969 122.3125 C 92.144531 122.511719 92.289062 122.828125 92.253906 123.226562 C 92.238281 123.5 92.117188 123.726562 91.949219 123.929688 C 91.390625 124.59375 90.804688 125.234375 90.148438 125.804688 C 88.949219 126.851562 87.59375 127.527344 85.964844 127.550781 C 85.589844 127.554688 85.210938 127.667969 84.878906 127.867188 C 84.328125 128.167969 84.238281 128.632812 84.632812 129.109375 C 84.871094 129.40625 85.183594 129.589844 85.511719 129.746094 C 87.140625 130.488281 88.65625 130.144531 90.117188 129.273438 C 91.035156 128.722656 91.777344 127.964844 92.523438 127.214844 C 92.820312 126.90625 93.167969 126.394531 93.640625 126.6875 C 94.101562 126.972656 93.976562 127.566406 93.832031 128.027344 C 93.5625 128.964844 93.167969 129.851562 92.578125 130.640625 C 91.984375 131.429688 91.207031 131.949219 90.246094 132.195312 C 89.773438 132.3125 89.285156 132.3125 88.792969 132.339844 C 87.984375 132.394531 87.679688 132.976562 88.070312 133.683594 C 88.148438 133.820312 88.238281 133.949219 88.34375 134.0625 C 89.410156 135.265625 91.105469 135.445312 92.378906 134.464844 C 93.660156 133.488281 94.398438 132.117188 95.078125 130.699219 C 95.273438 130.300781 95.445312 129.792969 95.996094 129.84375 C 96.554688 129.894531 96.6875 130.410156 96.828125 130.855469 C 96.917969 131.121094 96.945312 131.398438 96.9375 131.679688 C 96.90625 132.867188 96.539062 133.921875 95.878906 134.894531 C 95.285156 135.777344 94.527344 136.535156 93.726562 137.226562 C 93.5 137.417969 93.464844 137.5625 93.632812 137.820312 C 95.582031 140.75 97.523438 143.695312 99.449219 146.632812 C 99.617188 146.890625 99.707031 146.84375 99.839844 146.621094 C 100.199219 146.042969 100.5625 145.476562 100.9375 144.910156 C 102.488281 142.566406 104.035156 140.222656 105.601562 137.882812 C 105.8125 137.570312 105.792969 137.40625 105.5 137.167969 C 104.945312 136.714844 104.457031 136.199219 103.984375 135.65625 C 102.976562 134.476562 102.332031 133.144531 102.34375 131.554688 C 102.34375 131.035156 102.464844 130.542969 102.785156 130.132812 C 103.09375 129.722656 103.484375 129.710938 103.832031 130.089844 C 104.011719 130.289062 104.117188 130.527344 104.226562 130.761719 C 104.90625 132.179688 105.648438 133.550781 106.949219 134.503906 C 108.304688 135.5 110.238281 135.160156 111.132812 133.800781 C 111.640625 133.015625 111.316406 132.316406 110.398438 132.328125 C 108.089844 132.359375 106.6875 131.144531 105.851562 129.117188 C 105.605469 128.535156 105.300781 127.949219 105.367188 127.277344 C 105.390625 127.039062 105.398438 126.773438 105.644531 126.644531 C 105.917969 126.5 106.160156 126.65625 106.34375 126.828125 C 106.765625 127.214844 107.160156 127.632812 107.582031 128.023438 C 108.660156 129.042969 109.839844 129.867188 111.355469 130.089844 C 112.488281 130.25 113.539062 130.023438 114.4375 129.300781 C 115.140625 128.734375 115.027344 128.078125 114.207031 127.75 C 113.917969 127.644531 113.605469 127.542969 113.292969 127.539062 C 110.523438 127.445312 108.804688 125.695312 107.214844 123.734375 C 106.867188 123.292969 106.964844 122.722656 107.332031 122.410156 C 107.710938 122.078125 108.195312 122.117188 108.644531 122.515625 C 109.167969 122.972656 109.679688 123.445312 110.210938 123.882812 C 110.667969 124.253906 111.160156 124.566406 111.773438 124.648438 C 112.945312 124.816406 114.042969 124.589844 115.121094 124.128906 C 115.550781 123.945312 115.878906 123.648438 116.15625 123.289062 C 116.683594 122.589844 116.515625 122.027344 115.714844 121.6875 C 115.011719 121.382812 114.289062 121.421875 113.566406 121.542969 C 112.515625 121.738281 111.527344 121.566406 110.621094 120.988281 C 109.945312 120.542969 109.234375 120.132812 108.589844 119.640625 C 106.300781 117.910156 104.671875 115.679688 103.777344 112.949219 C 103.4375 111.917969 103.292969 110.839844 103.671875 109.785156 C 104.078125 108.640625 105.054688 108.253906 106.140625 108.789062 C 106.511719 108.964844 106.855469 109.210938 107.15625 109.503906 C 108.207031 110.523438 109.199219 111.582031 109.996094 112.816406 C 111.160156 114.621094 112.09375 116.566406 113.300781 118.355469 C 113.800781 119.101562 114.226562 119.15625 114.910156 118.566406 C 115.539062 118.027344 116.171875 117.488281 116.789062 116.921875 C 117 116.722656 117.195312 116.648438 117.476562 116.746094 C 119.226562 117.300781 121.027344 117.683594 122.816406 118.09375 C 123.957031 118.355469 125.089844 118.640625 126.300781 119.0625 C 125.355469 119.339844 124.648438 119.855469 123.851562 120.183594 C 123.511719 120.316406 123.222656 120.34375 122.859375 120.195312 C 121.972656 119.832031 121.148438 120.0625 120.660156 120.816406 C 120.34375 121.304688 120 121.722656 119.59375 122.140625 C 118.957031 122.789062 118.933594 123.699219 119.460938 124.328125 C 119.644531 122.90625 120.332031 122.890625 121.503906 122.851562 C 121.679688 122.84375 121.84375 122.894531 122.023438 122.917969 C 123.332031 123.105469 124.292969 122.59375 124.84375 121.390625 C 124.957031 121.140625 125.117188 121.027344 125.359375 120.9375 C 126.171875 120.683594 126.984375 120.433594 127.773438 120.132812 C 128.226562 119.960938 128.589844 119.933594 129.023438 120.25 C 129.410156 120.527344 129.882812 120.6875 130.320312 120.882812 C 130.996094 121.179688 131.671875 121.421875 132.300781 121.804688 C 132.5625 121.960938 132.726562 122.132812 132.792969 122.476562 C 132.988281 123.523438 133.566406 124.011719 134.621094 124.160156 C 135.0625 124.226562 135.496094 124.183594 135.910156 124.066406 C 136.277344 123.964844 136.503906 124.101562 136.746094 124.3125 C 137.253906 124.753906 137.527344 125.351562 137.820312 125.933594 C 137.878906 125.683594 137.878906 125.449219 137.878906 125.207031 C 137.878906 124.316406 137.527344 123.511719 137.273438 122.6875 C 136.761719 121.082031 135.679688 120.238281 134.015625 120.515625 C 132.882812 120.699219 132.0625 120.367188 131.210938 119.800781 C 130.964844 119.640625 130.660156 119.550781 130.464844 119.226562 C 132.183594 119.121094 133.820312 119.011719 135.464844 118.898438 C 135.621094 118.894531 135.765625 118.890625 135.90625 118.996094 C 137.070312 119.949219 138.328125 119.800781 139.496094 119.101562 C 140.316406 118.601562 141.078125 118.496094 141.933594 118.882812 C 141.957031 118.894531 141.988281 118.855469 142.039062 118.828125 C 141.8125 118.320312 141.40625 117.882812 140.75 117.789062 Z M 140.75 117.789062 "/>
<path style=" stroke:none;fill-rule:evenodd;fill:rgb(89.411765%,11.764706%,12.54902%);fill-opacity:1;" d="M 112.820312 58.988281 C 113.300781 58.695312 113.839844 58.660156 114.378906 58.660156 C 114.878906 58.660156 115.378906 58.707031 115.828125 58.964844 C 116.367188 59.273438 116.378906 59.707031 115.871094 60.066406 C 115.183594 60.5625 113.5 60.578125 112.785156 60.09375 C 112.289062 59.761719 112.304688 59.300781 112.820312 58.988281 Z M 86.535156 60.121094 C 85.5625 60.59375 84.5625 60.582031 83.582031 60.101562 C 83.34375 59.984375 83.144531 59.789062 83.148438 59.5 C 83.160156 59.199219 83.382812 59.042969 83.617188 58.929688 C 84.0625 58.707031 84.542969 58.648438 84.84375 58.660156 C 85.554688 58.660156 86.070312 58.695312 86.539062 58.964844 C 87.105469 59.300781 87.121094 59.839844 86.535156 60.121094 Z M 86.535156 60.121094 "/>
</g>
</svg>
