<?xml version="1.0" encoding="UTF-8"?>
<svg xmlns="http://www.w3.org/2000/svg" xmlns:xlink="http://www.w3.org/1999/xlink" width="200px" height="px" viewBox="0 0 200 200" version="1.1">
<g id="surface1">
<path style=" stroke:none;fill-rule:nonzero;fill:rgb(0%,16.862745%,49.803922%);fill-opacity:1;" d="M 200 150 C 200 162.273438 190.050781 172.222656 177.777344 172.222656 L 22.222656 172.222656 C 9.949219 172.222656 0 162.273438 0 150 L 0 50 C 0 37.726562 9.949219 27.777344 22.222656 27.777344 L 177.777344 27.777344 C 190.050781 27.777344 200 37.726562 200 50 Z M 200 150 "/>
<path style=" stroke:none;fill-rule:nonzero;fill:rgb(93.333333%,93.333333%,93.333333%);fill-opacity:1;" d="M 0 50 L 200 50 L 200 150 L 0 150 Z M 0 50 "/>
<path style=" stroke:none;fill-rule:nonzero;fill:rgb(80.784314%,7.058824%,14.509804%);fill-opacity:1;" d="M 0 72.222656 L 200 72.222656 L 200 127.777344 L 0 127.777344 Z M 0 72.222656 "/>
<path style=" stroke:none;fill-rule:nonzero;fill:rgb(93.333333%,93.333333%,93.333333%);fill-opacity:1;" d="M 66.667969 100 C 66.667969 87.726562 57.960938 77.777344 47.222656 77.777344 C 36.484375 77.777344 27.777344 87.726562 27.777344 100 C 27.777344 112.273438 36.484375 122.222656 47.222656 122.222656 C 57.960938 122.222656 66.667969 112.273438 66.667969 100 Z M 66.667969 100 "/>
<path style=" stroke:none;fill-rule:nonzero;fill:rgb(95.686275%,79.607843%,34.509804%);fill-opacity:1;" d="M 57.050781 108.332031 C 57.050781 112.933594 52.648438 119.882812 47.222656 119.882812 C 41.792969 119.882812 37.394531 112.933594 37.394531 108.332031 C 37.394531 103.726562 41.792969 100 47.222656 100 C 52.648438 100 57.050781 103.726562 57.050781 108.332031 Z M 57.050781 108.332031 "/>
<path style=" stroke:none;fill-rule:nonzero;fill:rgb(86.27451%,65.882353%,25.490196%);fill-opacity:1;" d="M 61.109375 108.332031 C 61.109375 103.730469 54.894531 100 47.222656 100 C 39.550781 100 33.332031 103.730469 33.332031 108.332031 C 33.332031 112.9375 39.550781 116.667969 47.222656 116.667969 C 54.894531 116.667969 61.109375 112.9375 61.109375 108.332031 Z M 61.109375 108.332031 "/>
<path style=" stroke:none;fill-rule:nonzero;fill:rgb(53.72549%,77.254902%,89.411765%);fill-opacity:1;" d="M 55.554688 88.890625 C 55.554688 85.820312 51.824219 83.332031 47.222656 83.332031 C 42.621094 83.332031 38.890625 85.820312 38.890625 88.890625 C 38.890625 91.957031 42.621094 94.445312 47.222656 94.445312 C 51.824219 94.445312 55.554688 91.957031 55.554688 88.890625 Z M 55.554688 88.890625 "/>
<path style=" stroke:none;fill-rule:nonzero;fill:rgb(3.137255%,53.72549%,18.823529%);fill-opacity:1;" d="M 55.554688 102.777344 C 55.554688 95.105469 51.824219 88.890625 47.222656 88.890625 C 42.621094 88.890625 38.890625 95.105469 38.890625 102.777344 C 38.890625 110.449219 42.621094 116.667969 47.222656 116.667969 C 51.824219 116.667969 55.554688 110.449219 55.554688 102.777344 Z M 55.554688 102.777344 "/>
<path style=" stroke:none;fill-rule:nonzero;fill:rgb(86.27451%,65.882353%,25.490196%);fill-opacity:1;" d="M 55.554688 91.667969 C 55.554688 90.132812 51.824219 88.890625 47.222656 88.890625 C 42.621094 88.890625 38.890625 90.132812 38.890625 91.667969 C 38.890625 93.199219 42.621094 94.445312 47.222656 94.445312 C 51.824219 94.445312 55.554688 93.199219 55.554688 91.667969 Z M 55.554688 91.667969 "/>
<path style=" stroke:none;fill-rule:nonzero;fill:rgb(53.72549%,77.254902%,89.411765%);fill-opacity:1;" d="M 55.554688 100 C 55.554688 106.132812 51.828125 111.109375 47.222656 111.109375 C 42.617188 111.109375 38.890625 106.132812 38.890625 100 C 38.890625 93.867188 42.617188 91.679688 47.222656 91.679688 C 51.828125 91.679688 55.554688 93.867188 55.554688 100 Z M 55.554688 100 "/>
<path style=" stroke:none;fill-rule:nonzero;fill:rgb(86.27451%,65.882353%,25.490196%);fill-opacity:1;" d="M 55.554688 102.777344 C 55.554688 101.242188 51.824219 100 47.222656 100 C 42.621094 100 38.890625 101.242188 38.890625 102.777344 C 38.890625 104.3125 42.621094 105.554688 47.222656 105.554688 C 51.824219 105.554688 55.554688 104.3125 55.554688 102.777344 Z M 55.554688 102.777344 "/>
</g>
</svg>
