<?xml version="1.0" encoding="UTF-8"?>
<svg xmlns="http://www.w3.org/2000/svg" xmlns:xlink="http://www.w3.org/1999/xlink" width="200px" height="200px" viewBox="0 0 200 200" version="1.1">
<g id="surface1">
<path style=" stroke:none;fill-rule:nonzero;fill:rgb(77.647059%,3.921569%,11.372549%);fill-opacity:1;" d="M 200 150 C 200 162.273438 190.050781 172.222656 177.777344 172.222656 L 22.222656 172.222656 C 9.949219 172.222656 0 162.273438 0 150 L 0 50 C 0 37.726562 9.949219 27.777344 22.222656 27.777344 L 177.777344 27.777344 C 190.050781 27.777344 200 37.726562 200 50 Z M 200 150 "/>
<path style=" stroke:none;fill-rule:nonzero;fill:rgb(100%,76.862745%,0%);fill-opacity:1;" d="M 0 66.667969 L 200 66.667969 L 200 133.332031 L 0 133.332031 Z M 0 66.667969 "/>
<path style=" stroke:none;fill-rule:nonzero;fill:rgb(91.764706%,34.901961%,43.137255%);fill-opacity:1;" d="M 50 94.445312 L 50 111.109375 C 50 120.316406 57.460938 127.777344 66.667969 127.777344 C 75.871094 127.777344 83.332031 120.316406 83.332031 111.109375 L 83.332031 94.445312 Z M 50 94.445312 "/>
<path style=" stroke:none;fill-rule:nonzero;fill:rgb(95.686275%,63.529412%,69.803922%);fill-opacity:1;" d="M 66.667969 88.890625 L 83.332031 88.890625 L 83.332031 105.554688 L 66.667969 105.554688 Z M 66.667969 88.890625 "/>
<path style=" stroke:none;fill-rule:nonzero;fill:rgb(86.666667%,18.039216%,26.666667%);fill-opacity:1;" d="M 50 88.890625 L 66.667969 88.890625 L 66.667969 105.554688 L 50 105.554688 Z M 50 88.890625 "/>
<path style=" stroke:none;fill-rule:nonzero;fill:rgb(91.764706%,34.901961%,43.137255%);fill-opacity:1;" d="M 83.332031 80.554688 C 83.332031 75.953125 75.871094 72.222656 66.667969 72.222656 C 57.460938 72.222656 50 75.953125 50 80.554688 C 50 85.15625 57.460938 88.890625 66.667969 88.890625 C 75.871094 88.890625 83.332031 85.15625 83.332031 80.554688 Z M 83.332031 80.554688 "/>
<path style=" stroke:none;fill-rule:nonzero;fill:rgb(100%,67.45098%,20%);fill-opacity:1;" d="M 83.332031 76.390625 C 83.332031 74.085938 75.871094 72.222656 66.667969 72.222656 C 57.460938 72.222656 50 74.085938 50 76.390625 C 50 78.691406 57.460938 80.554688 66.667969 80.554688 C 75.871094 80.554688 83.332031 78.691406 83.332031 76.390625 Z M 83.332031 76.390625 "/>
<path style=" stroke:none;fill-rule:nonzero;fill:rgb(60%,66.666667%,70.980392%);fill-opacity:1;" d="M 38.890625 88.890625 L 44.445312 88.890625 L 44.445312 127.777344 L 38.890625 127.777344 Z M 88.890625 88.890625 L 94.445312 88.890625 L 94.445312 127.777344 L 88.890625 127.777344 Z M 88.890625 88.890625 "/>
<path style=" stroke:none;fill-rule:nonzero;fill:rgb(40%,45.882353%,49.803922%);fill-opacity:1;" d="M 33.332031 122.222656 L 50 122.222656 L 50 127.777344 L 33.332031 127.777344 Z M 83.332031 122.222656 L 100 122.222656 L 100 127.777344 L 83.332031 127.777344 Z M 38.890625 83.332031 L 44.445312 83.332031 L 44.445312 88.890625 L 38.890625 88.890625 Z M 88.890625 83.332031 L 94.445312 83.332031 L 94.445312 88.890625 L 88.890625 88.890625 Z M 88.890625 83.332031 "/>
</g>
</svg>
