<?xml version="1.0" encoding="UTF-8"?>
<svg xmlns="http://www.w3.org/2000/svg" xmlns:xlink="http://www.w3.org/1999/xlink" width="200px" height="px" viewBox="0 0 200 200" version="1.1">
<g id="surface1">
<path style=" stroke:none;fill-rule:nonzero;fill:rgb(80%,12.941176%,17.647059%);fill-opacity:1;" d="M 66.667969 27.777344 L 66.667969 172.222656 L 133.332031 172.222656 L 133.332031 27.777344 Z M 110.457031 114.390625 L 100 106.792969 L 89.542969 114.390625 L 93.539062 102.101562 L 83.082031 94.503906 L 96.003906 94.503906 L 100 82.210938 L 103.996094 94.5 L 116.917969 94.5 L 106.460938 102.09375 Z M 110.457031 114.390625 "/>
<path style=" stroke:none;fill-rule:nonzero;fill:rgb(15.686275%,52.156863%,25.490196%);fill-opacity:1;" d="M 22.222656 27.777344 C 9.949219 27.777344 0 37.726562 0 50 L 0 150 C 0 162.273438 9.949219 172.222656 22.222656 172.222656 L 66.667969 172.222656 L 66.667969 27.777344 Z M 22.222656 27.777344 "/>
<path style=" stroke:none;fill-rule:nonzero;fill:rgb(99.607843%,90.980392%,20%);fill-opacity:1;" d="M 177.777344 27.777344 L 133.332031 27.777344 L 133.332031 172.222656 L 177.777344 172.222656 C 190.050781 172.222656 200 162.273438 200 150 L 200 50 C 200 37.726562 190.050781 27.777344 177.777344 27.777344 Z M 103.996094 94.503906 L 100 82.210938 L 96.003906 94.503906 L 83.082031 94.503906 L 93.539062 102.101562 L 89.542969 114.390625 L 100 106.792969 L 110.457031 114.390625 L 106.460938 102.101562 L 116.917969 94.503906 Z M 103.996094 94.503906 "/>
</g>
</svg>
