<?xml version="1.0" encoding="UTF-8"?>
<svg xmlns="http://www.w3.org/2000/svg" xmlns:xlink="http://www.w3.org/1999/xlink" width="200px" height="200px" viewBox="0 0 200 200" version="1.1">
<g id="surface1">
<path style=" stroke:none;fill-rule:nonzero;fill:rgb(55.294118%,10.588235%,23.921569%);fill-opacity:1;" d="M 177.777344 27.777344 L 61.109375 27.777344 L 61.109375 172.222656 L 177.777344 172.222656 C 190.050781 172.222656 200 162.273438 200 150 L 200 50 C 200 37.726562 190.050781 27.777344 177.777344 27.777344 Z M 177.777344 27.777344 "/>
<path style=" stroke:none;fill-rule:nonzero;fill:rgb(93.333333%,93.333333%,93.333333%);fill-opacity:1;" d="M 61.109375 156.171875 L 90.527344 148.148438 L 61.109375 140.121094 L 90.527344 132.101562 L 61.109375 124.070312 L 90.527344 116.050781 L 61.109375 108.023438 L 90.527344 100 L 61.109375 91.976562 L 90.527344 83.957031 L 61.109375 75.929688 L 90.527344 67.90625 L 61.109375 59.878906 L 90.527344 51.851562 L 61.109375 43.828125 L 90.527344 35.804688 L 61.109375 27.777344 L 22.222656 27.777344 C 9.949219 27.777344 0 37.726562 0 50 L 0 150 C 0 162.273438 9.949219 172.222656 22.222656 172.222656 L 61.109375 172.222656 L 90.527344 164.199219 Z M 61.109375 156.171875 "/>
</g>
</svg>
