<?xml version="1.0" encoding="UTF-8"?>
<svg xmlns="http://www.w3.org/2000/svg" xmlns:xlink="http://www.w3.org/1999/xlink" width="200px" height="200px" viewBox="0 0 200 200" version="1.1">
<g id="surface1">
<path style=" stroke:none;fill-rule:nonzero;fill:rgb(16.078431%,68.235294%,40%);fill-opacity:1;" d="M 200 150 C 200 162.273438 190.050781 172.222656 177.777344 172.222656 L 22.222656 172.222656 C 9.949219 172.222656 0 162.273438 0 150 L 0 50 C 0 37.726562 9.949219 27.777344 22.222656 27.777344 L 177.777344 27.777344 C 190.050781 27.777344 200 37.726562 200 50 Z M 200 150 "/>
<path style=" stroke:none;fill-rule:nonzero;fill:rgb(79.215686%,21.568627%,27.058824%);fill-opacity:1;" d="M 22.222656 27.777344 L 61.109375 27.777344 L 61.109375 172.222656 L 22.222656 172.222656 Z M 22.222656 27.777344 "/>
<path style=" stroke:none;fill-rule:nonzero;fill:rgb(98.039216%,68.235294%,16.078431%);fill-opacity:1;" d="M 22.222656 46.179688 L 26.695312 50.648438 L 25.476562 51.867188 L 27.253906 53.644531 L 28.429688 52.472656 L 32.117188 56.160156 L 28.472656 59.8125 L 26.957031 58.289062 L 25.34375 59.894531 L 26.695312 61.238281 L 22.222656 65.1875 L 22.222656 63.105469 L 24.671875 60.785156 L 23.351562 59.722656 L 26.726562 56.351562 L 28.679688 58.039062 L 30.5 56.214844 L 28.550781 54.265625 L 27.183594 55.632812 L 23.621094 52.070312 L 24.957031 50.738281 L 22.222656 48.265625 Z M 22.222656 71.878906 L 26.695312 76.34375 L 25.476562 77.5625 L 27.253906 79.339844 L 28.429688 78.167969 L 32.117188 81.855469 L 28.472656 85.503906 L 26.957031 83.984375 L 25.34375 85.589844 L 26.695312 86.933594 L 22.222656 90.882812 L 22.222656 88.800781 L 24.671875 86.476562 L 23.351562 85.417969 L 26.726562 82.042969 L 28.679688 83.734375 L 30.5 81.910156 L 28.550781 79.960938 L 27.183594 81.328125 L 23.621094 77.765625 L 24.957031 76.433594 L 22.222656 73.957031 Z M 22.222656 98.089844 L 26.695312 102.5625 L 25.476562 103.777344 L 27.253906 105.554688 L 28.429688 104.382812 L 32.117188 108.070312 L 28.472656 111.714844 L 26.957031 110.199219 L 25.34375 111.804688 L 26.695312 113.148438 L 22.222656 117.101562 L 22.222656 115.015625 L 24.671875 112.695312 L 23.351562 111.632812 L 26.726562 108.253906 L 28.679688 109.949219 L 30.5 108.128906 L 28.550781 106.171875 L 27.183594 107.539062 L 23.621094 103.984375 L 24.957031 102.648438 L 22.222656 100.171875 Z M 22.222656 123.957031 L 26.695312 128.429688 L 25.476562 129.644531 L 27.253906 131.421875 L 28.429688 130.25 L 32.117188 133.9375 L 28.472656 137.589844 L 26.957031 136.066406 L 25.34375 137.671875 L 26.695312 139.015625 L 22.222656 142.964844 L 22.222656 140.882812 L 24.671875 138.5625 L 23.351562 137.5 L 26.726562 134.128906 L 28.679688 135.816406 L 30.5 133.996094 L 28.550781 132.042969 L 27.183594 133.410156 L 23.621094 129.851562 L 24.957031 128.515625 L 22.222656 126.042969 Z M 61.109375 46.179688 L 56.640625 50.648438 L 57.855469 51.867188 L 56.078125 53.644531 L 54.90625 52.472656 L 51.214844 56.160156 L 54.859375 59.8125 L 56.378906 58.289062 L 57.988281 59.894531 L 56.640625 61.238281 L 61.109375 65.1875 L 61.109375 63.105469 L 58.660156 60.785156 L 59.984375 59.722656 L 56.605469 56.351562 L 54.65625 58.039062 L 52.832031 56.214844 L 54.785156 54.265625 L 56.148438 55.632812 L 59.710938 52.070312 L 58.378906 50.738281 L 61.109375 48.265625 Z M 25.34375 31.601562 L 26.957031 29.988281 L 28.472656 31.511719 L 32.117188 27.867188 L 32.035156 27.777344 L 30.359375 27.777344 L 30.5 27.917969 L 28.679688 29.746094 L 26.726562 28.050781 L 23.351562 31.421875 L 24.671875 32.488281 L 22.222656 34.8125 L 22.222656 36.894531 L 26.695312 32.945312 Z M 59.984375 31.421875 L 56.605469 28.050781 L 54.65625 29.746094 L 52.832031 27.917969 L 52.972656 27.777344 L 51.300781 27.777344 L 51.214844 27.867188 L 54.859375 31.511719 L 56.378906 29.988281 L 57.988281 31.601562 L 56.640625 32.945312 L 61.109375 36.894531 L 61.109375 34.8125 L 58.660156 32.488281 Z M 61.109375 71.878906 L 56.640625 76.34375 L 57.855469 77.5625 L 56.078125 79.339844 L 54.90625 78.167969 L 51.214844 81.855469 L 54.859375 85.503906 L 56.378906 83.984375 L 57.988281 85.589844 L 56.640625 86.933594 L 61.109375 90.882812 L 61.109375 88.800781 L 58.660156 86.476562 L 59.984375 85.417969 L 56.605469 82.042969 L 54.65625 83.734375 L 52.832031 81.910156 L 54.785156 79.960938 L 56.148438 81.328125 L 59.710938 77.765625 L 58.378906 76.433594 L 61.109375 73.957031 Z M 61.109375 98.089844 L 56.640625 102.5625 L 57.855469 103.777344 L 56.078125 105.554688 L 54.90625 104.382812 L 51.214844 108.070312 L 54.859375 111.714844 L 56.378906 110.199219 L 57.988281 111.804688 L 56.640625 113.148438 L 61.109375 117.101562 L 61.109375 115.015625 L 58.660156 112.695312 L 59.984375 111.632812 L 56.605469 108.253906 L 54.65625 109.949219 L 52.832031 108.128906 L 54.785156 106.171875 L 56.148438 107.539062 L 59.710938 103.984375 L 58.378906 102.648438 L 61.109375 100.171875 Z M 61.109375 123.957031 L 56.640625 128.429688 L 57.855469 129.644531 L 56.078125 131.421875 L 54.90625 130.25 L 51.214844 133.9375 L 54.859375 137.589844 L 56.378906 136.066406 L 57.988281 137.671875 L 56.640625 139.015625 L 61.109375 142.964844 L 61.109375 140.882812 L 58.660156 138.5625 L 59.984375 137.5 L 56.605469 134.128906 L 54.65625 135.816406 L 52.832031 133.996094 L 54.785156 132.042969 L 56.148438 133.410156 L 59.710938 129.851562 L 58.378906 128.515625 L 61.109375 126.042969 Z M 61.109375 123.957031 "/>
<path style=" stroke:none;fill-rule:nonzero;fill:rgb(16.078431%,68.235294%,40%);fill-opacity:1;" d="M 55.671875 38.542969 L 55.671875 36.34375 L 52.433594 34.378906 L 50 34.378906 L 46.066406 32.332031 L 37.265625 32.332031 L 33.332031 34.378906 L 30.898438 34.378906 L 27.660156 36.34375 L 27.660156 38.542969 L 24.65625 40.394531 L 24.65625 45.488281 L 27.660156 47.339844 L 27.660156 49.539062 L 30.898438 51.503906 L 33.332031 51.503906 L 37.265625 53.550781 L 46.066406 53.550781 L 50 51.503906 L 52.433594 51.503906 L 55.671875 49.539062 L 55.671875 47.339844 L 58.679688 45.488281 L 58.679688 40.394531 Z M 55.671875 38.542969 "/>
<path style=" stroke:none;fill-rule:nonzero;fill:rgb(98.039216%,68.235294%,16.078431%);fill-opacity:1;" d="M 27.378906 42.933594 L 27.378906 40.761719 L 29.945312 39.179688 L 29.945312 37.304688 L 32.710938 35.621094 L 34.789062 35.621094 L 38.144531 33.882812 L 41.898438 33.882812 L 41.898438 42.933594 Z M 27.378906 42.933594 "/>
<path style=" stroke:none;fill-rule:nonzero;fill:rgb(100%,100%,100%);fill-opacity:1;" d="M 27.148438 42.9375 L 27.148438 45.117188 L 29.714844 46.695312 L 29.714844 48.570312 L 32.484375 50.25 L 34.554688 50.25 L 37.917969 51.988281 L 41.667969 51.988281 L 41.667969 42.9375 Z M 56.183594 42.9375 L 56.183594 40.765625 L 53.617188 39.1875 L 53.617188 37.3125 L 50.851562 35.632812 L 48.777344 35.632812 L 45.417969 33.894531 L 41.667969 33.894531 L 41.667969 42.9375 Z M 56.183594 42.9375 "/>
<path style=" stroke:none;fill-rule:nonzero;fill:rgb(98.039216%,68.235294%,16.078431%);fill-opacity:1;" d="M 56.183594 42.9375 L 56.183594 45.117188 L 53.617188 46.695312 L 53.617188 48.570312 L 50.851562 50.25 L 48.777344 50.25 L 45.417969 51.988281 L 41.667969 51.988281 L 41.667969 42.9375 Z M 27.378906 64.234375 L 31.132812 64.234375 L 31.132812 68.285156 L 27.378906 68.285156 Z M 31.132812 63.65625 L 34.890625 63.65625 L 34.890625 67.707031 L 31.132812 67.707031 Z M 34.894531 62.210938 L 38.648438 62.210938 L 38.648438 66.261719 L 34.894531 66.261719 Z M 52.3125 64.234375 L 56.066406 64.234375 L 56.066406 68.285156 L 52.3125 68.285156 Z M 48.550781 63.65625 L 52.304688 63.65625 L 52.304688 67.707031 L 48.550781 67.707031 Z M 44.789062 62.210938 L 48.542969 62.210938 L 48.542969 66.261719 L 44.789062 66.261719 Z M 44.789062 62.210938 "/>
<path style=" stroke:none;fill-rule:nonzero;fill:rgb(98.039216%,68.235294%,16.078431%);fill-opacity:1;" d="M 38.65625 60.183594 L 44.792969 60.183594 L 44.792969 65.1875 L 38.65625 65.1875 Z M 27.378906 69.355469 L 31.132812 69.355469 L 31.132812 73.40625 L 27.378906 73.40625 Z M 31.132812 69.933594 L 34.890625 69.933594 L 34.890625 73.984375 L 31.132812 73.984375 Z M 34.894531 71.382812 L 38.648438 71.382812 L 38.648438 75.433594 L 34.894531 75.433594 Z M 52.3125 69.355469 L 56.066406 69.355469 L 56.066406 73.40625 L 52.3125 73.40625 Z M 48.550781 69.933594 L 52.304688 69.933594 L 52.304688 73.984375 L 48.550781 73.984375 Z M 44.789062 71.382812 L 48.542969 71.382812 L 48.542969 75.433594 L 44.789062 75.433594 Z M 44.789062 71.382812 "/>
<path style=" stroke:none;fill-rule:nonzero;fill:rgb(98.039216%,68.235294%,16.078431%);fill-opacity:1;" d="M 38.65625 72.457031 L 44.792969 72.457031 L 44.792969 77.460938 L 38.65625 77.460938 Z M 38.65625 72.457031 "/>
<path style=" stroke:none;fill-rule:nonzero;fill:rgb(100%,100%,100%);fill-opacity:1;" d="M 47.496094 136.710938 L 36.0625 136.710938 L 27.972656 141.890625 L 27.972656 149.199219 L 36.0625 154.371094 L 47.496094 154.371094 L 55.582031 149.199219 L 55.582031 141.890625 Z M 47.496094 136.710938 "/>
<path style=" stroke:none;fill-rule:nonzero;fill:rgb(16.078431%,68.235294%,40%);fill-opacity:1;" d="M 46.570312 86.921875 L 36.984375 86.921875 L 30.199219 91.699219 L 30.199219 98.460938 L 36.984375 103.238281 L 46.578125 103.238281 L 53.359375 98.460938 L 53.359375 91.699219 Z M 50.660156 97.679688 L 45.457031 101.34375 L 38.101562 101.34375 L 32.894531 97.679688 L 32.894531 92.488281 L 38.101562 88.820312 L 45.457031 88.820312 L 50.660156 92.488281 Z M 47.738281 136.34375 L 35.816406 136.34375 L 27.390625 141.738281 L 27.390625 149.355469 L 35.816406 154.746094 L 47.734375 154.746094 L 56.160156 149.355469 L 56.160156 141.738281 Z M 53.621094 148.683594 L 46.679688 153.121094 L 36.871094 153.121094 L 29.929688 148.683594 L 29.929688 142.40625 L 36.871094 137.964844 L 46.683594 137.964844 L 53.628906 142.40625 L 53.628906 148.683594 Z M 54.1875 119.101562 L 54.1875 116.640625 L 51.734375 116.640625 L 51.734375 113.898438 L 31.773438 113.898438 L 31.773438 116.640625 L 29.027344 116.640625 L 29.027344 119.101562 L 26.621094 119.101562 L 26.621094 122.6875 L 29.027344 122.6875 L 29.027344 125.351562 L 31.773438 125.351562 L 31.773438 128.246094 L 51.738281 128.246094 L 51.738281 125.351562 L 54.1875 125.351562 L 54.1875 122.6875 L 57.0625 122.6875 L 57.0625 119.101562 Z M 50.429688 126.734375 L 33.105469 126.734375 L 33.105469 115.15625 L 50.429688 115.15625 Z M 50.429688 126.734375 "/>
<path style=" stroke:none;fill-rule:nonzero;fill:rgb(16.078431%,68.235294%,40%);fill-opacity:1;" d="M 41.667969 112.5 L 31.132812 118.75 L 31.132812 122.800781 L 41.667969 129.632812 L 52.3125 123.035156 L 52.3125 118.75 Z M 41.667969 112.5 "/>
<path style=" stroke:none;fill-rule:nonzero;fill:rgb(79.215686%,21.568627%,27.058824%);fill-opacity:1;" d="M 36.949219 143.144531 L 41.667969 140.417969 L 46.378906 143.144531 L 46.378906 148.582031 L 41.667969 151.300781 L 36.949219 148.582031 Z M 36.949219 143.144531 "/>
<path style=" stroke:none;fill-rule:nonzero;fill:rgb(98.039216%,68.235294%,16.078431%);fill-opacity:1;" d="M 46.378906 167.132812 L 45.023438 168.054688 C 45.023438 168.054688 43.867188 165.855469 40.738281 165.621094 C 37.609375 165.390625 35.878906 166.667969 33.214844 166.839844 C 30.554688 167.011719 22.355469 160.804688 26.617188 151.300781 C 30.4375 154.050781 28.457031 157.40625 30.199219 159.027344 C 31.945312 160.648438 33.785156 161.75 34.488281 163.660156 C 35.199219 165.570312 38.523438 163.988281 40.738281 164.355469 C 44.210938 164.933594 46.378906 167.132812 46.378906 167.132812 Z M 46.378906 167.132812 "/>
<path style=" stroke:none;fill-rule:nonzero;fill:rgb(98.039216%,68.235294%,16.078431%);fill-opacity:1;" d="M 36.949219 167.132812 L 38.304688 168.054688 C 38.304688 168.054688 39.460938 165.855469 42.589844 165.621094 C 45.714844 165.390625 47.457031 166.667969 50.117188 166.839844 C 52.777344 167.011719 60.976562 160.804688 56.710938 151.300781 C 52.894531 154.050781 54.871094 157.40625 53.128906 159.027344 C 51.382812 160.648438 49.542969 161.75 48.839844 163.660156 C 48.128906 165.570312 44.804688 163.988281 42.589844 164.355469 C 39.117188 164.933594 36.949219 167.132812 36.949219 167.132812 Z M 36.949219 167.132812 "/>
<path style=" stroke:none;fill-rule:nonzero;fill:rgb(100%,100%,100%);fill-opacity:1;" d="M 101 46.050781 C 104.609375 49.183594 106.945312 53.753906 106.945312 58.917969 C 106.945312 68.359375 99.289062 76.015625 89.84375 76.015625 C 86.59375 76.015625 83.59375 75.0625 81.003906 73.488281 C 84.179688 76.945312 88.695312 79.144531 93.75 79.144531 C 103.339844 79.144531 111.109375 71.371094 111.109375 61.785156 C 111.109375 54.785156 106.957031 48.800781 101 46.050781 Z M 88.035156 43.707031 L 86.667969 46.390625 L 88.792969 48.523438 L 85.820312 48.050781 L 84.449219 50.734375 L 83.984375 47.761719 L 81.003906 47.289062 L 83.6875 45.921875 L 83.214844 42.9375 L 85.351562 45.070312 Z M 88.035156 43.707031 "/>
<path style=" stroke:none;fill-rule:nonzero;fill:rgb(100%,100%,100%);fill-opacity:1;" d="M 96.539062 48.859375 L 95.171875 51.542969 L 97.304688 53.679688 L 94.328125 53.207031 L 92.957031 55.890625 L 92.488281 52.910156 L 89.511719 52.4375 L 92.195312 51.070312 L 91.726562 48.09375 L 93.855469 50.226562 Z M 88.035156 52.554688 L 86.667969 55.238281 L 88.792969 57.371094 L 85.820312 56.898438 L 84.449219 59.582031 L 83.984375 56.605469 L 81.003906 56.132812 L 83.6875 54.765625 L 83.214844 51.789062 L 85.351562 53.921875 Z M 79.179688 57.050781 L 77.8125 59.734375 L 79.945312 61.867188 L 76.964844 61.394531 L 75.59375 64.082031 L 75.128906 61.105469 L 72.148438 60.632812 L 74.832031 59.265625 L 74.367188 56.289062 L 76.496094 58.421875 Z M 88.035156 62.0625 L 86.667969 64.746094 L 88.792969 66.878906 L 85.820312 66.40625 L 84.449219 69.089844 L 83.984375 66.109375 L 81.003906 65.640625 L 83.6875 64.273438 L 83.214844 61.292969 L 85.351562 63.429688 Z M 88.035156 62.0625 "/>
<path style=" stroke:none;fill-rule:nonzero;fill:rgb(79.215686%,21.568627%,27.058824%);fill-opacity:1;" d="M 39.234375 115.394531 L 44.316406 115.394531 L 44.316406 118.8125 L 39.234375 118.8125 Z M 39.234375 123.179688 L 44.316406 123.179688 L 44.316406 126.59375 L 39.234375 126.59375 Z M 39.234375 123.179688 "/>
<path style=" stroke:none;fill-rule:nonzero;fill:rgb(98.039216%,68.235294%,16.078431%);fill-opacity:1;" d="M 31.132812 119.355469 L 38.09375 119.355469 L 38.09375 122.773438 L 31.132812 122.773438 Z M 45.488281 119.355469 L 52.3125 119.355469 L 52.3125 122.773438 L 45.488281 122.773438 Z M 45.488281 119.355469 "/>
</g>
</svg>
