<?xml version="1.0" encoding="UTF-8"?>
<svg xmlns="http://www.w3.org/2000/svg" xmlns:xlink="http://www.w3.org/1999/xlink" width="200px" height="200px" viewBox="0 0 200 200" version="1.1">
<g id="surface1">
<path style=" stroke:none;fill-rule:nonzero;fill:rgb(0%,61.960784%,28.627451%);fill-opacity:1;" d="M 108.898438 105.234375 L 114.398438 122.167969 L 100 111.699219 L 85.59375 122.167969 L 91.09375 105.234375 L 83.894531 100 L 0 100 L 0 150 C 0 162.273438 9.949219 172.222656 22.222656 172.222656 L 177.777344 172.222656 C 190.050781 172.222656 200 162.273438 200 150 L 200 100 L 116.105469 100 Z M 108.898438 105.234375 "/>
<path style=" stroke:none;fill-rule:nonzero;fill:rgb(93.72549%,16.862745%,17.647059%);fill-opacity:1;" d="M 177.777344 27.777344 L 22.222656 27.777344 C 9.949219 27.777344 0 37.726562 0 50 L 0 100 L 83.894531 100 L 76.695312 94.765625 L 94.5 94.765625 L 100 77.832031 L 105.5 94.765625 L 123.304688 94.765625 L 116.105469 100 L 200 100 L 200 50 C 200 37.726562 190.050781 27.777344 177.777344 27.777344 Z M 177.777344 27.777344 "/>
<path style=" stroke:none;fill-rule:nonzero;fill:rgb(98.823529%,81.960784%,8.627451%);fill-opacity:1;" d="M 85.59375 122.167969 L 100 111.699219 L 114.40625 122.167969 L 108.898438 105.234375 L 116.105469 100 L 123.304688 94.765625 L 105.5 94.765625 L 100 77.832031 L 94.5 94.765625 L 76.695312 94.765625 L 83.894531 100 L 91.101562 105.234375 Z M 85.59375 122.167969 "/>
</g>
</svg>
