<?xml version="1.0" encoding="UTF-8"?>
<svg xmlns="http://www.w3.org/2000/svg" xmlns:xlink="http://www.w3.org/1999/xlink" width="200px" height="200px" viewBox="0 0 200 200" version="1.1">
<g id="surface1">
<path style=" stroke:none;fill-rule:nonzero;fill:rgb(0%,14.117647%,49.019608%);fill-opacity:1;" d="M 177.777344 27.777344 L 22.222656 27.777344 C 21.082031 27.777344 19.960938 27.859375 18.867188 28.027344 L 18.84375 37.773438 L 3.679688 37.75 C 1.355469 41.261719 0 45.472656 0 50 L 0 150 C 0 162.273438 9.949219 172.222656 22.222656 172.222656 L 177.777344 172.222656 C 190.050781 172.222656 200 162.273438 200 150 L 200 50 C 200 37.726562 190.050781 27.777344 177.777344 27.777344 Z M 177.777344 27.777344 "/>
<path style=" stroke:none;fill-rule:nonzero;fill:rgb(100%,100%,100%);fill-opacity:1;" d="M 50 144.570312 L 43.210938 150.84375 L 43.882812 141.621094 L 34.746094 140.226562 L 42.371094 135.003906 L 37.765625 126.988281 L 46.605469 129.699219 L 50 121.09375 L 53.398438 129.699219 L 62.238281 126.988281 L 57.628906 135.003906 L 65.261719 140.226562 L 56.121094 141.621094 L 56.792969 150.84375 Z M 155.277344 53.121094 L 150.839844 57.222656 L 151.277344 51.1875 L 145.292969 50.277344 L 150.289062 46.859375 L 147.277344 41.617188 L 153.054688 43.390625 L 155.277344 37.761719 L 157.503906 43.390625 L 163.289062 41.617188 L 160.273438 46.859375 L 165.261719 50.277344 L 159.285156 51.1875 L 159.722656 57.222656 Z M 133.054688 86.457031 L 128.617188 90.5625 L 129.054688 84.527344 L 123.070312 83.617188 L 128.066406 80.195312 L 125.054688 74.949219 L 130.832031 76.722656 L 133.054688 71.09375 L 135.285156 76.722656 L 141.066406 74.949219 L 138.050781 80.195312 L 143.039062 83.617188 L 137.0625 84.527344 L 137.5 90.5625 Z M 183.054688 75.34375 L 178.617188 79.449219 L 179.054688 73.417969 L 173.070312 72.503906 L 178.066406 69.082031 L 175.054688 63.839844 L 180.832031 65.609375 L 183.054688 59.984375 L 185.285156 65.609375 L 191.066406 63.839844 L 188.050781 69.082031 L 193.039062 72.503906 L 187.0625 73.417969 L 187.5 79.449219 Z M 155.277344 153.121094 L 150.839844 157.226562 L 151.277344 151.195312 L 145.292969 150.285156 L 150.289062 146.859375 L 147.277344 141.617188 L 153.054688 143.390625 L 155.277344 137.761719 L 157.503906 143.390625 L 163.289062 141.617188 L 160.273438 146.859375 L 165.261719 150.285156 L 159.285156 151.195312 L 159.722656 157.226562 Z M 172.222656 88.890625 L 173.855469 92.199219 L 177.503906 92.726562 L 174.867188 95.300781 L 175.488281 98.9375 L 172.222656 97.222656 L 168.957031 98.9375 L 169.578125 95.300781 L 166.9375 92.726562 L 170.589844 92.199219 Z M 172.222656 88.890625 "/>
<path style=" stroke:none;fill-rule:nonzero;fill:rgb(0%,14.117647%,49.019608%);fill-opacity:1;" d="M 105.554688 100 L 105.554688 27.777344 L 22.222656 27.777344 C 20.445312 27.777344 18.867188 28.027344 18.867188 28.027344 L 18.84375 37.773438 L 3.679688 37.75 C 3.679688 37.75 3.445312 38.078125 2.972656 38.890625 C 1.082031 42.160156 0 45.957031 0 50 L 0 100 Z M 105.554688 100 "/>
<path style=" stroke:none;fill-rule:nonzero;fill:rgb(93.333333%,93.333333%,93.333333%);fill-opacity:1;" d="M 105.554688 27.777344 L 92.605469 27.777344 L 66.667969 45.9375 L 66.667969 27.777344 L 38.890625 27.777344 L 38.890625 42.050781 L 18.867188 28.027344 C 15.457031 28.550781 12.253906 29.832031 9.578125 31.722656 L 35.699219 50 L 26.054688 50 L 5.371094 35.503906 C 4.761719 36.222656 4.199219 36.960938 3.679688 37.75 L 21.183594 50 L 0 50 L 0 77.777344 L 21.582031 77.777344 L 0 93.144531 L 0 100 L 18.511719 100 L 38.890625 85.734375 L 38.890625 100 L 66.667969 100 L 66.667969 81.839844 L 92.601562 100 L 105.554688 100 L 105.554688 88.726562 L 89.917969 77.777344 L 105.554688 77.777344 L 105.554688 50 L 89.921875 50 L 105.554688 39.050781 Z M 105.554688 27.777344 "/>
<path style=" stroke:none;fill-rule:nonzero;fill:rgb(81.176471%,10.588235%,16.862745%);fill-opacity:1;" d="M 61.109375 27.777344 L 44.445312 27.777344 L 44.445312 55.554688 L 0 55.554688 L 0 72.222656 L 44.445312 72.222656 L 44.445312 100 L 61.109375 100 L 61.109375 72.222656 L 105.554688 72.222656 L 105.554688 55.554688 L 61.109375 55.554688 Z M 61.109375 27.777344 "/>
<path style=" stroke:none;fill-rule:nonzero;fill:rgb(81.176471%,10.588235%,16.862745%);fill-opacity:1;" d="M 105.554688 27.777344 L 97.4375 27.777344 L 66.667969 49.328125 L 66.667969 50 L 75.394531 50 L 105.554688 28.878906 Z M 9.578125 31.722656 C 8.015625 32.804688 6.609375 34.070312 5.371094 35.503906 L 26.054688 50 L 35.695312 50 Z M 35.761719 77.777344 L 4.078125 100 L 13.671875 100 L 38.890625 82.34375 L 38.890625 77.777344 Z M 105.554688 98.898438 L 105.554688 92.121094 L 85.070312 77.777344 L 75.390625 77.777344 Z M 105.554688 98.898438 "/>
</g>
</svg>
