<?xml version="1.0" encoding="UTF-8"?>
<svg xmlns="http://www.w3.org/2000/svg" xmlns:xlink="http://www.w3.org/1999/xlink" width="200px" height="px" viewBox="0 0 200 200" version="1.1">
<g id="surface1">
<path style=" stroke:none;fill-rule:nonzero;fill:rgb(12.156863%,25.882353%,60.784314%);fill-opacity:1;" d="M 72.222656 27.777344 L 22.222656 27.777344 C 9.949219 27.777344 0 37.726562 0 50 L 0 100 L 72.222656 100 Z M 46.316406 79.398438 L 35.859375 71.804688 L 25.40625 79.398438 L 29.398438 67.109375 L 18.945312 59.511719 L 31.867188 59.511719 L 35.859375 47.222656 L 39.855469 59.511719 L 52.777344 59.511719 L 42.320312 67.109375 Z M 46.316406 79.398438 "/>
<path style=" stroke:none;fill-rule:nonzero;fill:rgb(93.333333%,93.333333%,93.333333%);fill-opacity:1;" d="M 177.777344 27.777344 L 72.222656 27.777344 L 72.222656 100 L 200 100 L 200 50 C 200 37.726562 190.050781 27.777344 177.777344 27.777344 Z M 177.777344 27.777344 "/>
<path style=" stroke:none;fill-rule:nonzero;fill:rgb(83.137255%,17.647059%,15.294118%);fill-opacity:1;" d="M 0 100 L 0 150 C 0 162.273438 9.949219 172.222656 22.222656 172.222656 L 177.777344 172.222656 C 190.050781 172.222656 200 162.273438 200 150 L 200 100 Z M 0 100 "/>
<path style=" stroke:none;fill-rule:nonzero;fill:rgb(100%,100%,100%);fill-opacity:1;" d="M 39.855469 59.511719 L 35.859375 47.222656 L 31.867188 59.511719 L 18.945312 59.511719 L 29.398438 67.109375 L 25.40625 79.398438 L 35.859375 71.804688 L 46.316406 79.398438 L 42.320312 67.109375 L 52.777344 59.511719 Z M 39.855469 59.511719 "/>
</g>
</svg>
