<?xml version="1.0" encoding="UTF-8"?>
<svg xmlns="http://www.w3.org/2000/svg" xmlns:xlink="http://www.w3.org/1999/xlink" width="200px" height="200px" viewBox="0 0 200 200" version="1.1">
<g id="surface1">
<path style=" stroke:none;fill-rule:nonzero;fill:rgb(45.882353%,69.803922%,86.666667%);fill-opacity:1;" d="M 177.777344 27.777344 L 22.222656 27.777344 C 9.949219 27.777344 0 37.726562 0 50 L 0 150 C 0 162.273438 9.949219 172.222656 22.222656 172.222656 L 177.777344 172.222656 C 190.050781 172.222656 200 162.273438 200 150 L 200 50 C 200 37.726562 190.050781 27.777344 177.777344 27.777344 Z M 177.777344 27.777344 "/>
<path style=" stroke:none;fill-rule:nonzero;fill:rgb(100%,100%,100%);fill-opacity:1;" d="M 101.667969 42.222656 L 98.421875 52.207031 L 87.929688 52.207031 L 96.417969 58.371094 L 93.179688 68.351562 L 101.667969 62.183594 L 110.15625 68.351562 L 106.917969 58.371094 L 115.40625 52.207031 L 104.910156 52.207031 Z M 149.460938 96.753906 L 149.460938 86.261719 L 143.292969 94.75 L 133.316406 91.511719 L 139.484375 100 L 133.316406 108.488281 L 143.292969 105.25 L 149.460938 113.738281 L 149.460938 103.246094 L 159.445312 100 Z M 106.917969 141.628906 L 110.15625 131.648438 L 101.667969 137.816406 L 93.179688 131.648438 L 96.417969 141.628906 L 87.929688 147.792969 L 98.421875 147.792969 L 101.667969 157.777344 L 104.910156 147.792969 L 115.40625 147.792969 Z M 60.039062 94.75 L 53.871094 86.261719 L 53.871094 96.753906 L 43.890625 100 L 53.871094 103.246094 L 53.871094 113.738281 L 60.039062 105.25 L 70.015625 108.488281 L 63.851562 100 L 70.015625 91.511719 Z M 60.039062 94.75 "/>
</g>
</svg>
