<?xml version="1.0" encoding="UTF-8"?>
<svg xmlns="http://www.w3.org/2000/svg" xmlns:xlink="http://www.w3.org/1999/xlink" width="200px" height="200px" viewBox="0 0 200 200" version="1.1">
<g id="surface1">
<path style=" stroke:none;fill-rule:nonzero;fill:rgb(74.901961%,3.921569%,18.823529%);fill-opacity:1;" d="M 198.289062 158.542969 L 1.710938 158.542969 C 5.0625 166.570312 12.976562 172.222656 22.222656 172.222656 L 177.777344 172.222656 C 187.023438 172.222656 194.9375 166.570312 198.289062 158.542969 Z M 0 132.285156 L 200 132.285156 L 200 146.511719 L 0 146.511719 Z M 63.890625 53.496094 L 200 53.496094 L 200 67.722656 L 63.890625 67.722656 Z M 198.289062 41.457031 C 194.9375 33.429688 187.023438 27.777344 177.777344 27.777344 L 63.890625 27.777344 L 63.890625 41.457031 Z M 63.890625 79.753906 L 200 79.753906 L 200 93.984375 L 63.890625 93.984375 Z M 0 106.015625 L 200 106.015625 L 200 120.246094 L 0 120.246094 Z M 0 106.015625 "/>
<path style=" stroke:none;fill-rule:nonzero;fill:rgb(93.333333%,93.333333%,93.333333%);fill-opacity:1;" d="M 63.890625 67.714844 L 200 67.714844 L 200 79.753906 L 63.890625 79.753906 Z M 0 93.984375 L 0 106.015625 L 200 106.015625 L 200 93.984375 Z M 63.890625 41.457031 L 63.890625 53.496094 L 200 53.496094 L 200 50 C 200 46.972656 199.382812 44.089844 198.289062 41.457031 Z M 0 120.246094 L 200 120.246094 L 200 132.285156 L 0 132.285156 Z M 0 150 C 0 153.027344 0.617188 155.910156 1.710938 158.542969 L 198.285156 158.542969 C 199.382812 155.910156 200 153.027344 200 150 L 200 146.503906 L 0 146.503906 Z M 0 150 "/>
<path style=" stroke:none;fill-rule:nonzero;fill:rgb(0%,15.686275%,40.784314%);fill-opacity:1;" d="M 22.222656 27.777344 C 9.949219 27.777344 0 37.726562 0 50 L 0 93.984375 L 66.667969 93.984375 L 66.667969 27.777344 Z M 22.222656 27.777344 "/>
<path style=" stroke:none;fill-rule:nonzero;fill:rgb(100%,100%,100%);fill-opacity:1;" d="M 37.746094 56.917969 L 33.332031 43.34375 L 28.921875 56.917969 L 14.65625 56.917969 L 26.199219 65.304688 L 21.789062 78.878906 L 33.332031 70.488281 L 44.878906 78.878906 L 40.464844 65.304688 L 52.011719 56.917969 Z M 37.746094 56.917969 "/>
</g>
</svg>
