<?xml version="1.0" encoding="UTF-8"?>
<svg xmlns="http://www.w3.org/2000/svg" xmlns:xlink="http://www.w3.org/1999/xlink" width="200px" height="px" viewBox="0 0 200 200" version="1.1">
<g id="surface1">
<path style=" stroke:none;fill-rule:nonzero;fill:rgb(80.784314%,6.666667%,14.901961%);fill-opacity:1;" d="M 177.777344 27.777344 L 22.222656 27.777344 C 9.949219 27.777344 0 37.726562 0 50 L 0 150 C 0 162.273438 9.949219 172.222656 22.222656 172.222656 L 177.777344 172.222656 C 190.050781 172.222656 200 162.273438 200 150 L 200 50 C 200 37.726562 190.050781 27.777344 177.777344 27.777344 Z M 177.777344 27.777344 "/>
<path style=" stroke:none;fill-rule:nonzero;fill:rgb(0%,47.843137%,36.862745%);fill-opacity:1;" d="M 19.445312 47.222656 L 180.554688 47.222656 L 180.554688 152.777344 L 19.445312 152.777344 Z M 19.445312 47.222656 "/>
<path style=" stroke:none;fill-rule:nonzero;fill:rgb(98.823529%,81.960784%,8.627451%);fill-opacity:1;" d="M 19.445312 47.222656 L 180.554688 47.222656 L 19.445312 152.777344 L 180.554688 152.777344 Z M 19.445312 47.222656 "/>
<path style=" stroke:none;fill-rule:nonzero;fill:rgb(80.784314%,6.666667%,14.901961%);fill-opacity:1;" d="M 119.445312 100 C 119.445312 110.738281 110.738281 119.445312 100 119.445312 C 89.261719 119.445312 80.554688 110.738281 80.554688 100 C 80.554688 89.261719 89.261719 80.554688 100 80.554688 C 110.738281 80.554688 119.445312 89.261719 119.445312 100 Z M 119.445312 100 "/>
<path style=" stroke:none;fill-rule:nonzero;fill:rgb(98.823529%,81.960784%,8.627451%);fill-opacity:1;" d="M 100 82.210938 L 103.996094 94.503906 L 116.917969 94.503906 L 106.460938 102.101562 L 110.457031 114.390625 L 100 106.792969 L 89.542969 114.390625 L 93.539062 102.101562 L 83.082031 94.503906 L 96.003906 94.503906 Z M 100 28.789062 L 102.144531 35.390625 L 109.082031 35.390625 L 103.472656 39.464844 L 105.617188 46.066406 L 100 41.988281 L 94.382812 46.066406 L 96.527344 39.464844 L 90.917969 35.390625 L 97.855469 35.390625 Z M 144.554688 28.789062 L 146.699219 35.390625 L 153.640625 35.390625 L 148.027344 39.464844 L 150.171875 46.066406 L 144.554688 41.988281 L 138.945312 46.066406 L 141.089844 39.464844 L 135.472656 35.390625 L 142.410156 35.390625 Z M 55.445312 28.789062 L 57.589844 35.390625 L 64.527344 35.390625 L 58.910156 39.464844 L 61.054688 46.066406 L 55.445312 41.988281 L 49.828125 46.066406 L 51.972656 39.464844 L 46.359375 35.390625 L 53.300781 35.390625 Z M 100 153.789062 L 102.144531 160.390625 L 109.082031 160.390625 L 103.472656 164.464844 L 105.617188 171.066406 L 100 166.988281 L 94.382812 171.066406 L 96.527344 164.464844 L 90.917969 160.390625 L 97.855469 160.390625 Z M 144.554688 153.789062 L 146.699219 160.390625 L 153.640625 160.390625 L 148.027344 164.464844 L 150.171875 171.066406 L 144.554688 166.988281 L 138.945312 171.066406 L 141.089844 164.464844 L 135.472656 160.390625 L 142.410156 160.390625 Z M 55.445312 153.789062 L 57.589844 160.390625 L 64.527344 160.390625 L 58.910156 164.464844 L 61.054688 171.066406 L 55.445312 166.988281 L 49.828125 171.066406 L 51.972656 164.464844 L 46.359375 160.390625 L 53.300781 160.390625 Z M 55.445312 153.789062 "/>
<path style=" stroke:none;fill-rule:nonzero;fill:rgb(80.784314%,6.666667%,14.901961%);fill-opacity:1;" d="M 33.988281 105.929688 C 35.679688 107.679688 37.570312 109.144531 39.332031 109.882812 C 39.359375 107.945312 39.015625 105.726562 38.421875 103.503906 C 36.933594 102.109375 35.246094 100.929688 33.601562 100.300781 C 33.359375 102.066406 33.535156 104.039062 33.988281 105.929688 Z M 33.988281 105.929688 "/>
<path style=" stroke:none;fill-rule:nonzero;fill:rgb(98.823529%,81.960784%,8.627451%);fill-opacity:1;" d="M 42.460938 108.683594 C 46.921875 92.484375 31.015625 93.472656 26.890625 88.292969 C 29.734375 94.226562 19.503906 108.390625 36.550781 111.707031 C 35.429688 110.171875 34.515625 108.101562 33.996094 105.929688 C 33.539062 104.039062 33.367188 102.066406 33.605469 100.300781 C 35.253906 100.929688 36.9375 102.109375 38.429688 103.503906 C 40.167969 105.132812 41.640625 107.042969 42.460938 108.683594 Z M 42.460938 108.683594 "/>
</g>
</svg>
