<?xml version="1.0" encoding="UTF-8"?>
<svg xmlns="http://www.w3.org/2000/svg" xmlns:xlink="http://www.w3.org/1999/xlink" width="200px" height="200px" viewBox="0 0 200 200" version="1.1">
<g id="surface1">
<path style=" stroke:none;fill-rule:nonzero;fill:rgb(29.019608%,65.098039%,34.117647%);fill-opacity:1;" d="M 33.332031 172.222656 L 177.777344 172.222656 C 190.050781 172.222656 200 162.273438 200 150 L 200 127.777344 L 33.332031 127.777344 Z M 33.332031 172.222656 "/>
<path style=" stroke:none;fill-rule:nonzero;fill:rgb(78.431373%,19.215686%,24.313725%);fill-opacity:1;" d="M 177.777344 27.777344 L 33.332031 27.777344 L 33.332031 127.777344 L 200 127.777344 L 200 50 C 200 37.726562 190.050781 27.777344 177.777344 27.777344 Z M 177.777344 27.777344 "/>
<path style=" stroke:none;fill-rule:nonzero;fill:rgb(100%,100%,100%);fill-opacity:1;" d="M 22.222656 27.777344 C 9.949219 27.777344 0 37.726562 0 50 L 0 150 C 0 162.273438 9.949219 172.222656 22.222656 172.222656 L 33.332031 172.222656 L 33.332031 27.777344 Z M 22.222656 27.777344 "/>
<path style=" stroke:none;fill-rule:nonzero;fill:rgb(78.431373%,19.215686%,24.313725%);fill-opacity:1;" d="M 4.253906 162.15625 L 7.726562 155.996094 L 11.289062 162.332031 L 8.277344 167.171875 C 9.226562 167.945312 10.226562 168.632812 11.300781 169.238281 L 15.699219 161.253906 L 7.8125 148.609375 L 1.605469 158.199219 C 2.621094 160.753906 4.109375 163.042969 5.945312 165.035156 Z M 33.226562 161.648438 L 24.910156 149.304688 L 16.566406 161.367188 L 23.710938 172.222656 L 27.304688 172.222656 Z M 25.15625 155.988281 L 28.714844 162.328125 L 25.15625 168.054688 L 21.683594 162.15625 Z M 33.332031 101.851562 L 33.332031 96.882812 L 31.59375 99.304688 Z M 15.695312 39.035156 L 10.726562 31.066406 C 6.40625 33.695312 3.09375 37.726562 1.367188 42.566406 L 8.503906 52.082031 Z M 4.253906 39.933594 L 7.726562 33.773438 L 11.289062 40.109375 L 7.726562 45.832031 Z M 25.648438 52.949219 L 33.226562 39.421875 L 25.382812 27.777344 L 24.433594 27.777344 L 16.570312 39.144531 Z M 28.710938 40.105469 L 25.15625 45.832031 L 21.683594 39.933594 L 25.15625 33.773438 Z M 28.710938 40.105469 "/>
<path style=" stroke:none;fill-rule:nonzero;fill:rgb(78.431373%,19.215686%,24.313725%);fill-opacity:1;" d="M 27.515625 83.332031 L 32.378906 75.261719 L 33.332031 75.683594 L 33.332031 72.222656 L 25.523438 60.066406 L 16.144531 73.089844 L 7.8125 59.722656 L 0 71.792969 L 0 75.40625 L 4.773438 83.332031 L 8.15625 78.382812 L 5.726562 75 L 7.550781 72.566406 L 12.84375 79.421875 L 5.035156 92.265625 L 0 85.339844 L 0 93.964844 L 0.320312 93.539062 L 5.617188 100.394531 L 0 109.640625 L 0 116.179688 L 5.035156 109.246094 L 12.84375 122.089844 L 8.457031 127.777344 L 7.550781 128.949219 L 6.671875 127.777344 L 5.726562 126.515625 L 8.160156 123.132812 L 4.777344 118.183594 L 0 126.117188 L 0 129.3125 L 7.988281 141.496094 L 15.765625 127.777344 L 16.0625 127.253906 L 16.382812 127.777344 L 25.351562 142.273438 L 33.332031 128.121094 L 33.332031 125.949219 L 32.640625 126.261719 L 27.777344 118.183594 L 24.390625 123.132812 L 26.820312 126.515625 L 25.878906 127.777344 L 25 128.949219 L 24.09375 127.777344 L 19.707031 122.09375 L 27.515625 109.25 L 33.332031 117.253906 L 33.332031 110.910156 L 26.90625 100.34375 L 32.199219 93.488281 L 33.332031 95 L 33.332031 83.90625 L 27.253906 92.277344 L 19.445312 79.429688 L 24.738281 72.570312 L 26.5625 75 L 24.128906 78.382812 Z M 23.804688 94.617188 L 23.804688 105.328125 L 16.054688 117.566406 L 8.753906 105.277344 L 8.753906 94.679688 L 16.054688 82.382812 Z M 23.804688 94.617188 "/>
<path style=" stroke:none;fill-rule:nonzero;fill:rgb(78.431373%,19.215686%,24.313725%);fill-opacity:1;" d="M 11.285156 93.460938 L 14.605469 99.523438 L 11.285156 105.582031 L 13.714844 106.917969 L 16.1875 102.410156 L 18.660156 106.917969 L 21.09375 105.582031 L 17.773438 99.523438 L 21.09375 93.460938 L 18.660156 92.128906 L 16.1875 96.632812 L 13.714844 92.128906 Z M 0.144531 145.488281 L 3.617188 151.390625 L 7.179688 145.660156 L 3.617188 139.320312 Z M 8.566406 145.488281 L 12.039062 151.390625 L 15.59375 145.660156 L 12.039062 139.320312 Z M 16.8125 145.488281 L 20.285156 151.390625 L 23.84375 145.660156 L 20.285156 139.320312 Z M 25.65625 145.488281 L 29.128906 151.390625 L 32.683594 145.660156 L 29.128906 139.320312 Z M 0.144531 56.25 L 3.617188 62.15625 L 7.179688 56.421875 L 3.617188 50.089844 Z M 8.566406 56.25 L 12.039062 62.15625 L 15.59375 56.421875 L 12.039062 50.089844 Z M 16.8125 56.25 L 20.285156 62.15625 L 23.84375 56.421875 L 20.285156 50.089844 Z M 25.65625 56.25 L 29.128906 62.15625 L 32.683594 56.421875 L 29.128906 50.089844 Z M 25.65625 56.25 "/>
</g>
</svg>
