<?xml version="1.0" encoding="UTF-8"?>
<svg xmlns="http://www.w3.org/2000/svg" xmlns:xlink="http://www.w3.org/1999/xlink" width="200px" height="200px" viewBox="0 0 200 200" version="1.1">
<g id="surface1">
<path style=" stroke:none;fill-rule:nonzero;fill:rgb(0%,21.960784%,57.647059%);fill-opacity:1;" d="M 200 150 C 200 162.273438 190.050781 172.222656 177.777344 172.222656 L 22.222656 172.222656 C 9.949219 172.222656 0 162.273438 0 150 L 0 50 C 0 37.726562 9.949219 27.777344 22.222656 27.777344 L 177.777344 27.777344 C 190.050781 27.777344 200 37.726562 200 50 Z M 200 150 "/>
<path style=" stroke:none;fill-rule:nonzero;fill:rgb(95.686275%,56.470588%,4.705882%);fill-opacity:1;" d="M 192.183594 33.207031 L 4.640625 163.445312 C 4.777344 163.628906 4.933594 163.800781 5.082031 163.988281 L 200 61.109375 L 200 50 C 200 43.253906 196.929688 37.285156 192.183594 33.207031 Z M 192.183594 33.207031 "/>
<path style=" stroke:none;fill-rule:nonzero;fill:rgb(93.333333%,93.333333%,93.333333%);fill-opacity:1;" d="M 5.621094 164.640625 L 200 94.445312 L 200 61.109375 L 5.082031 163.988281 C 5.261719 164.207031 5.433594 164.429688 5.621094 164.640625 Z M 5.621094 164.640625 "/>
<path style=" stroke:none;fill-rule:nonzero;fill:rgb(100%,100%,100%);fill-opacity:1;" d="M 50 38.429688 L 51.699219 67.070312 L 57.378906 55.082031 L 54.921875 68.121094 L 64.027344 58.472656 L 57.660156 70.117188 L 69.304688 63.75 L 59.65625 72.855469 L 72.695312 70.398438 L 60.707031 76.082031 L 89.351562 77.777344 L 60.707031 79.476562 L 72.695312 85.15625 L 59.65625 82.699219 L 69.304688 91.804688 L 57.660156 85.4375 L 64.027344 97.082031 L 54.921875 87.4375 L 57.378906 100.472656 L 51.699219 88.484375 L 50 117.121094 L 48.300781 88.484375 L 42.621094 100.472656 L 45.078125 87.4375 L 35.972656 97.082031 L 42.339844 85.4375 L 30.695312 91.804688 L 40.34375 82.699219 L 27.304688 85.15625 L 39.292969 79.476562 L 10.648438 77.777344 L 39.292969 76.082031 L 27.304688 70.398438 L 40.34375 72.855469 L 30.695312 63.75 L 42.339844 70.117188 L 35.972656 58.472656 L 45.078125 68.121094 L 42.621094 55.082031 L 48.300781 67.070312 Z M 50 38.429688 "/>
</g>
</svg>
