<?xml version="1.0" encoding="UTF-8"?>
<svg xmlns="http://www.w3.org/2000/svg" xmlns:xlink="http://www.w3.org/1999/xlink" width="200px" height="200px" viewBox="0 0 200 200" version="1.1">
<g id="surface1">
<path style=" stroke:none;fill-rule:nonzero;fill:rgb(82.352941%,6.27451%,20.392157%);fill-opacity:1;" d="M 177.777344 27.777344 L 22.222656 27.777344 C 9.949219 27.777344 0 37.726562 0 50 L 0 150 C 0 162.273438 9.949219 172.222656 22.222656 172.222656 L 177.777344 172.222656 C 190.050781 172.222656 200 162.273438 200 150 L 200 50 C 200 37.726562 190.050781 27.777344 177.777344 27.777344 Z M 177.777344 27.777344 "/>
<path style=" stroke:none;fill-rule:nonzero;fill:rgb(0%,49.411765%,22.745098%);fill-opacity:1;" d="M 33.332031 61.109375 L 166.667969 61.109375 L 166.667969 138.890625 L 33.332031 138.890625 Z M 33.332031 61.109375 "/>
<path style=" stroke:none;fill-rule:nonzero;fill:rgb(100%,100%,100%);fill-opacity:1;" d="M 109.109375 124.132812 C 110.660156 124.132812 112.171875 123.984375 113.632812 123.707031 C 102.472656 121.589844 94.027344 111.785156 94.027344 100.003906 C 94.027344 88.226562 102.472656 78.421875 113.632812 76.304688 C 112.167969 76.027344 110.65625 75.878906 109.109375 75.878906 C 95.785156 75.878906 84.976562 86.683594 84.976562 100.011719 C 84.976562 113.328125 95.785156 124.132812 109.109375 124.132812 Z M 109.109375 124.132812 "/>
</g>
</svg>
