<?xml version="1.0" encoding="UTF-8"?>
<svg xmlns="http://www.w3.org/2000/svg" xmlns:xlink="http://www.w3.org/1999/xlink" width="200px" height="px" viewBox="0 0 200 200" version="1.1">
<g id="surface1">
<path style=" stroke:none;fill-rule:nonzero;fill:rgb(98.823529%,81.960784%,8.627451%);fill-opacity:1;" d="M 177.777344 27.777344 L 83.332031 27.777344 L 83.332031 100 L 200 100 L 200 50 C 200 37.726562 190.050781 27.777344 177.777344 27.777344 Z M 177.777344 27.777344 "/>
<path style=" stroke:none;fill-rule:nonzero;fill:rgb(0%,61.960784%,28.627451%);fill-opacity:1;" d="M 83.332031 172.222656 L 177.777344 172.222656 C 190.050781 172.222656 200 162.273438 200 150 L 200 100 L 83.332031 100 Z M 83.332031 172.222656 "/>
<path style=" stroke:none;fill-rule:nonzero;fill:rgb(80.784314%,6.666667%,14.901961%);fill-opacity:1;" d="M 83.332031 27.777344 L 22.222656 27.777344 C 9.949219 27.777344 0 37.726562 0 50 L 0 150 C 0 162.273438 9.949219 172.222656 22.222656 172.222656 L 83.332031 172.222656 Z M 55.554688 122.222656 L 41.40625 111.9375 L 27.253906 122.222656 L 32.660156 105.589844 L 18.511719 95.304688 L 36 95.304688 L 41.40625 78.671875 L 46.8125 95.304688 L 64.300781 95.304688 L 50.148438 105.589844 Z M 55.554688 122.222656 "/>
<path style=" stroke:none;fill-rule:nonzero;fill:rgb(0%,0%,0%);fill-opacity:1;" d="M 46.8125 95.304688 L 41.40625 78.671875 L 36 95.304688 L 18.511719 95.304688 L 32.660156 105.589844 L 27.253906 122.222656 L 41.40625 111.9375 L 55.554688 122.222656 L 50.148438 105.589844 L 64.300781 95.304688 Z M 46.8125 95.304688 "/>
</g>
</svg>
