<?xml version="1.0" encoding="UTF-8"?>
<svg xmlns="http://www.w3.org/2000/svg" xmlns:xlink="http://www.w3.org/1999/xlink" width="200px" height="200px" viewBox="0 0 200 200" version="1.1">
<g id="surface1">
<path style=" stroke:none;fill-rule:nonzero;fill:rgb(82.352941%,6.27451%,20.392157%);fill-opacity:1;" d="M 177.777344 27.777344 L 22.222656 27.777344 C 9.949219 27.777344 0 37.726562 0 50 L 0 75 L 200 75 L 200 50 C 200 37.726562 190.050781 27.777344 177.777344 27.777344 Z M 177.777344 27.777344 "/>
<path style=" stroke:none;fill-rule:nonzero;fill:rgb(7.843137%,7.843137%,7.843137%);fill-opacity:1;" d="M 0 150 C 0 162.273438 9.949219 172.222656 22.222656 172.222656 L 177.777344 172.222656 C 190.050781 172.222656 200 162.273438 200 150 L 200 125 L 0 125 Z M 0 150 "/>
<path style=" stroke:none;fill-rule:nonzero;fill:rgb(93.333333%,93.333333%,93.333333%);fill-opacity:1;" d="M 0 75 L 200 75 L 200 125 L 0 125 Z M 0 75 "/>
<path style=" stroke:none;fill-rule:nonzero;fill:rgb(0%,44.705882%,16.078431%);fill-opacity:1;" d="M 7.503906 33.355469 L 7.5 33.355469 C 2.898438 37.429688 0 43.378906 0 50 L 0 150 C 0 156.628906 2.898438 162.578125 7.503906 166.648438 L 97.222656 100 Z M 7.503906 33.355469 "/>
</g>
</svg>
