<?xml version="1.0" encoding="UTF-8"?>
<svg xmlns="http://www.w3.org/2000/svg" xmlns:xlink="http://www.w3.org/1999/xlink" width="200px" height="200px" viewBox="0 0 200 200" version="1.1">
<g id="surface1">
<path style=" stroke:none;fill-rule:nonzero;fill:rgb(0%,16.862745%,49.803922%);fill-opacity:1;" d="M 200 150 C 200 162.273438 190.050781 172.222656 177.777344 172.222656 L 22.222656 172.222656 C 9.949219 172.222656 0 162.273438 0 150 L 0 50 C 0 37.726562 9.949219 27.777344 22.222656 27.777344 L 177.777344 27.777344 C 190.050781 27.777344 200 37.726562 200 50 Z M 200 150 "/>
<path style=" stroke:none;fill-rule:nonzero;fill:rgb(100%,77.647059%,11.764706%);fill-opacity:1;" d="M 0 94.445312 L 200 94.445312 L 200 105.554688 L 0 105.554688 Z M 0 94.445312 "/>
<path style=" stroke:none;fill-rule:nonzero;fill:rgb(100%,100%,100%);fill-opacity:1;" d="M 55.4375 108.214844 L 58.171875 119.132812 L 66 111.042969 L 62.910156 121.871094 L 73.738281 118.777344 L 65.644531 126.605469 L 76.566406 129.339844 L 65.644531 132.070312 L 73.738281 139.90625 L 62.910156 136.8125 L 66 147.640625 L 58.171875 139.542969 L 55.4375 150.464844 L 52.707031 139.542969 L 44.878906 147.640625 L 47.964844 136.8125 L 37.144531 139.90625 L 45.234375 132.070312 L 34.3125 129.339844 L 45.234375 126.605469 L 37.144531 118.777344 L 47.964844 121.871094 L 44.878906 111.042969 L 52.707031 119.132812 Z M 55.4375 108.214844 "/>
</g>
</svg>
