<?xml version="1.0" encoding="UTF-8"?>
<svg xmlns="http://www.w3.org/2000/svg" xmlns:xlink="http://www.w3.org/1999/xlink" width="200px" height="200px" viewBox="0 0 200 200" version="1.1">
<g id="surface1">
<path style=" stroke:none;fill-rule:nonzero;fill:rgb(0%,21.960784%,65.882353%);fill-opacity:1;" d="M 0 150 C 0 162.273438 9.949219 172.222656 22.222656 172.222656 L 177.777344 172.222656 C 190.050781 172.222656 200 162.273438 200 150 L 200 144.445312 L 0 144.445312 Z M 0 105.554688 L 200 105.554688 L 200 127.777344 L 0 127.777344 Z M 0 105.554688 "/>
<path style=" stroke:none;fill-rule:nonzero;fill:rgb(93.333333%,93.333333%,93.333333%);fill-opacity:1;" d="M 0 127.777344 L 200 127.777344 L 200 144.445312 L 0 144.445312 Z M 0 127.777344 "/>
<path style=" stroke:none;fill-rule:nonzero;fill:rgb(0%,21.960784%,65.882353%);fill-opacity:1;" d="M 200 50 C 200 37.726562 190.050781 27.777344 177.777344 27.777344 L 88.890625 27.777344 L 88.890625 50 Z M 88.890625 66.667969 L 200 66.667969 L 200 88.890625 L 88.890625 88.890625 Z M 88.890625 66.667969 "/>
<path style=" stroke:none;fill-rule:nonzero;fill:rgb(93.333333%,93.333333%,93.333333%);fill-opacity:1;" d="M 88.890625 50 L 88.890625 27.777344 L 22.222656 27.777344 C 9.949219 27.777344 0 37.726562 0 50 L 0 105.554688 L 200 105.554688 L 200 88.890625 L 88.890625 88.890625 L 88.890625 66.667969 L 200 66.667969 L 200 50 Z M 88.890625 50 "/>
<path style=" stroke:none;fill-rule:nonzero;fill:rgb(100%,85.098039%,51.372549%);fill-opacity:1;" d="M 72.222656 66.667969 C 72.222656 51.320312 59.789062 38.890625 44.445312 38.890625 C 29.101562 38.890625 16.667969 51.328125 16.667969 66.667969 C 16.667969 82.003906 29.105469 94.445312 44.445312 94.445312 C 59.789062 94.445312 72.222656 82.003906 72.222656 66.667969 Z M 72.222656 66.667969 "/>
<path style=" stroke:none;fill-rule:nonzero;fill:rgb(100%,80%,30.196078%);fill-opacity:1;" d="M 66.667969 66.667969 C 66.667969 54.394531 56.722656 44.445312 44.445312 44.445312 C 32.171875 44.445312 22.222656 54.394531 22.222656 66.667969 C 22.222656 78.933594 32.171875 88.890625 44.445312 88.890625 C 56.722656 88.890625 66.667969 78.933594 66.667969 66.667969 Z M 66.667969 66.667969 "/>
<path style=" stroke:none;fill-rule:nonzero;fill:rgb(100%,67.45098%,20%);fill-opacity:1;" d="M 44.445312 31.09375 L 47.960938 53.542969 L 62.234375 35.859375 L 54.050781 57.0625 L 75.25 48.878906 L 57.566406 63.148438 L 80.015625 66.667969 L 57.566406 70.183594 L 75.25 84.457031 L 54.050781 76.273438 L 62.234375 97.472656 L 47.960938 79.789062 L 44.445312 102.238281 L 40.929688 79.789062 L 26.65625 97.472656 L 34.839844 76.273438 L 13.640625 84.457031 L 31.320312 70.183594 L 8.871094 66.667969 L 31.320312 63.148438 L 13.640625 48.878906 L 34.839844 57.0625 L 26.65625 35.859375 L 40.929688 53.542969 Z M 44.445312 31.09375 "/>
<path style=" stroke:none;fill-rule:nonzero;fill:rgb(75.686275%,41.176471%,30.980392%);fill-opacity:1;" d="M 61.109375 66.667969 C 61.109375 57.460938 53.648438 50 44.445312 50 C 35.238281 50 27.777344 57.460938 27.777344 66.667969 C 27.777344 75.867188 35.238281 83.332031 44.445312 83.332031 C 53.648438 83.332031 61.109375 75.867188 61.109375 66.667969 Z M 61.109375 66.667969 "/>
<path style=" stroke:none;fill-rule:nonzero;fill:rgb(100%,67.45098%,20%);fill-opacity:1;" d="M 32.410156 66.6875 C 32.410156 60.078125 37.765625 54.722656 44.371094 54.722656 C 50.976562 54.722656 56.332031 60.078125 56.332031 66.6875 C 56.332031 73.292969 50.976562 78.644531 44.371094 78.644531 C 37.765625 78.644531 32.410156 73.289062 32.410156 66.6875 Z M 32.410156 66.6875 "/>
</g>
</svg>
