<?xml version="1.0" encoding="UTF-8"?>
<svg xmlns="http://www.w3.org/2000/svg" xmlns:xlink="http://www.w3.org/1999/xlink" width="200px" height="200px" viewBox="0 0 200 200" version="1.1">
<g id="surface1">
<path style=" stroke:none;fill-rule:nonzero;fill:rgb(75.686275%,15.294118%,17.647059%);fill-opacity:1;" d="M 177.777344 27.777344 L 22.222656 27.777344 C 9.949219 27.777344 0 37.726562 0 50 L 0 150 C 0 162.273438 9.949219 172.222656 22.222656 172.222656 L 177.777344 172.222656 C 190.050781 172.222656 200 162.273438 200 150 L 200 50 C 200 37.726562 190.050781 27.777344 177.777344 27.777344 Z M 177.777344 27.777344 "/>
<path style=" stroke:none;fill-rule:nonzero;fill:rgb(0%,38.431373%,20%);fill-opacity:1;" d="M 83.59375 123.140625 L 89.859375 103.855469 L 73.457031 91.9375 L 93.726562 91.9375 L 100 72.632812 L 106.273438 91.933594 L 126.542969 91.933594 L 110.140625 103.851562 L 116.40625 123.132812 L 100 111.214844 Z M 103.5 108.679688 L 108.589844 112.371094 L 106.644531 106.390625 Z M 93.355469 106.390625 L 91.410156 112.371094 L 96.5 108.679688 Z M 94.695312 102.277344 L 100 106.132812 L 105.304688 102.277344 L 103.277344 96.042969 L 96.710938 96.042969 Z M 86.109375 96.042969 L 91.195312 99.738281 L 92.394531 96.042969 Z M 107.605469 96.042969 L 108.804688 99.738281 L 113.890625 96.042969 Z M 101.945312 91.933594 L 100 85.945312 L 98.054688 91.9375 L 101.945312 91.9375 Z M 101.945312 91.933594 "/>
</g>
</svg>
