<?xml version="1.0" encoding="UTF-8"?>
<svg xmlns="http://www.w3.org/2000/svg" xmlns:xlink="http://www.w3.org/1999/xlink" width="200px" height="200px" viewBox="0 0 200 200" version="1.1">
<g id="surface1">
<path style=" stroke:none;fill-rule:nonzero;fill:rgb(92.941176%,10.980392%,13.72549%);fill-opacity:1;" d="M 200 150 C 200 162.273438 190.050781 172.222656 177.777344 172.222656 L 22.222656 172.222656 C 9.949219 172.222656 0 162.273438 0 150 L 0 50 C 0 37.726562 9.949219 27.777344 22.222656 27.777344 L 177.777344 27.777344 C 190.050781 27.777344 200 37.726562 200 50 Z M 200 150 "/>
<path style=" stroke:none;fill-rule:nonzero;fill:rgb(93.333333%,93.333333%,93.333333%);fill-opacity:1;" d="M 0 72.222656 L 200 72.222656 L 200 127.777344 L 0 127.777344 Z M 0 72.222656 "/>
<path style=" stroke:none;fill-rule:nonzero;fill:rgb(0%,50.196078%,0%);fill-opacity:1;" d="M 94.40625 73.355469 C 93.390625 74.484375 90.988281 76.054688 90.445312 77.128906 C 89.898438 78.207031 88.148438 79.304688 87.214844 79.707031 C 86.277344 80.105469 87.101562 80.75 88.121094 80.109375 C 89.148438 79.472656 90 79.5 90.601562 78.921875 C 91.199219 78.34375 92.066406 78.894531 91.222656 79.289062 C 90.382812 79.6875 90.0625 80.355469 89.695312 80.832031 C 89.328125 81.316406 89.144531 81.554688 88.292969 81.570312 C 87.445312 81.589844 86.6875 81.792969 86.09375 82.660156 C 85.496094 83.523438 84.761719 84.535156 84.445312 85.011719 C 84.121094 85.488281 84.367188 85.867188 85.160156 85.277344 C 85.949219 84.6875 86.839844 84.199219 87.234375 84.855469 C 87.628906 85.503906 87.609375 85.816406 86.554688 86.238281 C 84.304688 87.140625 83.65625 87.671875 83.25 88.578125 C 82.84375 89.488281 83.082031 89.765625 81.679688 90.214844 C 80.265625 90.671875 77.988281 92.332031 76.5 93.449219 C 75.011719 94.570312 75.859375 94.628906 77 94.570312 C 78.746094 94.484375 80.988281 93.300781 82.132812 93.800781 C 82.476562 94.457031 82.878906 95.292969 83.410156 95.898438 C 81.570312 98.488281 81.265625 99.488281 79.378906 99.535156 C 77.484375 99.578125 76.300781 101.496094 75.421875 102.457031 C 74.542969 103.421875 73.785156 104.332031 72.871094 104.734375 C 72.070312 105.082031 71.894531 105.371094 72.515625 105.683594 C 73.140625 106.003906 73.6875 105.238281 74.261719 105.503906 C 74.832031 105.777344 75.210938 105.679688 76.09375 105.089844 C 76.976562 104.5 77.910156 103.722656 79.320312 103.550781 C 80 104.339844 80.34375 104.761719 81.109375 105.167969 C 79.777344 106.988281 77.777344 108.40625 76.039062 109.011719 C 74.300781 109.609375 74.035156 110.277344 72.789062 111.867188 C 71.550781 113.457031 71.605469 113.972656 70.332031 114 C 69.054688 114.035156 69.109375 114.316406 69.785156 114.816406 C 70.457031 115.320312 70.972656 115.078125 71.964844 115.292969 C 72.964844 115.503906 74.246094 115.714844 75.539062 114.316406 C 76.832031 112.910156 80.003906 110.464844 82.695312 110.707031 C 83.972656 110.820312 84.878906 111.082031 83.351562 112.535156 C 81.820312 113.984375 79.617188 115.09375 78.117188 115.390625 C 75.199219 115.976562 73.945312 117.140625 73.09375 117.105469 C 72.238281 117.070312 71.449219 117.660156 72.746094 118.433594 C 74.039062 119.210938 74.464844 119.394531 75.917969 118.746094 C 77.367188 118.101562 79.75 117.003906 80.695312 116.753906 C 81.632812 116.496094 82.332031 116.101562 83 116.277344 C 83.667969 116.449219 84.183594 116.246094 84.929688 115.761719 C 85.671875 115.273438 86.761719 115.207031 87.683594 114.332031 C 88.761719 113.316406 89.90625 114.1875 90.621094 114.785156 C 91.34375 115.382812 92.765625 117.761719 91.484375 119.398438 C 90.195312 121.035156 88.765625 122.765625 88.3125 123.628906 C 87.855469 124.488281 87.601562 124.542969 87.0625 124.738281 C 85.328125 125.394531 83.554688 126.472656 83.042969 126.910156 C 82.535156 127.34375 82.726562 127.484375 83.4375 127.609375 C 84.148438 127.738281 84.246094 127.59375 84.890625 127.0625 C 85.539062 126.527344 86.328125 125.710938 87.933594 125.761719 C 88.785156 125.789062 89.484375 125.304688 90.222656 124.527344 C 90.964844 123.753906 92.554688 123.0625 93.359375 123.226562 C 94.167969 123.398438 94.398438 123.210938 94.867188 122.859375 C 95.328125 122.523438 95.707031 122.371094 96.429688 122.972656 C 97.148438 123.570312 97.761719 123.460938 98.511719 123.023438 C 99.261719 122.578125 100.066406 122.75 100.265625 123.222656 C 100.460938 123.6875 100.566406 124.109375 101.238281 124.570312 C 101.910156 125.027344 104.304688 126.445312 105.070312 126.855469 C 105.832031 127.261719 106.339844 126.496094 105.761719 125.988281 C 105.183594 125.484375 104.890625 125.0625 104.976562 124.632812 C 105.066406 124.207031 105.503906 124.035156 106.804688 124.210938 C 108.84375 124.5 111.761719 125.949219 112.816406 126.582031 C 113.878906 127.226562 114.832031 127.773438 115.683594 127.75 C 116.539062 127.734375 116.8125 127.535156 116.042969 126.839844 C 115.265625 126.148438 114.328125 126.222656 113.976562 125.515625 C 113.382812 124.300781 112.355469 125.179688 111.816406 123.957031 C 111.433594 123.082031 110.898438 122.976562 110.238281 123.039062 C 109.578125 123.101562 108.695312 122.503906 108.082031 121.570312 C 105.929688 118.3125 105.34375 115.394531 106.050781 113.199219 C 106.761719 111.011719 108.820312 110.351562 110.027344 111.273438 C 111.234375 112.195312 112.65625 112.773438 113.273438 112.710938 C 113.890625 112.648438 114.410156 112.644531 115.210938 113.09375 C 116.027344 113.550781 117.410156 113.851562 119.09375 113.148438 C 120.777344 112.449219 121.371094 113 122.445312 113.035156 C 123.351562 113.054688 124.433594 113.222656 125.167969 113.820312 C 125.882812 114.421875 126.984375 114.820312 128.640625 115.070312 C 130.292969 115.320312 131.421875 114.867188 130.082031 114.09375 C 128.734375 113.320312 127.601562 112.871094 127.105469 112.171875 C 126.621094 111.472656 125.90625 111.351562 125.199219 111.359375 C 124.496094 111.378906 123.34375 110.882812 122.382812 109.917969 C 121.417969 108.9375 120.648438 108.765625 119.898438 108.878906 C 119.144531 108.988281 118.292969 108.773438 117.761719 108.121094 C 118.488281 107.253906 119.273438 105.632812 119.960938 105.144531 C 120.816406 105.078125 121.523438 105.300781 122.101562 105.804688 C 122.683594 106.3125 123.484375 106.199219 124.054688 106.1875 C 124.621094 106.179688 125.429688 106.4375 125.910156 106.761719 C 126.394531 107.082031 127.148438 107.066406 127.851562 106.765625 C 128.542969 106.472656 128.394531 106.09375 127.539062 105.59375 C 126.671875 105.09375 126.1875 104.773438 125.894531 104.300781 C 125.609375 103.839844 125.359375 103.605469 124.320312 103.628906 C 123.285156 103.648438 122.789062 103.144531 121.972656 102.261719 C 120.128906 100.273438 118.90625 100.15625 117.714844 100.316406 C 116.539062 100.484375 115.367188 100.699219 114.390625 99.304688 C 115.601562 98.710938 116.589844 100.078125 118.160156 98.894531 C 119 98.261719 119.554688 98.105469 120.609375 98.460938 C 121.660156 98.816406 122.890625 98.695312 123.207031 98.449219 C 123.539062 98.207031 123.960938 97.816406 124.476562 97.761719 C 124.984375 97.699219 124.921875 97.015625 124.167969 97.105469 C 122.707031 97.277344 122.449219 96.382812 121.039062 96.65625 C 119.628906 96.921875 119.109375 96.699219 118.195312 96.054688 C 117.277344 95.410156 116.511719 94.859375 113.828125 95.300781 C 113.949219 94.445312 113.878906 93.550781 115.199219 93.285156 C 116.199219 93.878906 117.140625 93.761719 117.945312 93.746094 C 118.75 93.726562 121.496094 93.710938 122.292969 93.839844 C 123.109375 93.960938 123.285156 93.578125 122.082031 92.945312 C 120.894531 92.3125 119.1875 92.0625 118.570312 92.027344 C 117.957031 91.996094 117.65625 91.578125 117.261719 90.777344 C 116.867188 89.984375 115.679688 89.351562 113.921875 89.339844 C 112.5 89.328125 111.457031 88.683594 110.734375 88.039062 C 110.003906 87.394531 109.339844 86.882812 108.484375 86.761719 C 107.628906 86.640625 106.855469 86.039062 107.222656 85.320312 C 107.582031 84.605469 108.996094 84.292969 110.003906 84.929688 C 111.003906 85.570312 111.628906 85.601562 112.226562 85.253906 C 112.832031 84.910156 113.214844 84.761719 114.121094 85.070312 C 115.023438 85.382812 115.929688 85.359375 114.527344 84.304688 C 112.511719 82.789062 110.535156 83.398438 109.855469 82.566406 C 109.179688 81.726562 108.617188 82.070312 108.148438 82.273438 C 107.679688 82.472656 106.832031 82.003906 107.84375 81.472656 C 108.59375 81.078125 109.34375 80.871094 110.015625 81.1875 C 110.683594 81.503906 111.488281 81.394531 111.996094 81.144531 C 112.515625 80.894531 113.023438 80.417969 111.457031 80.117188 C 109.890625 79.816406 107.503906 78.878906 106.582031 78.042969 C 105.671875 77.214844 104.679688 77.050781 103.878906 77.207031 C 103.078125 77.367188 102.417969 77.472656 101.027344 76.605469 C 99.640625 75.738281 97.820312 74.878906 96.554688 73.109375 C 95.3125 71.398438 95.195312 72.496094 94.40625 73.355469 Z M 94.40625 73.355469 "/>
<path style=" stroke:none;fill-rule:nonzero;fill:rgb(93.333333%,93.333333%,93.333333%);fill-opacity:1;" d="M 89.734375 83.429688 C 88.816406 83.316406 88.070312 83.746094 88.550781 84.371094 C 89.023438 85 89.265625 84.605469 89.859375 84.3125 C 90.457031 84.011719 91.011719 83.570312 89.734375 83.429688 Z M 92.261719 85.429688 C 91.421875 85.832031 90.609375 86.316406 90.351562 87.171875 C 90.082031 88.027344 90.117188 88.785156 90.910156 88.578125 C 92.109375 88.265625 92.1875 86.851562 93.066406 86.6875 C 92.777344 86.265625 92.695312 85.699219 92.261719 85.429688 Z M 93.734375 84.683594 C 93.8125 85.035156 93.929688 85.601562 94.214844 85.878906 C 94.988281 85.503906 96.957031 84.753906 97.699219 84.59375 C 97.761719 84.0625 97.609375 83.710938 97.460938 83.429688 C 96.398438 83.527344 94.851562 83.910156 93.734375 84.683594 Z M 100.351562 88.023438 C 100.359375 88.542969 100.582031 89.859375 100.6875 90.382812 C 101.167969 90.609375 101.785156 90.785156 102.261719 90.917969 C 102.578125 90.292969 102.65625 89.394531 102.644531 88.828125 C 101.777344 88.277344 101.003906 87.683594 100.351562 88.023438 Z M 98.667969 88.773438 C 98.722656 89.195312 98.738281 89.8125 98.792969 90.1875 C 98.179688 90.199219 97.195312 90.554688 96.582031 90.753906 C 95.972656 90.960938 95.238281 89.839844 96.316406 89.394531 C 97.394531 88.945312 98.101562 88.832031 98.667969 88.773438 Z M 83.539062 93.027344 C 84.65625 92.433594 85.238281 92.804688 86.265625 92.496094 C 86.75 92.957031 87.328125 93.511719 87.714844 94.066406 C 87.121094 95.070312 85.3125 94.40625 84.707031 94.84375 C 84.226562 94.332031 83.882812 93.820312 83.539062 93.027344 Z M 88.101562 91.882812 C 88.394531 92.496094 88.695312 93.003906 88.933594 93.285156 C 89.785156 93.359375 90.105469 92.882812 90.472656 92.304688 C 90.839844 91.726562 90.820312 91.023438 89.878906 91.089844 C 88.933594 91.160156 88.417969 91.359375 88.101562 91.882812 Z M 80.726562 102.777344 C 80.976562 103.382812 81.6875 103.605469 81.890625 104.078125 C 82.679688 103.589844 83.0625 103.628906 83.726562 103.753906 C 84.394531 103.878906 86.179688 103.273438 87.195312 102.210938 C 88.210938 101.148438 87.550781 101.261719 86.371094 101.429688 C 85.195312 101.59375 84.300781 101.804688 83.496094 101.632812 C 82.683594 101.460938 81.460938 101.816406 80.726562 102.777344 Z M 91.160156 97.820312 C 90.601562 98.167969 90.320312 98.40625 90.761719 98.917969 C 91.199219 99.429688 91.429688 99.1875 91.945312 98.890625 C 92.460938 98.59375 92.6875 98.167969 92.394531 97.789062 C 92.09375 97.429688 91.714844 97.484375 91.160156 97.820312 Z M 93.929688 96.949219 C 93.359375 96.960938 93.40625 97.316406 93.484375 97.59375 C 93.5625 97.878906 93.632812 98.050781 94.09375 98.042969 C 94.554688 98.035156 94.621094 97.929688 94.472656 97.464844 C 94.320312 97.011719 94.285156 96.9375 93.929688 96.949219 Z M 95.640625 97.4375 C 95.65625 98.082031 95.542969 98.042969 96.183594 98.140625 C 96.820312 98.234375 97.039062 98.195312 97.054688 97.589844 C 97.078125 96.988281 97.105469 96.773438 96.359375 96.75 C 95.628906 96.734375 95.632812 96.976562 95.640625 97.4375 Z M 98.277344 97.949219 C 98.09375 98.460938 97.832031 98.882812 98.621094 99.183594 C 99.40625 99.488281 99.4375 99.273438 99.671875 98.59375 C 99.90625 97.917969 99.933594 97.59375 99.328125 97.429688 C 98.722656 97.265625 98.511719 97.304688 98.277344 97.949219 Z M 101.082031 98.140625 C 101.054688 98.421875 100.820312 99.207031 100.722656 99.460938 C 101.042969 99.59375 101.472656 99.761719 101.800781 99.964844 C 102.121094 100.171875 102.570312 99.59375 102.417969 99.066406 C 102.261719 98.539062 101.679688 97.699219 101.082031 98.140625 Z M 104.40625 89.660156 C 104.304688 90.015625 103.976562 91.195312 103.84375 91.515625 C 104.773438 91.746094 105.484375 91.871094 106.121094 91.820312 C 106.761719 91.773438 107.785156 91.578125 108.285156 91.667969 C 108.777344 91.761719 109.050781 91.261719 108.222656 90.640625 C 107.394531 90.023438 106.894531 89.929688 106.359375 89.933594 C 105.832031 89.949219 104.929688 89.300781 104.40625 89.660156 Z M 107.9375 94.050781 C 107.304688 93.949219 106.957031 94.460938 107.394531 94.804688 C 107.828125 95.148438 108.390625 94.996094 108.449219 94.679688 C 108.515625 94.359375 108.542969 94.144531 107.9375 94.050781 Z M 109.359375 93.878906 C 109.398438 94.195312 109.484375 94.761719 109.488281 95.011719 C 109.960938 95.460938 110.449219 94.988281 110.957031 95.4375 C 111.460938 95.890625 111.832031 95.421875 111.933594 94.957031 C 112.035156 94.496094 112.09375 94.246094 111.671875 94.253906 C 110.746094 94.273438 110.128906 93.472656 109.359375 93.878906 Z M 99.300781 82.964844 C 99.410156 83.210938 99.707031 83.773438 99.714844 84.054688 C 100.144531 84.328125 101.148438 84.621094 101.421875 84.121094 C 101.695312 83.617188 101.792969 83.40625 101.328125 83.167969 C 100.855469 82.933594 99.84375 82.066406 99.300781 82.964844 Z M 103.109375 83.84375 C 102.804688 84.1875 103.050781 84.378906 103.484375 84.617188 C 103.917969 84.855469 104.226562 84.460938 104.183594 84.140625 C 104.140625 83.816406 103.5625 83.332031 103.109375 83.84375 Z M 89.109375 107.984375 C 89.433594 108.273438 89.695312 108.683594 89.609375 109.148438 C 89.527344 109.628906 89.816406 109.8125 90.148438 109.949219 C 90.484375 110.078125 91.355469 110.898438 91.523438 110.011719 C 91.695312 109.105469 90.949219 107.707031 90.429688 107.621094 C 89.910156 107.535156 89.671875 107.539062 89.429688 107.261719 C 89.183594 106.984375 88.484375 107.429688 89.109375 107.984375 Z M 118.25 104.234375 C 118.027344 105.039062 117.160156 106.800781 116.605469 107.148438 C 115.753906 106.746094 114.183594 106.394531 114.035156 105.929688 C 114.34375 105.070312 114.648438 104.355469 114.890625 103.832031 C 115.859375 103.621094 117.421875 103.539062 118.25 104.234375 Z M 112.921875 103.023438 C 112.898438 103.640625 112.539062 105.015625 112.367188 105.496094 C 111.378906 105.609375 109.003906 105.144531 108.207031 105.445312 C 108.238281 104.785156 108.214844 103.929688 108.398438 103.496094 C 109.910156 103.464844 111.304688 102.488281 112.921875 103.023438 Z M 112.921875 103.023438 "/>
</g>
</svg>
