<?xml version="1.0" encoding="UTF-8"?>
<svg xmlns="http://www.w3.org/2000/svg" xmlns:xlink="http://www.w3.org/1999/xlink" width="200px" height="200px" viewBox="0 0 200 200" version="1.1">
<g id="surface1">
<path style=" stroke:none;fill-rule:nonzero;fill:rgb(80.784314%,10.588235%,14.901961%);fill-opacity:1;" d="M 200 150 C 200 162.273438 190.050781 172.222656 177.777344 172.222656 L 22.222656 172.222656 C 9.949219 172.222656 0 162.273438 0 150 L 0 50 C 0 37.726562 9.949219 27.777344 22.222656 27.777344 L 177.777344 27.777344 C 190.050781 27.777344 200 37.726562 200 50 Z M 200 150 "/>
<path style=" stroke:none;fill-rule:nonzero;fill:rgb(0%,16.862745%,49.803922%);fill-opacity:1;" d="M 177.777344 27.777344 L 22.222656 27.777344 C 9.949219 27.777344 0 37.726562 0 50 L 0 100 L 200 100 L 200 50 C 200 37.726562 190.050781 27.777344 177.777344 27.777344 Z M 177.777344 27.777344 "/>
<path style=" stroke:none;fill-rule:nonzero;fill:rgb(69.803922%,53.72549%,7.843137%);fill-opacity:1;" d="M 69.535156 63.417969 C 69.535156 59.285156 66.285156 56.003906 61.601562 56.003906 C 56.644531 56.003906 51.195312 57.671875 47.027344 58.605469 L 43.871094 58.605469 C 39.707031 57.679688 34.261719 56.003906 29.300781 56.003906 C 24.617188 56.003906 21.367188 59.285156 21.367188 63.417969 C 21.367188 68.355469 23.1875 72 25.398438 76.289062 L 65.496094 76.289062 C 67.710938 72 69.535156 68.355469 69.535156 63.417969 Z M 69.535156 63.417969 "/>
<path style=" stroke:none;fill-rule:nonzero;fill:rgb(100%,84.705882%,23.921569%);fill-opacity:1;" d="M 43.476562 57.820312 L 43.351562 59.644531 C 39.871094 59.117188 34.945312 57.171875 30.34375 57.171875 C 26.101562 57.171875 22.804688 58.871094 22.804688 63.15625 C 22.804688 67.378906 24.59375 71.214844 26.972656 75.117188 L 24.5 76.289062 C 22.292969 72 20.472656 68.351562 20.472656 63.417969 C 20.472656 59.285156 23.714844 55.222656 29.3125 55.222656 C 34.261719 55.222656 39.316406 56.894531 43.476562 57.820312 Z M 47.429688 57.820312 L 47.554688 59.644531 C 51.035156 59.117188 55.960938 57.171875 60.5625 57.171875 C 64.8125 57.171875 68.101562 58.871094 68.101562 63.15625 C 68.101562 67.378906 66.3125 71.214844 63.933594 75.117188 L 66.40625 76.289062 C 68.609375 72 70.433594 68.351562 70.433594 63.417969 C 70.433594 59.285156 67.1875 55.222656 61.59375 55.222656 C 56.644531 55.222656 51.589844 56.894531 47.429688 57.820312 Z M 45.449219 39.035156 L 43.996094 41.765625 L 45.449219 44.488281 L 46.910156 41.765625 Z M 45.449219 45.933594 L 43.996094 48.65625 L 45.449219 51.390625 L 46.910156 48.65625 Z M 40.253906 45.210938 L 42.554688 46.667969 L 44.84375 45.210938 L 42.554688 43.75 Z M 46.0625 45.210938 L 48.351562 46.667969 L 50.648438 45.210938 L 48.351562 43.75 Z M 46.0625 45.210938 "/>
<path style=" stroke:none;fill-rule:nonzero;fill:rgb(100%,84.705882%,23.921569%);fill-opacity:1;" d="M 45.449219 44.140625 C 46.0625 44.140625 46.554688 44.628906 46.554688 45.238281 C 46.554688 45.851562 46.0625 46.34375 45.449219 46.34375 C 44.84375 46.34375 44.34375 45.855469 44.34375 45.238281 C 44.34375 44.632812 44.84375 44.140625 45.449219 44.140625 Z M 45.449219 49.339844 C 47.082031 49.339844 48.410156 50.660156 48.410156 52.300781 C 48.410156 53.929688 47.089844 55.25 45.449219 55.25 C 43.816406 55.25 42.496094 53.929688 42.496094 52.300781 C 42.496094 50.667969 43.816406 49.339844 45.449219 49.339844 Z M 45.449219 67.777344 C 41.792969 67.777344 39.109375 69.503906 38.949219 73.890625 C 38.054688 72.316406 34.277344 67.371094 30.75 68.035156 C 28.660156 68.429688 26.804688 71.332031 27.121094 74.667969 C 25.382812 69.679688 20.300781 68.855469 16.589844 71.804688 C 19.882812 74.515625 21.351562 82.511719 24.121094 85.984375 L 66.789062 85.984375 C 69.5625 82.511719 71.035156 74.515625 74.328125 71.804688 C 70.617188 68.855469 65.535156 69.679688 63.800781 74.667969 C 64.105469 71.332031 62.25 68.421875 60.148438 68.035156 C 56.628906 67.371094 52.855469 72.316406 51.960938 73.890625 C 51.792969 69.5 49.105469 67.777344 45.449219 67.777344 Z M 45.449219 67.777344 "/>
<path style=" stroke:none;fill-rule:nonzero;fill:rgb(0%,0%,0%);fill-opacity:1;" d="M 65.101562 84.738281 C 61.816406 83.828125 54.265625 83.371094 45.449219 83.367188 C 39.578125 83.367188 34.253906 83.570312 30.394531 83.976562 C 28.460938 84.179688 26.898438 84.433594 25.800781 84.738281 C 24.722656 85.0625 24.027344 85.355469 23.972656 85.984375 C 24.023438 86.605469 24.707031 86.957031 25.785156 87.367188 C 29.066406 88.539062 36.621094 89.511719 45.445312 89.511719 C 51.320312 89.511719 56.648438 89.078125 60.511719 88.445312 C 62.445312 88.128906 64.011719 87.761719 65.105469 87.367188 C 66.1875 86.960938 66.867188 86.605469 66.917969 85.984375 C 66.871094 85.351562 66.179688 85.054688 65.101562 84.738281 Z M 65.101562 84.738281 "/>
<path style=" stroke:none;fill-rule:nonzero;fill:rgb(100%,84.705882%,23.921569%);fill-opacity:1;" d="M 42.859375 57.683594 C 42.859375 57.683594 46.109375 58.148438 48.035156 57.683594 C 48.035156 57.683594 48.785156 64.332031 49.433594 66.800781 C 49.433594 66.800781 47.144531 66.148438 45.535156 66.148438 C 43.921875 66.148438 41.460938 66.800781 41.460938 66.800781 C 41.460938 66.800781 41.921875 63.804688 42.273438 61.8125 C 42.621094 59.816406 42.859375 57.683594 42.859375 57.683594 Z M 18.398438 66.765625 C 17.351562 62.300781 17.300781 57.738281 22.9375 53.855469 C 28.578125 49.972656 37.984375 53.25 40.582031 53.894531 C 43.183594 54.539062 43.238281 57.378906 40.050781 56.582031 C 36.859375 55.789062 27.921875 53.300781 23.609375 57.148438 C 19.300781 61 20.132812 63.839844 20.792969 66.117188 C 22.707031 72.679688 19.214844 70.25 18.398438 66.765625 Z M 72.503906 67.023438 C 73.554688 62.554688 73.605469 57.996094 67.964844 54.109375 C 62.328125 50.226562 52.921875 53.503906 50.320312 54.15625 C 47.722656 54.804688 47.667969 57.640625 50.855469 56.84375 C 54.042969 56.050781 62.984375 53.5625 67.292969 57.410156 C 71.605469 61.261719 70.746094 64.089844 70.109375 66.378906 C 68.660156 71.628906 71.683594 70.503906 72.503906 67.023438 Z M 72.503906 67.023438 "/>
</g>
</svg>
