<?xml version="1.0" encoding="UTF-8"?>
<svg xmlns="http://www.w3.org/2000/svg" xmlns:xlink="http://www.w3.org/1999/xlink" width="200px" height="200px" viewBox="0 0 200 200" version="1.1">
<g id="surface1">
<path style=" stroke:none;fill-rule:nonzero;fill:rgb(82.352941%,6.27451%,20.392157%);fill-opacity:1;" d="M 177.777344 27.777344 L 22.222656 27.777344 C 9.949219 27.777344 0 37.726562 0 50 L 0 100 L 200 100 L 200 50 C 200 37.726562 190.050781 27.777344 177.777344 27.777344 Z M 177.777344 27.777344 "/>
<path style=" stroke:none;fill-rule:nonzero;fill:rgb(0%,58.431373%,26.27451%);fill-opacity:1;" d="M 22.222656 172.222656 L 177.777344 172.222656 C 190.050781 172.222656 200 162.273438 200 150 L 200 100 L 0 100 L 0 150 C 0 162.273438 9.949219 172.222656 22.222656 172.222656 Z M 22.222656 172.222656 "/>
<path style=" stroke:none;fill-rule:nonzero;fill:rgb(7.843137%,7.843137%,7.843137%);fill-opacity:1;" d="M 94.445312 83.332031 L 9.621094 31.695312 C 6.988281 33.511719 4.765625 35.882812 3.121094 38.640625 L 3.109375 38.648438 C 1.140625 41.972656 0 45.855469 0 50 L 0 150 C 0 154.148438 1.140625 158.039062 3.121094 161.359375 L 3.128906 161.378906 C 4.800781 164.179688 7.070312 166.582031 9.765625 168.40625 L 9.773438 168.40625 L 94.445312 116.667969 L 200 116.667969 L 200 83.332031 Z M 94.445312 83.332031 "/>
<path style=" stroke:none;fill-rule:nonzero;fill:rgb(99.215686%,80.784314%,7.058824%);fill-opacity:1;" d="M 3.121094 38.640625 L 3.109375 38.648438 C 1.140625 41.972656 0 45.855469 0 50 L 83.332031 100 L 0 150 C 0 154.148438 1.140625 158.039062 3.121094 161.359375 L 94.445312 105.554688 L 200 105.554688 L 200 94.445312 L 94.445312 94.445312 Z M 3.121094 38.640625 "/>
<path style=" stroke:none;fill-rule:nonzero;fill:rgb(99.215686%,80.784314%,7.058824%);fill-opacity:1;" d="M 24.304688 120.035156 C 24.304688 120.035156 42.359375 117.253906 42.359375 99.421875 C 42.359375 88.457031 32.871094 82.410156 25.460938 82.410156 C 18.054688 82.410156 10.183594 87.964844 10.183594 97.6875 C 10.183594 107.410156 19.210938 110.421875 23.609375 110.421875 C 28.011719 110.421875 34.722656 106.949219 33.792969 99.3125 C 31.214844 109.9375 20.390625 109.632812 16.199219 103.246094 C 11.570312 96.183594 18.75 86.109375 28.011719 88.890625 C 36.785156 91.523438 37.238281 100.449219 34.261719 106.023438 C 30.554688 112.964844 24.421875 112.621094 24.421875 112.621094 Z M 24.304688 120.035156 "/>
<path style=" stroke:none;fill-rule:nonzero;fill:rgb(99.215686%,80.784314%,7.058824%);fill-opacity:1;" d="M 29.867188 100.117188 C 28.851562 98.773438 27.605469 97.554688 26.332031 96.488281 C 29.066406 93.683594 31.394531 92.890625 30.671875 92.476562 C 30.179688 92.195312 27.621094 93.34375 24.890625 95.34375 C 22.15625 93.34375 19.601562 92.195312 19.105469 92.476562 C 18.382812 92.894531 20.710938 93.6875 23.445312 96.488281 C 22.171875 97.554688 20.929688 98.765625 19.910156 100.117188 C 18.804688 101.578125 18.984375 104.050781 18.984375 104.050781 C 18.984375 104.050781 20.476562 103.449219 21.761719 102.199219 C 22.800781 101.195312 23.6875 99.722656 24.890625 98.183594 C 26.089844 99.722656 26.976562 101.195312 28.015625 102.199219 C 29.300781 103.449219 30.792969 104.050781 30.792969 104.050781 C 30.792969 104.050781 30.972656 101.578125 29.867188 100.117188 Z M 29.867188 100.117188 "/>
</g>
</svg>
