<?xml version="1.0" encoding="UTF-8"?>
<svg xmlns="http://www.w3.org/2000/svg" xmlns:xlink="http://www.w3.org/1999/xlink" width="200px" height="px" viewBox="0 0 200 200" version="1.1">
<g id="surface1">
<path style=" stroke:none;fill-rule:nonzero;fill:rgb(92.941176%,92.54902%,92.54902%);fill-opacity:1;" d="M 177.777344 27.777344 L 100 27.777344 L 100 83.332031 L 200 83.332031 L 200 50 C 200 37.726562 190.050781 27.777344 177.777344 27.777344 Z M 177.777344 27.777344 "/>
<path style=" stroke:none;fill-rule:nonzero;fill:rgb(93.333333%,93.333333%,93.333333%);fill-opacity:1;" d="M 61.109375 27.777344 L 22.222656 27.777344 C 9.949219 27.777344 0 37.726562 0 50 L 0 83.332031 L 61.109375 83.332031 Z M 61.109375 27.777344 "/>
<path style=" stroke:none;fill-rule:nonzero;fill:rgb(92.941176%,92.54902%,92.54902%);fill-opacity:1;" d="M 177.777344 172.222656 L 100 172.222656 L 100 116.667969 L 200 116.667969 L 200 150 C 200 162.273438 190.050781 172.222656 177.777344 172.222656 Z M 61.109375 172.222656 L 22.222656 172.222656 C 9.949219 172.222656 0 162.273438 0 150 L 0 116.667969 L 61.109375 116.667969 Z M 61.109375 172.222656 "/>
<path style=" stroke:none;fill-rule:nonzero;fill:rgb(0%,20.784314%,50.196078%);fill-opacity:1;" d="M 100 27.777344 L 61.109375 27.777344 L 61.109375 83.332031 L 0 83.332031 L 0 116.667969 L 61.109375 116.667969 L 61.109375 172.222656 L 100 172.222656 L 100 116.667969 L 200 116.667969 L 200 83.332031 L 100 83.332031 Z M 100 27.777344 "/>
</g>
</svg>
