<?xml version="1.0" encoding="UTF-8"?>
<svg xmlns="http://www.w3.org/2000/svg" xmlns:xlink="http://www.w3.org/1999/xlink" width="200px" height="200px" viewBox="0 0 200 200" version="1.1">
<g id="surface1">
<path style=" stroke:none;fill-rule:nonzero;fill:rgb(0%,47.45098%,20.392157%);fill-opacity:1;" d="M 200 150 C 200 162.273438 190.050781 172.222656 177.777344 172.222656 L 22.222656 172.222656 C 9.949219 172.222656 0 162.273438 0 150 L 0 50 C 0 37.726562 9.949219 27.777344 22.222656 27.777344 L 177.777344 27.777344 C 190.050781 27.777344 200 37.726562 200 50 Z M 200 150 "/>
<path style=" stroke:none;fill-rule:nonzero;fill:rgb(100%,87.843137%,0%);fill-opacity:1;" d="M 0 72.222656 L 200 72.222656 L 200 127.777344 L 0 127.777344 Z M 0 72.222656 "/>
<path style=" stroke:none;fill-rule:nonzero;fill:rgb(83.529412%,16.862745%,11.764706%);fill-opacity:1;" d="M 177.777344 27.777344 L 22.222656 27.777344 C 9.949219 27.777344 0 37.726562 0 50 L 0 72.222656 L 200 72.222656 L 200 50 C 200 37.726562 190.050781 27.777344 177.777344 27.777344 Z M 177.777344 27.777344 "/>
<path style=" stroke:none;fill-rule:nonzero;fill:rgb(100%,100%,100%);fill-opacity:1;" d="M 71.632812 90.75 C 71.859375 91.09375 73.75 93.804688 73.75 93.804688 L 76.464844 93.804688 L 75.355469 92.277344 Z M 75.707031 88.039062 C 75.933594 88.378906 77.820312 91.09375 77.820312 91.09375 L 80.539062 91.09375 L 79.429688 89.566406 Z M 79.496094 84.628906 C 79.601562 85.023438 80.523438 88.199219 80.523438 88.199219 L 83.089844 89.070312 L 82.535156 87.273438 Z M 79.496094 84.628906 "/>
<path style=" stroke:none;fill-rule:nonzero;fill:rgb(62.745098%,35.294118%,17.647059%);fill-opacity:1;" d="M 77.515625 119.433594 C 77.292969 119.550781 77.023438 119.460938 76.910156 119.234375 C 76.792969 119.011719 76.890625 118.734375 77.105469 118.628906 L 90.8125 111.628906 C 91.035156 111.511719 91.304688 111.601562 91.417969 111.816406 C 91.535156 112.042969 91.4375 112.316406 91.222656 112.429688 Z M 80.261719 121.964844 C 80.050781 122.101562 79.773438 122.039062 79.632812 121.832031 C 79.5 121.632812 79.550781 121.34375 79.761719 121.207031 L 92.59375 112.722656 C 92.804688 112.582031 93.082031 112.632812 93.222656 112.84375 C 93.359375 113.054688 93.304688 113.328125 93.09375 113.464844 Z M 80.261719 121.964844 "/>
<path style=" stroke:none;fill-rule:nonzero;fill:rgb(62.745098%,35.294118%,17.647059%);fill-opacity:1;" d="M 83.039062 124.316406 C 82.871094 124.5 82.582031 124.523438 82.398438 124.359375 C 82.210938 124.195312 82.195312 123.90625 82.359375 123.714844 L 92.535156 112.171875 C 92.699219 111.984375 92.984375 111.972656 93.171875 112.132812 C 93.359375 112.292969 93.378906 112.578125 93.210938 112.765625 Z M 83.039062 124.316406 "/>
<path style=" stroke:none;fill-rule:nonzero;fill:rgb(62.745098%,35.294118%,17.647059%);fill-opacity:1;" d="M 96.378906 115.082031 L 93.210938 121.644531 L 92.644531 121.066406 L 91.410156 122.773438 L 88.0625 120.949219 L 92.222656 112.816406 Z M 96.378906 115.082031 "/>
<path style=" stroke:none;fill-rule:nonzero;fill:rgb(83.529412%,16.862745%,11.764706%);fill-opacity:1;" d="M 97.738281 125.140625 L 100 114.398438 L 99.765625 105.003906 L 83.484375 89.449219 L 82.351562 93.015625 L 80.089844 91.207031 L 79.410156 94.9375 C 79.410156 94.9375 76.578125 92.90625 76.464844 93.246094 C 76.355469 93.582031 75.671875 101.84375 75.445312 106.484375 C 75.222656 111.117188 75.035156 118.015625 80.082031 118.929688 C 88.90625 120.511719 95.464844 113.949219 95.464844 113.949219 C 95.464844 113.949219 97.617188 115.988281 97.726562 116.328125 C 97.839844 116.667969 96.933594 120.621094 96.59375 122.210938 C 96.265625 123.785156 97.738281 125.140625 97.738281 125.140625 Z M 97.738281 125.140625 "/>
<path style=" stroke:none;fill-rule:nonzero;fill:rgb(100%,87.843137%,0%);fill-opacity:1;" d="M 86.417969 92.464844 L 85.515625 95.050781 L 84.042969 94.253906 C 84.042969 94.253906 80.292969 113.148438 86.410156 114.621094 C 92.527344 116.09375 93.210938 113.601562 93.210938 113.601562 L 90.265625 109.644531 L 88.0625 110.660156 C 88.0625 110.660156 86.988281 107.738281 86.988281 103.773438 C 86.988281 100.234375 87.554688 96.746094 87.554688 96.746094 L 88.679688 97.535156 L 88.910156 94.933594 Z M 86.417969 92.464844 "/>
<path style=" stroke:none;fill-rule:nonzero;fill:rgb(0%,47.45098%,20.392157%);fill-opacity:1;" d="M 92.644531 98.105469 L 88.910156 94.933594 L 88.679688 97.535156 L 87.214844 96.515625 C 87.214844 96.515625 86.40625 99.234375 86.417969 102.738281 C 86.429688 106.246094 86.878906 109.644531 86.878906 109.644531 C 86.878906 109.644531 89.476562 110.542969 90.832031 109.644531 C 92.195312 108.738281 92.644531 98.105469 92.644531 98.105469 Z M 92.644531 98.105469 "/>
<path style=" stroke:none;fill-rule:nonzero;fill:rgb(90.980392%,63.921569%,5.882353%);fill-opacity:1;" d="M 91.410156 108.738281 C 88.472656 110 82.460938 112.265625 84.042969 115.082031 C 85.632812 117.90625 90.265625 116.777344 93.210938 113.601562 C 96.15625 110.433594 91.410156 108.738281 91.410156 108.738281 Z M 91.410156 108.738281 "/>
<path style=" stroke:none;fill-rule:nonzero;fill:rgb(100%,100%,100%);fill-opacity:1;" d="M 128.359375 90.75 C 128.140625 91.09375 126.246094 93.804688 126.246094 93.804688 L 123.527344 93.804688 L 124.632812 92.277344 Z M 124.289062 88.039062 C 124.066406 88.378906 122.179688 91.09375 122.179688 91.09375 L 119.460938 91.09375 L 120.566406 89.566406 Z M 120.503906 84.628906 L 119.476562 88.199219 L 116.90625 89.070312 L 117.464844 87.273438 Z M 120.503906 84.628906 "/>
<path style=" stroke:none;fill-rule:nonzero;fill:rgb(62.745098%,35.294118%,17.647059%);fill-opacity:1;" d="M 122.484375 119.433594 C 122.707031 119.550781 122.984375 119.460938 123.089844 119.234375 C 123.207031 119.011719 123.117188 118.734375 122.894531 118.628906 L 109.195312 111.628906 C 108.964844 111.511719 108.699219 111.601562 108.582031 111.816406 C 108.464844 112.042969 108.554688 112.316406 108.785156 112.429688 Z M 119.738281 121.964844 C 119.949219 122.101562 120.234375 122.039062 120.367188 121.832031 C 120.503906 121.632812 120.449219 121.34375 120.238281 121.207031 L 107.410156 112.722656 C 107.207031 112.582031 106.921875 112.632812 106.789062 112.84375 C 106.648438 113.054688 106.707031 113.328125 106.910156 113.464844 Z M 119.738281 121.964844 "/>
<path style=" stroke:none;fill-rule:nonzero;fill:rgb(62.745098%,35.294118%,17.647059%);fill-opacity:1;" d="M 116.964844 124.316406 C 117.128906 124.5 117.417969 124.523438 117.601562 124.359375 C 117.789062 124.195312 117.804688 123.90625 117.644531 123.714844 L 107.472656 112.171875 C 107.316406 111.984375 107.027344 111.972656 106.839844 112.132812 C 106.648438 112.292969 106.632812 112.578125 106.792969 112.765625 Z M 116.964844 124.316406 "/>
<path style=" stroke:none;fill-rule:nonzero;fill:rgb(62.745098%,35.294118%,17.647059%);fill-opacity:1;" d="M 103.621094 115.082031 L 106.789062 121.644531 L 107.355469 121.066406 L 108.589844 122.773438 L 111.9375 120.949219 L 107.777344 112.816406 Z M 103.621094 115.082031 "/>
<path style=" stroke:none;fill-rule:nonzero;fill:rgb(83.529412%,16.862745%,11.764706%);fill-opacity:1;" d="M 102.261719 125.140625 L 100 114.398438 L 100.234375 105.003906 L 116.515625 89.449219 L 117.65625 93.015625 L 119.917969 91.207031 L 120.59375 94.9375 C 120.59375 94.9375 123.417969 92.90625 123.527344 93.246094 C 123.644531 93.582031 124.328125 101.84375 124.550781 106.484375 C 124.777344 111.117188 124.964844 118.015625 119.917969 118.929688 C 111.089844 120.511719 104.527344 113.949219 104.527344 113.949219 C 104.527344 113.949219 102.378906 115.988281 102.265625 116.328125 C 102.15625 116.667969 103.0625 120.621094 103.398438 122.210938 C 103.734375 123.785156 102.261719 125.140625 102.261719 125.140625 Z M 102.261719 125.140625 "/>
<path style=" stroke:none;fill-rule:nonzero;fill:rgb(100%,87.843137%,0%);fill-opacity:1;" d="M 113.582031 92.464844 L 114.476562 95.050781 L 115.949219 94.253906 C 115.949219 94.253906 119.707031 113.148438 113.582031 114.621094 C 107.464844 116.09375 106.785156 113.601562 106.785156 113.601562 L 109.722656 109.644531 L 111.933594 110.660156 C 111.933594 110.660156 113 107.738281 113 103.773438 C 113 100.234375 112.433594 96.746094 112.433594 96.746094 L 111.3125 97.535156 L 111.078125 94.933594 Z M 113.582031 92.464844 "/>
<path style=" stroke:none;fill-rule:nonzero;fill:rgb(0%,47.45098%,20.392157%);fill-opacity:1;" d="M 107.355469 98.105469 L 111.089844 94.933594 L 111.320312 97.535156 L 112.785156 96.515625 C 112.785156 96.515625 113.59375 99.234375 113.582031 102.738281 C 113.570312 106.246094 113.121094 109.644531 113.121094 109.644531 C 113.121094 109.644531 110.515625 110.542969 109.160156 109.644531 C 107.800781 108.738281 107.355469 98.105469 107.355469 98.105469 Z M 107.355469 98.105469 "/>
<path style=" stroke:none;fill-rule:nonzero;fill:rgb(90.980392%,63.921569%,5.882353%);fill-opacity:1;" d="M 108.589844 108.738281 C 111.527344 110 117.535156 112.265625 115.949219 115.082031 C 114.367188 117.90625 109.726562 116.777344 106.789062 113.601562 C 103.84375 110.433594 108.589844 108.738281 108.589844 108.738281 Z M 108.589844 108.738281 "/>
<path style=" stroke:none;fill-rule:nonzero;fill:rgb(83.529412%,16.862745%,11.764706%);fill-opacity:1;" d="M 90.726562 87.917969 C 91.679688 89.039062 91.632812 90.632812 90.628906 91.484375 C 89.628906 92.332031 88.050781 92.109375 87.101562 90.988281 C 86.15625 89.867188 86.195312 88.273438 87.195312 87.421875 C 88.195312 86.570312 89.777344 86.792969 90.726562 87.917969 Z M 90.726562 87.917969 "/>
<path style=" stroke:none;fill-rule:nonzero;fill:rgb(90.588235%,90.588235%,90.588235%);fill-opacity:1;" d="M 109.722656 87.917969 C 108.777344 89.039062 108.820312 90.632812 109.828125 91.484375 C 110.832031 92.332031 112.40625 92.109375 113.359375 90.988281 C 114.3125 89.867188 114.265625 88.273438 113.261719 87.421875 C 112.253906 86.570312 110.679688 86.792969 109.722656 87.917969 Z M 109.722656 87.917969 "/>
<path style=" stroke:none;fill-rule:nonzero;fill:rgb(0%,47.45098%,20.392157%);fill-opacity:1;" d="M 106.109375 74.910156 C 105.316406 75.476562 107.582031 79.09375 107.132812 83.054688 C 106.671875 87.015625 100 90.183594 100 90.183594 C 100 90.183594 93.320312 87.015625 92.871094 83.054688 C 92.417969 79.101562 94.683594 75.476562 93.890625 74.910156 C 93.09375 74.34375 88.910156 77.964844 88.6875 81.8125 C 88.460938 85.65625 92.355469 91.449219 94.910156 92.5625 C 97.464844 93.671875 100.003906 94.253906 100.003906 94.253906 C 100.003906 94.253906 102.539062 93.667969 105.101562 92.5625 C 107.660156 91.449219 111.554688 85.65625 111.320312 81.8125 C 111.089844 77.964844 106.898438 74.34375 106.109375 74.910156 Z M 106.109375 74.910156 "/>
<path style=" stroke:none;fill-rule:nonzero;fill:rgb(100%,100%,100%);fill-opacity:1;" d="M 100 90.070312 C 100 90.070312 100.679688 87.695312 105.09375 86.339844 C 109.503906 84.976562 113.6875 83.960938 115.277344 83.851562 C 116.867188 83.734375 109 80.683594 107.132812 80.457031 C 105.265625 80.234375 102.949219 80.683594 102.605469 82.042969 C 102.265625 83.398438 101.699219 82.949219 100.003906 83.179688 C 98.304688 83.398438 97.179688 81.816406 96.382812 80.6875 C 95.59375 79.554688 92.589844 80.121094 91.121094 80.238281 C 89.648438 80.351562 84.050781 83.855469 84.050781 83.855469 C 84.050781 83.855469 93.785156 85.4375 95.816406 86.457031 C 97.851562 87.476562 95.929688 91.09375 95.367188 92.117188 C 94.792969 93.128906 98.726562 91.800781 100 90.070312 Z M 100 90.070312 "/>
<path style=" stroke:none;fill-rule:nonzero;fill:rgb(0%,0%,0%);fill-opacity:1;" d="M 100 90.070312 C 100 90.070312 100.679688 87.695312 105.09375 86.339844 C 109.503906 84.976562 113.6875 83.960938 115.277344 83.851562 C 116.867188 83.734375 109.511719 81.472656 107.640625 81.246094 C 105.773438 81.023438 104.304688 81.023438 103.964844 82.378906 C 103.628906 83.734375 101.707031 82.945312 100.003906 83.171875 C 98.304688 83.394531 96.382812 82.832031 95.59375 81.699219 C 94.800781 80.566406 93.445312 81.023438 91.972656 81.132812 C 90.503906 81.246094 84.054688 83.851562 84.054688 83.851562 C 84.054688 83.851562 93.789062 85.433594 95.820312 86.449219 C 97.855469 87.472656 95.933594 91.089844 95.371094 92.109375 C 94.792969 93.128906 98.726562 91.800781 100 90.070312 Z M 100 90.070312 "/>
<path style=" stroke:none;fill-rule:nonzero;fill:rgb(0%,65.098039%,87.058824%);fill-opacity:1;" d="M 87.894531 103.644531 C 87.894531 96.332031 93.316406 90.410156 100 90.410156 C 106.6875 90.410156 112.105469 96.339844 112.105469 103.644531 C 112.105469 110.957031 106.6875 116.882812 100 116.882812 C 93.316406 116.882812 87.894531 110.960938 87.894531 103.644531 Z M 87.894531 103.644531 "/>
<path style=" stroke:none;fill-rule:nonzero;fill:rgb(90.980392%,63.921569%,5.882353%);fill-opacity:1;" d="M 91.117188 103.644531 C 91.117188 97.898438 95.09375 93.238281 100 93.238281 C 104.90625 93.238281 108.882812 97.898438 108.882812 103.644531 C 108.882812 109.398438 104.90625 114.054688 100 114.054688 C 95.09375 114.054688 91.117188 109.398438 91.117188 103.644531 Z M 91.117188 103.644531 "/>
<path style=" stroke:none;fill-rule:nonzero;fill:rgb(83.529412%,16.862745%,11.764706%);fill-opacity:1;" d="M 96.15625 99.121094 C 96.15625 97 97.878906 95.277344 100 95.277344 C 102.121094 95.277344 103.84375 97.003906 103.84375 99.121094 C 103.84375 101.25 102.121094 102.972656 100 102.972656 C 97.878906 102.972656 96.15625 101.25 96.15625 99.121094 Z M 96.15625 99.121094 "/>
<path style=" stroke:none;fill-rule:nonzero;fill:rgb(0%,47.45098%,20.392157%);fill-opacity:1;" d="M 100 114.054688 C 104.714844 114.054688 108.578125 109.75 108.867188 104.304688 C 105.972656 103.234375 101.1875 99.121094 100 99.121094 C 98.753906 99.121094 97.171875 100.484375 95.140625 102.289062 C 94.09375 103.222656 92.472656 103.972656 91.148438 104.484375 C 91.511719 109.839844 95.332031 114.054688 100 114.054688 Z M 100 114.054688 "/>
<path style=" stroke:none;fill-rule:nonzero;fill:rgb(90.980392%,63.921569%,5.882353%);fill-opacity:1;" d="M 101.132812 84.070312 C 101.132812 84.640625 99.964844 85.09375 98.535156 85.09375 C 97.09375 85.09375 95.929688 84.640625 95.929688 84.070312 C 95.929688 83.511719 97.09375 83.054688 98.535156 83.054688 C 99.964844 83.054688 101.132812 83.515625 101.132812 84.070312 Z M 101.132812 84.070312 "/>
<path style=" stroke:none;fill-rule:nonzero;fill:rgb(100%,100%,100%);fill-opacity:1;" d="M 95.472656 108.738281 L 98.1875 108.738281 L 98.976562 106.476562 L 100 107.714844 L 98.867188 111 L 96.378906 111 Z M 95.472656 108.738281 "/>
<path style=" stroke:none;fill-rule:nonzero;fill:rgb(70.196078%,49.019608%,3.921569%);fill-opacity:1;" d="M 102.371094 110.660156 C 102.371094 111.722656 101.84375 112.589844 101.1875 112.589844 C 100.535156 112.589844 100 111.726562 100 110.660156 C 100 109.601562 100.535156 108.738281 101.1875 108.738281 C 101.84375 108.738281 102.371094 109.601562 102.371094 110.660156 Z M 104.070312 112.589844 C 104.070312 112.722656 103.964844 112.816406 103.84375 112.816406 C 103.722656 112.816406 103.617188 112.722656 103.617188 112.589844 L 103.617188 106.707031 C 103.617188 106.582031 103.714844 106.476562 103.84375 106.476562 C 103.964844 106.476562 104.070312 106.582031 104.070312 106.707031 Z M 104.070312 112.589844 "/>
<path style=" stroke:none;fill-rule:nonzero;fill:rgb(19.607843%,69.803922%,40%);fill-opacity:1;" d="M 105.765625 106.132812 C 105.765625 107.132812 104.882812 107.945312 103.789062 107.945312 C 102.695312 107.945312 101.8125 107.132812 101.8125 106.132812 C 101.8125 105.132812 102.699219 104.320312 103.789062 104.320312 C 104.882812 104.328125 105.765625 105.132812 105.765625 106.132812 Z M 105.765625 106.132812 "/>
</g>
</svg>
