<?xml version="1.0" encoding="UTF-8"?>
<svg xmlns="http://www.w3.org/2000/svg" xmlns:xlink="http://www.w3.org/1999/xlink" width="200px" height="px" viewBox="0 0 200 200" version="1.1">
<g id="surface1">
<path style=" stroke:none;fill-rule:nonzero;fill:rgb(7.843137%,7.843137%,7.843137%);fill-opacity:1;" d="M 0 150 C 0 162.273438 9.949219 172.222656 22.222656 172.222656 L 177.777344 172.222656 C 190.050781 172.222656 200 162.273438 200 150 L 200 127.777344 L 0 127.777344 Z M 0 150 "/>
<path style=" stroke:none;fill-rule:nonzero;fill:rgb(93.333333%,93.333333%,93.333333%);fill-opacity:1;" d="M 0 72.222656 L 200 72.222656 L 200 127.777344 L 0 127.777344 Z M 0 72.222656 "/>
<path style=" stroke:none;fill-rule:nonzero;fill:rgb(86.666667%,18.039216%,26.666667%);fill-opacity:1;" d="M 177.777344 27.777344 L 22.222656 27.777344 C 9.949219 27.777344 0 37.726562 0 50 L 0 72.222656 L 200 72.222656 L 200 50 C 200 37.726562 190.050781 27.777344 177.777344 27.777344 Z M 177.777344 27.777344 "/>
<path style=" stroke:none;fill-rule:nonzero;fill:rgb(0%,47.843137%,23.529412%);fill-opacity:1;" d="M 62.371094 100.332031 L 62.371094 107.160156 L 93.765625 107.160156 L 93.765625 103.066406 C 93.765625 101.246094 91.714844 101.355469 91.714844 102.722656 L 91.714844 105.789062 L 67.144531 105.789062 L 67.144531 101.011719 L 84.378906 83.777344 L 86.996094 86.5625 L 71.355469 102.371094 L 87.621094 102.371094 C 87.621094 102.371094 88.359375 97.59375 92.792969 97.59375 L 97.859375 101.121094 L 97.859375 113.976562 L 52.140625 113.976562 C 52.140625 113.976562 51 120.003906 44.0625 119.207031 C 44.0625 119.207031 48.839844 116.023438 48.839844 112.265625 C 48.839844 108.515625 45.773438 105.554688 45.773438 105.554688 L 50.09375 102.828125 C 50.09375 102.828125 50.550781 105.160156 51.003906 105.839844 C 51.464844 106.515625 53.167969 107.144531 53.167969 107.144531 L 58.964844 107.144531 L 58.890625 104.109375 L 58.050781 103.75 Z M 108.496094 105.898438 L 107.570312 107.160156 L 104.867188 107.160156 C 104.878906 100.765625 104.898438 88.171875 104.859375 88.042969 C 104.804688 87.871094 106.054688 86.964844 106.054688 86.964844 L 100.601562 83.957031 L 100.601562 113.988281 L 110.839844 113.988281 Z M 138.816406 88.734375 L 138.816406 107.160156 L 136.089844 107.160156 L 136.089844 90.777344 L 132.671875 94.195312 L 132.671875 107.167969 L 129.945312 107.167969 L 129.945312 96.246094 L 126.539062 99.660156 L 126.539062 99.695312 L 125.792969 100.398438 L 126.539062 100.6875 L 126.539062 103.226562 C 123.285156 101.554688 119.710938 104.089844 119.710938 107.171875 L 119.710938 113.996094 L 142.226562 113.996094 L 142.226562 85.332031 Z M 124.570312 107.160156 L 124.371094 107.160156 C 123.003906 107.160156 123.179688 105.339844 125.054688 105.339844 C 126.101562 105.339844 126.433594 105.898438 126.539062 106.398438 L 126.539062 107.160156 Z M 131.878906 83.785156 C 131.878906 84.628906 131.59375 85.320312 131.25 85.320312 C 130.90625 85.320312 130.628906 84.632812 130.628906 83.785156 C 130.628906 82.933594 130.910156 82.25 131.25 82.25 C 131.601562 82.25 131.878906 82.933594 131.878906 83.785156 Z M 126.132812 87.933594 C 126.132812 87.933594 127.15625 88.90625 129.039062 88.617188 C 130.917969 88.332031 131.539062 86.628906 131.539062 86.628906 C 131.539062 86.628906 132.617188 88.390625 133.8125 88.105469 C 135.011719 87.820312 136.089844 85.945312 136.089844 85.945312 C 136.089844 85.945312 136.144531 88.957031 134.378906 89.238281 C 132.617188 89.523438 131.878906 88.273438 131.878906 88.273438 C 131.878906 88.273438 130.964844 89.640625 129.261719 89.75 C 127.554688 89.871094 126.132812 87.933594 126.132812 87.933594 Z M 153.601562 105.738281 L 152.128906 107.160156 L 149.738281 107.160156 L 149.738281 87.765625 L 151.15625 87.140625 L 145.644531 83.957031 L 145.644531 113.988281 L 155.933594 113.988281 Z M 153.601562 105.738281 "/>
<path style=" stroke:none;fill-rule:nonzero;fill:rgb(0%,47.843137%,23.529412%);fill-opacity:1;" d="M 59.535156 117.398438 C 59.535156 118.210938 58.871094 118.878906 58.050781 118.878906 C 57.238281 118.878906 56.570312 118.214844 56.570312 117.398438 C 56.570312 116.582031 57.238281 115.917969 58.050781 115.917969 C 58.871094 115.917969 59.535156 116.578125 59.535156 117.398438 Z M 59.535156 117.398438 "/>
</g>
</svg>
