<?xml version="1.0" encoding="UTF-8"?>
<svg xmlns="http://www.w3.org/2000/svg" xmlns:xlink="http://www.w3.org/1999/xlink" width="200px" height="px" viewBox="0 0 200 200" version="1.1">
<g id="surface1">
<path style=" stroke:none;fill-rule:nonzero;fill:rgb(92.941176%,92.54902%,92.54902%);fill-opacity:1;" d="M 114.8125 105.554688 L 112.214844 110.050781 L 117.40625 110.050781 Z M 100 120.101562 L 102.59375 115.605469 L 97.40625 115.605469 Z M 100 120.101562 "/>
<path style=" stroke:none;fill-rule:nonzero;fill:rgb(93.333333%,93.333333%,93.333333%);fill-opacity:1;" d="M 0 138.890625 L 200 138.890625 L 200 61.109375 L 0 61.109375 Z M 1.632812 41.667969 L 198.371094 41.667969 C 195.070312 33.527344 187.101562 27.777344 177.777344 27.777344 L 22.222656 27.777344 C 12.898438 27.777344 4.929688 33.527344 1.632812 41.667969 Z M 1.632812 41.667969 "/>
<path style=" stroke:none;fill-rule:nonzero;fill:rgb(92.941176%,92.54902%,92.54902%);fill-opacity:1;" d="M 117.40625 89.949219 L 112.214844 89.949219 L 114.8125 94.445312 Z M 87.785156 89.949219 L 82.59375 89.949219 L 85.1875 94.445312 Z M 105.800781 110.050781 L 111.605469 100 L 105.800781 89.949219 L 94.199219 89.949219 L 88.394531 100 L 94.199219 110.050781 Z M 85.1875 105.554688 L 82.59375 110.050781 L 87.785156 110.050781 Z M 100 79.898438 L 97.40625 84.394531 L 102.59375 84.394531 Z M 100 79.898438 "/>
<path style=" stroke:none;fill-rule:nonzero;fill:rgb(0%,21.960784%,72.156863%);fill-opacity:1;" d="M 1.632812 41.667969 C 0.589844 44.246094 0 47.050781 0 50 L 0 61.109375 L 200 61.109375 L 200 50 C 200 47.050781 199.410156 44.246094 198.367188 41.667969 Z M 1.632812 41.667969 "/>
<path style=" stroke:none;fill-rule:nonzero;fill:rgb(93.333333%,93.333333%,93.333333%);fill-opacity:1;" d="M 1.632812 158.332031 L 198.371094 158.332031 C 195.070312 166.472656 187.101562 172.222656 177.777344 172.222656 L 22.222656 172.222656 C 12.898438 172.222656 4.929688 166.472656 1.632812 158.332031 Z M 1.632812 158.332031 "/>
<path style=" stroke:none;fill-rule:nonzero;fill:rgb(0%,21.960784%,72.156863%);fill-opacity:1;" d="M 1.632812 158.332031 C 0.589844 155.753906 0 152.949219 0 150 L 0 138.890625 L 200 138.890625 L 200 150 C 200 152.949219 199.410156 155.753906 198.367188 158.332031 Z M 90.988281 115.605469 L 100 131.210938 L 109.011719 115.605469 L 127.027344 115.605469 L 118.023438 100 L 127.035156 84.394531 L 109.015625 84.394531 L 100 68.789062 L 90.988281 84.394531 L 72.972656 84.394531 L 81.976562 100 L 72.964844 115.605469 Z M 100 120.101562 L 97.40625 115.605469 L 102.59375 115.605469 Z M 117.40625 89.949219 L 114.8125 94.445312 L 112.214844 89.957031 L 117.40625 89.957031 Z M 114.8125 105.554688 L 117.40625 110.042969 L 112.214844 110.042969 Z M 100 79.898438 L 102.59375 84.394531 L 97.40625 84.394531 Z M 94.199219 89.949219 L 105.804688 89.949219 L 111.605469 100 L 105.804688 110.050781 L 94.199219 110.050781 L 88.394531 100 Z M 87.785156 89.949219 L 85.1875 94.445312 L 82.59375 89.957031 L 87.785156 89.957031 Z M 85.1875 105.554688 L 87.785156 110.042969 L 82.59375 110.042969 Z M 85.1875 105.554688 "/>
</g>
</svg>
