<?xml version="1.0" encoding="UTF-8"?>
<svg xmlns="http://www.w3.org/2000/svg" xmlns:xlink="http://www.w3.org/1999/xlink" width="200px" height="px" viewBox="0 0 200 200" version="1.1">
<g id="surface1">
<path style=" stroke:none;fill-rule:nonzero;fill:rgb(24.313725%,36.862745%,72.54902%);fill-opacity:1;" d="M 200 150 C 200 162.273438 190.050781 172.222656 177.777344 172.222656 L 22.222656 172.222656 C 9.949219 172.222656 0 162.273438 0 150 L 0 50 C 0 37.726562 9.949219 27.777344 22.222656 27.777344 L 177.777344 27.777344 C 190.050781 27.777344 200 37.726562 200 50 Z M 200 150 "/>
<path style=" stroke:none;fill-rule:nonzero;fill:rgb(100%,85.098039%,0%);fill-opacity:1;" d="M 0 55.554688 L 200 55.554688 L 200 144.445312 L 0 144.445312 Z M 0 55.554688 "/>
<path style=" stroke:none;fill-rule:nonzero;fill:rgb(69.411765%,5.098039%,5.098039%);fill-opacity:1;" d="M 0 61.109375 L 200 61.109375 L 200 138.890625 L 0 138.890625 Z M 0 61.109375 "/>
<path style=" stroke:none;fill-rule:nonzero;fill:rgb(100%,100%,100%);fill-opacity:1;" d="M 152.851562 93.214844 L 161.527344 96.515625 L 170.035156 93.214844 L 161.527344 90.4375 Z M 152.851562 93.214844 "/>
<path style=" stroke:none;fill-rule:nonzero;fill:rgb(100%,85.098039%,0%);fill-opacity:1;" d="M 158.503906 93.332031 C 158.503906 94.195312 157.804688 94.894531 156.945312 94.894531 L 32.117188 94.894531 C 31.253906 94.894531 30.554688 94.195312 30.554688 93.332031 C 30.554688 92.472656 31.253906 91.773438 32.117188 91.773438 L 156.945312 91.773438 C 157.804688 91.773438 158.503906 92.472656 158.503906 93.332031 Z M 158.503906 93.332031 "/>
<path style=" stroke:none;fill-rule:nonzero;fill:rgb(100%,100%,100%);fill-opacity:1;" d="M 158.40625 87.660156 L 167.082031 90.960938 L 175.589844 87.660156 L 167.082031 84.882812 Z M 158.40625 87.660156 "/>
<path style=" stroke:none;fill-rule:nonzero;fill:rgb(100%,85.098039%,0%);fill-opacity:1;" d="M 164.0625 87.777344 C 164.0625 88.640625 163.359375 89.339844 162.5 89.339844 L 37.671875 89.339844 C 36.8125 89.339844 36.109375 88.640625 36.109375 87.777344 C 36.109375 86.917969 36.8125 86.214844 37.671875 86.214844 L 162.5 86.214844 C 163.359375 86.214844 164.0625 86.910156 164.0625 87.777344 Z M 187.371094 99.957031 C 187.371094 101.25 186.328125 102.300781 185.027344 102.300781 L 17.488281 102.300781 C 16.195312 102.300781 15.144531 101.25 15.144531 99.957031 C 15.144531 98.660156 16.195312 97.609375 17.488281 97.609375 L 185.023438 97.609375 C 186.320312 97.609375 187.371094 98.660156 187.371094 99.957031 Z M 187.371094 99.957031 "/>
<path style=" stroke:none;fill-rule:nonzero;fill:rgb(100%,100%,100%);fill-opacity:1;" d="M 151.273438 100.171875 C 151.273438 100.171875 128.726562 130.671875 100.929688 130.671875 C 73.128906 130.671875 50.578125 100.171875 50.578125 100.171875 C 50.578125 100.171875 73.121094 69.671875 100.929688 69.671875 C 128.734375 69.671875 151.273438 100.171875 151.273438 100.171875 Z M 151.273438 100.171875 "/>
<path style=" stroke:none;fill-rule:nonzero;fill:rgb(0%,0%,0%);fill-opacity:1;" d="M 105.4375 124.1875 C 103.003906 123.035156 98.839844 121.644531 98.957031 120.601562 C 99.070312 119.554688 102.195312 119.210938 105.089844 118.867188 C 107.984375 118.523438 107.867188 117.132812 107.054688 116.433594 C 106.246094 115.734375 102.890625 114.8125 100.921875 113.65625 C 98.957031 112.5 100.804688 111.457031 102.570312 110.066406 C 104.339844 108.679688 104.394531 107.0625 104.394531 105.898438 C 104.394531 104.738281 105.785156 102.3125 108.101562 100.804688 C 110.417969 99.300781 108.214844 99.070312 106.367188 98.144531 C 104.515625 97.214844 104.628906 94.09375 104.976562 91.777344 C 105.328125 89.460938 105.210938 88.1875 104.398438 88.070312 C 103.589844 87.957031 103.128906 87.261719 102.667969 86.621094 C 102.207031 85.984375 102.667969 84.828125 100.933594 84.601562 C 99.199219 84.371094 99.3125 83.789062 98.851562 82.75 C 98.390625 81.710938 96.882812 80.089844 96.1875 78.121094 C 95.605469 76.464844 97.015625 73.328125 100.789062 69.683594 C 73.050781 69.789062 50.589844 100.171875 50.589844 100.171875 C 50.589844 100.171875 73.132812 130.671875 100.9375 130.671875 C 104.5 130.671875 107.972656 130.160156 111.316406 129.289062 C 110.523438 126.027344 107.398438 125.121094 105.4375 124.1875 Z M 105.4375 124.1875 "/>
<path style=" stroke:none;fill-rule:nonzero;fill:rgb(100%,100%,100%);fill-opacity:1;" d="M 69.328125 89.121094 L 71.761719 89.121094 L 71.761719 97.339844 L 69.328125 97.339844 Z M 69.328125 102.777344 L 71.761719 102.777344 L 71.761719 110.996094 L 69.328125 110.996094 Z M 74.070312 89.121094 L 76.503906 89.121094 L 76.503906 97.339844 L 74.070312 97.339844 Z M 74.070312 102.777344 L 76.503906 102.777344 L 76.503906 110.996094 L 74.070312 110.996094 Z M 78.820312 89.121094 L 81.253906 89.121094 L 81.253906 97.339844 L 78.820312 97.339844 Z M 78.820312 102.777344 L 81.253906 102.777344 L 81.253906 110.996094 L 78.820312 110.996094 Z M 83.566406 89.121094 L 86 89.121094 L 86 97.339844 L 83.566406 97.339844 Z M 83.566406 102.777344 L 86 102.777344 L 86 110.996094 L 83.566406 110.996094 Z M 88.3125 89.121094 L 90.746094 89.121094 L 90.746094 97.339844 L 88.3125 97.339844 Z M 88.3125 102.777344 L 90.746094 102.777344 L 90.746094 110.996094 L 88.3125 110.996094 Z M 93.054688 89.121094 L 95.488281 89.121094 L 95.488281 97.339844 L 93.054688 97.339844 Z M 93.054688 102.777344 L 95.488281 102.777344 L 95.488281 110.996094 L 93.054688 110.996094 Z M 93.054688 102.777344 "/>
<path style=" stroke:none;fill-rule:nonzero;fill:rgb(0%,0%,0%);fill-opacity:1;" d="M 106.828125 89.121094 L 109.261719 89.121094 L 109.261719 97.339844 L 106.828125 97.339844 Z M 106.828125 102.777344 L 109.261719 102.777344 L 109.261719 110.996094 L 106.828125 110.996094 Z M 111.578125 89.121094 L 114.011719 89.121094 L 114.011719 97.339844 L 111.578125 97.339844 Z M 111.578125 102.777344 L 114.011719 102.777344 L 114.011719 110.996094 L 111.578125 110.996094 Z M 116.320312 89.121094 L 118.753906 89.121094 L 118.753906 97.339844 L 116.320312 97.339844 Z M 116.320312 102.777344 L 118.753906 102.777344 L 118.753906 110.996094 L 116.320312 110.996094 Z M 121.0625 89.121094 L 123.496094 89.121094 L 123.496094 97.339844 L 121.0625 97.339844 Z M 121.0625 102.777344 L 123.496094 102.777344 L 123.496094 110.996094 L 121.0625 110.996094 Z M 125.8125 89.121094 L 128.246094 89.121094 L 128.246094 97.339844 L 125.8125 97.339844 Z M 125.8125 102.777344 L 128.246094 102.777344 L 128.246094 110.996094 L 125.8125 110.996094 Z M 130.554688 89.121094 L 132.988281 89.121094 L 132.988281 97.339844 L 130.554688 97.339844 Z M 130.554688 102.777344 L 132.988281 102.777344 L 132.988281 110.996094 L 130.554688 110.996094 Z M 130.554688 102.777344 "/>
<path style=" stroke:none;fill-rule:nonzero;fill:rgb(23.921569%,36.470588%,65.490196%);fill-opacity:1;" d="M 84.199219 75.523438 C 81.976562 76.996094 77.429688 81.511719 77.167969 84.8125 C 78.121094 83.945312 79.25 83.765625 79.25 83.765625 C 79.25 83.765625 77.949219 85.589844 78.121094 87.84375 C 78.90625 86.976562 79.683594 86.628906 79.683594 86.628906 C 79.683594 86.628906 80.144531 88.710938 81.855469 90.882812 C 82.722656 90.359375 82.984375 89.496094 82.984375 89.496094 C 82.984375 89.496094 83.503906 91.316406 85.328125 92.707031 C 85.996094 92.535156 85.996094 91.75 85.996094 91.75 C 85.996094 91.75 87.066406 94.003906 91.496094 94.960938 C 90.710938 93.484375 93.226562 91.433594 92.277344 89.117188 C 93.054688 89.578125 93.839844 90.707031 93.839844 90.707031 C 93.839844 90.707031 94.617188 89.578125 93.054688 87.496094 C 94.011719 88.359375 94.535156 89.117188 94.535156 89.117188 C 94.535156 89.117188 95.132812 85.5 93.054688 83.238281 C 94.359375 83.761719 95.488281 84.367188 95.488281 84.367188 C 95.488281 84.367188 95.273438 79.996094 92.015625 78.027344 C 87.84375 75.523438 84.199219 77.34375 84.199219 75.523438 Z M 23.089844 99.476562 C 23.089844 99.476562 25.082031 101.300781 22.304688 101.5625 C 19.527344 101.820312 17.273438 105.121094 17.355469 108.417969 L 18.832031 107.722656 C 18.832031 107.722656 18.398438 109.976562 19.09375 111.457031 C 19.699219 109.976562 20.570312 110.066406 20.570312 110.066406 C 20.570312 110.066406 20.746094 112.238281 21.09375 113.890625 C 21.789062 113.023438 21.699219 112.066406 21.699219 112.066406 C 21.699219 112.066406 22.746094 112.410156 23.261719 113.890625 C 23.777344 115.367188 24.042969 116.496094 25.253906 117.1875 C 25.777344 116.929688 26.039062 116.234375 26.039062 116.234375 C 26.039062 116.234375 27.082031 117.101562 28.726562 117.792969 C 28.382812 115.449219 30.640625 115.710938 31.59375 114.0625 C 31.9375 114.496094 32.027344 115.359375 32.027344 115.359375 C 32.027344 115.359375 32.722656 114.0625 32.722656 112.753906 C 32.722656 111.449219 33.503906 110.410156 33.503906 110.410156 C 33.503906 110.410156 33.59375 111.015625 33.503906 111.972656 C 34.289062 111.539062 34.460938 106.589844 34.109375 105.027344 C 34.632812 105.460938 35.066406 106.417969 35.066406 106.417969 C 35.066406 106.417969 35.671875 103.898438 35.066406 102.292969 C 34.460938 100.6875 32.722656 99.382812 30.554688 100.167969 C 28.382812 100.949219 25.171875 98.867188 25.171875 98.867188 C 25.171875 98.867188 25.695312 100.167969 25 100.601562 C 24.304688 101.035156 24.910156 99.910156 23.089844 99.476562 Z M 175.261719 98.609375 C 175.261719 98.609375 173.527344 99.214844 170.75 101.820312 C 167.972656 104.429688 167.105469 108.855469 167.105469 108.855469 C 167.105469 108.855469 168.667969 107.554688 169.277344 107.378906 C 167.800781 110.761719 170.667969 112.328125 170.234375 115.015625 C 171.359375 114.84375 172.40625 112.84375 172.40625 112.84375 C 172.40625 112.84375 174.488281 116.578125 177.4375 118.660156 C 178.132812 116.667969 180.128906 115.015625 180.128906 115.015625 L 180.5625 116.144531 L 181.777344 113.105469 L 182.644531 114.582031 C 182.644531 114.582031 183.429688 112.878906 182.644531 110.996094 C 182.761719 111.332031 183.945312 112.238281 183.945312 112.238281 L 183.945312 108.070312 C 183.945312 108.070312 184.640625 109.371094 185.160156 109.722656 C 185.160156 107.898438 184.117188 106.601562 184.554688 105.816406 L 185.160156 106.890625 C 185.160156 106.890625 185.683594 103.996094 182.644531 101.734375 C 179.605469 99.476562 176.773438 99.648438 176.148438 99.957031 C 175.523438 100.261719 175.261719 98.609375 175.261719 98.609375 Z M 175.261719 98.609375 "/>
<path style=" stroke:none;fill-rule:nonzero;fill:rgb(65.490196%,0%,0%);fill-opacity:1;" d="M 82.550781 80.988281 C 84.160156 80.5 83.59375 85.679688 81.683594 87.761719 C 82.726562 84.199219 80.554688 81.601562 82.550781 80.988281 Z M 86.328125 79.511719 C 86.710938 78.179688 89.488281 81.683594 93.050781 81.855469 C 89.933594 82.378906 85.851562 81.160156 86.328125 79.511719 Z M 85.246094 84.894531 C 86.1875 84.457031 86.460938 89.667969 85.246094 91.144531 C 85.417969 88.542969 83.9375 85.503906 85.246094 84.894531 Z M 88.714844 83.59375 C 87.511719 83.921875 91.054688 86.804688 93.054688 86.632812 C 91.179688 86.277344 90.621094 83.070312 88.714844 83.59375 Z M 88.023438 89.121094 C 86.765625 89.121094 88.023438 92.449219 90.277344 93.226562 C 89.496094 92.011719 90.042969 89.121094 88.023438 89.121094 Z M 23.523438 103.382812 C 24.667969 103.382812 23.179688 107.289062 20.746094 108.851562 C 22.050781 106.945312 21.878906 103.382812 23.523438 103.382812 Z M 27.253906 102.777344 C 26.328125 103.488281 28.90625 106.660156 31.855469 106.890625 C 29.949219 105.554688 28.382812 101.917969 27.253906 102.777344 Z M 24.476562 107.8125 C 25.167969 107.695312 25.300781 111.4375 23.351562 112.410156 C 24.394531 109.984375 23.4375 107.988281 24.476562 107.8125 Z M 27.777344 107.8125 C 28.929688 107.105469 29.5 110.042969 31.160156 110.996094 C 28.382812 110.328125 26.648438 108.503906 27.777344 107.8125 Z M 26.351562 110.589844 C 27.5 110.082031 28.121094 114.25 26.351562 115.449219 C 26.996094 112.761719 25.351562 111.023438 26.351562 110.589844 Z M 173.089844 106.890625 C 174.289062 106.855469 172.132812 110.417969 170.3125 111.371094 C 172.050781 108.765625 171.789062 106.921875 173.089844 106.890625 Z M 177.433594 105.035156 C 176.539062 105.648438 179.082031 107.378906 180.300781 107.378906 C 178.792969 106.910156 178.5625 104.253906 177.433594 105.035156 Z M 174.304688 110.996094 C 175.222656 110.292969 175.605469 112.582031 174.304688 114.234375 C 175.101562 112.554688 173.089844 111.921875 174.304688 110.996094 Z M 178.039062 108.640625 C 177.089844 109.023438 178.90625 111.722656 180.292969 111.894531 C 178.777344 110.960938 179.429688 108.070312 178.039062 108.640625 Z M 176.734375 111.371094 C 177.523438 110.777344 179.132812 114.671875 177.238281 116.667969 C 178.140625 113.773438 175.246094 112.5 176.734375 111.371094 Z M 176.734375 111.371094 "/>
</g>
</svg>
