<?xml version="1.0" encoding="UTF-8"?>
<svg xmlns="http://www.w3.org/2000/svg" xmlns:xlink="http://www.w3.org/1999/xlink" width="200px" height="200px" viewBox="0 0 200 200" version="1.1">
<g id="surface1">
<path style=" stroke:none;fill-rule:nonzero;fill:rgb(0%,14.901961%,49.803922%);fill-opacity:1;" d="M 200 150 C 200 162.273438 190.050781 172.222656 177.777344 172.222656 L 22.222656 172.222656 C 9.949219 172.222656 0 162.273438 0 150 L 0 50 C 0 37.726562 9.949219 27.777344 22.222656 27.777344 L 177.777344 27.777344 C 190.050781 27.777344 200 37.726562 200 50 Z M 200 150 "/>
<path style=" stroke:none;fill-rule:nonzero;fill:rgb(0%,14.901961%,49.803922%);fill-opacity:1;" d="M 22.222656 27.777344 C 9.949219 27.777344 0 37.726562 0 50 L 0 150 C 0 162.273438 9.949219 172.222656 22.222656 172.222656 L 66.667969 172.222656 L 66.667969 27.777344 Z M 22.222656 27.777344 "/>
<path style=" stroke:none;fill-rule:nonzero;fill:rgb(100%,78.039216%,14.901961%);fill-opacity:1;" d="M 66.667969 27.777344 L 133.332031 27.777344 L 133.332031 172.222656 L 66.667969 172.222656 Z M 66.667969 27.777344 "/>
<path style=" stroke:none;fill-rule:nonzero;fill:rgb(0%,0%,0%);fill-opacity:1;" d="M 126.832031 75.089844 C 119.023438 75.089844 112.945312 80.816406 110.949219 83.078125 C 113.292969 82.554688 113.816406 84.378906 113.464844 85.511719 C 111 93.714844 108.917969 103.371094 108.292969 108.566406 L 103.277344 108.566406 L 103.277344 79.753906 L 109.332031 78.5 L 101.746094 76.984375 L 100.171875 69.332031 L 98.601562 76.984375 L 91.003906 78.5 L 97.117188 79.765625 L 97.117188 108.566406 L 91.855469 108.566406 C 91.234375 103.367188 89.148438 93.710938 86.683594 85.511719 C 86.339844 84.382812 86.855469 82.5625 89.199219 83.078125 C 87.207031 80.820312 81.128906 75.089844 73.316406 75.089844 C 76.722656 80.121094 85.789062 94.15625 86.972656 110.660156 L 86.972656 114.117188 L 97.117188 114.117188 L 97.117188 127.527344 L 103.277344 127.527344 L 103.277344 114.117188 L 113.035156 114.117188 L 113.035156 112.828125 C 113.503906 95.382812 123.277344 80.339844 126.832031 75.089844 Z M 126.832031 75.089844 "/>
</g>
</svg>
