<?xml version="1.0" encoding="UTF-8"?>
<svg xmlns="http://www.w3.org/2000/svg" xmlns:xlink="http://www.w3.org/1999/xlink" width="200px" height="200px" viewBox="0 0 200 200" version="1.1">
<g id="surface1">
<path style=" stroke:none;fill-rule:nonzero;fill:rgb(0%,60%,70.980392%);fill-opacity:1;" d="M 0 50 L 0 72.222656 L 200 72.222656 L 200 50 C 200 37.726562 190.050781 27.777344 177.777344 27.777344 L 22.222656 27.777344 C 9.949219 27.777344 0 37.726562 0 50 Z M 0 50 "/>
<path style=" stroke:none;fill-rule:nonzero;fill:rgb(11.764706%,70.980392%,22.745098%);fill-opacity:1;" d="M 200 150 L 200 127.777344 L 0 127.777344 L 0 150 C 0 162.273438 9.949219 172.222656 22.222656 172.222656 L 177.777344 172.222656 C 190.050781 172.222656 200 162.273438 200 150 Z M 200 150 "/>
<path style=" stroke:none;fill-rule:nonzero;fill:rgb(80.784314%,6.666667%,14.901961%);fill-opacity:1;" d="M 0 72.222656 L 200 72.222656 L 200 80.554688 L 0 80.554688 Z M 0 119.445312 L 200 119.445312 L 200 127.777344 L 0 127.777344 Z M 0 119.445312 "/>
<path style=" stroke:none;fill-rule:nonzero;fill:rgb(93.333333%,93.333333%,93.333333%);fill-opacity:1;" d="M 0 100 L 0 119.445312 L 200 119.445312 L 200 80.554688 L 0 80.554688 Z M 0 100 "/>
<path style=" stroke:none;fill-rule:nonzero;fill:rgb(100%,100%,100%);fill-opacity:1;" d="M 23.332031 50.890625 C 23.332031 42.300781 29.582031 35.179688 37.777344 33.800781 C 36.839844 33.644531 35.871094 33.554688 34.890625 33.554688 C 25.316406 33.554688 17.554688 41.316406 17.554688 50.890625 C 17.554688 60.460938 25.316406 68.222656 34.890625 68.222656 C 35.871094 68.222656 36.839844 68.132812 37.777344 67.976562 C 29.582031 66.601562 23.332031 59.476562 23.332031 50.890625 Z M 49.351562 63.683594 L 48.570312 61.289062 L 47.792969 63.683594 L 45.273438 63.683594 L 47.3125 65.167969 L 46.535156 67.5625 L 48.570312 66.078125 L 50.605469 67.5625 L 49.828125 65.167969 L 51.867188 63.683594 Z M 64.359375 63.683594 L 63.582031 61.289062 L 62.804688 63.683594 L 60.289062 63.683594 L 62.328125 65.167969 L 61.550781 67.5625 L 63.582031 66.078125 L 65.621094 67.5625 L 64.84375 65.167969 L 66.882812 63.683594 Z M 63.582031 47.421875 L 62.804688 49.816406 L 60.289062 49.816406 L 62.328125 51.300781 L 61.550781 53.695312 L 63.582031 52.210938 L 65.621094 53.695312 L 64.84375 51.300781 L 66.882812 49.816406 L 64.359375 49.816406 Z M 79.378906 63.683594 L 78.601562 61.289062 L 77.820312 63.683594 L 75.304688 63.683594 L 77.339844 65.167969 L 76.5625 67.5625 L 78.601562 66.078125 L 80.640625 67.5625 L 79.859375 65.167969 L 81.894531 63.683594 Z M 78.601562 47.421875 L 77.820312 49.816406 L 75.304688 49.816406 L 77.339844 51.300781 L 76.5625 53.695312 L 78.601562 52.210938 L 80.640625 53.695312 L 79.859375 51.300781 L 81.894531 49.816406 L 79.378906 49.816406 Z M 78.601562 33.554688 L 77.820312 35.949219 L 75.304688 35.949219 L 77.339844 37.433594 L 76.5625 39.828125 L 78.601562 38.34375 L 80.640625 39.828125 L 79.859375 37.433594 L 81.894531 35.949219 L 79.378906 35.949219 Z M 94.394531 63.683594 L 93.617188 61.289062 L 92.839844 63.683594 L 90.316406 63.683594 L 92.355469 65.167969 L 91.578125 67.5625 L 93.617188 66.078125 L 95.648438 67.5625 L 94.871094 65.167969 L 96.910156 63.683594 Z M 93.617188 47.421875 L 92.839844 49.816406 L 90.316406 49.816406 L 92.355469 51.300781 L 91.578125 53.695312 L 93.617188 52.210938 L 95.648438 53.695312 L 94.871094 51.300781 L 96.910156 49.816406 L 94.394531 49.816406 Z M 93.617188 33.554688 L 92.839844 35.949219 L 90.316406 35.949219 L 92.355469 37.433594 L 91.578125 39.828125 L 93.617188 38.34375 L 95.648438 39.828125 L 94.871094 37.433594 L 96.910156 35.949219 L 94.394531 35.949219 Z M 109.40625 63.683594 L 108.628906 61.289062 L 107.851562 63.683594 L 105.332031 63.683594 L 107.371094 65.167969 L 106.59375 67.5625 L 108.628906 66.078125 L 110.667969 67.5625 L 109.890625 65.167969 L 111.929688 63.683594 Z M 108.628906 47.421875 L 107.851562 49.816406 L 105.332031 49.816406 L 107.371094 51.300781 L 106.59375 53.695312 L 108.628906 52.210938 L 110.667969 53.695312 L 109.890625 51.300781 L 111.929688 49.816406 L 109.40625 49.816406 Z M 108.628906 33.554688 L 107.851562 35.949219 L 105.332031 35.949219 L 107.371094 37.433594 L 106.59375 39.828125 L 108.628906 38.34375 L 110.667969 39.828125 L 109.890625 37.433594 L 111.929688 35.949219 L 109.40625 35.949219 Z M 108.628906 33.554688 "/>
</g>
</svg>
