<?xml version="1.0" encoding="UTF-8"?>
<svg xmlns="http://www.w3.org/2000/svg" xmlns:xlink="http://www.w3.org/1999/xlink" width="200px" height="200px" viewBox="0 0 200 200" version="1.1">
<g id="surface1">
<path style=" stroke:none;fill-rule:nonzero;fill:rgb(7.843137%,7.843137%,7.843137%);fill-opacity:1;" d="M 0 133.332031 L 200 133.332031 L 200 66.667969 L 0 66.667969 Z M 118.054688 87.234375 L 123.789062 95.121094 L 133.066406 92.109375 L 127.332031 100 L 133.066406 107.890625 L 123.789062 104.878906 L 118.054688 112.765625 L 118.054688 103.011719 L 108.777344 100 L 118.054688 96.984375 Z M 100 81.945312 C 105.011719 81.945312 109.542969 83.988281 112.816406 87.285156 C 110.238281 85.421875 107.078125 84.3125 103.65625 84.3125 C 94.988281 84.3125 87.964844 91.332031 87.964844 100 C 87.964844 108.667969 94.988281 115.6875 103.65625 115.6875 C 107.082031 115.6875 110.238281 114.578125 112.816406 112.714844 C 109.542969 116.011719 105.011719 118.054688 100 118.054688 C 90.027344 118.054688 81.945312 109.972656 81.945312 100 C 81.945312 90.027344 90.027344 81.945312 100 81.945312 Z M 100 81.945312 "/>
<path style=" stroke:none;fill-rule:nonzero;fill:rgb(90.588235%,0%,7.45098%);fill-opacity:1;" d="M 177.777344 27.777344 L 22.222656 27.777344 C 9.949219 27.777344 0 37.726562 0 50 L 0 66.667969 L 200 66.667969 L 200 50 C 200 37.726562 190.050781 27.777344 177.777344 27.777344 Z M 177.777344 27.777344 "/>
<path style=" stroke:none;fill-rule:nonzero;fill:rgb(13.72549%,61.960784%,27.45098%);fill-opacity:1;" d="M 177.777344 172.222656 L 22.222656 172.222656 C 9.949219 172.222656 0 162.273438 0 150 L 0 133.332031 L 200 133.332031 L 200 150 C 200 162.273438 190.050781 172.222656 177.777344 172.222656 Z M 177.777344 172.222656 "/>
<path style=" stroke:none;fill-rule:nonzero;fill:rgb(100%,100%,100%);fill-opacity:1;" d="M 100 118.054688 C 105.011719 118.054688 109.542969 116.011719 112.816406 112.714844 C 110.238281 114.578125 107.078125 115.6875 103.65625 115.6875 C 94.988281 115.6875 87.964844 108.667969 87.964844 100 C 87.964844 91.332031 94.988281 84.3125 103.65625 84.3125 C 107.082031 84.3125 110.238281 85.421875 112.816406 87.285156 C 109.542969 83.988281 105.011719 81.945312 100 81.945312 C 90.027344 81.945312 81.945312 90.027344 81.945312 100 C 81.945312 109.972656 90.027344 118.054688 100 118.054688 Z M 100 118.054688 "/>
<path style=" stroke:none;fill-rule:nonzero;fill:rgb(100%,100%,100%);fill-opacity:1;" d="M 118.054688 103.011719 L 118.054688 112.765625 L 123.789062 104.878906 L 133.066406 107.890625 L 127.332031 100 L 133.066406 92.109375 L 123.789062 95.121094 L 118.054688 87.234375 L 118.054688 96.984375 L 108.777344 100 Z M 118.054688 103.011719 "/>
</g>
</svg>
