<?xml version="1.0" encoding="UTF-8"?>
<svg xmlns="http://www.w3.org/2000/svg" xmlns:xlink="http://www.w3.org/1999/xlink" width="200px" height="200px" viewBox="0 0 200 200" version="1.1">
<g id="surface1">
<path style=" stroke:none;fill-rule:nonzero;fill:rgb(93.333333%,93.333333%,93.333333%);fill-opacity:1;" d="M 200 150 C 200 162.273438 190.050781 172.222656 177.777344 172.222656 L 22.222656 172.222656 C 9.949219 172.222656 0 162.273438 0 150 L 0 50 C 0 37.726562 9.949219 27.777344 22.222656 27.777344 L 177.777344 27.777344 C 190.050781 27.777344 200 37.726562 200 50 Z M 200 150 "/>
<path style=" stroke:none;fill-rule:nonzero;fill:rgb(77.647059%,4.705882%,18.823529%);fill-opacity:1;" d="M 119.117188 72.695312 C 104.039062 62.140625 83.253906 65.804688 72.695312 80.882812 C 67.417969 88.417969 69.246094 98.8125 76.789062 104.101562 C 84.328125 109.371094 94.722656 107.535156 100 100 C 105.277344 92.464844 115.679688 90.628906 123.210938 95.910156 C 130.753906 101.1875 132.589844 111.582031 127.304688 119.121094 C 137.867188 104.042969 134.199219 83.261719 119.117188 72.695312 Z M 119.117188 72.695312 "/>
<path style=" stroke:none;fill-rule:nonzero;fill:rgb(0%,20.392157%,47.058824%);fill-opacity:1;" d="M 123.210938 95.910156 C 115.679688 90.628906 105.277344 92.464844 100 100 C 94.722656 107.535156 84.328125 109.371094 76.789062 104.09375 C 69.246094 98.8125 67.417969 88.417969 72.695312 80.878906 C 62.132812 95.964844 65.800781 116.746094 80.878906 127.300781 C 95.960938 137.859375 116.738281 134.199219 127.300781 119.109375 C 132.582031 111.582031 130.75 101.1875 123.210938 95.910156 Z M 123.210938 95.910156 "/>
<path style=" stroke:none;fill-rule:nonzero;fill:rgb(16.078431%,18.431373%,20%);fill-opacity:1;" d="M 135.1875 142.066406 L 145.898438 129.300781 L 150.15625 132.871094 L 139.445312 145.640625 Z M 149.464844 125.050781 L 160.179688 112.289062 L 164.433594 115.859375 L 153.722656 128.621094 Z M 143.699219 149.222656 L 154.410156 136.460938 L 158.667969 140.035156 L 147.957031 152.792969 Z M 157.988281 132.1875 L 168.710938 119.429688 L 172.964844 123.003906 L 162.246094 135.761719 Z M 152.207031 156.367188 L 162.929688 143.605469 L 167.179688 147.179688 L 156.460938 159.9375 Z M 166.488281 139.339844 L 177.195312 126.5625 L 181.457031 130.132812 L 170.75 142.910156 Z M 166.511719 60.660156 L 170.765625 57.089844 L 181.488281 69.859375 L 177.226562 73.433594 Z M 152.222656 43.628906 L 156.476562 40.054688 L 167.1875 52.828125 L 162.929688 56.394531 Z M 143.707031 50.785156 L 147.960938 47.210938 L 172.960938 77 L 168.707031 80.570312 Z M 135.195312 57.917969 L 139.457031 54.34375 L 150.160156 67.109375 L 145.90625 70.679688 Z M 149.472656 74.945312 L 153.726562 71.371094 L 164.449219 84.132812 L 160.199219 87.707031 Z M 35.554688 115.855469 L 39.8125 112.285156 L 64.804688 142.078125 L 60.542969 145.648438 Z M 27.054688 123 L 31.304688 119.433594 L 42.023438 132.199219 L 37.761719 135.773438 Z M 41.316406 140.035156 L 45.570312 136.460938 L 56.292969 149.222656 L 52.039062 152.792969 Z M 18.535156 130.140625 L 22.789062 126.566406 L 47.789062 156.355469 L 43.527344 159.929688 Z M 18.527344 69.851562 L 43.515625 40.0625 L 47.777344 43.628906 L 22.777344 73.421875 Z M 27.039062 77 L 52.039062 47.207031 L 56.292969 50.777344 L 31.292969 80.566406 Z M 35.554688 84.140625 L 60.554688 54.34375 L 64.8125 57.917969 L 39.8125 87.710938 Z M 35.554688 84.140625 "/>
</g>
</svg>
