<?xml version="1.0" encoding="UTF-8"?>
<svg xmlns="http://www.w3.org/2000/svg" xmlns:xlink="http://www.w3.org/1999/xlink" width="200px" height="200px" viewBox="0 0 200 200" version="1.1">
<g id="surface1">
<path style=" stroke:none;fill-rule:nonzero;fill:rgb(86.27451%,14.117647%,12.156863%);fill-opacity:1;" d="M 177.777344 27.777344 L 22.222656 27.777344 C 9.949219 27.777344 0 37.726562 0 50 L 0 150 C 0 162.273438 9.949219 172.222656 22.222656 172.222656 L 177.777344 172.222656 C 190.050781 172.222656 200 162.273438 200 150 L 200 50 C 200 37.726562 190.050781 27.777344 177.777344 27.777344 Z M 177.777344 27.777344 "/>
<path style=" stroke:none;fill-rule:nonzero;fill:rgb(100%,78.039216%,14.901961%);fill-opacity:1;" d="M 88.890625 100 L 7.199219 166.371094 C 7.640625 166.773438 8.089844 167.15625 8.554688 167.523438 L 131.484375 100 L 8.554688 32.476562 C 8.089844 32.84375 7.632812 33.226562 7.199219 33.628906 Z M 88.890625 100 "/>
<path style=" stroke:none;fill-rule:nonzero;fill:rgb(7.843137%,7.843137%,7.843137%);fill-opacity:1;" d="M 7.199219 33.628906 L 7.1875 33.632812 C 2.773438 37.695312 0 43.523438 0 50 L 0 150 C 0 156.476562 2.773438 162.3125 7.199219 166.371094 L 88.890625 100 Z M 7.199219 33.628906 "/>
<path style=" stroke:none;fill-rule:nonzero;fill:rgb(100%,100%,100%);fill-opacity:1;" d="M 26.449219 105.609375 L 29.183594 123.773438 L 37.644531 107.472656 L 55.765625 110.484375 L 42.878906 97.398438 L 51.339844 81.101562 L 34.910156 89.3125 L 22.023438 76.226562 L 24.761719 94.390625 L 8.332031 102.601562 Z M 26.449219 105.609375 "/>
</g>
</svg>
