<?xml version="1.0" encoding="UTF-8"?>
<svg xmlns="http://www.w3.org/2000/svg" xmlns:xlink="http://www.w3.org/1999/xlink" width="200px" height="200px" viewBox="0 0 200 200" version="1.1">
<g id="surface1">
<path style=" stroke:none;fill-rule:nonzero;fill:rgb(0.784314%,30.980392%,63.529412%);fill-opacity:1;" d="M 177.777344 27.777344 L 22.222656 27.777344 C 9.949219 27.777344 0 37.726562 0 50 L 0 150 C 0 162.273438 9.949219 172.222656 22.222656 172.222656 L 177.777344 172.222656 C 190.050781 172.222656 200 162.273438 200 150 L 200 50 C 200 37.726562 190.050781 27.777344 177.777344 27.777344 Z M 177.777344 27.777344 "/>
<path style=" stroke:none;fill-rule:nonzero;fill:rgb(93.333333%,93.333333%,93.333333%);fill-opacity:1;" d="M 0 50 L 200 50 L 200 55.554688 L 0 55.554688 Z M 0 144.445312 L 200 144.445312 L 200 150 L 0 150 Z M 0 144.445312 "/>
<path style=" stroke:none;fill-rule:nonzero;fill:rgb(92.941176%,10.980392%,15.294118%);fill-opacity:1;" d="M 0 55.554688 L 200 55.554688 L 200 144.445312 L 0 144.445312 Z M 0 55.554688 "/>
<path style=" stroke:none;fill-rule:nonzero;fill:rgb(100%,100%,100%);fill-opacity:1;" d="M 73.765625 132.101562 C 91.496094 132.101562 105.867188 117.726562 105.867188 100 C 105.867188 82.273438 91.496094 67.898438 73.765625 67.898438 C 56.039062 67.898438 41.667969 82.273438 41.667969 100 C 41.667969 117.726562 56.039062 132.101562 73.765625 132.101562 Z M 66.785156 90.390625 L 73.765625 68.898438 L 80.75 90.390625 L 103.34375 90.390625 L 85.066406 103.667969 L 92.050781 125.15625 L 73.773438 111.878906 L 55.496094 125.15625 L 62.476562 103.667969 L 44.199219 90.390625 Z M 66.785156 90.390625 "/>
</g>
</svg>
