<?xml version="1.0" encoding="UTF-8"?>
<svg xmlns="http://www.w3.org/2000/svg" xmlns:xlink="http://www.w3.org/1999/xlink" width="200px" height="200px" viewBox="0 0 200 200" version="1.1">
<g id="surface1">
<path style=" stroke:none;fill-rule:nonzero;fill:rgb(46.666667%,69.803922%,33.333333%);fill-opacity:1;" d="M 200 150 C 200 162.273438 190.050781 172.222656 177.777344 172.222656 L 22.222656 172.222656 C 9.949219 172.222656 0 162.273438 0 150 L 0 50 C 0 37.726562 9.949219 27.777344 22.222656 27.777344 L 177.777344 27.777344 C 190.050781 27.777344 200 37.726562 200 50 Z M 200 150 "/>
<path style=" stroke:none;fill-rule:nonzero;fill:rgb(86.666667%,18.039216%,26.666667%);fill-opacity:1;" d="M 0 72.222656 L 200 72.222656 L 200 127.777344 L 0 127.777344 Z M 0 72.222656 "/>
<path style=" stroke:none;fill-rule:nonzero;fill:rgb(7.843137%,7.843137%,7.843137%);fill-opacity:1;" d="M 177.777344 27.777344 L 22.222656 27.777344 C 9.949219 27.777344 0 37.726562 0 50 L 0 72.222656 L 200 72.222656 L 200 50 C 200 37.726562 190.050781 27.777344 177.777344 27.777344 Z M 177.777344 27.777344 "/>
<path style=" stroke:none;fill-rule:nonzero;fill:rgb(86.666667%,18.039216%,26.666667%);fill-opacity:1;" d="M 128.839844 66.667969 C 123.070312 56.710938 112.332031 50 100 50 C 87.667969 50 76.929688 56.710938 71.160156 66.667969 Z M 98.320312 33.332031 L 101.671875 33.332031 L 100 45.351562 Z M 89.910156 34.332031 L 93.210938 33.765625 L 93.589844 45.894531 Z M 81.785156 36.738281 L 84.945312 35.621094 L 87.359375 47.511719 Z M 74.183594 40.476562 L 77.109375 38.851562 L 81.5 50.160156 Z M 67.320312 45.449219 L 69.933594 43.351562 L 76.167969 53.753906 Z M 61.394531 51.503906 L 63.621094 48.996094 L 71.515625 58.207031 Z M 56.582031 58.476562 L 58.34375 55.628906 L 67.683594 63.367188 Z M 60.542969 66.667969 L 54.265625 63.054688 L 53.011719 66.160156 L 55.035156 66.667969 Z M 145.851562 66.667969 L 147.0625 66.367188 L 145.832031 63.273438 L 139.867188 66.667969 Z M 141.789062 55.828125 L 143.523438 58.671875 L 132.40625 63.515625 Z M 136.550781 49.171875 L 138.738281 51.679688 L 128.59375 58.332031 Z M 130.261719 43.488281 L 132.839844 45.601562 L 123.972656 53.859375 Z M 123.105469 38.957031 L 126 40.601562 L 118.648438 50.238281 Z M 115.285156 35.6875 L 118.417969 36.820312 L 112.800781 47.566406 Z M 107.023438 33.792969 L 110.300781 34.382812 L 106.578125 45.921875 Z M 107.023438 33.792969 "/>
</g>
</svg>
