<?xml version="1.0" encoding="UTF-8"?>
<svg xmlns="http://www.w3.org/2000/svg" xmlns:xlink="http://www.w3.org/1999/xlink" width="200px" height="px" viewBox="0 0 200 200" version="1.1">
<g id="surface1">
<path style=" stroke:none;fill-rule:nonzero;fill:rgb(7.45098%,53.333333%,3.137255%);fill-opacity:1;" d="M 0 150 C 0 162.273438 9.949219 172.222656 22.222656 172.222656 L 177.777344 172.222656 C 190.050781 172.222656 200 162.273438 200 150 L 200 127.777344 L 0 127.777344 Z M 0 150 "/>
<path style=" stroke:none;fill-rule:nonzero;fill:rgb(93.333333%,93.333333%,93.333333%);fill-opacity:1;" d="M 0 72.222656 L 200 72.222656 L 200 127.777344 L 0 127.777344 Z M 0 72.222656 "/>
<path style=" stroke:none;fill-rule:nonzero;fill:rgb(100%,60%,20%);fill-opacity:1;" d="M 200 72.222656 L 200 50 C 200 37.726562 190.050781 27.777344 177.777344 27.777344 L 22.222656 27.777344 C 9.949219 27.777344 0 37.726562 0 50 L 0 72.222656 Z M 200 72.222656 "/>
<path style=" stroke:none;fill-rule:nonzero;fill:rgb(0%,0%,50.196078%);fill-opacity:1;" d="M 122.222656 100 C 122.222656 112.273438 112.273438 122.222656 100 122.222656 C 87.726562 122.222656 77.777344 112.273438 77.777344 100 C 77.777344 87.726562 87.726562 77.777344 100 77.777344 C 112.273438 77.777344 122.222656 87.726562 122.222656 100 Z M 122.222656 100 "/>
<path style=" stroke:none;fill-rule:nonzero;fill:rgb(93.333333%,93.333333%,93.333333%);fill-opacity:1;" d="M 116.667969 100 C 116.667969 109.203125 109.203125 116.667969 100 116.667969 C 90.796875 116.667969 83.332031 109.203125 83.332031 100 C 83.332031 90.796875 90.796875 83.332031 100 83.332031 C 109.203125 83.332031 116.667969 90.796875 116.667969 100 Z M 116.667969 100 "/>
<path style=" stroke:none;fill-rule:nonzero;fill:rgb(40%,40%,70.196078%);fill-opacity:1;" d="M 100 83.332031 L 100.8125 95.910156 L 106.371094 84.605469 L 102.316406 96.535156 L 111.785156 88.210938 L 103.464844 97.683594 L 115.394531 93.621094 L 104.089844 99.1875 L 116.667969 100 L 104.089844 100.8125 L 115.394531 106.371094 L 103.464844 102.316406 L 111.785156 111.785156 L 102.316406 103.464844 L 106.371094 115.394531 L 100.8125 104.089844 L 100 116.667969 L 99.1875 104.089844 L 93.621094 115.394531 L 97.683594 103.464844 L 88.210938 111.785156 L 96.535156 102.316406 L 84.605469 106.371094 L 95.910156 100.8125 L 83.332031 100 L 95.910156 99.1875 L 84.605469 93.621094 L 96.535156 97.683594 L 88.210938 88.210938 L 97.683594 96.535156 L 93.621094 84.605469 L 99.1875 95.910156 Z M 100 83.332031 "/>
<path style=" stroke:none;fill-rule:nonzero;fill:rgb(0%,0%,50.196078%);fill-opacity:1;" d="M 105.554688 100 C 105.554688 103.066406 103.066406 105.554688 100 105.554688 C 96.933594 105.554688 94.445312 103.066406 94.445312 100 C 94.445312 96.933594 96.933594 94.445312 100 94.445312 C 103.066406 94.445312 105.554688 96.933594 105.554688 100 Z M 105.554688 100 "/>
</g>
</svg>
