<?xml version="1.0" encoding="UTF-8"?>
<svg xmlns="http://www.w3.org/2000/svg" xmlns:xlink="http://www.w3.org/1999/xlink" width="200px" height="px" viewBox="0 0 200 200" version="1.1">
<g id="surface1">
<path style=" stroke:none;fill-rule:nonzero;fill:rgb(24.313725%,60.392157%,0%);fill-opacity:1;" d="M 177.777344 27.777344 L 22.222656 27.777344 C 15.640625 27.777344 9.789062 30.695312 5.722656 35.238281 L 5.722656 100 L 200 100 L 200 50 C 200 37.726562 190.050781 27.777344 177.777344 27.777344 Z M 177.777344 27.777344 "/>
<path style=" stroke:none;fill-rule:nonzero;fill:rgb(25.882353%,53.72549%,87.058824%);fill-opacity:1;" d="M 177.777344 172.222656 L 22.222656 172.222656 C 15.640625 172.222656 9.789062 169.304688 5.722656 164.761719 L 5.722656 100 L 200 100 L 200 150 C 200 162.273438 190.050781 172.222656 177.777344 172.222656 Z M 177.777344 172.222656 "/>
<path style=" stroke:none;fill-rule:nonzero;fill:rgb(92.156863%,1.568627%,21.960784%);fill-opacity:1;" d="M 5.722656 35.238281 C 2.207031 39.171875 0 44.3125 0 50 L 0 150 C 0 155.6875 2.207031 160.828125 5.722656 164.761719 L 200 100 Z M 5.722656 35.238281 "/>
<path style=" stroke:none;fill-rule:nonzero;fill:rgb(100%,78.431373%,15.294118%);fill-opacity:1;" d="M 64.933594 135.066406 C 62.394531 136.109375 53.820312 136.800781 51.738281 135.066406 C 49.65625 133.332031 55.90625 129.511719 55.90625 129.511719 C 55.90625 129.511719 49.65625 129.855469 42.1875 127.253906 C 34.722656 124.65625 31.25 119.964844 27.777344 119.964844 C 30.035156 117.710938 37.671875 121.527344 37.671875 121.527344 C 37.671875 121.527344 23.957031 115.105469 23.261719 105.726562 C 27.601562 111.804688 32.460938 113.195312 32.460938 113.195312 C 32.460938 113.195312 21.523438 105.382812 25.171875 93.921875 C 26.042969 96.878906 28.300781 100 28.300781 100 C 28.300781 100 24.132812 87.15625 28.820312 79.859375 C 30.382812 81.25 30.90625 90.105469 30.90625 90.105469 C 30.90625 90.105469 30.210938 81.601562 31.429688 76.910156 C 32.640625 72.222656 36.285156 70.488281 36.285156 70.488281 L 34.722656 79.167969 C 34.722656 79.167969 37.84375 76.734375 39.0625 74.65625 C 40.277344 72.578125 46.003906 64.933594 50.171875 64.410156 C 50.695312 65.628906 46.871094 69.273438 46.871094 69.273438 C 46.871094 69.273438 57.117188 64.0625 61.804688 66.320312 C 59.027344 68.929688 50.351562 69.964844 50.351562 69.964844 C 50.351562 69.964844 54.859375 72.050781 56.949219 70.488281 C 56.429688 72.050781 52.957031 73.265625 50.527344 72.746094 C 48.089844 72.222656 45.832031 74.304688 45.832031 74.304688 C 45.832031 74.304688 49.328125 75.777344 50.867188 74.304688 C 49.820312 77.605469 44.617188 76.910156 42.878906 76.910156 C 41.140625 76.910156 34.890625 81.078125 34.890625 84.027344 C 37.667969 83.160156 39.75 79.6875 39.75 79.6875 C 39.75 79.6875 41.667969 84.722656 36.632812 86.976562 C 31.601562 89.234375 31.945312 93.578125 31.945312 93.578125 C 31.945312 93.578125 34.734375 92.554688 35.066406 90.105469 C 38.015625 91.496094 34.199219 93.929688 33.332031 95.316406 C 32.464844 96.707031 32.289062 102.957031 32.289062 102.957031 C 32.289062 102.957031 33.851562 97.570312 34.199219 96.878906 C 34.550781 96.183594 37.15625 101.734375 36.109375 104.167969 C 35.066406 106.601562 34.027344 111.632812 35.589844 114.410156 C 36.632812 113.714844 35.9375 108.332031 35.9375 108.332031 C 35.9375 108.332031 39.582031 111.632812 39.761719 114.933594 C 40.804688 115.800781 40.804688 112.851562 40.804688 112.851562 C 40.804688 112.851562 43.238281 117.882812 44.105469 120.660156 C 44.972656 123.4375 50.003906 125.871094 52.4375 125.695312 C 54.871094 125.523438 57.820312 127.253906 57.820312 127.253906 C 57.820312 127.253906 56.777344 121.179688 56.777344 118.578125 C 56.777344 115.972656 57.121094 113.195312 57.121094 113.195312 C 57.121094 113.195312 46.707031 118.226562 46.355469 108.503906 C 48.960938 111.457031 52.253906 110.417969 52.253906 110.417969 C 52.253906 110.417969 45.832031 109.199219 46.179688 103.472656 C 48.261719 106.078125 51.390625 106.078125 51.390625 106.078125 C 51.390625 106.078125 47.917969 103.84375 48.785156 100.359375 C 52.777344 101.042969 55.035156 107.121094 55.035156 107.121094 C 55.035156 107.121094 55.378906 102.109375 55.207031 100.359375 C 55.035156 98.609375 54.859375 95.316406 54.859375 95.316406 C 54.859375 95.316406 48.4375 98.09375 47.394531 89.589844 C 49.128906 91.84375 51.039062 90.976562 51.039062 90.976562 C 51.039062 90.976562 47.394531 88.199219 48.957031 82.988281 C 50.171875 86.460938 52.949219 87.851562 52.949219 87.851562 C 52.949219 87.851562 51.734375 85.070312 51.734375 83.511719 C 54.167969 83.511719 56.765625 85.945312 56.246094 91.320312 C 59.542969 88.023438 59.023438 83.511719 58.328125 82.121094 C 55.378906 83.167969 52.773438 79.34375 52.773438 79.34375 C 52.773438 79.34375 56.417969 80.734375 57.109375 78.128906 C 52.773438 79.34375 51.726562 75.871094 51.726562 75.871094 C 51.726562 75.871094 55.550781 74.484375 57.457031 75.871094 C 58.84375 74.828125 57.976562 72.570312 57.976562 72.570312 C 57.976562 72.570312 63.359375 74.484375 59.710938 79.171875 C 60.40625 81.429688 60.40625 84.898438 60.40625 84.898438 C 60.40625 84.898438 62.140625 79.515625 66.484375 79.171875 C 63.878906 81.605469 64.921875 83.859375 64.921875 83.859375 C 64.921875 83.859375 68.054688 83.332031 68.398438 81.421875 C 72.394531 84.722656 64.578125 88.710938 64.578125 88.710938 C 64.578125 88.710938 66.832031 89.578125 68.746094 87.148438 C 71.179688 91.144531 64.921875 92.183594 62.496094 91.316406 C 60.0625 90.449219 58.671875 90.273438 58.15625 91.839844 C 57.632812 93.398438 56.9375 100.515625 57.109375 100 C 57.285156 99.476562 58.511719 94.832031 59.890625 92.882812 C 59.714844 95.488281 60.582031 97.917969 60.582031 97.917969 C 60.582031 97.917969 66.140625 98.089844 64.75 92.882812 C 70.132812 92.539062 63.707031 100.359375 63.707031 100.359375 C 63.707031 100.359375 66.328125 102.457031 69.527344 100.359375 C 70.648438 105.210938 65.265625 104.167969 63.355469 104.167969 C 61.445312 104.167969 56.753906 103.820312 57.457031 107.117188 C 58.160156 110.417969 59.894531 116.667969 59.894531 116.667969 C 59.894531 116.667969 60.417969 112.84375 61.976562 110.066406 C 63.539062 107.289062 65.621094 106.421875 64.753906 110.761719 C 67.011719 110.417969 68.75 106.59375 68.75 106.59375 C 68.75 106.59375 71.355469 111.285156 65.800781 114.582031 C 67.015625 115.800781 69.695312 112.5 69.695312 112.5 C 69.695312 112.5 70.316406 117.359375 66.148438 118.75 C 61.984375 120.140625 60.421875 119.273438 60.070312 121.871094 C 59.726562 124.476562 60.070312 126.5625 60.070312 126.5625 C 60.070312 126.5625 62.15625 126.90625 65.457031 124.828125 C 68.753906 122.746094 71.355469 124.65625 73.445312 122.394531 C 75.527344 120.140625 75.878906 113.890625 79.34375 111.628906 C 79.515625 113.882812 79.34375 116.140625 79.34375 116.140625 C 79.34375 116.140625 81.949219 114.40625 81.949219 111.800781 C 81.949219 109.195312 82.472656 107.804688 83.339844 106.765625 C 84.207031 105.722656 82.292969 103.316406 82.121094 100.355469 C 81.949219 97.394531 83.5625 96.003906 83.5625 96.003906 C 83.5625 96.003906 84.550781 102.605469 86.8125 104.859375 C 88.542969 99.304688 85.421875 96.699219 84.726562 93.578125 C 84.035156 90.457031 85.945312 90.277344 82.644531 88.023438 C 79.34375 85.765625 77.433594 82.464844 78.648438 78.820312 C 80.90625 83.855469 83.859375 84.207031 83.859375 84.207031 C 83.859375 84.207031 80.738281 76.394531 79 76.917969 C 77.265625 77.4375 72.921875 79.523438 69.800781 76.394531 C 74.140625 76.566406 74.832031 75.699219 74.832031 75.699219 C 74.832031 75.699219 73.789062 72.398438 69.800781 73.617188 C 65.804688 74.832031 60.773438 72.578125 59.210938 70.496094 C 62.160156 71.359375 63.035156 70.839844 63.035156 70.839844 L 60.082031 68.929688 C 60.082031 68.929688 62.515625 69.449219 64.25 68.929688 C 65.984375 68.40625 66.503906 67.195312 68.761719 69.101562 C 71.015625 71.011719 74.316406 72.921875 74.316406 72.921875 C 74.316406 72.921875 68.589844 69.101562 68.933594 64.417969 C 76.050781 66.5 77.960938 72.921875 79.699219 73.964844 C 81.4375 75.011719 84.199219 77.777344 85.066406 80.554688 C 85.933594 77.253906 82.460938 71.527344 82.460938 71.527344 C 82.460938 71.527344 88.539062 72.050781 88.882812 86.976562 C 90.445312 85.933594 88.882812 78.472656 88.882812 78.472656 C 88.882812 78.472656 94.4375 81.25 93.050781 89.0625 C 91.660156 96.871094 89.40625 100.355469 89.40625 100.355469 C 89.40625 100.355469 92.800781 98.785156 93.273438 94.960938 C 97.214844 98.785156 94.089844 105.027344 87.667969 113.1875 C 95.015625 109.714844 95.015625 103.988281 95.015625 103.988281 C 95.015625 103.988281 96.523438 111.628906 90.101562 116.144531 C 83.679688 120.65625 80.722656 121.355469 80.722656 121.355469 C 80.722656 121.355469 85.0625 121.699219 87.144531 122.222656 C 86.101562 128.121094 65.789062 128.996094 61.972656 129.511719 C 66.667969 132.289062 66.476562 134.433594 64.933594 135.066406 Z M 64.933594 135.066406 "/>
</g>
</svg>
