<?xml version="1.0" encoding="UTF-8"?>
<svg xmlns="http://www.w3.org/2000/svg" xmlns:xlink="http://www.w3.org/1999/xlink" width="200px" height="200px" viewBox="0 0 200 200" version="1.1">
<g id="surface1">
<path style=" stroke:none;fill-rule:nonzero;fill:rgb(82.352941%,0%,0%);fill-opacity:1;" d="M 192.320312 33.320312 L 177.777344 33.332031 L 169.445312 27.777344 L 111.109375 27.777344 L 100 33.332031 L 88.890625 27.777344 L 30.554688 27.777344 L 22.222656 33.332031 L 7.679688 33.320312 C 3.011719 37.394531 0 43.316406 0 50 L 0 86.109375 L 5.554688 100 L 0 113.890625 L 0 150 C 0 156.683594 3.011719 162.605469 7.679688 166.679688 L 22.222656 166.667969 L 30.554688 172.222656 L 88.890625 172.222656 L 100 166.667969 L 111.109375 172.222656 L 169.445312 172.222656 L 177.777344 166.667969 L 192.320312 166.679688 C 196.988281 162.605469 200 156.683594 200 150 L 200 113.890625 L 194.445312 100 L 200 86.109375 L 200 50 C 200 43.316406 196.988281 37.394531 192.320312 33.320312 Z M 192.320312 33.320312 "/>
<path style=" stroke:none;fill-rule:nonzero;fill:rgb(100%,90.196078%,0%);fill-opacity:1;" d="M 200 113.890625 L 200 86.109375 L 123.996094 96.667969 C 123.433594 92.644531 121.945312 88.9375 119.667969 85.792969 L 192.394531 33.265625 C 188.488281 29.851562 183.378906 27.777344 177.777344 27.777344 L 169.445312 27.777344 L 115.761719 81.617188 C 112.101562 78.472656 107.527344 76.4375 102.472656 75.917969 L 111.109375 27.777344 L 88.890625 27.777344 L 97.527344 75.917969 C 92.464844 76.4375 87.898438 78.472656 84.238281 81.617188 L 30.554688 27.777344 L 22.222656 27.777344 C 16.621094 27.777344 11.511719 29.851562 7.601562 33.265625 L 80.332031 85.792969 C 78.054688 88.9375 76.566406 92.644531 76.003906 96.667969 L 0 86.109375 L 0 113.890625 L 76.003906 103.332031 C 76.566406 107.355469 78.054688 111.0625 80.332031 114.207031 L 7.601562 166.734375 L 7.605469 166.738281 C 11.511719 170.15625 16.628906 172.222656 22.222656 172.222656 L 30.554688 172.222656 L 84.238281 118.382812 C 87.898438 121.527344 92.472656 123.5625 97.527344 124.082031 L 88.890625 172.222656 L 111.109375 172.222656 L 102.472656 124.082031 C 107.535156 123.5625 112.101562 121.527344 115.761719 118.382812 L 169.445312 172.222656 L 177.777344 172.222656 C 183.378906 172.222656 188.496094 170.148438 192.398438 166.734375 L 119.667969 114.207031 C 121.945312 111.0625 123.433594 107.355469 123.996094 103.332031 Z M 200 113.890625 "/>
<path style=" stroke:none;fill-rule:nonzero;fill:rgb(82.352941%,0%,0%);fill-opacity:1;" d="M 100 75.667969 C 86.582031 75.667969 75.667969 86.582031 75.667969 100 C 75.667969 113.417969 86.582031 124.332031 100 124.332031 C 113.417969 124.332031 124.332031 113.417969 124.332031 100 C 124.332031 86.582031 113.417969 75.667969 100 75.667969 Z M 100 118.648438 C 89.714844 118.648438 81.351562 110.285156 81.351562 100 C 81.351562 89.714844 89.714844 81.351562 100 81.351562 C 110.285156 81.351562 118.648438 89.714844 118.648438 100 C 118.648438 110.285156 110.285156 118.648438 100 118.648438 Z M 100 118.648438 "/>
</g>
</svg>
