<?xml version="1.0" encoding="UTF-8"?>
<svg xmlns="http://www.w3.org/2000/svg" xmlns:xlink="http://www.w3.org/1999/xlink" width="200px" height="200px" viewBox="0 0 200 200" version="1.1">
<g id="surface1">
<path style=" stroke:none;fill-rule:nonzero;fill:rgb(7.843137%,7.843137%,7.843137%);fill-opacity:1;" d="M 200 149.996094 C 200 162.265625 190.050781 172.214844 177.777344 172.214844 L 22.222656 172.214844 C 9.949219 172.214844 0 162.265625 0 149.996094 L 0 49.996094 C 0 37.722656 9.949219 27.773438 22.222656 27.773438 L 177.777344 27.773438 C 190.050781 27.773438 200 37.722656 200 49.996094 Z M 200 149.996094 "/>
<path style=" stroke:none;fill-rule:nonzero;fill:rgb(0%,47.843137%,21.176471%);fill-opacity:1;" d="M 177.777344 27.773438 C 190.050781 27.773438 200 37.722656 200 49.996094 L 200 149.996094 C 200 162.265625 190.050781 172.214844 177.777344 172.214844 L 133.332031 172.214844 L 133.332031 27.773438 Z M 177.777344 27.773438 "/>
<path style=" stroke:none;fill-rule:nonzero;fill:rgb(82.745098%,12.54902%,6.666667%);fill-opacity:1;" d="M 66.667969 27.773438 L 133.332031 27.773438 L 133.332031 172.214844 L 66.667969 172.214844 Z M 66.667969 27.773438 "/>
<path style=" stroke:none;fill-rule:nonzero;fill:rgb(100%,100%,100%);fill-opacity:1;" d="M 122.488281 132.128906 C 122.3125 132.570312 121.707031 132.964844 121.226562 132.777344 C 120.75 132.589844 120.582031 131.882812 120.761719 131.4375 C 120.9375 130.996094 122.300781 129.667969 122.445312 129.722656 C 122.589844 129.777344 122.667969 131.683594 122.488281 132.128906 Z M 122.828125 132.542969 C 122.355469 132.621094 121.832031 133.121094 121.917969 133.632812 C 122 134.140625 122.644531 134.460938 123.121094 134.382812 C 123.59375 134.304688 125.1875 133.265625 125.167969 133.117188 C 125.140625 132.964844 123.300781 132.472656 122.828125 132.542969 Z M 124.785156 130.316406 C 124.617188 130.726562 124.054688 131.09375 123.617188 130.921875 C 123.179688 130.75 123.015625 130.09375 123.183594 129.679688 C 123.351562 129.261719 124.609375 128.035156 124.746094 128.082031 C 124.878906 128.132812 124.945312 129.90625 124.785156 130.316406 Z M 125.09375 130.707031 C 124.65625 130.777344 124.171875 131.246094 124.25 131.714844 C 124.328125 132.1875 124.929688 132.484375 125.367188 132.410156 C 125.804688 132.339844 127.285156 131.378906 127.261719 131.234375 C 127.238281 131.089844 125.535156 130.640625 125.09375 130.707031 Z M 114.921875 133.695312 C 114.816406 134.261719 114.199219 134.871094 113.589844 134.761719 C 112.984375 134.648438 112.617188 133.859375 112.714844 133.292969 C 112.820312 132.726562 114.109375 130.839844 114.292969 130.871094 C 114.476562 130.90625 115.023438 133.128906 114.921875 133.695312 Z M 115.417969 134.105469 C 114.878906 134.304688 114.382812 135.027344 114.601562 135.605469 C 114.816406 136.183594 115.65625 136.40625 116.199219 136.207031 C 116.738281 136.003906 118.371094 134.398438 118.304688 134.222656 C 118.238281 134.050781 115.957031 133.90625 115.417969 134.105469 Z M 116.890625 131.421875 C 116.804688 131.894531 116.289062 132.398438 115.785156 132.3125 C 115.277344 132.222656 114.972656 131.5625 115.0625 131.089844 C 115.144531 130.617188 116.222656 129.042969 116.371094 129.070312 C 116.523438 129.101562 116.976562 130.949219 116.890625 131.421875 Z M 117.300781 131.765625 C 116.851562 131.933594 116.445312 132.535156 116.621094 133.011719 C 116.800781 133.488281 117.5 133.679688 117.949219 133.511719 C 118.398438 133.34375 119.753906 132.003906 119.699219 131.859375 C 119.648438 131.722656 117.75 131.601562 117.300781 131.765625 Z M 118.777344 129.199219 C 118.699219 129.640625 118.222656 130.105469 117.75 130.023438 C 117.285156 129.9375 117 129.328125 117.078125 128.890625 C 117.15625 128.449219 118.15625 126.996094 118.292969 127.015625 C 118.433594 127.042969 118.855469 128.761719 118.777344 129.199219 Z M 119.160156 129.515625 C 118.746094 129.671875 118.367188 130.226562 118.535156 130.671875 C 118.699219 131.117188 119.351562 131.289062 119.765625 131.132812 C 120.183594 130.976562 121.4375 129.738281 121.394531 129.605469 C 121.351562 129.472656 119.578125 129.359375 119.160156 129.515625 Z M 120.410156 127.285156 C 120.339844 127.679688 119.90625 128.105469 119.484375 128.027344 C 119.0625 127.949219 118.804688 127.398438 118.878906 127.003906 C 118.949219 126.609375 119.851562 125.289062 119.976562 125.316406 C 120.101562 125.332031 120.484375 126.890625 120.410156 127.285156 Z M 120.753906 127.570312 C 120.378906 127.710938 120.035156 128.210938 120.1875 128.617188 C 120.339844 129.023438 120.929688 129.171875 121.304688 129.035156 C 121.683594 128.894531 122.820312 127.773438 122.777344 127.648438 C 122.734375 127.527344 121.132812 127.433594 120.753906 127.570312 Z M 120.214844 137.320312 C 119.792969 137.710938 118.933594 137.828125 118.511719 137.371094 C 118.089844 136.917969 118.273438 136.066406 118.695312 135.679688 C 119.117188 135.289062 121.289062 134.554688 121.410156 134.6875 C 121.535156 134.820312 120.640625 136.933594 120.214844 137.320312 Z M 120.359375 137.949219 C 119.804688 137.789062 118.984375 138.066406 118.8125 138.65625 C 118.632812 139.25 119.179688 139.929688 119.726562 140.09375 C 120.285156 140.253906 122.550781 139.957031 122.601562 139.777344 C 122.65625 139.605469 120.917969 138.117188 120.359375 137.949219 Z M 123.15625 136.695312 C 122.804688 137.023438 122.089844 137.117188 121.738281 136.738281 C 121.390625 136.359375 121.539062 135.65625 121.894531 135.328125 C 122.246094 135 124.050781 134.394531 124.15625 134.503906 C 124.253906 134.617188 123.503906 136.367188 123.15625 136.695312 Z M 123.277344 137.214844 C 122.816406 137.078125 122.132812 137.3125 121.988281 137.804688 C 121.84375 138.300781 122.289062 138.867188 122.75 139 C 123.210938 139.140625 125.09375 138.882812 125.140625 138.738281 C 125.183594 138.589844 123.734375 137.351562 123.277344 137.214844 Z M 126 136.050781 C 125.671875 136.351562 125.011719 136.4375 124.683594 136.089844 C 124.359375 135.738281 124.5 135.082031 124.828125 134.785156 C 125.15625 134.484375 126.828125 133.917969 126.921875 134.023438 C 127.023438 134.121094 126.328125 135.746094 126 136.050781 Z M 126.117188 136.535156 C 125.6875 136.40625 125.054688 136.621094 124.917969 137.078125 C 124.785156 137.535156 125.199219 138.0625 125.621094 138.1875 C 126.050781 138.316406 127.800781 138.082031 127.839844 137.945312 C 127.878906 137.804688 126.539062 136.660156 126.117188 136.535156 Z M 128.457031 135.5 C 128.160156 135.773438 127.5625 135.855469 127.265625 135.539062 C 126.972656 135.222656 127.101562 134.628906 127.394531 134.355469 C 127.6875 134.082031 129.207031 133.570312 129.289062 133.667969 C 129.378906 133.761719 128.75 135.226562 128.457031 135.5 Z M 128.5625 135.9375 C 128.179688 135.820312 127.601562 136.015625 127.476562 136.433594 C 127.355469 136.84375 127.734375 137.320312 128.117188 137.4375 C 128.5 137.554688 130.082031 137.34375 130.121094 137.214844 C 130.15625 137.09375 128.945312 136.054688 128.5625 135.9375 Z M 130.464844 120.542969 C 130.539062 121.117188 130.128906 121.882812 129.511719 121.957031 C 128.898438 122.027344 128.316406 121.382812 128.246094 120.8125 C 128.171875 120.238281 128.851562 118.050781 129.035156 118.027344 C 129.214844 118.003906 130.394531 119.972656 130.464844 120.542969 Z M 131.0625 120.789062 C 130.605469 121.140625 130.351562 121.972656 130.726562 122.460938 C 131.105469 122.949219 131.972656 122.910156 132.433594 122.5625 C 132.890625 122.210938 133.972656 120.1875 133.859375 120.042969 C 133.738281 119.898438 131.515625 120.4375 131.0625 120.789062 Z M 131.671875 117.789062 C 131.726562 118.265625 131.390625 118.898438 130.878906 118.964844 C 130.367188 119.027344 129.882812 118.496094 129.820312 118.015625 C 129.765625 117.539062 130.328125 115.722656 130.476562 115.699219 C 130.632812 115.683594 131.617188 117.3125 131.671875 117.789062 Z M 132.167969 117.996094 C 131.789062 118.289062 131.570312 118.976562 131.890625 119.382812 C 132.207031 119.789062 132.929688 119.753906 133.304688 119.464844 C 133.683594 119.171875 134.582031 117.496094 134.488281 117.371094 C 134.398438 117.253906 132.550781 117.707031 132.167969 117.996094 Z M 132.816406 115.105469 C 132.871094 115.542969 132.554688 116.140625 132.078125 116.195312 C 131.601562 116.25 131.15625 115.753906 131.101562 115.3125 C 131.042969 114.871094 131.566406 113.183594 131.707031 113.167969 C 131.851562 113.148438 132.761719 114.660156 132.816406 115.105469 Z M 133.277344 115.292969 C 132.929688 115.566406 132.726562 116.207031 133.023438 116.582031 C 133.316406 116.960938 133.984375 116.933594 134.332031 116.660156 C 134.683594 116.390625 135.523438 114.832031 135.433594 114.722656 C 135.34375 114.609375 133.628906 115.023438 133.277344 115.292969 Z M 133.804688 112.792969 C 133.855469 113.195312 133.566406 113.726562 133.140625 113.785156 C 132.710938 113.832031 132.304688 113.382812 132.253906 112.984375 C 132.207031 112.582031 132.679688 111.054688 132.804688 111.042969 C 132.933594 111.023438 133.761719 112.394531 133.804688 112.792969 Z M 134.222656 112.964844 C 133.90625 113.210938 133.726562 113.792969 133.988281 114.132812 C 134.25 114.472656 134.859375 114.449219 135.179688 114.199219 C 135.496094 113.957031 136.25 112.542969 136.171875 112.445312 C 136.09375 112.34375 134.542969 112.714844 134.222656 112.964844 Z M 136.601562 122.4375 C 136.3125 122.9375 135.523438 123.304688 134.988281 122.996094 C 134.457031 122.683594 134.378906 121.816406 134.660156 121.320312 C 134.949219 120.820312 136.804688 119.476562 136.960938 119.570312 C 137.117188 119.667969 136.890625 121.9375 136.601562 122.4375 Z M 136.921875 122.996094 C 136.34375 123 135.640625 123.511719 135.648438 124.128906 C 135.660156 124.746094 136.378906 125.238281 136.949219 125.226562 C 137.527344 125.222656 139.605469 124.261719 139.601562 124.070312 C 139.605469 123.894531 137.5 122.988281 136.921875 122.996094 Z M 139.214844 120.964844 C 138.976562 121.382812 138.320312 121.683594 137.878906 121.429688 C 137.433594 121.171875 137.367188 120.449219 137.605469 120.035156 C 137.84375 119.617188 139.390625 118.5 139.523438 118.578125 C 139.65625 118.65625 139.460938 120.550781 139.214844 120.964844 Z M 139.488281 121.429688 C 139.011719 121.433594 138.421875 121.859375 138.429688 122.371094 C 138.433594 122.882812 139.035156 123.292969 139.511719 123.289062 C 139.988281 123.285156 141.714844 122.484375 141.714844 122.328125 C 141.714844 122.179688 139.964844 121.421875 139.488281 121.429688 Z M 141.746094 119.503906 C 141.523438 119.890625 140.910156 120.171875 140.5 119.933594 C 140.089844 119.695312 140.027344 119.027344 140.25 118.644531 C 140.472656 118.261719 141.898438 117.222656 142.027344 117.292969 C 142.15625 117.367188 141.964844 119.121094 141.746094 119.503906 Z M 142 119.933594 C 141.554688 119.9375 141.011719 120.332031 141.015625 120.8125 C 141.023438 121.289062 141.578125 121.667969 142.023438 121.660156 C 142.464844 121.65625 144.066406 120.910156 144.066406 120.773438 C 144.066406 120.632812 142.445312 119.929688 142 119.933594 Z M 143.929688 118.253906 C 143.726562 118.605469 143.179688 118.859375 142.800781 118.644531 C 142.429688 118.429688 142.371094 117.820312 142.570312 117.476562 C 142.773438 117.132812 144.066406 116.195312 144.179688 116.253906 C 144.292969 116.316406 144.128906 117.90625 143.929688 118.253906 Z M 144.15625 118.644531 C 143.753906 118.648438 143.261719 119.003906 143.265625 119.4375 C 143.273438 119.871094 143.773438 120.210938 144.179688 120.207031 C 144.582031 120.199219 146.027344 119.527344 146.027344 119.398438 C 146.027344 119.273438 144.5625 118.640625 144.15625 118.644531 Z M 138.316406 115.5625 C 138.304688 116.140625 137.785156 116.839844 137.167969 116.820312 C 136.550781 116.804688 136.066406 116.082031 136.078125 115.511719 C 136.089844 114.9375 137.070312 112.867188 137.253906 112.871094 C 137.445312 112.871094 138.332031 114.984375 138.316406 115.5625 Z M 138.871094 115.894531 C 138.371094 116.179688 137.996094 116.960938 138.300781 117.5 C 138.605469 118.039062 139.464844 118.128906 139.972656 117.84375 C 140.476562 117.5625 141.832031 115.722656 141.746094 115.5625 C 141.65625 115.398438 139.371094 115.609375 138.871094 115.894531 Z M 139.910156 113.011719 C 139.898438 113.488281 139.472656 114.070312 138.957031 114.0625 C 138.4375 114.050781 138.039062 113.449219 138.050781 112.964844 C 138.0625 112.488281 138.878906 110.765625 139.035156 110.773438 C 139.183594 110.777344 139.921875 112.535156 139.910156 113.011719 Z M 140.367188 113.289062 C 139.949219 113.523438 139.640625 114.179688 139.890625 114.628906 C 140.140625 115.078125 140.859375 115.148438 141.277344 114.910156 C 141.695312 114.679688 142.828125 113.144531 142.75 113.011719 C 142.683594 112.871094 140.789062 113.050781 140.367188 113.289062 Z M 141.429688 110.515625 C 141.417969 110.960938 141.015625 111.5 140.542969 111.488281 C 140.066406 111.476562 139.695312 110.921875 139.707031 110.476562 C 139.714844 110.035156 140.472656 108.4375 140.617188 108.4375 C 140.753906 108.445312 141.4375 110.070312 141.429688 110.515625 Z M 141.855469 110.773438 C 141.464844 110.988281 141.179688 111.59375 141.417969 112.011719 C 141.65625 112.429688 142.316406 112.496094 142.707031 112.273438 C 143.09375 112.050781 144.144531 110.632812 144.070312 110.511719 C 144 110.390625 142.238281 110.554688 141.855469 110.773438 Z M 137.160156 101.285156 C 137.390625 101.816406 137.199219 102.667969 136.632812 102.90625 C 136.066406 103.144531 135.328125 102.6875 135.101562 102.15625 C 134.871094 101.621094 134.917969 99.332031 135.089844 99.261719 C 135.261719 99.195312 136.9375 100.753906 137.160156 101.285156 Z M 137.800781 101.359375 C 137.460938 101.828125 137.445312 102.695312 137.9375 103.0625 C 138.4375 103.429688 139.261719 103.148438 139.601562 102.683594 C 139.9375 102.214844 140.421875 99.984375 140.277344 99.871094 C 140.132812 99.761719 138.144531 100.894531 137.800781 101.359375 Z M 137.5625 98.304688 C 137.75 98.746094 137.59375 99.457031 137.121094 99.65625 C 136.648438 99.855469 136.035156 99.472656 135.851562 99.035156 C 135.667969 98.59375 135.699219 96.6875 135.839844 96.628906 C 135.984375 96.566406 137.378906 97.867188 137.5625 98.304688 Z M 138.09375 98.367188 C 137.8125 98.753906 137.792969 99.476562 138.210938 99.785156 C 138.628906 100.089844 139.3125 99.855469 139.59375 99.472656 C 139.878906 99.082031 140.277344 97.222656 140.15625 97.132812 C 140.035156 97.042969 138.378906 97.984375 138.09375 98.367188 Z M 137.921875 95.410156 C 138.09375 95.820312 137.957031 96.476562 137.515625 96.660156 C 137.078125 96.84375 136.503906 96.496094 136.332031 96.082031 C 136.160156 95.671875 136.195312 93.910156 136.328125 93.855469 C 136.457031 93.800781 137.75 95 137.921875 95.410156 Z M 138.417969 95.464844 C 138.15625 95.828125 138.140625 96.496094 138.523438 96.777344 C 138.90625 97.0625 139.542969 96.84375 139.804688 96.488281 C 140.066406 96.128906 140.4375 94.40625 140.328125 94.320312 C 140.210938 94.234375 138.679688 95.109375 138.417969 95.464844 Z M 138.234375 92.910156 C 138.390625 93.285156 138.261719 93.871094 137.867188 94.042969 C 137.472656 94.210938 136.957031 93.894531 136.792969 93.523438 C 136.640625 93.148438 136.667969 91.554688 136.789062 91.503906 C 136.910156 91.457031 138.078125 92.542969 138.234375 92.910156 Z M 138.683594 92.964844 C 138.445312 93.289062 138.433594 93.898438 138.785156 94.15625 C 139.132812 94.410156 139.707031 94.214844 139.945312 93.894531 C 140.183594 93.570312 140.523438 92.011719 140.417969 91.933594 C 140.3125 91.851562 138.921875 92.640625 138.683594 92.964844 Z M 143.578125 101.417969 C 143.4375 101.976562 142.777344 102.542969 142.183594 102.394531 C 141.589844 102.246094 141.265625 101.433594 141.410156 100.871094 C 141.550781 100.3125 142.960938 98.511719 143.140625 98.554688 C 143.316406 98.601562 143.714844 100.855469 143.578125 101.417969 Z M 144.042969 101.859375 C 143.496094 102.027344 142.957031 102.710938 143.132812 103.304688 C 143.3125 103.898438 144.140625 104.171875 144.6875 104.003906 C 145.238281 103.839844 146.972656 102.339844 146.917969 102.167969 C 146.871094 101.984375 144.601562 101.695312 144.042969 101.859375 Z M 145.695312 99.277344 C 145.578125 99.746094 145.035156 100.214844 144.535156 100.09375 C 144.035156 99.972656 143.773438 99.292969 143.890625 98.828125 C 144.003906 98.359375 145.179688 96.859375 145.328125 96.898438 C 145.472656 96.9375 145.804688 98.8125 145.695312 99.277344 Z M 146.078125 99.644531 C 145.617188 99.785156 145.171875 100.351562 145.320312 100.84375 C 145.472656 101.339844 146.15625 101.566406 146.617188 101.429688 C 147.078125 101.289062 148.515625 100.042969 148.472656 99.894531 C 148.429688 99.75 146.539062 99.511719 146.078125 99.644531 Z M 147.714844 97.179688 C 147.609375 97.609375 147.101562 98.050781 146.640625 97.933594 C 146.179688 97.816406 145.933594 97.195312 146.039062 96.761719 C 146.144531 96.328125 147.234375 94.9375 147.371094 94.972656 C 147.511719 95.003906 147.828125 96.746094 147.714844 97.179688 Z M 148.078125 97.523438 C 147.648438 97.648438 147.238281 98.179688 147.378906 98.632812 C 147.515625 99.089844 148.148438 99.300781 148.578125 99.171875 C 149.003906 99.042969 150.339844 97.890625 150.300781 97.75 C 150.253906 97.617188 148.503906 97.390625 148.078125 97.523438 Z M 149.472656 95.371094 C 149.371094 95.761719 148.917969 96.160156 148.5 96.054688 C 148.082031 95.949219 147.859375 95.382812 147.960938 94.996094 C 148.0625 94.605469 149.042969 93.34375 149.167969 93.378906 C 149.289062 93.40625 149.566406 94.984375 149.472656 95.371094 Z M 149.800781 95.683594 C 149.417969 95.800781 149.039062 96.277344 149.167969 96.6875 C 149.289062 97.101562 149.867188 97.292969 150.25 97.179688 C 150.632812 97.0625 151.84375 96.015625 151.804688 95.894531 C 151.765625 95.765625 150.183594 95.566406 149.800781 95.683594 Z M 143.332031 94.332031 C 143.476562 94.890625 143.179688 95.707031 142.578125 95.859375 C 141.976562 96.015625 141.316406 95.457031 141.167969 94.898438 C 141.023438 94.34375 141.394531 92.082031 141.570312 92.039062 C 141.75 91.996094 143.1875 93.773438 143.332031 94.332031 Z M 143.957031 94.496094 C 143.550781 94.90625 143.410156 95.761719 143.851562 96.195312 C 144.289062 96.628906 145.144531 96.472656 145.550781 96.0625 C 145.957031 95.648438 146.753906 93.503906 146.621094 93.378906 C 146.496094 93.25 144.359375 94.089844 143.957031 94.496094 Z M 144.160156 91.4375 C 144.285156 91.90625 144.027344 92.578125 143.535156 92.710938 C 143.039062 92.839844 142.484375 92.378906 142.359375 91.910156 C 142.238281 91.445312 142.550781 89.566406 142.699219 89.527344 C 142.84375 89.496094 144.039062 90.976562 144.160156 91.4375 Z M 144.679688 91.578125 C 144.339844 91.921875 144.222656 92.632812 144.589844 92.996094 C 144.957031 93.355469 145.667969 93.226562 146.003906 92.882812 C 146.34375 92.539062 147.003906 90.753906 146.898438 90.648438 C 146.792969 90.542969 145.015625 91.238281 144.679688 91.578125 Z M 144.933594 88.628906 C 145.042969 89.054688 144.8125 89.6875 144.351562 89.804688 C 143.890625 89.929688 143.378906 89.496094 143.261719 89.0625 C 143.148438 88.632812 143.4375 86.890625 143.570312 86.851562 C 143.710938 86.816406 144.816406 88.195312 144.933594 88.628906 Z M 145.410156 88.753906 C 145.101562 89.070312 144.988281 89.734375 145.328125 90.066406 C 145.667969 90.398438 146.328125 90.285156 146.640625 89.964844 C 146.949219 89.648438 147.566406 87.996094 147.464844 87.894531 C 147.367188 87.792969 145.722656 88.4375 145.410156 88.753906 Z M 137.988281 82.417969 C 138.488281 82.609375 138.929688 83.289062 138.714844 83.820312 C 138.503906 84.355469 137.722656 84.542969 137.226562 84.351562 C 136.726562 84.15625 135.246094 82.640625 135.3125 82.476562 C 135.371094 82.316406 137.488281 82.222656 137.988281 82.417969 Z M 138.457031 82.039062 C 138.539062 82.566406 139.105469 83.144531 139.671875 83.050781 C 140.238281 82.957031 140.589844 82.234375 140.503906 81.707031 C 140.421875 81.179688 139.253906 79.40625 139.082031 79.433594 C 138.910156 79.460938 138.367188 81.511719 138.457031 82.039062 Z M 136.277344 80.214844 C 136.6875 80.378906 137.0625 80.9375 136.882812 81.382812 C 136.710938 81.828125 136.054688 81.984375 135.644531 81.820312 C 135.234375 81.660156 133.996094 80.398438 134.050781 80.265625 C 134.101562 80.132812 135.867188 80.050781 136.277344 80.214844 Z M 136.667969 79.90625 C 136.738281 80.34375 137.207031 80.820312 137.679688 80.746094 C 138.148438 80.667969 138.4375 80.066406 138.371094 79.628906 C 138.304688 79.1875 137.332031 77.714844 137.1875 77.738281 C 137.042969 77.761719 136.59375 79.464844 136.667969 79.90625 Z M 134.59375 78.09375 C 134.976562 78.246094 135.320312 78.765625 135.15625 79.179688 C 134.988281 79.589844 134.390625 79.734375 134.003906 79.582031 C 133.621094 79.433594 132.476562 78.261719 132.527344 78.140625 C 132.578125 78.015625 134.210938 77.945312 134.59375 78.09375 Z M 134.957031 77.804688 C 135.023438 78.210938 135.457031 78.65625 135.894531 78.582031 C 136.332031 78.511719 136.601562 77.957031 136.539062 77.542969 C 136.472656 77.140625 135.570312 75.773438 135.445312 75.789062 C 135.304688 75.816406 134.890625 77.398438 134.957031 77.804688 Z M 133.148438 76.265625 C 133.496094 76.40625 133.804688 76.871094 133.660156 77.246094 C 133.515625 77.617188 132.964844 77.75 132.621094 77.609375 C 132.277344 77.472656 131.238281 76.417969 131.285156 76.304688 C 131.328125 76.195312 132.800781 76.128906 133.148438 76.265625 Z M 133.472656 76.003906 C 133.535156 76.371094 133.929688 76.777344 134.320312 76.710938 C 134.714844 76.644531 134.960938 76.140625 134.90625 75.773438 C 134.84375 75.40625 134.035156 74.167969 133.917969 74.183594 C 133.792969 74.207031 133.417969 75.640625 133.472656 76.003906 Z M 142.246094 78.253906 C 142.523438 78.710938 142.472656 79.515625 141.984375 79.816406 C 141.496094 80.117188 140.753906 79.792969 140.476562 79.339844 C 140.199219 78.882812 139.921875 76.777344 140.070312 76.6875 C 140.222656 76.601562 141.960938 77.800781 142.246094 78.253906 Z M 142.839844 78.238281 C 142.589844 78.710938 142.695312 79.511719 143.199219 79.777344 C 143.707031 80.042969 144.421875 79.679688 144.671875 79.207031 C 144.921875 78.734375 145.054688 76.617188 144.90625 76.535156 C 144.753906 76.449219 143.089844 77.761719 142.839844 78.238281 Z M 142.199219 75.472656 C 142.433594 75.851562 142.390625 76.523438 141.984375 76.773438 C 141.578125 77.023438 140.960938 76.753906 140.726562 76.378906 C 140.496094 76 140.265625 74.25 140.390625 74.171875 C 140.511719 74.09375 141.964844 75.089844 142.199219 75.472656 Z M 142.699219 75.457031 C 142.496094 75.851562 142.578125 76.515625 143 76.734375 C 143.421875 76.957031 144.015625 76.648438 144.226562 76.253906 C 144.433594 75.859375 144.542969 74.101562 144.421875 74.035156 C 144.292969 73.964844 142.90625 75.0625 142.699219 75.457031 Z M 142.128906 72.765625 C 142.34375 73.117188 142.304688 73.738281 141.929688 73.972656 C 141.550781 74.207031 140.976562 73.957031 140.765625 73.605469 C 140.550781 73.253906 140.339844 71.632812 140.449219 71.5625 C 140.5625 71.488281 141.910156 72.410156 142.128906 72.765625 Z M 142.589844 72.75 C 142.394531 73.117188 142.476562 73.734375 142.867188 73.9375 C 143.253906 74.144531 143.8125 73.859375 144.003906 73.496094 C 144.199219 73.128906 144.300781 71.496094 144.183594 71.433594 C 144.066406 71.371094 142.785156 72.382812 142.589844 72.75 Z M 142.070312 70.433594 C 142.265625 70.75 142.234375 71.3125 141.890625 71.523438 C 141.550781 71.734375 141.035156 71.511719 140.839844 71.1875 C 140.644531 70.871094 140.449219 69.398438 140.554688 69.339844 C 140.65625 69.277344 141.878906 70.117188 142.070312 70.433594 Z M 142.488281 70.421875 C 142.316406 70.75 142.390625 71.3125 142.746094 71.496094 C 143.101562 71.679688 143.601562 71.421875 143.773438 71.09375 C 143.945312 70.765625 144.039062 69.289062 143.933594 69.234375 C 143.828125 69.179688 142.667969 70.089844 142.488281 70.421875 Z M 137.398438 73.816406 C 137.867188 74.082031 138.207031 74.8125 137.921875 75.3125 C 137.640625 75.804688 136.832031 75.882812 136.371094 75.617188 C 135.90625 75.351562 134.65625 73.640625 134.746094 73.488281 C 134.820312 73.339844 136.933594 73.550781 137.398438 73.816406 Z M 137.910156 73.511719 C 137.921875 74.042969 138.394531 74.695312 138.964844 74.6875 C 139.539062 74.679688 139.996094 74.011719 139.984375 73.476562 C 139.972656 72.945312 139.078125 71.023438 138.90625 71.023438 C 138.738281 71.027344 137.90625 72.976562 137.910156 73.511719 Z M 136.023438 71.394531 C 136.40625 71.617188 136.695312 72.222656 136.457031 72.640625 C 136.222656 73.050781 135.554688 73.109375 135.167969 72.890625 C 134.785156 72.667969 133.738281 71.246094 133.8125 71.117188 C 133.882812 70.996094 135.640625 71.171875 136.023438 71.394531 Z M 136.449219 71.140625 C 136.457031 71.582031 136.851562 72.128906 137.328125 72.117188 C 137.804688 72.109375 138.183594 71.554688 138.171875 71.109375 C 138.167969 70.667969 137.417969 69.066406 137.277344 69.070312 C 137.140625 69.070312 136.445312 70.695312 136.449219 71.140625 Z M 134.660156 69.054688 C 135.015625 69.261719 135.285156 69.820312 135.0625 70.207031 C 134.839844 70.589844 134.222656 70.648438 133.867188 70.445312 C 133.511719 70.238281 132.542969 68.917969 132.609375 68.800781 C 132.679688 68.683594 134.304688 68.851562 134.660156 69.054688 Z M 135.0625 68.816406 C 135.066406 69.226562 135.433594 69.734375 135.878906 69.722656 C 136.320312 69.714844 136.667969 69.199219 136.660156 68.789062 C 136.65625 68.378906 135.960938 66.894531 135.828125 66.894531 C 135.695312 66.894531 135.054688 68.40625 135.0625 68.816406 Z M 135.0625 68.816406 "/>
<path style=" stroke:none;fill-rule:nonzero;fill:rgb(100%,100%,100%);fill-opacity:1;" d="M 141.445312 128.421875 C 141.445312 128.421875 137.464844 128.378906 134.066406 126.082031 C 130.667969 123.789062 123.707031 119.566406 118.132812 125.039062 C 118.132812 125.039062 122.023438 124.382812 124.945312 126.8125 C 127.867188 129.246094 132.394531 132.09375 136.207031 131.777344 C 140.015625 131.464844 141.445312 128.421875 141.445312 128.421875 Z M 141.445312 128.421875 "/>
<path style=" stroke:none;fill-rule:nonzero;fill:rgb(100%,35.686275%,34.117647%);fill-opacity:1;" d="M 72.292969 67.710938 L 67.382812 62.800781 C 76.167969 54.015625 87.839844 49.183594 100.253906 49.183594 C 112.671875 49.183594 124.34375 54.023438 133.128906 62.800781 L 128.210938 67.710938 C 120.746094 60.246094 110.816406 56.128906 100.253906 56.128906 C 89.695312 56.128906 79.761719 60.246094 72.292969 67.710938 Z M 72.292969 67.710938 "/>
<path style=" stroke:none;fill-rule:nonzero;fill:rgb(100%,100%,100%);fill-opacity:1;" d="M 80.996094 121.117188 L 80.949219 117.605469 L 118.667969 117.605469 L 118.816406 121.195312 Z M 80.996094 121.117188 "/>
<path style=" stroke:none;fill-rule:nonzero;fill:rgb(100%,100%,100%);fill-opacity:1;" d="M 118.816406 86.382812 L 115.648438 85.988281 L 115.648438 78.570312 C 115.648438 78.40625 115.59375 78.253906 115.554688 78.101562 L 115.707031 78.101562 C 116.1875 78.101562 116.589844 77.707031 116.589844 77.214844 C 116.589844 76.734375 116.195312 76.332031 115.707031 76.332031 L 111.777344 76.332031 C 111.292969 76.332031 110.894531 76.726562 110.894531 77.214844 C 110.894531 77.699219 111.289062 78.101562 111.777344 78.101562 L 111.929688 78.101562 C 111.890625 78.253906 111.832031 78.40625 111.832031 78.570312 L 111.832031 85.515625 L 110.382812 85.339844 L 107.503906 82.246094 C 108.078125 81.382812 108.433594 80.421875 108.433594 79.382812 C 108.433594 75.9375 104.871094 73.148438 100.472656 73.148438 C 96.070312 73.148438 92.511719 75.9375 92.511719 79.382812 C 92.511719 80.410156 92.859375 81.371094 93.421875 82.226562 L 90.527344 85.34375 L 89.070312 85.523438 L 89.070312 78.578125 C 89.070312 78.410156 89.015625 78.261719 88.976562 78.105469 L 89.128906 78.105469 C 89.609375 78.105469 90.011719 77.710938 90.011719 77.222656 C 90.011719 76.738281 89.617188 76.339844 89.128906 76.339844 L 85.207031 76.339844 C 84.722656 76.339844 84.320312 76.734375 84.320312 77.222656 C 84.320312 77.707031 84.714844 78.105469 85.207031 78.105469 L 85.355469 78.105469 C 85.316406 78.261719 85.261719 78.410156 85.261719 78.578125 L 85.261719 85.996094 L 82.101562 86.382812 L 84.722656 90.3125 L 85.132812 90.3125 L 85.132812 95.746094 L 89.195312 95.746094 L 89.195312 90.3125 L 111.710938 90.3125 L 111.710938 95.746094 L 115.773438 95.746094 L 115.773438 90.3125 L 116.195312 90.3125 Z M 118.816406 86.382812 "/>
<path style=" stroke:none;fill-rule:nonzero;fill:rgb(100%,100%,100%);fill-opacity:1;" d="M 113.738281 75.6875 C 115.238281 75.6875 116.449219 75.042969 116.449219 74.25 C 116.449219 73.816406 116.066406 73.4375 115.488281 73.171875 L 113.734375 70.65625 L 111.984375 73.171875 C 111.40625 73.433594 111.023438 73.8125 111.023438 74.25 C 111.027344 75.042969 112.246094 75.6875 113.738281 75.6875 Z M 100.144531 72.394531 C 101.699219 72.394531 102.960938 71.617188 102.960938 70.660156 C 102.960938 70.148438 102.589844 69.707031 102.023438 69.390625 L 100.144531 66.6875 L 98.265625 69.390625 C 97.699219 69.707031 97.328125 70.15625 97.328125 70.660156 C 97.328125 71.617188 98.589844 72.394531 100.144531 72.394531 Z M 87.160156 75.6875 C 88.660156 75.6875 89.871094 75.042969 89.871094 74.25 C 89.871094 73.816406 89.488281 73.4375 88.910156 73.171875 L 87.160156 70.65625 L 85.410156 73.171875 C 84.832031 73.433594 84.449219 73.8125 84.449219 74.25 C 84.449219 75.042969 85.660156 75.6875 87.160156 75.6875 Z M 87.160156 75.6875 "/>
<path style=" stroke:none;fill-rule:nonzero;fill:rgb(100%,100%,100%);fill-opacity:1;" d="M 118.445312 115.910156 L 115.773438 113.023438 L 115.773438 107.960938 L 111.710938 107.960938 L 111.710938 112.816406 L 110.078125 112.816406 L 99.609375 98.316406 L 91.621094 97.890625 L 91.214844 110.25 L 101.710938 110.355469 L 106.644531 112.816406 L 106.644531 115.910156 Z M 118.445312 115.910156 "/>
<path style=" stroke:none;fill-rule:nonzero;fill:rgb(100%,100%,100%);fill-opacity:1;" d="M 89.1875 107.960938 L 85.132812 107.960938 L 85.132812 113.261719 L 82.679688 115.910156 L 94.472656 115.910156 L 94.472656 112.816406 L 89.1875 112.816406 Z M 78.238281 87.988281 L 76.996094 89.078125 C 76.996094 89.078125 71.609375 93 73.398438 96.789062 C 72.398438 98.183594 70.132812 100.972656 71.871094 103.804688 C 73.617188 106.640625 75.273438 109.167969 74.183594 111.820312 C 77.449219 110.121094 78.933594 106.984375 77.929688 103.457031 C 77.089844 100.496094 81.246094 98.226562 82.617188 97.566406 L 85.128906 101.355469 L 85.128906 104.84375 L 89.1875 104.84375 L 89.1875 98.855469 L 85.671875 98.855469 Z M 127.5 96.792969 C 129.289062 93.003906 123.90625 89.082031 123.90625 89.082031 L 122.660156 87.996094 L 115.226562 98.859375 L 111.710938 98.859375 L 111.710938 104.851562 L 115.773438 104.851562 L 115.773438 101.359375 L 118.285156 97.570312 C 119.648438 98.226562 123.8125 100.496094 122.972656 103.460938 C 121.972656 106.988281 123.449219 110.128906 126.714844 111.828125 C 125.628906 109.171875 127.285156 106.644531 129.027344 103.8125 C 130.765625 100.976562 128.5 98.1875 127.5 96.792969 Z M 127.5 96.792969 "/>
<path style=" stroke:none;fill-rule:nonzero;fill:rgb(100%,100%,100%);fill-opacity:1;" d="M 120.398438 144.917969 C 120.398438 145.984375 119.535156 146.851562 118.464844 146.851562 C 117.398438 146.851562 111.304688 145.984375 111.304688 144.917969 C 111.304688 143.851562 117.398438 142.984375 118.464844 142.984375 C 119.539062 142.984375 120.398438 143.851562 120.398438 144.917969 Z M 120.398438 144.917969 "/>
<path style=" stroke:none;fill-rule:nonzero;fill:rgb(100%,100%,100%);fill-opacity:1;" d="M 127.34375 145.0625 C 132.789062 144.042969 133.003906 141.101562 133.003906 141.101562 C 133.003906 141.101562 130.042969 142.984375 126.5625 142.289062 C 123.078125 141.59375 119.933594 141.707031 119.933594 141.707031 C 119.933594 141.707031 123.25 145.382812 120.460938 147.210938 C 119.226562 148.023438 115.8125 147.679688 114.320312 147.351562 C 112.832031 147.023438 109.628906 146.429688 108.929688 146.429688 C 107.859375 146.429688 106.996094 147.292969 106.996094 148.359375 C 106.996094 149.429688 107.859375 150.292969 108.929688 150.292969 C 109.640625 150.292969 112.804688 149.707031 114.457031 149.328125 C 116.105469 148.949219 117.261719 148.773438 118.5 148.515625 C 119.984375 148.210938 123.078125 148.605469 126.957031 148.910156 C 130.832031 149.214844 133.667969 147.429688 134.972656 145.859375 C 132.222656 146.734375 128.605469 145.6875 127.34375 145.0625 Z M 153.488281 101.167969 C 153.707031 100.640625 148.734375 104.351562 145.339844 103.933594 C 141.945312 103.515625 135.421875 102.589844 134.089844 105.121094 C 132.75 107.648438 131.554688 110.273438 131.554688 110.273438 C 131.554688 110.273438 133.816406 108.957031 136.746094 108.9375 C 139.683594 108.921875 145.855469 108.640625 148.285156 107.828125 C 150.722656 107.011719 152.621094 103.25 153.488281 101.167969 Z M 148.792969 84.753906 C 148.734375 83.648438 146.535156 84.117188 146.078125 83.199219 C 145.628906 82.285156 147.3125 80.332031 146.378906 79.671875 C 145.449219 79.011719 140.714844 83.25 138.082031 86.089844 C 135.449219 88.933594 134.714844 93.472656 135.566406 94.8125 C 136.40625 96.148438 135.867188 94.929688 135.867188 94.929688 C 135.867188 94.929688 137.535156 91.621094 140.207031 90.273438 C 142.878906 88.929688 148.792969 84.753906 148.792969 84.753906 Z M 77.117188 132.128906 C 77.292969 132.570312 77.898438 132.964844 78.378906 132.777344 C 78.855469 132.589844 79.023438 131.882812 78.84375 131.4375 C 78.667969 130.996094 77.304688 129.667969 77.160156 129.722656 C 77.015625 129.777344 76.9375 131.683594 77.117188 132.128906 Z M 76.785156 132.542969 C 77.253906 132.621094 77.777344 133.121094 77.695312 133.632812 C 77.609375 134.140625 76.964844 134.460938 76.488281 134.382812 C 76.011719 134.304688 74.421875 133.265625 74.445312 133.117188 C 74.472656 132.964844 76.3125 132.472656 76.785156 132.542969 Z M 74.828125 130.316406 C 74.996094 130.726562 75.554688 131.09375 75.996094 130.921875 C 76.433594 130.75 76.59375 130.09375 76.429688 129.679688 C 76.261719 129.261719 75 128.035156 74.867188 128.082031 C 74.734375 128.132812 74.660156 129.90625 74.828125 130.316406 Z M 74.515625 130.707031 C 74.957031 130.777344 75.4375 131.246094 75.359375 131.714844 C 75.285156 132.1875 74.683594 132.484375 74.246094 132.410156 C 73.804688 132.339844 72.328125 131.378906 72.351562 131.234375 C 72.371094 131.089844 74.078125 130.640625 74.515625 130.707031 Z M 84.6875 133.695312 C 84.792969 134.261719 85.410156 134.871094 86.023438 134.761719 C 86.628906 134.648438 86.996094 133.859375 86.894531 133.292969 C 86.789062 132.726562 85.5 130.839844 85.316406 130.871094 C 85.132812 130.90625 84.582031 133.128906 84.6875 133.695312 Z M 84.195312 134.105469 C 84.734375 134.304688 85.226562 135.027344 85.011719 135.605469 C 84.792969 136.183594 83.957031 136.40625 83.410156 136.207031 C 82.871094 136.003906 81.238281 134.398438 81.304688 134.222656 C 81.367188 134.050781 83.65625 133.90625 84.195312 134.105469 Z M 82.714844 131.421875 C 82.800781 131.894531 83.316406 132.398438 83.820312 132.3125 C 84.328125 132.214844 84.632812 131.5625 84.542969 131.089844 C 84.460938 130.617188 83.382812 129.042969 83.234375 129.070312 C 83.082031 129.101562 82.632812 130.949219 82.714844 131.421875 Z M 82.304688 131.765625 C 82.753906 131.933594 83.160156 132.535156 82.984375 133.011719 C 82.804688 133.488281 82.105469 133.679688 81.65625 133.511719 C 81.207031 133.34375 79.851562 132.003906 79.90625 131.859375 C 79.957031 131.722656 81.855469 131.601562 82.304688 131.765625 Z M 80.828125 129.199219 C 80.90625 129.640625 81.382812 130.105469 81.855469 130.023438 C 82.320312 129.9375 82.605469 129.328125 82.527344 128.890625 C 82.449219 128.449219 81.449219 126.996094 81.3125 127.015625 C 81.171875 127.042969 80.75 128.761719 80.828125 129.199219 Z M 80.449219 129.515625 C 80.867188 129.671875 81.246094 130.226562 81.078125 130.671875 C 80.910156 131.117188 80.261719 131.289062 79.84375 131.132812 C 79.429688 130.976562 78.171875 129.738281 78.214844 129.605469 C 78.273438 129.472656 80.035156 129.359375 80.449219 129.515625 Z M 79.199219 127.285156 C 79.273438 127.679688 79.707031 128.105469 80.128906 128.027344 C 80.550781 127.949219 80.804688 127.398438 80.734375 127.003906 C 80.660156 126.609375 79.761719 125.289062 79.632812 125.316406 C 79.503906 125.332031 79.128906 126.890625 79.199219 127.285156 Z M 78.851562 127.570312 C 79.226562 127.710938 79.570312 128.210938 79.417969 128.617188 C 79.265625 129.023438 78.679688 129.171875 78.300781 129.035156 C 77.921875 128.894531 76.785156 127.773438 76.828125 127.648438 C 76.882812 127.535156 78.476562 127.433594 78.851562 127.570312 Z M 79.394531 137.320312 C 79.816406 137.710938 80.679688 137.828125 81.101562 137.371094 C 81.523438 136.917969 81.339844 136.066406 80.917969 135.679688 C 80.496094 135.289062 78.320312 134.554688 78.199219 134.6875 C 78.066406 134.828125 78.964844 136.933594 79.394531 137.320312 Z M 79.246094 137.949219 C 79.800781 137.789062 80.621094 138.066406 80.792969 138.65625 C 80.972656 139.25 80.429688 139.929688 79.878906 140.09375 C 79.320312 140.253906 77.054688 139.957031 77.003906 139.777344 C 76.957031 139.601562 78.695312 138.117188 79.246094 137.949219 Z M 76.457031 136.695312 C 76.804688 137.023438 77.523438 137.117188 77.871094 136.738281 C 78.222656 136.359375 78.070312 135.65625 77.714844 135.328125 C 77.367188 135 75.5625 134.394531 75.457031 134.503906 C 75.351562 134.617188 76.101562 136.367188 76.457031 136.695312 Z M 76.332031 137.214844 C 76.792969 137.078125 77.476562 137.3125 77.621094 137.804688 C 77.765625 138.300781 77.320312 138.867188 76.859375 139 C 76.398438 139.140625 74.515625 138.882812 74.472656 138.738281 C 74.429688 138.589844 75.871094 137.351562 76.332031 137.214844 Z M 73.605469 136.050781 C 73.933594 136.351562 74.59375 136.4375 74.921875 136.089844 C 75.246094 135.738281 75.105469 135.082031 74.777344 134.785156 C 74.449219 134.484375 72.777344 133.917969 72.683594 134.023438 C 72.582031 134.121094 73.277344 135.746094 73.605469 136.050781 Z M 73.496094 136.535156 C 73.921875 136.40625 74.554688 136.621094 74.695312 137.078125 C 74.828125 137.535156 74.410156 138.0625 73.988281 138.1875 C 73.5625 138.316406 71.8125 138.082031 71.773438 137.945312 C 71.734375 137.804688 73.066406 136.660156 73.496094 136.535156 Z M 71.148438 135.5 C 71.445312 135.773438 72.042969 135.855469 72.339844 135.539062 C 72.632812 135.222656 72.503906 134.628906 72.210938 134.355469 C 71.917969 134.082031 70.398438 133.570312 70.316406 133.667969 C 70.226562 133.761719 70.855469 135.226562 71.148438 135.5 Z M 71.050781 135.9375 C 71.433594 135.820312 72.011719 136.015625 72.132812 136.433594 C 72.253906 136.84375 71.878906 137.320312 71.496094 137.4375 C 71.109375 137.554688 69.527344 137.34375 69.488281 137.214844 C 69.449219 137.09375 70.660156 136.054688 71.050781 135.9375 Z M 69.144531 120.542969 C 69.070312 121.117188 69.484375 121.882812 70.101562 121.957031 C 70.710938 122.027344 71.292969 121.382812 71.367188 120.8125 C 71.4375 120.238281 70.761719 118.050781 70.578125 118.027344 C 70.394531 118.003906 69.210938 119.972656 69.144531 120.542969 Z M 68.550781 120.789062 C 69.003906 121.140625 69.261719 121.972656 68.882812 122.460938 C 68.503906 122.949219 67.640625 122.910156 67.179688 122.5625 C 66.722656 122.210938 65.640625 120.1875 65.75 120.042969 C 65.867188 119.898438 68.089844 120.4375 68.550781 120.789062 Z M 67.933594 117.789062 C 67.878906 118.265625 68.214844 118.898438 68.726562 118.964844 C 69.238281 119.027344 69.722656 118.496094 69.785156 118.015625 C 69.839844 117.539062 69.277344 115.722656 69.128906 115.699219 C 68.972656 115.683594 67.996094 117.3125 67.933594 117.789062 Z M 67.4375 117.996094 C 67.816406 118.289062 68.035156 118.976562 67.714844 119.382812 C 67.398438 119.789062 66.679688 119.753906 66.300781 119.464844 C 65.921875 119.171875 65.023438 117.496094 65.117188 117.371094 C 65.210938 117.253906 67.0625 117.707031 67.4375 117.996094 Z M 66.789062 115.105469 C 66.734375 115.542969 67.050781 116.140625 67.527344 116.195312 C 68.003906 116.25 68.449219 115.753906 68.503906 115.3125 C 68.5625 114.871094 68.039062 113.183594 67.898438 113.167969 C 67.761719 113.148438 66.84375 114.660156 66.789062 115.105469 Z M 66.332031 115.292969 C 66.683594 115.566406 66.882812 116.207031 66.589844 116.582031 C 66.300781 116.960938 65.628906 116.933594 65.277344 116.660156 C 64.929688 116.390625 64.089844 114.832031 64.179688 114.722656 C 64.265625 114.609375 65.976562 115.023438 66.332031 115.292969 Z M 65.800781 112.792969 C 65.75 113.195312 66.039062 113.726562 66.464844 113.785156 C 66.894531 113.832031 67.300781 113.382812 67.351562 112.984375 C 67.398438 112.582031 66.929688 111.054688 66.800781 111.042969 C 66.671875 111.023438 65.851562 112.394531 65.800781 112.792969 Z M 65.382812 112.964844 C 65.699219 113.210938 65.878906 113.792969 65.617188 114.132812 C 65.355469 114.472656 64.746094 114.449219 64.429688 114.199219 C 64.109375 113.957031 63.355469 112.542969 63.433594 112.445312 C 63.511719 112.34375 65.066406 112.714844 65.382812 112.964844 Z M 63.011719 122.4375 C 63.300781 122.9375 64.089844 123.304688 64.621094 122.996094 C 65.15625 122.683594 65.234375 121.816406 64.949219 121.320312 C 64.667969 120.828125 62.804688 119.476562 62.648438 119.570312 C 62.496094 119.667969 62.722656 121.9375 63.011719 122.4375 Z M 62.683594 122.996094 C 63.261719 123 63.964844 123.511719 63.957031 124.128906 C 63.945312 124.746094 63.226562 125.238281 62.65625 125.226562 C 62.078125 125.222656 60 124.261719 60.003906 124.070312 C 60.003906 123.894531 62.105469 122.988281 62.683594 122.996094 Z M 60.390625 120.964844 C 60.628906 121.382812 61.285156 121.683594 61.726562 121.429688 C 62.171875 121.171875 62.238281 120.449219 62 120.035156 C 61.761719 119.617188 60.214844 118.5 60.082031 118.578125 C 59.957031 118.65625 60.148438 120.550781 60.390625 120.964844 Z M 60.117188 121.429688 C 60.59375 121.433594 61.183594 121.859375 61.179688 122.371094 C 61.171875 122.890625 60.570312 123.292969 60.09375 123.289062 C 59.617188 123.285156 57.890625 122.484375 57.890625 122.328125 C 57.890625 122.179688 59.640625 121.421875 60.117188 121.429688 Z M 57.859375 119.503906 C 58.082031 119.890625 58.695312 120.171875 59.105469 119.933594 C 59.515625 119.695312 59.578125 119.027344 59.355469 118.644531 C 59.132812 118.261719 57.707031 117.222656 57.578125 117.292969 C 57.449219 117.367188 57.640625 119.121094 57.859375 119.503906 Z M 57.609375 119.933594 C 58.054688 119.9375 58.601562 120.332031 58.59375 120.8125 C 58.589844 121.289062 58.035156 121.667969 57.589844 121.660156 C 57.144531 121.65625 55.542969 120.910156 55.542969 120.773438 C 55.542969 120.632812 57.167969 119.929688 57.609375 119.933594 Z M 55.679688 118.253906 C 55.878906 118.605469 56.429688 118.859375 56.804688 118.644531 C 57.179688 118.429688 57.234375 117.820312 57.035156 117.476562 C 56.832031 117.132812 55.539062 116.195312 55.429688 116.253906 C 55.3125 116.316406 55.476562 117.90625 55.679688 118.253906 Z M 55.449219 118.644531 C 55.851562 118.648438 56.34375 119.003906 56.339844 119.4375 C 56.332031 119.871094 55.832031 120.210938 55.429688 120.207031 C 55.023438 120.199219 53.578125 119.527344 53.578125 119.398438 C 53.582031 119.273438 55.050781 118.640625 55.449219 118.644531 Z M 61.289062 115.5625 C 61.300781 116.140625 61.820312 116.839844 62.4375 116.820312 C 63.054688 116.804688 63.539062 116.082031 63.527344 115.511719 C 63.515625 114.9375 62.535156 112.867188 62.351562 112.871094 C 62.160156 112.871094 61.277344 114.984375 61.289062 115.5625 Z M 60.738281 115.894531 C 61.238281 116.179688 61.617188 116.960938 61.3125 117.5 C 61.003906 118.039062 60.144531 118.128906 59.640625 117.84375 C 59.140625 117.5625 57.777344 115.722656 57.867188 115.5625 C 57.957031 115.394531 60.234375 115.609375 60.738281 115.894531 Z M 59.699219 113.011719 C 59.710938 113.488281 60.140625 114.070312 60.65625 114.0625 C 61.171875 114.050781 61.570312 113.449219 61.5625 112.964844 C 61.550781 112.488281 60.734375 110.765625 60.578125 110.773438 C 60.421875 110.777344 59.6875 112.535156 59.699219 113.011719 Z M 59.238281 113.289062 C 59.65625 113.523438 59.964844 114.179688 59.714844 114.628906 C 59.464844 115.078125 58.746094 115.148438 58.328125 114.910156 C 57.910156 114.671875 56.777344 113.144531 56.855469 113.011719 C 56.929688 112.871094 58.820312 113.050781 59.238281 113.289062 Z M 58.183594 110.515625 C 58.195312 110.960938 58.59375 111.5 59.066406 111.488281 C 59.542969 111.476562 59.917969 110.921875 59.90625 110.476562 C 59.894531 110.035156 59.140625 108.4375 58.996094 108.4375 C 58.855469 108.445312 58.171875 110.070312 58.183594 110.515625 Z M 57.753906 110.773438 C 58.144531 110.988281 58.433594 111.59375 58.195312 112.011719 C 57.957031 112.429688 57.292969 112.496094 56.90625 112.273438 C 56.515625 112.054688 55.464844 110.632812 55.539062 110.511719 C 55.609375 110.390625 57.367188 110.554688 57.753906 110.773438 Z M 62.445312 101.285156 C 62.214844 101.816406 62.40625 102.667969 62.972656 102.90625 C 63.539062 103.144531 64.277344 102.6875 64.503906 102.15625 C 64.734375 101.621094 64.6875 99.332031 64.515625 99.261719 C 64.34375 99.195312 62.671875 100.753906 62.445312 101.285156 Z M 61.804688 101.359375 C 62.144531 101.828125 62.160156 102.695312 61.667969 103.0625 C 61.167969 103.429688 60.34375 103.148438 60 102.683594 C 59.660156 102.214844 59.179688 99.984375 59.320312 99.871094 C 59.464844 99.761719 61.464844 100.894531 61.804688 101.359375 Z M 62.042969 98.304688 C 61.855469 98.746094 62.011719 99.457031 62.484375 99.65625 C 62.957031 99.855469 63.570312 99.472656 63.753906 99.035156 C 63.9375 98.59375 63.90625 96.6875 63.765625 96.628906 C 63.628906 96.566406 62.234375 97.867188 62.042969 98.304688 Z M 61.511719 98.367188 C 61.792969 98.753906 61.8125 99.476562 61.394531 99.785156 C 60.976562 100.089844 60.292969 99.855469 60.011719 99.472656 C 59.726562 99.082031 59.328125 97.222656 59.449219 97.132812 C 59.570312 97.039062 61.226562 97.984375 61.511719 98.367188 Z M 61.6875 95.410156 C 61.515625 95.820312 61.65625 96.476562 62.09375 96.660156 C 62.535156 96.84375 63.105469 96.496094 63.277344 96.082031 C 63.449219 95.671875 63.417969 93.910156 63.285156 93.855469 C 63.15625 93.800781 61.859375 95 61.6875 95.410156 Z M 61.195312 95.464844 C 61.457031 95.828125 61.472656 96.496094 61.089844 96.777344 C 60.707031 97.0625 60.066406 96.84375 59.804688 96.488281 C 59.542969 96.128906 59.171875 94.40625 59.285156 94.320312 C 59.394531 94.234375 60.929688 95.109375 61.195312 95.464844 Z M 61.371094 92.910156 C 61.214844 93.285156 61.34375 93.871094 61.738281 94.042969 C 62.132812 94.210938 62.648438 93.894531 62.8125 93.523438 C 62.964844 93.148438 62.9375 91.554688 62.816406 91.503906 C 62.699219 91.457031 61.527344 92.542969 61.371094 92.910156 Z M 60.921875 92.964844 C 61.160156 93.289062 61.171875 93.898438 60.820312 94.15625 C 60.472656 94.410156 59.898438 94.214844 59.660156 93.894531 C 59.421875 93.570312 59.082031 92.011719 59.1875 91.933594 C 59.300781 91.851562 60.6875 92.640625 60.921875 92.964844 Z M 56.027344 101.417969 C 56.167969 101.976562 56.828125 102.542969 57.421875 102.394531 C 58.023438 102.246094 58.339844 101.433594 58.195312 100.871094 C 58.054688 100.3125 56.644531 98.511719 56.464844 98.554688 C 56.289062 98.601562 55.890625 100.855469 56.027344 101.417969 Z M 55.5625 101.859375 C 56.109375 102.027344 56.648438 102.710938 56.472656 103.304688 C 56.292969 103.898438 55.464844 104.171875 54.917969 104.003906 C 54.367188 103.839844 52.632812 102.339844 52.6875 102.167969 C 52.738281 101.984375 55.011719 101.695312 55.5625 101.859375 Z M 53.917969 99.277344 C 54.035156 99.746094 54.578125 100.214844 55.078125 100.09375 C 55.578125 99.972656 55.839844 99.292969 55.722656 98.828125 C 55.605469 98.359375 54.433594 96.859375 54.285156 96.898438 C 54.132812 96.9375 53.800781 98.8125 53.917969 99.277344 Z M 53.527344 99.644531 C 53.988281 99.785156 54.433594 100.351562 54.285156 100.84375 C 54.132812 101.339844 53.449219 101.566406 52.988281 101.429688 C 52.527344 101.289062 51.089844 100.042969 51.132812 99.894531 C 51.179688 99.75 53.066406 99.511719 53.527344 99.644531 Z M 51.890625 97.179688 C 51.996094 97.609375 52.503906 98.050781 52.964844 97.933594 C 53.429688 97.816406 53.671875 97.195312 53.566406 96.761719 C 53.460938 96.328125 52.371094 94.9375 52.234375 94.972656 C 52.09375 95.003906 51.785156 96.746094 51.890625 97.179688 Z M 51.527344 97.523438 C 51.957031 97.648438 52.367188 98.179688 52.226562 98.632812 C 52.089844 99.089844 51.457031 99.300781 51.027344 99.171875 C 50.601562 99.042969 49.265625 97.890625 49.304688 97.75 C 49.351562 97.617188 51.101562 97.390625 51.527344 97.523438 Z M 50.140625 95.371094 C 50.238281 95.761719 50.695312 96.160156 51.109375 96.054688 C 51.527344 95.949219 51.75 95.382812 51.648438 94.996094 C 51.550781 94.605469 50.566406 93.34375 50.445312 93.378906 C 50.316406 93.40625 50.039062 94.984375 50.140625 95.371094 Z M 49.8125 95.683594 C 50.195312 95.800781 50.570312 96.277344 50.445312 96.6875 C 50.320312 97.101562 49.746094 97.292969 49.359375 97.179688 C 48.976562 97.0625 47.765625 96.015625 47.804688 95.894531 C 47.839844 95.765625 49.421875 95.566406 49.8125 95.683594 Z M 56.273438 94.332031 C 56.128906 94.890625 56.429688 95.707031 57.027344 95.859375 C 57.628906 96.015625 58.289062 95.457031 58.4375 94.898438 C 58.582031 94.34375 58.210938 92.082031 58.035156 92.039062 C 57.855469 91.988281 56.421875 93.773438 56.273438 94.332031 Z M 55.648438 94.496094 C 56.054688 94.90625 56.195312 95.761719 55.753906 96.195312 C 55.316406 96.628906 54.460938 96.472656 54.054688 96.0625 C 53.648438 95.648438 52.851562 93.503906 52.984375 93.378906 C 53.117188 93.25 55.246094 94.089844 55.648438 94.496094 Z M 55.449219 91.4375 C 55.328125 91.90625 55.582031 92.578125 56.078125 92.710938 C 56.570312 92.839844 57.128906 92.378906 57.25 91.910156 C 57.371094 91.445312 57.0625 89.566406 56.910156 89.527344 C 56.761719 89.488281 55.566406 90.976562 55.449219 91.4375 Z M 54.929688 91.578125 C 55.265625 91.921875 55.382812 92.632812 55.015625 92.996094 C 54.648438 93.355469 53.9375 93.226562 53.601562 92.882812 C 53.261719 92.539062 52.601562 90.753906 52.707031 90.648438 C 52.8125 90.542969 54.59375 91.238281 54.929688 91.578125 Z M 54.679688 88.628906 C 54.566406 89.054688 54.800781 89.6875 55.261719 89.804688 C 55.722656 89.929688 56.234375 89.496094 56.351562 89.0625 C 56.460938 88.632812 56.171875 86.890625 56.039062 86.851562 C 55.894531 86.816406 54.789062 88.195312 54.679688 88.628906 Z M 54.195312 88.753906 C 54.503906 89.070312 54.617188 89.734375 54.277344 90.066406 C 53.9375 90.398438 53.277344 90.285156 52.964844 89.964844 C 52.65625 89.648438 52.039062 87.996094 52.140625 87.894531 C 52.238281 87.792969 53.882812 88.4375 54.195312 88.753906 Z M 61.621094 82.417969 C 61.121094 82.609375 60.683594 83.289062 60.894531 83.820312 C 61.105469 84.355469 61.890625 84.542969 62.382812 84.351562 C 62.878906 84.15625 64.367188 82.640625 64.300781 82.476562 C 64.238281 82.316406 62.117188 82.222656 61.621094 82.417969 Z M 61.15625 82.039062 C 61.070312 82.566406 60.503906 83.144531 59.9375 83.050781 C 59.371094 82.957031 59.023438 82.234375 59.105469 81.707031 C 59.1875 81.179688 60.355469 79.40625 60.527344 79.433594 C 60.695312 79.460938 61.238281 81.511719 61.15625 82.039062 Z M 63.328125 80.214844 C 62.917969 80.378906 62.542969 80.9375 62.722656 81.382812 C 62.894531 81.828125 63.550781 81.984375 63.960938 81.820312 C 64.371094 81.660156 65.609375 80.398438 65.554688 80.265625 C 65.503906 80.132812 63.746094 80.050781 63.328125 80.214844 Z M 62.945312 79.90625 C 62.871094 80.34375 62.40625 80.820312 61.933594 80.746094 C 61.460938 80.667969 61.171875 80.066406 61.238281 79.628906 C 61.3125 79.1875 62.277344 77.714844 62.421875 77.738281 C 62.5625 77.761719 63.011719 79.464844 62.945312 79.90625 Z M 65.011719 78.09375 C 64.628906 78.246094 64.285156 78.765625 64.449219 79.179688 C 64.617188 79.589844 65.214844 79.734375 65.601562 79.582031 C 65.984375 79.433594 67.128906 78.261719 67.078125 78.140625 C 67.035156 78.015625 65.394531 77.945312 65.011719 78.09375 Z M 64.65625 77.804688 C 64.589844 78.210938 64.15625 78.65625 63.714844 78.582031 C 63.277344 78.511719 63.011719 77.957031 63.070312 77.542969 C 63.140625 77.140625 64.039062 75.773438 64.167969 75.789062 C 64.300781 75.816406 64.722656 77.398438 64.65625 77.804688 Z M 66.460938 76.265625 C 66.117188 76.40625 65.804688 76.871094 65.949219 77.246094 C 66.09375 77.617188 66.644531 77.75 66.988281 77.609375 C 67.332031 77.472656 68.371094 76.417969 68.328125 76.304688 C 68.285156 76.195312 66.804688 76.128906 66.460938 76.265625 Z M 66.132812 76.003906 C 66.070312 76.371094 65.679688 76.777344 65.285156 76.710938 C 64.890625 76.644531 64.644531 76.140625 64.699219 75.773438 C 64.753906 75.40625 65.570312 74.167969 65.6875 74.183594 C 65.816406 74.207031 66.195312 75.640625 66.132812 76.003906 Z M 57.367188 78.253906 C 57.089844 78.710938 57.140625 79.515625 57.628906 79.816406 C 58.117188 80.117188 58.855469 79.792969 59.132812 79.339844 C 59.410156 78.882812 59.6875 76.777344 59.539062 76.6875 C 59.394531 76.601562 57.644531 77.800781 57.367188 78.253906 Z M 56.765625 78.238281 C 57.015625 78.710938 56.910156 79.511719 56.40625 79.777344 C 55.898438 80.042969 55.183594 79.679688 54.933594 79.207031 C 54.683594 78.734375 54.550781 76.617188 54.699219 76.535156 C 54.851562 76.449219 56.515625 77.761719 56.765625 78.238281 Z M 57.40625 75.472656 C 57.171875 75.851562 57.214844 76.523438 57.621094 76.773438 C 58.027344 77.023438 58.644531 76.753906 58.878906 76.378906 C 59.109375 76 59.339844 74.25 59.214844 74.171875 C 59.09375 74.09375 57.640625 75.089844 57.40625 75.472656 Z M 56.910156 75.457031 C 57.117188 75.851562 57.035156 76.515625 56.609375 76.734375 C 56.1875 76.957031 55.59375 76.648438 55.382812 76.253906 C 55.179688 75.859375 55.066406 74.101562 55.1875 74.035156 C 55.316406 73.964844 56.707031 75.0625 56.910156 75.457031 Z M 57.476562 72.765625 C 57.261719 73.117188 57.300781 73.738281 57.679688 73.972656 C 58.054688 74.207031 58.628906 73.957031 58.839844 73.605469 C 59.054688 73.253906 59.265625 71.632812 59.15625 71.5625 C 59.042969 71.488281 57.695312 72.410156 57.476562 72.765625 Z M 57.015625 72.75 C 57.210938 73.117188 57.128906 73.734375 56.738281 73.9375 C 56.351562 74.144531 55.792969 73.859375 55.601562 73.496094 C 55.40625 73.128906 55.304688 71.496094 55.421875 71.433594 C 55.539062 71.371094 56.828125 72.382812 57.015625 72.75 Z M 57.535156 70.433594 C 57.339844 70.75 57.371094 71.3125 57.714844 71.523438 C 58.0625 71.734375 58.570312 71.511719 58.765625 71.1875 C 58.960938 70.867188 59.15625 69.398438 59.050781 69.339844 C 58.949219 69.277344 57.726562 70.117188 57.535156 70.433594 Z M 57.117188 70.421875 C 57.289062 70.75 57.214844 71.3125 56.859375 71.496094 C 56.503906 71.679688 56.003906 71.421875 55.832031 71.09375 C 55.660156 70.765625 55.566406 69.289062 55.671875 69.234375 C 55.777344 69.171875 56.945312 70.089844 57.117188 70.421875 Z M 62.210938 73.816406 C 61.746094 74.082031 61.40625 74.8125 61.6875 75.3125 C 61.972656 75.804688 62.777344 75.882812 63.238281 75.617188 C 63.707031 75.351562 64.957031 73.640625 64.867188 73.488281 C 64.785156 73.339844 62.671875 73.550781 62.210938 73.816406 Z M 61.695312 73.511719 C 61.683594 74.042969 61.210938 74.695312 60.640625 74.6875 C 60.066406 74.679688 59.609375 74.011719 59.621094 73.476562 C 59.632812 72.945312 60.527344 71.023438 60.699219 71.023438 C 60.871094 71.027344 61.707031 72.976562 61.695312 73.511719 Z M 63.582031 71.394531 C 63.199219 71.617188 62.910156 72.222656 63.148438 72.640625 C 63.390625 73.050781 64.054688 73.117188 64.4375 72.894531 C 64.820312 72.671875 65.867188 71.25 65.792969 71.121094 C 65.726562 70.996094 63.964844 71.171875 63.582031 71.394531 Z M 63.15625 71.140625 C 63.148438 71.582031 62.753906 72.128906 62.277344 72.117188 C 61.800781 72.109375 61.421875 71.554688 61.433594 71.109375 C 61.4375 70.667969 62.1875 69.066406 62.328125 69.070312 C 62.464844 69.070312 63.160156 70.695312 63.15625 71.140625 Z M 64.945312 69.054688 C 64.589844 69.261719 64.320312 69.820312 64.542969 70.207031 C 64.765625 70.589844 65.382812 70.648438 65.738281 70.445312 C 66.09375 70.238281 67.0625 68.917969 66.996094 68.800781 C 66.933594 68.683594 65.300781 68.851562 64.945312 69.054688 Z M 64.550781 68.816406 C 64.542969 69.226562 64.179688 69.734375 63.734375 69.722656 C 63.289062 69.714844 62.945312 69.199219 62.949219 68.789062 C 62.957031 68.378906 63.648438 66.894531 63.785156 66.894531 C 63.917969 66.894531 64.554688 68.40625 64.550781 68.816406 Z M 64.550781 68.816406 "/>
<path style=" stroke:none;fill-rule:nonzero;fill:rgb(100%,100%,100%);fill-opacity:1;" d="M 58.160156 128.421875 C 58.160156 128.421875 62.140625 128.378906 65.539062 126.082031 C 68.9375 123.789062 75.898438 119.566406 81.472656 125.039062 C 81.472656 125.039062 77.582031 124.382812 74.660156 126.8125 C 71.738281 129.246094 67.210938 132.09375 63.398438 131.777344 C 59.59375 131.464844 58.160156 128.421875 58.160156 128.421875 Z M 112.878906 136.472656 C 112.878906 136.472656 106.210938 138.433594 99.804688 138.300781 C 93.398438 138.433594 86.734375 136.472656 86.734375 136.472656 L 80.589844 142.355469 C 80.589844 142.355469 82.945312 141.640625 86.859375 143.398438 C 90.527344 145.050781 94.773438 146.777344 99.800781 146.777344 C 104.828125 146.777344 109.078125 145.050781 112.738281 143.398438 C 116.660156 141.632812 119.011719 142.355469 119.011719 142.355469 Z M 112.878906 136.472656 "/>
<path style=" stroke:none;fill-rule:nonzero;fill:rgb(100%,100%,100%);fill-opacity:1;" d="M 79.207031 144.917969 C 79.207031 145.984375 80.070312 146.851562 81.140625 146.851562 C 82.207031 146.851562 88.300781 145.984375 88.300781 144.917969 C 88.300781 143.851562 82.207031 142.984375 81.140625 142.984375 C 80.070312 142.984375 79.207031 143.851562 79.207031 144.917969 Z M 79.207031 144.917969 "/>
<path style=" stroke:none;fill-rule:nonzero;fill:rgb(100%,100%,100%);fill-opacity:1;" d="M 72.265625 145.0625 C 66.820312 144.042969 66.605469 141.101562 66.605469 141.101562 C 66.605469 141.101562 69.566406 142.984375 73.050781 142.289062 C 76.535156 141.59375 79.679688 141.707031 79.679688 141.707031 C 79.679688 141.707031 76.359375 145.382812 79.148438 147.210938 C 80.382812 148.023438 83.800781 147.679688 85.289062 147.351562 C 86.777344 147.023438 89.984375 146.429688 90.683594 146.429688 C 91.75 146.429688 92.617188 147.292969 92.617188 148.359375 C 92.617188 149.429688 91.75 150.292969 90.683594 150.292969 C 89.972656 150.292969 86.804688 149.707031 85.15625 149.328125 C 83.503906 148.949219 82.351562 148.773438 81.109375 148.515625 C 79.628906 148.210938 76.535156 148.605469 72.65625 148.910156 C 68.777344 149.214844 65.945312 147.429688 64.640625 145.859375 C 67.382812 146.734375 71 145.6875 72.265625 145.0625 Z M 46.117188 101.167969 C 45.898438 100.640625 50.871094 104.351562 54.265625 103.933594 C 57.660156 103.515625 64.183594 102.589844 65.515625 105.121094 C 66.855469 107.648438 68.050781 110.273438 68.050781 110.273438 C 68.050781 110.273438 65.789062 108.957031 62.859375 108.9375 C 59.921875 108.921875 53.75 108.640625 51.320312 107.828125 C 48.890625 107.011719 46.984375 103.25 46.117188 101.167969 Z M 50.8125 84.753906 C 50.871094 83.648438 53.070312 84.117188 53.527344 83.199219 C 53.984375 82.285156 52.292969 80.332031 53.226562 79.671875 C 54.15625 79.011719 58.890625 83.25 61.523438 86.089844 C 64.15625 88.933594 64.890625 93.472656 64.039062 94.8125 C 63.199219 96.148438 63.738281 94.929688 63.738281 94.929688 C 63.738281 94.929688 62.070312 91.621094 59.398438 90.273438 C 56.726562 88.929688 50.8125 84.753906 50.8125 84.753906 Z M 112.222656 128.199219 C 111.132812 128.464844 109.777344 129.820312 108.503906 131.714844 C 108.371094 129.871094 106.871094 128.410156 105 128.410156 C 104.550781 128.410156 104.128906 128.515625 103.726562 128.667969 C 103.261719 128.011719 102.535156 127.5625 101.667969 127.5625 C 100.996094 127.5625 100.394531 127.832031 99.933594 128.253906 C 99.472656 127.832031 98.871094 127.5625 98.199219 127.5625 C 97.332031 127.5625 96.605469 128.015625 96.140625 128.667969 C 95.746094 128.511719 95.316406 128.410156 94.867188 128.410156 C 92.921875 128.410156 91.351562 129.976562 91.320312 131.917969 C 90.011719 129.921875 88.609375 128.476562 87.484375 128.207031 C 85.621094 127.75 84.183594 125.789062 82.9375 124.90625 C 82.9375 124.90625 83.054688 128.277344 86.40625 130.6875 C 88.628906 132.289062 88.039062 135.984375 88.039062 135.984375 C 88.039062 135.984375 92.089844 136.996094 93.921875 137.195312 C 93.644531 136.378906 93.285156 135.632812 92.9375 134.882812 C 93.261719 135.101562 93.609375 135.253906 93.996094 135.355469 L 95.027344 137.285156 C 95.027344 137.285156 97.40625 137.5 99.921875 137.5 C 102.4375 137.5 104.832031 137.285156 104.832031 137.285156 L 105.867188 135.355469 C 106.160156 135.277344 106.4375 135.183594 106.699219 135.039062 C 106.378906 135.746094 106.042969 136.4375 105.785156 137.199219 C 107.609375 137.003906 111.667969 135.988281 111.667969 135.988281 C 111.667969 135.988281 111.078125 132.292969 113.300781 130.695312 C 116.644531 128.285156 116.765625 124.910156 116.765625 124.910156 C 115.523438 125.785156 114.082031 127.746094 112.222656 128.199219 Z M 112.222656 128.199219 "/>
</g>
</svg>
