<?xml version="1.0" encoding="UTF-8"?>
<svg xmlns="http://www.w3.org/2000/svg" xmlns:xlink="http://www.w3.org/1999/xlink" width="200px" height="200px" viewBox="0 0 200 200" version="1.1">
<g id="surface1">
<path style=" stroke:none;fill-rule:nonzero;fill:rgb(80.784314%,10.588235%,14.901961%);fill-opacity:1;" d="M 200 150 C 200 162.273438 190.050781 172.222656 177.777344 172.222656 L 22.222656 172.222656 C 9.949219 172.222656 0 162.273438 0 150 L 0 50 C 0 37.726562 9.949219 27.777344 22.222656 27.777344 L 177.777344 27.777344 C 190.050781 27.777344 200 37.726562 200 50 Z M 200 150 "/>
<path style=" stroke:none;fill-rule:nonzero;fill:rgb(0%,24.313725%,52.941176%);fill-opacity:1;" d="M 3.082031 38.890625 C 1.171875 42.167969 0 45.933594 0 50 L 0 150 C 0 154.066406 1.171875 157.828125 3.082031 161.109375 L 196.921875 161.109375 C 198.828125 157.828125 200 154.066406 200 150 L 200 50 C 200 45.933594 198.828125 42.167969 196.917969 38.890625 Z M 3.082031 38.890625 "/>
<path style=" stroke:none;fill-rule:nonzero;fill:rgb(100%,100%,100%);fill-opacity:1;" d="M 155.554688 100 C 155.554688 130.683594 130.683594 155.554688 100 155.554688 C 69.316406 155.554688 44.445312 130.683594 44.445312 100 C 44.445312 69.316406 69.316406 44.445312 100 44.445312 C 130.683594 44.445312 155.554688 69.316406 155.554688 100 Z M 155.554688 100 "/>
<path style=" stroke:none;fill-rule:nonzero;fill:rgb(45.098039%,3.529412%,0%);fill-opacity:1;" d="M 150 100 C 150 127.613281 127.613281 150 100 150 C 72.386719 150 50 127.613281 50 100 C 50 72.386719 72.386719 50 100 50 C 127.613281 50 150 72.386719 150 100 Z M 150 100 "/>
<path style=" stroke:none;fill-rule:nonzero;fill:rgb(100%,100%,100%);fill-opacity:1;" d="M 148.570312 100 C 148.570312 126.824219 126.824219 148.570312 100 148.570312 C 73.175781 148.570312 51.429688 126.824219 51.429688 100 C 51.429688 73.175781 73.175781 51.429688 100 51.429688 C 126.824219 51.429688 148.570312 73.175781 148.570312 100 Z M 148.570312 100 "/>
<path style=" stroke:none;fill-rule:nonzero;fill:rgb(0%,49.803922%,0%);fill-opacity:1;" d="M 102.832031 50 C 102.832031 47.984375 101.566406 46.351562 100 46.351562 C 98.433594 46.351562 97.167969 47.984375 97.167969 50 C 97.167969 52.015625 98.433594 53.648438 100 53.648438 C 101.566406 53.648438 102.832031 52.015625 102.832031 50 Z M 102.832031 50 "/>
<path style=" stroke:none;fill-rule:nonzero;fill:rgb(0%,49.803922%,0%);fill-opacity:1;" d="M 102.832031 150 C 102.832031 147.984375 101.566406 146.351562 100 146.351562 C 98.433594 146.351562 97.167969 147.984375 97.167969 150 C 97.167969 152.015625 98.433594 153.648438 100 153.648438 C 101.566406 153.648438 102.832031 152.015625 102.832031 150 Z M 102.832031 150 "/>
<path style=" stroke:none;fill-rule:nonzero;fill:rgb(0%,49.803922%,0%);fill-opacity:1;" d="M 84.328125 147.566406 C 84.851562 145.617188 86.496094 144.371094 88.003906 144.773438 C 89.523438 145.179688 90.320312 147.082031 89.800781 149.035156 C 89.277344 150.984375 87.632812 152.226562 86.117188 151.828125 C 84.605469 151.417969 83.804688 149.511719 84.328125 147.566406 Z M 112 55.214844 C 113.511719 55.621094 115.15625 54.382812 115.679688 52.433594 C 116.199219 50.484375 115.398438 48.582031 113.890625 48.171875 C 112.378906 47.773438 110.734375 49.015625 110.210938 50.960938 C 109.6875 52.917969 110.488281 54.816406 112 55.214844 Z M 72.550781 141.882812 C 73.554688 140.132812 75.472656 139.355469 76.828125 140.132812 C 78.183594 140.921875 78.460938 142.964844 77.457031 144.710938 C 76.449219 146.460938 74.535156 147.238281 73.183594 146.460938 C 71.820312 145.679688 71.539062 143.632812 72.550781 141.882812 Z M 123.179688 59.851562 C 124.535156 60.632812 126.445312 59.855469 127.457031 58.109375 C 128.464844 56.367188 128.183594 54.316406 126.828125 53.539062 C 125.472656 52.753906 123.5625 53.535156 122.550781 55.277344 C 121.539062 57.027344 121.820312 59.070312 123.179688 59.851562 Z M 62.644531 133.351562 C 64.066406 131.921875 66.117188 131.660156 67.226562 132.773438 C 68.332031 133.878906 68.070312 135.929688 66.648438 137.355469 C 65.222656 138.785156 63.179688 139.042969 62.066406 137.933594 C 60.960938 136.828125 61.214844 134.777344 62.644531 133.351562 Z M 132.777344 67.222656 C 133.882812 68.328125 135.929688 68.066406 137.355469 66.648438 C 138.785156 65.214844 139.039062 63.171875 137.933594 62.066406 C 136.828125 60.960938 134.785156 61.214844 133.355469 62.644531 C 131.929688 64.0625 131.671875 66.109375 132.777344 67.222656 Z M 55.285156 122.542969 C 57.027344 121.539062 59.078125 121.820312 59.859375 123.179688 C 60.644531 124.527344 59.859375 126.445312 58.117188 127.457031 C 56.371094 128.464844 54.320312 128.183594 53.539062 126.828125 C 52.753906 125.464844 53.535156 123.550781 55.285156 122.542969 Z M 140.148438 76.820312 C 140.933594 78.171875 142.972656 78.460938 144.714844 77.449219 C 146.464844 76.4375 147.246094 74.527344 146.464844 73.179688 C 145.679688 71.820312 143.632812 71.535156 141.890625 72.542969 C 140.140625 73.550781 139.359375 75.464844 140.148438 76.820312 Z M 50.972656 110.207031 C 52.921875 109.683594 54.820312 110.484375 55.226562 111.996094 C 55.632812 113.503906 54.382812 115.148438 52.4375 115.679688 C 50.488281 116.199219 48.589844 115.394531 48.183594 113.882812 C 47.777344 112.371094 49.023438 110.726562 50.972656 110.207031 Z M 144.777344 88 C 145.179688 89.515625 147.078125 90.316406 149.035156 89.792969 C 150.984375 89.265625 152.222656 87.621094 151.820312 86.109375 C 151.417969 84.605469 149.511719 83.800781 147.566406 84.320312 C 145.617188 84.839844 144.371094 86.488281 144.777344 88 Z M 144.777344 88 "/>
<path style=" stroke:none;fill-rule:nonzero;fill:rgb(0%,49.803922%,0%);fill-opacity:1;" d="M 53.648438 100 C 53.648438 98.433594 52.015625 97.167969 50 97.167969 C 47.984375 97.167969 46.351562 98.433594 46.351562 100 C 46.351562 101.566406 47.984375 102.832031 50 102.832031 C 52.015625 102.832031 53.648438 101.566406 53.648438 100 Z M 53.648438 100 "/>
<path style=" stroke:none;fill-rule:nonzero;fill:rgb(0%,49.803922%,0%);fill-opacity:1;" d="M 146.355469 100 C 146.355469 101.566406 147.984375 102.832031 150 102.832031 C 152.015625 102.832031 153.644531 101.566406 153.644531 100 C 153.644531 98.433594 152.015625 97.167969 150 97.167969 C 147.984375 97.167969 146.355469 98.433594 146.355469 100 Z M 52.433594 84.328125 C 54.382812 84.851562 55.628906 86.496094 55.226562 88.003906 C 54.820312 89.523438 52.917969 90.320312 50.964844 89.800781 C 49.015625 89.277344 47.773438 87.632812 48.171875 86.117188 C 48.582031 84.605469 50.488281 83.804688 52.433594 84.328125 Z M 144.777344 112 C 144.371094 113.511719 145.609375 115.15625 147.5625 115.679688 C 149.511719 116.199219 151.410156 115.398438 151.820312 113.890625 C 152.222656 112.378906 150.976562 110.734375 149.035156 110.210938 C 147.082031 109.6875 145.183594 110.488281 144.777344 112 Z M 58.117188 72.542969 C 59.859375 73.550781 60.644531 75.464844 59.859375 76.820312 C 59.070312 78.179688 57.027344 78.460938 55.285156 77.449219 C 53.539062 76.445312 52.753906 74.527344 53.539062 73.179688 C 54.320312 71.816406 56.367188 71.535156 58.117188 72.542969 Z M 140.148438 123.179688 C 139.367188 124.527344 140.144531 126.445312 141.890625 127.457031 C 143.632812 128.464844 145.683594 128.179688 146.460938 126.828125 C 147.246094 125.472656 146.464844 123.554688 144.722656 122.542969 C 142.972656 121.535156 140.929688 121.820312 140.148438 123.179688 Z M 66.648438 62.640625 C 68.078125 64.0625 68.339844 66.109375 67.226562 67.222656 C 66.121094 68.328125 64.070312 68.066406 62.644531 66.644531 C 61.214844 65.214844 60.957031 63.167969 62.066406 62.0625 C 63.171875 60.957031 65.222656 61.214844 66.648438 62.640625 Z M 132.777344 132.777344 C 131.671875 133.882812 131.933594 135.921875 133.355469 137.355469 C 134.789062 138.777344 136.832031 139.039062 137.9375 137.933594 C 139.042969 136.828125 138.789062 134.777344 137.359375 133.355469 C 135.9375 131.921875 133.890625 131.671875 132.777344 132.777344 Z M 77.457031 55.277344 C 78.460938 57.023438 78.179688 59.070312 76.820312 59.855469 C 75.472656 60.640625 73.554688 59.855469 72.550781 58.109375 C 71.539062 56.367188 71.820312 54.316406 73.179688 53.535156 C 74.535156 52.75 76.449219 53.535156 77.457031 55.277344 Z M 123.179688 140.144531 C 121.828125 140.929688 121.539062 142.972656 122.550781 144.714844 C 123.5625 146.464844 125.472656 147.238281 126.828125 146.460938 C 128.183594 145.679688 128.472656 143.632812 127.460938 141.890625 C 126.449219 140.140625 124.535156 139.359375 123.179688 140.144531 Z M 89.792969 50.964844 C 90.316406 52.917969 89.515625 54.816406 88.003906 55.222656 C 86.496094 55.628906 84.851562 54.378906 84.320312 52.433594 C 83.800781 50.484375 84.605469 48.582031 86.117188 48.179688 C 87.628906 47.773438 89.273438 49.023438 89.792969 50.964844 Z M 112 144.777344 C 110.484375 145.183594 109.683594 147.082031 110.207031 149.039062 C 110.734375 150.984375 112.378906 152.226562 113.890625 151.820312 C 115.394531 151.417969 116.199219 149.515625 115.679688 147.566406 C 115.160156 145.617188 113.511719 144.367188 112 144.777344 Z M 112 144.777344 "/>
<path style=" stroke:none;fill-rule:nonzero;fill:rgb(70.196078%,29.411765%,0%);fill-opacity:1;" d="M 83.109375 67.765625 L 88.621094 77.171875 L 94.660156 77.171875 L 97.367188 79.34375 L 99.035156 85.101562 L 93.054688 82.476562 L 98.632812 87.042969 L 97.289062 91.621094 L 101.882812 91.621094 L 101.882812 83.496094 L 109.382812 78.898438 L 108.144531 77.976562 L 101.921875 81.457031 L 101.199219 76.378906 L 100.078125 75.171875 L 103.898438 70.457031 L 101.929688 69.65625 L 99.039062 73.933594 L 98.632812 70.457031 L 99.039062 66.160156 C 99.039062 66.160156 97.117188 64.632812 97.292969 65.132812 C 97.472656 65.632812 97.292969 68.910156 97.292969 68.910156 L 93.683594 65.035156 L 92.011719 65.699219 L 95.640625 68.917969 L 91.421875 72.0625 L 86.304688 70.65625 L 87.289062 65.4375 L 86.238281 65.4375 L 85.332031 70.355469 L 84.429688 66.167969 L 83.117188 68.484375 M 102.488281 62.722656 L 103.695312 62.722656 L 103.695312 67.238281 L 102.488281 67.238281 Z M 108.8125 63.628906 L 110.316406 63.628906 L 110.316406 66.035156 L 108.8125 66.035156 Z M 108.8125 63.628906 "/>
<path style=" stroke:none;fill-rule:nonzero;fill:rgb(100%,100%,100%);fill-opacity:1;" d="M 89.777344 73.105469 C 89.960938 73.5625 90.773438 75.765625 90.773438 75.765625 L 96.578125 76.367188 L 99.039062 78.894531 L 98.070312 75.996094 L 96.578125 72.640625 Z M 89.777344 73.105469 "/>
<path style=" stroke:none;fill-rule:nonzero;fill:rgb(15.686275%,58.039216%,0%);fill-opacity:1;" d="M 83.226562 62.820312 C 86.722656 60.722656 89 64.226562 89 64.226562 C 89 64.226562 90.445312 59.8125 94.761719 59.511719 C 99.070312 59.210938 99.039062 61.117188 99.039062 61.117188 C 99.039062 61.117188 99.996094 58.34375 105.753906 59.476562 C 111.523438 60.609375 111.34375 62.523438 110.378906 63.320312 C 109.410156 64.128906 100.683594 63.621094 100.683594 63.621094 C 100.683594 63.621094 101.582031 65.328125 101.683594 66.027344 C 101.785156 66.734375 104.894531 64.726562 109.804688 66.027344 C 109.804688 66.027344 112.222656 61.816406 115.933594 64.023438 C 119.648438 66.234375 122.078125 70.445312 121.160156 71.648438 C 120.25 72.855469 113.621094 72.050781 112.871094 71.25 C 112.871094 71.25 111.527344 73.460938 108.410156 73.054688 C 105.292969 72.65625 100.078125 69.34375 100.078125 69.34375 L 99.035156 67.734375 C 99.035156 67.734375 96.609375 65.828125 93.679688 65.726562 C 90.746094 65.632812 88.699219 65.726562 88.699219 65.726562 C 88.699219 65.726562 86.722656 68.039062 84.417969 68.339844 C 82.109375 68.644531 79.707031 68.539062 79.707031 68.539062 C 79.707031 68.539062 79.222656 65.234375 83.226562 62.820312 Z M 83.226562 62.820312 "/>
<path style=" stroke:none;fill-rule:nonzero;fill:rgb(15.686275%,58.039216%,0%);fill-opacity:1;" d="M 87.285156 69.246094 C 93.054688 68.339844 96.867188 69.246094 97.265625 72.054688 C 97.667969 74.867188 92.960938 74.367188 92.003906 74.464844 C 91.042969 74.566406 85.523438 76.472656 83.722656 76.371094 C 81.917969 76.273438 78.199219 74.464844 80.910156 71.859375 C 83.621094 69.246094 87.285156 69.246094 87.285156 69.246094 Z M 109.390625 74.359375 C 115.066406 75.683594 117.746094 78.777344 116.433594 80.082031 C 115.132812 81.382812 111.785156 81.1875 108.738281 80.082031 C 105.695312 78.976562 101.472656 79.785156 100.527344 77.671875 C 99.578125 75.566406 102.945312 72.855469 109.390625 74.359375 Z M 107.457031 81.589844 C 111.765625 82.292969 111.921875 86.101562 111.222656 86.804688 C 110.515625 87.503906 103.894531 86.605469 102.394531 84.800781 C 100.882812 82.996094 103.1875 80.890625 107.457031 81.589844 Z M 91.421875 79.679688 C 96.800781 77.644531 99.105469 79.984375 99.039062 82.089844 C 98.976562 84.195312 94.464844 84.09375 92.707031 84.898438 C 90.949219 85.707031 87.738281 86.707031 86.640625 85.5 C 85.527344 84.292969 87.171875 81.285156 91.421875 79.679688 Z M 91.421875 79.679688 "/>
<path style=" stroke:none;fill-rule:nonzero;fill:rgb(67.843137%,67.843137%,67.843137%);fill-opacity:1;" d="M 87.734375 135.199219 C 86.234375 136.679688 83.972656 139.753906 88.828125 140.699219 C 93.6875 141.644531 91.792969 136.867188 90.773438 136.078125 C 89.746094 135.277344 87.734375 135.199219 87.734375 135.199219 Z M 87.734375 135.199219 "/>
<path style=" stroke:none;fill-rule:nonzero;fill:rgb(40%,60%,100%);fill-opacity:1;" d="M 90.148438 136.578125 C 90.25 136.871094 90.851562 138.285156 90.148438 139.082031 C 89.445312 139.890625 88.246094 140.496094 87.140625 140.382812 C 87.140625 140.382812 91.855469 141.1875 92.855469 141.695312 C 93.859375 142.183594 94.761719 140.683594 94.261719 138.578125 C 93.761719 136.476562 90.148438 136.578125 90.148438 136.578125 Z M 90.148438 136.578125 "/>
<path style=" stroke:none;fill-rule:nonzero;fill:rgb(93.333333%,93.333333%,93.333333%);fill-opacity:1;" d="M 120.851562 126.84375 C 118.238281 126.84375 114.726562 128.949219 114.726562 128.949219 C 114.726562 128.949219 113.121094 127.34375 110.511719 128.746094 C 107.898438 130.15625 106.398438 130.554688 106.601562 133.160156 C 106.601562 133.160156 105.179688 133.890625 103.789062 134.265625 C 101.582031 134.871094 100.078125 134.359375 100.078125 134.359375 C 100.078125 134.359375 98.570312 134.871094 96.367188 134.265625 C 94.976562 133.890625 93.5625 133.160156 93.5625 133.160156 C 93.761719 130.554688 92.253906 130.15625 89.644531 128.746094 C 87.035156 127.34375 85.429688 128.949219 85.429688 128.949219 C 85.429688 128.949219 81.917969 126.84375 79.304688 126.84375 C 76.695312 126.84375 74.390625 129.351562 74.488281 130.054688 C 74.589844 130.761719 75.792969 133.160156 76.496094 134.359375 C 77.195312 135.566406 77.800781 136.273438 79.707031 136.273438 C 81.609375 136.273438 85.621094 135.066406 85.621094 135.066406 C 85.621094 135.066406 86.527344 135.964844 91.246094 137.777344 C 95.960938 139.578125 100.070312 139.484375 100.070312 139.484375 C 100.070312 139.484375 104.183594 139.582031 108.898438 137.777344 C 113.617188 135.964844 114.523438 135.066406 114.523438 135.066406 C 114.523438 135.066406 118.539062 136.273438 120.445312 136.273438 C 122.351562 136.273438 122.949219 135.566406 123.65625 134.359375 C 124.355469 133.15625 125.566406 130.761719 125.660156 130.054688 C 125.765625 129.351562 123.460938 126.84375 120.851562 126.84375 Z M 120.851562 126.84375 "/>
<path style=" stroke:none;fill-rule:nonzero;fill:rgb(67.843137%,67.843137%,67.843137%);fill-opacity:1;" d="M 85.878906 129.277344 C 87.800781 130.578125 91.8125 132.410156 93.5625 133.160156 C 93.5625 133.160156 94.183594 131.464844 92.632812 130.496094 C 91.082031 129.503906 88.832031 128.617188 87.738281 128.183594 C 86.632812 127.746094 85.878906 129.277344 85.878906 129.277344 Z M 86.632812 135.199219 C 83.929688 132.765625 82.222656 131.859375 80.210938 131.457031 C 78.207031 131.054688 75.855469 131.792969 75.929688 133.332031 C 75.996094 134.871094 77.917969 136.476562 79.710938 136.273438 C 81.496094 136.078125 86.632812 135.199219 86.632812 135.199219 Z M 86.632812 135.199219 "/>
<path style=" stroke:none;fill-rule:nonzero;fill:rgb(40%,60%,100%);fill-opacity:1;" d="M 86.632812 129.851562 C 86.632812 129.851562 86.734375 127.949219 88.039062 128.746094 C 89.34375 129.554688 88.945312 131 88.945312 131 Z M 84.828125 134.570312 C 84.828125 134.570312 81.417969 132.066406 79.910156 132.066406 C 78.398438 132.066406 76.898438 132.167969 77 133.316406 C 77.101562 134.476562 79.109375 134.976562 80.214844 135.171875 C 81.316406 135.371094 84.828125 134.570312 84.828125 134.570312 Z M 84.828125 134.570312 "/>
<path style=" stroke:none;fill-rule:nonzero;fill:rgb(67.843137%,67.843137%,67.843137%);fill-opacity:1;" d="M 112.421875 135.199219 C 113.929688 136.679688 116.1875 139.753906 111.332031 140.699219 C 106.464844 141.644531 108.367188 136.867188 109.382812 136.078125 C 110.417969 135.277344 112.421875 135.199219 112.421875 135.199219 Z M 112.421875 135.199219 "/>
<path style=" stroke:none;fill-rule:nonzero;fill:rgb(40%,60%,100%);fill-opacity:1;" d="M 110.015625 136.578125 C 109.917969 136.871094 109.3125 138.285156 110.015625 139.082031 C 110.714844 139.890625 111.921875 140.496094 113.023438 140.382812 C 113.023438 140.382812 108.304688 141.1875 107.304688 141.695312 C 106.300781 142.183594 105.398438 140.683594 105.90625 138.578125 C 106.398438 136.476562 110.015625 136.578125 110.015625 136.578125 Z M 110.015625 136.578125 "/>
<path style=" stroke:none;fill-rule:nonzero;fill:rgb(67.843137%,67.843137%,67.843137%);fill-opacity:1;" d="M 114.285156 129.277344 C 112.351562 130.578125 108.351562 132.410156 106.601562 133.160156 C 106.601562 133.160156 105.976562 131.464844 107.527344 130.496094 C 109.078125 129.503906 111.332031 128.617188 112.421875 128.183594 C 113.527344 127.746094 114.285156 129.277344 114.285156 129.277344 Z M 113.527344 135.199219 C 116.234375 132.765625 117.9375 131.859375 119.949219 131.457031 C 121.949219 131.054688 124.300781 131.792969 124.234375 133.332031 C 124.160156 134.871094 122.246094 136.476562 120.449219 136.273438 C 118.65625 136.078125 113.527344 135.199219 113.527344 135.199219 Z M 113.527344 135.199219 "/>
<path style=" stroke:none;fill-rule:nonzero;fill:rgb(40%,60%,100%);fill-opacity:1;" d="M 113.527344 129.851562 C 113.527344 129.851562 113.429688 127.949219 112.128906 128.746094 C 110.816406 129.554688 111.222656 131 111.222656 131 Z M 115.332031 134.570312 C 115.332031 134.570312 118.746094 132.066406 120.25 132.066406 C 121.753906 132.066406 123.261719 132.167969 123.160156 133.316406 C 123.0625 134.476562 121.050781 134.976562 119.949219 135.171875 C 118.84375 135.371094 115.332031 134.570312 115.332031 134.570312 Z M 115.332031 134.570312 "/>
<path style=" stroke:none;fill-rule:nonzero;fill:rgb(82.745098%,82.745098%,82.745098%);fill-opacity:1;" d="M 83.429688 129.253906 C 85.773438 130.167969 89.550781 134.265625 83.429688 131.667969 C 77.300781 129.050781 79.8125 127.84375 83.429688 129.253906 Z M 91.550781 134.070312 C 94.210938 134.800781 98.671875 135.570312 101.183594 135.570312 C 103.6875 135.570312 105.292969 138.1875 102.183594 137.882812 C 99.070312 137.578125 92.648438 136.90625 90.445312 135.996094 C 88.238281 135.066406 89.367188 133.460938 91.550781 134.070312 Z M 107.40625 134.359375 C 110.210938 132.867188 115.535156 129.554688 117.339844 129.144531 C 119.144531 128.746094 121.355469 128.949219 121.15625 129.851562 C 120.957031 130.761719 119.851562 131.25 118.144531 131.457031 C 116.433594 131.660156 110.917969 136.273438 107.40625 136.773438 C 103.898438 137.285156 107.40625 134.359375 107.40625 134.359375 Z M 107.40625 134.359375 "/>
<path style=" stroke:none;fill-rule:nonzero;fill:rgb(15.686275%,58.039216%,0%);fill-opacity:1;" d="M 72.484375 118.207031 C 78.015625 117.101562 102.988281 116.40625 110.109375 117.304688 C 117.238281 118.207031 132.792969 122.527344 130.785156 125.035156 C 128.785156 127.539062 120.148438 127.34375 115.234375 126.539062 C 110.316406 125.734375 108.40625 130.054688 100.078125 130.148438 C 91.746094 130.25 87.535156 127.535156 84.023438 126.234375 C 80.511719 124.933594 75.496094 125.632812 72.484375 126.539062 C 69.472656 127.445312 59.539062 120.820312 72.484375 118.207031 Z M 72.484375 118.207031 "/>
<path style=" stroke:none;fill-rule:nonzero;fill:rgb(0%,0%,0%);fill-opacity:1;" d="M 85.328125 90.417969 L 85.328125 109.382812 C 85.328125 116.304688 90.542969 121.929688 92.699219 123.933594 C 94.859375 125.929688 100.078125 128.851562 100.078125 128.851562 C 100.078125 128.851562 105.292969 125.933594 107.449219 123.933594 C 109.609375 121.929688 114.820312 116.304688 114.820312 109.382812 L 114.820312 90.417969 Z M 85.328125 90.417969 "/>
<path style=" stroke:none;fill-rule:nonzero;fill:rgb(61.960784%,84.313725%,100%);fill-opacity:1;" d="M 86.832031 91.621094 L 86.832031 109.40625 C 86.832031 115.621094 91.515625 121.277344 93.457031 123.078125 C 95.394531 124.878906 100.078125 127.496094 100.078125 127.496094 C 100.078125 127.496094 104.761719 124.878906 106.695312 123.078125 C 108.632812 121.277344 113.316406 115.621094 113.316406 109.40625 L 113.316406 91.621094 Z M 86.832031 91.621094 "/>
<path style=" stroke:none;fill-rule:nonzero;fill:rgb(0%,41.568627%,78.431373%);fill-opacity:1;" d="M 91.421875 120.820312 L 108.746094 120.820312 C 109.421875 119.964844 110.132812 118.957031 110.792969 117.816406 L 89.371094 117.816406 C 90.027344 118.957031 90.746094 119.964844 91.421875 120.820312 Z M 91.421875 120.820312 "/>
<path style=" stroke:none;fill-rule:nonzero;fill:rgb(35.294118%,78.431373%,0%);fill-opacity:1;" d="M 91.421875 120.820312 C 92.207031 121.8125 92.933594 122.589844 93.460938 123.078125 C 93.816406 123.410156 94.273438 123.761719 94.765625 124.128906 L 105.40625 124.128906 C 105.90625 123.761719 106.355469 123.410156 106.707031 123.078125 C 107.234375 122.589844 107.960938 121.804688 108.746094 120.820312 Z M 91.421875 120.820312 "/>
<path style=" stroke:none;fill-rule:nonzero;fill:rgb(100%,84.705882%,0.392157%);fill-opacity:1;" d="M 100.082031 127.496094 C 100.082031 127.496094 103.199219 125.75 105.398438 124.132812 L 94.761719 124.132812 C 96.960938 125.75 100.082031 127.496094 100.082031 127.496094 Z M 100.082031 127.496094 "/>
<path style=" stroke:none;fill-rule:nonzero;fill:rgb(100%,100%,100%);fill-opacity:1;" d="M 87.917969 114.800781 L 100.082031 103.960938 L 100.082031 91.621094 L 86.832031 91.621094 L 86.832031 109.40625 C 86.832031 111.285156 87.265625 113.117188 87.917969 114.800781 Z M 87.917969 114.800781 "/>
<path style=" stroke:none;fill-rule:nonzero;fill:rgb(100%,84.705882%,23.529412%);fill-opacity:1;" d="M 112.238281 114.800781 C 112.894531 113.117188 113.320312 111.285156 113.320312 109.40625 L 113.320312 91.621094 L 100.078125 91.621094 L 100.078125 103.960938 Z M 112.238281 114.800781 "/>
<path style=" stroke:none;fill-rule:nonzero;fill:rgb(70.196078%,29.411765%,0%);fill-opacity:1;" d="M 98.351562 101.816406 L 98.289062 101.761719 C 98.117188 101.582031 97.828125 101.582031 97.648438 101.761719 L 97.273438 102.140625 L 94.644531 99.511719 C 94.957031 99.09375 94.988281 98.582031 94.707031 98.300781 L 89.382812 93.070312 C 89.0625 92.75 88.449219 92.851562 88.015625 93.289062 C 87.589844 93.726562 87.5 94.332031 87.820312 94.648438 L 93.144531 99.882812 C 93.367188 100.101562 93.722656 100.117188 94.0625 99.972656 L 96.746094 102.65625 L 96.195312 103.210938 C 96.015625 103.390625 96.015625 103.671875 96.195312 103.855469 L 96.253906 103.910156 C 96.429688 104.082031 96.714844 104.082031 96.894531 103.910156 L 98.34375 102.457031 C 98.527344 102.277344 98.527344 101.988281 98.351562 101.816406 Z M 98.351562 101.816406 "/>
<path style=" stroke:none;fill-rule:nonzero;fill:rgb(47.058824%,12.941176%,12.941176%);fill-opacity:1;" d="M 89.816406 104.539062 C 89.609375 104.8125 89.222656 104.867188 88.949219 104.65625 C 88.679688 104.449219 88.628906 104.066406 88.832031 103.792969 L 94.527344 96.355469 C 94.734375 96.082031 95.121094 96.035156 95.390625 96.238281 C 95.660156 96.449219 95.710938 96.832031 95.503906 97.105469 Z M 89.816406 104.539062 "/>
<path style=" stroke:none;fill-rule:nonzero;fill:rgb(82.745098%,82.745098%,82.745098%);fill-opacity:1;" d="M 93.535156 95.332031 L 95.117188 92.832031 L 98.449219 94.945312 L 96.859375 97.445312 Z M 93.535156 95.332031 "/>
<path style=" stroke:none;fill-rule:nonzero;fill:rgb(47.058824%,12.941176%,12.941176%);fill-opacity:1;" d="M 111.117188 103.644531 C 111.34375 103.894531 111.738281 103.917969 111.988281 103.683594 C 112.238281 103.457031 112.261719 103.066406 112.027344 102.816406 L 105.710938 95.894531 C 105.476562 95.644531 105.089844 95.628906 104.839844 95.855469 C 104.589844 96.082031 104.566406 96.472656 104.800781 96.726562 Z M 111.117188 103.644531 "/>
<path style=" stroke:none;fill-rule:nonzero;fill:rgb(100%,100%,100%);fill-opacity:1;" d="M 101.199219 96.332031 L 104.0625 93.621094 L 106.101562 95.773438 L 103.238281 98.484375 Z M 102.390625 100.777344 L 109.859375 93.601562 L 111.738281 95.554688 L 104.261719 102.726562 Z M 102.390625 100.777344 "/>
<path style=" stroke:none;fill-rule:nonzero;fill:rgb(70.196078%,29.411765%,0%);fill-opacity:1;" d="M 92.707031 114.433594 C 92.707031 114.433594 96.761719 116.300781 100.234375 116.382812 C 103.707031 116.464844 104.570312 115.894531 104.570312 115.894531 L 103.582031 117.816406 L 95.121094 117.816406 Z M 92.707031 114.433594 "/>
<path style=" stroke:none;fill-rule:nonzero;fill:rgb(100%,100%,100%);fill-opacity:1;" d="M 94.039062 114.171875 L 96.167969 115.699219 L 104.039062 115.699219 L 102.972656 110.496094 L 96.167969 110.816406 Z M 94.039062 114.171875 "/>
<path style=" stroke:none;fill-rule:nonzero;fill:rgb(53.72549%,14.901961%,7.843137%);fill-opacity:1;" d="M 79.003906 76.34375 C 81.339844 75.214844 85.777344 72.734375 86.457031 72.355469 C 87.132812 71.976562 88.261719 73.332031 87.210938 73.789062 C 86.15625 74.238281 80.589844 77.550781 79.003906 78.300781 C 77.429688 79.050781 79.003906 76.34375 79.003906 76.34375 Z M 79.003906 76.34375 "/>
<path style=" stroke:none;fill-rule:nonzero;fill:rgb(98.431373%,83.137255%,30.196078%);fill-opacity:1;" d="M 70.878906 120.320312 C 70.578125 122.527344 69.273438 124.738281 71.785156 125.433594 C 74.289062 126.140625 74.761719 123.804688 74.078125 121.710938 C 73.390625 119.617188 70.878906 120.320312 70.878906 120.320312 Z M 79.609375 120.207031 C 79.210938 121.128906 78.003906 123.144531 80.410156 122.882812 C 82.820312 122.621094 84.328125 122.644531 85.828125 122.882812 C 87.339844 123.132812 88.238281 121.496094 86.632812 121.5625 C 85.027344 121.628906 83.820312 121.039062 83.214844 119.542969 C 82.617188 118.054688 79.609375 120.207031 79.609375 120.207031 Z M 73.714844 92.476562 L 73 88.589844 C 73 88.589844 70.972656 90.660156 70.273438 91.667969 C 69.570312 92.671875 68.179688 91.214844 67.371094 90.5625 C 66.566406 89.910156 65.667969 87.90625 65.464844 86.199219 C 65.265625 84.496094 63.253906 83.496094 63.960938 82.289062 C 64.660156 81.082031 65.265625 80.484375 66.472656 80.484375 C 67.671875 80.484375 67.976562 82.089844 67.976562 82.089844 C 67.976562 82.089844 70.300781 82.382812 69.382812 83.496094 C 67.128906 86.234375 68.910156 86.695312 68.910156 86.695312 L 70.277344 85 C 70.277344 85 69.773438 81.789062 70.277344 81.1875 C 70.785156 80.582031 73.792969 79.484375 74.800781 79.378906 C 75.804688 79.277344 77.011719 78.378906 76.554688 77.773438 C 76.105469 77.171875 75.101562 76.066406 75.101562 74.753906 C 75.101562 73.457031 74.644531 70.644531 77.582031 71.050781 C 80.523438 71.449219 81.527344 73.355469 80.722656 74.960938 C 79.917969 76.566406 79.523438 77.066406 79.816406 77.972656 C 80.117188 78.878906 80.207031 79.976562 82.167969 80.078125 C 84.128906 80.179688 84.503906 80.804688 84.804688 82.511719 C 85.105469 84.214844 85.132812 85.09375 85.035156 86.5 C 84.929688 87.90625 85.039062 88.40625 85.039062 88.40625 C 85.039062 88.40625 86.839844 88.054688 88.140625 88.253906 C 89.445312 88.457031 92.15625 90.117188 92.15625 90.117188 L 85.632812 90.117188 L 85.132812 92.226562 C 85.132812 92.226562 84.429688 93.035156 84.128906 92.929688 C 83.828125 92.820312 82.167969 90.214844 82.167969 90.214844 L 81.421875 92.929688 Z M 73.714844 92.476562 "/>
<path style=" stroke:none;fill-rule:nonzero;fill:rgb(82.745098%,82.745098%,82.745098%);fill-opacity:1;" d="M 73.183594 92.226562 C 72.082031 94.632812 71.078125 99.851562 71.277344 102.65625 C 71.476562 105.460938 72.027344 108.371094 71.25 110.976562 C 70.472656 113.59375 69.371094 121.015625 69.371094 121.015625 L 72.183594 122.929688 L 75.292969 120.921875 L 75.792969 109.183594 L 77.570312 103.371094 L 79.304688 107.578125 L 78.601562 120.621094 L 83.714844 120.527344 C 83.714844 120.527344 83.3125 108.484375 83.210938 106.582031 C 83.109375 104.679688 82.398438 98.855469 82.15625 97.050781 C 81.910156 95.246094 81.410156 92.9375 81.410156 92.9375 Z M 73.183594 92.226562 "/>
<path style=" stroke:none;fill-rule:nonzero;fill:rgb(60.784314%,37.254902%,0%);fill-opacity:1;" d="M 73.390625 91.722656 C 73.390625 91.722656 75.457031 92.289062 77.578125 92.226562 C 79.792969 92.160156 82.070312 91.464844 82.117188 91.722656 C 82.222656 92.226562 82.117188 93.933594 82.117188 93.933594 C 82.117188 93.933594 80.253906 93.527344 77.777344 93.933594 C 75.300781 94.332031 74.292969 94.234375 73.390625 93.933594 C 72.484375 93.632812 73.390625 91.722656 73.390625 91.722656 Z M 73.390625 91.722656 "/>
<path style=" stroke:none;fill-rule:nonzero;fill:rgb(0%,0%,0%);fill-opacity:1;" d="M 78.277344 69.445312 C 80.488281 69.445312 81.449219 71.148438 81.351562 72.957031 C 81.25 74.761719 80.707031 75.265625 80.707031 75.265625 C 80.707031 75.265625 81.066406 73.3125 79.910156 74.261719 L 79.910156 72.355469 C 79.910156 72.355469 77.398438 72.554688 76.550781 72.355469 C 75.695312 72.15625 75.195312 71.957031 75.195312 71.957031 L 74.84375 73.3125 C 74.84375 73.3125 73.683594 71.957031 74.789062 70.648438 C 75.894531 69.351562 77.753906 69.445312 77.753906 69.445312 "/>
<path style=" stroke:none;fill-rule:nonzero;fill:rgb(53.72549%,14.901961%,7.843137%);fill-opacity:1;" d="M 61.320312 85.828125 C 62.34375 84.320312 64.183594 83.195312 64.183594 83.195312 C 64.183594 83.195312 64.484375 83.566406 65.539062 83.195312 C 66.59375 82.816406 66.515625 82.515625 67.121094 82.289062 C 67.722656 82.0625 67.648438 81.382812 67.648438 81.382812 C 67.648438 81.382812 71.1875 79.949219 72.695312 79.273438 C 74.199219 78.59375 75.933594 77.542969 75.933594 77.542969 L 76.609375 78.070312 C 76.609375 78.070312 76.609375 79.199219 76.011719 79.570312 C 75.40625 79.949219 70.894531 82.210938 70.515625 82.511719 C 70.140625 82.8125 69.3125 83.109375 69.3125 83.109375 C 69.3125 83.109375 68.9375 82.355469 68.5625 82.660156 C 68.183594 82.960938 67.957031 83.789062 67.957031 83.789062 C 67.957031 83.789062 66.449219 84.464844 65.542969 85.070312 C 64.640625 85.671875 63.589844 87.785156 62.609375 88.234375 C 61.621094 88.683594 60.9375 86.394531 61.320312 85.828125 Z M 61.320312 85.828125 "/>
<path style=" stroke:none;fill-rule:nonzero;fill:rgb(82.745098%,82.745098%,82.745098%);fill-opacity:1;" d="M 82.972656 73.789062 C 83.523438 73.261719 85.550781 71.839844 86.042969 72.589844 C 86.535156 73.339844 87.289062 77.476562 89.695312 77.101562 C 89.695312 77.101562 88.265625 78.378906 87.0625 78.976562 C 85.855469 79.578125 83.722656 79.734375 83.722656 79.734375 C 83.722656 79.734375 83.695312 77.777344 83.722656 76.648438 C 83.75 75.515625 82.972656 73.789062 82.972656 73.789062 Z M 82.972656 73.789062 "/>
<path style=" stroke:none;fill-rule:nonzero;fill:rgb(70.196078%,29.411765%,0%);fill-opacity:1;" d="M 106.328125 68.445312 C 107.15625 68.066406 115.320312 72.433594 116.695312 73.035156 C 118.066406 73.632812 118.894531 76.042969 120.253906 76.570312 C 121.605469 77.101562 120.476562 78 119.65625 77.550781 C 118.828125 77.09375 117.015625 77.25 115.433594 76.722656 C 113.855469 76.195312 105.398438 71.6875 105.171875 71.015625 C 104.949219 70.339844 106.328125 68.445312 106.328125 68.445312 Z M 106.328125 68.445312 "/>
<path style=" stroke:none;fill-rule:nonzero;fill:rgb(53.72549%,14.901961%,7.843137%);fill-opacity:1;" d="M 129.035156 120.320312 C 129.332031 122.527344 130.640625 124.738281 128.128906 125.433594 C 125.621094 126.140625 125.15625 123.804688 125.84375 121.710938 C 126.515625 119.617188 129.035156 120.320312 129.035156 120.320312 Z M 120.300781 120.207031 C 120.699219 121.128906 121.898438 123.144531 119.496094 122.882812 C 117.082031 122.621094 115.582031 122.644531 114.070312 122.882812 C 112.566406 123.132812 111.667969 121.496094 113.273438 121.5625 C 114.871094 121.628906 116.089844 121.039062 116.683594 119.542969 C 117.292969 118.054688 120.300781 120.207031 120.300781 120.207031 Z M 126.195312 92.476562 L 126.910156 88.589844 C 126.910156 88.589844 128.523438 90.207031 129.226562 91.210938 C 129.929688 92.210938 131.566406 92.320312 132.359375 91.667969 C 133.171875 91.015625 134.25 87.90625 134.449219 86.207031 C 134.644531 84.5 136.550781 84.800781 135.84375 83.59375 C 135.144531 82.390625 134.394531 81.617188 133.1875 81.617188 C 131.984375 81.617188 131.9375 82.089844 131.9375 82.089844 C 131.9375 82.089844 130.40625 82.488281 131.003906 83.792969 C 131.605469 85.101562 130.828125 86.851562 130.828125 86.851562 L 129.632812 85.828125 C 129.632812 85.828125 129.253906 81.988281 128.75 81.390625 C 128.238281 80.785156 126.117188 79.484375 125.117188 79.378906 C 124.109375 79.277344 122.910156 78.378906 123.359375 77.773438 C 123.816406 77.171875 124.816406 76.066406 124.816406 74.753906 C 124.816406 73.457031 125.277344 70.644531 122.339844 71.050781 C 119.398438 71.449219 118.394531 73.355469 119.207031 74.960938 C 120 76.566406 119.878906 77.167969 119.578125 78.070312 C 119.273438 78.972656 119.710938 79.976562 117.75 80.078125 C 115.792969 80.179688 115.132812 81.210938 114.832031 82.917969 C 114.535156 84.621094 114.789062 85.09375 114.890625 86.5 C 114.996094 87.90625 114.878906 88.40625 114.878906 88.40625 C 114.878906 88.40625 113.082031 88.054688 111.777344 88.253906 C 110.472656 88.457031 107.761719 90.117188 107.761719 90.117188 L 114.285156 90.117188 L 114.789062 92.226562 C 114.789062 92.226562 115.488281 93.035156 115.792969 92.929688 C 116.101562 92.820312 117.75 90.214844 117.75 90.214844 L 118.5 92.929688 Z M 126.195312 92.476562 "/>
<path style=" stroke:none;fill-rule:nonzero;fill:rgb(82.745098%,82.745098%,82.745098%);fill-opacity:1;" d="M 126.722656 92.226562 C 127.820312 94.632812 128.828125 99.851562 128.628906 102.65625 C 128.429688 105.460938 127.871094 108.371094 128.65625 110.976562 C 129.433594 113.59375 130.535156 121.015625 130.535156 121.015625 L 127.726562 122.929688 L 124.617188 120.921875 L 124.117188 109.183594 L 122.339844 103.371094 L 120.605469 107.578125 L 121.3125 120.621094 L 116.1875 120.527344 C 116.1875 120.527344 116.589844 108.484375 116.695312 106.582031 C 116.800781 104.679688 117.503906 98.855469 117.75 97.050781 C 118 95.246094 118.5 92.9375 118.5 92.9375 Z M 126.722656 92.226562 "/>
<path style=" stroke:none;fill-rule:nonzero;fill:rgb(60.784314%,37.254902%,0%);fill-opacity:1;" d="M 126.515625 91.722656 C 126.515625 91.722656 124.457031 92.289062 122.332031 92.226562 C 120.121094 92.160156 117.839844 91.464844 117.789062 91.722656 C 117.695312 92.226562 117.789062 93.933594 117.789062 93.933594 C 117.789062 93.933594 119.65625 93.527344 122.132812 93.933594 C 124.609375 94.332031 125.617188 94.234375 126.515625 93.933594 C 127.429688 93.632812 126.515625 91.722656 126.515625 91.722656 Z M 126.515625 91.722656 "/>
<path style=" stroke:none;fill-rule:nonzero;fill:rgb(0%,0%,0%);fill-opacity:1;" d="M 121.632812 69.445312 C 119.433594 69.445312 118.460938 71.148438 118.5625 72.957031 C 118.660156 74.761719 119.179688 75.265625 119.179688 75.265625 C 119.179688 75.265625 118.746094 73.3125 119.949219 74.261719 L 119.949219 72.355469 C 119.949219 72.355469 122.484375 72.554688 123.332031 72.355469 C 124.1875 72.15625 124.707031 71.957031 124.707031 71.957031 L 125.054688 73.3125 C 125.054688 73.3125 126.210938 71.957031 125.109375 70.648438 C 124.003906 69.351562 122.148438 69.445312 122.148438 69.445312 "/>
<path style=" stroke:none;fill-rule:nonzero;fill:rgb(70.196078%,29.411765%,0%);fill-opacity:1;" d="M 123.359375 77.550781 L 131.605469 81.976562 C 131.605469 81.976562 130.511719 81.972656 130.535156 82.921875 C 130.5625 83.871094 123.785156 79.734375 123.785156 79.734375 Z M 134.921875 84.171875 L 137.484375 85 C 137.484375 85 137.789062 84.171875 138.535156 84.582031 C 139.289062 85 138.160156 88.351562 137.632812 88.292969 C 137.105469 88.234375 136.503906 87.40625 136.429688 86.734375 C 136.351562 86.054688 134.09375 85.148438 134.09375 85.148438 Z M 134.921875 84.171875 "/>
</g>
</svg>
