<?xml version="1.0" encoding="UTF-8"?>
<svg xmlns="http://www.w3.org/2000/svg" xmlns:xlink="http://www.w3.org/1999/xlink" width="200px" height="px" viewBox="0 0 200 200" version="1.1">
<g id="surface1">
<path style=" stroke:none;fill-rule:nonzero;fill:rgb(93.333333%,93.333333%,93.333333%);fill-opacity:1;" d="M 200 150 C 200 162.273438 190.050781 172.222656 177.777344 172.222656 L 22.222656 172.222656 C 9.949219 172.222656 0 162.273438 0 150 L 0 50 C 0 37.726562 9.949219 27.777344 22.222656 27.777344 L 177.777344 27.777344 C 190.050781 27.777344 200 37.726562 200 50 Z M 200 150 "/>
<path style=" stroke:none;fill-rule:evenodd;fill:rgb(36.078431%,56.862745%,23.137255%);fill-opacity:1;" d="M 72.078125 123.042969 C 72.148438 123.382812 72.035156 123.445312 71.671875 123.339844 C 69.699219 122.785156 67.949219 121.894531 66.722656 120.183594 C 66.316406 119.628906 66.054688 119 65.898438 118.328125 C 65.828125 118 65.890625 117.828125 66.277344 117.929688 C 68.5625 118.488281 70.382812 119.726562 71.667969 121.714844 C 71.917969 122.105469 72.066406 122.550781 72.078125 123.042969 Z M 119.128906 123.429688 C 119.011719 122.8125 119.171875 122.246094 119.484375 121.746094 C 120.761719 119.726562 122.605469 118.5 124.910156 117.910156 C 125.316406 117.8125 125.328125 118.027344 125.261719 118.320312 C 124.972656 119.632812 124.238281 120.667969 123.226562 121.5 C 122.035156 122.484375 120.648438 123.078125 119.128906 123.429688 Z M 124.40625 124.707031 C 124.367188 124.921875 124.234375 125.082031 124.078125 125.214844 C 122.445312 126.710938 120.566406 127.539062 118.3125 127.320312 C 117.746094 127.265625 117.238281 127.027344 116.765625 126.695312 C 116.515625 126.523438 116.535156 126.398438 116.761719 126.207031 C 117.582031 125.5 118.535156 125.054688 119.566406 124.785156 C 120.984375 124.417969 122.421875 124.316406 123.878906 124.554688 C 124.0625 124.578125 124.238281 124.609375 124.40625 124.707031 Z M 69.105469 124.433594 C 70.640625 124.457031 72.351562 124.773438 73.871094 125.789062 C 74.148438 125.972656 74.609375 126.179688 74.582031 126.449219 C 74.550781 126.765625 74.082031 126.917969 73.753906 127.054688 C 72.820312 127.464844 71.859375 127.457031 70.894531 127.226562 C 69.4375 126.882812 68.121094 126.261719 67.066406 125.179688 C 66.9375 125.050781 66.738281 124.894531 66.8125 124.710938 C 66.867188 124.570312 67.105469 124.582031 67.273438 124.550781 C 67.792969 124.445312 68.320312 124.433594 69.105469 124.433594 Z M 75.167969 122.300781 C 75.167969 122.820312 75.101562 123.320312 74.921875 123.804688 C 74.816406 124.089844 74.6875 124.132812 74.4375 123.945312 C 73.648438 123.359375 73.179688 122.554688 72.855469 121.65625 C 72.320312 120.171875 72.070312 118.648438 72.457031 117.089844 C 72.589844 116.542969 72.648438 116.535156 73.035156 116.9375 C 74.457031 118.445312 75.035156 120.277344 75.167969 122.300781 Z M 116 122.132812 C 116.15625 120.253906 116.722656 118.433594 118.128906 116.957031 C 118.535156 116.523438 118.609375 116.535156 118.714844 117.105469 C 119.15625 119.394531 118.738281 121.511719 117.328125 123.390625 C 117.109375 123.683594 116.777344 124.117188 116.472656 124.027344 C 116.105469 123.929688 116.128906 123.390625 116.0625 123.003906 C 116.003906 122.765625 116.023438 122.503906 116 122.132812 Z M 103.621094 125.578125 C 103.800781 128.640625 102.351562 130.839844 100.265625 132.816406 C 99.605469 130.417969 100.785156 126.722656 103.621094 125.578125 Z M 90.945312 132.878906 C 88.933594 130.921875 87.457031 128.859375 87.535156 126.011719 C 87.542969 125.589844 87.679688 125.578125 88.003906 125.773438 C 89.949219 126.933594 90.828125 128.710938 91.039062 130.882812 C 91.105469 131.5 91.101562 132.128906 90.945312 132.878906 Z M 111.09375 122.277344 C 111.464844 123.351562 111.421875 124.429688 111.207031 125.511719 C 110.9375 126.84375 110.410156 128.050781 109.398438 129.003906 C 108.898438 129.472656 108.820312 129.460938 108.5625 128.8125 C 108.234375 128 108.265625 127.160156 108.472656 126.339844 C 108.839844 124.859375 109.582031 123.59375 110.6875 122.550781 C 110.765625 122.472656 110.839844 122.410156 110.921875 122.34375 Z M 80.039062 122.234375 C 81.890625 123.472656 83.1875 126.476562 82.75 128.34375 C 82.667969 128.710938 82.59375 129.210938 82.277344 129.3125 C 81.984375 129.398438 81.695312 128.964844 81.472656 128.695312 C 79.917969 126.800781 79.523438 124.667969 80.039062 122.234375 Z M 111.273438 130.179688 C 113.082031 130.289062 114.644531 130.9375 115.851562 132.351562 C 116.238281 132.804688 116.210938 132.851562 115.621094 133.011719 C 114.117188 133.421875 112.722656 133.042969 111.367188 132.417969 C 110.617188 132.0625 109.933594 131.617188 109.332031 131.050781 C 109.082031 130.820312 109.089844 130.683594 109.421875 130.550781 C 110.015625 130.316406 110.621094 130.167969 111.273438 130.179688 Z M 79.917969 130.1875 C 80.503906 130.179688 81.070312 130.289062 81.617188 130.503906 C 82.132812 130.710938 82.15625 130.777344 81.746094 131.121094 C 80.589844 132.132812 79.265625 132.804688 77.753906 133.082031 C 77.003906 133.222656 76.261719 133.210938 75.527344 132.996094 C 74.957031 132.832031 74.933594 132.800781 75.328125 132.332031 C 76.234375 131.238281 77.4375 130.628906 78.800781 130.304688 C 79.167969 130.222656 79.542969 130.1875 79.917969 130.1875 Z M 112.0625 134.777344 C 109.929688 135.804688 106.816406 135.746094 105.289062 133.367188 C 105.078125 133.023438 105.132812 132.910156 105.5 132.820312 C 108.035156 132.238281 110.167969 132.988281 112.0625 134.777344 Z M 79.128906 134.800781 C 80.289062 133.5625 81.683594 132.898438 83.304688 132.671875 C 84.078125 132.5625 84.839844 132.605469 85.59375 132.800781 C 86.128906 132.929688 86.140625 132.960938 85.832031 133.40625 C 84.785156 134.945312 83.277344 135.5 81.488281 135.390625 C 80.6875 135.351562 79.90625 135.199219 79.128906 134.800781 Z M 86.898438 129.679688 C 86.878906 130.167969 86.792969 130.554688 86.648438 130.945312 C 86.535156 131.261719 86.398438 131.289062 86.144531 131.078125 C 85.214844 130.304688 84.601562 129.320312 84.15625 128.210938 C 83.699219 127.082031 83.339844 125.933594 83.542969 124.683594 C 83.570312 124.535156 83.570312 124.316406 83.699219 124.273438 C 83.878906 124.195312 83.984375 124.410156 84.09375 124.523438 C 85.316406 125.726562 86.351562 127.039062 86.777344 128.746094 C 86.828125 128.9375 86.851562 129.132812 86.878906 129.34375 Z M 104.277344 129.699219 C 104.273438 128.890625 104.515625 128.128906 104.890625 127.398438 C 105.457031 126.285156 106.25 125.328125 107.148438 124.449219 C 107.417969 124.199219 107.535156 124.179688 107.617188 124.578125 C 107.800781 125.445312 107.644531 126.285156 107.410156 127.105469 C 106.988281 128.582031 106.328125 129.929688 105.148438 130.976562 C 104.714844 131.355469 104.679688 131.332031 104.472656 130.804688 C 104.332031 130.445312 104.285156 130.078125 104.277344 129.699219 Z M 107.957031 137.464844 C 106.851562 137.542969 105.726562 137.582031 104.621094 137.273438 C 103.109375 136.839844 102.167969 135.777344 101.488281 134.417969 C 101.390625 134.222656 101.378906 134.101562 101.660156 134.101562 C 104.277344 134.109375 106.355469 135.183594 107.921875 137.246094 C 107.957031 137.277344 107.964844 137.332031 107.988281 137.382812 C 107.988281 137.398438 107.972656 137.421875 107.957031 137.464844 Z M 83.117188 137.511719 C 83.457031 136.816406 83.898438 136.394531 84.378906 136 C 85.816406 134.816406 87.433594 134.089844 89.339844 134.101562 C 89.660156 134.101562 89.820312 134.121094 89.621094 134.5 C 88.65625 136.410156 87.148438 137.460938 84.988281 137.496094 C 84.394531 137.523438 83.800781 137.511719 83.117188 137.511719 Z M 113.089844 126.777344 C 112.355469 125.695312 112.300781 124.542969 112.582031 123.359375 C 112.878906 122.09375 113.523438 120.996094 114.378906 120.015625 C 114.609375 119.746094 114.726562 119.789062 114.882812 120.070312 C 115.285156 120.8125 115.339844 121.589844 115.214844 122.40625 C 114.960938 124.078125 114.234375 125.5 113.089844 126.777344 Z M 76.515625 119.804688 C 78.246094 121.300781 79.589844 124.734375 78.105469 126.714844 C 76.171875 125.238281 75.265625 121.289062 76.515625 119.804688 Z M 73.726562 130.15625 C 72.945312 130.132812 72.027344 130.042969 71.222656 129.527344 C 70.710938 129.199219 70.722656 129.15625 71.160156 128.777344 C 72.160156 127.898438 73.34375 127.789062 74.582031 127.972656 C 75.527344 128.109375 76.445312 128.382812 77.367188 128.621094 C 77.683594 128.710938 77.679688 128.816406 77.496094 129.035156 C 77.078125 129.5 76.523438 129.707031 75.945312 129.878906 C 75.273438 130.078125 74.578125 130.15625 73.726562 130.15625 Z M 117.289062 130.15625 C 116.292969 130.132812 115.371094 130.027344 114.503906 129.609375 L 114.226562 129.472656 C 113.949219 129.3125 113.5625 129.128906 113.578125 128.8125 C 113.59375 128.527344 114.039062 128.570312 114.300781 128.503906 C 115.503906 128.1875 116.699219 127.820312 117.964844 127.921875 C 118.746094 127.988281 119.417969 128.277344 120.003906 128.777344 C 120.449219 129.15625 120.457031 129.199219 119.945312 129.527344 C 119.121094 130.054688 118.1875 130.132812 117.289062 130.15625 Z M 117.289062 130.15625 "/>
<path style=" stroke:none;fill-rule:evenodd;fill:rgb(36.078431%,56.862745%,23.137255%);fill-opacity:1;" d="M 100.148438 136.417969 C 98.761719 136.078125 97.359375 135.746094 95.972656 135.394531 C 95.699219 135.328125 95.445312 135.328125 95.171875 135.394531 C 93.785156 135.75 92.382812 136.078125 90.976562 136.394531 C 91.855469 135.699219 92.855469 135.253906 94.039062 134.894531 L 89.511719 133.320312 C 90.066406 133.234375 90.429688 133.410156 90.792969 133.503906 C 92.25 133.882812 93.714844 134.199219 95.195312 134.484375 C 95.828125 134.601562 96.417969 134.394531 97.015625 134.277344 C 98.789062 133.933594 100.542969 133.472656 102.304688 133.027344 C 100.644531 133.722656 98.929688 134.265625 97.105469 134.882812 C 98.261719 135.253906 99.265625 135.679688 100.148438 136.417969 Z M 100.148438 136.417969 "/>
<path style=" stroke:none;fill-rule:evenodd;fill:rgb(95.686275%,56.470588%,4.705882%);fill-opacity:1;" d="M 143.1875 61.746094 L 142.359375 62.148438 C 140.871094 62.851562 139.464844 63.8125 137.707031 63.695312 C 137.539062 63.683594 137.34375 63.773438 137.3125 63.960938 C 137.195312 64.515625 136.773438 64.582031 136.332031 64.589844 C 135.484375 64.605469 134.851562 64.960938 134.355469 65.660156 C 133.804688 66.429688 133.109375 67.015625 132.144531 67.222656 C 131.832031 67.289062 131.542969 67.464844 131.273438 67.632812 C 130.464844 68.121094 129.609375 68.351562 128.679688 68.253906 C 128.371094 68.222656 128.171875 68.316406 127.988281 68.566406 C 127.5625 69.140625 127.089844 69.6875 126.632812 70.238281 C 126.382812 70.535156 126.109375 70.828125 125.738281 70.898438 C 124.496094 71.144531 123.503906 71.90625 122.429688 72.488281 C 120.417969 73.578125 118.394531 74.65625 116.140625 75.183594 C 115.207031 75.398438 114.214844 75.667969 113.304688 75.421875 C 112.554688 75.222656 112.09375 75.472656 111.589844 75.839844 C 111.277344 76.054688 110.976562 76.285156 110.710938 76.542969 C 109.660156 77.566406 108.4375 78.023438 106.972656 77.832031 C 106.699219 77.792969 106.429688 77.800781 106.179688 77.9375 C 104.957031 78.605469 103.578125 78.621094 102.253906 78.878906 C 101.65625 79 101.039062 78.785156 100.464844 78.921875 C 99.101562 79.238281 97.761719 78.867188 96.433594 78.746094 C 95.449219 78.648438 94.484375 78.421875 93.488281 78.582031 C 92.882812 78.683594 92.367188 78.535156 91.921875 78.132812 C 91.488281 77.746094 91.050781 77.714844 90.5625 78 C 90.144531 78.246094 89.699219 78.261719 89.285156 78.039062 C 88.792969 77.785156 88.316406 77.773438 87.800781 77.917969 C 87.171875 78.089844 86.527344 78.207031 85.882812 77.996094 C 84.378906 77.511719 82.820312 77.15625 81.378906 76.488281 C 80.683594 76.167969 80.683594 76.1875 80.75 76.976562 C 80.828125 77.894531 81.144531 78.773438 81.109375 79.710938 C 81.066406 80.996094 81.011719 82.273438 80.910156 83.554688 C 80.765625 85.460938 79.777344 86.746094 78.144531 87.640625 C 77.527344 87.976562 76.976562 87.976562 76.355469 87.679688 C 75.222656 87.121094 74.105469 86.535156 72.917969 86.089844 C 71.398438 85.523438 69.910156 85.382812 68.382812 86.042969 C 67.859375 86.273438 67.410156 86.761719 66.75 86.59375 C 66.710938 86.582031 66.640625 86.667969 66.59375 86.710938 C 66.0625 87.265625 65.503906 87.804688 65.300781 88.582031 C 65 89.699219 64.511719 90.65625 63.390625 91.222656 C 62.773438 91.535156 62.265625 92.054688 61.628906 92.355469 C 60.75 92.765625 59.679688 92.832031 59.042969 92.253906 C 58.292969 91.566406 57.195312 91.15625 56.84375 90.050781 C 56.777344 89.84375 56.539062 89.6875 56.398438 90 C 56.101562 90.6875 55.8125 91.398438 56.167969 92.167969 C 56.429688 92.726562 56.707031 93.277344 57.140625 93.722656 C 57.273438 93.859375 57.355469 94.027344 57.394531 94.214844 C 57.523438 94.859375 57.566406 95.511719 57.40625 96.148438 C 57.3125 96.527344 57.371094 96.851562 57.570312 97.171875 C 57.714844 97.40625 57.984375 97.738281 57.855469 97.90625 C 57.34375 98.5625 57.820312 98.972656 58.121094 99.445312 C 58.144531 99.488281 58.179688 99.539062 58.179688 99.589844 C 58.15625 100.355469 58.707031 100.628906 59.285156 100.882812 C 59.628906 101.039062 59.976562 101.210938 60.101562 101.609375 C 60.429688 102.679688 60.570312 103.792969 60.949219 104.859375 C 61.078125 105.222656 61.160156 105.472656 61.503906 105.667969 C 62.289062 106.101562 63.121094 106.460938 63.605469 107.316406 C 63.832031 107.714844 64.355469 107.839844 64.84375 107.785156 C 65.035156 107.761719 65.265625 107.683594 65.367188 107.859375 C 65.601562 108.238281 65.972656 108.238281 66.3125 108.207031 C 67.105469 108.117188 67.667969 108.457031 68.117188 109.0625 C 68.351562 109.378906 68.648438 109.570312 69.023438 109.6875 C 69.832031 109.960938 70.644531 110.234375 71.417969 110.589844 C 71.878906 110.804688 72.328125 110.882812 72.765625 110.535156 C 72.882812 110.445312 73.015625 110.433594 73.15625 110.457031 C 73.898438 110.59375 74.535156 110.378906 75.09375 109.878906 C 75.320312 109.671875 75.601562 109.535156 75.894531 109.671875 C 76.390625 109.898438 76.855469 109.789062 77.34375 109.671875 C 77.882812 109.535156 78.449219 109.488281 78.945312 109.773438 C 79.867188 110.292969 80.445312 111.148438 81.011719 112.015625 C 81.378906 112.570312 81.371094 113.179688 81.265625 113.792969 C 81.226562 114.011719 81.304688 114.042969 81.5 114.054688 C 82.5625 114.132812 83.628906 114.226562 84.714844 114.328125 C 84.621094 113.964844 84.359375 113.734375 84.171875 113.460938 C 83.753906 112.832031 83.488281 112.148438 83.734375 111.421875 C 84.15625 110.160156 85.066406 109.25 86.226562 108.699219 C 86.714844 108.460938 87.246094 108.253906 87.738281 108.015625 C 89.128906 107.332031 90.554688 107.417969 91.996094 107.832031 C 92.75 108.050781 93.644531 107.765625 94.117188 107.171875 C 94.210938 107.050781 94.34375 107.011719 94.472656 107 C 94.859375 106.945312 95.265625 106.882812 95.644531 107 C 96.050781 107.140625 96.378906 107.140625 96.679688 106.761719 C 96.8125 106.601562 97.0625 106.554688 97.289062 106.566406 C 97.4375 106.566406 97.570312 106.566406 97.699219 106.429688 C 98.050781 106.015625 98.539062 105.859375 99.050781 105.746094 C 99.167969 105.722656 99.289062 105.734375 99.378906 105.628906 C 100.128906 104.6875 101.214844 104.433594 102.316406 104.210938 C 102.710938 104.128906 102.984375 103.964844 103.210938 103.632812 C 104.015625 102.464844 104.816406 102.171875 106.1875 102.535156 C 106.535156 102.628906 106.621094 102.503906 106.707031 102.214844 C 106.851562 101.695312 107.082031 101.207031 107.566406 100.929688 C 107.839844 100.773438 107.90625 100.582031 107.90625 100.3125 C 107.910156 99.523438 107.921875 98.734375 107.9375 97.949219 C 107.976562 96.128906 109.316406 95.179688 110.707031 94.957031 C 111.554688 94.820312 112.417969 94.917969 113.265625 94.933594 C 113.855469 94.949219 114.378906 95.105469 114.859375 95.421875 C 115.300781 95.714844 115.699219 96.0625 116.144531 96.355469 C 116.578125 96.65625 117.023438 96.628906 117.488281 96.371094 C 117.890625 96.148438 118.070312 95.859375 117.949219 95.40625 C 117.878906 95.121094 118.023438 95.039062 118.285156 95.054688 C 118.679688 95.082031 119.132812 95.183594 119.445312 94.964844 C 120.167969 94.476562 120.898438 94.722656 121.628906 94.773438 C 121.90625 94.789062 122.195312 94.785156 122.429688 94.929688 C 123.027344 95.316406 123.8125 95.277344 124.378906 95.753906 C 124.417969 95.789062 124.496094 95.761719 124.6875 95.761719 C 124.394531 95.605469 124.421875 95.4375 124.464844 95.246094 C 124.566406 94.789062 124.464844 94.351562 124.199219 93.972656 C 123.761719 93.34375 122.972656 92.976562 122.851562 92.105469 C 122.820312 91.9375 122.539062 91.792969 122.367188 91.660156 C 122.027344 91.398438 121.679688 91.15625 121.332031 90.898438 C 121.128906 90.746094 120.917969 90.566406 120.859375 90.3125 C 120.65625 89.304688 119.960938 88.65625 119.273438 87.988281 C 117.929688 86.683594 117.355469 85.117188 117.671875 83.238281 C 117.773438 82.628906 117.832031 81.996094 118.25 81.515625 C 118.617188 81.09375 119.054688 80.753906 119.015625 80.128906 C 119.011719 80.054688 119.078125 79.957031 119.132812 79.910156 C 119.859375 79.3125 120.570312 78.695312 121.632812 78.910156 C 122.089844 79.003906 122.5625 79.003906 123.011719 78.929688 C 123.617188 78.832031 124.089844 78.523438 124.261719 77.867188 C 124.351562 77.523438 124.417969 77.148438 124.605469 76.851562 C 125.589844 75.246094 127.023438 74.066406 128.566406 73.054688 C 129.199219 72.640625 129.972656 72.359375 130.679688 72.023438 C 131.128906 71.8125 131.566406 71.5625 132.0625 71.496094 C 132.378906 71.449219 132.570312 71.304688 132.761719 71.066406 C 133.640625 69.917969 134.582031 68.839844 136.078125 68.449219 C 136.488281 68.34375 136.683594 67.984375 136.832031 67.601562 C 137.015625 67.101562 137.195312 66.554688 137.65625 66.265625 C 139.09375 65.359375 140.332031 64.054688 142.183594 63.957031 C 142.582031 63.9375 142.800781 63.710938 142.898438 63.332031 L 143.289062 61.792969 C 143.304688 61.773438 143.351562 61.738281 143.34375 61.726562 C 143.285156 61.6875 143.234375 61.714844 143.1875 61.746094 Z M 143.1875 61.746094 "/>
</g>
</svg>
