<?xml version="1.0" encoding="UTF-8"?>
<svg xmlns="http://www.w3.org/2000/svg" xmlns:xlink="http://www.w3.org/1999/xlink" width="200px" height="200px" viewBox="0 0 200 200" version="1.1">
<g id="surface1">
<path style=" stroke:none;fill-rule:nonzero;fill:rgb(100%,71.764706%,0%);fill-opacity:1;" d="M 200 150 C 200 162.273438 190.050781 172.222656 177.777344 172.222656 L 22.222656 172.222656 C 9.949219 172.222656 0 162.273438 0 150 L 0 50 C 0 37.726562 9.949219 27.777344 22.222656 27.777344 L 177.777344 27.777344 C 190.050781 27.777344 200 37.726562 200 50 Z M 200 150 "/>
<path style=" stroke:none;fill-rule:nonzero;fill:rgb(55.294118%,12.941176%,16.078431%);fill-opacity:1;" d="M 177.777344 33.332031 L 55.554688 33.332031 L 55.554688 166.667969 L 177.777344 166.667969 C 186.964844 166.667969 194.445312 159.1875 194.445312 150 L 194.445312 50 C 194.445312 40.8125 186.964844 33.332031 177.777344 33.332031 Z M 177.777344 33.332031 "/>
<path style=" stroke:none;fill-rule:nonzero;fill:rgb(0%,33.72549%,25.490196%);fill-opacity:1;" d="M 22.222656 33.332031 C 13.035156 33.332031 5.554688 40.8125 5.554688 50 L 5.554688 150 C 5.554688 159.1875 13.035156 166.667969 22.222656 166.667969 L 27.777344 166.667969 L 27.777344 33.332031 Z M 22.222656 33.332031 "/>
<path style=" stroke:none;fill-rule:nonzero;fill:rgb(100%,35.686275%,0%);fill-opacity:1;" d="M 27.777344 33.332031 L 50 33.332031 L 50 166.667969 L 27.777344 166.667969 Z M 27.777344 33.332031 "/>
<path style=" stroke:none;fill-rule:nonzero;fill:rgb(100%,71.764706%,0%);fill-opacity:1;" d="M 73.328125 55.898438 C 73.328125 55.898438 72.957031 50.570312 73.132812 46.109375 C 73.25 43.15625 71.59375 39.582031 68.464844 40.101562 C 65.339844 40.617188 61.867188 39.984375 61.867188 39.984375 C 61.867188 39.984375 62.5625 42.003906 61.867188 43.917969 C 61.171875 45.828125 61.171875 49.816406 65.859375 50.339844 C 70.550781 50.867188 72.460938 53.292969 73.328125 55.898438 Z M 177.128906 55.898438 C 177.128906 55.898438 177.5 50.570312 177.320312 46.109375 C 177.207031 43.15625 178.859375 39.582031 181.988281 40.101562 C 185.117188 40.617188 188.589844 39.984375 188.589844 39.984375 C 188.589844 39.984375 187.894531 42.003906 188.589844 43.917969 C 189.285156 45.828125 189.285156 49.816406 184.59375 50.339844 C 179.90625 50.867188 177.996094 53.292969 177.128906 55.898438 Z M 73.328125 144.101562 C 73.328125 144.101562 72.957031 149.433594 73.132812 153.894531 C 73.25 156.851562 71.59375 160.421875 68.464844 159.898438 C 65.34375 159.378906 61.867188 160.015625 61.867188 160.015625 C 61.867188 160.015625 62.5625 157.988281 61.867188 156.078125 C 61.171875 154.167969 61.171875 150.179688 65.859375 149.65625 C 70.550781 149.132812 72.460938 146.699219 73.328125 144.101562 Z M 177.128906 144.101562 C 177.128906 144.101562 177.5 149.433594 177.320312 153.894531 C 177.207031 156.851562 178.859375 160.421875 181.988281 159.898438 C 185.109375 159.378906 188.589844 160.015625 188.589844 160.015625 C 188.589844 160.015625 187.894531 157.988281 188.589844 156.078125 C 189.285156 154.167969 189.285156 150.179688 184.59375 149.65625 C 179.90625 149.132812 177.996094 146.699219 177.128906 144.101562 Z M 102.253906 74.304688 C 102.253906 74.304688 105.554688 74.132812 108.855469 73.261719 C 112.15625 72.394531 111.109375 69.273438 111.109375 69.273438 C 111.109375 69.273438 114.0625 67.710938 115.800781 69.273438 C 117.535156 70.832031 119.621094 70.660156 118.578125 68.578125 C 121.699219 67.015625 123.089844 70.488281 123.089844 70.488281 C 123.089844 70.488281 124.648438 69.503906 125 68.171875 C 127.777344 67.882812 128.300781 70.660156 130.035156 70.3125 C 131.765625 69.960938 132.984375 68.148438 132.984375 68.148438 C 132.984375 68.148438 133.328125 73.089844 130.378906 74.304688 C 132.8125 77.429688 132.109375 83.503906 132.109375 85.070312 L 130.378906 84.027344 C 130.378906 84.027344 131.421875 88.890625 131.9375 89.582031 C 132.460938 90.277344 130.207031 89.582031 130.207031 89.582031 C 130.207031 89.582031 131.421875 92.882812 132.289062 93.40625 C 133.15625 93.929688 149.476562 92.359375 154.167969 92.359375 C 158.855469 92.359375 165.277344 91.667969 165.277344 87.5 C 165.277344 83.332031 159.894531 83.679688 153.820312 84.550781 C 147.746094 85.417969 143.753906 85.246094 141.320312 83.683594 C 138.890625 82.121094 136.117188 81.714844 136.34375 85.648438 C 132.640625 83.917969 135.300781 80.210938 135.300781 80.210938 C 135.300781 80.210938 131.070312 75.582031 133.765625 70.949219 C 136.457031 66.320312 146.871094 64.929688 154.167969 68.984375 C 161.460938 73.039062 164.351562 76.390625 167.359375 76.972656 C 167.246094 74.773438 170.949219 73.15625 171.410156 77.207031 C 171.871094 81.253906 166.777344 80.445312 164.582031 79.171875 C 162.390625 77.898438 158.449219 74.078125 158.449219 74.078125 C 158.449219 74.078125 158.332031 76.394531 159.839844 77.898438 C 155.671875 77.4375 154.75 74.3125 154.75 74.3125 C 154.75 74.3125 154.511719 77.660156 150.695312 77.777344 C 153.472656 74.539062 152.542969 71.878906 148.726562 70.488281 C 150.929688 73.84375 148.84375 76.738281 145.605469 77.199219 C 147.804688 74.078125 145.957031 70.488281 141.90625 69.792969 C 142.484375 72.339844 140.515625 73.035156 140.515625 73.035156 C 140.515625 73.035156 139.59375 70.714844 137.738281 71.988281 C 135.882812 73.261719 135.417969 76.042969 137.84375 77.777344 C 139.351562 74.765625 142.355469 75 143.398438 76.273438 C 140.277344 76.617188 140.394531 79.515625 141.550781 81.015625 C 142.707031 79.050781 143.867188 78.472656 145.023438 80.554688 C 146.179688 82.640625 149.648438 82.523438 155.898438 81.601562 C 162.148438 80.679688 167.90625 81.355469 168.859375 86.921875 C 169.671875 91.667969 164.929688 93.984375 164.929688 93.984375 C 164.929688 93.984375 171.0625 98.609375 167.128906 108.683594 C 163.195312 118.753906 164.816406 122.917969 166.316406 123.960938 C 167.816406 125.003906 170.140625 125.117188 167.011719 127.894531 C 163.882812 130.671875 164.695312 132.644531 165.964844 134.261719 C 167.238281 135.878906 166.894531 137.5 163.1875 135.417969 C 161.566406 137.039062 159.949219 136.570312 159.023438 135.183594 C 158.09375 136.457031 156.359375 136.804688 155.199219 135.417969 C 154.042969 136.34375 152.539062 136.34375 153.351562 134.371094 C 154.160156 132.398438 158.09375 131.59375 159.25 131.25 C 160.40625 130.90625 160.292969 128.816406 159.945312 126.503906 C 159.59375 124.195312 157.628906 121.761719 153.460938 119.5625 C 151.609375 120.949219 151.839844 122.566406 152.535156 123.382812 C 153.226562 124.199219 155.429688 124.429688 155.542969 125.117188 C 155.660156 125.804688 154.390625 127.316406 153 128.359375 C 151.609375 129.40625 151.84375 131.253906 152.304688 132.183594 C 152.765625 133.109375 153.34375 135.390625 151.839844 136.449219 C 150.332031 137.503906 148.832031 135.078125 148.832031 135.078125 C 148.832031 135.078125 147.898438 137.972656 145.246094 135.195312 C 143.738281 137.050781 142.238281 136.355469 141.542969 135.3125 C 140.039062 136.816406 137.722656 136.699219 138.882812 134.617188 C 140.042969 132.535156 141.429688 132.527344 143.050781 132.417969 C 144.671875 132.304688 146.867188 131.960938 146.640625 128.714844 C 146.410156 125.472656 145.773438 122.179688 143.515625 120.148438 C 140.042969 117.027344 140.621094 113.320312 140.621094 113.320312 C 140.621094 113.320312 134.832031 112.746094 130.320312 115.871094 C 125.8125 119 122.332031 118.996094 122.332031 118.996094 C 122.332031 118.996094 119.785156 121.773438 119.554688 123.503906 C 119.328125 125.238281 120.367188 125.820312 121.753906 126.285156 C 123.144531 126.746094 124.1875 126.628906 122.101562 128.484375 C 120.011719 130.339844 118.277344 130.214844 118.277344 130.214844 C 118.277344 130.214844 118.171875 132.179688 118.398438 133.332031 C 118.628906 134.488281 117.933594 136.496094 116.777344 136.707031 C 115.621094 136.917969 113.882812 135.417969 113.882812 135.417969 C 113.882812 135.417969 111.683594 137.734375 109.949219 135.300781 C 107.984375 137.148438 106.246094 136.460938 105.550781 135.300781 C 104.394531 137.148438 102.539062 136.34375 103.699219 134.253906 C 104.859375 132.167969 106.476562 131.933594 109.253906 132.054688 C 112.035156 132.179688 114.34375 129.972656 113.304688 127.078125 C 112.265625 124.183594 111.339844 120.25 111.339844 120.25 C 111.339844 120.25 109.140625 120.015625 105.898438 118.167969 C 101.851562 123.027344 100.460938 121.292969 99.300781 120.367188 C 98.140625 119.4375 95.367188 116.894531 95.367188 116.894531 C 95.367188 116.894531 93.859375 116.777344 94.09375 118.167969 C 92.472656 118.050781 93.050781 115.503906 93.050781 114.234375 C 93.050781 112.960938 92.589844 111.457031 91.660156 111.457031 C 90.734375 111.457031 89.34375 111.6875 89.34375 111.6875 C 89.34375 111.6875 89.34375 112.144531 90.734375 112.609375 C 92.121094 113.078125 92.003906 114.003906 90.617188 114.117188 C 89.226562 114.226562 88.300781 114.570312 89.34375 115.390625 C 90.390625 116.207031 90.5 116.660156 89.6875 117.472656 C 88.878906 118.285156 88.996094 120.476562 90.382812 121.292969 C 91.3125 119.09375 93.042969 120.371094 92.699219 121.871094 C 92.355469 123.371094 89.804688 123.144531 89.804688 123.144531 L 91.539062 125.109375 L 88.894531 125.6875 C 88.894531 125.6875 88.761719 127.3125 87.722656 127.65625 C 86.683594 128 86.449219 125.222656 86.449219 125.222656 L 84.015625 125.105469 L 85.640625 123.140625 C 85.640625 123.140625 83.320312 122.328125 83.207031 120.9375 C 83.089844 119.550781 84.9375 120.246094 85.289062 120.9375 C 87.140625 120.128906 86.5625 118.277344 85.867188 117.582031 C 85.171875 116.890625 85.632812 116.3125 86.328125 115.5 C 87.023438 114.6875 86.90625 114.226562 85.867188 114.457031 C 84.828125 114.683594 83.089844 112.601562 84.820312 112.601562 C 86.554688 112.601562 86.90625 112.484375 86.671875 111.210938 C 84.589844 110.984375 85.859375 109.359375 85.859375 109.359375 C 85.859375 109.359375 84.238281 108.199219 85.398438 107.394531 C 84.355469 106.472656 84.128906 104.960938 85.285156 104.734375 C 84.589844 104.15625 85.515625 103.109375 85.515625 103.109375 C 85.515625 103.109375 82.179688 102.542969 82.179688 100 C 82.179688 97.457031 85.070312 97.917969 85.070312 97.917969 C 85.070312 97.917969 84.726562 89.816406 85.535156 78.472656 C 86.339844 67.128906 91.089844 63.195312 93.984375 62.039062 C 90.972656 68.40625 91.320312 79.167969 91.320312 85.765625 C 91.320312 92.367188 91.207031 97.570312 91.207031 97.570312 C 91.207031 97.570312 94.445312 97.800781 94.210938 100 C 93.976562 102.199219 92.476562 102.660156 92.476562 102.660156 L 100 110.183594 C 100 110.183594 99.65625 102.464844 102.199219 99.382812 C 104.746094 96.300781 108.679688 93.40625 109.839844 92.476562 C 111 91.550781 109.121094 89.09375 108.222656 91.785156 C 106.910156 91.621094 105.789062 89.464844 105.789062 89.464844 C 105.789062 89.464844 105.90625 90.277344 105.09375 90.855469 C 104.285156 91.433594 104.515625 88.890625 104.050781 89.121094 C 103.582031 89.355469 102.316406 90.050781 100.695312 90.511719 C 100.8125 89.582031 101.503906 88.429688 101.503906 88.429688 C 101.503906 88.429688 99.421875 88.65625 97.566406 88.890625 C 97.566406 87.265625 98.605469 84.605469 99.535156 84.378906 C 97.214844 83.222656 97.800781 81.023438 98.839844 81.367188 C 99.878906 81.710938 104.738281 84.605469 110.183594 84.957031 C 108.449219 82.988281 107.0625 80.445312 107.0625 80.445312 L 106.484375 82.410156 L 104.398438 80.445312 L 104.167969 82.410156 C 104.167969 82.410156 99.070312 78.707031 98.148438 75.699219 C 97.226562 72.695312 98.265625 70.484375 100 70.722656 C 103.355469 71.179688 102.253906 74.304688 102.253906 74.304688 Z M 102.253906 74.304688 "/>
</g>
</svg>
