<?xml version="1.0" encoding="UTF-8"?>
<svg xmlns="http://www.w3.org/2000/svg" xmlns:xlink="http://www.w3.org/1999/xlink" width="200px" height="px" viewBox="0 0 200 200" version="1.1">
<g id="surface1">
<path style=" stroke:none;fill-rule:nonzero;fill:rgb(0%,16.470588%,56.078431%);fill-opacity:1;" d="M 177.777344 27.777344 L 22.222656 27.777344 C 9.949219 27.777344 0 37.726562 0 50 L 0 150 C 0 162.273438 9.949219 172.222656 22.222656 172.222656 L 177.777344 172.222656 C 190.050781 172.222656 200 162.273438 200 150 L 200 50 C 200 37.726562 190.050781 27.777344 177.777344 27.777344 Z M 177.777344 27.777344 "/>
<path style=" stroke:none;fill-rule:nonzero;fill:rgb(93.333333%,93.333333%,93.333333%);fill-opacity:1;" d="M 76.921875 83.332031 L 200 83.332031 L 200 55.554688 L 38.460938 55.554688 Z M 38.460938 144.445312 L 200 144.445312 L 200 116.667969 L 76.921875 116.667969 Z M 38.460938 144.445312 "/>
<path style=" stroke:none;fill-rule:nonzero;fill:rgb(81.176471%,7.843137%,16.862745%);fill-opacity:1;" d="M 76.921875 83.332031 L 38.460938 55.554688 L 7.679688 33.320312 C 3.011719 37.394531 0 43.316406 0 50 L 0 150 C 0 156.683594 3.011719 162.605469 7.679688 166.679688 L 38.460938 144.445312 L 76.921875 116.667969 L 100 100 Z M 76.921875 83.332031 "/>
<path style=" stroke:none;fill-rule:nonzero;fill:rgb(100%,100%,100%);fill-opacity:1;" d="M 41.640625 103.34375 L 52.777344 95.273438 L 39.011719 95.273438 L 34.738281 82.148438 L 30.449219 95.273438 L 16.667969 95.273438 L 27.8125 103.351562 L 23.527344 116.460938 L 34.722656 108.355469 L 45.917969 116.460938 Z M 41.640625 103.34375 "/>
</g>
</svg>
