<?xml version="1.0" encoding="UTF-8"?>
<svg xmlns="http://www.w3.org/2000/svg" xmlns:xlink="http://www.w3.org/1999/xlink" width="200px" height="200px" viewBox="0 0 200 200" version="1.1">
<g id="surface1">
<path style=" stroke:none;fill-rule:nonzero;fill:rgb(0%,21.960784%,65.882353%);fill-opacity:1;" d="M 0 150 C 0 162.273438 9.949219 172.222656 22.222656 172.222656 L 177.777344 172.222656 C 190.050781 172.222656 200 162.273438 200 150 L 200 127.777344 L 0 127.777344 Z M 0 150 "/>
<path style=" stroke:none;fill-rule:nonzero;fill:rgb(93.333333%,93.333333%,93.333333%);fill-opacity:1;" d="M 0 72.222656 L 200 72.222656 L 200 127.777344 L 0 127.777344 Z M 0 72.222656 "/>
<path style=" stroke:none;fill-rule:nonzero;fill:rgb(83.529412%,16.862745%,11.764706%);fill-opacity:1;" d="M 177.777344 27.777344 L 22.222656 27.777344 C 9.949219 27.777344 0 37.726562 0 50 L 0 72.222656 L 200 72.222656 L 200 50 C 200 37.726562 190.050781 27.777344 177.777344 27.777344 Z M 177.777344 27.777344 "/>
<path style=" stroke:none;fill-rule:nonzero;fill:rgb(0%,0%,0%);fill-opacity:1;" d="M 122.222656 100 C 122.222656 112.273438 112.273438 122.222656 100 122.222656 C 87.726562 122.222656 77.777344 112.273438 77.777344 100 C 77.777344 87.726562 87.726562 77.777344 100 77.777344 C 112.273438 77.777344 122.222656 87.726562 122.222656 100 Z M 122.222656 100 "/>
<path style=" stroke:none;fill-rule:nonzero;fill:rgb(93.333333%,93.333333%,93.333333%);fill-opacity:1;" d="M 120.832031 100 C 120.832031 111.503906 111.5 120.832031 100 120.832031 C 88.5 120.832031 79.167969 111.5 79.167969 100 C 79.167969 88.5 88.496094 79.167969 100 79.167969 C 111.503906 79.167969 120.832031 88.496094 120.832031 100 Z M 120.832031 100 "/>
<path style=" stroke:none;fill-rule:nonzero;fill:rgb(0%,0%,0%);fill-opacity:1;" d="M 118.054688 100 C 118.054688 109.972656 109.972656 118.054688 100 118.054688 C 90.027344 118.054688 81.945312 109.972656 81.945312 100 C 81.945312 90.027344 90.027344 81.945312 100 81.945312 C 109.972656 81.945312 118.054688 90.027344 118.054688 100 Z M 118.054688 100 "/>
<path style=" stroke:none;fill-rule:nonzero;fill:rgb(93.333333%,93.333333%,93.333333%);fill-opacity:1;" d="M 117.367188 100 C 117.367188 109.589844 109.589844 117.367188 100 117.367188 C 90.410156 117.367188 82.644531 109.589844 82.644531 100 C 82.644531 90.410156 90.417969 82.644531 100 82.644531 C 109.589844 82.644531 117.367188 90.417969 117.367188 100 Z M 117.367188 100 "/>
<path style=" stroke:none;fill-rule:nonzero;fill:rgb(60%,66.666667%,70.980392%);fill-opacity:1;" d="M 117.398438 99.890625 C 117.398438 90.277344 109.609375 82.488281 100 82.488281 C 90.390625 82.488281 82.601562 90.277344 82.601562 99.890625 C 82.601562 103.070312 83.457031 106.0625 84.949219 108.628906 L 100.015625 100.34375 L 115.054688 108.628906 C 116.542969 106.054688 117.398438 103.070312 117.398438 99.890625 Z M 117.398438 99.890625 "/>
<path style=" stroke:none;fill-rule:nonzero;fill:rgb(0%,0%,0%);fill-opacity:1;" d="M 113.890625 100 C 113.890625 107.671875 107.671875 113.890625 100 113.890625 C 92.328125 113.890625 86.109375 107.671875 86.109375 100 C 86.109375 92.328125 92.332031 86.109375 100 86.109375 C 107.667969 86.109375 113.890625 92.328125 113.890625 100 Z M 113.890625 100 "/>
<path style=" stroke:none;fill-rule:nonzero;fill:rgb(93.333333%,93.333333%,93.333333%);fill-opacity:1;" d="M 113.332031 100 C 113.332031 107.363281 107.363281 113.332031 100 113.332031 C 92.636719 113.332031 86.667969 107.363281 86.667969 100 C 86.667969 92.636719 92.636719 86.667969 100 86.667969 C 107.363281 86.667969 113.332031 92.636719 113.332031 100 Z M 113.332031 100 "/>
<path style=" stroke:none;fill-rule:nonzero;fill:rgb(100%,67.45098%,20%);fill-opacity:1;" d="M 100 95.457031 L 101.023438 98.59375 L 104.320312 98.59375 L 101.648438 100.539062 L 102.667969 103.679688 L 100 101.738281 L 97.332031 103.679688 L 98.351562 100.539062 L 95.679688 98.59375 L 98.976562 98.59375 Z M 100 95.457031 "/>
<path style=" stroke:none;fill-rule:nonzero;fill:rgb(0%,44.313725%,15.294118%);fill-opacity:1;" d="M 102.761719 91.761719 C 102.761719 91.761719 104.429688 91.371094 105.40625 91.273438 C 106.382812 91.171875 107.261719 93.429688 108.433594 93.816406 C 109.621094 94.214844 109.609375 95.382812 110.101562 96.753906 C 110.589844 98.128906 110.292969 98.417969 110.292969 99.984375 C 110.292969 101.550781 111.171875 102.332031 110.976562 103.503906 C 110.785156 104.679688 109.804688 104.972656 109.222656 105.753906 C 108.640625 106.542969 109.121094 107.515625 108.535156 108.105469 C 107.949219 108.6875 105.988281 108.59375 105.304688 109.183594 C 104.621094 109.765625 103.351562 110.648438 102.464844 110.160156 C 101.589844 109.671875 99.726562 109.476562 99.726562 109.476562 C 99.726562 109.476562 100.214844 107.714844 101.589844 107.128906 C 102.960938 106.542969 103.542969 106.640625 104.816406 106.25 C 106.089844 105.855469 105.988281 105.265625 106.871094 104.488281 C 107.75 103.707031 107.851562 102.628906 108.339844 101.84375 C 108.832031 101.0625 108.929688 100.472656 108.734375 99.394531 C 108.535156 98.316406 108.140625 97.144531 107.75 96.160156 C 107.359375 95.183594 106.476562 94.011719 105.890625 93.320312 C 105.304688 92.640625 102.761719 91.761719 102.761719 91.761719 Z M 102.761719 91.761719 "/>
<path style=" stroke:none;fill-rule:nonzero;fill:rgb(0%,44.313725%,15.294118%);fill-opacity:1;" d="M 96.695312 92.34375 C 96.695312 92.34375 97.667969 90.214844 96.695312 90.09375 C 92.777344 89.605469 91.996094 93.128906 90.820312 93.515625 C 89.640625 93.917969 89.449219 95.867188 88.964844 97.234375 C 88.476562 98.605469 88.671875 98.894531 88.671875 100.464844 C 88.671875 102.035156 88.699219 102.320312 88.898438 103.5 C 89.09375 104.671875 89.359375 105.554688 89.945312 106.339844 C 90.535156 107.121094 90.753906 107.511719 91.34375 108.09375 C 91.929688 108.679688 93.078125 109.273438 93.761719 109.855469 C 94.445312 110.4375 96.527344 110.640625 97.410156 110.148438 C 98.289062 109.660156 99.828125 109.464844 99.828125 109.464844 C 99.828125 109.464844 99.171875 108.289062 97.804688 107.707031 C 96.433594 107.121094 96.339844 106.632812 95.066406 106.238281 C 93.792969 105.84375 93.894531 105.253906 93.011719 104.476562 C 92.132812 103.695312 92.035156 102.617188 91.542969 101.832031 C 91.054688 101.050781 91.316406 100.855469 91.515625 99.777344 C 91.710938 98.699219 92.101562 97.820312 92.496094 96.84375 C 92.882812 95.867188 93.867188 94.59375 94.449219 93.910156 C 95.035156 93.226562 96.695312 92.34375 96.695312 92.34375 Z M 96.695312 92.34375 "/>
<path style=" stroke:none;fill-rule:nonzero;fill:rgb(0%,44.313725%,15.294118%);fill-opacity:1;" d="M 96.792969 110.351562 L 98.066406 111.226562 L 99.726562 110.054688 L 101.292969 111.132812 L 103.351562 110.351562 L 101.292969 111.820312 L 99.828125 110.644531 L 98.261719 111.722656 L 96.695312 110.839844 Z M 96.792969 110.351562 "/>
</g>
</svg>
