<?xml version="1.0" encoding="UTF-8"?>
<svg xmlns="http://www.w3.org/2000/svg" xmlns:xlink="http://www.w3.org/1999/xlink" width="200px" height="px" viewBox="0 0 200 200" version="1.1">
<g id="surface1">
<path style=" stroke:none;fill-rule:nonzero;fill:rgb(0%,18.823529%,50.980392%);fill-opacity:1;" d="M 177.777344 27.777344 L 22.222656 27.777344 C 9.949219 27.777344 0 37.726562 0 50 L 0 63.890625 L 200 63.890625 L 200 50 C 200 37.726562 190.050781 27.777344 177.777344 27.777344 Z M 177.777344 27.777344 "/>
<path style=" stroke:none;fill-rule:nonzero;fill:rgb(93.333333%,93.333333%,93.333333%);fill-opacity:1;" d="M 0 63.890625 L 200 63.890625 L 200 100 L 0 100 Z M 0 63.890625 "/>
<path style=" stroke:none;fill-rule:nonzero;fill:rgb(15.686275%,59.215686%,15.686275%);fill-opacity:1;" d="M 0 100 L 200 100 L 200 136.109375 L 0 136.109375 Z M 0 100 "/>
<path style=" stroke:none;fill-rule:nonzero;fill:rgb(100%,80.784314%,0%);fill-opacity:1;" d="M 0 136.109375 L 0 150 C 0 162.273438 9.949219 172.222656 22.222656 172.222656 L 177.777344 172.222656 C 190.050781 172.222656 200 162.273438 200 150 L 200 136.109375 Z M 0 136.109375 "/>
<path style=" stroke:none;fill-rule:nonzero;fill:rgb(82.352941%,6.27451%,20.392157%);fill-opacity:1;" d="M 83.332031 27.777344 L 116.667969 27.777344 L 116.667969 172.222656 L 83.332031 172.222656 Z M 83.332031 27.777344 "/>
<path style=" stroke:none;fill-rule:nonzero;fill:rgb(100%,80.784314%,0%);fill-opacity:1;" d="M 38.210938 42.289062 L 34.433594 30.65625 L 30.648438 42.289062 L 18.421875 42.289062 L 28.316406 49.476562 L 24.539062 61.109375 L 34.433594 53.921875 L 44.328125 61.109375 L 40.542969 49.476562 L 50.445312 42.289062 Z M 38.210938 42.289062 "/>
</g>
</svg>
