<?xml version="1.0" encoding="UTF-8"?>
<svg xmlns="http://www.w3.org/2000/svg" xmlns:xlink="http://www.w3.org/1999/xlink" width="200px" height="200px" viewBox="0 0 200 200" version="1.1">
<g id="surface1">
<path style=" stroke:none;fill-rule:nonzero;fill:rgb(13.333333%,25.098039%,54.509804%);fill-opacity:1;" d="M 154.421875 105.554688 L 44.445312 27.777344 L 44.445312 172.222656 L 154.421875 172.222656 L 88.433594 105.554688 Z M 154.421875 105.554688 "/>
<path style=" stroke:none;fill-rule:nonzero;fill:rgb(86.666667%,18.431373%,27.058824%);fill-opacity:1;" d="M 138.890625 100 L 50 39.976562 L 50 166.667969 L 138.890625 166.667969 L 75.410156 100 Z M 138.890625 100 "/>
<path style=" stroke:none;fill-rule:nonzero;fill:rgb(100%,100%,100%);fill-opacity:1;" d="M 79.394531 133.5625 L 82.648438 129.027344 L 77.09375 129.570312 L 77.648438 124.015625 L 73.109375 127.273438 L 70.8125 122.183594 L 68.511719 127.273438 L 63.972656 124.015625 L 64.523438 129.570312 L 58.964844 129.027344 L 62.222656 133.5625 L 57.132812 135.859375 L 62.222656 138.160156 L 58.964844 142.695312 L 64.523438 142.148438 L 63.972656 147.707031 L 68.511719 144.449219 L 70.8125 149.539062 L 73.109375 144.449219 L 77.648438 147.707031 L 77.09375 142.148438 L 82.648438 142.695312 L 79.394531 138.160156 L 84.484375 135.859375 Z M 70.804688 93.855469 L 70.8125 93.867188 L 70.816406 93.855469 L 70.917969 93.867188 C 79.070312 93.867188 85.695312 87.589844 86.382812 79.605469 C 84.449219 83.207031 81.316406 86.050781 77.523438 87.617188 L 76.550781 86.261719 L 79.945312 84.726562 L 76.550781 83.195312 L 78.722656 80.167969 L 75.011719 80.535156 L 75.382812 76.820312 L 72.351562 78.996094 L 70.816406 75.59375 L 69.285156 78.996094 L 66.25 76.820312 L 66.621094 80.535156 L 62.910156 80.167969 L 65.082031 83.195312 L 61.6875 84.726562 L 65.082031 86.261719 L 64.15625 87.554688 C 60.433594 85.976562 57.367188 83.15625 55.457031 79.605469 C 56.128906 87.542969 62.695312 93.792969 70.804688 93.855469 Z M 70.804688 93.855469 "/>
</g>
</svg>
