<?xml version="1.0" encoding="UTF-8"?>
<svg xmlns="http://www.w3.org/2000/svg" xmlns:xlink="http://www.w3.org/1999/xlink" width="200px" height="200px" viewBox="0 0 200 200" version="1.1">
<g id="surface1">
<path style=" stroke:none;fill-rule:nonzero;fill:rgb(17.647059%,19.215686%,53.72549%);fill-opacity:1;" d="M 177.777344 27.777344 L 50.984375 27.777344 L 47.289062 30.464844 L 49.316406 36.707031 L 44.003906 32.84375 L 38.695312 36.707031 L 40.722656 30.464844 L 37.027344 27.777344 L 22.222656 27.777344 C 9.949219 27.777344 0 37.726562 0 50 L 0 150 C 0 162.273438 9.949219 172.222656 22.222656 172.222656 L 131.804688 172.222656 L 132.390625 170.421875 L 127.082031 166.5625 L 133.644531 166.5625 L 135.671875 160.320312 L 137.699219 166.5625 L 144.261719 166.5625 L 138.957031 170.421875 L 139.539062 172.222656 L 177.777344 172.222656 C 190.050781 172.222656 200 162.273438 200 150 L 200 50 C 200 37.726562 190.050781 27.777344 177.777344 27.777344 Z M 177.777344 27.777344 "/>
<path style=" stroke:none;fill-rule:nonzero;fill:rgb(88.235294%,90.980392%,92.941176%);fill-opacity:1;" d="M 38.695312 36.707031 L 44.003906 32.84375 L 49.3125 36.707031 L 47.289062 30.464844 L 50.984375 27.777344 L 37.027344 27.777344 L 40.722656 30.464844 Z M 144.261719 166.5625 L 137.699219 166.5625 L 135.671875 160.328125 L 133.644531 166.5625 L 127.082031 166.5625 L 132.390625 170.421875 L 131.804688 172.222656 L 139.539062 172.222656 L 138.949219 170.421875 Z M 55.550781 37.859375 L 57.570312 44.101562 L 64.140625 44.101562 L 58.828125 47.960938 L 60.855469 54.199219 L 55.550781 50.339844 L 50.238281 54.199219 L 52.265625 47.960938 L 46.960938 44.101562 L 53.515625 44.101562 Z M 67.042969 55.359375 L 69.070312 61.59375 L 75.640625 61.59375 L 70.328125 65.457031 L 72.355469 71.695312 L 67.042969 67.839844 L 61.738281 71.695312 L 63.765625 65.457031 L 58.457031 61.59375 L 65.015625 61.59375 Z M 78.457031 72.851562 L 80.484375 79.089844 L 87.042969 79.089844 L 81.734375 82.949219 L 83.761719 89.1875 L 78.457031 85.328125 L 73.144531 89.1875 L 75.171875 82.949219 L 69.867188 79.089844 L 76.429688 79.089844 Z M 89.90625 90.351562 L 91.933594 96.589844 L 98.496094 96.589844 L 93.1875 100.445312 L 95.214844 106.683594 L 89.90625 102.828125 L 84.601562 106.683594 L 86.628906 100.445312 L 81.316406 96.589844 L 87.878906 96.589844 Z M 101.355469 107.84375 L 103.382812 114.082031 L 109.949219 114.082031 L 104.640625 117.9375 L 106.667969 124.183594 L 101.355469 120.320312 L 96.050781 124.183594 L 98.078125 117.9375 L 92.773438 114.082031 L 99.332031 114.082031 Z M 112.8125 125.339844 L 114.839844 131.578125 L 121.398438 131.578125 L 116.09375 135.433594 L 118.117188 141.671875 L 112.8125 137.816406 L 107.503906 141.671875 L 109.527344 135.433594 L 104.222656 131.578125 L 110.785156 131.578125 Z M 124.214844 142.828125 L 126.246094 149.070312 L 132.8125 149.070312 L 127.5 152.929688 L 129.527344 159.167969 L 124.214844 155.3125 L 118.910156 159.167969 L 120.9375 152.929688 L 115.628906 149.070312 L 122.1875 149.070312 Z M 124.214844 142.828125 "/>
<path style=" stroke:none;fill-rule:nonzero;fill:rgb(98.431373%,81.960784%,8.627451%);fill-opacity:1;" d="M 155.554688 172.222656 L 155.554688 27.777344 L 61.109375 27.777344 Z M 155.554688 172.222656 "/>
</g>
</svg>
