<?xml version="1.0" encoding="UTF-8"?>
<svg xmlns="http://www.w3.org/2000/svg" xmlns:xlink="http://www.w3.org/1999/xlink" width="200px" height="px" viewBox="0 0 200 200" version="1.1">
<g id="surface1">
<path style=" stroke:none;fill-rule:nonzero;fill:rgb(83.529412%,16.862745%,11.764706%);fill-opacity:1;" d="M 22.222656 27.777344 C 9.949219 27.777344 0 37.726562 0 50 L 0 150 C 0 162.273438 9.949219 172.222656 22.222656 172.222656 L 55.554688 172.222656 L 55.554688 27.777344 Z M 177.777344 27.777344 L 144.445312 27.777344 L 144.445312 172.222656 L 177.777344 172.222656 C 190.050781 172.222656 200 162.273438 200 150 L 200 50 C 200 37.726562 190.050781 27.777344 177.777344 27.777344 Z M 177.777344 27.777344 "/>
<path style=" stroke:none;fill-rule:nonzero;fill:rgb(93.333333%,93.333333%,93.333333%);fill-opacity:1;" d="M 55.554688 27.777344 L 144.445312 27.777344 L 144.445312 172.222656 L 55.554688 172.222656 Z M 55.554688 27.777344 "/>
<path style=" stroke:none;fill-rule:nonzero;fill:rgb(83.529412%,16.862745%,11.764706%);fill-opacity:1;" d="M 103.417969 122.851562 C 110.070312 123.621094 116.039062 124.316406 122.6875 125.078125 L 120.996094 119.511719 C 120.722656 118.535156 121.109375 117.464844 121.878906 116.867188 L 141.207031 101.121094 L 137.207031 99.238281 C 135.445312 98.609375 135.929688 97.617188 136.566406 95.226562 L 139.515625 84.472656 L 128.289062 86.84375 C 127.195312 87.011719 126.464844 86.316406 126.300781 85.648438 L 124.851562 80.589844 L 115.972656 90.554688 C 114.710938 92.15625 112.15625 92.15625 112.949219 88.464844 L 116.746094 68.277344 L 111.648438 70.917969 C 110.222656 71.714844 108.792969 71.851562 108 70.421875 L 100.972656 57.277344 L 100.972656 57.605469 L 100.972656 57.277344 L 93.945312 70.421875 C 93.144531 71.851562 91.714844 71.714844 90.289062 70.917969 L 85.199219 68.277344 L 88.996094 88.464844 C 89.792969 92.15625 87.234375 92.15625 85.972656 90.554688 L 77.09375 80.59375 L 75.648438 85.65625 C 75.484375 86.320312 74.75 87.015625 73.65625 86.851562 L 62.429688 84.476562 L 65.378906 95.234375 C 66.003906 97.621094 66.496094 98.617188 64.734375 99.246094 L 60.734375 101.128906 L 80.0625 116.871094 C 80.828125 117.464844 81.214844 118.539062 80.9375 119.515625 L 79.246094 125.082031 L 98.523438 122.855469 C 99.109375 122.855469 99.5 123.183594 99.496094 123.859375 L 98.304688 144.4375 L 103.617188 144.4375 L 102.433594 123.859375 C 102.445312 123.179688 102.828125 122.851562 103.417969 122.851562 Z M 103.417969 122.851562 "/>
</g>
</svg>
